<?xml version="1.0" encoding="UTF-8"?>
<!DOCTYPE svg PUBLIC "-//W3C//DTD SVG 1.1//EN" "http://www.w3.org/Graphics/SVG/1.1/DTD/svg11.dtd">
<!-- Creator: CorelDRAW X8 -->
<svg xmlns="http://www.w3.org/2000/svg" xml:space="preserve" width="50.5mm" height="50.5mm" version="1.1" style="shape-rendering:geometricPrecision; text-rendering:geometricPrecision; image-rendering:optimizeQuality; fill-rule:evenodd; clip-rule:evenodd"
viewBox="0 0 5050 5050"
 xmlns:xlink="http://www.w3.org/1999/xlink">
 <defs>
  <style type="text/css">
   <![CDATA[
    .str0 {stroke:#495C80;stroke-width:7.62}
    .str3 {stroke:#FEFEFE;stroke-width:23.04;stroke-linecap:round;stroke-linejoin:round}
    .str4 {stroke:#FEFEFE;stroke-width:23.05;stroke-linecap:round;stroke-linejoin:round}
    .str5 {stroke:#FEFEFE;stroke-width:11.52;stroke-linecap:round;stroke-linejoin:round}
    .str6 {stroke:#FEFEFE;stroke-width:11.52;stroke-linecap:round;stroke-linejoin:round}
    .str2 {stroke:#FEFEFE;stroke-width:139.8;stroke-linecap:round;stroke-linejoin:round}
    .str1 {stroke:#FEFEFE;stroke-width:139.8;stroke-linecap:round;stroke-linejoin:round}
    .fil3 {fill:none}
    .fil6 {fill:#FEFEFE}
    .fil4 {fill:#FEFEFE}
    .fil0 {fill:#495C80}
    .fil5 {fill:#FEFEFE;fill-rule:nonzero}
    .fil1 {fill:#495C80;fill-rule:nonzero}
    .fil2 {fill:#495C80;fill-rule:nonzero}
   ]]>
  </style>
 </defs>
 <g id="Capa_x0020_1">
  <metadata id="CorelCorpID_0Corel-Layer"/>
  <g id="_2315608996880">
   <path class="fil0 str0" d="M312 160l4186 0c227,0 413,186 413,414l0 3734c0,228 -186,414 -413,414l-4267 0 0 -4481c0,-45 37,-81 81,-81z"/>
   <g>
    <path class="fil1" d="M4723 2020c0,-55 43,-100 97,-100 54,0 97,45 97,100l-194 0zm0 2281l0 -2281 194 0 0 2281 0 0 -194 0zm-383 595l0 -200 0 0 20 -1 19 -1 19 -3 19 -3 18 -5 18 -5 18 -6 17 -7 17 -8 17 -9 16 -9 16 -11 15 -11 14 -12 14 -12 13 -13 13 -14 12 -14 12 -15 10 -16 10 -16 10 -16 8 -17 8 -18 7 -18 6 -18 5 -18 4 -19 4 -20 2 -19 1 -20 1 -21 194 0 -1 31 -2 30 -4 30 -5 29 -6 29 -8 28 -9 27 -10 27 -12 27 -13 25 -14 25 -15 24 -16 24 -17 22 -18 22 -19 20 -20 20 -21 19 -22 17 -23 17 -23 15 -24 15 -25 13 -26 12 -26 11 -27 9 -27 8 -28 7 -28 5 -29 4 -29 2 -30 1 0 0zm-4060 -200l4060 0 0 200 -4060 0 0 0 0 -200zm-147 48l194 0 0 0 0 -2 0 -3 -1 -2 0 -2 0 -3 -1 -2 -1 -3 -1 -2 -1 -2 -1 -2 -1 -2 -1 -2 -1 -2 -2 -2 -1 -1 -2 -2 -1 -2 -2 -1 -2 -2 -1 -1 -2 -1 -2 -1 -2 -1 -2 -1 -3 -1 -2 -1 -2 -1 -3 0 -2 -1 -2 0 -3 0 -2 0 0 200 -8 0 -7 -1 -7 -1 -8 -1 -7 -2 -7 -2 -7 -2 -6 -3 -7 -3 -6 -4 -6 -3 -6 -4 -6 -4 -6 -5 -5 -5 -5 -5 -5 -5 -4 -5 -5 -6 -4 -6 -4 -6 -3 -6 -3 -7 -3 -7 -3 -7 -2 -7 -2 -7 -2 -7 -1 -8 -1 -7 -1 -8 0 -8 0 0zm194 -4438l0 4438 -194 0 0 -4438 0 0 194 0zm-47 -152l0 200 0 0 2 0 3 0 2 0 2 -1 3 0 2 -1 2 -1 3 -1 2 -1 2 -1 2 -1 2 -1 1 -1 2 -2 2 -1 1 -2 2 -2 1 -1 2 -2 1 -2 1 -2 1 -2 1 -2 1 -2 1 -2 1 -3 1 -2 0 -3 0 -2 1 -2 0 -3 0 -2 -194 0 0 -8 1 -8 1 -7 1 -8 2 -7 2 -7 2 -7 3 -7 3 -7 3 -7 3 -6 4 -6 4 -6 5 -6 4 -5 5 -5 5 -5 5 -5 6 -5 6 -4 6 -4 6 -3 6 -4 7 -3 6 -3 7 -2 7 -2 7 -2 8 -1 7 -1 7 -1 8 0 0 0zm2702 200l-2702 0 0 -200 2702 0 0 200zm0 -200c53,0 97,45 97,100 0,55 -44,100 -97,100l0 -200z"/>
   </g>
   <g>
    <path class="fil1" d="M4723 2020c0,-55 43,-100 97,-100 54,0 97,45 97,100l-194 0zm0 2281l0 -2281 194 0 0 2281 0 0 -194 0zm-383 595l0 -200 0 0 20 -1 19 -1 19 -3 19 -3 18 -5 18 -5 18 -6 17 -7 17 -8 17 -9 16 -9 16 -11 15 -11 14 -12 14 -12 13 -13 13 -14 12 -14 12 -15 10 -16 10 -16 10 -16 8 -17 8 -18 7 -18 6 -18 5 -18 4 -19 4 -20 2 -19 1 -20 1 -21 194 0 -1 31 -2 30 -4 30 -5 29 -6 29 -8 28 -9 27 -10 27 -12 27 -13 25 -14 25 -15 24 -16 24 -17 22 -18 22 -19 20 -20 20 -21 19 -22 17 -23 17 -23 15 -24 15 -25 13 -26 12 -26 11 -27 9 -27 8 -28 7 -28 5 -29 4 -29 2 -30 1 0 0zm-4060 -200l4060 0 0 200 -4060 0 0 0 0 -200zm-147 48l194 0 0 0 0 -2 0 -3 -1 -2 0 -2 0 -3 -1 -2 -1 -3 -1 -2 -1 -2 -1 -2 -1 -2 -1 -2 -1 -2 -2 -2 -1 -1 -2 -2 -1 -2 -2 -1 -2 -2 -1 -1 -2 -1 -2 -1 -2 -1 -2 -1 -3 -1 -2 -1 -2 -1 -3 0 -2 -1 -2 0 -3 0 -2 0 0 200 -8 0 -7 -1 -7 -1 -8 -1 -7 -2 -7 -2 -7 -2 -6 -3 -7 -3 -6 -4 -6 -3 -6 -4 -6 -4 -6 -5 -5 -5 -5 -5 -5 -5 -4 -5 -5 -6 -4 -6 -4 -6 -3 -6 -3 -7 -3 -7 -3 -7 -2 -7 -2 -7 -2 -7 -1 -8 -1 -7 -1 -8 0 -8 0 0zm194 -4438l0 4438 -194 0 0 -4438 0 0 194 0zm-47 -152l0 200 0 0 2 0 3 0 2 0 2 -1 3 0 2 -1 2 -1 3 -1 2 -1 2 -1 2 -1 2 -1 1 -1 2 -2 2 -1 1 -2 2 -2 1 -1 2 -2 1 -2 1 -2 1 -2 1 -2 1 -2 1 -2 1 -3 1 -2 0 -3 0 -2 1 -2 0 -3 0 -2 -194 0 0 -8 1 -8 1 -7 1 -8 2 -7 2 -7 2 -7 3 -7 3 -7 3 -7 3 -6 4 -6 4 -6 5 -6 4 -5 5 -5 5 -5 5 -5 6 -5 6 -4 6 -4 6 -3 6 -4 7 -3 6 -3 7 -2 7 -2 7 -2 8 -1 7 -1 7 -1 8 0 0 0zm2702 200l-2702 0 0 -200 2702 0 0 200zm0 -200c53,0 97,45 97,100 0,55 -44,100 -97,100l0 -200z"/>
   </g>
  </g>
  <g>
   <path class="fil2" d="M4723 2020c0,-55 43,-100 97,-100 54,0 97,45 97,100l-194 0zm0 2281l0 -2281 194 0 0 2281 0 0 -194 0zm-383 595l0 -200 0 0 20 -1 19 -1 19 -3 19 -3 18 -5 18 -5 18 -6 17 -7 17 -8 17 -9 16 -9 16 -11 15 -11 14 -12 14 -12 13 -13 13 -14 12 -14 12 -15 10 -16 10 -16 10 -16 8 -17 8 -18 7 -18 6 -18 5 -18 4 -19 4 -20 2 -19 1 -20 1 -21 194 0 -1 31 -2 30 -4 30 -5 29 -6 29 -8 28 -9 27 -10 27 -12 27 -13 25 -14 25 -15 24 -16 24 -17 22 -18 22 -19 20 -20 20 -21 19 -22 17 -23 17 -23 15 -24 15 -25 13 -26 12 -26 11 -27 9 -27 8 -28 7 -28 5 -29 4 -29 2 -30 1 0 0zm-4060 -200l4060 0 0 200 -4060 0 0 0 0 -200zm-147 48l194 0 0 0 0 -2 0 -3 -1 -2 0 -2 0 -3 -1 -2 -1 -3 -1 -2 -1 -2 -1 -2 -1 -2 -1 -2 -1 -2 -2 -2 -1 -1 -2 -2 -1 -2 -2 -1 -2 -2 -1 -1 -2 -1 -2 -1 -2 -1 -2 -1 -3 -1 -2 -1 -2 -1 -3 0 -2 -1 -2 0 -3 0 -2 0 0 200 -8 0 -7 -1 -7 -1 -8 -1 -7 -2 -7 -2 -7 -2 -6 -3 -7 -3 -6 -4 -6 -3 -6 -4 -6 -4 -6 -5 -5 -5 -5 -5 -5 -5 -4 -5 -5 -6 -4 -6 -4 -6 -3 -6 -3 -7 -3 -7 -3 -7 -2 -7 -2 -7 -2 -7 -1 -8 -1 -7 -1 -8 0 -8 0 0zm194 -4438l0 4438 -194 0 0 -4438 0 0 194 0zm-47 -152l0 200 0 0 2 0 3 0 2 0 2 -1 3 0 2 -1 2 -1 3 -1 2 -1 2 -1 2 -1 2 -1 1 -1 2 -2 2 -1 1 -2 2 -2 1 -1 2 -2 1 -2 1 -2 1 -2 1 -2 1 -2 1 -2 1 -3 1 -2 0 -3 0 -2 1 -2 0 -3 0 -2 -194 0 0 -8 1 -8 1 -7 1 -8 2 -7 2 -7 2 -7 3 -7 3 -7 3 -7 3 -6 4 -6 4 -6 5 -6 4 -5 5 -5 5 -5 5 -5 6 -5 6 -4 6 -4 6 -3 6 -4 7 -3 6 -3 7 -2 7 -2 7 -2 8 -1 7 -1 7 -1 8 0 0 0zm2702 200l-2702 0 0 -200 2702 0 0 200zm0 -200c53,0 97,45 97,100 0,55 -44,100 -97,100l0 -200z"/>
  </g>
  <path class="fil3 str1" d="M2881 3054l-1730 0c-99,0 -179,-81 -179,-180l0 -1631c0,-98 80,-179 179,-179l2498 0c99,0 180,81 180,179l0 449"/>
  <path class="fil3 str2" d="M2881 3277l-2248 0c-28,0 -50,23 -50,51l0 100c0,225 184,410 410,410l1885 0"/>
  <g>
   <path class="fil4" d="M2192 3277l416 0c11,0 20,-9 20,-20l0 -183c0,-11 -9,-20 -20,-20l-416 0c-11,0 -20,9 -20,20l0 183c0,11 9,20 20,20z"/>
   <path id="1" class="fil5" d="M2608 3207l0 140 -416 0 0 -140 416 0zm90 50l0 0 0 4 0 5 -1 5 -1 4 -1 5 -1 4 -1 4 -2 4 -2 4 -2 4 -2 4 -2 3 -3 4 -2 3 -3 3 -3 4 -3 3 -3 2 -4 3 -4 3 -3 2 -3 2 -5 2 -4 2 -4 2 -4 1 -4 1 -4 1 -5 1 -5 1 -4 0 -5 0 0 -140 -2 0 -3 1 -3 0 -2 0 -3 1 -2 1 -2 0 -2 1 -3 1 -2 2 -2 1 -2 1 -2 1 -2 2 -1 1 -2 2 -2 2 -1 1 -2 2 -2 2 -1 2 -1 2 -1 2 -1 3 -1 2 -1 2 0 3 -1 2 0 2 -1 3 0 3 0 2 0 0 140 0zm-140 -183l140 0 0 183 -140 0 0 -183zm50 -90l0 0 5 0 4 1 5 0 5 1 4 1 4 1 4 2 4 1 4 2 5 2 3 2 3 3 4 2 4 3 3 3 3 3 3 3 3 3 2 3 3 4 2 4 2 3 2 4 2 4 2 4 1 4 1 5 1 4 1 5 1 4 0 5 0 4 -140 0 0 3 0 2 1 3 0 2 1 3 0 2 1 2 1 3 1 2 1 2 1 2 1 2 2 2 2 2 1 2 2 1 1 2 2 1 2 2 2 2 2 1 2 1 2 1 3 1 2 1 2 1 2 0 3 1 2 0 3 1 3 0 2 0 0 0 0 -140zm-416 140l0 -140 416 0 0 140 -416 0zm-90 -50l0 0 0 -4 0 -5 1 -4 1 -5 1 -4 1 -5 2 -4 1 -4 2 -4 2 -4 2 -3 2 -4 3 -4 3 -3 2 -3 3 -3 3 -3 4 -3 3 -3 4 -2 3 -3 4 -2 4 -2 4 -2 4 -1 4 -2 5 -1 4 -1 4 -1 5 0 5 -1 4 0 0 140 3 0 2 0 3 -1 3 0 2 -1 2 0 3 -1 2 -1 2 -1 3 -1 1 -1 2 -1 2 -2 2 -2 2 -1 2 -2 1 -1 2 -2 1 -2 2 -2 1 -2 1 -2 1 -2 1 -2 1 -3 1 -2 1 -2 0 -3 1 -2 0 -3 0 -2 0 -3 0 0 -140 0zm140 183l-140 0 0 -183 140 0 0 183zm-50 90l0 0 -4 0 -5 0 -5 -1 -4 -1 -4 -1 -5 -1 -4 -1 -4 -2 -4 -2 -4 -2 -4 -2 -3 -2 -4 -3 -3 -3 -3 -2 -4 -3 -3 -4 -2 -3 -3 -3 -3 -4 -2 -3 -2 -4 -2 -4 -2 -4 -1 -4 -2 -4 -1 -4 -1 -5 -1 -4 -1 -5 0 -5 0 -4 140 0 0 -2 0 -3 0 -3 -1 -2 0 -2 -1 -3 -1 -2 -1 -2 -1 -3 -1 -2 -1 -2 -1 -2 -2 -2 -1 -2 -1 -1 -2 -2 -2 -2 -2 -1 -2 -2 -2 -1 -2 -1 -1 -1 -3 -2 -2 -1 -2 -1 -3 0 -2 -1 -2 -1 -3 0 -3 0 -2 -1 -3 0 0 0 0 140z"/>
  </g>
  <g>
   <path class="fil5" d="M4117 1982l-916 0 0 -142 916 0 0 0 0 142zm171 30l-140 0 0 0 0 -2 0 -1 0 -2 -1 -1 0 -1 0 -2 -1 -1 0 -2 -1 -1 -1 -1 0 -1 -1 -2 -1 -1 -1 -1 -1 -1 -1 -1 -1 -1 -1 -1 -1 -1 -2 -1 -1 -1 -1 -1 -2 0 -1 -1 -1 -1 -2 0 -1 0 -2 -1 -1 0 -2 0 -1 0 -2 0 0 -142 9 0 8 1 9 1 8 2 8 2 8 2 8 3 8 3 8 3 7 4 7 4 7 4 7 5 6 5 6 6 6 5 6 6 5 6 5 7 5 6 5 7 4 8 4 7 3 8 3 7 3 8 2 9 2 8 2 9 1 8 0 9 1 9 0 0zm-140 1725l0 -1725 140 0 0 1725 0 0 -140 0zm-31 172l0 -142 0 0 2 0 1 0 2 0 1 0 2 -1 1 0 2 -1 1 0 1 -1 2 -1 1 0 1 -1 2 -1 1 -1 1 -1 1 -1 1 -1 1 -1 1 -1 1 -2 1 -1 0 -1 1 -1 1 -2 0 -1 1 -1 0 -2 0 -1 1 -2 0 -1 0 -1 0 -2 140 0 -1 9 0 9 -1 8 -2 9 -2 8 -2 8 -3 8 -3 8 -3 8 -4 7 -4 7 -5 7 -5 7 -5 7 -5 6 -6 6 -6 5 -6 6 -6 5 -7 4 -7 5 -7 4 -7 4 -8 3 -8 3 -8 3 -8 2 -8 2 -8 2 -9 1 -8 0 -9 1 0 0zm-916 -142l916 0 0 142 -916 0 0 0 0 -142zm-171 -30l140 0 0 0 0 2 0 1 0 1 1 2 0 1 0 2 1 1 0 1 1 2 1 1 0 1 1 1 1 2 1 1 1 1 1 1 1 1 1 1 1 1 2 1 1 1 1 0 2 1 1 1 1 0 2 1 1 0 2 1 1 0 2 0 1 0 2 0 0 142 -9 -1 -8 0 -9 -1 -8 -2 -8 -2 -9 -2 -7 -3 -8 -3 -8 -3 -7 -4 -7 -4 -7 -5 -7 -4 -6 -5 -6 -6 -6 -5 -6 -6 -5 -6 -5 -7 -5 -7 -5 -7 -4 -7 -4 -7 -3 -8 -3 -8 -3 -8 -2 -8 -2 -8 -2 -9 -1 -8 -1 -9 0 -9 0 0zm140 -1725l0 1725 -140 0 0 -1725 0 0 140 0zm31 -172l0 142 0 0 -2 0 -1 0 -2 0 -1 0 -2 1 -1 0 -2 0 -1 1 -1 1 -2 0 -1 1 -1 1 -2 1 -1 1 -1 1 -1 1 -1 1 -1 1 -1 1 -1 1 -1 2 0 1 -1 1 -1 1 0 2 -1 1 0 2 0 1 -1 1 0 2 0 1 0 2 -140 0 0 -9 1 -9 1 -8 2 -9 2 -8 2 -9 3 -8 3 -7 3 -8 4 -7 4 -8 5 -7 5 -6 5 -7 5 -6 6 -6 6 -5 6 -6 6 -5 7 -5 7 -4 7 -4 7 -4 8 -3 8 -3 7 -3 9 -2 8 -2 8 -2 9 -1 8 -1 9 0 0 0z"/>
  </g>
  <path class="fil6 str3" d="M3339 3209l62 63 67 -43c20,12 43,22 66,27l17 78 89 0 16 -78c24,-5 46,-15 67,-27l66 43 63 -63 -43 -66c12,-21 22,-43 28,-67l77 -17 0 -88 -77 -17c-6,-24 -16,-46 -28,-66l43 -67 -63 -63 -66 43c-21,-12 -43,-21 -67,-27l-16 -78 -89 0 -17 78c-23,6 -46,15 -66,27l-67 -43 -62 63 42 67c-12,20 -21,42 -27,66l-77 17 0 88 77 17c6,24 15,46 27,67l-42 66zm102 -194c0,85 69,154 154,154 86,0 155,-69 155,-154 0,-85 -69,-154 -155,-154 -85,0 -154,69 -154,154z"/>
  <path class="fil6 str4" d="M3710 2697l39 39 41 -26c12,7 26,13 41,17l10 47 55 0 10 -47c15,-4 29,-10 41,-17l41 26 39 -39 -26 -41c7,-12 13,-26 17,-41l47 -10 0 -55 -47 -10c-4,-15 -10,-28 -17,-41l26 -41 -39 -39 -41 27c-12,-8 -26,-14 -41,-17l-10 -48 -55 0 -10 48c-15,3 -29,9 -41,17l-41 -27 -39 39 26 41c-7,13 -13,26 -16,41l-48 10 0 55 47 10c4,15 10,29 17,41l-26 41zm63 -119c0,52 43,95 96,95 52,0 95,-43 95,-95 0,-53 -43,-96 -95,-96 -53,0 -96,43 -96,96z"/>
  <g>
   <path class="fil5" d="M3383 3016l15 0c0,4 -3,8 -8,8 -4,0 -7,-4 -7,-8zm212 -196l-11 0 -10 1 -9 1 -10 2 -10 2 -9 3 -9 3 -9 3 -9 4 -8 5 -8 4 -8 6 -8 5 -7 6 -8 6 -6 7 -7 6 -6 7 -6 8 -5 8 -5 7 -5 9 -5 8 -3 9 -4 9 -3 9 -3 9 -2 10 -2 9 -1 10 -1 10 0 10 -15 0 0 -11 1 -10 1 -11 2 -10 2 -11 3 -10 4 -10 3 -9 5 -10 4 -9 5 -9 6 -8 6 -8 6 -8 7 -8 7 -7 7 -7 8 -7 8 -6 8 -6 9 -6 9 -5 9 -4 9 -5 10 -3 10 -4 10 -3 10 -2 10 -2 11 -1 11 -1 11 0 0 15zm0 -8l0 0 0 0 0 0 0 0 0 0 0 0 0 0 0 0 0 0 0 0 0 0 0 0 0 0 0 0 0 0 0 0 0 0 0 0 0 0 0 0 0 0zm0 8l0 -15c4,0 7,3 7,7 0,5 -3,8 -7,8z"/>
  </g>
  <polyline class="fil3 str5" points="3369,3001 3390,3022 3412,3001 "/>
  <g>
   <path class="fil5" d="M3814 3013l-16 0c0,-4 4,-7 8,-7 4,0 8,3 8,7zm-212 196l10 0 10 -1 10 -1 9 -2 10 -2 9 -2 9 -3 9 -4 9 -4 9 -4 8 -5 8 -5 7 -6 8 -5 7 -7 7 -6 6 -7 6 -7 6 -7 6 -8 5 -8 5 -8 4 -9 4 -8 3 -9 4 -9 2 -10 2 -9 2 -10 1 -10 1 -10 0 -10 16 0 -1 11 0 11 -2 11 -2 10 -2 10 -3 10 -3 10 -4 10 -4 9 -5 9 -5 9 -5 9 -6 8 -7 8 -6 8 -7 7 -8 7 -7 7 -8 6 -9 6 -8 5 -9 5 -9 5 -10 4 -9 4 -10 3 -10 3 -10 3 -11 1 -10 2 -11 1 -11 0 0 -16zm0 8l0 0 0 0 0 0 0 0 0 0 0 0 0 0 0 0 0 0 0 0 0 0 0 0 0 0 0 0 0 0 0 0 0 0 0 0 0 0 0 0 0 0zm0 -8l0 16c-4,0 -8,-4 -8,-8 0,-4 4,-8 8,-8z"/>
  </g>
  <polyline class="fil3 str6" points="3828,3029 3806,3007 3784,3029 "/>
  <g>
   <path class="fil5" d="M2049 2128l-490 0 0 -58 490 0 30 29 -30 29zm0 -58l30 0 0 29 -30 -29zm-29 519l0 -490 59 0 0 490 -30 30 -29 -30zm59 0l0 30 -30 0 30 -30zm-520 -29l490 0 0 59 -490 0 -29 -30 29 -29zm0 59l-29 0 0 -30 29 30zm29 -520l0 490 -58 0 0 -490 29 -29 29 29zm-58 0l0 -29 29 0 -29 29z"/>
  </g>
  <g>
   <path class="fil5" d="M2633 2128l-491 0 0 -58 491 0 29 29 -29 29zm0 -58l29 0 0 29 -29 -29zm-30 519l0 -490 59 0 0 490 -29 30 -30 -30zm59 0l0 30 -29 0 29 -30zm-520 -29l491 0 0 59 -491 0 -29 -30 29 -29zm0 59l-29 0 0 -30 29 30zm29 -520l0 490 -58 0 0 -490 29 -29 29 29zm-58 0l0 -29 29 0 -29 29z"/>
  </g>
  <g>
   <polygon class="fil4" points="1467,2651 2724,2651 2724,2712 1467,2712 "/>
   <path id="1" class="fil5" d="M2724 2655l-1257 0 0 -8 1257 0 4 4 -4 4zm0 -8l4 0 0 4 -4 -4zm-4 65l0 -61 8 0 0 61 -4 4 -4 -4zm8 0l0 4 -4 0 4 -4zm-1261 -5l1257 0 0 9 -1257 0 -4 -4 4 -5zm0 9l-4 0 0 -4 4 4zm5 -65l0 61 -9 0 0 -61 4 -4 5 4zm-9 0l0 -4 4 0 -4 4z"/>
  </g>
  <g>
   <polygon class="fil4" points="1467,2776 2724,2776 2724,2837 1467,2837 "/>
   <path id="1" class="fil5" d="M2724 2780l-1257 0 0 -8 1257 0 4 4 -4 4zm0 -8l4 0 0 4 -4 -4zm-4 65l0 -61 8 0 0 61 -4 4 -4 -4zm8 0l0 4 -4 0 4 -4zm-1261 -5l1257 0 0 9 -1257 0 -4 -4 4 -5zm0 9l-4 0 0 -4 4 4zm5 -65l0 61 -9 0 0 -61 4 -4 5 4zm-9 0l0 -4 4 0 -4 4z"/>
  </g>
  <g>
   <polygon class="fil4" points="2065,2806 2065,2669 2126,2669 2126,2806 "/>
   <path id="1" class="fil5" d="M2070 2669l0 137 -9 0 0 -137 4 -5 5 5zm-9 0l0 -5 4 0 -4 5zm65 4l-61 0 0 -9 61 0 4 5 -4 4zm0 -9l4 0 0 5 -4 -5zm-4 142l0 -137 8 0 0 137 -4 4 -4 -4zm8 0l0 4 -4 0 4 -4zm-65 -4l61 0 0 8 -61 0 -4 -4 4 -4zm0 8l-4 0 0 -4 4 4z"/>
  </g>
  <g>
   <polygon class="fil4" points="1565,2806 1565,2669 1625,2669 1625,2806 "/>
   <path id="1" class="fil5" d="M1569 2669l0 137 -9 0 0 -137 5 -5 4 5zm-9 0l0 -5 5 0 -5 5zm65 4l-60 0 0 -9 60 0 5 5 -5 4zm0 -9l5 0 0 5 -5 -5zm-4 142l0 -137 9 0 0 137 -5 4 -4 -4zm9 0l0 4 -5 0 5 -4zm-65 -4l60 0 0 8 -60 0 -5 -4 5 -4zm0 8l-5 0 0 -4 5 4z"/>
  </g>
  <g>
   <polygon class="fil4" points="2566,2806 2566,2669 2627,2669 2627,2806 "/>
   <path id="1" class="fil5" d="M2570 2669l0 137 -8 0 0 -137 4 -5 4 5zm-8 0l0 -5 4 0 -4 5zm65 4l-61 0 0 -9 61 0 4 5 -4 4zm0 -9l4 0 0 5 -4 -5zm-5 142l0 -137 9 0 0 137 -4 4 -5 -4zm9 0l0 4 -4 0 4 -4zm-65 -4l61 0 0 8 -61 0 -4 -4 4 -4zm0 8l-4 0 0 -4 4 4z"/>
  </g>
  <g>
   <path class="fil5" d="M2338 1544l-491 0 0 -59 491 0 29 29 -29 30zm0 -59l29 0 0 29 -29 -29zm-30 520l0 -491 59 0 0 491 -29 29 -30 -29zm59 0l0 29 -29 0 29 -29zm-520 -29l491 0 0 58 -491 0 -29 -29 29 -29zm0 58l-29 0 0 -29 29 29zm29 -520l0 491 -58 0 0 -491 29 -29 29 29zm-58 0l0 -29 29 0 -29 29z"/>
  </g>
  <g>
   <polygon class="fil5" points="1775,2589 1775,2099 1833,2099 1833,2589 "/>
  </g>
  <g>
   <polygon class="fil5" points="2358,2589 2358,2099 2417,2099 2417,2589 "/>
  </g>
  <g>
   <polygon class="fil5" points="2063,2005 2063,1514 2122,1514 2122,2005 "/>
  </g>
  <g>
   <path class="fil5" d="M2049 2128l-490 0 0 -58 490 0 30 29 -30 29zm0 -58l30 0 0 29 -30 -29zm-29 519l0 -490 59 0 0 490 -30 30 -29 -30zm59 0l0 30 -30 0 30 -30zm-520 -29l490 0 0 59 -490 0 -29 -30 29 -29zm0 59l-29 0 0 -30 29 30zm29 -520l0 490 -58 0 0 -490 29 -29 29 29zm-58 0l0 -29 29 0 -29 29z"/>
  </g>
  <g>
   <path class="fil5" d="M2633 2128l-491 0 0 -58 491 0 29 29 -29 29zm0 -58l29 0 0 29 -29 -29zm-30 519l0 -490 59 0 0 490 -29 30 -30 -30zm59 0l0 30 -29 0 29 -30zm-520 -29l491 0 0 59 -491 0 -29 -30 29 -29zm0 59l-29 0 0 -30 29 30zm29 -520l0 490 -58 0 0 -490 29 -29 29 29zm-58 0l0 -29 29 0 -29 29z"/>
  </g>
  <g>
   <polygon class="fil4" points="1467,2651 2724,2651 2724,2712 1467,2712 "/>
   <path id="1" class="fil5" d="M2724 2655l-1257 0 0 -8 1257 0 4 4 -4 4zm0 -8l4 0 0 4 -4 -4zm-4 65l0 -61 8 0 0 61 -4 4 -4 -4zm8 0l0 4 -4 0 4 -4zm-1261 -5l1257 0 0 9 -1257 0 -4 -4 4 -5zm0 9l-4 0 0 -4 4 4zm5 -65l0 61 -9 0 0 -61 4 -4 5 4zm-9 0l0 -4 4 0 -4 4z"/>
  </g>
  <g>
   <polygon class="fil4" points="1467,2776 2724,2776 2724,2837 1467,2837 "/>
   <path id="1" class="fil5" d="M2724 2780l-1257 0 0 -8 1257 0 4 4 -4 4zm0 -8l4 0 0 4 -4 -4zm-4 65l0 -61 8 0 0 61 -4 4 -4 -4zm8 0l0 4 -4 0 4 -4zm-1261 -5l1257 0 0 9 -1257 0 -4 -4 4 -5zm0 9l-4 0 0 -4 4 4zm5 -65l0 61 -9 0 0 -61 4 -4 5 4zm-9 0l0 -4 4 0 -4 4z"/>
  </g>
  <g>
   <polygon class="fil4" points="2065,2806 2065,2669 2126,2669 2126,2806 "/>
   <path id="1" class="fil5" d="M2070 2669l0 137 -9 0 0 -137 4 -5 5 5zm-9 0l0 -5 4 0 -4 5zm65 4l-61 0 0 -9 61 0 4 5 -4 4zm0 -9l4 0 0 5 -4 -5zm-4 142l0 -137 8 0 0 137 -4 4 -4 -4zm8 0l0 4 -4 0 4 -4zm-65 -4l61 0 0 8 -61 0 -4 -4 4 -4zm0 8l-4 0 0 -4 4 4z"/>
  </g>
  <g>
   <polygon class="fil4" points="1565,2806 1565,2669 1625,2669 1625,2806 "/>
   <path id="1" class="fil5" d="M1569 2669l0 137 -9 0 0 -137 5 -5 4 5zm-9 0l0 -5 5 0 -5 5zm65 4l-60 0 0 -9 60 0 5 5 -5 4zm0 -9l5 0 0 5 -5 -5zm-4 142l0 -137 9 0 0 137 -5 4 -4 -4zm9 0l0 4 -5 0 5 -4zm-65 -4l60 0 0 8 -60 0 -5 -4 5 -4zm0 8l-5 0 0 -4 5 4z"/>
  </g>
  <g>
   <polygon class="fil4" points="2566,2806 2566,2669 2627,2669 2627,2806 "/>
   <path id="1" class="fil5" d="M2570 2669l0 137 -8 0 0 -137 4 -5 4 5zm-8 0l0 -5 4 0 -4 5zm65 4l-61 0 0 -9 61 0 4 5 -4 4zm0 -9l4 0 0 5 -4 -5zm-5 142l0 -137 9 0 0 137 -4 4 -5 -4zm9 0l0 4 -4 0 4 -4zm-65 -4l61 0 0 8 -61 0 -4 -4 4 -4zm0 8l-4 0 0 -4 4 4z"/>
  </g>
  <g>
   <path class="fil5" d="M2338 1544l-491 0 0 -59 491 0 29 29 -29 30zm0 -59l29 0 0 29 -29 -29zm-30 520l0 -491 59 0 0 491 -29 29 -30 -29zm59 0l0 29 -29 0 29 -29zm-520 -29l491 0 0 58 -491 0 -29 -29 29 -29zm0 58l-29 0 0 -29 29 29zm29 -520l0 491 -58 0 0 -491 29 -29 29 29zm-58 0l0 -29 29 0 -29 29z"/>
  </g>
  <g>
   <polygon class="fil5" points="1775,2589 1775,2099 1833,2099 1833,2589 "/>
  </g>
  <g>
   <polygon class="fil5" points="2358,2589 2358,2099 2417,2099 2417,2589 "/>
  </g>
  <g>
   <polygon class="fil5" points="2063,2005 2063,1514 2122,1514 2122,2005 "/>
  </g>
 </g>
</svg>
