<?xml version="1.0" encoding="UTF-8"?>
<!DOCTYPE svg PUBLIC "-//W3C//DTD SVG 1.1//EN" "http://www.w3.org/Graphics/SVG/1.1/DTD/svg11.dtd">
<!-- Creator: CorelDRAW X8 -->
<svg xmlns="http://www.w3.org/2000/svg" xml:space="preserve" width="50.5mm" height="50mm" version="1.1" style="shape-rendering:geometricPrecision; text-rendering:geometricPrecision; image-rendering:optimizeQuality; fill-rule:evenodd; clip-rule:evenodd"
viewBox="0 0 5050 5000"
 xmlns:xlink="http://www.w3.org/1999/xlink">
 <defs>
  <style type="text/css">
   <![CDATA[
    .str3 {stroke:#495C80;stroke-width:100}
    .str1 {stroke:#FEFEFE;stroke-width:200}
    .str2 {stroke:#96989A;stroke-width:150}
    .str0 {stroke:#FEFEFE;stroke-width:20}
    .str4 {stroke:#495C80;stroke-width:20}
    .fil3 {fill:none}
    .fil2 {fill:#FEFEFE}
    .fil1 {fill:#495C80}
    .fil0 {fill:#D2D3D5;fill-rule:nonzero}
   ]]>
  </style>
 </defs>
 <g id="Capa_x0020_1">
  <metadata id="CorelCorpID_0Corel-Layer"/>
  <g id="_1514445402864">
   <g>
    <path class="fil0" d="M4723 1995c0,-55 43,-100 97,-100 54,0 97,45 97,100l-194 0zm0 2281l0 -2281 194 0 0 2281 0 0 -194 0zm-383 595l0 -200 0 0 20 -1 19 -1 19 -3 19 -3 18 -5 18 -5 18 -6 17 -7 17 -8 17 -9 16 -9 16 -11 15 -11 14 -12 14 -12 13 -13 13 -14 12 -14 12 -15 10 -16 10 -16 10 -16 8 -17 8 -18 7 -18 6 -18 5 -18 4 -19 4 -20 2 -19 1 -20 1 -21 194 0 -1 31 -2 30 -4 30 -5 29 -6 29 -8 28 -9 27 -10 27 -12 27 -13 25 -14 25 -15 24 -16 24 -17 22 -18 22 -19 20 -20 20 -21 19 -22 17 -23 17 -23 15 -24 15 -25 13 -26 12 -26 11 -27 9 -27 8 -28 7 -28 5 -29 4 -29 2 -30 1 0 0zm-4060 -200l4060 0 0 200 -4060 0 0 0 0 -200zm-147 48l194 0 0 0 0 -2 0 -3 -1 -2 0 -2 0 -3 -1 -2 -1 -3 -1 -2 -1 -2 -1 -2 -1 -2 -1 -2 -1 -2 -2 -2 -1 -1 -2 -2 -1 -2 -2 -1 -2 -2 -1 -1 -2 -1 -2 -1 -2 -1 -2 -1 -3 -1 -2 -1 -2 -1 -3 0 -2 -1 -2 0 -3 0 -2 0 0 200 -8 0 -7 -1 -7 -1 -8 -1 -7 -2 -7 -2 -7 -2 -6 -3 -7 -3 -6 -4 -6 -3 -6 -4 -6 -4 -6 -5 -5 -5 -5 -5 -5 -5 -4 -5 -5 -6 -4 -6 -4 -6 -3 -6 -3 -7 -3 -7 -3 -7 -2 -7 -2 -7 -2 -7 -1 -8 -1 -7 -1 -8 0 -8 0 0zm194 -4438l0 4438 -194 0 0 -4438 0 0 194 0zm-47 -152l0 200 0 0 2 0 3 0 2 0 2 -1 3 0 2 -1 2 -1 3 -1 2 -1 2 -1 2 -1 2 -1 1 -1 2 -2 2 -1 1 -2 2 -2 1 -1 2 -2 1 -2 1 -2 1 -2 1 -2 1 -2 1 -2 1 -3 1 -2 0 -3 0 -2 1 -2 0 -3 0 -2 -194 0 0 -8 1 -8 1 -7 1 -8 2 -7 2 -7 2 -7 3 -7 3 -7 3 -7 3 -6 4 -6 4 -6 5 -6 4 -5 5 -5 5 -5 5 -5 6 -5 6 -4 6 -4 6 -3 6 -4 7 -3 6 -3 7 -2 7 -2 7 -2 8 -1 7 -1 7 -1 8 0 0 0zm2702 200l-2702 0 0 -200 2702 0 0 200zm0 -200c53,0 97,45 97,100 0,55 -44,100 -97,100l0 -200z"/>
   </g>
   <g id="_1514445402704">
    <rect class="fil1 str0" transform="matrix(3.04212E-14 -0.706356 1.87277 3.05013E-14 997.044 4045.66)" width="723" height="1623" rx="190" ry="190"/>
    <rect class="fil1 str1" x="1202" y="2529" width="511" height="1146" rx="134" ry="134"/>
    <rect class="fil1 str1" x="1908" y="2118" width="511" height="1557" rx="134" ry="182"/>
    <rect class="fil1 str1" x="2614" y="2367" width="511" height="1308" rx="134" ry="153"/>
    <rect class="fil2 str1" x="3321" y="1806" width="511" height="1869" rx="134" ry="219"/>
    <rect class="fil1 str0" x="1202" y="2529" width="511" height="1146" rx="134" ry="134"/>
    <rect class="fil1 str0" x="1908" y="2118" width="511" height="1557" rx="134" ry="182"/>
    <rect class="fil1 str0" x="2614" y="2367" width="511" height="1308" rx="134" ry="153"/>
    <rect class="fil1 str0" x="3321" y="1806" width="511" height="1869" rx="134" ry="219"/>
    <polyline class="fil3 str2" points="1457,1822 2163,1411 2870,1660 3576,1100 "/>
    <circle class="fil1 str3" cx="1457" cy="1822" r="93"/>
    <circle class="fil1 str3" cx="2163" cy="1411" r="93"/>
    <circle class="fil1 str3" cx="2870" cy="1660" r="93"/>
    <polygon class="fil1 str4" points="3802,961 3730,1140 3658,1320 3537,1151 3416,981 3609,971 "/>
   </g>
  </g>
 </g>
</svg>
