<?xml version="1.0" encoding="UTF-8"?>
<!DOCTYPE svg PUBLIC "-//W3C//DTD SVG 1.1//EN" "http://www.w3.org/Graphics/SVG/1.1/DTD/svg11.dtd">
<!-- Creator: CorelDRAW X8 -->
<svg xmlns="http://www.w3.org/2000/svg" xml:space="preserve" width="50.5mm" height="50mm" version="1.1" style="shape-rendering:geometricPrecision; text-rendering:geometricPrecision; image-rendering:optimizeQuality; fill-rule:evenodd; clip-rule:evenodd"
viewBox="0 0 5050 5000"
 xmlns:xlink="http://www.w3.org/1999/xlink">
 <defs>
  <style type="text/css">
   <![CDATA[
    .str0 {stroke:#495C80;stroke-width:7.62}
    .str17 {stroke:#FEFEFE;stroke-width:7.62}
    .str16 {stroke:#FEFEFE;stroke-width:7.62}
    .str1 {stroke:#FEFEFE;stroke-width:102.68;stroke-linecap:round;stroke-linejoin:round}
    .str15 {stroke:#FEFEFE;stroke-width:200;stroke-linecap:round;stroke-linejoin:round}
    .str14 {stroke:#FEFEFE;stroke-width:200;stroke-linecap:round;stroke-linejoin:round}
    .str6 {stroke:#FEFEFE;stroke-width:42.78;stroke-linecap:round;stroke-linejoin:round}
    .str2 {stroke:#FEFEFE;stroke-width:42.78;stroke-linecap:round;stroke-linejoin:round}
    .str12 {stroke:#FEFEFE;stroke-width:42.78;stroke-linecap:round;stroke-linejoin:round}
    .str7 {stroke:#FEFEFE;stroke-width:42.78;stroke-linecap:round;stroke-linejoin:round}
    .str10 {stroke:#FEFEFE;stroke-width:42.78;stroke-linecap:round;stroke-linejoin:round}
    .str11 {stroke:#FEFEFE;stroke-width:42.78;stroke-linecap:round;stroke-linejoin:round}
    .str4 {stroke:#FEFEFE;stroke-width:42.78;stroke-linecap:round;stroke-linejoin:round}
    .str8 {stroke:#FEFEFE;stroke-width:42.78;stroke-linecap:round;stroke-linejoin:round}
    .str9 {stroke:#FEFEFE;stroke-width:42.78;stroke-linecap:round;stroke-linejoin:round}
    .str13 {stroke:#FEFEFE;stroke-width:42.78;stroke-linecap:round;stroke-linejoin:round}
    .str3 {stroke:#FEFEFE;stroke-width:42.78;stroke-linecap:round;stroke-linejoin:round}
    .str5 {stroke:#FEFEFE;stroke-width:42.79;stroke-linecap:round;stroke-linejoin:round}
    .fil3 {fill:none}
    .fil4 {fill:none;fill-rule:nonzero}
    .fil0 {fill:#495C80}
    .fil5 {fill:#FEFEFE;fill-rule:nonzero}
    .fil2 {fill:#FEFEFE;fill-rule:nonzero}
    .fil1 {fill:#495C80;fill-rule:nonzero}
   ]]>
  </style>
 </defs>
 <g id="Capa_x0020_1">
  <metadata id="CorelCorpID_0Corel-Layer"/>
  <g id="_1514623882032">
   <path class="fil0 str0" d="M267 182l4185 0c227,0 414,186 414,414l0 3735c0,227 -187,414 -414,414l-4266 0 0 -4482c0,-45 36,-81 81,-81z"/>
   <g>
    <path class="fil1" d="M4677 2043c0,-56 44,-100 97,-100 54,0 97,44 97,100l-194 0zm0 2281l0 -2281 194 0 0 2281 0 0 -194 0zm-383 594l0 -200 0 0 20 0 19 -2 19 -2 19 -4 19 -4 18 -6 17 -6 18 -7 17 -8 16 -9 16 -9 16 -10 15 -12 14 -11 14 -13 14 -13 12 -14 12 -14 12 -15 11 -15 10 -17 9 -16 8 -17 8 -17 7 -18 6 -19 5 -18 4 -19 4 -20 2 -19 2 -20 0 -20 194 0 0 30 -3 30 -3 30 -5 29 -7 29 -8 28 -9 28 -10 27 -12 26 -13 26 -14 25 -15 24 -16 23 -17 22 -18 22 -19 21 -20 19 -21 19 -22 18 -22 16 -24 16 -24 14 -25 13 -25 12 -27 11 -26 9 -28 8 -28 7 -28 5 -29 4 -29 2 -30 1 0 0zm-4060 -200l4060 0 0 200 -4060 0 0 0 0 -200zm-147 49l194 0 0 0 0 -3 0 -2 0 -3 -1 -2 0 -3 -1 -2 -1 -2 0 -2 -1 -3 -1 -2 -2 -2 -1 -2 -1 -2 -1 -1 -2 -2 -1 -2 -2 -1 -2 -2 -1 -1 -2 -1 -2 -2 -2 -1 -2 -1 -2 -1 -2 -1 -3 -1 -2 0 -2 -1 -3 0 -2 -1 -2 0 -3 0 0 200 -7 0 -8 -1 -7 -1 -7 -1 -8 -2 -7 -2 -6 -2 -7 -3 -7 -3 -6 -3 -6 -4 -6 -4 -6 -4 -5 -5 -6 -4 -5 -5 -4 -5 -5 -6 -5 -6 -4 -6 -3 -6 -4 -6 -3 -7 -3 -6 -3 -7 -2 -7 -2 -7 -2 -8 -1 -7 -1 -8 -1 -8 0 -7 0 0zm194 -4439l0 4439 -194 0 0 -4439 0 0 194 0zm-47 -152l0 200 0 0 3 0 2 0 2 0 3 -1 2 0 2 -1 3 -1 2 0 2 -1 2 -1 2 -2 2 -1 2 -1 1 -2 2 -1 2 -2 1 -1 2 -2 1 -2 1 -2 1 -2 2 -2 1 -2 1 -2 0 -2 1 -2 1 -3 0 -2 1 -3 0 -2 0 -3 0 -2 -194 0 0 -8 1 -7 1 -8 1 -8 2 -7 2 -7 2 -7 3 -7 3 -7 3 -6 4 -7 3 -6 4 -6 5 -5 5 -6 4 -5 5 -5 6 -5 5 -4 6 -4 6 -4 6 -4 6 -3 7 -4 7 -2 6 -3 7 -2 8 -1 7 -2 7 -1 8 0 7 -1 0 0zm2702 200l-2702 0 0 -200 2702 0 0 200zm0 -200c54,0 97,45 97,100 0,56 -43,100 -97,100l0 -200z"/>
   </g>
   <g>
    <path class="fil1" d="M4677 2043c0,-56 44,-100 97,-100 54,0 97,44 97,100l-194 0zm0 2281l0 -2281 194 0 0 2281 0 0 -194 0zm-383 594l0 -200 0 0 20 0 19 -2 19 -2 19 -4 19 -4 18 -6 17 -6 18 -7 17 -8 16 -9 16 -9 16 -10 15 -12 14 -11 14 -13 14 -13 12 -14 12 -14 12 -15 11 -15 10 -17 9 -16 8 -17 8 -17 7 -18 6 -19 5 -18 4 -19 4 -20 2 -19 2 -20 0 -20 194 0 0 30 -3 30 -3 30 -5 29 -7 29 -8 28 -9 28 -10 27 -12 26 -13 26 -14 25 -15 24 -16 23 -17 22 -18 22 -19 21 -20 19 -21 19 -22 18 -22 16 -24 16 -24 14 -25 13 -25 12 -27 11 -26 9 -28 8 -28 7 -28 5 -29 4 -29 2 -30 1 0 0zm-4060 -200l4060 0 0 200 -4060 0 0 0 0 -200zm-147 49l194 0 0 0 0 -3 0 -2 0 -3 -1 -2 0 -3 -1 -2 -1 -2 0 -2 -1 -3 -1 -2 -2 -2 -1 -2 -1 -2 -1 -1 -2 -2 -1 -2 -2 -1 -2 -2 -1 -1 -2 -1 -2 -2 -2 -1 -2 -1 -2 -1 -2 -1 -3 -1 -2 0 -2 -1 -3 0 -2 -1 -2 0 -3 0 0 200 -7 0 -8 -1 -7 -1 -7 -1 -8 -2 -7 -2 -6 -2 -7 -3 -7 -3 -6 -3 -6 -4 -6 -4 -6 -4 -5 -5 -6 -4 -5 -5 -4 -5 -5 -6 -5 -6 -4 -6 -3 -6 -4 -6 -3 -7 -3 -6 -3 -7 -2 -7 -2 -7 -2 -8 -1 -7 -1 -8 -1 -8 0 -7 0 0zm194 -4439l0 4439 -194 0 0 -4439 0 0 194 0zm-47 -152l0 200 0 0 3 0 2 0 2 0 3 -1 2 0 2 -1 3 -1 2 0 2 -1 2 -1 2 -2 2 -1 2 -1 1 -2 2 -1 2 -2 1 -1 2 -2 1 -2 1 -2 1 -2 2 -2 1 -2 1 -2 0 -2 1 -2 1 -3 0 -2 1 -3 0 -2 0 -3 0 -2 -194 0 0 -8 1 -7 1 -8 1 -8 2 -7 2 -7 2 -7 3 -7 3 -7 3 -6 4 -7 3 -6 4 -6 5 -5 5 -6 4 -5 5 -5 6 -5 5 -4 6 -4 6 -4 6 -4 6 -3 7 -4 7 -2 6 -3 7 -2 8 -1 7 -2 7 -1 8 0 7 -1 0 0zm2702 200l-2702 0 0 -200 2702 0 0 200zm0 -200c54,0 97,45 97,100 0,56 -43,100 -97,100l0 -200z"/>
   </g>
   <g>
    <path class="fil2" d="M1361 1101l-323 0 0 -94 323 0 0 0 0 94zm148 54l-94 0 0 0 0 -2 0 -3 0 -3 -1 -3 0 -2 -1 -3 -1 -2 -1 -3 -1 -2 -1 -3 -2 -2 -1 -2 -2 -2 -1 -2 -2 -2 -2 -2 -2 -2 -2 -2 -2 -2 -2 -1 -2 -1 -2 -2 -3 -1 -2 -1 -3 -1 -2 -1 -3 -1 -2 0 -3 -1 -3 0 -3 0 -2 0 0 -94 7 0 8 1 7 1 7 1 8 2 7 2 7 2 6 3 7 3 6 3 7 4 6 3 6 5 5 4 5 5 6 5 5 5 4 5 5 6 4 5 4 6 3 7 3 6 3 7 3 6 2 7 2 7 2 8 1 7 1 7 1 8 0 7 0 0zm-94 2299l0 -2299 94 0 0 2299 0 0 -94 0zm-54 149l0 -94 0 0 2 0 3 0 3 -1 3 0 2 -1 3 0 2 -1 3 -1 2 -1 3 -2 2 -1 2 -1 2 -2 2 -1 2 -2 2 -2 2 -2 2 -2 1 -2 2 -2 1 -2 2 -3 1 -2 1 -3 1 -2 1 -3 1 -2 0 -3 1 -2 0 -3 0 -3 0 -3 94 0 0 8 -1 7 -1 8 -1 7 -2 7 -2 7 -2 7 -3 7 -3 7 -3 6 -3 6 -4 6 -4 6 -5 6 -4 5 -5 5 -6 5 -5 5 -5 4 -6 4 -6 4 -7 4 -6 3 -7 3 -6 3 -7 2 -7 2 -8 2 -7 1 -7 1 -8 1 -7 0 0 0zm-323 -94l323 0 0 94 -323 0 0 0 0 -94zm-148 -55l93 0 0 0 0 3 1 3 0 3 0 2 1 3 1 2 1 3 1 2 1 3 1 2 1 3 2 2 1 2 2 2 2 2 1 2 2 2 2 2 3 1 2 2 2 1 2 1 3 2 2 1 2 1 3 1 3 0 2 1 3 0 3 1 2 0 3 0 0 94 -8 0 -7 -1 -7 -1 -8 -1 -7 -2 -7 -2 -7 -2 -7 -3 -6 -3 -7 -3 -6 -4 -6 -4 -6 -4 -5 -4 -6 -5 -5 -5 -5 -5 -4 -5 -5 -6 -4 -6 -4 -6 -3 -6 -4 -6 -3 -7 -2 -7 -3 -7 -2 -7 -1 -7 -2 -7 -1 -8 0 -7 0 -8 0 0zm93 -2299l0 2299 -93 0 0 -2299 0 0 93 0zm55 -148l0 94 0 0 -3 0 -2 0 -3 0 -3 1 -2 0 -3 1 -3 1 -2 1 -2 1 -3 1 -2 2 -2 1 -2 1 -3 2 -2 2 -2 2 -1 2 -2 2 -2 2 -1 2 -2 2 -1 2 -1 3 -1 2 -1 3 -1 2 -1 3 -1 2 0 3 0 3 -1 3 0 2 -93 0 0 -7 0 -8 1 -7 2 -7 1 -8 2 -7 3 -7 2 -6 3 -7 4 -6 3 -7 4 -6 4 -5 5 -6 4 -5 5 -5 5 -5 6 -5 5 -4 6 -5 6 -3 6 -4 7 -3 6 -3 7 -3 7 -2 7 -2 7 -2 8 -1 7 -1 7 -1 8 0 0 0z"/>
   </g>
   <g>
    <path class="fil2" d="M1199 3322c-25,0 -46,-21 -46,-47 0,-25 21,-46 46,-46l0 93zm263 0l-263 0 0 -93 263 0 0 93zm0 -93c26,0 47,21 47,46 0,26 -21,47 -47,47l0 -93z"/>
   </g>
   <g>
    <path class="fil2" d="M1331 3044c-26,0 -47,-21 -47,-46 0,-26 21,-47 47,-47l0 93zm131 0l-131 0 0 -93 131 0 0 93zm0 -93c26,0 47,21 47,47 0,25 -21,46 -47,46l0 -93z"/>
   </g>
   <g>
    <path class="fil2" d="M1199 2767c-25,0 -46,-21 -46,-47 0,-26 21,-47 46,-47l0 94zm263 0l-263 0 0 -94 263 0 0 94zm0 -94c26,0 47,21 47,47 0,26 -21,47 -47,47l0 -94z"/>
   </g>
   <g>
    <path class="fil2" d="M1331 2489c-26,0 -47,-21 -47,-47 0,-25 21,-46 47,-46l0 93zm131 0l-131 0 0 -93 131 0 0 93zm0 -93c26,0 47,21 47,46 0,26 -21,47 -47,47l0 -93z"/>
   </g>
   <g>
    <path class="fil2" d="M1199 2211c-25,0 -46,-21 -46,-46 0,-26 21,-47 46,-47l0 93zm263 0l-263 0 0 -93 263 0 0 93zm0 -93c26,0 47,21 47,47 0,25 -21,46 -47,46l0 -93z"/>
   </g>
   <g>
    <path class="fil2" d="M1331 1934c-26,0 -47,-21 -47,-47 0,-26 21,-47 47,-47l0 94zm131 0l-131 0 0 -94 131 0 0 94zm0 -94c26,0 47,21 47,47 0,26 -21,47 -47,47l0 -94z"/>
   </g>
   <g>
    <path class="fil2" d="M1199 1656c-25,0 -46,-21 -46,-47 0,-26 21,-47 46,-47l0 94zm263 0l-263 0 0 -94 263 0 0 94zm0 -94c26,0 47,21 47,47 0,26 -21,47 -47,47l0 -94z"/>
   </g>
   <g>
    <path class="fil2" d="M1331 1378c-26,0 -47,-21 -47,-47 0,-25 21,-46 47,-46l0 93zm131 0l-131 0 0 -93 131 0 0 93zm0 -93c26,0 47,21 47,46 0,26 -21,47 -47,47l0 -93z"/>
   </g>
   <g>
    <path class="fil2" d="M1509 3702l0 323 -94 0 0 -323 0 0 94 0zm55 -148l0 93 0 0 -3 1 -3 0 -2 0 -3 1 -3 0 -2 1 -3 1 -2 1 -3 1 -2 1 -2 1 -3 2 -2 1 -2 2 -2 2 -2 2 -2 2 -1 2 -2 2 -2 2 -1 2 -1 2 -2 3 -1 2 -1 3 0 2 -1 3 -1 2 0 3 -1 3 0 2 0 3 -94 0 1 -7 0 -8 1 -7 1 -8 2 -7 2 -7 2 -7 3 -7 3 -6 3 -7 4 -6 4 -6 4 -6 4 -5 5 -6 5 -5 5 -5 6 -4 5 -5 6 -4 6 -4 6 -3 7 -4 6 -3 7 -2 7 -3 7 -2 7 -1 7 -2 8 -1 7 0 8 0 0 0zm2299 93l-2299 0 0 -93 2299 0 0 0 0 93zm148 55l-93 0 0 0 -1 -3 0 -2 0 -3 -1 -3 0 -2 -1 -3 -1 -2 -1 -3 -1 -2 -1 -3 -1 -2 -2 -2 -1 -2 -2 -2 -2 -2 -2 -2 -1 -2 -3 -2 -2 -2 -2 -1 -2 -2 -2 -1 -3 -1 -2 -1 -3 -1 -2 -1 -3 -1 -2 0 -3 -1 -3 0 -2 0 -3 -1 0 -93 7 0 8 0 7 1 8 2 7 1 7 2 7 3 7 2 6 3 6 4 7 3 6 4 6 4 5 5 5 4 6 5 5 5 4 6 5 5 4 6 4 6 3 6 3 7 3 6 3 7 2 7 3 7 1 7 2 8 0 7 1 8 0 7 0 0zm-93 323l0 -323 93 0 0 323 0 0 -93 0zm-55 148l0 -94 0 0 3 0 2 0 3 0 3 -1 2 0 3 -1 2 -1 3 -1 2 -1 3 -1 2 -1 2 -2 2 -1 2 -2 3 -2 1 -2 2 -2 2 -2 2 -2 1 -2 2 -2 1 -2 1 -3 1 -2 1 -3 1 -2 1 -3 0 -2 1 -3 0 -3 0 -2 1 -3 93 0 0 7 -1 8 0 7 -2 8 -1 7 -3 7 -2 7 -3 7 -3 6 -3 7 -3 6 -4 6 -4 6 -5 5 -4 6 -5 5 -6 5 -5 4 -5 5 -6 4 -6 4 -7 3 -6 4 -6 3 -7 2 -7 3 -7 2 -7 1 -8 2 -7 1 -8 0 -7 0 0 0zm-2299 -94l2299 0 0 94 -2299 0 0 0 0 -94zm-149 -54l94 0 0 0 0 3 0 2 1 3 0 3 1 2 1 3 0 2 1 3 1 2 2 3 1 2 1 2 2 2 2 2 1 2 2 2 2 2 2 2 2 2 2 1 3 2 2 1 2 1 3 1 2 1 3 1 2 1 3 0 3 1 2 0 3 0 3 0 0 94 -8 0 -7 0 -8 -1 -7 -2 -7 -1 -7 -2 -7 -3 -7 -2 -6 -3 -7 -4 -6 -3 -6 -4 -6 -4 -5 -5 -6 -4 -5 -5 -5 -5 -5 -6 -4 -5 -4 -6 -4 -6 -4 -6 -3 -7 -3 -6 -3 -7 -2 -7 -2 -7 -2 -7 -1 -8 -1 -7 0 -8 -1 -7 0 0z"/>
   </g>
   <g>
    <path class="fil2" d="M3731 3863c0,26 -21,47 -47,47 -26,0 -47,-21 -47,-47l94 0zm0 -262l0 262 -94 0 0 -262 94 0zm-94 0c0,-26 21,-47 47,-47 26,0 47,21 47,47l-94 0z"/>
   </g>
   <g>
    <path class="fil2" d="M3453 3732c0,26 -21,47 -47,47 -26,0 -47,-21 -47,-47l94 0zm0 -131l0 131 -94 0 0 -131 94 0zm-94 0c0,-26 21,-47 47,-47 26,0 47,21 47,47l-94 0z"/>
   </g>
   <g>
    <path class="fil2" d="M3175 3863c0,26 -21,47 -47,47 -25,0 -46,-21 -46,-47l93 0zm0 -262l0 262 -93 0 0 -262 93 0zm-93 0c0,-26 21,-47 46,-47 26,0 47,21 47,47l-93 0z"/>
   </g>
   <g>
    <path class="fil2" d="M2897 3732c0,26 -20,47 -46,47 -26,0 -47,-21 -47,-47l93 0zm0 -131l0 131 -93 0 0 -131 93 0zm-93 0c0,-26 21,-47 47,-47 26,0 46,21 46,47l-93 0z"/>
   </g>
   <g>
    <path class="fil2" d="M2620 3863c0,26 -21,47 -47,47 -26,0 -47,-21 -47,-47l94 0zm0 -262l0 262 -94 0 0 -262 94 0zm-94 0c0,-26 21,-47 47,-47 26,0 47,21 47,47l-94 0z"/>
   </g>
   <g>
    <path class="fil2" d="M2342 3732c0,26 -21,47 -47,47 -25,0 -46,-21 -46,-47l93 0zm0 -131l0 131 -93 0 0 -131 93 0zm-93 0c0,-26 21,-47 46,-47 26,0 47,21 47,47l-93 0z"/>
   </g>
   <g>
    <path class="fil2" d="M2064 3863c0,26 -21,47 -46,47 -26,0 -47,-21 -47,-47l93 0zm0 -262l0 262 -93 0 0 -262 93 0zm-93 0c0,-26 21,-47 47,-47 25,0 46,21 46,47l-93 0z"/>
   </g>
   <g>
    <path class="fil2" d="M1787 3732c0,26 -21,47 -47,47 -26,0 -47,-21 -47,-47l94 0zm0 -131l0 131 -94 0 0 -131 94 0zm-94 0c0,-26 21,-47 47,-47 26,0 47,21 47,47l-94 0z"/>
   </g>
   <g>
    <path class="fil3 str1" d="M1633 1331l1809 0c107,0 257,89 257,257l0 1874"/>
   </g>
   <g>
    <line class="fil3 str2" x1="1633" y1="1609" x2="1911" y2= "1332" />
   </g>
   <g>
    <line class="fil3 str3" x1="1633" y1="1951" x2="2253" y2= "1331" />
   </g>
   <g>
    <line class="fil3 str4" x1="1633" y1="2294" x2="2580" y2= "1347" />
   </g>
   <g>
    <line class="fil3 str5" x1="1633" y1="2636" x2="2938" y2= "1331" />
   </g>
   <g>
    <line class="fil3 str6" x1="1633" y1="2978" x2="3280" y2= "1331" />
   </g>
   <g>
    <line class="fil3 str7" x1="1633" y1="3321" x2="3562" y2= "1392" />
   </g>
   <g>
    <line class="fil3 str8" x1="1836" y1="3460" x2="3699" y2= "1598" />
   </g>
   <g>
    <line class="fil3 str9" x1="2179" y1="3460" x2="3699" y2= "1940" />
   </g>
   <g>
    <line class="fil3 str10" x1="2521" y1="3460" x2="3699" y2= "2282" />
   </g>
   <g>
    <line class="fil3 str11" x1="2863" y1="3460" x2="3699" y2= "2624" />
   </g>
   <g>
    <line class="fil3 str12" x1="3205" y1="3460" x2="3699" y2= "2967" />
   </g>
   <g>
    <line class="fil3 str13" x1="3548" y1="3460" x2="3699" y2= "3309" />
   </g>
   <g>
    <path class="fil4 str14" d="M3164 2991l-225 0 0 -488c0,-68 -12,-119 -37,-152 -24,-32 -57,-49 -100,-49 -43,0 -85,17 -125,51 -40,34 -68,78 -85,132l0 506 -225 0 0 -488c0,-70 -13,-120 -37,-153 -24,-32 -57,-48 -100,-48 -43,0 -85,17 -125,50 -40,33 -68,76 -85,130l0 509 -226 0 0 -874 204 0 0 163c34,-56 79,-100 135,-130 56,-31 120,-46 193,-46 73,0 130,18 171,53 41,36 67,80 78,131 36,-59 82,-105 137,-137 56,-31 118,-47 188,-47 55,0 99,10 134,29 34,19 61,46 80,78 19,33 32,70 39,111 7,41 11,83 11,125l0 544z"/>
   </g>
   <path id="1" class="fil5" d="M3164 2991l-225 0 0 -488c0,-68 -12,-119 -37,-152 -24,-32 -57,-49 -100,-49 -43,0 -85,17 -125,51 -40,34 -68,78 -85,132l0 506 -225 0 0 -488c0,-70 -13,-120 -37,-153 -24,-32 -57,-48 -100,-48 -43,0 -85,17 -125,50 -40,33 -68,76 -85,130l0 509 -226 0 0 -874 204 0 0 163c34,-56 79,-100 135,-130 56,-31 120,-46 193,-46 73,0 130,18 171,53 41,36 67,80 78,131 36,-59 82,-105 137,-137 56,-31 118,-47 188,-47 55,0 99,10 134,29 34,19 61,46 80,78 19,33 32,70 39,111 7,41 11,83 11,125l0 544z"/>
   <g>
    <path class="fil4 str15" d="M3042 2106c0,-22 1,-41 5,-58 3,-17 9,-33 17,-48 8,-14 19,-28 33,-41 15,-13 33,-26 55,-38 19,-10 36,-19 50,-27 15,-8 27,-15 37,-22 10,-6 18,-13 23,-20 5,-7 8,-15 8,-24 0,-10 -3,-18 -8,-26 -5,-8 -13,-15 -22,-19 -9,-5 -21,-8 -35,-8 -11,0 -22,2 -31,5 -10,2 -19,6 -27,11 -8,6 -16,11 -23,18 -7,6 -13,13 -18,20l-60 -69c6,-7 15,-14 26,-21 11,-8 24,-15 39,-22 16,-7 32,-13 51,-17 18,-4 38,-7 59,-7 32,0 59,5 82,16 22,10 39,24 51,42 12,18 18,39 18,63 0,17 -3,31 -9,44 -6,13 -14,24 -23,34 -10,10 -20,18 -31,26 -11,8 -21,14 -32,20 -14,8 -27,15 -39,21 -12,6 -22,13 -31,19 -9,7 -17,13 -23,20 -7,7 -13,14 -18,23l214 0 0 85 -338 0z"/>
   </g>
   <path id="1" class="fil5" d="M3042 2106c0,-22 1,-41 5,-58 3,-17 9,-33 17,-48 8,-14 19,-28 33,-41 15,-13 33,-26 55,-38 19,-10 36,-19 50,-27 15,-8 27,-15 37,-22 10,-6 18,-13 23,-20 5,-7 8,-15 8,-24 0,-10 -3,-18 -8,-26 -5,-8 -13,-15 -22,-19 -9,-5 -21,-8 -35,-8 -11,0 -22,2 -31,5 -10,2 -19,6 -27,11 -8,6 -16,11 -23,18 -7,6 -13,13 -18,20l-60 -69c6,-7 15,-14 26,-21 11,-8 24,-15 39,-22 16,-7 32,-13 51,-17 18,-4 38,-7 59,-7 32,0 59,5 82,16 22,10 39,24 51,42 12,18 18,39 18,63 0,17 -3,31 -9,44 -6,13 -14,24 -23,34 -10,10 -20,18 -31,26 -11,8 -21,14 -32,20 -14,8 -27,15 -39,21 -12,6 -22,13 -31,19 -9,7 -17,13 -23,20 -7,7 -13,14 -18,23l214 0 0 85 -338 0z"/>
   <g>
    <path class="fil4 str16" d="M3164 2991l-225 0 0 -488c0,-68 -12,-119 -37,-152 -24,-32 -57,-49 -100,-49 -43,0 -85,17 -125,51 -40,34 -68,78 -85,132l0 506 -225 0 0 -488c0,-70 -13,-120 -37,-153 -24,-32 -57,-48 -100,-48 -43,0 -85,17 -125,50 -40,33 -68,76 -85,130l0 509 -226 0 0 -874 204 0 0 163c34,-56 79,-100 135,-130 56,-31 120,-46 193,-46 73,0 130,18 171,53 41,36 67,80 78,131 36,-59 82,-105 137,-137 56,-31 118,-47 188,-47 55,0 99,10 134,29 34,19 61,46 80,78 19,33 32,70 39,111 7,41 11,83 11,125l0 544z"/>
   </g>
   <path id="1" class="fil1" d="M3164 2991l-225 0 0 -488c0,-68 -12,-119 -37,-152 -24,-32 -57,-49 -100,-49 -43,0 -85,17 -125,51 -40,34 -68,78 -85,132l0 506 -225 0 0 -488c0,-70 -13,-120 -37,-153 -24,-32 -57,-48 -100,-48 -43,0 -85,17 -125,50 -40,33 -68,76 -85,130l0 509 -226 0 0 -874 204 0 0 163c34,-56 79,-100 135,-130 56,-31 120,-46 193,-46 73,0 130,18 171,53 41,36 67,80 78,131 36,-59 82,-105 137,-137 56,-31 118,-47 188,-47 55,0 99,10 134,29 34,19 61,46 80,78 19,33 32,70 39,111 7,41 11,83 11,125l0 544z"/>
   <g>
    <path class="fil4 str17" d="M3042 2106c0,-22 1,-41 5,-58 3,-17 9,-33 17,-48 8,-14 19,-28 33,-41 15,-13 33,-26 55,-38 19,-10 36,-19 50,-27 15,-8 27,-15 37,-22 10,-6 18,-13 23,-20 5,-7 8,-15 8,-24 0,-10 -3,-18 -8,-26 -5,-8 -13,-15 -22,-19 -9,-5 -21,-8 -35,-8 -11,0 -22,2 -31,5 -10,2 -19,6 -27,11 -8,6 -16,11 -23,18 -7,6 -13,13 -18,20l-60 -69c6,-7 15,-14 26,-21 11,-8 24,-15 39,-22 16,-7 32,-13 51,-17 18,-4 38,-7 59,-7 32,0 59,5 82,16 22,10 39,24 51,42 12,18 18,39 18,63 0,17 -3,31 -9,44 -6,13 -14,24 -23,34 -10,10 -20,18 -31,26 -11,8 -21,14 -32,20 -14,8 -27,15 -39,21 -12,6 -22,13 -31,19 -9,7 -17,13 -23,20 -7,7 -13,14 -18,23l214 0 0 85 -338 0z"/>
   </g>
   <path id="1" class="fil1" d="M3042 2106c0,-22 1,-41 5,-58 3,-17 9,-33 17,-48 8,-14 19,-28 33,-41 15,-13 33,-26 55,-38 19,-10 36,-19 50,-27 15,-8 27,-15 37,-22 10,-6 18,-13 23,-20 5,-7 8,-15 8,-24 0,-10 -3,-18 -8,-26 -5,-8 -13,-15 -22,-19 -9,-5 -21,-8 -35,-8 -11,0 -22,2 -31,5 -10,2 -19,6 -27,11 -8,6 -16,11 -23,18 -7,6 -13,13 -18,20l-60 -69c6,-7 15,-14 26,-21 11,-8 24,-15 39,-22 16,-7 32,-13 51,-17 18,-4 38,-7 59,-7 32,0 59,5 82,16 22,10 39,24 51,42 12,18 18,39 18,63 0,17 -3,31 -9,44 -6,13 -14,24 -23,34 -10,10 -20,18 -31,26 -11,8 -21,14 -32,20 -14,8 -27,15 -39,21 -12,6 -22,13 -31,19 -9,7 -17,13 -23,20 -7,7 -13,14 -18,23l214 0 0 85 -338 0z"/>
  </g>
 </g>
</svg>
