<?xml version="1.0" encoding="UTF-8"?>
<!DOCTYPE svg PUBLIC "-//W3C//DTD SVG 1.1//EN" "http://www.w3.org/Graphics/SVG/1.1/DTD/svg11.dtd">
<!-- Creator: CorelDRAW X8 -->
<svg xmlns="http://www.w3.org/2000/svg" xml:space="preserve" width="50mm" height="50mm" version="1.1" style="shape-rendering:geometricPrecision; text-rendering:geometricPrecision; image-rendering:optimizeQuality; fill-rule:evenodd; clip-rule:evenodd"
viewBox="0 0 5000 5000"
 xmlns:xlink="http://www.w3.org/1999/xlink">
 <defs>
  <style type="text/css">
   <![CDATA[
    .str16 {stroke:#495C80;stroke-width:7.62}
    .str15 {stroke:#495C80;stroke-width:7.62}
    .str0 {stroke:#495C80;stroke-width:102.68;stroke-linecap:round;stroke-linejoin:round}
    .str14 {stroke:#495C80;stroke-width:200;stroke-linecap:round;stroke-linejoin:round}
    .str13 {stroke:#495C80;stroke-width:200;stroke-linecap:round;stroke-linejoin:round}
    .str5 {stroke:#495C80;stroke-width:42.78;stroke-linecap:round;stroke-linejoin:round}
    .str1 {stroke:#495C80;stroke-width:42.78;stroke-linecap:round;stroke-linejoin:round}
    .str11 {stroke:#495C80;stroke-width:42.78;stroke-linecap:round;stroke-linejoin:round}
    .str6 {stroke:#495C80;stroke-width:42.78;stroke-linecap:round;stroke-linejoin:round}
    .str9 {stroke:#495C80;stroke-width:42.78;stroke-linecap:round;stroke-linejoin:round}
    .str10 {stroke:#495C80;stroke-width:42.78;stroke-linecap:round;stroke-linejoin:round}
    .str3 {stroke:#495C80;stroke-width:42.78;stroke-linecap:round;stroke-linejoin:round}
    .str7 {stroke:#495C80;stroke-width:42.78;stroke-linecap:round;stroke-linejoin:round}
    .str8 {stroke:#495C80;stroke-width:42.78;stroke-linecap:round;stroke-linejoin:round}
    .str12 {stroke:#495C80;stroke-width:42.78;stroke-linecap:round;stroke-linejoin:round}
    .str2 {stroke:#495C80;stroke-width:42.78;stroke-linecap:round;stroke-linejoin:round}
    .str4 {stroke:#495C80;stroke-width:42.79;stroke-linecap:round;stroke-linejoin:round}
    .fil2 {fill:none}
    .fil3 {fill:none;fill-rule:nonzero}
    .fil4 {fill:#FEFEFE;fill-rule:nonzero}
    .fil5 {fill:#FEFEFE;fill-rule:nonzero}
    .fil0 {fill:#D2D3D5;fill-rule:nonzero}
    .fil1 {fill:#495C80;fill-rule:nonzero}
   ]]>
  </style>
 </defs>
 <g id="Capa_x0020_1">
  <metadata id="CorelCorpID_0Corel-Layer"/>
  <g id="_1514434978480">
   <g>
    <path class="fil0" d="M4698 1995c0,-55 43,-100 97,-100 54,0 97,45 97,100l-194 0zm0 2281l0 -2281 194 0 0 2281 0 0 -194 0zm-383 595l0 -200 0 0 20 -1 19 -1 19 -3 19 -3 18 -5 18 -5 18 -6 17 -7 17 -8 17 -9 16 -9 16 -11 15 -11 14 -12 14 -12 13 -13 13 -14 12 -14 12 -15 10 -16 10 -16 10 -16 8 -17 8 -18 7 -18 6 -18 5 -18 4 -19 4 -20 2 -19 1 -20 1 -21 194 0 -1 31 -2 30 -4 30 -5 29 -6 29 -8 28 -9 27 -10 27 -12 27 -13 25 -14 25 -15 24 -16 24 -17 22 -18 22 -19 20 -20 20 -21 19 -22 17 -23 17 -23 15 -24 15 -25 13 -26 12 -26 11 -27 9 -27 8 -28 7 -28 5 -29 4 -29 2 -30 1 0 0zm-4060 -200l4060 0 0 200 -4060 0 0 0 0 -200zm-147 48l194 0 0 0 0 -2 0 -3 -1 -2 0 -2 0 -3 -1 -2 -1 -3 -1 -2 -1 -2 -1 -2 -1 -2 -1 -2 -1 -2 -2 -2 -1 -1 -2 -2 -1 -2 -2 -1 -2 -2 -1 -1 -2 -1 -2 -1 -2 -1 -2 -1 -3 -1 -2 -1 -2 -1 -3 0 -2 -1 -2 0 -3 0 -2 0 0 200 -8 0 -7 -1 -7 -1 -8 -1 -7 -2 -7 -2 -7 -2 -6 -3 -7 -3 -6 -4 -6 -3 -6 -4 -6 -4 -6 -5 -5 -5 -5 -5 -5 -5 -4 -5 -5 -6 -4 -6 -4 -6 -3 -6 -3 -7 -3 -7 -3 -6 -2 -8 -2 -7 -2 -7 -1 -8 -1 -7 -1 -8 0 -8 0 0zm194 -4438l0 4438 -194 0 0 -4438 0 0 194 0zm-47 -152l0 200 0 0 2 0 3 0 2 0 2 -1 3 0 2 -1 2 -1 3 -1 2 -1 2 -1 2 -1 2 -1 1 -1 2 -2 2 -1 1 -2 2 -2 1 -1 2 -2 1 -2 1 -2 1 -2 1 -2 1 -2 1 -2 1 -3 1 -2 0 -3 0 -2 1 -2 0 -3 0 -2 -194 0 0 -8 1 -8 1 -7 1 -8 2 -7 2 -7 2 -7 3 -7 3 -7 3 -7 3 -6 4 -6 4 -6 5 -6 4 -5 5 -5 5 -5 5 -5 6 -5 6 -4 6 -4 6 -3 6 -4 7 -3 6 -3 7 -2 7 -2 7 -2 8 -1 7 -1 7 -1 8 0 0 0zm2702 200l-2702 0 0 -200 2702 0 0 200zm0 -200c53,0 97,45 97,100 0,55 -44,100 -97,100l0 -200z"/>
   </g>
   <g id="_1514434979792">
    <g>
     <path class="fil1" d="M1381 1053l-322 0 0 -93 322 0 0 0 0 93zm149 55l-94 0 0 0 0 -3 0 -2 -1 -3 0 -3 -1 -2 0 -3 -1 -3 -1 -2 -1 -2 -2 -3 -1 -2 -1 -2 -2 -2 -1 -3 -2 -2 -2 -2 -2 -1 -2 -2 -2 -2 -2 -1 -2 -2 -3 -1 -2 -1 -3 -1 -2 -1 -3 -1 -2 -1 -3 -1 -2 0 -3 0 -3 -1 -3 0 0 -93 8 0 8 0 7 1 7 2 7 1 8 2 6 3 7 2 7 3 6 4 6 3 6 4 6 4 6 5 5 4 5 5 5 5 5 6 4 5 4 6 4 6 4 6 3 7 3 6 3 7 2 7 2 7 2 7 1 8 1 7 1 8 0 7 0 0zm-94 2299l0 -2299 94 0 0 2299 0 0 -94 0zm-55 148l0 -93 0 0 3 0 3 0 3 -1 2 0 3 -1 2 -1 3 -1 2 0 3 -2 2 -1 3 -1 2 -2 2 -1 2 -2 2 -1 2 -2 2 -2 2 -2 1 -2 2 -2 1 -3 1 -2 2 -2 1 -3 1 -2 1 -3 0 -2 1 -3 0 -3 1 -2 0 -3 0 -3 94 0 0 8 -1 7 -1 8 -1 7 -2 7 -2 7 -2 7 -3 7 -3 6 -3 7 -4 6 -4 6 -4 6 -4 5 -5 6 -5 5 -5 5 -5 4 -6 5 -6 4 -6 4 -6 3 -6 4 -7 3 -7 2 -6 3 -8 2 -7 1 -7 2 -7 1 -8 0 -8 0 0 0zm-322 -93l322 0 0 93 -322 0 0 0 0 -93zm-149 -55l94 0 0 0 0 3 0 3 1 2 0 3 1 3 1 2 0 3 1 2 1 3 2 2 1 2 1 3 2 2 2 2 1 2 2 2 2 2 2 1 2 2 2 1 3 2 2 1 2 1 3 2 2 0 3 1 2 1 3 1 2 0 3 1 3 0 3 0 0 93 -8 0 -7 0 -8 -1 -7 -2 -7 -1 -7 -2 -7 -3 -7 -2 -7 -3 -6 -4 -6 -3 -6 -4 -6 -4 -6 -5 -5 -4 -5 -5 -5 -5 -5 -6 -4 -5 -4 -6 -4 -6 -4 -6 -3 -7 -3 -6 -3 -7 -2 -7 -2 -7 -2 -7 -1 -7 -1 -8 -1 -7 0 -8 0 0zm94 -2299l0 2299 -94 0 0 -2299 0 0 94 0zm55 -148l0 93 0 0 -3 0 -3 1 -3 0 -2 0 -3 1 -2 1 -3 1 -2 1 -3 1 -2 1 -2 1 -3 2 -2 1 -2 2 -2 2 -2 1 -2 2 -1 2 -2 3 -2 2 -1 2 -1 2 -2 3 -1 2 -1 2 0 3 -1 3 -1 2 0 3 -1 3 0 2 0 3 -94 0 0 -7 1 -8 1 -7 1 -8 2 -7 2 -7 2 -7 3 -7 3 -6 3 -7 4 -6 4 -6 4 -6 4 -5 5 -6 5 -5 5 -5 5 -4 6 -5 6 -4 6 -4 6 -3 6 -4 7 -3 7 -2 7 -3 7 -2 7 -1 7 -2 8 -1 7 0 8 0 0 0z"/>
    </g>
    <g>
     <path class="fil1" d="M1220 3275c-26,0 -47,-21 -47,-47 0,-26 21,-47 47,-47l0 94zm263 0l-263 0 0 -94 263 0 0 94zm0 -94c26,0 47,21 47,47 0,26 -21,47 -47,47l0 -94z"/>
    </g>
    <g>
     <path class="fil1" d="M1352 2997c-26,0 -47,-21 -47,-47 0,-25 21,-46 47,-46l0 93zm131 0l-131 0 0 -93 131 0 0 93zm0 -93c26,0 47,21 47,46 0,26 -21,47 -47,47l0 -93z"/>
    </g>
    <g>
     <path class="fil1" d="M1220 2719c-26,0 -47,-20 -47,-46 0,-26 21,-47 47,-47l0 93zm263 0l-263 0 0 -93 263 0 0 93zm0 -93c26,0 47,21 47,47 0,26 -21,46 -47,46l0 -93z"/>
    </g>
    <g>
     <path class="fil1" d="M1352 2442c-26,0 -47,-21 -47,-47 0,-26 21,-47 47,-47l0 94zm131 0l-131 0 0 -94 131 0 0 94zm0 -94c26,0 47,21 47,47 0,26 -21,47 -47,47l0 -94z"/>
    </g>
    <g>
     <path class="fil1" d="M1220 2164c-26,0 -47,-21 -47,-47 0,-25 21,-46 47,-46l0 93zm263 0l-263 0 0 -93 263 0 0 93zm0 -93c26,0 47,21 47,46 0,26 -21,47 -47,47l0 -93z"/>
    </g>
    <g>
     <path class="fil1" d="M1352 1886c-26,0 -47,-21 -47,-46 0,-26 21,-47 47,-47l0 93zm131 0l-131 0 0 -93 131 0 0 93zm0 -93c26,0 47,21 47,47 0,25 -21,46 -47,46l0 -93z"/>
    </g>
    <g>
     <path class="fil1" d="M1220 1609c-26,0 -47,-21 -47,-47 0,-26 21,-47 47,-47l0 94zm263 0l-263 0 0 -94 263 0 0 94zm0 -94c26,0 47,21 47,47 0,26 -21,47 -47,47l0 -94z"/>
    </g>
    <g>
     <path class="fil1" d="M1352 1331c-26,0 -47,-21 -47,-47 0,-26 21,-46 47,-46l0 93zm131 0l-131 0 0 -93 131 0 0 93zm0 -93c26,0 47,20 47,46 0,26 -21,47 -47,47l0 -93z"/>
    </g>
    <g>
     <path class="fil1" d="M1530 3655l0 322 -94 0 0 -322 0 0 94 0zm55 -149l0 94 0 0 -3 0 -3 0 -3 1 -2 0 -3 1 -3 1 -2 1 -3 0 -2 2 -2 1 -3 1 -2 2 -2 1 -2 2 -2 2 -2 1 -2 2 -2 2 -1 2 -2 3 -1 2 -2 2 -1 2 -1 3 -1 2 -1 3 0 2 -1 3 -1 3 0 2 0 3 0 3 -94 0 0 -8 1 -7 1 -8 1 -7 2 -7 2 -7 2 -7 3 -7 3 -6 3 -7 4 -6 4 -6 4 -6 4 -6 5 -5 5 -5 5 -5 5 -5 6 -4 6 -4 6 -4 6 -4 6 -3 7 -3 7 -3 7 -2 7 -2 7 -2 7 -1 7 -1 8 0 8 -1 0 0zm2299 94l-2299 0 0 -94 2299 0 0 0 0 94zm148 55l-94 0 0 0 0 -3 0 -3 0 -2 -1 -3 0 -3 -1 -2 -1 -3 -1 -2 -1 -3 -1 -2 -2 -2 -1 -2 -2 -3 -1 -2 -2 -2 -2 -2 -2 -1 -2 -2 -2 -2 -2 -1 -2 -2 -3 -1 -2 -1 -2 -2 -3 0 -2 -1 -3 -1 -2 -1 -3 0 -3 -1 -3 0 -2 0 0 -94 7 1 8 0 7 1 7 1 8 2 7 2 6 2 7 3 7 3 6 3 6 4 6 4 6 4 6 4 5 5 5 5 5 5 5 5 4 6 4 6 4 6 4 6 3 7 3 6 3 7 2 7 2 7 2 7 1 7 1 8 1 7 0 8 0 0zm-94 322l0 -322 94 0 0 322 0 0 -94 0zm-54 149l0 -94 0 0 2 0 3 0 3 0 3 -1 2 -1 3 0 2 -1 3 -1 2 -1 2 -1 3 -2 2 -1 2 -2 2 -1 2 -2 2 -2 2 -2 2 -2 1 -2 2 -2 1 -2 2 -3 1 -2 1 -2 1 -3 1 -2 1 -3 0 -3 1 -2 0 -3 0 -3 0 -3 94 0 0 8 -1 8 -1 7 -1 7 -2 8 -2 7 -2 7 -3 6 -3 7 -3 6 -4 7 -4 6 -4 5 -4 6 -5 5 -5 5 -5 5 -5 5 -6 4 -6 5 -6 3 -6 4 -6 3 -7 3 -7 3 -6 2 -7 2 -8 2 -7 1 -7 1 -8 1 -7 0 0 0zm-2299 -94l2299 0 0 94 -2299 0 0 0 0 -94zm-149 -55l94 0 0 0 0 3 0 3 0 3 1 2 1 3 0 3 1 2 1 3 1 2 1 2 2 3 1 2 2 2 1 2 2 2 2 2 2 2 2 2 2 1 2 2 2 1 3 2 2 1 2 1 3 1 2 1 3 0 3 1 2 1 3 0 3 0 3 0 0 94 -8 0 -8 -1 -7 -1 -7 -1 -7 -2 -7 -2 -7 -2 -7 -3 -7 -3 -6 -3 -6 -4 -6 -3 -6 -5 -6 -4 -5 -5 -5 -5 -5 -5 -5 -5 -4 -6 -4 -5 -4 -6 -4 -7 -3 -6 -3 -7 -3 -6 -2 -7 -2 -7 -2 -8 -1 -7 -1 -7 -1 -8 0 -8 0 0z"/>
    </g>
    <g>
     <path class="fil1" d="M3751 3816c0,26 -21,47 -46,47 -26,0 -47,-21 -47,-47l93 0zm0 -263l0 263 -93 0 0 -263 93 0zm-93 0c0,-26 21,-46 47,-46 25,0 46,20 46,46l-93 0z"/>
    </g>
    <g>
     <path class="fil1" d="M3474 3685c0,26 -21,46 -47,46 -26,0 -47,-20 -47,-46l94 0zm0 -132l0 132 -94 0 0 -132 94 0zm-94 0c0,-26 21,-46 47,-46 26,0 47,20 47,46l-94 0z"/>
    </g>
    <g>
     <path class="fil1" d="M3196 3816c0,26 -21,47 -47,47 -26,0 -46,-21 -46,-47l93 0zm0 -263l0 263 -93 0 0 -263 93 0zm-93 0c0,-26 20,-46 46,-46 26,0 47,20 47,46l-93 0z"/>
    </g>
    <g>
     <path class="fil1" d="M2918 3685c0,26 -21,46 -46,46 -26,0 -47,-20 -47,-46l93 0zm0 -132l0 132 -93 0 0 -132 93 0zm-93 0c0,-26 21,-46 47,-46 25,0 46,20 46,46l-93 0z"/>
    </g>
    <g>
     <path class="fil1" d="M2641 3816c0,26 -21,47 -47,47 -26,0 -47,-21 -47,-47l94 0zm0 -263l0 263 -94 0 0 -263 94 0zm-94 0c0,-26 21,-46 47,-46 26,0 47,20 47,46l-94 0z"/>
    </g>
    <g>
     <path class="fil1" d="M2363 3685c0,26 -21,46 -47,46 -26,0 -47,-20 -47,-46l94 0zm0 -132l0 132 -94 0 0 -132 94 0zm-94 0c0,-26 21,-46 47,-46 26,0 47,20 47,46l-94 0z"/>
    </g>
    <g>
     <path class="fil1" d="M2085 3816c0,26 -21,47 -47,47 -25,0 -46,-21 -46,-47l93 0zm0 -263l0 263 -93 0 0 -263 93 0zm-93 0c0,-26 21,-46 46,-46 26,0 47,20 47,46l-93 0z"/>
    </g>
    <g>
     <path class="fil1" d="M1807 3685c0,26 -21,46 -46,46 -26,0 -47,-20 -47,-46l93 0zm0 -132l0 132 -93 0 0 -132 93 0zm-93 0c0,-26 21,-46 47,-46 25,0 46,20 46,46l-93 0z"/>
    </g>
    <g>
     <path class="fil2 str0" d="M1654 1284l1809 0c106,0 256,88 256,257l0 1873"/>
    </g>
    <g>
     <line class="fil2 str1" x1="1654" y1="1562" x2="1932" y2= "1284" />
    </g>
    <g>
     <line class="fil2 str2" x1="1654" y1="1904" x2="2274" y2= "1284" />
    </g>
    <g>
     <line class="fil2 str3" x1="1654" y1="2246" x2="2601" y2= "1300" />
    </g>
    <g>
     <line class="fil2 str4" x1="1654" y1="2589" x2="2959" y2= "1284" />
    </g>
    <g>
     <line class="fil2 str5" x1="1654" y1="2931" x2="3301" y2= "1284" />
    </g>
    <g>
     <line class="fil2 str6" x1="1654" y1="3273" x2="3583" y2= "1345" />
    </g>
    <g>
     <line class="fil2 str7" x1="1857" y1="3413" x2="3719" y2= "1550" />
    </g>
    <g>
     <line class="fil2 str8" x1="2199" y1="3413" x2="3719" y2= "1893" />
    </g>
    <g>
     <line class="fil2 str9" x1="2542" y1="3413" x2="3719" y2= "2235" />
    </g>
    <g>
     <line class="fil2 str10" x1="2884" y1="3413" x2="3719" y2= "2577" />
    </g>
    <g>
     <line class="fil2 str11" x1="3226" y1="3413" x2="3719" y2= "2919" />
    </g>
    <g>
     <line class="fil2 str12" x1="3568" y1="3413" x2="3719" y2= "3262" />
    </g>
   </g>
   <g>
    <path class="fil3 str13" d="M3185 2943l-226 0 0 -487c0,-69 -12,-119 -36,-152 -24,-33 -57,-49 -100,-49 -44,0 -85,17 -125,51 -40,34 -68,77 -85,131l0 506 -226 0 0 -487c0,-70 -12,-121 -36,-153 -24,-32 -57,-48 -100,-48 -44,0 -86,17 -125,50 -40,32 -68,76 -85,129l0 509 -226 0 0 -873 204 0 0 163c33,-57 78,-100 134,-131 56,-30 121,-45 194,-45 73,0 130,17 171,53 41,35 67,79 78,131 36,-60 82,-105 137,-137 56,-32 118,-47 188,-47 55,0 99,9 133,29 35,19 61,45 80,78 19,33 33,70 40,111 7,40 11,82 11,124l0 544z"/>
   </g>
   <path id="1" class="fil4" d="M3185 2943l-226 0 0 -487c0,-69 -12,-119 -36,-152 -24,-33 -57,-49 -100,-49 -44,0 -85,17 -125,51 -40,34 -68,77 -85,131l0 506 -226 0 0 -487c0,-70 -12,-121 -36,-153 -24,-32 -57,-48 -100,-48 -44,0 -86,17 -125,50 -40,32 -68,76 -85,129l0 509 -226 0 0 -873 204 0 0 163c33,-57 78,-100 134,-131 56,-30 121,-45 194,-45 73,0 130,17 171,53 41,35 67,79 78,131 36,-60 82,-105 137,-137 56,-32 118,-47 188,-47 55,0 99,9 133,29 35,19 61,45 80,78 19,33 33,70 40,111 7,40 11,82 11,124l0 544z"/>
   <g>
    <path class="fil3 str14" d="M3062 2058c0,-21 2,-40 5,-57 4,-17 9,-33 18,-48 8,-14 19,-28 33,-41 14,-13 33,-26 55,-38 19,-11 36,-20 50,-28 14,-7 27,-15 37,-21 10,-7 17,-13 23,-20 5,-7 7,-15 7,-24 0,-10 -2,-19 -7,-27 -6,-7 -13,-14 -22,-19 -9,-4 -21,-7 -35,-7 -11,0 -22,1 -31,4 -10,3 -19,7 -27,12 -8,5 -16,11 -23,17 -7,7 -13,13 -19,20l-59 -68c6,-7 15,-14 26,-22 11,-7 24,-15 39,-21 15,-7 32,-13 51,-17 18,-5 38,-7 59,-7 32,0 59,5 81,15 23,11 40,25 52,43 12,18 18,39 18,63 0,16 -3,31 -9,44 -7,13 -14,24 -24,34 -9,10 -19,18 -30,26 -11,7 -22,14 -32,20 -14,7 -28,14 -39,21 -12,6 -22,13 -31,19 -9,6 -17,13 -24,20 -6,6 -12,14 -17,22l213 0 0 85 -338 0z"/>
   </g>
   <path id="1" class="fil4" d="M3062 2058c0,-21 2,-40 5,-57 4,-17 9,-33 18,-48 8,-14 19,-28 33,-41 14,-13 33,-26 55,-38 19,-11 36,-20 50,-28 14,-7 27,-15 37,-21 10,-7 17,-13 23,-20 5,-7 7,-15 7,-24 0,-10 -2,-19 -7,-27 -6,-7 -13,-14 -22,-19 -9,-4 -21,-7 -35,-7 -11,0 -22,1 -31,4 -10,3 -19,7 -27,12 -8,5 -16,11 -23,17 -7,7 -13,13 -19,20l-59 -68c6,-7 15,-14 26,-22 11,-7 24,-15 39,-21 15,-7 32,-13 51,-17 18,-5 38,-7 59,-7 32,0 59,5 81,15 23,11 40,25 52,43 12,18 18,39 18,63 0,16 -3,31 -9,44 -7,13 -14,24 -24,34 -9,10 -19,18 -30,26 -11,7 -22,14 -32,20 -14,7 -28,14 -39,21 -12,6 -22,13 -31,19 -9,6 -17,13 -24,20 -6,6 -12,14 -17,22l213 0 0 85 -338 0z"/>
   <g>
    <path class="fil3 str15" d="M3185 2943l-226 0 0 -487c0,-69 -12,-119 -36,-152 -24,-33 -57,-49 -100,-49 -44,0 -85,17 -125,51 -40,34 -68,77 -85,131l0 506 -226 0 0 -487c0,-70 -12,-121 -36,-153 -24,-32 -57,-48 -100,-48 -44,0 -86,17 -125,50 -40,32 -68,76 -85,129l0 509 -226 0 0 -873 204 0 0 163c33,-57 78,-100 134,-131 56,-30 121,-45 194,-45 73,0 130,17 171,53 41,35 67,79 78,131 36,-60 82,-105 137,-137 56,-32 118,-47 188,-47 55,0 99,9 133,29 35,19 61,45 80,78 19,33 33,70 40,111 7,40 11,82 11,124l0 544z"/>
   </g>
   <path id="1" class="fil5" d="M3185 2943l-226 0 0 -487c0,-69 -12,-119 -36,-152 -24,-33 -57,-49 -100,-49 -44,0 -85,17 -125,51 -40,34 -68,77 -85,131l0 506 -226 0 0 -487c0,-70 -12,-121 -36,-153 -24,-32 -57,-48 -100,-48 -44,0 -86,17 -125,50 -40,32 -68,76 -85,129l0 509 -226 0 0 -873 204 0 0 163c33,-57 78,-100 134,-131 56,-30 121,-45 194,-45 73,0 130,17 171,53 41,35 67,79 78,131 36,-60 82,-105 137,-137 56,-32 118,-47 188,-47 55,0 99,9 133,29 35,19 61,45 80,78 19,33 33,70 40,111 7,40 11,82 11,124l0 544z"/>
   <g>
    <path class="fil3 str16" d="M3062 2058c0,-21 2,-40 5,-57 4,-17 9,-33 18,-48 8,-14 19,-28 33,-41 14,-13 33,-26 55,-38 19,-11 36,-20 50,-28 14,-7 27,-15 37,-21 10,-7 17,-13 23,-20 5,-7 7,-15 7,-24 0,-10 -2,-19 -7,-27 -6,-7 -13,-14 -22,-19 -9,-4 -21,-7 -35,-7 -11,0 -22,1 -31,4 -10,3 -19,7 -27,12 -8,5 -16,11 -23,17 -7,7 -13,13 -19,20l-59 -68c6,-7 15,-14 26,-22 11,-7 24,-15 39,-21 15,-7 32,-13 51,-17 18,-5 38,-7 59,-7 32,0 59,5 81,15 23,11 40,25 52,43 12,18 18,39 18,63 0,16 -3,31 -9,44 -7,13 -14,24 -24,34 -9,10 -19,18 -30,26 -11,7 -22,14 -32,20 -14,7 -28,14 -39,21 -12,6 -22,13 -31,19 -9,6 -17,13 -24,20 -6,6 -12,14 -17,22l213 0 0 85 -338 0z"/>
   </g>
   <path id="1" class="fil5" d="M3062 2058c0,-21 2,-40 5,-57 4,-17 9,-33 18,-48 8,-14 19,-28 33,-41 14,-13 33,-26 55,-38 19,-11 36,-20 50,-28 14,-7 27,-15 37,-21 10,-7 17,-13 23,-20 5,-7 7,-15 7,-24 0,-10 -2,-19 -7,-27 -6,-7 -13,-14 -22,-19 -9,-4 -21,-7 -35,-7 -11,0 -22,1 -31,4 -10,3 -19,7 -27,12 -8,5 -16,11 -23,17 -7,7 -13,13 -19,20l-59 -68c6,-7 15,-14 26,-22 11,-7 24,-15 39,-21 15,-7 32,-13 51,-17 18,-5 38,-7 59,-7 32,0 59,5 81,15 23,11 40,25 52,43 12,18 18,39 18,63 0,16 -3,31 -9,44 -7,13 -14,24 -24,34 -9,10 -19,18 -30,26 -11,7 -22,14 -32,20 -14,7 -28,14 -39,21 -12,6 -22,13 -31,19 -9,6 -17,13 -24,20 -6,6 -12,14 -17,22l213 0 0 85 -338 0z"/>
  </g>
 </g>
</svg>
