<?xml version="1.0" encoding="UTF-8"?>
<!DOCTYPE svg PUBLIC "-//W3C//DTD SVG 1.1//EN" "http://www.w3.org/Graphics/SVG/1.1/DTD/svg11.dtd">
<!-- Creator: CorelDRAW X8 -->
<svg xmlns="http://www.w3.org/2000/svg" xml:space="preserve" width="50mm" height="50mm" version="1.1" style="shape-rendering:geometricPrecision; text-rendering:geometricPrecision; image-rendering:optimizeQuality; fill-rule:evenodd; clip-rule:evenodd"
viewBox="0 0 5000 5000"
 xmlns:xlink="http://www.w3.org/1999/xlink">
 <defs>
  <style type="text/css">
   <![CDATA[
    .str1 {stroke:#FEFEFE;stroke-width:7.62}
    .str0 {stroke:#495C80;stroke-width:7.62}
    .str2 {stroke:#FEFEFE;stroke-width:100;stroke-linecap:round;stroke-linejoin:round}
    .fil3 {fill:none}
    .fil1 {fill:#FEFEFE}
    .fil0 {fill:#495C80}
    .fil2 {fill:#495C80;fill-rule:nonzero}
   ]]>
  </style>
 </defs>
 <g id="Capa_x0020_1">
  <metadata id="CorelCorpID_0Corel-Layer"/>
  <g id="_1614085136752">
   <path class="fil0 str0" d="M242 182l4185 0c227,0 414,186 414,414l0 3735c0,227 -187,414 -414,414l-4266 0 0 -4482c0,-45 36,-81 81,-81z"/>
   <circle class="fil1 str1" cx="2477" cy="1705" r="350"/>
   <path class="fil1 str1" d="M2132 2638l-1142 0c-14,-83 -21,-167 -21,-254 0,-687 460,-1267 1088,-1449l24 545c-38,66 -60,143 -60,225 0,97 30,186 82,260l29 673z"/>
   <rect class="fil1 str1" x="779" y="2752" width="3379" height="519" rx="206" ry="95"/>
   <path class="fil1 str1" d="M2805 2638l1142 0c14,-83 22,-167 22,-254 0,-687 -460,-1267 -1089,-1449l-23 521c48,71 75,157 75,249 0,107 -37,205 -98,283l-29 650z"/>
   <path class="fil1 str1" d="M2477 798l293 0 -24 540c-75,-55 -168,-88 -269,-88 -108,0 -207,38 -285,100l-24 -552 293 0 16 0zm236 1297l-24 543 -220 0 -220 0 -25 -554c72,49 159,77 253,77 86,0 167,-24 236,-66z"/>
   <g>
    <path class="fil2" d="M4652 2043c0,-56 44,-100 97,-100 54,0 97,44 97,100l-194 0zm0 2281l0 -2281 194 0 0 2281 0 0 -194 0zm-383 594l0 -200 0 0 20 0 19 -2 19 -2 19 -4 19 -4 18 -6 17 -6 18 -7 17 -8 16 -9 16 -9 16 -10 15 -12 14 -11 14 -13 14 -13 12 -14 13 -14 11 -15 11 -15 10 -17 9 -16 8 -17 8 -17 7 -18 6 -19 5 -18 4 -19 4 -20 2 -19 2 -20 0 -20 194 0 0 30 -3 30 -3 30 -5 29 -7 29 -8 28 -9 28 -10 27 -12 26 -13 26 -14 25 -15 24 -16 23 -17 22 -18 22 -19 21 -20 19 -21 19 -22 18 -22 16 -24 16 -24 14 -25 13 -25 12 -27 11 -26 9 -28 8 -28 7 -28 5 -29 4 -29 2 -30 1 0 0zm-4060 -200l4060 0 0 200 -4060 0 0 0 0 -200zm-147 49l194 0 0 0 0 -3 0 -2 0 -3 -1 -2 0 -3 -1 -2 -1 -2 0 -2 -1 -3 -1 -2 -2 -2 -1 -2 -1 -2 -1 -1 -2 -2 -1 -2 -2 -1 -2 -2 -1 -1 -2 -1 -2 -2 -2 -1 -2 -1 -2 -1 -2 -1 -3 -1 -2 0 -2 -1 -3 0 -2 -1 -2 0 -3 0 0 200 -7 0 -8 -1 -7 -1 -7 -1 -8 -2 -7 -2 -6 -2 -7 -3 -7 -3 -6 -3 -6 -4 -6 -4 -6 -4 -5 -5 -6 -4 -5 -5 -4 -5 -5 -6 -5 -6 -4 -6 -3 -6 -4 -6 -3 -7 -3 -6 -3 -7 -2 -7 -2 -7 -2 -8 -1 -7 -1 -8 -1 -8 0 -7 0 0zm194 -4439l0 4439 -194 0 0 -4439 0 0 194 0zm-47 -152l0 200 0 0 3 0 2 0 2 0 3 -1 2 0 2 -1 3 -1 2 0 2 -1 2 -1 2 -2 2 -1 2 -1 1 -2 2 -1 2 -2 1 -1 2 -2 1 -2 1 -2 1 -2 2 -2 1 -2 1 -2 0 -2 1 -2 1 -3 0 -2 1 -3 0 -2 0 -3 0 -2 -194 0 0 -8 1 -7 1 -8 1 -8 2 -7 2 -7 2 -7 3 -7 3 -7 3 -6 4 -7 3 -6 4 -6 5 -5 5 -6 4 -5 5 -5 6 -5 5 -4 6 -4 6 -4 6 -4 6 -3 7 -4 7 -2 6 -3 7 -2 8 -1 7 -2 7 -1 8 0 7 -1 0 0zm2702 200l-2702 0 0 -200 2702 0 0 200zm0 -200c54,0 97,45 97,100 0,56 -43,100 -97,100l0 -200z"/>
   </g>
   <path class="fil3 str2" d="M3139 3729c72,-160 234,-272 421,-272 255,0 462,207 462,462 0,256 -207,462 -462,462 -187,0 -349,-111 -421,-271l-1384 0c-69,136 -211,229 -374,229 -124,0 -236,-54 -313,-140l42 0 216 0 108 -140 108 -140 -108 -139 -108 -140 -216 0 -42 0c77,-86 189,-140 313,-140 163,0 305,93 374,229l1384 0zm199 190l55 -104 56 -105 111 0 111 0 55 105 56 104 -56 105 -55 105 -111 0 -111 0 -56 -105 -55 -105z"/>
  </g>
 </g>
</svg>
