<?xml version="1.0" encoding="UTF-8"?>
<!DOCTYPE svg PUBLIC "-//W3C//DTD SVG 1.1//EN" "http://www.w3.org/Graphics/SVG/1.1/DTD/svg11.dtd">
<!-- Creator: CorelDRAW X8 -->
<svg xmlns="http://www.w3.org/2000/svg" xml:space="preserve" width="50mm" height="50mm" version="1.1" style="shape-rendering:geometricPrecision; text-rendering:geometricPrecision; image-rendering:optimizeQuality; fill-rule:evenodd; clip-rule:evenodd"
viewBox="0 0 5000 5000"
 xmlns:xlink="http://www.w3.org/1999/xlink">
 <defs>
  <style type="text/css">
   <![CDATA[
    .str0 {stroke:#495C80;stroke-width:100;stroke-linecap:round;stroke-linejoin:round}
    .fil2 {fill:#FEFEFE}
    .fil0 {fill:#495C80}
    .fil1 {fill:#D2D3D5;fill-rule:nonzero}
   ]]>
  </style>
 </defs>
 <g id="Capa_x0020_1">
  <metadata id="CorelCorpID_0Corel-Layer"/>
  <g id="_1614767784736">
   <circle class="fil0" cx="2522" cy="1658" r="350"/>
   <path class="fil0" d="M2178 2591l-1142 0c-14,-83 -21,-168 -21,-254 0,-688 459,-1267 1088,-1449l24 544c-38,67 -60,144 -60,226 0,97 30,186 81,260l30 673z"/>
   <rect class="fil0" x="825" y="2705" width="3379" height="519" rx="206" ry="95"/>
   <path class="fil0" d="M2851 2591l1142 0c14,-83 21,-168 21,-254 0,-688 -459,-1267 -1088,-1449l-23 520c47,72 75,158 75,250 0,107 -37,205 -98,282l-29 651z"/>
   <path class="fil0" d="M2523 751l293 0 -24 540c-76,-55 -169,-88 -270,-88 -107,0 -206,37 -284,100l-25 -552 293 0 17 0zm236 1296l-24 544 -221 0 -220 0 -24 -554c72,48 159,76 252,76 87,0 168,-24 237,-66z"/>
   <g>
    <path class="fil1" d="M4698 1995c0,-55 43,-100 97,-100 54,0 97,45 97,100l-194 0zm0 2281l0 -2281 194 0 0 2281 0 0 -194 0zm-383 595l0 -200 0 0 20 -1 19 -1 19 -3 19 -3 18 -5 18 -5 18 -6 17 -7 17 -8 17 -9 16 -9 16 -11 15 -11 14 -12 14 -12 13 -13 13 -14 12 -14 12 -15 10 -16 10 -16 10 -16 8 -17 8 -18 7 -18 6 -18 5 -18 4 -19 4 -20 2 -19 1 -20 1 -21 194 0 -1 31 -2 30 -4 30 -5 29 -6 29 -8 28 -9 27 -10 27 -12 27 -13 25 -14 25 -15 24 -16 24 -17 22 -18 22 -19 20 -20 20 -21 19 -22 17 -23 17 -23 15 -24 15 -25 13 -26 12 -26 11 -27 9 -27 8 -28 7 -28 5 -29 4 -29 2 -30 1 0 0zm-4060 -200l4060 0 0 200 -4060 0 0 0 0 -200zm-147 48l194 0 0 0 0 -2 0 -3 -1 -2 0 -2 0 -3 -1 -2 -1 -3 -1 -2 -1 -2 -1 -2 -1 -2 -1 -2 -1 -2 -2 -2 -1 -1 -2 -2 -1 -2 -2 -1 -2 -2 -1 -1 -2 -1 -2 -1 -2 -1 -2 -1 -3 -1 -2 -1 -2 -1 -3 0 -2 -1 -2 0 -3 0 -2 0 0 200 -8 0 -7 -1 -7 -1 -8 -1 -7 -2 -7 -2 -7 -2 -6 -3 -7 -3 -6 -4 -6 -3 -6 -4 -6 -4 -6 -5 -5 -5 -5 -5 -5 -5 -4 -5 -5 -6 -4 -6 -4 -6 -3 -6 -3 -7 -3 -7 -3 -6 -2 -8 -2 -7 -2 -7 -1 -8 -1 -7 -1 -8 0 -8 0 0zm194 -4438l0 4438 -194 0 0 -4438 0 0 194 0zm-47 -152l0 200 0 0 2 0 3 0 2 0 2 -1 3 0 2 -1 2 -1 3 -1 2 -1 2 -1 2 -1 2 -1 1 -1 2 -2 2 -1 1 -2 2 -2 1 -1 2 -2 1 -2 1 -2 1 -2 1 -2 1 -2 1 -2 1 -3 1 -2 0 -3 0 -2 1 -2 0 -3 0 -2 -194 0 0 -8 1 -8 1 -7 1 -8 2 -7 2 -7 2 -7 3 -7 3 -7 3 -7 3 -6 4 -6 4 -6 5 -6 4 -5 5 -5 5 -5 5 -5 6 -5 6 -4 6 -4 6 -3 6 -4 7 -3 6 -3 7 -2 7 -2 7 -2 8 -1 7 -1 7 -1 8 0 0 0zm2702 200l-2702 0 0 -200 2702 0 0 200zm0 -200c53,0 97,45 97,100 0,55 -44,100 -97,100l0 -200z"/>
   </g>
   <path class="fil2 str0" d="M3185 3682c72,-160 233,-272 421,-272 255,0 461,207 461,462 0,255 -206,462 -461,462 -188,0 -349,-111 -421,-271l-1384 0c-70,136 -211,229 -374,229 -125,0 -236,-54 -313,-140l42 0 216 0 108 -140 108 -140 -108 -140 -108 -140 -216 0 -42 0c77,-86 188,-140 313,-140 163,0 304,94 374,230l1384 0zm198 190l56 -105 56 -104 111 0 111 0 55 104 56 105 -56 105 -55 105 -111 0 -111 0 -56 -105 -56 -105z"/>
  </g>
 </g>
</svg>
