<?xml version="1.0" encoding="UTF-8"?>
<!DOCTYPE svg PUBLIC "-//W3C//DTD SVG 1.1//EN" "http://www.w3.org/Graphics/SVG/1.1/DTD/svg11.dtd">
<!-- Creator: CorelDRAW X8 -->
<svg xmlns="http://www.w3.org/2000/svg" xml:space="preserve" width="52mm" height="52mm" version="1.1" style="shape-rendering:geometricPrecision; text-rendering:geometricPrecision; image-rendering:optimizeQuality; fill-rule:evenodd; clip-rule:evenodd"
viewBox="0 0 5200 5200"
 xmlns:xlink="http://www.w3.org/1999/xlink">
 <defs>
  <style type="text/css">
   <![CDATA[
    .str2 {stroke:#495C80;stroke-width:184.24;stroke-linecap:round;stroke-linejoin:round}
    .str1 {stroke:#495C80;stroke-width:184.24;stroke-linecap:round;stroke-linejoin:round}
    .str10 {stroke:#495C80;stroke-width:184.24;stroke-linecap:round;stroke-linejoin:round}
    .str3 {stroke:#495C80;stroke-width:184.24;stroke-linecap:round;stroke-linejoin:round}
    .str5 {stroke:#495C80;stroke-width:184.24;stroke-linecap:round;stroke-linejoin:round}
    .str4 {stroke:#495C80;stroke-width:184.24;stroke-linecap:round;stroke-linejoin:round}
    .str11 {stroke:#495C80;stroke-width:184.24;stroke-linecap:round;stroke-linejoin:round}
    .str8 {stroke:#495C80;stroke-width:184.24;stroke-linecap:round;stroke-linejoin:round}
    .str7 {stroke:#495C80;stroke-width:184.24;stroke-linecap:round;stroke-linejoin:round}
    .str9 {stroke:#495C80;stroke-width:184.24;stroke-linecap:round;stroke-linejoin:round}
    .str6 {stroke:#495C80;stroke-width:184.24;stroke-linecap:round;stroke-linejoin:round}
    .str0 {stroke:#495C80;stroke-width:184.24;stroke-linecap:round;stroke-linejoin:round}
    .fil0 {fill:none}
   ]]>
  </style>
 </defs>
 <g id="Capa_x0020_1">
  <metadata id="CorelCorpID_0Corel-Layer"/>
  <g id="_2093547072192">
   <g>
    <line class="fil0 str0" x1="1984" y1="3898" x2="3757" y2= "4947" />
   </g>
   <g>
    <line class="fil0 str1" x1="3372" y1="2542" x2="4523" y2= "3222" />
   </g>
   <g>
    <line class="fil0 str2" x1="3107" y1="1292" x2="3989" y2= "1813" />
   </g>
   <g>
    <line class="fil0 str3" x1="2960" y1="1645" x2="3617" y2= "2033" />
   </g>
   <g>
    <line class="fil0 str4" x1="504" y1="4238" x2="1531" y2= "3630" />
   </g>
   <g>
    <polyline class="fil0 str5" points="4209,4680 2124,3447 2036,3395 2091,3299 2164,3256 3372,2542 4523,3222 "/>
   </g>
   <g>
    <polyline class="fil0 str6" points="4696,1395 3989,1813 3034,1249 "/>
   </g>
   <g>
    <polyline class="fil0 str7" points="2960,1645 3617,2033 2125,2915 "/>
   </g>
   <g>
    <line class="fil0 str8" x1="1614" y1="3217" x2="244" y2= "4027" />
   </g>
   <g>
    <path class="fil0 str9" d="M1831 253c634,0 1162,508 1162,1162 -74,1102 -1113,937 -938,2298 0,151 -136,224 -224,224 -88,0 -224,-73 -224,-224 175,-1361 -864,-1196 -938,-2298 0,-654 528,-1162 1162,-1162zm0 740c233,0 422,189 422,422 0,233 -189,423 -422,423 -233,0 -422,-190 -422,-423 0,-233 189,-422 422,-422z"/>
   </g>
   <g>
    <line class="fil0 str10" x1="3686" y1="2356" x2="4837" y2= "3037" />
   </g>
   <g>
    <polyline class="fil0 str11" points="4837,3037 3686,2356 4956,1605 "/>
   </g>
  </g>
 </g>
</svg>
