<?xml version="1.0" encoding="UTF-8"?>
<!DOCTYPE svg PUBLIC "-//W3C//DTD SVG 1.1//EN" "http://www.w3.org/Graphics/SVG/1.1/DTD/svg11.dtd">
<!-- Creator: CorelDRAW X8 -->
<svg xmlns="http://www.w3.org/2000/svg" xml:space="preserve" width="50.5mm" height="50mm" version="1.1" style="shape-rendering:geometricPrecision; text-rendering:geometricPrecision; image-rendering:optimizeQuality; fill-rule:evenodd; clip-rule:evenodd"
viewBox="0 0 5050 5000"
 xmlns:xlink="http://www.w3.org/1999/xlink">
 <defs>
  <style type="text/css">
   <![CDATA[
    .str0 {stroke:#495C80;stroke-width:7.62}
    .str2 {stroke:#FEFEFE;stroke-width:108.1;stroke-linecap:round;stroke-linejoin:round}
    .str1 {stroke:#FEFEFE;stroke-width:174.01;stroke-linecap:round;stroke-linejoin:round}
    .fil2 {fill:none}
    .fil5 {fill:#ED3237}
    .fil0 {fill:#495C80}
    .fil3 {fill:#FEFEFE;fill-rule:nonzero}
    .fil4 {fill:#FEFEFE;fill-rule:nonzero}
    .fil1 {fill:#495C80;fill-rule:nonzero}
   ]]>
  </style>
 </defs>
 <g id="Capa_x0020_1">
  <metadata id="CorelCorpID_0Corel-Layer"/>
  <path class="fil0 str0" d="M267 182l4185 0c227,0 414,186 414,414l0 3735c0,227 -187,414 -414,414l-4266 0 0 -4482c0,-45 36,-81 81,-81z"/>
  <g>
   <path class="fil1" d="M4677 2043c0,-56 44,-100 97,-100 54,0 97,44 97,100l-194 0zm0 2281l0 -2281 194 0 0 2281 0 0 -194 0zm-383 594l0 -200 0 0 20 0 19 -2 19 -2 19 -4 19 -4 18 -6 17 -6 18 -7 17 -8 16 -9 16 -9 16 -10 15 -12 14 -11 14 -13 14 -13 12 -14 12 -14 12 -15 11 -15 10 -17 9 -16 8 -17 8 -17 7 -18 6 -19 5 -18 4 -19 4 -20 2 -19 2 -20 0 -20 194 0 0 30 -3 30 -3 30 -5 29 -7 29 -8 28 -9 28 -10 27 -12 26 -13 26 -14 25 -15 24 -16 23 -17 22 -18 22 -19 21 -20 19 -21 19 -22 18 -22 16 -24 16 -24 14 -25 13 -25 12 -27 11 -26 9 -28 8 -28 7 -28 5 -29 4 -29 2 -30 1 0 0zm-4060 -200l4060 0 0 200 -4060 0 0 0 0 -200zm-147 49l194 0 0 0 0 -3 0 -2 0 -3 -1 -2 0 -3 -1 -2 -1 -2 0 -2 -1 -3 -1 -2 -2 -2 -1 -2 -1 -2 -1 -1 -2 -2 -1 -2 -2 -1 -2 -2 -1 -1 -2 -1 -2 -2 -2 -1 -2 -1 -2 -1 -2 -1 -3 -1 -2 0 -2 -1 -3 0 -2 -1 -2 0 -3 0 0 200 -7 0 -8 -1 -7 -1 -7 -1 -8 -2 -7 -2 -6 -2 -7 -3 -7 -3 -6 -3 -6 -4 -6 -4 -6 -4 -5 -5 -6 -4 -5 -5 -4 -5 -5 -6 -5 -6 -4 -6 -3 -6 -4 -6 -3 -7 -3 -6 -3 -7 -2 -7 -2 -7 -2 -8 -1 -7 -1 -8 -1 -8 0 -7 0 0zm194 -4439l0 4439 -194 0 0 -4439 0 0 194 0zm-47 -152l0 200 0 0 3 0 2 0 2 0 3 -1 2 0 2 -1 3 -1 2 0 2 -1 2 -1 2 -2 2 -1 2 -1 1 -2 2 -1 2 -2 1 -1 2 -2 1 -2 1 -2 1 -2 2 -2 1 -2 1 -2 0 -2 1 -2 1 -3 0 -2 1 -3 0 -2 0 -3 0 -2 -194 0 0 -8 1 -7 1 -8 1 -8 2 -7 2 -7 2 -7 3 -7 3 -7 3 -6 4 -7 3 -6 4 -6 5 -5 5 -6 4 -5 5 -5 6 -5 5 -4 6 -4 6 -4 6 -4 6 -3 7 -4 7 -2 6 -3 7 -2 8 -1 7 -2 7 -1 8 0 7 -1 0 0zm2702 200l-2702 0 0 -200 2702 0 0 200zm0 -200c54,0 97,45 97,100 0,56 -43,100 -97,100l0 -200z"/>
  </g>
  <g>
   <path class="fil1" d="M4677 2043c0,-56 44,-100 97,-100 54,0 97,44 97,100l-194 0zm0 2281l0 -2281 194 0 0 2281 0 0 -194 0zm-383 594l0 -200 0 0 20 0 19 -2 19 -2 19 -4 19 -4 18 -6 17 -6 18 -7 17 -8 16 -9 16 -9 16 -10 15 -12 14 -11 14 -13 14 -13 12 -14 12 -14 12 -15 11 -15 10 -17 9 -16 8 -17 8 -17 7 -18 6 -19 5 -18 4 -19 4 -20 2 -19 2 -20 0 -20 194 0 0 30 -3 30 -3 30 -5 29 -7 29 -8 28 -9 28 -10 27 -12 26 -13 26 -14 25 -15 24 -16 23 -17 22 -18 22 -19 21 -20 19 -21 19 -22 18 -22 16 -24 16 -24 14 -25 13 -25 12 -27 11 -26 9 -28 8 -28 7 -28 5 -29 4 -29 2 -30 1 0 0zm-4060 -200l4060 0 0 200 -4060 0 0 0 0 -200zm-147 49l194 0 0 0 0 -3 0 -2 0 -3 -1 -2 0 -3 -1 -2 -1 -2 0 -2 -1 -3 -1 -2 -2 -2 -1 -2 -1 -2 -1 -1 -2 -2 -1 -2 -2 -1 -2 -2 -1 -1 -2 -1 -2 -2 -2 -1 -2 -1 -2 -1 -2 -1 -3 -1 -2 0 -2 -1 -3 0 -2 -1 -2 0 -3 0 0 200 -7 0 -8 -1 -7 -1 -7 -1 -8 -2 -7 -2 -6 -2 -7 -3 -7 -3 -6 -3 -6 -4 -6 -4 -6 -4 -5 -5 -6 -4 -5 -5 -4 -5 -5 -6 -5 -6 -4 -6 -3 -6 -4 -6 -3 -7 -3 -6 -3 -7 -2 -7 -2 -7 -2 -8 -1 -7 -1 -8 -1 -8 0 -7 0 0zm194 -4439l0 4439 -194 0 0 -4439 0 0 194 0zm-47 -152l0 200 0 0 3 0 2 0 2 0 3 -1 2 0 2 -1 3 -1 2 0 2 -1 2 -1 2 -2 2 -1 2 -1 1 -2 2 -1 2 -2 1 -1 2 -2 1 -2 1 -2 1 -2 2 -2 1 -2 1 -2 0 -2 1 -2 1 -3 0 -2 1 -3 0 -2 0 -3 0 -2 -194 0 0 -8 1 -7 1 -8 1 -8 2 -7 2 -7 2 -7 3 -7 3 -7 3 -6 4 -7 3 -6 4 -6 5 -5 5 -6 4 -5 5 -5 6 -5 5 -4 6 -4 6 -4 6 -4 6 -3 7 -4 7 -2 6 -3 7 -2 8 -1 7 -2 7 -1 8 0 7 -1 0 0zm2702 200l-2702 0 0 -200 2702 0 0 200zm0 -200c54,0 97,45 97,100 0,56 -43,100 -97,100l0 -200z"/>
  </g>
  <g>
   <polygon class="fil2 str1" points="948,2398 1901,2163 2855,2398 3808,2163 3808,4031 2855,4267 1901,3993 948,4267 "/>
  </g>
  <g>
   <line class="fil2 str2" x1="2855" y1="2398" x2="2855" y2= "4267" />
  </g>
  <g>
   <path class="fil3" d="M1847 2163c0,-30 25,-53 54,-53 30,0 54,23 54,53l-108 0zm0 1834l0 -1834 108 0 0 1834 -108 0zm108 0c0,29 -24,53 -54,53 -29,0 -54,-24 -54,-53l108 0z"/>
  </g>
  <g>
   <path class="fil4" d="M4064 1607l-72 0 0 0 -1 -34 -2 -33 -5 -32 -5 -32 -7 -31 -9 -31 -10 -30 -12 -29 -13 -29 -14 -28 -16 -27 -17 -26 -18 -26 -19 -24 -20 -24 -22 -22 -22 -21 -24 -21 -24 -19 -25 -18 -27 -17 -27 -16 -28 -14 -28 -13 -30 -11 -30 -11 -30 -8 -32 -7 -32 -6 -32 -4 -33 -3 -33 -1 0 -72 37 1 36 3 36 5 36 6 34 8 35 10 33 11 33 13 32 14 31 16 30 17 29 19 28 20 27 22 26 22 25 24 24 25 23 26 21 27 20 28 19 30 17 30 16 31 14 32 13 32 12 34 9 34 8 35 7 35 4 36 3 37 1 37 0 0zm-114 389l-62 -38 1 -1 6 -9 6 -10 5 -10 6 -10 5 -9 6 -11 5 -10 4 -10 5 -10 5 -11 4 -10 4 -11 4 -11 4 -11 3 -10 4 -11 3 -12 3 -11 3 -11 3 -11 2 -12 2 -11 2 -12 2 -11 2 -12 1 -12 1 -11 1 -12 1 -12 1 -12 0 -12 0 -12 72 0 0 13 0 13 -1 14 -1 13 -1 13 -1 13 -2 13 -2 13 -2 13 -2 13 -2 13 -3 12 -3 13 -3 12 -4 13 -3 12 -4 12 -4 13 -4 12 -4 12 -5 11 -5 12 -5 12 -5 11 -6 12 -5 11 -6 11 -6 11 -6 11 -6 11 -7 11 -7 10 1 0zm-1 0c-10,17 -33,22 -49,11 -17,-11 -22,-33 -11,-50l60 39zm-609 851l548 -889 62 38 -548 889 -63 -36 1 -2zm62 38c-11,17 -33,22 -50,12 -17,-11 -22,-33 -12,-50l62 38zm-7 10l-51 -51 -4 5 -1 0 0 0 1 -1 0 1 0 0 0 -1 -1 1 0 0 1 -1 0 1 0 0 0 0 -1 1 1 -2 0 0 -1 1 0 0 0 0 0 1 0 -1 1 0 0 0 0 0 -1 0 0 0 1 -1 0 1 -1 1 0 -1 0 1 0 0 0 -1 64 34 0 0 0 0 -1 1 1 -1 -1 2 0 0 0 0 0 0 -1 1 0 0 0 0 1 -1 0 0 -1 1 0 0 0 0 -1 2 0 0 1 -1 -1 1 0 0 0 0 -1 1 1 -1 0 0 -1 1 0 0 0 0 0 1 0 -1 0 1 0 0 -4 5zm4 -5c-12,16 -34,20 -51,9 -16,-12 -20,-34 -8,-50l59 41zm-55 -46l0 0 51 51 0 0 -55 -46 4 -5zm51 51c-15,14 -37,14 -51,0 -14,-14 -14,-37 0,-51l51 51zm-26 -26l0 0 0 0 0 0 29 21 -29 -21zm26 26c-15,14 -37,14 -51,0 -14,-14 -14,-37 0,-51l51 51zm-50 23l0 -72 0 0 0 0 -1 0 0 0 0 0 0 0 0 0 -1 0 0 0 0 0 0 0 0 0 -1 0 0 0 0 0 0 1 0 0 0 0 0 0 -1 0 0 0 0 0 0 0 0 0 0 1 0 0 -1 0 0 0 0 0 0 0 0 0 0 0 0 1 58 41 -1 2 -1 1 -1 2 -1 1 -2 2 -1 1 -1 1 -2 2 -1 1 -2 1 -1 1 -2 1 -1 1 -2 2 -2 0 -1 1 -2 1 -2 1 -2 1 -2 1 -1 0 -2 1 -2 0 -2 1 -2 0 -2 1 -2 0 -2 0 -2 1 -2 0 -2 0 -2 0 0 0zm-50 -23l51 -51 4 4 0 0 0 0 -1 0 0 0 0 0 0 0 0 0 0 0 0 -1 0 0 0 0 -1 0 0 0 0 0 0 0 0 0 -1 0 0 -1 0 0 0 0 0 0 0 0 -1 0 0 0 0 0 0 0 0 0 -1 0 0 0 0 0 0 0 0 0 0 72 -2 0 -2 0 -2 0 -2 -1 -2 0 -2 0 -2 -1 -2 0 -2 -1 -2 0 -2 -1 -2 0 -2 -1 -1 -1 -2 -1 -2 -1 -2 -1 -1 -1 -2 0 -2 -2 -1 -1 -2 -1 -1 -1 -2 -1 -1 -2 -1 -1 -2 -1 -1 -2 -1 -1 -2 -2 -1 -1 -1 -2 4 5zm-4 -5c-11,-16 -8,-38 9,-50 16,-11 38,-8 50,8l-59 42zm29 -21l0 0 0 0 0 0 -25 26 25 -26zm-29 21c-11,-16 -8,-38 9,-50 16,-11 38,-8 50,8l-59 42zm55 -46l0 0 -51 51 0 0 -4 -5 55 -46zm-51 51c-14,-14 -14,-37 0,-51 14,-14 37,-14 51,0l-51 51zm-7 -10l61 -38 1 2 0 0 0 0 0 0 0 0 0 0 0 0 0 1 0 0 0 -1 0 0 0 0 0 -1 0 2 0 -1 0 0 0 0 0 0 0 0 0 0 0 0 0 -1 -1 0 1 2 1 0 -2 -2 1 0 0 1 0 0 0 -1 0 1 0 0 0 0 -59 41 0 0 0 0 0 0 -1 -1 0 0 0 0 0 0 -1 -1 0 -1 1 2 0 -1 -1 -1 0 0 0 0 0 0 0 0 0 0 -1 -1 0 -1 0 1 0 0 0 -1 0 0 -1 -1 0 0 0 1 0 -1 0 0 0 0 0 0 0 -1 0 0 1 2zm-1 -2c-10,-18 -3,-39 14,-49 18,-9 40,-2 49,15l-63 34zm-494 -937l556 901 -61 38 -556 -902 61 -38 0 1zm-61 37c-10,-17 -5,-39 12,-49 17,-11 39,-5 49,12l-61 37zm-3 -4l61 -38 1 0 -1 0 1 1 0 0 0 -1 0 1 0 0 0 0 0 0 0 0 0 0 1 1 0 0 0 0 0 0 0 0 0 0 0 0 0 0 0 1 0 0 0 0 0 0 0 0 1 0 0 0 0 1 0 0 0 0 0 0 0 0 0 0 0 0 -61 38 0 0 0 0 0 0 0 0 0 0 -1 0 0 -1 0 0 0 1 0 -1 0 0 0 0 0 0 0 -1 0 0 0 0 -1 0 0 0 0 0 0 -1 0 0 0 0 0 0 0 0 0 0 0 0 -1 -1 0 0 0 -1 0 0 0 1 0 -1 0 1zm0 -1c-10,-17 -5,-39 12,-49 17,-10 39,-5 50,12l-62 37zm61 -38l0 1 -61 38 -1 -2 31 -55 31 18zm-62 37c-10,-16 -5,-39 12,-49 17,-11 39,-5 50,12l-62 37zm31 18l0 0 0 -73 0 0 31 18 -31 55zm0 -73c20,0 36,17 36,36 0,20 -16,37 -36,37l0 -73zm-134 -315l73 0 0 0 0 11 0 11 0 12 1 11 1 11 1 11 1 11 2 11 1 11 2 11 2 11 2 11 3 11 2 10 3 11 3 10 3 11 3 10 3 11 4 10 4 10 3 10 4 10 5 10 4 10 5 9 4 10 5 10 5 9 5 9 5 10 6 9 -62 37 -6 -10 -6 -10 -5 -11 -6 -10 -5 -11 -6 -11 -5 -11 -4 -10 -5 -11 -5 -12 -4 -11 -4 -11 -4 -11 -4 -12 -3 -11 -4 -12 -3 -12 -3 -11 -3 -12 -2 -12 -3 -12 -2 -12 -2 -12 -2 -13 -1 -12 -2 -12 -1 -13 -1 -12 -1 -13 0 -12 0 -13 -1 -12 0 0zm720 -720l0 72 0 0 -34 1 -32 3 -33 4 -32 6 -31 7 -31 8 -30 11 -29 11 -29 13 -28 14 -27 16 -26 17 -25 18 -25 19 -23 21 -23 21 -21 22 -21 24 -19 24 -18 26 -17 26 -15 27 -15 28 -13 29 -11 29 -10 30 -9 31 -7 31 -6 32 -4 32 -3 33 0 34 -73 0 1 -37 3 -37 5 -36 6 -35 8 -35 10 -34 11 -34 13 -32 14 -32 16 -31 18 -30 18 -30 20 -28 22 -27 22 -26 24 -25 25 -24 26 -22 27 -22 29 -20 29 -19 30 -17 31 -16 32 -14 32 -13 34 -11 34 -10 35 -8 35 -6 36 -5 37 -3 37 -1 0 0zm569 720l-72 0 0 0 -1 -26 -2 -25 -3 -25 -4 -25 -6 -24 -7 -23 -7 -23 -9 -23 -10 -22 -11 -21 -12 -21 -13 -20 -14 -20 -15 -18 -15 -19 -17 -17 -17 -16 -18 -16 -19 -15 -19 -13 -21 -13 -20 -12 -22 -11 -22 -10 -22 -9 -23 -8 -24 -7 -24 -5 -25 -5 -24 -3 -26 -2 -25 0 0 -72 29 0 29 3 28 3 28 5 28 7 27 7 26 9 26 10 25 12 25 12 24 14 23 15 22 16 22 17 20 17 20 19 19 20 18 21 17 21 16 22 14 24 14 23 13 25 11 25 10 26 9 26 8 27 6 28 5 28 4 28 2 29 1 30 0 0zm-569 569l0 -72 0 0 25 -1 26 -2 24 -3 25 -5 24 -5 24 -7 23 -8 22 -8 22 -10 22 -11 20 -12 21 -13 19 -14 19 -15 18 -16 17 -16 17 -17 15 -18 15 -19 14 -20 13 -20 12 -21 11 -21 10 -22 9 -23 7 -23 7 -23 6 -24 4 -25 3 -25 2 -25 1 -25 72 0 -1 29 -2 29 -4 28 -5 28 -6 28 -8 27 -9 26 -10 26 -11 25 -13 25 -14 24 -14 23 -16 22 -17 22 -18 20 -19 20 -20 19 -20 18 -22 17 -22 15 -23 15 -24 14 -25 12 -25 12 -26 10 -26 9 -27 8 -28 6 -28 5 -28 4 -29 2 -29 1 0 0zm-569 -569l72 0 0 0 0 25 2 25 4 25 4 25 5 24 7 23 8 23 9 23 10 22 11 21 12 21 13 20 14 20 14 19 16 18 16 17 18 16 18 16 18 15 20 14 20 13 21 12 21 11 22 10 23 8 23 8 24 7 24 5 24 5 25 3 25 2 26 1 0 72 -30 -1 -28 -2 -29 -4 -28 -5 -27 -6 -27 -8 -27 -9 -26 -10 -25 -12 -25 -12 -23 -14 -23 -15 -23 -15 -21 -17 -21 -18 -20 -19 -18 -20 -18 -20 -17 -22 -16 -22 -15 -23 -14 -24 -12 -25 -12 -25 -10 -26 -9 -26 -7 -27 -7 -28 -5 -28 -3 -28 -3 -29 0 -29 0 0zm569 -569l0 72 0 0 -26 0 -25 2 -25 3 -24 5 -24 5 -24 7 -23 8 -23 9 -22 10 -21 11 -21 12 -20 13 -20 13 -18 15 -18 16 -18 16 -16 17 -16 19 -14 18 -14 20 -13 20 -12 21 -11 21 -10 22 -9 23 -8 23 -7 23 -5 24 -4 25 -4 25 -2 25 0 26 -72 0 0 -30 3 -29 3 -28 5 -28 7 -28 7 -27 9 -26 10 -26 12 -25 12 -25 14 -23 15 -24 16 -22 17 -21 18 -21 18 -20 20 -19 21 -17 21 -17 23 -16 23 -15 23 -14 25 -12 25 -12 26 -10 27 -9 27 -7 27 -7 28 -5 29 -3 28 -3 30 0 0 0z"/>
   <path id="1" class="fil5" d="M3345 923c377,0 683,306 683,684 0,136 -40,263 -109,370l-548 889c-1,1 -1,2 -2,3l0 0 0 0c-5,8 -14,13 -24,13 -10,0 -19,-5 -25,-13l0 0 0 0c0,-1 -1,-2 -2,-3l-555 -902c-1,-1 -2,-3 -3,-4l-1 -2 0 0c-62,-102 -98,-223 -98,-351 0,-378 306,-684 684,-684zm0 151c294,0 533,238 533,533 0,294 -239,533 -533,533 -295,0 -533,-239 -533,-533 0,-295 238,-533 533,-533z"/>
  </g>
 </g>
</svg>
