<?xml version="1.0" encoding="UTF-8"?>
<!DOCTYPE svg PUBLIC "-//W3C//DTD SVG 1.1//EN" "http://www.w3.org/Graphics/SVG/1.1/DTD/svg11.dtd">
<!-- Creator: CorelDRAW X8 -->
<svg xmlns="http://www.w3.org/2000/svg" xml:space="preserve" width="50mm" height="50mm" version="1.1" style="shape-rendering:geometricPrecision; text-rendering:geometricPrecision; image-rendering:optimizeQuality; fill-rule:evenodd; clip-rule:evenodd"
viewBox="0 0 5000 5000"
 xmlns:xlink="http://www.w3.org/1999/xlink">
 <defs>
  <style type="text/css">
   <![CDATA[
    .str1 {stroke:#495C80;stroke-width:108.1;stroke-linecap:round;stroke-linejoin:round}
    .str0 {stroke:#495C80;stroke-width:174.01;stroke-linecap:round;stroke-linejoin:round}
    .fil1 {fill:none}
    .fil4 {fill:#ED3237}
    .fil0 {fill:#D2D3D5;fill-rule:nonzero}
    .fil3 {fill:#ED3237;fill-rule:nonzero}
    .fil2 {fill:#495C80;fill-rule:nonzero}
   ]]>
  </style>
 </defs>
 <g id="Capa_x0020_1">
  <metadata id="CorelCorpID_0Corel-Layer"/>
  <g id="_1514442434768">
   <g>
    <path class="fil0" d="M4698 1995c0,-55 43,-100 97,-100 54,0 97,45 97,100l-194 0zm0 2281l0 -2281 194 0 0 2281 0 0 -194 0zm-383 595l0 -200 0 0 20 -1 19 -1 19 -3 19 -3 18 -5 18 -5 18 -6 17 -7 17 -8 17 -9 16 -9 16 -11 15 -11 14 -12 14 -12 13 -13 13 -14 12 -14 12 -15 10 -16 10 -16 10 -16 8 -17 8 -18 7 -18 6 -18 5 -18 4 -19 4 -20 2 -19 1 -20 1 -21 194 0 -1 31 -2 30 -4 30 -5 29 -6 29 -8 28 -9 27 -10 27 -12 27 -13 25 -14 25 -15 24 -16 24 -17 22 -18 22 -19 20 -20 20 -21 19 -22 17 -23 17 -23 15 -24 15 -25 13 -26 12 -26 11 -27 9 -27 8 -28 7 -28 5 -29 4 -29 2 -30 1 0 0zm-4060 -200l4060 0 0 200 -4060 0 0 0 0 -200zm-147 48l194 0 0 0 0 -2 0 -3 -1 -2 0 -2 0 -3 -1 -2 -1 -3 -1 -2 -1 -2 -1 -2 -1 -2 -1 -2 -1 -2 -2 -2 -1 -1 -2 -2 -1 -2 -2 -1 -2 -2 -1 -1 -2 -1 -2 -1 -2 -1 -2 -1 -3 -1 -2 -1 -2 -1 -3 0 -2 -1 -2 0 -3 0 -2 0 0 200 -8 0 -7 -1 -7 -1 -8 -1 -7 -2 -7 -2 -7 -2 -6 -3 -7 -3 -6 -4 -6 -3 -6 -4 -6 -4 -6 -5 -5 -5 -5 -5 -5 -5 -4 -5 -5 -6 -4 -6 -4 -6 -3 -6 -3 -7 -3 -7 -3 -6 -2 -8 -2 -7 -2 -7 -1 -8 -1 -7 -1 -8 0 -8 0 0zm194 -4438l0 4438 -194 0 0 -4438 0 0 194 0zm-47 -152l0 200 0 0 2 0 3 0 2 0 2 -1 3 0 2 -1 2 -1 3 -1 2 -1 2 -1 2 -1 2 -1 1 -1 2 -2 2 -1 1 -2 2 -2 1 -1 2 -2 1 -2 1 -2 1 -2 1 -2 1 -2 1 -2 1 -3 1 -2 0 -3 0 -2 1 -2 0 -3 0 -2 -194 0 0 -8 1 -8 1 -7 1 -8 2 -7 2 -7 2 -7 3 -7 3 -7 3 -7 3 -6 4 -6 4 -6 5 -6 4 -5 5 -5 5 -5 5 -5 6 -5 6 -4 6 -4 6 -3 6 -4 7 -3 6 -3 7 -2 7 -2 7 -2 8 -1 7 -1 7 -1 8 0 0 0zm2702 200l-2702 0 0 -200 2702 0 0 200zm0 -200c53,0 97,45 97,100 0,55 -44,100 -97,100l0 -200z"/>
   </g>
   <g>
    <polygon class="fil1 str0" points="969,2351 1922,2115 2876,2351 3829,2115 3829,3984 2876,4219 1922,3946 969,4219 "/>
   </g>
   <g>
    <line class="fil1 str1" x1="2876" y1="2351" x2="2876" y2= "4219" />
   </g>
   <g>
    <path class="fil2" d="M1868 2115c0,-29 24,-53 54,-53 30,0 54,24 54,53l-108 0zm0 1835l0 -1835 108 0 0 1835 -108 0zm108 0c0,29 -24,53 -54,53 -30,0 -54,-24 -54,-53l108 0z"/>
   </g>
   <g>
    <path class="fil3" d="M4085 1559l-72 0 0 0 -1 -33 -3 -33 -4 -32 -5 -32 -8 -31 -8 -31 -11 -30 -11 -30 -13 -28 -14 -28 -16 -27 -17 -26 -18 -26 -19 -24 -20 -24 -22 -22 -22 -22 -24 -20 -24 -19 -26 -18 -26 -17 -27 -16 -28 -14 -29 -13 -29 -12 -30 -10 -31 -8 -31 -8 -32 -5 -32 -5 -33 -2 -34 -1 0 -72 37 1 37 3 36 4 35 7 35 8 34 9 34 12 32 13 32 14 31 16 30 17 30 19 28 20 27 21 26 23 25 24 24 25 22 26 22 27 20 28 19 29 17 30 16 31 14 32 13 33 11 33 10 35 8 34 6 36 5 36 3 36 1 37 0 0zm-115 389l-61 -37 1 -1 6 -10 5 -9 6 -10 6 -10 5 -10 5 -10 5 -10 5 -10 5 -11 4 -10 5 -11 4 -10 4 -11 4 -11 3 -11 4 -11 3 -11 3 -11 3 -11 2 -12 3 -11 2 -11 2 -12 2 -11 1 -12 2 -12 1 -12 1 -12 1 -11 0 -12 1 -13 0 -12 72 0 0 14 -1 13 0 13 -1 14 -1 13 -2 13 -1 13 -2 13 -2 13 -2 13 -3 12 -2 13 -3 13 -3 12 -4 13 -3 12 -4 12 -4 12 -4 12 -5 12 -4 12 -5 12 -5 12 -5 11 -6 11 -5 12 -6 11 -6 11 -6 11 -7 11 -6 11 -7 10 0 -1zm0 1c-11,17 -33,22 -50,11 -16,-11 -21,-33 -10,-50l60 39zm-609 851l548 -889 61 37 -548 890 -62 -36 1 -2zm61 38c-10,17 -32,22 -49,12 -17,-11 -22,-33 -12,-50l61 38zm-7 10l-51 -51 -4 4 0 1 0 0 1 -1 -1 0 0 0 1 0 -1 1 0 0 1 -1 -1 0 0 0 0 0 0 1 1 -1 0 0 -1 1 0 0 0 0 0 0 0 0 0 -1 0 0 0 0 0 1 0 0 1 -1 -1 1 0 1 0 -1 0 0 0 0 0 0 64 34 0 0 0 0 -1 1 1 -1 -1 1 -1 1 1 -1 0 1 -1 0 0 0 0 1 0 -1 0 0 0 1 0 0 0 0 -1 1 0 0 1 -1 -1 2 0 0 0 0 -1 1 1 -1 0 0 -1 1 0 0 0 0 0 0 0 0 0 0 -1 1 -4 5zm4 -5c-11,16 -34,20 -50,9 -16,-12 -20,-34 -9,-51l59 42zm-55 -46l0 0 51 51 0 0 -55 -47 4 -4zm51 51c-14,14 -37,14 -51,0 -14,-15 -14,-37 0,-51l51 51zm-25 -26l0 0 0 0 0 0 29 21 -29 -21zm25 26c-14,14 -37,14 -51,0 -14,-15 -14,-37 0,-51l51 51zm-50 23l0 -72 0 0 0 0 0 0 0 0 0 0 0 0 -1 0 0 0 0 0 0 0 0 0 -1 0 0 0 0 0 0 0 0 0 -1 0 0 1 0 0 0 0 0 0 0 0 0 0 -1 0 0 0 0 0 0 1 0 0 0 0 0 0 0 0 -1 0 0 0 59 42 -1 1 -1 2 -1 1 -2 2 -1 1 -1 2 -2 1 -1 1 -1 1 -2 2 -2 1 -1 1 -2 1 -1 1 -2 1 -2 1 -1 1 -2 1 -2 1 -2 0 -2 1 -2 1 -2 0 -1 1 -2 0 -2 1 -2 0 -2 0 -2 0 -2 1 -2 0 -3 0 0 0zm-49 -23l51 -51 4 4 -1 0 0 0 0 0 0 0 0 0 0 -1 0 0 0 0 -1 0 0 0 0 0 0 0 0 0 0 0 0 0 -1 -1 0 0 0 0 0 0 0 0 0 0 -1 0 0 0 0 0 0 0 0 0 -1 0 0 0 0 0 0 0 0 0 -1 0 0 72 -2 0 -2 0 -2 -1 -2 0 -2 0 -2 0 -2 -1 -1 0 -3 -1 -1 0 -2 -1 -2 -1 -2 0 -2 -1 -1 -1 -2 -1 -2 -1 -2 -1 -1 -1 -2 -1 -1 -1 -2 -1 -1 -1 -2 -2 -1 -1 -2 -1 -1 -2 -1 -1 -1 -1 -2 -2 -1 -1 -1 -2 4 5zm-4 -5c-12,-16 -8,-39 8,-50 16,-12 39,-8 51,8l-59 42zm29 -21l0 0 0 0 0 0 -25 26 25 -26zm-29 21c-12,-16 -8,-39 8,-50 16,-12 39,-8 51,8l-59 42zm55 -46l0 0 -51 51 0 0 -4 -5 55 -46zm-51 51c-14,-14 -14,-37 0,-51 14,-14 37,-14 51,0l-51 51zm-8 -10l62 -38 1 2 0 0 0 0 0 0 0 0 0 -1 0 1 0 0 0 0 0 0 0 0 0 0 -1 -1 1 1 0 0 0 -1 0 1 0 0 0 0 0 0 0 0 -1 -1 0 -1 1 2 0 0 -1 -1 0 0 1 1 0 0 -1 -1 1 0 0 0 0 0 -59 42 0 0 0 0 -1 0 0 -1 0 0 0 0 0 0 -1 -2 0 0 1 2 -1 -1 0 -1 0 0 0 0 0 0 -1 -1 0 0 0 0 0 -1 0 1 0 -1 -1 0 0 0 0 -1 0 0 0 0 0 0 0 -1 0 0 0 0 0 0 -1 0 1 2zm-1 -2c-9,-18 -2,-40 15,-49 18,-9 40,-3 49,15l-64 34zm-493 -938l556 902 -62 38 -555 -902 61 -38 0 0zm-61 38c-11,-17 -5,-39 11,-49 17,-11 40,-6 50,11l-61 38zm-3 -5l61 -37 0 0 0 0 1 1 0 0 -1 -1 1 1 0 -1 0 1 0 0 0 0 0 0 1 1 0 0 -1 -1 0 1 0 0 1 0 0 0 0 0 0 0 0 0 0 1 0 0 0 -1 0 1 0 0 0 0 1 0 0 1 0 0 0 0 0 0 0 0 -61 38 0 0 0 0 -1 0 0 0 0 -1 0 0 0 0 0 0 0 0 0 0 0 0 0 -1 0 0 -1 0 0 0 0 0 0 0 0 0 0 -1 -1 0 0 -1 1 1 0 0 0 0 -1 0 0 -1 0 0 0 0 0 -1 0 0 0 1 0 -1 0 0zm0 0c-11,-17 -5,-39 12,-49 17,-11 39,-5 49,12l-61 37zm60 -39l1 2 -61 37 -1 -1 31 -55 30 17zm-61 38c-10,-17 -5,-39 12,-49 17,-11 39,-6 49,11l-61 38zm31 17l0 0 0 -72 0 0 31 18 -31 54zm0 -72c20,0 36,16 36,36 0,20 -16,36 -36,36l0 -72zm-134 -316l72 0 0 0 0 12 1 11 0 11 1 12 1 11 1 11 1 11 1 11 2 11 2 11 2 11 2 11 2 10 3 11 3 11 2 10 3 11 4 10 3 10 4 11 3 10 4 10 4 10 4 10 5 9 4 10 5 10 5 9 5 10 5 9 5 9 6 10 -62 37 -6 -10 -6 -11 -6 -10 -5 -11 -6 -10 -5 -11 -5 -11 -5 -11 -4 -11 -5 -11 -4 -11 -4 -11 -4 -12 -4 -11 -4 -12 -3 -11 -3 -12 -3 -12 -3 -12 -3 -11 -2 -12 -2 -13 -2 -12 -2 -12 -2 -12 -1 -12 -1 -13 -1 -12 -1 -13 0 -12 -1 -13 0 -13 0 0zm719 -719l0 72 0 0 -33 1 -33 2 -32 5 -32 5 -31 8 -31 8 -30 10 -29 12 -29 13 -28 14 -27 16 -26 17 -26 18 -24 19 -24 20 -22 22 -22 22 -20 24 -19 24 -18 26 -17 26 -16 27 -14 28 -13 28 -11 30 -11 30 -8 31 -8 31 -5 32 -4 32 -3 33 -1 33 -72 0 1 -37 3 -36 4 -36 7 -36 8 -34 10 -35 11 -33 13 -33 14 -32 16 -31 17 -30 19 -29 20 -28 21 -27 23 -26 24 -25 25 -24 26 -23 27 -21 28 -20 29 -19 31 -17 31 -16 31 -14 33 -13 34 -12 34 -9 35 -8 35 -7 36 -4 36 -3 37 -1 0 0zm569 719l-72 0 0 0 0 -25 -2 -26 -3 -24 -5 -25 -5 -24 -7 -23 -8 -24 -9 -22 -10 -22 -11 -21 -12 -21 -12 -20 -14 -20 -15 -19 -16 -18 -16 -17 -17 -16 -18 -16 -19 -15 -20 -14 -20 -13 -21 -12 -21 -11 -22 -10 -23 -8 -23 -8 -23 -7 -24 -5 -25 -5 -25 -3 -25 -2 -26 -1 0 -72 30 1 29 2 28 4 28 5 28 6 27 8 26 9 26 10 25 11 25 13 24 14 23 15 22 15 21 17 21 18 20 19 19 20 18 20 16 22 16 22 15 23 14 24 12 25 12 25 10 26 9 26 8 27 6 28 5 28 4 28 2 29 0 29 0 0zm-569 569l0 -72 0 0 26 0 25 -2 25 -3 25 -5 24 -5 23 -7 23 -8 23 -9 22 -10 21 -11 21 -12 20 -13 20 -13 19 -15 18 -16 17 -16 16 -18 16 -18 15 -18 14 -20 12 -20 12 -21 11 -21 10 -22 9 -23 8 -23 7 -23 5 -24 5 -25 3 -25 2 -25 0 -26 72 0 0 30 -2 28 -4 29 -5 28 -6 28 -8 27 -9 26 -10 26 -12 25 -12 25 -14 23 -15 24 -16 22 -16 21 -18 21 -19 20 -20 19 -21 17 -21 17 -22 16 -23 15 -24 14 -25 12 -25 12 -26 10 -26 9 -27 7 -28 7 -28 5 -28 3 -29 3 -30 0 0 0zm-569 -569l73 0 0 0 0 26 2 25 3 25 5 25 5 24 7 23 8 23 9 23 10 22 11 21 11 21 13 20 14 20 15 18 16 18 16 18 17 16 18 16 19 15 20 13 20 13 21 12 21 11 22 10 23 9 23 8 23 7 24 5 25 5 25 3 25 2 25 0 0 72 -29 0 -29 -3 -28 -3 -28 -5 -28 -7 -27 -7 -26 -9 -26 -10 -25 -12 -25 -12 -24 -14 -23 -15 -22 -16 -21 -17 -21 -17 -20 -19 -19 -20 -18 -21 -16 -21 -16 -22 -15 -24 -14 -23 -12 -25 -12 -25 -10 -26 -9 -26 -8 -27 -6 -28 -5 -28 -4 -29 -2 -28 -1 -30 0 0zm569 -569l0 72 0 0 -25 1 -25 2 -25 3 -25 5 -24 5 -23 7 -23 8 -23 8 -22 10 -21 11 -21 12 -20 13 -20 14 -19 15 -18 16 -17 16 -16 17 -16 18 -15 19 -14 20 -13 20 -11 21 -11 21 -10 22 -9 22 -8 24 -7 23 -5 24 -5 25 -3 24 -2 26 0 25 -73 0 1 -29 2 -29 4 -28 5 -28 6 -28 8 -27 9 -26 10 -26 12 -25 12 -25 14 -24 15 -23 16 -22 16 -22 18 -20 19 -20 20 -19 21 -18 21 -17 22 -15 23 -15 24 -14 25 -13 25 -11 26 -10 26 -9 27 -8 28 -6 28 -5 28 -4 29 -2 29 -1 0 0z"/>
    <path id="1" class="fil4" d="M3365 876c378,0 684,306 684,683 0,137 -40,264 -109,371l-548 889c-1,1 -1,2 -2,3l0 0 0 0c-6,8 -14,13 -25,13 -10,0 -18,-5 -24,-13l0 0 0 0c-1,-1 -1,-2 -2,-3l-556 -902c-1,-1 -2,-3 -3,-4l0 -2 0 0c-62,-103 -98,-223 -98,-352 0,-377 306,-683 683,-683zm0 150c295,0 533,239 533,533 0,295 -238,533 -533,533 -294,0 -532,-238 -532,-533 0,-294 238,-533 532,-533z"/>
   </g>
  </g>
 </g>
</svg>
