<?xml version="1.0" encoding="UTF-8"?>
<!DOCTYPE svg PUBLIC "-//W3C//DTD SVG 1.1//EN" "http://www.w3.org/Graphics/SVG/1.1/DTD/svg11.dtd">
<!-- Creator: CorelDRAW X8 -->
<svg xmlns="http://www.w3.org/2000/svg" xml:space="preserve" width="50mm" height="50mm" version="1.1" style="shape-rendering:geometricPrecision; text-rendering:geometricPrecision; image-rendering:optimizeQuality; fill-rule:evenodd; clip-rule:evenodd"
viewBox="0 0 5000 5000"
 xmlns:xlink="http://www.w3.org/1999/xlink">
 <defs>
  <style type="text/css">
   <![CDATA[
    .str0 {stroke:#495C80;stroke-width:159.09}
    .fil2 {fill:none}
    .fil0 {fill:#D2D3D5;fill-rule:nonzero}
    .fil1 {fill:#495C80;fill-rule:nonzero}
   ]]>
  </style>
 </defs>
 <g id="Capa_x0020_1">
  <metadata id="CorelCorpID_0Corel-Layer"/>
  <g id="_1514442441872">
   <g>
    <path class="fil0" d="M4698 1995c0,-55 43,-100 97,-100 54,0 97,45 97,100l-194 0zm0 2281l0 -2281 194 0 0 2281 0 0 -194 0zm-383 595l0 -200 0 0 20 -1 19 -1 19 -3 19 -3 18 -5 18 -5 18 -6 17 -7 17 -8 17 -9 16 -9 16 -11 15 -11 14 -12 14 -12 13 -13 13 -14 12 -14 12 -15 10 -16 10 -16 10 -16 8 -17 8 -18 7 -18 6 -18 5 -18 4 -19 4 -20 2 -19 1 -20 1 -21 194 0 -1 31 -2 30 -4 30 -5 29 -6 29 -8 28 -9 27 -10 27 -12 27 -13 25 -14 25 -15 24 -16 24 -17 22 -18 22 -19 20 -20 20 -21 19 -22 17 -23 17 -23 15 -24 15 -25 13 -26 12 -26 11 -27 9 -27 8 -28 7 -28 5 -29 4 -29 2 -30 1 0 0zm-4060 -200l4060 0 0 200 -4060 0 0 0 0 -200zm-147 48l194 0 0 0 0 -2 0 -3 -1 -2 0 -2 0 -3 -1 -2 -1 -3 -1 -2 -1 -2 -1 -2 -1 -2 -1 -2 -1 -2 -2 -2 -1 -1 -2 -2 -1 -2 -2 -1 -2 -2 -1 -1 -2 -1 -2 -1 -2 -1 -2 -1 -3 -1 -2 -1 -2 -1 -3 0 -2 -1 -2 0 -3 0 -2 0 0 200 -8 0 -7 -1 -7 -1 -8 -1 -7 -2 -7 -2 -7 -2 -6 -3 -7 -3 -6 -4 -6 -3 -6 -4 -6 -4 -6 -5 -5 -5 -5 -5 -5 -5 -4 -5 -5 -6 -4 -6 -4 -6 -3 -6 -3 -7 -3 -7 -3 -6 -2 -8 -2 -7 -2 -7 -1 -8 -1 -7 -1 -8 0 -8 0 0zm194 -4438l0 4438 -194 0 0 -4438 0 0 194 0zm-47 -152l0 200 0 0 2 0 3 0 2 0 2 -1 3 0 2 -1 2 -1 3 -1 2 -1 2 -1 2 -1 2 -1 1 -1 2 -2 2 -1 1 -2 2 -2 1 -1 2 -2 1 -2 1 -2 1 -2 1 -2 1 -2 1 -2 1 -3 1 -2 0 -3 0 -2 1 -2 0 -3 0 -2 -194 0 0 -8 1 -8 1 -7 1 -8 2 -7 2 -7 2 -7 3 -7 3 -7 3 -7 3 -6 4 -6 4 -6 5 -6 4 -5 5 -5 5 -5 5 -5 6 -5 6 -4 6 -4 6 -3 6 -4 7 -3 6 -3 7 -2 7 -2 7 -2 8 -1 7 -1 7 -1 8 0 0 0zm2702 200l-2702 0 0 -200 2702 0 0 200zm0 -200c53,0 97,45 97,100 0,55 -44,100 -97,100l0 -200z"/>
   </g>
   <g>
    <path class="fil1" d="M1852 2208c-22,0 -39,-18 -39,-40 0,-22 17,-40 39,-40l0 80zm2126 0l-2126 0 0 -80 2126 0 0 80zm0 -80c22,0 40,18 40,40 0,22 -18,40 -40,40l0 -80z"/>
   </g>
   <g>
    <path class="fil1" d="M1852 2367c-22,0 -39,-18 -39,-40 0,-22 17,-40 39,-40l0 80zm2126 0l-2126 0 0 -80 2126 0 0 80zm0 -80c22,0 40,18 40,40 0,22 -18,40 -40,40l0 -80z"/>
   </g>
   <g>
    <path class="fil1" d="M1852 2685c-22,0 -39,-18 -39,-40 0,-22 17,-40 39,-40l0 80zm2126 0l-2126 0 0 -80 2126 0 0 80zm0 -80c22,0 40,18 40,40 0,22 -18,40 -40,40l0 -80z"/>
   </g>
   <g>
    <path class="fil1" d="M1852 2844c-22,0 -39,-18 -39,-40 0,-22 17,-40 39,-40l0 80zm2126 0l-2126 0 0 -80 2126 0 0 80zm0 -80c22,0 40,18 40,40 0,22 -18,40 -40,40l0 -80z"/>
   </g>
   <g>
    <path class="fil1" d="M1852 3242c-22,0 -39,-18 -39,-40 0,-22 17,-40 39,-40l0 80zm2126 0l-2126 0 0 -80 2126 0 0 80zm0 -80c22,0 40,18 40,40 0,22 -18,40 -40,40l0 -80z"/>
   </g>
   <g>
    <path class="fil1" d="M1852 3401c-22,0 -39,-18 -39,-40 0,-22 17,-40 39,-40l0 80zm2126 0l-2126 0 0 -80 2126 0 0 80zm0 -80c22,0 40,18 40,40 0,22 -18,40 -40,40l0 -80z"/>
   </g>
   <g>
    <path class="fil1" d="M2677 1316l-1833 0 0 -159 1833 0 0 0 0 159zm206 46l-161 0 0 0 0 -2 0 -3 -1 -2 0 -2 -1 -3 0 -2 -1 -2 -1 -2 -1 -2 -1 -2 -1 -2 -1 -2 -1 -2 -2 -1 -1 -2 -2 -2 -1 -1 -2 -2 -2 -1 -2 -1 -1 -2 -2 -1 -2 -1 -2 -1 -2 0 -2 -1 -2 -1 -2 0 -3 -1 -2 0 -2 0 -2 0 0 -159 10 0 11 1 10 1 10 2 10 2 10 3 10 3 9 4 9 4 9 5 9 5 8 5 8 6 8 6 7 7 8 6 6 7 7 8 6 8 6 8 5 8 5 8 4 9 5 9 3 10 3 9 3 10 3 10 1 10 2 10 0 11 1 10 0 0zm-161 229l0 -229 161 0 0 229 -81 80 -80 -80zm161 0l0 80 -81 0 81 -80zm-2165 -80l2084 0 0 160 -2084 0 -80 -80 80 -80zm0 160l-80 0 0 -80 80 80zm81 -309l0 229 -161 0 0 -229 0 0 161 0zm45 -205l0 159 0 0 -2 0 -3 0 -2 0 -2 1 -2 0 -2 1 -2 1 -2 0 -2 1 -2 1 -2 1 -2 2 -2 1 -1 1 -2 2 -2 1 -1 2 -2 2 -1 1 -1 2 -2 2 -1 2 -1 2 -1 2 0 2 -1 2 -1 2 0 3 -1 2 0 2 0 3 0 2 -161 0 0 -10 1 -11 1 -10 2 -10 2 -10 3 -10 3 -9 4 -10 4 -9 5 -9 5 -8 5 -8 6 -8 6 -8 6 -8 7 -7 7 -6 8 -7 7 -6 9 -6 8 -5 8 -5 9 -5 10 -4 9 -4 9 -3 10 -3 10 -2 11 -2 10 -1 10 -1 11 0 0 0z"/>
   </g>
   <g>
    <path class="fil2 str0" d="M844 1236l1833 0c69,0 125,57 125,126l0 229 1228 0c139,0 252,113 252,251l0 1670c0,139 -113,252 -252,252l-3060 0c-139,0 -252,-113 -252,-252l0 -1921 0 -229c0,-69 57,-126 126,-126z"/>
   </g>
   <g>
    <path class="fil1" d="M1513 2207l-342 0 0 -78 342 0 0 0 0 78zm120 40l-80 0 0 0 0 -2 0 -2 -1 -2 0 -2 0 -2 -1 -2 -1 -2 0 -2 -1 -2 -1 -1 -1 -2 -1 -2 -1 -1 -1 -2 -2 -1 -1 -2 -1 -1 -2 -1 -2 -2 -1 -1 -2 -1 -1 -1 -2 -1 -2 0 -2 -1 -1 -1 -2 0 -2 -1 -2 0 -2 0 -2 0 -2 0 0 -78 6 0 6 1 6 0 6 1 6 2 6 1 5 2 6 2 5 3 5 3 5 2 5 4 5 3 4 3 5 4 4 4 4 4 3 4 4 5 3 5 3 4 3 5 3 5 2 6 2 5 2 5 2 6 1 6 1 5 1 6 0 6 1 6 0 0zm-80 478l0 -478 80 0 0 478 0 0 -80 0zm-40 118l0 -78 0 0 2 0 2 0 2 0 2 0 2 -1 2 0 1 -1 2 -1 2 0 2 -1 1 -1 2 -1 1 -1 2 -2 1 -1 2 -1 1 -2 2 -1 1 -2 1 -1 1 -2 1 -2 1 -2 1 -1 0 -2 1 -2 1 -2 0 -2 0 -2 1 -2 0 -2 0 -2 80 0 -1 6 0 6 -1 5 -1 6 -1 6 -2 5 -2 6 -2 5 -2 6 -3 5 -3 5 -3 4 -3 5 -4 5 -3 4 -4 4 -4 4 -5 4 -4 3 -5 3 -5 4 -5 2 -5 3 -5 2 -5 3 -6 2 -6 1 -6 1 -6 2 -6 0 -6 1 -6 0 0 0zm-342 -78l342 0 0 78 -342 0 0 0 0 -78zm-120 -40l80 0 0 0 0 2 0 2 0 2 1 2 0 2 1 2 0 2 1 2 1 1 1 2 1 2 1 2 1 1 1 2 2 1 1 2 1 1 2 1 1 2 2 1 2 1 1 1 2 1 2 0 1 1 2 1 2 0 2 1 2 0 2 0 2 0 2 0 0 78 -7 0 -6 -1 -6 0 -6 -2 -5 -1 -6 -1 -6 -2 -5 -3 -5 -2 -6 -3 -5 -2 -4 -4 -5 -3 -5 -3 -4 -4 -4 -4 -4 -4 -4 -4 -3 -5 -3 -5 -4 -4 -2 -5 -3 -5 -2 -6 -2 -5 -2 -6 -2 -5 -1 -6 -1 -6 -1 -5 -1 -6 0 -6 0 0zm80 -478l0 478 -80 0 0 -478 0 0 80 0zm40 -118l0 78 0 0 -2 0 -2 0 -2 0 -2 0 -2 1 -2 0 -2 1 -1 1 -2 0 -2 1 -1 1 -2 1 -2 1 -1 2 -2 1 -1 1 -1 2 -2 1 -1 2 -1 1 -1 2 -1 2 -1 1 -1 2 -1 2 0 2 -1 2 0 2 -1 2 0 2 0 2 0 2 -80 0 0 -6 1 -6 1 -6 1 -5 1 -6 2 -6 2 -5 2 -5 2 -6 3 -5 2 -5 4 -4 3 -5 3 -5 4 -4 4 -4 4 -4 4 -4 5 -3 5 -3 4 -4 5 -2 6 -3 5 -3 5 -2 6 -2 6 -1 5 -2 6 -1 6 0 6 -1 7 0 0 0z"/>
   </g>
  </g>
 </g>
</svg>
