<?xml version="1.0" encoding="UTF-8"?>
<!DOCTYPE svg PUBLIC "-//W3C//DTD SVG 1.1//EN" "http://www.w3.org/Graphics/SVG/1.1/DTD/svg11.dtd">
<!-- Creator: CorelDRAW X8 -->
<svg xmlns="http://www.w3.org/2000/svg" xml:space="preserve" width="50.5mm" height="50mm" version="1.1" style="shape-rendering:geometricPrecision; text-rendering:geometricPrecision; image-rendering:optimizeQuality; fill-rule:evenodd; clip-rule:evenodd"
viewBox="0 0 5050 5000"
 xmlns:xlink="http://www.w3.org/1999/xlink">
 <defs>
  <style type="text/css">
   <![CDATA[
    .str0 {stroke:#495C80;stroke-width:7.62}
    .str1 {stroke:#FEFEFE;stroke-width:159.09}
    .fil3 {fill:none}
    .fil0 {fill:#495C80}
    .fil2 {fill:#FEFEFE;fill-rule:nonzero}
    .fil1 {fill:#495C80;fill-rule:nonzero}
   ]]>
  </style>
 </defs>
 <g id="Capa_x0020_1">
  <metadata id="CorelCorpID_0Corel-Layer"/>
  <g id="_1514442456688">
   <path class="fil0 str0" d="M267 182l4185 0c227,0 414,186 414,414l0 3735c0,227 -187,414 -414,414l-4266 0 0 -4482c0,-45 36,-81 81,-81z"/>
   <g>
    <path class="fil1" d="M4677 2043c0,-56 44,-100 97,-100 54,0 97,44 97,100l-194 0zm0 2281l0 -2281 194 0 0 2281 0 0 -194 0zm-383 594l0 -200 0 0 20 0 19 -2 19 -2 19 -4 19 -4 18 -6 17 -6 18 -7 17 -8 16 -9 16 -9 16 -10 15 -12 14 -11 14 -13 14 -13 12 -14 12 -14 12 -15 11 -15 10 -17 9 -16 8 -17 8 -17 7 -18 6 -19 5 -18 4 -19 4 -20 2 -19 2 -20 0 -20 194 0 0 30 -3 30 -3 30 -5 29 -7 29 -8 28 -9 28 -10 27 -12 26 -13 26 -14 25 -15 24 -16 23 -17 22 -18 22 -19 21 -20 19 -21 19 -22 18 -22 16 -24 16 -24 14 -25 13 -25 12 -27 11 -26 9 -28 8 -28 7 -28 5 -29 4 -29 2 -30 1 0 0zm-4060 -200l4060 0 0 200 -4060 0 0 0 0 -200zm-147 49l194 0 0 0 0 -3 0 -2 0 -3 -1 -2 0 -3 -1 -2 -1 -2 0 -2 -1 -3 -1 -2 -2 -2 -1 -2 -1 -2 -1 -1 -2 -2 -1 -2 -2 -1 -2 -2 -1 -1 -2 -1 -2 -2 -2 -1 -2 -1 -2 -1 -2 -1 -3 -1 -2 0 -2 -1 -3 0 -2 -1 -2 0 -3 0 0 200 -7 0 -8 -1 -7 -1 -7 -1 -8 -2 -7 -2 -6 -2 -7 -3 -7 -3 -6 -3 -6 -4 -6 -4 -6 -4 -5 -5 -6 -4 -5 -5 -4 -5 -5 -6 -5 -6 -4 -6 -3 -6 -4 -6 -3 -7 -3 -6 -3 -7 -2 -7 -2 -7 -2 -8 -1 -7 -1 -8 -1 -8 0 -7 0 0zm194 -4439l0 4439 -194 0 0 -4439 0 0 194 0zm-47 -152l0 200 0 0 3 0 2 0 2 0 3 -1 2 0 2 -1 3 -1 2 0 2 -1 2 -1 2 -2 2 -1 2 -1 1 -2 2 -1 2 -2 1 -1 2 -2 1 -2 1 -2 1 -2 2 -2 1 -2 1 -2 0 -2 1 -2 1 -3 0 -2 1 -3 0 -2 0 -3 0 -2 -194 0 0 -8 1 -7 1 -8 1 -8 2 -7 2 -7 2 -7 3 -7 3 -7 3 -6 4 -7 3 -6 4 -6 5 -5 5 -6 4 -5 5 -5 6 -5 5 -4 6 -4 6 -4 6 -4 6 -3 7 -4 7 -2 6 -3 7 -2 8 -1 7 -2 7 -1 8 0 7 -1 0 0zm2702 200l-2702 0 0 -200 2702 0 0 200zm0 -200c54,0 97,45 97,100 0,56 -43,100 -97,100l0 -200z"/>
   </g>
   <g>
    <path class="fil1" d="M4677 2043c0,-56 44,-100 97,-100 54,0 97,44 97,100l-194 0zm0 2281l0 -2281 194 0 0 2281 0 0 -194 0zm-383 594l0 -200 0 0 20 0 19 -2 19 -2 19 -4 19 -4 18 -6 17 -6 18 -7 17 -8 16 -9 16 -9 16 -10 15 -12 14 -11 14 -13 14 -13 12 -14 12 -14 12 -15 11 -15 10 -17 9 -16 8 -17 8 -17 7 -18 6 -19 5 -18 4 -19 4 -20 2 -19 2 -20 0 -20 194 0 0 30 -3 30 -3 30 -5 29 -7 29 -8 28 -9 28 -10 27 -12 26 -13 26 -14 25 -15 24 -16 23 -17 22 -18 22 -19 21 -20 19 -21 19 -22 18 -22 16 -24 16 -24 14 -25 13 -25 12 -27 11 -26 9 -28 8 -28 7 -28 5 -29 4 -29 2 -30 1 0 0zm-4060 -200l4060 0 0 200 -4060 0 0 0 0 -200zm-147 49l194 0 0 0 0 -3 0 -2 0 -3 -1 -2 0 -3 -1 -2 -1 -2 0 -2 -1 -3 -1 -2 -2 -2 -1 -2 -1 -2 -1 -1 -2 -2 -1 -2 -2 -1 -2 -2 -1 -1 -2 -1 -2 -2 -2 -1 -2 -1 -2 -1 -2 -1 -3 -1 -2 0 -2 -1 -3 0 -2 -1 -2 0 -3 0 0 200 -7 0 -8 -1 -7 -1 -7 -1 -8 -2 -7 -2 -6 -2 -7 -3 -7 -3 -6 -3 -6 -4 -6 -4 -6 -4 -5 -5 -6 -4 -5 -5 -4 -5 -5 -6 -5 -6 -4 -6 -3 -6 -4 -6 -3 -7 -3 -6 -3 -7 -2 -7 -2 -7 -2 -8 -1 -7 -1 -8 -1 -8 0 -7 0 0zm194 -4439l0 4439 -194 0 0 -4439 0 0 194 0zm-47 -152l0 200 0 0 3 0 2 0 2 0 3 -1 2 0 2 -1 3 -1 2 0 2 -1 2 -1 2 -2 2 -1 2 -1 1 -2 2 -1 2 -2 1 -1 2 -2 1 -2 1 -2 1 -2 2 -2 1 -2 1 -2 0 -2 1 -2 1 -3 0 -2 1 -3 0 -2 0 -3 0 -2 -194 0 0 -8 1 -7 1 -8 1 -8 2 -7 2 -7 2 -7 3 -7 3 -7 3 -6 4 -7 3 -6 4 -6 5 -5 5 -6 4 -5 5 -5 6 -5 5 -4 6 -4 6 -4 6 -4 6 -3 7 -4 7 -2 6 -3 7 -2 8 -1 7 -2 7 -1 8 0 7 -1 0 0zm2702 200l-2702 0 0 -200 2702 0 0 200zm0 -200c54,0 97,45 97,100 0,56 -43,100 -97,100l0 -200z"/>
   </g>
   <g>
    <path class="fil2" d="M1832 2255c-22,0 -40,-18 -40,-40 0,-22 18,-40 40,-40l0 80zm2125 0l-2125 0 0 -80 2125 0 0 80zm0 -80c22,0 40,18 40,40 0,22 -18,40 -40,40l0 -80z"/>
   </g>
   <g>
    <path class="fil2" d="M1832 2414c-22,0 -40,-18 -40,-40 0,-22 18,-40 40,-40l0 80zm2125 0l-2125 0 0 -80 2125 0 0 80zm0 -80c22,0 40,18 40,40 0,22 -18,40 -40,40l0 -80z"/>
   </g>
   <g>
    <path class="fil2" d="M1832 2732c-22,0 -40,-18 -40,-40 0,-22 18,-39 40,-39l0 79zm2125 0l-2125 0 0 -79 2125 0 0 79zm0 -79c22,0 40,17 40,39 0,22 -18,40 -40,40l0 -79z"/>
   </g>
   <g>
    <path class="fil2" d="M1832 2891c-22,0 -40,-18 -40,-40 0,-22 18,-39 40,-39l0 79zm2125 0l-2125 0 0 -79 2125 0 0 79zm0 -79c22,0 40,17 40,39 0,22 -18,40 -40,40l0 -79z"/>
   </g>
   <g>
    <path class="fil2" d="M1832 3289c-22,0 -40,-18 -40,-40 0,-22 18,-40 40,-40l0 80zm2125 0l-2125 0 0 -80 2125 0 0 80zm0 -80c22,0 40,18 40,40 0,22 -18,40 -40,40l0 -80z"/>
   </g>
   <g>
    <path class="fil2" d="M1832 3448c-22,0 -40,-18 -40,-40 0,-22 18,-40 40,-40l0 80zm2125 0l-2125 0 0 -80 2125 0 0 80zm0 -80c22,0 40,18 40,40 0,22 -18,40 -40,40l0 -80z"/>
   </g>
   <g>
    <path class="fil2" d="M2656 1363l-1833 0 0 -159 1833 0 0 0 0 159zm206 46l-161 0 0 0 0 -2 0 -3 0 -2 -1 -2 0 -2 -1 -2 -1 -3 0 -2 -1 -2 -1 -2 -2 -2 -1 -2 -1 -1 -1 -2 -2 -2 -1 -2 -2 -1 -2 -2 -2 -1 -1 -1 -2 -1 -2 -2 -2 -1 -2 0 -2 -1 -2 -1 -2 0 -2 -1 -2 0 -3 -1 -2 0 -2 0 0 -159 10 0 11 1 10 1 10 2 11 3 9 2 10 4 9 3 10 5 8 4 9 5 8 5 8 6 8 6 8 7 7 7 7 7 6 7 6 8 6 8 5 8 5 9 5 9 4 9 3 9 4 9 2 10 3 10 2 10 1 10 1 11 0 10 0 0zm-161 229l0 -229 161 0 0 229 -80 80 -81 -80zm161 0l0 80 -80 0 80 -80zm-2164 -79l2084 0 0 159 -2084 0 -81 -80 81 -79zm0 159l-81 0 0 -80 81 80zm80 -309l0 229 -161 0 0 -229 0 0 161 0zm45 -205l0 159 0 0 -2 0 -2 0 -2 1 -3 0 -2 1 -2 0 -2 1 -2 1 -2 0 -2 1 -2 2 -2 1 -1 1 -2 1 -2 2 -1 1 -2 2 -1 2 -2 2 -1 1 -1 2 -1 2 -1 2 -1 2 -1 2 -1 3 -1 2 0 2 0 2 -1 2 0 3 0 2 -161 0 0 -10 1 -11 2 -10 1 -10 3 -10 2 -10 4 -9 3 -9 5 -9 4 -9 5 -9 5 -8 6 -8 6 -8 7 -7 6 -7 7 -7 8 -7 8 -6 8 -6 8 -5 9 -5 9 -4 9 -5 9 -3 10 -4 10 -2 10 -3 10 -2 10 -1 11 -1 10 0 0 0z"/>
   </g>
   <g>
    <path class="fil3 str1" d="M823 1284l1833 0c69,0 126,56 126,125l0 229 1228 0c138,0 251,113 251,252l0 1670c0,138 -113,251 -251,251l-3061 0c-138,0 -251,-113 -251,-251l0 -1922 0 -229c0,-69 56,-125 125,-125z"/>
   </g>
   <g>
    <path class="fil2" d="M1492 2254l-342 0 0 -78 342 0 0 0 0 78zm120 41l-80 0 0 0 0 -3 0 -2 0 -2 -1 -2 0 -2 -1 -2 0 -2 -1 -2 -1 -1 -1 -2 -1 -2 -1 -1 -1 -2 -1 -2 -2 -1 -1 -2 -1 -1 -2 -1 -1 -1 -2 -2 -1 -1 -2 0 -2 -1 -1 -1 -2 -1 -2 0 -2 -1 -2 0 -2 -1 -2 0 -2 0 -2 0 0 -78 7 0 6 1 6 1 6 1 5 1 6 2 6 2 5 2 6 2 5 3 5 3 5 3 4 3 5 4 4 3 4 4 4 4 4 5 3 4 4 5 3 5 2 4 3 6 2 5 3 5 1 6 2 5 1 6 1 6 1 6 1 6 0 6 0 0zm-80 477l0 -477 80 0 0 477 0 0 -80 0zm-40 118l0 -77 0 0 2 0 2 -1 2 0 2 0 2 -1 2 0 2 -1 1 0 2 -1 2 -1 2 -1 1 -1 2 -1 1 -1 2 -2 1 -1 1 -1 2 -2 1 -2 1 -1 1 -2 1 -2 1 -1 1 -2 1 -2 0 -2 1 -2 0 -2 1 -2 0 -2 0 -2 0 -2 80 0 0 6 -1 6 -1 6 -1 5 -1 6 -2 6 -1 5 -3 6 -2 5 -3 5 -2 5 -3 5 -4 4 -3 5 -4 4 -4 4 -4 4 -4 4 -5 3 -4 4 -5 3 -5 3 -5 2 -6 3 -5 2 -6 2 -6 1 -5 2 -6 1 -6 1 -6 0 -7 0 0 0zm-342 -77l342 0 0 77 -342 0 0 0 0 -77zm-119 -41l79 0 0 0 0 2 0 2 1 2 0 2 0 2 1 2 1 2 0 2 1 2 1 1 1 2 1 2 1 1 2 2 1 2 1 1 2 1 1 2 2 1 1 1 2 1 1 1 2 1 2 1 2 0 1 1 2 0 2 1 2 0 2 0 2 1 2 0 0 77 -6 0 -6 0 -6 -1 -6 -1 -6 -2 -6 -1 -5 -2 -6 -2 -5 -3 -5 -2 -5 -3 -5 -3 -5 -4 -4 -3 -5 -4 -4 -4 -4 -4 -3 -4 -4 -5 -3 -4 -3 -5 -3 -5 -3 -5 -2 -5 -2 -6 -2 -5 -2 -6 -1 -6 -1 -5 -1 -6 0 -6 0 -6 0 0zm79 -477l0 477 -79 0 0 -477 0 0 79 0zm40 -119l0 78 0 0 -2 0 -2 0 -2 0 -2 1 -2 0 -2 1 -1 0 -2 1 -2 1 -2 1 -1 0 -2 1 -1 2 -2 1 -1 1 -2 1 -1 2 -1 1 -2 2 -1 2 -1 1 -1 2 -1 2 -1 1 0 2 -1 2 -1 2 0 2 0 2 -1 2 0 2 0 3 -79 0 0 -6 0 -6 1 -6 1 -6 1 -6 2 -5 2 -6 2 -5 2 -5 3 -6 3 -4 3 -5 3 -5 4 -4 3 -5 4 -4 4 -4 5 -3 4 -4 5 -3 5 -3 5 -3 5 -3 5 -2 6 -2 5 -2 6 -2 6 -1 6 -1 6 -1 6 -1 6 0 0 0z"/>
   </g>
  </g>
 </g>
</svg>
