<?xml version="1.0" encoding="UTF-8"?>
<!DOCTYPE svg PUBLIC "-//W3C//DTD SVG 1.1//EN" "http://www.w3.org/Graphics/SVG/1.1/DTD/svg11.dtd">
<!-- Creator: CorelDRAW X8 -->
<svg xmlns="http://www.w3.org/2000/svg" xml:space="preserve" width="50.5mm" height="50mm" version="1.1" style="shape-rendering:geometricPrecision; text-rendering:geometricPrecision; image-rendering:optimizeQuality; fill-rule:evenodd; clip-rule:evenodd"
viewBox="0 0 5050 5000"
 xmlns:xlink="http://www.w3.org/1999/xlink">
 <defs>
  <style type="text/css">
   <![CDATA[
    .str0 {stroke:#495C80;stroke-width:7.62}
    .str1 {stroke:#FEFEFE;stroke-width:176.74;stroke-linecap:round;stroke-linejoin:round}
    .str2 {stroke:#FEFEFE;stroke-width:176.74;stroke-linecap:round;stroke-linejoin:round}
    .fil1 {fill:none}
    .fil0 {fill:#495C80}
    .fil2 {fill:#FEFEFE;fill-rule:nonzero}
    .fil3 {fill:#BDBFC1;fill-rule:nonzero}
   ]]>
  </style>
 </defs>
 <g id="Capa_x0020_1">
  <metadata id="CorelCorpID_0Corel-Layer"/>
  <g id="_1514435050416">
   <path class="fil0 str0" d="M249 926l3463 0c193,0 352,159 352,352l0 3172c0,194 -159,352 -352,352l-3532 0 0 -3807c0,-38 31,-69 69,-69z"/>
   <path class="fil0 str0" d="M935 175l3575 0c198,0 360,162 360,360l0 3206c0,220 -180,400 -400,400l-3605 0 0 -3896c0,-38 31,-70 70,-70z"/>
   <g>
    <path class="fil1 str1" d="M1945 836l1237 0 0 629c0,35 28,63 63,63l602 0 0 1895c0,76 -62,137 -137,137l-1765 0c-75,0 -136,-61 -136,-137l0 -2450c0,-75 61,-137 136,-137z"/>
   </g>
   <g>
    <path class="fil1 str2" d="M3847 1528l-602 0c-35,0 -63,-28 -63,-63l0 -629 665 692z"/>
   </g>
   <g>
    <path class="fil2" d="M2327 2219c-41,0 -75,-33 -75,-75 0,-42 34,-75 75,-75l0 150zm1001 0l-1001 0 0 -150 1001 0 0 150zm0 -150c41,0 75,33 75,75 0,42 -34,75 -75,75l0 -150z"/>
   </g>
   <g>
    <path class="fil2" d="M2327 2564c-41,0 -75,-33 -75,-75 0,-42 34,-75 75,-75l0 150zm1001 0l-1001 0 0 -150 1001 0 0 150zm0 -150c41,0 75,33 75,75 0,42 -34,75 -75,75l0 -150z"/>
   </g>
   <g>
    <path class="fil2" d="M2327 2909c-41,0 -75,-33 -75,-75 0,-41 34,-75 75,-75l0 150zm1001 0l-1001 0 0 -150 1001 0 0 150zm0 -150c41,0 75,34 75,75 0,42 -34,75 -75,75l0 -150z"/>
   </g>
   <g>
    <path class="fil3" d="M4708 1767c0,-48 37,-86 83,-86 46,0 83,38 83,86l-166 0zm0 1951l0 -1951 166 0 0 1951 0 0 -166 0zm-328 508l0 -171 0 0 17 0 17 -2 16 -2 16 -3 16 -4 15 -4 15 -5 15 -6 15 -7 14 -8 13 -8 14 -9 13 -9 12 -10 12 -11 11 -11 11 -12 11 -12 9 -13 10 -13 8 -14 8 -14 7 -15 7 -15 6 -15 5 -15 4 -16 4 -17 3 -16 2 -17 1 -17 1 -17 166 0 -1 26 -2 25 -3 26 -4 25 -6 24 -7 25 -7 23 -9 23 -10 23 -11 22 -12 21 -13 21 -14 20 -14 19 -16 18 -16 18 -17 17 -18 16 -19 15 -19 14 -20 13 -21 13 -21 11 -22 10 -22 9 -23 8 -24 7 -24 6 -24 4 -25 4 -25 2 -25 0 0 0zm-3473 -171l3473 0 0 171 -3473 0 0 0 0 -171zm-126 42l167 0 0 0 0 -2 -1 -2 0 -3 0 -2 -1 -2 0 -2 -1 -2 -1 -2 -1 -2 0 -1 -1 -2 -1 -2 -2 -1 -1 -2 -1 -1 -1 -2 -2 -1 -1 -1 -1 -2 -2 -1 -2 -1 -1 -1 -2 -1 -2 -1 -2 0 -1 -1 -3 -1 -2 0 -2 0 -2 -1 -2 0 -2 0 0 171 -6 0 -6 0 -7 -1 -6 -1 -6 -2 -6 -2 -6 -2 -6 -2 -5 -3 -6 -3 -5 -3 -5 -3 -5 -4 -5 -4 -4 -4 -5 -4 -4 -4 -4 -5 -3 -5 -4 -5 -3 -5 -3 -6 -3 -5 -3 -6 -2 -6 -2 -6 -2 -6 -1 -6 -1 -7 -1 -6 0 -7 -1 -6 0 0zm167 -3797l0 3797 -167 0 0 -3797 0 0 167 0zm-41 -130l0 171 0 0 2 0 2 0 2 0 2 0 2 -1 3 -1 1 0 2 -1 2 -1 2 -1 1 -1 2 -1 2 -1 1 -1 1 -1 2 -2 1 -1 1 -2 1 -1 2 -2 1 -1 1 -2 0 -2 1 -2 1 -2 1 -2 0 -2 1 -2 0 -2 0 -2 1 -2 0 -2 -167 0 1 -7 0 -6 1 -7 1 -6 1 -7 2 -6 2 -6 2 -6 3 -5 3 -6 3 -5 3 -6 4 -5 3 -5 4 -4 4 -5 5 -4 4 -4 5 -4 5 -3 5 -4 5 -3 6 -3 5 -2 6 -3 6 -2 6 -2 6 -1 6 -1 7 -1 6 -1 6 0 0 0zm2311 171l-2311 0 0 -171 2311 0 0 171zm0 -171c46,0 83,39 83,86 0,47 -37,85 -83,85l0 -171z"/>
   </g>
   <g>
    <path class="fil3" d="M4023 4141c0,-48 38,-86 83,-86 46,0 84,38 84,86l-167 0zm0 261l0 -261 167 0 0 261 0 0 -167 0zm-327 508l0 -171 0 0 17 0 16 -1 17 -3 16 -2 15 -4 16 -5 15 -5 15 -6 14 -7 14 -7 14 -9 13 -8 13 -10 13 -10 12 -11 11 -11 11 -12 10 -12 10 -13 9 -13 9 -14 8 -14 7 -14 7 -15 6 -16 5 -15 4 -16 4 -16 3 -17 2 -17 1 -17 0 -17 167 0 -1 26 -2 26 -3 25 -5 25 -5 25 -7 24 -8 24 -8 23 -10 22 -11 22 -12 21 -13 21 -14 20 -15 19 -15 19 -16 17 -18 17 -17 16 -19 15 -19 14 -20 14 -21 12 -21 11 -22 10 -23 9 -23 8 -23 7 -24 6 -24 5 -25 3 -25 2 -25 0 0 0zm-3473 -171l3473 0 0 171 -3473 0 0 0 0 -171zm-126 42l166 0 0 0 0 -2 0 -2 0 -2 -1 -2 0 -3 -1 -2 0 -2 -1 -1 -1 -2 -1 -2 -1 -2 -1 -1 -1 -2 -1 -2 -1 -1 -1 -1 -2 -2 -1 -1 -2 -1 -1 -1 -2 -2 -2 0 -1 -1 -2 -1 -2 -1 -2 -1 -2 0 -2 -1 -2 0 -2 0 -2 -1 -2 0 0 171 -6 0 -7 0 -6 -1 -6 -1 -6 -2 -7 -1 -5 -2 -6 -3 -6 -2 -5 -3 -5 -3 -5 -4 -5 -3 -5 -4 -5 -4 -4 -5 -4 -4 -4 -5 -4 -4 -3 -6 -3 -5 -3 -5 -3 -6 -3 -6 -2 -5 -2 -6 -2 -7 -1 -6 -1 -6 -1 -7 -1 -7 0 -6 0 0zm166 -3797l0 3797 -166 0 0 -3797 0 0 166 0zm-40 -129l0 171 0 0 2 0 2 -1 2 0 2 0 2 -1 2 0 2 -1 2 -1 2 -1 1 0 2 -1 2 -1 1 -2 2 -1 1 -1 2 -1 1 -2 1 -1 1 -2 1 -1 1 -2 1 -2 1 -2 1 -2 1 -1 0 -2 1 -2 0 -3 1 -2 0 -2 0 -2 0 -2 -166 0 0 -6 1 -7 1 -6 1 -7 1 -6 2 -7 2 -6 2 -5 3 -6 3 -6 3 -5 3 -5 3 -5 4 -5 4 -5 4 -4 4 -5 5 -4 5 -4 5 -3 5 -4 5 -3 5 -3 6 -2 6 -2 6 -3 6 -1 6 -2 6 -1 6 -1 7 0 6 0 0 0zm642 171l-642 0 0 -171 642 0 0 171zm0 -171c45,0 83,38 83,85 0,47 -38,86 -83,86l0 -171z"/>
   </g>
  </g>
 </g>
</svg>
