<?xml version="1.0" encoding="UTF-8"?>
<!DOCTYPE svg PUBLIC "-//W3C//DTD SVG 1.1//EN" "http://www.w3.org/Graphics/SVG/1.1/DTD/svg11.dtd">
<!-- Creator: CorelDRAW X8 -->
<svg xmlns="http://www.w3.org/2000/svg" xml:space="preserve" width="50mm" height="50mm" version="1.1" style="shape-rendering:geometricPrecision; text-rendering:geometricPrecision; image-rendering:optimizeQuality; fill-rule:evenodd; clip-rule:evenodd"
viewBox="0 0 5000 5000"
 xmlns:xlink="http://www.w3.org/1999/xlink">
 <defs>
  <style type="text/css">
   <![CDATA[
    .str3 {stroke:#FEFEFE;stroke-width:100}
    .str1 {stroke:#FEFEFE;stroke-width:160}
    .str4 {stroke:#FEFEFE;stroke-width:20}
    .str0 {stroke:#495C80;stroke-width:7.62}
    .str5 {stroke:#FEFEFE;stroke-width:100;stroke-linecap:round;stroke-linejoin:round}
    .str2 {stroke:#FEFEFE;stroke-width:160;stroke-linecap:round;stroke-linejoin:round}
    .fil1 {fill:none}
    .fil0 {fill:#495C80}
    .fil2 {fill:#495C80;fill-rule:nonzero}
   ]]>
  </style>
 </defs>
 <g id="Capa_x0020_1">
  <metadata id="CorelCorpID_0Corel-Layer"/>
  <g id="_1614762582304">
   <path class="fil0 str0" d="M242 182l4185 0c227,0 414,186 414,414l0 3735c0,227 -187,414 -414,414l-4266 0 0 -4482c0,-45 36,-81 81,-81z"/>
   <path class="fil1 str1" d="M1129 1466l0 469c0,18 16,36 37,36l1203 0c18,0 36,-18 36,-36l0 -469"/>
   <path class="fil1 str2" d="M2816 4053l-2139 0c-83,0 -151,-68 -151,-151l0 -2285c0,-83 68,-151 151,-151l807 0 0 -88c0,-156 127,-283 283,-283 157,0 283,127 283,283l0 88 614 0"/>
   <g>
    <path class="fil2" d="M4652 2043c0,-56 44,-100 97,-100 54,0 97,44 97,100l-194 0zm0 2281l0 -2281 194 0 0 2281 0 0 -194 0zm-383 594l0 -200 0 0 20 0 19 -2 19 -2 19 -4 19 -4 18 -6 17 -6 18 -7 17 -8 16 -9 16 -9 16 -10 15 -12 14 -11 14 -13 14 -13 12 -14 13 -14 11 -15 11 -15 10 -17 9 -16 8 -17 8 -17 7 -18 6 -19 5 -18 4 -19 4 -20 2 -19 2 -20 0 -20 194 0 0 30 -3 30 -3 30 -5 29 -7 29 -8 28 -9 28 -10 27 -12 26 -13 26 -14 25 -15 24 -16 23 -17 22 -18 22 -19 21 -20 19 -21 19 -22 18 -22 16 -24 16 -24 14 -25 13 -25 12 -27 11 -26 9 -28 8 -28 7 -28 5 -29 4 -29 2 -30 1 0 0zm-4060 -200l4060 0 0 200 -4060 0 0 0 0 -200zm-147 49l194 0 0 0 0 -3 0 -2 0 -3 -1 -2 0 -3 -1 -2 -1 -2 0 -2 -1 -3 -1 -2 -2 -2 -1 -2 -1 -2 -1 -1 -2 -2 -1 -2 -2 -1 -2 -2 -1 -1 -2 -1 -2 -2 -2 -1 -2 -1 -2 -1 -2 -1 -3 -1 -2 0 -2 -1 -3 0 -2 -1 -2 0 -3 0 0 200 -7 0 -8 -1 -7 -1 -7 -1 -8 -2 -7 -2 -6 -2 -7 -3 -7 -3 -6 -3 -6 -4 -6 -4 -6 -4 -5 -5 -6 -4 -5 -5 -4 -5 -5 -6 -5 -6 -4 -6 -3 -6 -4 -6 -3 -7 -3 -6 -3 -7 -2 -7 -2 -7 -2 -8 -1 -7 -1 -8 -1 -8 0 -7 0 0zm194 -4439l0 4439 -194 0 0 -4439 0 0 194 0zm-47 -152l0 200 0 0 3 0 2 0 2 0 3 -1 2 0 2 -1 3 -1 2 0 2 -1 2 -1 2 -2 2 -1 2 -1 1 -2 2 -1 2 -2 1 -1 2 -2 1 -2 1 -2 1 -2 2 -2 1 -2 1 -2 0 -2 1 -2 1 -3 0 -2 1 -3 0 -2 0 -3 0 -2 -194 0 0 -8 1 -7 1 -8 1 -8 2 -7 2 -7 2 -7 3 -7 3 -7 3 -6 4 -7 3 -6 4 -6 5 -5 5 -6 4 -5 5 -5 6 -5 5 -4 6 -4 6 -4 6 -4 6 -3 7 -4 7 -2 6 -3 7 -2 8 -1 7 -2 7 -1 8 0 7 -1 0 0zm2702 200l-2702 0 0 -200 2702 0 0 200zm0 -200c54,0 97,45 97,100 0,56 -43,100 -97,100l0 -200z"/>
   </g>
   <path class="fil1 str3" d="M2718 3520l0 -1805c0,-93 77,-170 170,-170l175 0c93,0 169,77 169,170l0 1805 -257 478 -257 -478z"/>
   <line class="fil1 str3" x1="2718" y1="1924" x2="3232" y2= "1924" />
   <line class="fil1 str3" x1="2718" y1="2111" x2="3232" y2= "2111" />
   <line class="fil1 str3" x1="2718" y1="3520" x2="3232" y2= "3520" />
   <line class="fil1 str3" x1="2868" y1="3799" x2="3082" y2= "3799" />
   <polygon class="fil1 str4" points="934,2186 975,2319 1108,2319 1000,2401 1041,2534 934,2451 827,2534 868,2401 760,2319 893,2319 "/>
   <polygon class="fil1 str4" points="934,2731 975,2864 1108,2863 1000,2945 1041,3078 934,2996 827,3078 868,2945 760,2863 893,2864 "/>
   <polygon class="fil1 str4" points="934,3366 975,3499 1108,3499 1000,3580 1041,3713 934,3631 827,3713 868,3580 760,3499 893,3499 "/>
   <line class="fil1 str5" x1="1304" y1="2338" x2="2189" y2= "2338" />
   <line class="fil1 str5" x1="1304" y1="2520" x2="2189" y2= "2520" />
   <line class="fil1 str5" x1="1304" y1="2883" x2="2189" y2= "2883" />
   <line class="fil1 str5" x1="1304" y1="3064" x2="2189" y2= "3064" />
   <line class="fil1 str5" x1="1304" y1="3518" x2="2189" y2= "3518" />
   <line class="fil1 str5" x1="1304" y1="3699" x2="1691" y2= "3699" />
   <path class="fil1 str5" d="M3960 3369c126,58 214,185 214,332 0,201 -163,364 -364,364 -201,0 -364,-163 -364,-364 0,-147 88,-274 214,-332l0 -1089c-107,-55 -181,-166 -181,-295 0,-98 43,-186 111,-246l0 33 0 170 110 85 110 85 110 -85 110 -85 0 -170 0 -33c68,60 111,148 111,246 0,129 -74,240 -181,295l0 1089zm-150 157l82 44 83 44 0 87 0 87 -83 44 -82 44 -82 -44 -83 -44 0 -87 0 -87 83 -44 82 -44z"/>
  </g>
 </g>
</svg>
