<?xml version="1.0" encoding="UTF-8"?>
<!DOCTYPE svg PUBLIC "-//W3C//DTD SVG 1.1//EN" "http://www.w3.org/Graphics/SVG/1.1/DTD/svg11.dtd">
<!-- Creator: CorelDRAW X8 -->
<svg xmlns="http://www.w3.org/2000/svg" xml:space="preserve" width="50mm" height="50mm" version="1.1" style="shape-rendering:geometricPrecision; text-rendering:geometricPrecision; image-rendering:optimizeQuality; fill-rule:evenodd; clip-rule:evenodd"
viewBox="0 0 5000 5000"
 xmlns:xlink="http://www.w3.org/1999/xlink">
 <defs>
  <style type="text/css">
   <![CDATA[
    .str2 {stroke:#495C80;stroke-width:100}
    .str0 {stroke:#495C80;stroke-width:160}
    .str3 {stroke:#495C80;stroke-width:20}
    .str4 {stroke:#495C80;stroke-width:100;stroke-linecap:round;stroke-linejoin:round}
    .str5 {stroke:#495C80;stroke-width:100;stroke-linecap:round;stroke-linejoin:round}
    .str1 {stroke:#495C80;stroke-width:160;stroke-linecap:round;stroke-linejoin:round}
    .fil0 {fill:none}
    .fil2 {fill:#FEFEFE}
    .fil3 {fill:#495C80}
    .fil1 {fill:#D2D3D5;fill-rule:nonzero}
   ]]>
  </style>
 </defs>
 <g id="Capa_x0020_1">
  <metadata id="CorelCorpID_0Corel-Layer"/>
  <g id="_1614293899984">
   <path class="fil0 str0" d="M1175 1419l0 469c0,17 16,36 36,36l1203 0c19,0 37,-18 37,-36l0 -469"/>
   <path class="fil0 str1" d="M2862 4006l-2140 0c-83,0 -151,-68 -151,-151l0 -2285c0,-83 68,-151 151,-151l808 0 0 -88c0,-157 127,-283 283,-283 156,0 283,126 283,283l0 88 613 0"/>
   <g>
    <path class="fil1" d="M4698 1995c0,-55 43,-100 97,-100 54,0 97,45 97,100l-194 0zm0 2281l0 -2281 194 0 0 2281 0 0 -194 0zm-383 595l0 -200 0 0 20 -1 19 -1 19 -3 19 -3 18 -5 18 -5 18 -6 17 -7 17 -8 17 -9 16 -9 16 -11 15 -11 14 -12 14 -12 13 -13 13 -14 12 -14 12 -15 10 -16 10 -16 10 -16 8 -17 8 -18 7 -18 6 -18 5 -18 4 -19 4 -20 2 -19 1 -20 1 -21 194 0 -1 31 -2 30 -4 30 -5 29 -6 29 -8 28 -9 27 -10 27 -12 27 -13 25 -14 25 -15 24 -16 24 -17 22 -18 22 -19 20 -20 20 -21 19 -22 17 -23 17 -23 15 -24 15 -25 13 -26 12 -26 11 -27 9 -27 8 -28 7 -28 5 -29 4 -29 2 -30 1 0 0zm-4060 -200l4060 0 0 200 -4060 0 0 0 0 -200zm-147 48l194 0 0 0 0 -2 0 -3 -1 -2 0 -2 0 -3 -1 -2 -1 -3 -1 -2 -1 -2 -1 -2 -1 -2 -1 -2 -1 -2 -2 -2 -1 -1 -2 -2 -1 -2 -2 -1 -2 -2 -1 -1 -2 -1 -2 -1 -2 -1 -2 -1 -3 -1 -2 -1 -2 -1 -3 0 -2 -1 -2 0 -3 0 -2 0 0 200 -8 0 -7 -1 -7 -1 -8 -1 -7 -2 -7 -2 -7 -2 -6 -3 -7 -3 -6 -4 -6 -3 -6 -4 -6 -4 -6 -5 -5 -5 -5 -5 -5 -5 -4 -5 -5 -6 -4 -6 -4 -6 -3 -6 -3 -7 -3 -7 -3 -6 -2 -8 -2 -7 -2 -7 -1 -8 -1 -7 -1 -8 0 -8 0 0zm194 -4438l0 4438 -194 0 0 -4438 0 0 194 0zm-47 -152l0 200 0 0 2 0 3 0 2 0 2 -1 3 0 2 -1 2 -1 3 -1 2 -1 2 -1 2 -1 2 -1 1 -1 2 -2 2 -1 1 -2 2 -2 1 -1 2 -2 1 -2 1 -2 1 -2 1 -2 1 -2 1 -2 1 -3 1 -2 0 -3 0 -2 1 -2 0 -3 0 -2 -194 0 0 -8 1 -8 1 -7 1 -8 2 -7 2 -7 2 -7 3 -7 3 -7 3 -7 3 -6 4 -6 4 -6 5 -6 4 -5 5 -5 5 -5 5 -5 6 -5 6 -4 6 -4 6 -3 6 -4 7 -3 6 -3 7 -2 7 -2 7 -2 8 -1 7 -1 7 -1 8 0 0 0zm2702 200l-2702 0 0 -200 2702 0 0 200zm0 -200c53,0 97,45 97,100 0,55 -44,100 -97,100l0 -200z"/>
   </g>
   <path class="fil2 str2" d="M2764 3473l0 -1805c0,-94 76,-170 169,-170l176 0c93,0 169,76 169,170l0 1805 -257 478 -257 -478z"/>
   <line class="fil0 str2" x1="2764" y1="1877" x2="3278" y2= "1877" />
   <line class="fil0 str2" x1="2764" y1="2064" x2="3278" y2= "2064" />
   <line class="fil0 str2" x1="2764" y1="3473" x2="3278" y2= "3473" />
   <line class="fil0 str2" x1="2914" y1="3752" x2="3128" y2= "3752" />
   <polygon class="fil3 str3" points="980,2139 1021,2272 1153,2272 1046,2354 1087,2486 980,2404 872,2486 914,2354 806,2272 939,2272 "/>
   <polygon class="fil3 str3" points="980,2683 1021,2816 1153,2816 1046,2898 1087,3031 980,2948 872,3031 914,2898 806,2816 939,2816 "/>
   <polygon class="fil3 str3" points="980,3319 1021,3452 1153,3451 1046,3533 1087,3666 980,3584 872,3666 914,3533 806,3451 939,3452 "/>
   <line class="fil0 str4" x1="1350" y1="2291" x2="2234" y2= "2291" />
   <line class="fil0 str4" x1="1350" y1="2472" x2="2234" y2= "2472" />
   <line class="fil0 str4" x1="1350" y1="2835" x2="2234" y2= "2835" />
   <line class="fil0 str4" x1="1350" y1="3017" x2="2234" y2= "3017" />
   <line class="fil0 str4" x1="1350" y1="3471" x2="2234" y2= "3471" />
   <line class="fil0 str4" x1="1350" y1="3652" x2="1736" y2= "3652" />
   <path class="fil0 str5" d="M4006 3322c126,57 214,184 214,332 0,201 -163,364 -364,364 -201,0 -364,-163 -364,-364 0,-148 88,-275 214,-332l0 -1090c-107,-54 -181,-166 -181,-294 0,-98 43,-186 110,-247l0 34 0 170 111 84 110 85 110 -85 110 -84 0 -170 0 -34c68,61 110,149 110,247 0,128 -73,240 -180,294l0 1090zm-150 157l82 44 83 43 0 88 0 87 -83 44 -82 44 -83 -44 -82 -44 0 -87 0 -88 82 -43 83 -44z"/>
  </g>
 </g>
</svg>
