<?xml version="1.0" encoding="UTF-8"?>
<!DOCTYPE svg PUBLIC "-//W3C//DTD SVG 1.1//EN" "http://www.w3.org/Graphics/SVG/1.1/DTD/svg11.dtd">
<!-- Creator: CorelDRAW X8 -->
<svg xmlns="http://www.w3.org/2000/svg" xml:space="preserve" width="50.5mm" height="50mm" version="1.1" style="shape-rendering:geometricPrecision; text-rendering:geometricPrecision; image-rendering:optimizeQuality; fill-rule:evenodd; clip-rule:evenodd"
viewBox="0 0 5050 5000"
 xmlns:xlink="http://www.w3.org/1999/xlink">
 <defs>
  <style type="text/css">
   <![CDATA[
    .str1 {stroke:#373435;stroke-width:20}
    .str0 {stroke:#495C80;stroke-width:20}
    .fil2 {fill:none}
    .fil1 {fill:#495C80}
    .fil0 {fill:#D2D3D5;fill-rule:nonzero}
   ]]>
  </style>
 </defs>
 <g id="Capa_x0020_1">
  <metadata id="CorelCorpID_0Corel-Layer"/>
  <g id="_1514434955568">
   <g>
    <path class="fil0" d="M4723 1995c0,-55 43,-100 97,-100 54,0 97,45 97,100l-194 0zm0 2281l0 -2281 194 0 0 2281 0 0 -194 0zm-383 595l0 -200 0 0 20 -1 19 -1 19 -3 19 -3 18 -5 18 -5 18 -6 17 -7 17 -8 17 -9 16 -9 16 -11 15 -11 14 -12 14 -12 13 -13 13 -14 12 -14 12 -15 10 -16 10 -16 10 -16 8 -17 8 -18 7 -18 6 -18 5 -18 4 -19 4 -20 2 -19 1 -20 1 -21 194 0 -1 31 -2 30 -4 30 -5 29 -6 29 -8 28 -9 27 -10 27 -12 27 -13 25 -14 25 -15 24 -16 24 -17 22 -18 22 -19 20 -20 20 -21 19 -22 17 -23 17 -23 15 -24 15 -25 13 -26 12 -26 11 -27 9 -27 8 -28 7 -28 5 -29 4 -29 2 -30 1 0 0zm-4060 -200l4060 0 0 200 -4060 0 0 0 0 -200zm-147 48l194 0 0 0 0 -2 0 -3 -1 -2 0 -2 0 -3 -1 -2 -1 -3 -1 -2 -1 -2 -1 -2 -1 -2 -1 -2 -1 -2 -2 -2 -1 -1 -2 -2 -1 -2 -2 -1 -2 -2 -1 -1 -2 -1 -2 -1 -2 -1 -2 -1 -3 -1 -2 -1 -2 -1 -3 0 -2 -1 -2 0 -3 0 -2 0 0 200 -8 0 -7 -1 -7 -1 -8 -1 -7 -2 -7 -2 -7 -2 -6 -3 -7 -3 -6 -4 -6 -3 -6 -4 -6 -4 -6 -5 -5 -5 -5 -5 -5 -5 -4 -5 -5 -6 -4 -6 -4 -6 -3 -6 -3 -7 -3 -7 -3 -7 -2 -7 -2 -7 -2 -7 -1 -8 -1 -7 -1 -8 0 -8 0 0zm194 -4438l0 4438 -194 0 0 -4438 0 0 194 0zm-47 -152l0 200 0 0 2 0 3 0 2 0 2 -1 3 0 2 -1 2 -1 3 -1 2 -1 2 -1 2 -1 2 -1 1 -1 2 -2 2 -1 1 -2 2 -2 1 -1 2 -2 1 -2 1 -2 1 -2 1 -2 1 -2 1 -2 1 -3 1 -2 0 -3 0 -2 1 -2 0 -3 0 -2 -194 0 0 -8 1 -8 1 -7 1 -8 2 -7 2 -7 2 -7 3 -7 3 -7 3 -7 3 -6 4 -6 4 -6 5 -6 4 -5 5 -5 5 -5 5 -5 6 -5 6 -4 6 -4 6 -3 6 -4 7 -3 6 -3 7 -2 7 -2 7 -2 8 -1 7 -1 7 -1 8 0 0 0zm2702 200l-2702 0 0 -200 2702 0 0 200zm0 -200c53,0 97,45 97,100 0,55 -44,100 -97,100l0 -200z"/>
   </g>
   <path class="fil1 str0" d="M2157 1278l737 0 0 -10c0,-95 -78,-172 -172,-172l-393 0c-95,0 -172,77 -172,172l0 10z"/>
   <rect class="fil1 str0" x="1287" y="1387" width="2476" height="204" rx="680" ry="200"/>
   <rect class="fil2 str1" x="2323" y="2120" width="404" height="1592" rx="42" ry="586"/>
   <path class="fil2 str1" d="M3509 1772l-179 1999c-4,70 -69,152 -167,152l-638 0 -638 0c-98,0 -163,-82 -166,-152l-179 -1999c0,-32 25,-58 57,-58l926 0 926 0c32,0 58,26 58,58zm-445 1940l-129 0c-50,0 -91,-41 -91,-92l0 -1408c0,-51 41,-92 91,-92l221 0c50,0 91,41 91,92l-87 1404c-4,59 -36,91 -96,96zm-1075 0l129 0c51,0 92,-41 92,-92l0 -1408c0,-51 -41,-92 -92,-92l-220 0c-51,0 -92,41 -92,92l87 1404c5,59 37,91 96,96z"/>
   <path class="fil1 str0" d="M3509 1772l-179 1999c-4,70 -69,152 -167,152l-638 0 -638 0c-98,0 -163,-82 -166,-152l-179 -1999c0,-32 25,-58 57,-58l926 0 926 0c32,0 58,26 58,58zm-445 1940l-129 0c-50,0 -91,-41 -91,-92l0 -1408c0,-51 41,-92 91,-92l221 0c50,0 91,41 91,92l-87 1404c-4,59 -36,91 -96,96zm-1075 0l129 0c51,0 92,-41 92,-92l0 -1408c0,-51 -41,-92 -92,-92l-220 0c-51,0 -92,41 -92,92l87 1404c5,59 37,91 96,96zm-139 -1790l1350 0c25,0 45,21 45,46l0 0c0,25 -20,45 -45,45l-1350 0c-25,0 -45,-20 -45,-45l0 0c0,-25 20,-46 45,-46zm622 1790l106 0c82,0 149,-67 149,-149l0 -1294c0,-82 -67,-149 -149,-149l-106 0c-82,0 -149,67 -149,149l0 1294c0,82 67,149 149,149z"/>
  </g>
 </g>
</svg>
