<?xml version="1.0" encoding="UTF-8"?>
<!DOCTYPE svg PUBLIC "-//W3C//DTD SVG 1.1//EN" "http://www.w3.org/Graphics/SVG/1.1/DTD/svg11.dtd">
<!-- Creator: CorelDRAW X8 -->
<svg xmlns="http://www.w3.org/2000/svg" xml:space="preserve" width="50mm" height="50mm" version="1.1" style="shape-rendering:geometricPrecision; text-rendering:geometricPrecision; image-rendering:optimizeQuality; fill-rule:evenodd; clip-rule:evenodd"
viewBox="0 0 5000 5000"
 xmlns:xlink="http://www.w3.org/1999/xlink">
 <defs>
  <style type="text/css">
   <![CDATA[
    .str1 {stroke:#00A859;stroke-width:20}
    .str0 {stroke:#495C80;stroke-width:100;stroke-linecap:round;stroke-linejoin:round}
    .fil2 {fill:#FEFEFE}
    .fil3 {fill:#00A859}
    .fil0 {fill:#495C80}
    .fil1 {fill:#D2D3D5;fill-rule:nonzero}
   ]]>
  </style>
 </defs>
 <g id="Capa_x0020_1">
  <metadata id="CorelCorpID_0Corel-Layer"/>
  <g id="_1614767773024">
   <circle class="fil0" cx="2421" cy="1502" r="293"/>
   <path class="fil0" d="M2133 2283l-956 0c-12,-69 -18,-140 -18,-213 0,-575 385,-1060 911,-1213l20 456c-32,56 -50,120 -50,189 0,81 25,156 68,217l25 564z"/>
   <rect class="fil0" x="1000" y="2379" width="2829" height="434" rx="172" ry="80"/>
   <path class="fil0" d="M2696 2283l956 0c12,-69 18,-140 18,-213 0,-575 -385,-1060 -911,-1213l-19 436c39,60 62,132 62,209 0,89 -30,171 -82,236l-24 545z"/>
   <path class="fil0" d="M2421 743l246 0 -20 452c-63,-47 -141,-74 -226,-74 -90,0 -173,31 -238,84l-21 -462 246 0 13 0zm198 1085l-20 455 -185 0 -184 0 -20 -464c60,41 133,64 211,64 73,0 140,-20 198,-55z"/>
   <g>
    <path class="fil1" d="M4698 1995c0,-55 43,-100 97,-100 54,0 97,45 97,100l-194 0zm0 2281l0 -2281 194 0 0 2281 0 0 -194 0zm-383 595l0 -200 0 0 20 -1 19 -1 19 -3 19 -3 18 -5 18 -5 18 -6 17 -7 17 -8 17 -9 16 -9 16 -11 15 -11 14 -12 14 -12 13 -13 13 -14 12 -14 12 -15 10 -16 10 -16 10 -16 8 -17 8 -18 7 -18 6 -18 5 -18 4 -19 4 -20 2 -19 1 -20 1 -21 194 0 -1 31 -2 30 -4 30 -5 29 -6 29 -8 28 -9 27 -10 27 -12 27 -13 25 -14 25 -15 24 -16 24 -17 22 -18 22 -19 20 -20 20 -21 19 -22 17 -23 17 -23 15 -24 15 -25 13 -26 12 -26 11 -27 9 -27 8 -28 7 -28 5 -29 4 -29 2 -30 1 0 0zm-4060 -200l4060 0 0 200 -4060 0 0 0 0 -200zm-147 48l194 0 0 0 0 -2 0 -3 -1 -2 0 -2 0 -3 -1 -2 -1 -3 -1 -2 -1 -2 -1 -2 -1 -2 -1 -2 -1 -2 -2 -2 -1 -1 -2 -2 -1 -2 -2 -1 -2 -2 -1 -1 -2 -1 -2 -1 -2 -1 -2 -1 -3 -1 -2 -1 -2 -1 -3 0 -2 -1 -2 0 -3 0 -2 0 0 200 -8 0 -7 -1 -7 -1 -8 -1 -7 -2 -7 -2 -7 -2 -6 -3 -7 -3 -6 -4 -6 -3 -6 -4 -6 -4 -6 -5 -5 -5 -5 -5 -5 -5 -4 -5 -5 -6 -4 -6 -4 -6 -3 -6 -3 -7 -3 -7 -3 -6 -2 -8 -2 -7 -2 -7 -1 -8 -1 -7 -1 -8 0 -8 0 0zm194 -4438l0 4438 -194 0 0 -4438 0 0 194 0zm-47 -152l0 200 0 0 2 0 3 0 2 0 2 -1 3 0 2 -1 2 -1 3 -1 2 -1 2 -1 2 -1 2 -1 1 -1 2 -2 2 -1 1 -2 2 -2 1 -1 2 -2 1 -2 1 -2 1 -2 1 -2 1 -2 1 -2 1 -3 1 -2 0 -3 0 -2 1 -2 0 -3 0 -2 -194 0 0 -8 1 -8 1 -7 1 -8 2 -7 2 -7 2 -7 3 -7 3 -7 3 -7 3 -6 4 -6 4 -6 5 -6 4 -5 5 -5 5 -5 5 -5 6 -5 6 -4 6 -4 6 -3 6 -4 7 -3 6 -3 7 -2 7 -2 7 -2 8 -1 7 -1 7 -1 8 0 0 0zm2702 200l-2702 0 0 -200 2702 0 0 200zm0 -200c53,0 97,45 97,100 0,55 -44,100 -97,100l0 -200z"/>
   </g>
   <path class="fil2 str0" d="M2376 3696c60,-134 195,-227 352,-227 213,0 387,173 387,387 0,213 -174,386 -387,386 -157,0 -292,-93 -352,-227l-1159 0c-58,114 -176,192 -313,192 -104,0 -198,-45 -262,-117l35 0 181 0 90 -117 91 -117 -91 -117 -90 -117 -181 0 -35 0c64,-72 158,-118 262,-118 137,0 255,78 313,192l1159 0zm166 160l46 -88 47 -88 93 0 93 0 46 88 47 88 -47 87 -46 88 -93 0 -93 0 -47 -88 -46 -87z"/>
   <polygon class="fil3 str1" points="3133,3279 3697,3635 4604,2384 3710,4294 "/>
  </g>
 </g>
</svg>
