<?xml version="1.0" encoding="UTF-8"?>
<!DOCTYPE svg PUBLIC "-//W3C//DTD SVG 1.1//EN" "http://www.w3.org/Graphics/SVG/1.1/DTD/svg11.dtd">
<!-- Creator: CorelDRAW X8 -->
<svg xmlns="http://www.w3.org/2000/svg" xml:space="preserve" width="50.5mm" height="50mm" version="1.1" style="shape-rendering:geometricPrecision; text-rendering:geometricPrecision; image-rendering:optimizeQuality; fill-rule:evenodd; clip-rule:evenodd"
viewBox="0 0 5050 5000"
 xmlns:xlink="http://www.w3.org/1999/xlink">
 <defs>
  <style type="text/css">
   <![CDATA[
    .str0 {stroke:#495C80;stroke-width:20}
    .fil1 {fill:#495C80}
    .fil0 {fill:#D2D3D5;fill-rule:nonzero}
   ]]>
  </style>
 </defs>
 <g id="Capa_x0020_1">
  <metadata id="CorelCorpID_0Corel-Layer"/>
  <g id="_1514413831904">
   <g>
    <path class="fil0" d="M4747 1726c0,-47 37,-85 83,-85 46,0 83,38 83,85l-166 0zm0 1951l0 -1951 166 0 0 1951 0 0 -166 0zm-327 509l0 -171 0 0 17 -1 16 -1 16 -2 16 -3 16 -4 16 -4 15 -6 15 -6 14 -7 14 -7 14 -8 13 -9 13 -10 13 -10 12 -10 11 -11 11 -12 10 -13 10 -12 9 -14 9 -13 8 -14 7 -15 6 -15 6 -15 5 -16 5 -16 4 -16 2 -17 3 -16 1 -17 0 -18 166 0 0 26 -2 26 -3 25 -5 25 -5 25 -7 24 -8 24 -9 23 -10 22 -11 22 -11 22 -13 20 -14 20 -15 19 -15 19 -17 17 -17 17 -18 16 -18 15 -20 15 -20 13 -20 12 -22 11 -21 11 -23 9 -23 8 -23 7 -24 5 -24 5 -25 3 -25 2 -25 1 0 0zm-3473 -171l3473 0 0 171 -3473 0 0 0 0 -171zm-126 41l166 0 0 0 0 -2 0 -2 0 -2 -1 -2 0 -2 -1 -2 0 -2 -1 -2 -1 -2 -1 -2 -1 -2 -1 -1 -1 -2 -1 -1 -1 -2 -2 -1 -1 -1 -1 -2 -2 -1 -2 -1 -1 -1 -2 -1 -2 -1 -2 -1 -1 -1 -2 0 -2 -1 -2 0 -2 -1 -2 0 -2 0 -2 0 0 171 -7 0 -6 -1 -6 -1 -7 -1 -6 -1 -6 -2 -6 -2 -5 -2 -6 -3 -5 -3 -5 -3 -6 -3 -5 -4 -4 -4 -5 -4 -4 -4 -4 -5 -4 -4 -4 -5 -3 -5 -4 -5 -3 -6 -2 -5 -3 -6 -2 -6 -2 -6 -2 -6 -1 -7 -2 -6 0 -7 -1 -6 0 -7 0 0zm166 -3796l0 3796 -166 0 0 -3796 0 0 166 0zm-40 -130l0 171 0 0 2 0 2 0 2 0 2 -1 2 0 2 -1 2 -1 1 0 2 -1 2 -1 2 -1 1 -1 2 -1 2 -2 1 -1 1 -1 2 -2 1 -1 1 -1 1 -2 1 -2 1 -1 1 -2 1 -2 1 -2 0 -2 1 -2 0 -2 1 -2 0 -2 0 -2 0 -2 -166 0 0 -7 1 -6 0 -7 2 -7 1 -6 2 -6 2 -6 2 -6 3 -6 2 -5 3 -6 4 -5 3 -5 4 -5 4 -4 4 -5 4 -4 5 -4 4 -4 5 -4 6 -3 5 -3 5 -3 6 -3 5 -2 6 -2 6 -2 6 -1 7 -2 6 0 6 -1 7 0 0 0zm2311 171l-2311 0 0 -171 2311 0 0 171zm0 -171c46,0 83,38 83,85 0,48 -37,86 -83,86l0 -171z"/>
   </g>
   <rect class="fil1 str0" transform="matrix(0.604846 -0.604846 0.604846 0.604846 1778.96 2411.57)" width="2902" height="1393" rx="40" ry="40"/>
   <polygon class="fil1 str0" points="1635,2700 1406,3628 2334,3398 "/>
   <path class="fil1 str0" d="M3828 363l-56 56c-14,13 -14,35 0,48l794 795c13,13 35,13 48,0l57 -57c146,-146 146,-385 0,-532l-311 -310c-146,-147 -386,-147 -532,0z"/>
   <g>
    <path class="fil0" d="M4063 4100c0,-47 37,-85 83,-85 46,0 83,38 83,85l-166 0zm0 262l0 -262 166 0 0 262 0 0 -166 0zm-328 508l0 -171 0 0 17 0 17 -2 16 -2 16 -3 16 -4 15 -4 16 -6 14 -6 15 -6 14 -8 14 -8 13 -9 13 -9 12 -10 12 -11 12 -11 11 -12 10 -12 10 -13 9 -13 8 -14 8 -14 8 -15 6 -15 6 -15 5 -16 5 -15 3 -17 3 -16 2 -17 2 -17 0 -17 166 0 -1 26 -2 25 -3 26 -4 25 -6 24 -6 25 -8 23 -9 23 -10 23 -11 22 -12 21 -13 21 -13 20 -15 19 -16 18 -16 18 -17 17 -18 16 -19 15 -19 14 -20 13 -21 12 -21 12 -22 10 -22 9 -23 8 -24 7 -23 6 -25 4 -24 3 -25 2 -26 1 0 0zm-3473 -171l3473 0 0 171 -3473 0 0 0 0 -171zm-125 41l166 0 0 0 0 -2 0 -2 -1 -2 0 -2 -1 -2 0 -2 -1 -2 0 -2 -1 -2 -1 -2 -1 -1 -1 -2 -1 -2 -2 -1 -1 -1 -1 -2 -1 -1 -2 -1 -1 -2 -2 -1 -2 -1 -1 -1 -2 -1 -2 -1 -1 0 -2 -1 -2 -1 -2 0 -2 -1 -2 0 -2 0 -3 0 0 171 -6 0 -6 -1 -7 0 -6 -2 -6 -1 -6 -2 -6 -2 -5 -2 -6 -3 -6 -3 -5 -3 -5 -3 -5 -4 -5 -4 -4 -4 -5 -4 -4 -5 -3 -4 -4 -5 -4 -5 -3 -5 -3 -5 -3 -6 -2 -6 -3 -6 -2 -6 -1 -6 -2 -7 -1 -6 -1 -6 0 -7 0 -7 0 0zm166 -3796l0 3796 -166 0 0 -3796 0 0 166 0zm-41 -130l0 171 0 0 3 0 2 0 2 0 2 -1 2 0 2 -1 2 0 1 -1 2 -1 2 -1 1 -1 2 -1 2 -1 1 -1 2 -1 1 -2 1 -1 2 -2 1 -1 1 -2 1 -2 1 -1 1 -2 1 -2 0 -2 1 -2 0 -2 1 -2 0 -2 1 -2 0 -2 0 -2 -166 0 0 -7 0 -6 1 -7 1 -6 2 -7 1 -6 2 -6 3 -6 2 -5 3 -6 3 -5 3 -6 4 -5 3 -5 4 -4 5 -5 4 -4 4 -4 5 -4 5 -4 5 -3 5 -3 6 -3 5 -2 6 -3 6 -2 6 -2 6 -1 6 -1 7 -1 6 -1 6 0 0 0zm642 171l-642 0 0 -171 642 0 0 171zm0 -171c46,0 83,39 83,86 0,47 -37,85 -83,85l0 -171z"/>
   </g>
  </g>
 </g>
</svg>
