<?xml version="1.0" encoding="utf-8"?>
<!-- Generator: Adobe Illustrator 24.1.0, SVG Export Plug-In . SVG Version: 6.00 Build 0)  -->
<svg version="1.1" id="Capa_1" xmlns="http://www.w3.org/2000/svg" xmlns:xlink="http://www.w3.org/1999/xlink" x="0px" y="0px"
	 viewBox="0 0 142 142" style="enable-background:new 0 0 142 142;" xml:space="preserve">
<style type="text/css">
	.st0{fill:url(#SVGID_1_);}
</style>
<linearGradient id="SVGID_1_" gradientUnits="userSpaceOnUse" x1="0" y1="71" x2="142.0011" y2="71">
	<stop  offset="0" style="stop-color:#5A9146"/>
	<stop  offset="0.2133" style="stop-color:#689C4A"/>
	<stop  offset="1" style="stop-color:#9AC559"/>
</linearGradient>
<path class="st0" d="M139.12,51.33c3.02,11.28,2.88,19.95,2.88,19.95V142c0,0-21.84,0-41.59,0c-0.08-15,2.57-48.28,23.66-74.2
	c0,0-18.61,32.18-18.37,62.65c0,0,23.89-5.62,27.81-26.06C136.72,87.64,131.16,66.34,139.12,51.33z M79.69,142
	c-5.97-4-10.38-8.87-10.38-8.87C-23.9,122.06,12.54,11.18,12.54,11.18c5.35,28.09,36.44,41.33,58.64,60.56
	c22.2,19.24,6.28,53.41,6.28,53.41c-34.84-25.2-55.85-73.3-55.85-73.3C33.83,99.04,70.78,130,87.77,142c2.6,0,5.38,0,8.25,0
	c0.37-7,1.7-12.83,1.7-12.83c-27.57-48.59,23.4-74.77,40.43-81.88C131.61,26.65,114.76,0,71.29,0C0.24,0,0,0,0,0s0,0.29,0,71.29
	S83.04,142,71.27,142C72.8,142,75.78,142,79.69,142z"/>
</svg>
