<?xml version="1.0" encoding="UTF-8"?>
<!DOCTYPE svg PUBLIC "-//W3C//DTD SVG 1.1//EN" "http://www.w3.org/Graphics/SVG/1.1/DTD/svg11.dtd">
<!-- Creator: CorelDRAW X8 -->
<svg xmlns="http://www.w3.org/2000/svg" xml:space="preserve" width="50mm" height="50mm" version="1.1" style="shape-rendering:geometricPrecision; text-rendering:geometricPrecision; image-rendering:optimizeQuality; fill-rule:evenodd; clip-rule:evenodd"
viewBox="0 0 5000 5000"
 xmlns:xlink="http://www.w3.org/1999/xlink">
 <defs>
  <style type="text/css">
   <![CDATA[
    .str2 {stroke:#ED3237;stroke-width:171.64;stroke-linecap:round;stroke-linejoin:round}
    .str0 {stroke:#96989A;stroke-width:152.99;stroke-linecap:round;stroke-linejoin:round}
    .str1 {stroke:#96989A;stroke-width:152.99;stroke-linecap:round;stroke-linejoin:round}
    .fil1 {fill:none}
    .fil3 {fill:#ED3237}
    .fil2 {fill:#96989A;fill-rule:nonzero}
    .fil0 {fill:#495C80;fill-rule:nonzero}
   ]]>
  </style>
 </defs>
 <g id="Capa_x0020_1">
  <metadata id="CorelCorpID_0Corel-Layer"/>
  <g>
   <path class="fil0" d="M4625 1995c0,-96 76,-175 170,-175 94,0 170,79 170,175l-340 0zm0 2281l0 -2281 340 0 0 2281 0 0 -340 0zm-310 670l0 -350 0 0 16 -1 16 -1 15 -2 15 -3 15 -3 15 -5 14 -5 14 -5 14 -7 13 -7 13 -7 13 -9 12 -9 12 -9 11 -11 11 -10 10 -11 10 -12 9 -12 9 -13 8 -13 8 -13 7 -14 6 -14 5 -15 5 -14 4 -15 4 -16 3 -15 2 -16 1 -16 0 -17 340 0 -1 35 -2 34 -5 33 -5 33 -8 32 -8 32 -11 31 -11 31 -14 29 -14 29 -16 28 -17 27 -18 27 -19 25 -20 24 -22 23 -22 22 -24 21 -24 20 -26 19 -26 17 -27 17 -28 14 -29 14 -30 12 -30 11 -31 9 -31 7 -32 6 -33 4 -33 3 -33 1 0 0zm-4060 -350l4060 0 0 350 -4060 0 0 0 0 -350zm-220 123l340 0 0 0 0 -6 -1 -6 -1 -6 -1 -7 -1 -6 -2 -6 -2 -5 -2 -6 -2 -6 -3 -5 -3 -5 -3 -5 -3 -5 -4 -4 -3 -5 -4 -4 -4 -4 -5 -4 -4 -4 -5 -3 -5 -3 -5 -3 -5 -3 -5 -2 -6 -3 -5 -2 -6 -1 -6 -2 -6 -1 -6 -1 -6 0 -6 0 0 350 -11 0 -11 -1 -11 -2 -11 -2 -11 -2 -11 -3 -10 -4 -10 -4 -10 -5 -9 -5 -9 -5 -9 -6 -9 -6 -8 -7 -8 -7 -7 -8 -8 -7 -7 -9 -6 -8 -6 -9 -6 -9 -5 -9 -5 -10 -5 -10 -3 -11 -4 -10 -3 -11 -2 -11 -2 -11 -2 -12 -1 -11 0 -12 0 0zm340 -4438l0 4438 -340 0 0 -4438 0 0 340 0zm-120 -227l0 350 0 0 6 0 6 0 6 -1 6 -1 6 -2 6 -1 5 -2 6 -3 5 -2 5 -3 5 -3 5 -3 5 -3 4 -4 5 -4 4 -4 4 -4 3 -5 4 -4 3 -5 3 -5 3 -5 3 -5 2 -6 2 -6 2 -5 2 -6 1 -6 1 -7 1 -6 1 -6 0 -6 -340 0 0 -12 1 -11 2 -12 2 -11 2 -11 3 -11 4 -10 3 -11 5 -10 5 -10 5 -9 6 -9 6 -9 6 -8 7 -9 8 -7 7 -8 8 -7 8 -7 9 -6 9 -6 9 -5 9 -5 10 -5 10 -4 10 -4 11 -3 11 -2 11 -2 11 -2 11 -1 11 0 0 0zm2702 350l-2702 0 0 -350 2702 0 0 350zm0 -350c94,0 170,79 170,175 0,97 -76,175 -170,175l0 -350z"/>
  </g>
  <g>
   <path class="fil1 str0" d="M1529 921c0,-72 60,-132 132,-132l1064 0c11,0 19,5 26,13l981 991c7,7 10,13 10,24l0 1094"/>
  </g>
  <g>
   <path class="fil1 str1" d="M2880 3796l-1578 0c-73,0 -132,-59 -132,-132l0 -2521c0,-72 59,-132 132,-132l1063 0c11,0 20,5 27,12l981 992c6,7 9,13 9,23l0 1095"/>
  </g>
  <g>
   <path class="fil2" d="M1673 1938c-63,0 -115,-34 -115,-76 0,-42 52,-77 115,-77l0 153zm1252 0l-1252 0 0 -153 1252 0 0 153zm0 -153c64,0 115,35 115,77 0,42 -51,76 -115,76l0 -153z"/>
  </g>
  <g>
   <path class="fil2" d="M1673 2657c-63,0 -115,-34 -115,-76 0,-42 52,-77 115,-77l0 153zm1252 0l-1252 0 0 -153 1252 0 0 153zm0 -153c64,0 115,35 115,77 0,42 -51,76 -115,76l0 -153z"/>
  </g>
  <g>
   <path class="fil2" d="M1673 2298c-63,0 -115,-34 -115,-77 0,-42 52,-76 115,-76l0 153zm1252 0l-1252 0 0 -153 1252 0 0 153zm0 -153c64,0 115,34 115,76 0,43 -51,77 -115,77l0 -153z"/>
  </g>
  <g>
   <path class="fil1 str2" d="M3209 3757l-334 0 604 632 653 -632 -335 0c-64,-437 5,-810 310,-1073 -560,81 -849,449 -898,1073z"/>
   <path id="1" class="fil3" d="M3209 3757l-334 0 604 632 653 -632 -335 0c-64,-437 5,-810 310,-1073 -560,81 -849,449 -898,1073z"/>
  </g>
 </g>
</svg>
