<?xml version="1.0" encoding="UTF-8"?>
<!DOCTYPE svg PUBLIC "-//W3C//DTD SVG 1.1//EN" "http://www.w3.org/Graphics/SVG/1.1/DTD/svg11.dtd">
<!-- Creator: CorelDRAW X8 -->
<svg xmlns="http://www.w3.org/2000/svg" xml:space="preserve" width="50.5mm" height="50mm" version="1.1" style="shape-rendering:geometricPrecision; text-rendering:geometricPrecision; image-rendering:optimizeQuality; fill-rule:evenodd; clip-rule:evenodd"
viewBox="0 0 5050 5000"
 xmlns:xlink="http://www.w3.org/1999/xlink">
 <defs>
  <style type="text/css">
   <![CDATA[
    .str0 {stroke:#495C80;stroke-width:7.62}
    .str1 {stroke:#FEFEFE;stroke-width:140.33;stroke-linecap:round;stroke-linejoin:round}
    .str2 {stroke:#FEFEFE;stroke-width:140.33;stroke-linecap:round;stroke-linejoin:round}
    .fil4 {fill:none}
    .fil3 {fill:#FEFEFE}
    .fil10 {fill:#FFF212}
    .fil0 {fill:#495C80}
    .fil8 {fill:#495C80}
    .fil7 {fill:#C7D9FF}
    .fil6 {fill:#FD2F33}
    .fil5 {fill:#FEFEFE;fill-rule:nonzero}
    .fil2 {fill:#373435;fill-rule:nonzero}
    .fil9 {fill:#FFF212;fill-rule:nonzero}
    .fil1 {fill:#495C80;fill-rule:nonzero}
   ]]>
  </style>
 </defs>
 <g id="Capa_x0020_1">
  <metadata id="CorelCorpID_0Corel-Layer"/>
  <g id="_1514445885056">
   <path class="fil0 str0" d="M267 182l4185 0c227,0 414,186 414,414l0 3735c0,227 -187,414 -414,414l-4266 0 0 -4482c0,-45 36,-81 81,-81z"/>
   <g>
    <path class="fil1" d="M4677 2043c0,-56 44,-100 97,-100 54,0 97,44 97,100l-194 0zm0 2281l0 -2281 194 0 0 2281 0 0 -194 0zm-383 594l0 -200 0 0 20 0 19 -2 19 -2 19 -4 19 -4 18 -6 17 -6 18 -7 17 -8 16 -9 16 -9 16 -10 15 -12 14 -11 14 -13 14 -13 12 -14 12 -14 12 -15 11 -15 10 -17 9 -16 8 -17 8 -17 7 -18 6 -19 5 -18 4 -19 4 -20 2 -19 2 -20 0 -20 194 0 0 30 -3 30 -3 30 -5 29 -7 29 -8 28 -9 28 -10 27 -12 26 -13 26 -14 25 -15 24 -16 23 -17 22 -18 22 -19 21 -20 19 -21 19 -22 18 -22 16 -24 16 -24 14 -25 13 -25 12 -27 11 -26 9 -28 8 -28 7 -28 5 -29 4 -29 2 -30 1 0 0zm-4060 -200l4060 0 0 200 -4060 0 0 0 0 -200zm-147 49l194 0 0 0 0 -3 0 -2 0 -3 -1 -2 0 -3 -1 -2 -1 -2 0 -2 -1 -3 -1 -2 -2 -2 -1 -2 -1 -2 -1 -1 -2 -2 -1 -2 -2 -1 -2 -2 -1 -1 -2 -1 -2 -2 -2 -1 -2 -1 -2 -1 -2 -1 -3 -1 -2 0 -2 -1 -3 0 -2 -1 -2 0 -3 0 0 200 -7 0 -8 -1 -7 -1 -7 -1 -8 -2 -7 -2 -6 -2 -7 -3 -7 -3 -6 -3 -6 -4 -6 -4 -6 -4 -5 -5 -6 -4 -5 -5 -4 -5 -5 -6 -5 -6 -4 -6 -3 -6 -4 -6 -3 -7 -3 -6 -3 -7 -2 -7 -2 -7 -2 -8 -1 -7 -1 -8 -1 -8 0 -7 0 0zm194 -4439l0 4439 -194 0 0 -4439 0 0 194 0zm-47 -152l0 200 0 0 3 0 2 0 2 0 3 -1 2 0 2 -1 3 -1 2 0 2 -1 2 -1 2 -2 2 -1 2 -1 1 -2 2 -1 2 -2 1 -1 2 -2 1 -2 1 -2 1 -2 2 -2 1 -2 1 -2 0 -2 1 -2 1 -3 0 -2 1 -3 0 -2 0 -3 0 -2 -194 0 0 -8 1 -7 1 -8 1 -8 2 -7 2 -7 2 -7 3 -7 3 -7 3 -6 4 -7 3 -6 4 -6 5 -5 5 -6 4 -5 5 -5 6 -5 5 -4 6 -4 6 -4 6 -4 6 -3 7 -4 7 -2 6 -3 7 -2 8 -1 7 -2 7 -1 8 0 7 -1 0 0zm2702 200l-2702 0 0 -200 2702 0 0 200zm0 -200c54,0 97,45 97,100 0,56 -43,100 -97,100l0 -200z"/>
   </g>
   <g>
    <path class="fil1" d="M4677 2043c0,-56 44,-100 97,-100 54,0 97,44 97,100l-194 0zm0 2281l0 -2281 194 0 0 2281 0 0 -194 0zm-383 594l0 -200 0 0 20 0 19 -2 19 -2 19 -4 19 -4 18 -6 17 -6 18 -7 17 -8 16 -9 16 -9 16 -10 15 -12 14 -11 14 -13 14 -13 12 -14 12 -14 12 -15 11 -15 10 -17 9 -16 8 -17 8 -17 7 -18 6 -19 5 -18 4 -19 4 -20 2 -19 2 -20 0 -20 194 0 0 30 -3 30 -3 30 -5 29 -7 29 -8 28 -9 28 -10 27 -12 26 -13 26 -14 25 -15 24 -16 23 -17 22 -18 22 -19 21 -20 19 -21 19 -22 18 -22 16 -24 16 -24 14 -25 13 -25 12 -27 11 -26 9 -28 8 -28 7 -28 5 -29 4 -29 2 -30 1 0 0zm-4060 -200l4060 0 0 200 -4060 0 0 0 0 -200zm-147 49l194 0 0 0 0 -3 0 -2 0 -3 -1 -2 0 -3 -1 -2 -1 -2 0 -2 -1 -3 -1 -2 -2 -2 -1 -2 -1 -2 -1 -1 -2 -2 -1 -2 -2 -1 -2 -2 -1 -1 -2 -1 -2 -2 -2 -1 -2 -1 -2 -1 -2 -1 -3 -1 -2 0 -2 -1 -3 0 -2 -1 -2 0 -3 0 0 200 -7 0 -8 -1 -7 -1 -7 -1 -8 -2 -7 -2 -6 -2 -7 -3 -7 -3 -6 -3 -6 -4 -6 -4 -6 -4 -5 -5 -6 -4 -5 -5 -4 -5 -5 -6 -5 -6 -4 -6 -3 -6 -4 -6 -3 -7 -3 -6 -3 -7 -2 -7 -2 -7 -2 -8 -1 -7 -1 -8 -1 -8 0 -7 0 0zm194 -4439l0 4439 -194 0 0 -4439 0 0 194 0zm-47 -152l0 200 0 0 3 0 2 0 2 0 3 -1 2 0 2 -1 3 -1 2 0 2 -1 2 -1 2 -2 2 -1 2 -1 1 -2 2 -1 2 -2 1 -1 2 -2 1 -2 1 -2 1 -2 2 -2 1 -2 1 -2 0 -2 1 -2 1 -3 0 -2 1 -3 0 -2 0 -3 0 -2 -194 0 0 -8 1 -7 1 -8 1 -8 2 -7 2 -7 2 -7 3 -7 3 -7 3 -6 4 -7 3 -6 4 -6 5 -5 5 -6 4 -5 5 -5 6 -5 5 -4 6 -4 6 -4 6 -4 6 -3 7 -4 7 -2 6 -3 7 -2 8 -1 7 -2 7 -1 8 0 7 -1 0 0zm2702 200l-2702 0 0 -200 2702 0 0 200zm0 -200c54,0 97,45 97,100 0,56 -43,100 -97,100l0 -200z"/>
   </g>
   <g>
    <path class="fil2" d="M2804 1602l-1294 301 -37 -159 1294 -302 37 160zm517 185l-160 37 0 0 -4 -15 -4 -14 -5 -14 -6 -14 -7 -13 -7 -13 -8 -12 -8 -12 -9 -12 -9 -11 -10 -10 -10 -10 -11 -10 -11 -9 -12 -8 -12 -8 -12 -7 -13 -7 -13 -6 -13 -5 -14 -5 -13 -4 -14 -4 -15 -3 -14 -2 -14 -1 -15 -1 -15 0 -15 1 -14 1 -15 3 -15 3 -37 -160 23 -5 23 -3 23 -3 23 -1 23 0 23 1 22 3 22 3 23 4 21 6 22 6 20 8 21 8 20 10 20 10 19 11 18 12 18 13 17 14 17 15 16 15 15 16 15 18 13 17 13 19 12 19 11 20 10 21 10 21 8 22 7 22 6 23 0 0zm124 1254l-284 -1217 160 -37 283 1217 -159 37 0 0zm-185 517l-37 -159 0 0 15 -4 14 -5 14 -5 14 -6 13 -6 12 -7 13 -8 12 -8 11 -9 11 -9 11 -10 10 -11 9 -10 9 -12 9 -11 8 -12 7 -13 7 -12 6 -13 5 -14 5 -13 4 -14 4 -14 2 -14 3 -14 1 -15 1 -14 0 -15 -1 -15 -2 -15 -2 -15 -3 -15 159 -37 5 23 4 23 2 24 1 23 0 23 -1 22 -2 23 -3 22 -5 22 -5 22 -7 21 -7 21 -9 21 -9 20 -10 19 -11 19 -13 19 -13 18 -13 17 -15 17 -16 16 -16 15 -17 14 -18 14 -18 13 -19 12 -20 11 -21 10 -21 9 -22 8 -22 7 -23 6 0 0zm-1331 142l1294 -301 37 159 -1294 302 -37 -160zm-517 -185l159 -37 0 0 4 15 5 14 5 14 6 14 6 13 8 13 7 12 9 12 8 12 10 11 9 10 11 10 11 10 11 9 11 8 12 8 13 7 13 7 13 6 13 5 13 5 14 4 14 4 14 3 15 2 14 1 15 1 14 0 15 -1 15 -1 15 -2 15 -4 37 160 -23 5 -23 3 -23 3 -23 1 -23 0 -23 -1 -22 -3 -23 -3 -22 -4 -21 -6 -22 -6 -21 -8 -20 -8 -20 -10 -20 -10 -19 -11 -19 -12 -17 -13 -18 -14 -16 -15 -16 -15 -16 -16 -14 -18 -14 -17 -13 -19 -12 -19 -11 -20 -10 -21 -9 -21 -8 -22 -7 -22 -6 -23 0 0zm-124 -1254l283 1217 -159 37 -284 -1217 160 -37 0 0zm185 -517l37 159 0 0 -15 4 -14 5 -14 5 -14 6 -13 6 -13 7 -12 8 -12 8 -12 9 -11 9 -10 10 -10 11 -10 10 -9 12 -8 11 -8 12 -7 13 -7 12 -6 13 -5 14 -5 13 -4 14 -4 14 -3 14 -2 14 -1 15 -1 14 0 15 1 15 1 15 3 15 3 15 -160 37 -5 -23 -3 -23 -2 -24 -2 -23 0 -23 1 -22 3 -23 3 -22 4 -22 6 -22 6 -21 8 -21 8 -21 10 -20 10 -19 11 -19 12 -19 13 -18 14 -17 15 -17 15 -16 17 -15 17 -14 17 -14 19 -13 19 -12 20 -11 21 -10 21 -9 22 -8 22 -7 23 -6 0 0z"/>
   </g>
   <g>
    <path class="fil2" d="M2804 1602l-1294 301 -37 -159 1294 -302 37 160zm517 185l-160 37 0 0 -4 -15 -4 -14 -5 -14 -6 -14 -7 -13 -7 -13 -8 -12 -8 -12 -9 -12 -9 -11 -10 -10 -10 -10 -11 -10 -11 -9 -12 -8 -12 -8 -12 -7 -13 -7 -13 -6 -13 -5 -14 -5 -13 -4 -14 -4 -15 -3 -14 -2 -14 -1 -15 -1 -15 0 -15 1 -14 1 -15 2 -15 4 -37 -160 23 -5 23 -3 23 -3 23 -1 23 0 23 1 22 3 22 3 23 4 21 6 22 6 20 8 21 8 20 10 20 10 19 11 18 12 18 13 17 14 17 15 16 15 15 16 15 18 13 17 13 19 12 19 11 20 10 21 10 21 8 22 7 22 6 23 0 0zm124 1254l-284 -1217 160 -37 283 1217 -159 37 0 0zm-185 517l-37 -159 0 0 15 -4 14 -5 14 -5 14 -6 13 -6 12 -7 13 -8 12 -8 11 -9 11 -9 11 -10 10 -11 9 -10 9 -12 9 -11 8 -12 7 -13 7 -12 6 -13 5 -14 5 -13 4 -14 4 -14 2 -14 3 -14 1 -15 1 -14 0 -15 -1 -15 -2 -15 -2 -15 -3 -15 159 -37 5 23 4 23 2 24 1 23 0 23 -1 22 -2 23 -3 22 -5 22 -5 22 -7 21 -7 21 -9 21 -9 20 -10 19 -11 19 -13 19 -13 18 -13 17 -15 17 -16 16 -16 15 -17 14 -18 14 -18 13 -19 12 -20 11 -21 10 -21 9 -22 8 -22 7 -23 6 0 0zm-1331 142l1294 -301 37 159 -1294 302 -37 -160zm-517 -185l159 -37 0 0 4 15 5 14 5 14 6 14 6 13 8 13 7 12 9 12 8 12 10 11 9 10 11 10 11 10 11 9 11 8 12 8 13 7 13 7 13 6 13 5 13 5 14 4 14 4 14 3 15 2 14 1 15 1 14 0 15 -1 15 -1 15 -3 15 -3 37 160 -23 5 -23 3 -23 3 -23 1 -23 0 -23 -1 -22 -3 -23 -3 -22 -4 -21 -6 -22 -6 -21 -8 -20 -8 -20 -10 -20 -10 -19 -11 -18 -12 -18 -13 -18 -14 -16 -15 -16 -15 -16 -16 -14 -18 -14 -17 -13 -19 -12 -19 -11 -20 -10 -21 -9 -21 -8 -22 -7 -22 -6 -23 0 0zm-124 -1254l283 1217 -159 37 -284 -1217 160 -37 0 0zm185 -517l37 159 0 0 -15 4 -14 5 -14 5 -14 6 -13 6 -13 7 -12 8 -12 8 -12 9 -11 9 -10 10 -10 11 -10 10 -9 12 -8 11 -8 12 -7 13 -7 12 -6 13 -5 14 -5 13 -4 14 -4 14 -3 14 -2 14 -1 15 -1 14 0 15 1 15 1 15 3 15 3 15 -160 37 -5 -23 -3 -23 -2 -24 -2 -23 0 -23 1 -22 3 -23 3 -22 4 -22 6 -22 6 -21 8 -21 8 -21 10 -20 10 -19 11 -19 12 -19 13 -18 14 -17 15 -17 15 -16 17 -15 17 -14 17 -14 19 -13 19 -12 20 -11 21 -10 21 -9 22 -8 22 -7 23 -6 0 0z"/>
    <path id="1" class="fil3" d="M1491 1823l1294 -301c203,-48 409,80 456,283l284 1218c47,203 -80,408 -284,456l-1293 301c-204,48 -409,-80 -456,-283l-284 -1218c-47,-203 80,-408 283,-456z"/>
   </g>
   <g>
    <polyline class="fil4 str1" points="1439,3272 1818,2624 2673,3204 3025,2633 3489,2870 "/>
   </g>
   <g>
    <path class="fil5" d="M2804 1602l-1294 301 -37 -159 1294 -302 37 160zm517 185l-160 37 0 0 -4 -15 -4 -14 -5 -14 -6 -14 -7 -13 -7 -13 -8 -12 -8 -12 -9 -12 -9 -11 -10 -10 -10 -10 -11 -10 -11 -9 -12 -8 -12 -8 -12 -7 -13 -7 -13 -6 -13 -5 -14 -5 -13 -4 -14 -4 -15 -3 -14 -2 -14 -1 -15 -1 -15 0 -15 1 -14 1 -15 2 -15 4 -37 -160 23 -5 23 -3 23 -3 23 -1 23 0 23 1 22 3 22 3 23 4 21 6 22 6 20 8 21 8 20 10 20 10 19 11 18 12 18 13 17 14 17 15 16 15 15 16 15 18 13 17 13 19 12 19 11 20 10 21 10 21 8 22 7 22 6 23 0 0zm124 1254l-284 -1217 160 -37 283 1217 -159 37 0 0zm-185 517l-37 -159 0 0 15 -4 14 -5 14 -5 14 -6 13 -6 12 -7 13 -8 12 -8 11 -9 11 -9 11 -10 10 -11 9 -10 9 -12 9 -11 8 -12 7 -13 7 -12 6 -13 5 -14 5 -13 4 -14 4 -14 2 -14 3 -14 1 -15 1 -14 0 -15 -1 -15 -2 -15 -2 -15 -3 -15 159 -37 5 23 4 23 2 24 1 23 0 23 -1 22 -2 23 -3 22 -5 22 -5 22 -7 21 -7 21 -9 21 -9 20 -10 19 -11 19 -13 19 -13 18 -13 17 -15 17 -16 16 -16 15 -17 14 -18 14 -18 13 -19 12 -20 11 -21 10 -21 9 -22 8 -22 7 -23 6 0 0zm-1331 142l1294 -301 37 159 -1294 302 -37 -160zm-517 -185l159 -37 0 0 4 15 5 14 5 14 6 14 6 13 8 13 7 12 9 12 8 12 10 11 9 10 11 10 11 10 11 9 11 8 12 8 13 7 13 7 13 6 13 5 13 5 14 4 14 4 14 3 15 2 14 1 15 1 14 0 15 -1 15 -1 15 -3 15 -3 37 160 -23 5 -23 3 -23 3 -23 1 -23 0 -23 -1 -22 -3 -23 -3 -22 -4 -21 -6 -22 -6 -21 -8 -20 -8 -20 -10 -20 -10 -19 -11 -18 -12 -18 -13 -18 -14 -16 -15 -16 -15 -16 -16 -14 -18 -14 -17 -13 -19 -12 -19 -11 -20 -10 -21 -9 -21 -8 -22 -7 -22 -6 -23 0 0zm-124 -1254l283 1217 -159 37 -284 -1217 160 -37 0 0zm185 -517l37 159 0 0 -15 4 -14 5 -14 5 -14 6 -13 6 -13 7 -12 8 -12 8 -12 9 -11 9 -10 10 -10 11 -10 10 -9 12 -8 11 -8 12 -7 13 -7 12 -6 13 -5 14 -5 13 -4 14 -4 14 -3 14 -2 14 -1 15 -1 14 0 15 1 15 1 15 3 15 3 15 -160 37 -5 -23 -3 -23 -2 -24 -2 -23 0 -23 1 -22 3 -23 3 -22 4 -22 6 -22 6 -21 8 -21 8 -21 10 -20 10 -19 11 -19 12 -19 13 -18 14 -17 15 -17 15 -16 17 -15 17 -14 17 -14 19 -13 19 -12 20 -11 21 -10 21 -9 22 -8 22 -7 23 -6 0 0z"/>
    <path id="1" class="fil0" d="M1491 1823l1294 -301c203,-48 409,80 456,283l284 1218c47,203 -80,408 -284,456l-1293 301c-204,48 -409,-80 -456,-283l-284 -1218c-47,-203 80,-408 283,-456z"/>
   </g>
   <path class="fil6" d="M2756 2377c27,43 118,88 98,196 -6,34 -63,155 -78,192 -17,42 -35,85 -54,126 -19,42 -36,84 -54,127 -20,47 -19,55 -40,35 -42,-38 -113,-98 -157,-133 -93,-77 -230,-187 -302,-284 -63,-85 -83,-209 -55,-306 24,-82 78,-168 155,-223 75,-53 228,-108 313,-65l-53 198c-104,27 -140,33 -184,107 -34,57 -21,147 33,198 96,90 254,40 282,-86 5,-21 2,-34 5,-52l91 -30zm-117 -370c-27,-6 -50,-15 -81,-20 -94,-13 -196,5 -277,53 -205,123 -293,398 -167,598 56,87 157,175 224,231 81,68 161,134 242,204 5,5 11,8 16,14 12,13 24,28 54,24 38,-4 44,-35 54,-58l181 -437c12,-29 18,-45 18,-82 0,-94 -76,-151 -138,-210l-159 50c7,53 19,94 -29,137 -43,39 -99,39 -141,17 -35,-19 -70,-74 -60,-131 19,-97 116,-93 192,-117l71 -273z"/>
   <g>
    <path class="fil2" d="M3402 1359l-1329 0 0 -164 1329 0 0 0 0 164zm461 298l-163 0 0 0 -1 -16 -1 -15 -2 -14 -3 -15 -3 -14 -4 -14 -5 -14 -5 -14 -6 -13 -6 -13 -8 -12 -7 -12 -9 -12 -9 -11 -9 -11 -10 -10 -10 -10 -11 -10 -11 -9 -12 -8 -12 -8 -13 -7 -13 -7 -13 -5 -13 -6 -14 -5 -14 -4 -14 -3 -15 -2 -15 -2 -15 -2 -15 0 0 -164 23 1 24 2 23 3 23 4 22 5 22 6 21 8 21 8 21 9 20 10 19 11 19 12 18 13 17 14 17 15 16 15 15 16 15 17 13 17 13 18 12 19 11 19 11 20 9 20 8 21 7 22 7 22 5 22 4 23 3 23 2 23 0 24 0 0zm-163 1250l0 -1250 163 0 0 1250 0 0 -163 0zm-298 461l0 -164 0 0 15 0 15 -1 15 -2 15 -3 14 -3 14 -4 14 -5 13 -5 13 -6 13 -7 13 -7 12 -8 12 -8 11 -9 11 -9 10 -10 10 -10 9 -11 9 -12 9 -11 7 -12 8 -13 6 -13 6 -13 5 -13 5 -14 4 -14 3 -14 3 -15 2 -15 1 -15 1 -15 163 0 0 23 -2 24 -3 23 -4 23 -5 22 -7 22 -7 21 -8 21 -9 21 -11 19 -11 20 -12 18 -13 19 -13 17 -15 17 -15 16 -16 15 -17 14 -17 14 -18 13 -19 12 -19 11 -20 10 -21 10 -21 8 -21 7 -22 7 -22 5 -23 4 -23 3 -24 2 -23 0 0 0zm-1329 -164l1329 0 0 164 -1329 0 0 0 0 -164zm-461 -297l164 0 0 0 0 15 1 15 2 15 3 15 3 14 4 14 5 14 5 13 6 13 7 13 7 13 8 12 8 11 9 12 9 11 10 10 11 10 11 9 11 9 12 8 12 8 12 7 13 7 13 6 14 5 13 5 14 4 15 3 14 3 15 2 15 1 15 0 0 164 -23 0 -24 -2 -23 -3 -22 -4 -23 -5 -22 -7 -21 -7 -21 -8 -20 -10 -20 -10 -20 -11 -18 -12 -18 -13 -18 -14 -16 -14 -16 -15 -16 -16 -14 -17 -14 -17 -13 -18 -12 -19 -11 -20 -10 -19 -9 -21 -9 -21 -7 -21 -6 -22 -6 -22 -4 -23 -3 -23 -1 -24 -1 -23 0 0zm164 -1250l0 1250 -164 0 0 -1250 0 0 164 0zm297 -462l0 164 0 0 -15 0 -15 2 -15 2 -14 2 -15 3 -14 4 -13 5 -14 6 -13 5 -13 7 -12 7 -12 8 -12 8 -11 9 -11 10 -11 10 -10 10 -9 11 -9 11 -8 12 -8 12 -7 12 -7 13 -6 13 -5 14 -5 14 -4 14 -3 14 -3 15 -2 14 -1 15 0 16 -164 0 1 -24 1 -23 3 -23 4 -23 6 -22 6 -22 7 -22 9 -21 9 -20 10 -20 11 -19 12 -19 13 -18 14 -17 14 -17 16 -16 16 -15 16 -15 18 -14 18 -13 18 -12 20 -11 20 -10 20 -9 21 -8 21 -8 22 -6 23 -5 22 -4 23 -3 24 -2 23 -1 0 0z"/>
    <path id="1" class="fil3" d="M2073 1277l1329 0c209,0 379,171 379,380l0 1250c0,209 -170,379 -379,379l-1329 0c-208,0 -379,-170 -379,-379l0 -1250c0,-209 171,-380 379,-380z"/>
   </g>
   <g>
    <path class="fil5" d="M3402 1359l-1329 0 0 -164 1329 0 0 0 0 164zm461 298l-163 0 0 0 -1 -16 -1 -15 -2 -14 -3 -15 -3 -14 -4 -14 -5 -14 -5 -14 -6 -13 -6 -13 -8 -12 -7 -12 -9 -12 -9 -11 -9 -11 -10 -10 -10 -10 -11 -10 -11 -9 -12 -8 -12 -8 -13 -7 -13 -7 -13 -5 -13 -6 -14 -5 -14 -4 -14 -3 -15 -2 -15 -2 -15 -2 -15 0 0 -164 23 1 24 2 23 3 23 4 22 5 22 6 21 8 21 8 21 9 20 10 19 11 19 12 18 13 17 14 17 15 16 15 15 16 15 17 13 17 13 18 12 19 11 19 11 20 9 20 8 21 7 22 7 22 5 22 4 23 3 23 2 23 0 24 0 0zm-163 1250l0 -1250 163 0 0 1250 0 0 -163 0zm-298 461l0 -164 0 0 15 0 15 -1 15 -2 15 -3 14 -3 14 -4 14 -5 13 -5 13 -6 13 -7 13 -7 12 -8 12 -8 11 -9 11 -9 10 -10 10 -10 9 -11 9 -12 9 -11 7 -12 8 -13 6 -13 6 -13 5 -13 5 -14 4 -14 3 -14 3 -15 2 -15 1 -15 1 -15 163 0 0 23 -2 24 -3 23 -4 23 -5 22 -7 22 -7 21 -8 21 -9 21 -11 19 -11 20 -12 18 -13 19 -13 17 -15 17 -15 16 -16 15 -17 14 -17 14 -18 13 -19 12 -19 11 -20 10 -21 10 -21 8 -21 7 -22 7 -22 5 -23 4 -23 3 -24 2 -23 0 0 0zm-1329 -164l1329 0 0 164 -1329 0 0 0 0 -164zm-461 -297l164 0 0 0 0 15 1 15 2 15 3 15 3 14 4 14 5 14 5 13 6 13 7 13 7 13 8 12 8 11 9 12 9 11 10 10 11 10 11 9 11 9 12 8 12 8 12 7 13 7 13 6 14 5 13 5 14 4 15 3 14 3 15 2 15 1 15 0 0 164 -23 0 -24 -2 -23 -3 -22 -4 -23 -5 -22 -7 -21 -7 -21 -8 -20 -10 -20 -10 -20 -11 -18 -12 -18 -13 -18 -14 -16 -14 -16 -15 -16 -16 -14 -17 -14 -17 -13 -18 -12 -19 -11 -20 -10 -19 -9 -21 -9 -21 -7 -21 -6 -22 -6 -22 -4 -23 -3 -23 -1 -24 -1 -23 0 0zm164 -1250l0 1250 -164 0 0 -1250 0 0 164 0zm297 -462l0 164 0 0 -15 0 -15 2 -15 2 -14 2 -15 3 -14 4 -13 5 -14 6 -13 5 -13 7 -12 7 -12 8 -12 8 -11 9 -11 10 -11 10 -10 10 -9 11 -9 11 -8 12 -8 12 -7 12 -7 13 -6 13 -5 14 -5 14 -4 14 -3 14 -3 15 -2 14 -1 15 0 16 -164 0 1 -24 1 -23 3 -23 4 -23 6 -22 6 -22 7 -22 9 -21 9 -20 10 -20 11 -19 12 -19 13 -18 14 -17 14 -17 16 -16 16 -15 16 -15 18 -14 18 -13 18 -12 20 -11 20 -10 20 -9 21 -8 21 -8 22 -6 23 -5 22 -4 23 -3 24 -2 23 -1 0 0z"/>
    <path id="1" class="fil7" d="M2073 1277l1329 0c209,0 379,171 379,380l0 1250c0,209 -170,379 -379,379l-1329 0c-208,0 -379,-170 -379,-379l0 -1250c0,-209 171,-380 379,-380z"/>
   </g>
   <g>
    <path class="fil4 str2" d="M3781 2750c12,387 -131,550 -397,536l-1311 0c-219,-33 -357,-148 -379,-379l0 -222 516 -554 701 759 472 -476 398 336z"/>
    <path id="1" class="fil8" d="M3781 2750c12,387 -131,550 -397,536l-1311 0c-219,-33 -357,-148 -379,-379l0 -222 516 -554 701 759 472 -476 398 336z"/>
   </g>
   <g>
    <path class="fil9" d="M3625 1681l-99 0 0 0 -1 -6 0 -6 -1 -6 -1 -6 -1 -5 -2 -6 -1 -5 -3 -6 -2 -5 -2 -5 -3 -4 -3 -5 -3 -5 -4 -4 -3 -4 -4 -4 -4 -4 -5 -4 -4 -3 -4 -3 -5 -3 -5 -3 -5 -3 -5 -2 -5 -2 -5 -2 -6 -1 -5 -2 -6 -1 -6 0 -6 -1 -6 0 0 -99 11 0 11 1 11 1 11 2 10 3 10 3 10 3 10 4 10 4 9 5 9 5 9 6 8 6 8 6 8 7 8 7 7 7 6 8 7 8 6 9 5 8 6 9 4 10 5 9 3 10 4 10 3 10 2 10 2 11 1 11 1 11 0 11 0 0zm-215 214l0 -99 0 0 6 0 6 0 6 -1 6 -1 5 -1 6 -2 5 -2 5 -2 5 -2 5 -3 5 -2 5 -3 4 -4 4 -3 5 -4 4 -4 3 -4 4 -4 4 -4 3 -5 3 -4 3 -5 2 -5 2 -5 3 -6 1 -5 2 -5 1 -6 1 -6 1 -5 0 -6 1 -6 99 0 0 11 -1 10 -1 11 -2 11 -2 10 -3 10 -4 10 -3 10 -5 10 -4 9 -6 9 -5 8 -6 9 -7 8 -6 8 -7 7 -8 7 -8 7 -8 6 -8 6 -9 6 -9 5 -9 5 -10 4 -10 4 -10 4 -10 2 -10 3 -11 2 -11 1 -11 1 -11 0 0 0zm-215 -214l100 0 0 0 0 6 1 6 1 5 1 6 1 6 1 5 2 5 2 6 3 5 2 5 3 5 3 4 3 5 4 4 3 4 4 4 4 4 4 4 5 3 4 4 5 3 5 2 5 3 5 2 5 2 5 2 6 2 5 1 6 1 6 1 5 0 6 0 0 99 -11 0 -11 -1 -10 -1 -11 -2 -10 -3 -11 -2 -10 -4 -9 -4 -10 -4 -9 -5 -9 -5 -9 -6 -8 -6 -9 -6 -7 -7 -8 -7 -7 -7 -7 -8 -6 -8 -6 -9 -6 -8 -5 -9 -4 -9 -5 -10 -4 -10 -3 -10 -3 -10 -2 -10 -2 -11 -2 -11 0 -10 -1 -11 0 0zm215 -215l0 99 0 0 -6 0 -5 1 -6 0 -6 1 -5 2 -6 1 -5 2 -5 2 -5 2 -5 3 -5 3 -5 3 -4 3 -5 3 -4 4 -4 4 -4 4 -3 4 -4 4 -3 5 -3 5 -3 4 -2 5 -3 5 -2 6 -2 5 -1 6 -1 5 -1 6 -1 6 -1 6 0 6 -100 0 1 -11 0 -11 2 -11 2 -11 2 -10 3 -10 3 -10 4 -10 5 -9 4 -10 5 -9 6 -8 6 -9 6 -8 7 -8 7 -7 8 -7 7 -7 9 -6 8 -6 9 -6 9 -5 9 -5 10 -4 9 -4 10 -3 11 -3 10 -3 11 -2 10 -1 11 -1 11 0 0 0z"/>
    <path id="1" class="fil10" d="M3410 1516c92,0 165,73 165,165 0,91 -73,165 -165,165 -91,0 -165,-74 -165,-165 0,-92 74,-165 165,-165z"/>
   </g>
  </g>
 </g>
</svg>
