<?xml version="1.0" encoding="UTF-8"?>
<!DOCTYPE svg PUBLIC "-//W3C//DTD SVG 1.1//EN" "http://www.w3.org/Graphics/SVG/1.1/DTD/svg11.dtd">
<!-- Creator: CorelDRAW X8 -->
<svg xmlns="http://www.w3.org/2000/svg" xml:space="preserve" width="50.5mm" height="50mm" version="1.1" style="shape-rendering:geometricPrecision; text-rendering:geometricPrecision; image-rendering:optimizeQuality; fill-rule:evenodd; clip-rule:evenodd"
viewBox="0 0 5050 5000"
 xmlns:xlink="http://www.w3.org/1999/xlink">
 <defs>
  <style type="text/css">
   <![CDATA[
    .str0 {stroke:#96989A;stroke-width:140.33;stroke-linecap:round;stroke-linejoin:round}
    .str1 {stroke:#495C80;stroke-width:140.33;stroke-linecap:round;stroke-linejoin:round}
    .fil3 {fill:none}
    .fil2 {fill:#FEFEFE}
    .fil7 {fill:#495C80}
    .fil5 {fill:#FD2F33}
    .fil0 {fill:#D2D3D5;fill-rule:nonzero}
    .fil4 {fill:#96989A;fill-rule:nonzero}
    .fil1 {fill:#373435;fill-rule:nonzero}
    .fil6 {fill:#495C80;fill-rule:nonzero}
   ]]>
  </style>
 </defs>
 <g id="Capa_x0020_1">
  <metadata id="CorelCorpID_0Corel-Layer"/>
  <g id="_1514418535808">
   <g>
    <path class="fil0" d="M4723 1995c0,-55 43,-100 97,-100 54,0 97,45 97,100l-194 0zm0 2281l0 -2281 194 0 0 2281 0 0 -194 0zm-383 595l0 -200 0 0 20 -1 19 -1 19 -3 19 -3 18 -5 18 -5 18 -6 17 -7 17 -8 17 -9 16 -9 16 -11 15 -11 14 -12 14 -12 13 -13 13 -14 12 -14 12 -15 10 -16 10 -16 10 -16 8 -17 8 -18 7 -18 6 -18 5 -18 4 -19 4 -20 2 -19 1 -20 1 -21 194 0 -1 31 -2 30 -4 30 -5 29 -6 29 -8 28 -9 27 -10 27 -12 27 -13 25 -14 25 -15 24 -16 24 -17 22 -18 22 -19 20 -20 20 -21 19 -22 17 -23 17 -23 15 -24 15 -25 13 -26 12 -26 11 -27 9 -27 8 -28 7 -28 5 -29 4 -29 2 -30 1 0 0zm-4060 -200l4060 0 0 200 -4060 0 0 0 0 -200zm-147 48l194 0 0 0 0 -2 0 -3 -1 -2 0 -2 0 -3 -1 -2 -1 -3 -1 -2 -1 -2 -1 -2 -1 -2 -1 -2 -1 -2 -2 -2 -1 -1 -2 -2 -1 -2 -2 -1 -2 -2 -1 -1 -2 -1 -2 -1 -2 -1 -2 -1 -3 -1 -2 -1 -2 -1 -3 0 -2 -1 -2 0 -3 0 -2 0 0 200 -8 0 -7 -1 -7 -1 -8 -1 -7 -2 -7 -2 -7 -2 -6 -3 -7 -3 -6 -4 -6 -3 -6 -4 -6 -4 -6 -5 -5 -5 -5 -5 -5 -5 -4 -5 -5 -6 -4 -6 -4 -6 -3 -6 -3 -7 -3 -7 -3 -7 -2 -7 -2 -7 -2 -7 -1 -8 -1 -7 -1 -8 0 -8 0 0zm194 -4438l0 4438 -194 0 0 -4438 0 0 194 0zm-47 -152l0 200 0 0 2 0 3 0 2 0 2 -1 3 0 2 -1 2 -1 3 -1 2 -1 2 -1 2 -1 2 -1 1 -1 2 -2 2 -1 1 -2 2 -2 1 -1 2 -2 1 -2 1 -2 1 -2 1 -2 1 -2 1 -2 1 -3 1 -2 0 -3 0 -2 1 -2 0 -3 0 -2 -194 0 0 -8 1 -8 1 -7 1 -8 2 -7 2 -7 2 -7 3 -7 3 -7 3 -7 3 -6 4 -6 4 -6 5 -6 4 -5 5 -5 5 -5 5 -5 6 -5 6 -4 6 -4 6 -3 6 -4 7 -3 6 -3 7 -2 7 -2 7 -2 8 -1 7 -1 7 -1 8 0 0 0zm2702 200l-2702 0 0 -200 2702 0 0 200zm0 -200c53,0 97,45 97,100 0,55 -44,100 -97,100l0 -200z"/>
   </g>
   <g>
    <path class="fil1" d="M2849 1554l-1293 302 -37 -159 1293 -302 37 159zm517 185l-159 38 0 0 -4 -15 -4 -15 -6 -14 -6 -13 -6 -13 -7 -13 -8 -12 -8 -12 -9 -12 -9 -11 -10 -10 -10 -10 -11 -10 -11 -9 -12 -8 -12 -8 -12 -7 -13 -7 -13 -6 -13 -6 -14 -5 -14 -4 -14 -3 -14 -3 -14 -2 -15 -2 -14 0 -15 0 -15 0 -15 2 -15 2 -15 3 -37 -159 23 -5 24 -3 23 -3 23 -1 23 0 22 1 23 2 22 4 22 4 22 5 21 7 21 7 21 9 20 9 19 11 19 11 19 12 18 13 17 14 17 14 16 16 15 16 14 17 14 18 13 19 12 19 11 20 10 20 9 21 8 22 7 23 6 22 0 0zm125 1255l-284 -1217 159 -38 284 1218 -159 37 0 0zm-185 517l-38 -159 0 0 15 -4 15 -5 14 -5 13 -6 13 -6 13 -8 13 -7 11 -9 12 -8 11 -10 10 -9 10 -11 10 -11 9 -11 8 -11 8 -12 8 -13 6 -13 6 -13 6 -13 5 -13 4 -14 3 -14 3 -14 2 -15 2 -14 0 -15 0 -14 0 -15 -2 -15 -2 -15 -3 -15 159 -37 5 23 4 23 2 23 1 23 0 23 -1 23 -2 23 -4 22 -4 22 -5 22 -7 21 -7 21 -9 20 -9 20 -10 20 -12 19 -12 19 -13 17 -14 18 -14 16 -16 16 -16 16 -17 14 -18 14 -19 13 -19 12 -20 11 -20 10 -21 9 -22 8 -23 7 -22 6 0 0zm-1331 142l1293 -301 38 159 -1294 302 -37 -160zm-517 -185l159 -37 0 0 4 15 5 14 5 14 6 14 6 13 7 13 8 12 8 12 9 11 9 11 10 11 11 10 10 9 12 9 11 9 12 8 13 7 12 7 13 6 14 5 13 5 14 4 14 4 14 3 14 2 15 1 14 1 15 0 15 -1 15 -1 15 -3 15 -3 37 160 -23 4 -23 4 -24 2 -23 1 -22 0 -23 -1 -23 -2 -22 -3 -22 -5 -22 -5 -21 -6 -21 -8 -21 -8 -20 -10 -19 -10 -19 -11 -19 -12 -18 -13 -17 -14 -17 -15 -16 -15 -15 -17 -14 -17 -14 -18 -13 -18 -12 -19 -11 -20 -10 -21 -9 -21 -8 -22 -7 -22 -6 -23 0 0zm-125 -1255l284 1218 -159 37 -284 -1217 159 -38 0 0zm186 -516l37 159 0 0 -15 4 -14 4 -14 6 -14 5 -13 7 -13 7 -12 8 -12 8 -12 9 -11 9 -10 10 -10 10 -10 11 -9 11 -8 12 -8 12 -7 12 -7 13 -6 13 -6 13 -4 14 -5 14 -3 14 -3 14 -2 14 -2 15 0 14 0 15 0 15 2 15 2 14 3 15 -159 38 -5 -24 -3 -23 -3 -23 -1 -23 0 -23 1 -23 2 -22 4 -22 4 -22 6 -22 6 -21 7 -21 9 -21 9 -20 11 -20 11 -19 12 -18 13 -18 14 -17 15 -17 15 -16 16 -15 17 -15 18 -13 19 -13 19 -12 20 -11 20 -10 22 -9 21 -8 23 -8 23 -5 0 0z"/>
   </g>
   <g>
    <path class="fil1" d="M2849 1554l-1293 302 -37 -159 1293 -302 37 159zm517 185l-159 38 0 0 -4 -15 -4 -15 -6 -14 -6 -13 -6 -13 -7 -13 -8 -12 -8 -12 -9 -12 -9 -11 -10 -10 -10 -10 -11 -10 -11 -9 -12 -8 -12 -8 -12 -7 -13 -7 -13 -6 -13 -6 -14 -5 -14 -4 -14 -3 -14 -3 -14 -2 -15 -2 -14 0 -15 0 -15 0 -15 2 -15 2 -15 3 -37 -159 23 -5 24 -3 23 -3 23 -1 23 0 22 1 23 2 22 4 22 4 22 5 21 7 21 7 21 9 20 9 19 11 19 11 19 12 18 13 17 14 17 14 16 16 15 16 14 17 14 18 13 19 12 19 11 20 10 20 9 21 8 22 7 23 6 22 0 0zm125 1255l-284 -1217 159 -38 284 1218 -159 37 0 0zm-185 517l-38 -159 0 0 15 -4 15 -5 14 -5 13 -6 13 -6 13 -8 13 -7 11 -9 12 -8 11 -10 10 -9 10 -11 10 -11 9 -11 8 -11 8 -12 8 -13 6 -13 6 -13 6 -13 5 -13 4 -14 3 -14 3 -14 2 -15 2 -14 0 -15 0 -14 0 -15 -2 -15 -2 -15 -3 -15 159 -37 5 23 4 23 2 23 1 23 0 23 -1 23 -2 23 -4 22 -4 22 -5 22 -7 21 -7 21 -9 20 -9 20 -10 20 -12 19 -12 19 -13 17 -14 18 -14 16 -16 16 -16 16 -17 14 -18 14 -18 13 -20 12 -20 11 -20 10 -21 9 -22 8 -23 7 -22 6 0 0zm-1331 142l1293 -301 38 159 -1294 302 -37 -160zm-517 -185l159 -37 0 0 4 15 5 14 5 14 6 14 6 13 7 13 8 12 8 12 9 11 9 11 10 11 11 10 10 9 12 9 11 9 12 8 13 7 12 7 13 6 14 5 13 5 14 4 14 4 14 3 14 2 15 1 14 1 15 0 15 -1 15 -1 15 -3 15 -3 37 160 -23 4 -23 4 -24 2 -23 1 -22 0 -23 -1 -23 -2 -22 -3 -22 -5 -22 -5 -21 -7 -21 -7 -21 -8 -20 -10 -19 -10 -19 -11 -19 -12 -18 -13 -17 -14 -17 -15 -16 -15 -15 -17 -14 -17 -14 -18 -13 -18 -12 -19 -11 -20 -10 -21 -9 -21 -8 -22 -7 -22 -6 -23 0 0zm-125 -1255l284 1218 -159 37 -284 -1217 159 -38 0 0zm186 -516l37 159 0 0 -15 4 -14 4 -14 6 -14 5 -13 7 -13 7 -12 8 -12 8 -12 9 -11 9 -10 10 -10 10 -10 11 -9 11 -8 12 -8 12 -7 12 -7 13 -6 13 -6 13 -4 14 -5 14 -3 14 -3 14 -2 14 -2 15 0 14 0 15 0 15 2 15 2 14 3 15 -159 38 -5 -24 -3 -23 -3 -23 -1 -23 0 -23 1 -23 2 -22 4 -22 4 -22 6 -22 6 -21 7 -21 9 -21 9 -20 11 -20 11 -19 12 -18 13 -18 14 -17 15 -17 15 -16 16 -15 17 -15 18 -13 19 -13 19 -12 20 -11 20 -10 22 -9 21 -8 23 -8 23 -5 0 0z"/>
    <path id="1" class="fil2" d="M1537 1776l1294 -301c203,-48 408,80 456,283l283 1217c48,204 -80,409 -283,456l-1294 302c-203,47 -408,-80 -455,-284l-284 -1217c-48,-203 80,-408 283,-456z"/>
   </g>
   <g>
    <polyline class="fil3 str0" points="1485,3224 1864,2577 2719,3157 3070,2586 3535,2823 "/>
   </g>
   <g>
    <path class="fil4" d="M2849 1554l-1293 302 -37 -159 1293 -302 37 159zm517 185l-159 38 0 0 -4 -15 -4 -15 -6 -14 -6 -13 -6 -13 -7 -13 -8 -12 -8 -12 -9 -12 -9 -11 -10 -10 -10 -10 -11 -10 -11 -9 -12 -8 -12 -8 -12 -7 -13 -7 -13 -6 -13 -6 -14 -5 -14 -4 -14 -3 -14 -3 -14 -2 -15 -2 -14 0 -15 0 -15 0 -15 2 -15 2 -15 3 -37 -159 23 -5 24 -3 23 -3 23 -1 23 0 22 1 23 2 22 4 22 4 22 5 21 7 21 7 21 9 20 9 19 11 19 11 19 12 18 13 17 14 17 14 16 16 15 16 14 17 14 18 13 19 12 19 11 20 10 20 9 21 8 22 7 23 6 22 0 0zm125 1255l-284 -1217 159 -38 284 1218 -159 37 0 0zm-185 517l-38 -159 0 0 15 -4 15 -5 14 -5 13 -6 13 -6 13 -8 13 -7 11 -9 12 -8 11 -10 10 -9 10 -11 10 -11 9 -11 8 -11 8 -12 8 -13 6 -13 6 -13 6 -13 5 -13 4 -14 3 -14 3 -14 2 -15 2 -14 0 -15 0 -14 0 -15 -2 -15 -2 -15 -3 -15 159 -37 5 23 4 23 2 23 1 23 0 23 -1 23 -2 23 -4 22 -4 22 -5 22 -7 21 -7 21 -9 20 -9 20 -10 20 -12 19 -12 19 -13 17 -14 18 -14 16 -16 16 -16 16 -17 14 -18 14 -18 13 -20 12 -20 11 -20 10 -21 9 -22 8 -23 7 -22 6 0 0zm-1331 142l1293 -301 38 159 -1294 302 -37 -160zm-517 -185l159 -37 0 0 4 15 5 14 5 14 6 14 6 13 7 13 8 12 8 12 9 11 9 11 10 11 11 10 10 9 12 9 11 9 12 8 13 7 12 7 13 6 14 5 13 5 14 4 14 4 14 3 14 2 15 1 14 1 15 0 15 -1 15 -1 15 -3 15 -3 37 160 -23 4 -23 4 -24 2 -23 1 -22 0 -23 -1 -23 -2 -22 -3 -22 -5 -22 -5 -21 -7 -21 -7 -21 -8 -20 -10 -19 -10 -19 -11 -19 -12 -18 -13 -17 -14 -17 -15 -16 -15 -15 -17 -14 -17 -14 -18 -13 -18 -12 -19 -11 -20 -10 -21 -9 -21 -8 -22 -7 -22 -6 -23 0 0zm-125 -1255l284 1218 -159 37 -284 -1217 159 -38 0 0zm186 -516l37 159 0 0 -15 4 -14 4 -14 6 -14 5 -13 7 -13 7 -12 8 -12 8 -12 9 -11 9 -10 10 -10 10 -10 11 -9 11 -8 12 -8 12 -7 12 -7 13 -6 13 -6 13 -4 14 -5 14 -3 14 -3 14 -2 14 -2 15 0 14 0 15 0 15 2 15 2 14 3 15 -159 38 -5 -24 -3 -23 -3 -23 -1 -23 0 -23 1 -23 2 -22 4 -22 4 -22 6 -22 6 -21 7 -21 9 -21 9 -20 11 -20 11 -19 12 -18 13 -18 14 -17 15 -17 15 -16 16 -15 17 -15 18 -13 19 -13 19 -12 20 -11 20 -10 22 -9 21 -8 23 -8 23 -5 0 0z"/>
   </g>
   <path class="fil5" d="M2802 2330c27,43 117,88 98,195 -6,35 -63,156 -78,193 -18,42 -36,85 -54,126 -19,42 -36,83 -54,126 -20,48 -19,56 -41,36 -41,-39 -113,-98 -156,-134 -94,-77 -230,-186 -302,-283 -63,-85 -83,-209 -55,-306 23,-83 77,-168 155,-223 75,-53 228,-108 313,-65l-53 198c-105,26 -140,33 -184,107 -34,56 -21,147 33,197 96,90 254,41 282,-86 4,-20 1,-33 4,-51l92 -30zm-117 -371c-27,-6 -50,-14 -82,-19 -93,-14 -195,5 -276,53 -205,123 -293,397 -167,597 55,88 156,175 223,232 81,67 162,134 243,204 5,4 10,8 15,13 13,14 24,28 55,25 38,-5 44,-35 53,-58l182 -437c11,-29 18,-45 18,-83 -1,-93 -76,-150 -138,-209l-159 50c7,53 18,94 -29,137 -43,39 -100,39 -141,17 -35,-19 -71,-74 -60,-131 19,-97 116,-93 192,-117l71 -274z"/>
   <g>
    <path class="fil1" d="M3448 1312l-1329 0 0 -164 1329 0 0 0 0 164zm461 297l-164 0 0 0 0 -15 -1 -15 -2 -15 -3 -14 -3 -15 -4 -14 -5 -13 -5 -14 -6 -13 -7 -13 -7 -12 -8 -12 -8 -12 -9 -11 -9 -11 -10 -11 -11 -10 -10 -9 -12 -9 -11 -8 -13 -8 -12 -7 -13 -7 -13 -6 -13 -5 -14 -5 -14 -4 -15 -3 -14 -3 -15 -2 -15 -1 -15 0 0 -164 23 1 24 1 23 3 22 5 23 5 22 6 21 7 21 9 20 9 20 10 20 11 18 12 18 13 18 14 17 14 16 16 15 16 14 16 14 18 13 18 12 18 11 20 10 20 10 20 8 21 7 22 6 21 6 23 4 22 3 24 1 23 1 23 0 0zm-164 1251l0 -1251 164 0 0 1251 0 0 -164 0zm-297 461l0 -164 0 0 15 0 15 -1 15 -2 14 -3 15 -3 14 -4 14 -5 13 -5 13 -6 13 -7 12 -7 13 -8 11 -8 12 -9 10 -9 11 -10 10 -11 9 -11 9 -11 8 -12 8 -12 7 -12 7 -13 6 -13 5 -14 5 -13 4 -14 3 -15 3 -14 2 -15 1 -15 0 -15 164 0 -1 23 -1 23 -3 24 -4 22 -6 23 -6 21 -7 22 -8 21 -10 20 -10 20 -11 20 -12 18 -13 18 -14 18 -14 16 -15 16 -16 16 -17 14 -18 14 -18 13 -18 12 -20 11 -20 10 -20 9 -21 9 -21 7 -22 6 -23 5 -22 5 -23 3 -24 1 -23 1 0 0zm-1329 -164l1329 0 0 164 -1329 0 0 0 0 -164zm-461 -297l163 0 0 0 1 15 1 15 2 15 3 14 3 15 4 14 5 13 5 14 6 13 6 13 8 12 7 12 9 12 9 11 9 11 10 11 10 10 11 9 12 9 11 8 12 8 13 7 13 7 13 6 13 5 14 5 14 4 14 3 15 3 15 2 15 1 15 0 0 164 -23 -1 -24 -1 -23 -3 -23 -5 -22 -5 -22 -6 -21 -7 -21 -9 -21 -9 -20 -10 -19 -11 -19 -12 -18 -13 -17 -14 -17 -14 -16 -16 -15 -16 -15 -16 -13 -18 -13 -18 -12 -18 -11 -20 -10 -20 -10 -20 -8 -21 -7 -22 -7 -21 -5 -23 -4 -22 -3 -24 -2 -23 0 -23 0 0zm163 -1251l0 1251 -163 0 0 -1251 0 0 163 0zm298 -461l0 164 0 0 -15 0 -15 1 -15 2 -15 3 -14 3 -14 4 -14 5 -13 5 -13 6 -13 7 -13 7 -12 8 -11 8 -12 9 -11 9 -10 10 -10 11 -9 11 -9 11 -9 12 -7 12 -8 12 -6 13 -6 13 -5 14 -5 13 -4 14 -3 15 -3 14 -2 15 -1 15 -1 15 -163 0 0 -23 2 -23 3 -24 4 -22 5 -23 7 -21 7 -22 8 -21 10 -20 10 -20 11 -20 12 -18 13 -18 13 -18 15 -16 15 -16 16 -16 17 -14 17 -14 18 -13 19 -12 19 -11 20 -10 21 -9 21 -9 21 -7 22 -6 22 -5 23 -5 23 -3 24 -1 23 -1 0 0z"/>
    <path id="1" class="fil2" d="M2119 1230l1329 0c208,0 379,171 379,379l0 1251c0,208 -171,379 -379,379l-1329 0c-209,0 -379,-171 -379,-379l0 -1251c0,-208 170,-379 379,-379z"/>
   </g>
   <g>
    <polyline class="fil3 str1" points="1740,2628 2255,2084 2957,2843 3429,2367 3827,2703 "/>
   </g>
   <g>
    <path class="fil6" d="M3671 1633l-100 0 0 0 0 -6 0 -6 -1 -5 -1 -6 -1 -6 -2 -5 -2 -6 -2 -5 -2 -5 -3 -5 -2 -5 -3 -4 -4 -5 -3 -4 -4 -5 -4 -4 -4 -3 -4 -4 -4 -3 -5 -4 -4 -3 -5 -2 -5 -3 -5 -2 -5 -2 -6 -2 -5 -2 -6 -1 -5 -1 -6 -1 -6 0 -6 0 0 -99 11 0 11 1 11 1 10 2 11 2 10 3 10 4 10 4 10 4 9 5 9 5 9 6 8 5 8 7 8 7 7 7 7 7 7 8 7 8 5 8 6 9 5 9 5 9 4 10 4 10 4 10 2 10 3 10 2 11 1 10 1 11 0 11 0 0zm-215 215l0 -99 0 0 6 0 6 -1 6 0 5 -1 6 -2 5 -1 6 -2 5 -2 5 -2 5 -3 5 -3 4 -3 5 -3 4 -3 4 -4 4 -4 4 -4 4 -4 3 -4 4 -5 3 -5 2 -4 3 -5 2 -6 2 -5 2 -5 2 -6 1 -5 1 -6 1 -6 0 -6 0 -6 100 0 0 11 -1 11 -1 11 -2 10 -3 11 -2 10 -4 10 -4 10 -4 9 -5 10 -5 9 -6 8 -5 9 -7 8 -7 7 -7 8 -7 7 -8 7 -8 6 -8 6 -9 6 -9 5 -10 5 -9 4 -10 4 -10 3 -10 3 -11 3 -10 1 -11 2 -11 1 -11 0 0 0zm-215 -215l100 0 0 0 0 6 1 6 0 6 1 6 2 5 1 6 2 5 2 5 2 6 3 5 3 4 3 5 3 5 3 4 4 4 4 4 4 4 4 4 4 3 5 3 5 3 4 3 5 3 5 2 6 2 5 2 5 1 6 2 6 1 5 0 6 1 6 0 0 99 -11 0 -11 -1 -11 -2 -10 -1 -11 -3 -10 -3 -10 -3 -10 -4 -9 -4 -10 -5 -9 -5 -8 -6 -9 -6 -8 -6 -8 -7 -7 -7 -7 -8 -7 -7 -6 -8 -6 -9 -6 -8 -5 -9 -5 -10 -4 -9 -4 -10 -3 -10 -3 -10 -3 -11 -1 -10 -2 -11 -1 -11 0 -11 0 0zm215 -214l0 99 0 0 -6 0 -6 0 -5 1 -6 1 -6 1 -5 2 -5 2 -6 2 -5 2 -5 3 -4 2 -5 3 -5 4 -4 3 -4 4 -4 3 -4 5 -4 4 -3 4 -3 5 -3 4 -3 5 -3 5 -2 5 -2 5 -2 6 -1 5 -2 6 -1 6 0 5 -1 6 0 6 -100 0 0 -11 1 -11 2 -10 1 -11 3 -10 3 -10 3 -10 4 -10 4 -10 5 -9 5 -9 6 -9 6 -8 6 -8 7 -8 7 -7 7 -7 8 -7 8 -7 9 -5 8 -6 9 -5 10 -5 9 -4 10 -4 10 -4 10 -3 11 -2 10 -2 11 -1 11 -1 11 0 0 0z"/>
    <path id="1" class="fil7" d="M3456 1468c91,0 165,74 165,165 0,92 -74,165 -165,165 -91,0 -165,-73 -165,-165 0,-91 74,-165 165,-165z"/>
   </g>
   <g>
    <path class="fil6" d="M3448 1312l-1329 0 0 -164 1329 0 0 0 0 164zm461 297l-164 0 0 0 0 -15 -1 -15 -2 -15 -3 -14 -3 -15 -4 -14 -5 -13 -5 -14 -6 -13 -7 -13 -7 -12 -8 -12 -8 -12 -9 -11 -9 -11 -10 -11 -11 -10 -10 -9 -12 -9 -11 -8 -13 -8 -12 -7 -13 -7 -13 -6 -13 -5 -14 -5 -14 -4 -15 -3 -14 -3 -15 -2 -15 -1 -15 0 0 -164 23 1 24 1 23 3 22 5 23 5 22 6 21 7 21 9 20 9 20 10 20 11 18 12 18 13 18 14 17 14 16 16 15 16 14 16 14 18 13 18 12 18 11 20 10 20 10 20 8 21 7 22 6 21 6 23 4 22 3 24 1 23 1 23 0 0zm-164 1251l0 -1251 164 0 0 1251 0 0 -164 0zm-297 461l0 -164 0 0 15 0 15 -1 15 -2 14 -3 15 -3 14 -4 14 -5 13 -5 13 -6 13 -7 12 -7 13 -8 11 -8 12 -9 10 -9 11 -10 10 -11 9 -11 9 -11 8 -12 8 -12 7 -12 7 -13 6 -13 5 -14 5 -13 4 -14 3 -15 3 -14 2 -15 1 -15 0 -15 164 0 -1 23 -1 23 -3 24 -4 22 -6 23 -6 21 -7 22 -8 21 -10 20 -10 20 -11 20 -12 18 -13 18 -14 18 -14 16 -15 16 -16 16 -17 14 -18 14 -18 13 -18 12 -20 11 -20 10 -20 9 -21 9 -21 7 -22 6 -23 5 -22 5 -23 3 -24 1 -23 1 0 0zm-1329 -164l1329 0 0 164 -1329 0 0 0 0 -164zm-461 -297l163 0 0 0 1 15 1 15 2 15 3 14 3 15 4 14 5 13 5 14 6 13 6 13 8 12 7 12 9 12 9 11 9 11 10 11 10 10 11 9 12 9 11 8 12 8 13 7 13 7 13 6 13 5 14 5 14 4 14 3 15 3 15 2 15 1 15 0 0 164 -23 -1 -24 -1 -23 -3 -23 -5 -22 -5 -22 -6 -21 -7 -21 -9 -21 -9 -20 -10 -19 -11 -19 -12 -18 -13 -17 -14 -17 -14 -16 -16 -15 -16 -15 -16 -13 -18 -13 -18 -12 -18 -11 -20 -10 -20 -10 -20 -8 -21 -7 -22 -7 -21 -5 -23 -4 -22 -3 -24 -2 -23 0 -23 0 0zm163 -1251l0 1251 -163 0 0 -1251 0 0 163 0zm298 -461l0 164 0 0 -15 0 -15 1 -15 2 -15 3 -14 3 -14 4 -14 5 -13 5 -13 6 -13 7 -13 7 -12 8 -11 8 -12 9 -11 9 -10 10 -10 11 -9 11 -9 11 -9 12 -7 12 -8 12 -6 13 -6 13 -5 14 -5 13 -4 14 -3 15 -3 14 -2 15 -1 15 -1 15 -163 0 0 -23 2 -23 3 -24 4 -22 5 -23 7 -21 7 -22 8 -21 10 -20 10 -20 11 -20 12 -18 13 -18 13 -18 15 -16 15 -16 16 -16 17 -14 17 -14 18 -13 19 -12 19 -11 20 -10 21 -9 21 -9 21 -7 22 -6 22 -5 23 -5 23 -3 24 -1 23 -1 0 0z"/>
   </g>
  </g>
 </g>
</svg>
