<?xml version="1.0" encoding="UTF-8"?>
<!DOCTYPE svg PUBLIC "-//W3C//DTD SVG 1.1//EN" "http://www.w3.org/Graphics/SVG/1.1/DTD/svg11.dtd">
<!-- Creator: CorelDRAW X8 -->
<svg xmlns="http://www.w3.org/2000/svg" xml:space="preserve" width="50.5mm" height="50mm" version="1.1" style="shape-rendering:geometricPrecision; text-rendering:geometricPrecision; image-rendering:optimizeQuality; fill-rule:evenodd; clip-rule:evenodd"
viewBox="0 0 5050 5000"
 xmlns:xlink="http://www.w3.org/1999/xlink">
 <defs>
  <style type="text/css">
   <![CDATA[
    .str1 {stroke:#FEFEFE;stroke-width:120}
    .str2 {stroke:#ED3237;stroke-width:7.62}
    .str0 {stroke:#495C80;stroke-width:7.62}
    .fil2 {fill:#FEFEFE}
    .fil3 {fill:#ED3237}
    .fil0 {fill:#495C80}
    .fil1 {fill:#FEFEFE;fill-rule:nonzero}
   ]]>
  </style>
 </defs>
 <g id="Capa_x0020_1">
  <metadata id="CorelCorpID_0Corel-Layer"/>
  <g id="_2856824486240">
   <path class="fil0 str0" d="M266 219l4185 0c228,0 414,186 414,414l0 3734c0,228 -186,414 -414,414l-4266 0 0 -4481c0,-45 36,-81 81,-81z"/>
   <g>
    <path class="fil1" d="M3332 3748c-64,-14 -100,-62 -81,-107 20,-46 88,-71 152,-57l-71 164zm708 237l-243 0 0 0 0 -6 -1 -5 -2 -6 -2 -6 -3 -6 -3 -6 -5 -7 -5 -7 -6 -7 -7 -8 -9 -7 -9 -8 -11 -8 -11 -8 -13 -9 -14 -8 -15 -8 -16 -9 -17 -8 -18 -8 -20 -9 -20 -8 -21 -8 -23 -8 -23 -8 -25 -8 -25 -7 -26 -8 -28 -7 -28 -7 -29 -7 -30 -7 71 -164 34 7 34 8 32 9 32 8 31 9 30 9 29 9 29 10 27 10 27 10 26 10 25 11 24 11 23 11 23 12 21 12 21 12 19 13 19 13 18 14 16 14 16 14 14 14 14 16 11 15 11 16 9 17 8 17 6 17 5 17 2 18 1 18 0 0zm-1495 484l0 -172 0 0 68 0 67 -2 66 -2 66 -3 63 -5 63 -5 61 -6 60 -7 58 -7 56 -9 55 -9 52 -10 51 -10 49 -11 46 -12 44 -12 42 -13 39 -13 36 -13 34 -14 31 -14 27 -14 25 -14 22 -14 18 -13 16 -13 12 -13 10 -12 7 -11 4 -11 3 -10 1 -10 243 0 -2 31 -8 30 -13 30 -17 28 -22 26 -24 25 -28 24 -31 23 -33 21 -36 20 -38 20 -41 18 -43 18 -45 16 -47 16 -50 15 -51 14 -53 14 -56 12 -57 12 -58 11 -61 10 -62 9 -64 9 -65 7 -66 7 -68 5 -69 5 -70 4 -72 2 -72 2 -73 0 0 0zm-1496 -484l244 0 0 0 1 10 2 10 5 11 7 11 9 12 13 13 15 13 19 13 21 14 25 14 28 14 31 14 34 14 36 13 39 13 42 13 44 12 46 12 49 11 50 10 53 10 54 9 57 9 58 7 60 7 61 6 62 5 64 5 65 3 66 2 68 2 68 0 0 172 -73 0 -73 -2 -71 -2 -70 -4 -69 -5 -68 -5 -67 -7 -65 -7 -63 -9 -62 -9 -61 -10 -59 -11 -57 -12 -55 -12 -53 -14 -52 -14 -49 -15 -47 -16 -45 -16 -43 -18 -41 -18 -38 -20 -36 -20 -34 -21 -30 -23 -28 -24 -25 -25 -21 -26 -17 -28 -13 -30 -8 -30 -3 -31 0 0zm661 -406l69 165 -31 6 -31 7 -29 8 -29 7 -27 7 -27 8 -25 8 -25 8 -23 8 -22 8 -22 9 -20 8 -19 9 -18 8 -17 9 -15 8 -15 9 -13 8 -12 8 -11 9 -10 8 -9 8 -8 7 -6 8 -6 7 -5 7 -3 6 -3 7 -3 6 -1 6 -1 5 0 6 -244 0 1 -18 3 -18 5 -18 6 -18 8 -17 10 -17 11 -16 12 -16 14 -15 15 -15 16 -15 18 -14 18 -14 19 -13 21 -13 21 -12 22 -12 23 -12 25 -12 25 -11 25 -10 27 -11 28 -10 29 -10 29 -10 31 -9 31 -9 32 -9 33 -9 33 -8 35 -8 35 -7zm0 0c65,-14 132,12 151,58 19,46 -18,93 -82,107l-69 -165z"/>
   </g>
   <path class="fil2 str1" d="M2566 4088c45,0 80,-20 104,-46 11,-12 23,-29 33,-42 12,-15 20,-29 31,-45l123 -171c43,-60 79,-113 122,-172l375 -521c103,-152 197,-226 197,-440 0,-111 -47,-210 -89,-280 -32,-53 -114,-187 -144,-232l-445 34c0,107 -4,199 -90,285 -18,18 -64,50 -90,61 -34,13 -87,28 -128,30 -37,1 -96,-16 -122,-27 -42,-19 -63,-32 -95,-64 -190,-191 -70,-458 92,-514 78,-27 239,-18 338,-17 62,0 61,-6 118,-121l203 -392c27,-54 54,-105 82,-158l-130 -68c-232,-117 -515,-136 -774,-70 -95,24 -161,59 -238,97 -140,70 -272,186 -367,303 -95,118 -186,266 -229,434 -47,183 -52,409 7,584 91,272 329,588 503,831 110,153 245,316 357,471 26,36 45,64 73,98 53,64 65,152 183,152zm-187 -1482l166 0 166 0c96,0 175,79 175,176l0 17 0 116 0 115c0,26 -21,48 -47,48 -26,0 -48,-22 -48,-48l0 -115 0 -151c0,-7 -5,-12 -12,-12 -7,0 -13,5 -13,12l0 151 0 504 -221 277 -222 -277 0 -504 0 -151c0,-7 -6,-12 -12,-12 -7,0 -13,5 -13,12l0 151 0 115c0,26 -21,48 -47,48 -26,0 -48,-22 -48,-48l0 -115 0 -116 0 -17c0,-97 79,-176 176,-176z"/>
   <path class="fil3 str2" d="M2566 4088c45,0 80,-20 104,-46 11,-12 23,-29 33,-42 12,-15 20,-29 31,-45l123 -171c43,-60 79,-113 122,-172l375 -521c103,-152 197,-226 197,-440 0,-111 -47,-210 -89,-280 -32,-53 -114,-187 -144,-232l-445 34c0,107 -4,199 -90,285 -18,18 -64,50 -90,61 -34,13 -87,28 -128,30 -37,1 -96,-16 -122,-27 -42,-19 -63,-32 -95,-64 -190,-191 -70,-458 92,-514 78,-27 239,-18 338,-17 62,0 61,-6 118,-121l203 -392c27,-54 54,-105 82,-158l-130 -68c-232,-117 -515,-136 -774,-70 -95,24 -161,59 -238,97 -140,70 -272,186 -367,303 -95,118 -186,266 -229,434 -47,183 -52,409 7,584 91,272 329,588 503,831 110,153 245,316 357,471 26,36 45,64 73,98 53,64 65,152 183,152zm-187 -1482l166 0 166 0c96,0 175,79 175,176l0 17 0 116 0 115c0,26 -21,48 -47,48 -26,0 -48,-22 -48,-48l0 -115 0 -151c0,-7 -5,-12 -12,-12 -7,0 -13,5 -13,12l0 151 0 504 -221 277 -222 -277 0 -504 0 -151c0,-7 -6,-12 -12,-12 -7,0 -13,5 -13,12l0 151 0 115c0,26 -21,48 -47,48 -26,0 -48,-22 -48,-48l0 -115 0 -116 0 -17c0,-97 79,-176 176,-176z"/>
  </g>
 </g>
</svg>
