<?xml version="1.0" encoding="UTF-8"?>
<!DOCTYPE svg PUBLIC "-//W3C//DTD SVG 1.1//EN" "http://www.w3.org/Graphics/SVG/1.1/DTD/svg11.dtd">
<!-- Creator: CorelDRAW X8 -->
<svg xmlns="http://www.w3.org/2000/svg" xml:space="preserve" width="50.5mm" height="50mm" version="1.1" style="shape-rendering:geometricPrecision; text-rendering:geometricPrecision; image-rendering:optimizeQuality; fill-rule:evenodd; clip-rule:evenodd"
viewBox="0 0 5050 5000"
 xmlns:xlink="http://www.w3.org/1999/xlink">
 <defs>
  <style type="text/css">
   <![CDATA[
    .str0 {stroke:#ED3237;stroke-width:7.62}
    .fil2 {fill:#ED3237}
    .fil0 {fill:#D2D3D5;fill-rule:nonzero}
    .fil1 {fill:#495C80;fill-rule:nonzero}
   ]]>
  </style>
 </defs>
 <g id="Capa_x0020_1">
  <metadata id="CorelCorpID_0Corel-Layer"/>
  <g>
   <path class="fil0" d="M4723 1995c0,-55 43,-100 97,-100 54,0 97,45 97,100l-194 0zm0 2281l0 -2281 194 0 0 2281 0 0 -194 0zm-383 595l0 -200 0 0 20 -1 19 -1 19 -3 19 -3 18 -5 18 -5 18 -6 17 -7 17 -8 17 -9 16 -9 16 -11 15 -11 14 -12 14 -12 13 -13 13 -14 12 -14 12 -15 10 -16 10 -16 10 -16 8 -17 8 -18 7 -18 6 -18 5 -18 4 -19 4 -20 2 -19 1 -20 1 -21 194 0 -1 31 -2 30 -4 30 -5 29 -6 29 -8 28 -9 27 -10 27 -12 27 -13 25 -14 25 -15 24 -16 24 -17 22 -18 22 -19 20 -20 20 -21 19 -22 17 -23 17 -23 15 -24 15 -25 13 -26 12 -26 11 -27 9 -27 8 -28 7 -28 5 -29 4 -29 2 -30 1 0 0zm-4060 -200l4060 0 0 200 -4060 0 0 0 0 -200zm-147 48l194 0 0 0 0 -2 0 -3 -1 -2 0 -2 0 -3 -1 -2 -1 -3 -1 -2 -1 -2 -1 -2 -1 -2 -1 -2 -1 -2 -2 -2 -1 -1 -2 -2 -1 -2 -2 -1 -2 -2 -1 -1 -2 -1 -2 -1 -2 -1 -2 -1 -3 -1 -2 -1 -2 -1 -3 0 -2 -1 -2 0 -3 0 -2 0 0 200 -8 0 -7 -1 -7 -1 -8 -1 -7 -2 -7 -2 -7 -2 -6 -3 -7 -3 -6 -4 -6 -3 -6 -4 -6 -4 -6 -5 -5 -5 -5 -5 -5 -5 -4 -5 -5 -6 -4 -6 -4 -6 -3 -6 -3 -7 -3 -7 -3 -7 -2 -7 -2 -7 -2 -7 -1 -8 -1 -7 -1 -8 0 -8 0 0zm194 -4438l0 4438 -194 0 0 -4438 0 0 194 0zm-47 -152l0 200 0 0 2 0 3 0 2 0 2 -1 3 0 2 -1 2 -1 3 -1 2 -1 2 -1 2 -1 2 -1 1 -1 2 -2 2 -1 1 -2 2 -2 1 -1 2 -2 1 -2 1 -2 1 -2 1 -2 1 -2 1 -2 1 -3 1 -2 0 -3 0 -2 1 -2 0 -3 0 -2 -194 0 0 -8 1 -8 1 -7 1 -8 2 -7 2 -7 2 -7 3 -7 3 -7 3 -7 3 -6 4 -6 4 -6 5 -6 4 -5 5 -5 5 -5 5 -5 6 -5 6 -4 6 -4 6 -3 6 -4 7 -3 6 -3 7 -2 7 -2 7 -2 8 -1 7 -1 7 -1 8 0 0 0zm2702 200l-2702 0 0 -200 2702 0 0 200zm0 -200c53,0 97,45 97,100 0,55 -44,100 -97,100l0 -200z"/>
  </g>
  <g>
   <path class="fil1" d="M3378 3664c-64,-14 -100,-62 -80,-107 19,-46 88,-71 152,-57l-72 164zm709 237l-244 0 0 0 0 -6 -1 -5 -1 -6 -2 -6 -3 -6 -4 -6 -4 -7 -6 -7 -6 -7 -7 -8 -8 -7 -10 -8 -10 -8 -12 -8 -13 -9 -13 -8 -15 -8 -16 -9 -18 -8 -18 -8 -19 -8 -20 -9 -22 -8 -22 -8 -24 -8 -24 -8 -25 -7 -27 -8 -27 -7 -28 -7 -30 -7 -30 -7 72 -164 34 8 33 7 33 9 31 8 31 9 30 9 30 9 28 10 28 10 27 10 25 10 25 11 25 11 23 12 22 11 22 12 20 13 20 12 18 13 18 14 17 14 15 14 15 15 13 15 12 15 11 16 9 17 8 17 6 17 4 17 3 18 1 18 0 0zm-1496 484l0 -172 0 0 68 0 68 -2 66 -2 65 -3 64 -5 62 -5 62 -6 59 -7 58 -7 57 -9 54 -9 53 -10 51 -10 48 -11 46 -12 45 -12 41 -13 39 -13 37 -13 33 -14 31 -14 28 -14 25 -14 21 -14 19 -13 15 -13 13 -13 9 -12 7 -11 5 -11 3 -10 0 -10 244 0 -3 31 -8 30 -13 30 -17 28 -21 26 -25 25 -28 24 -30 23 -34 21 -35 20 -39 20 -40 18 -43 18 -46 16 -47 16 -49 15 -52 14 -53 14 -55 12 -57 12 -59 11 -60 10 -63 9 -63 9 -65 7 -67 7 -68 5 -69 5 -70 4 -71 2 -73 2 -73 0 0 0zm-1495 -484l243 0 0 0 1 10 3 10 4 11 7 11 10 12 12 13 16 13 18 13 22 14 25 14 27 14 31 14 34 14 36 13 39 13 42 13 44 12 46 12 49 11 51 10 52 10 55 9 56 9 58 7 60 7 61 6 63 5 64 5 65 3 66 2 67 2 68 0 0 172 -73 0 -72 -2 -72 -2 -70 -4 -69 -5 -68 -5 -66 -7 -65 -7 -64 -9 -62 -9 -60 -10 -59 -11 -57 -12 -56 -12 -53 -14 -51 -14 -50 -15 -47 -16 -45 -16 -43 -18 -41 -18 -38 -20 -36 -20 -33 -21 -31 -23 -28 -24 -24 -25 -21 -26 -18 -28 -12 -30 -8 -30 -3 -31 0 0zm661 -406l68 165 -31 7 -30 6 -30 8 -28 7 -28 7 -26 8 -26 8 -24 8 -24 8 -22 8 -21 9 -20 8 -19 9 -18 8 -17 9 -16 8 -14 9 -14 8 -12 9 -11 8 -10 8 -9 8 -7 7 -7 8 -5 7 -5 7 -4 6 -3 7 -2 6 -2 6 -1 5 0 6 -243 0 1 -18 3 -18 4 -18 7 -18 8 -17 9 -17 11 -16 13 -16 14 -15 15 -15 16 -15 17 -14 18 -14 20 -13 20 -13 21 -12 23 -12 23 -12 24 -11 25 -12 26 -10 27 -11 27 -10 29 -10 30 -10 30 -9 31 -9 32 -9 33 -9 34 -8 34 -8 36 -7zm0 0c64,-14 132,13 151,58 19,46 -18,93 -83,107l-68 -165z"/>
  </g>
  <path class="fil2 str0" d="M2612 4004c45,0 80,-20 105,-46 10,-12 23,-29 33,-42 11,-15 19,-28 30,-45l123 -171c43,-60 79,-112 122,-172l375 -521c103,-152 197,-226 197,-440 0,-111 -47,-210 -89,-280 -31,-53 -113,-187 -144,-232l-444 34c0,107 -4,199 -91,285 -17,18 -64,50 -90,61 -33,13 -87,29 -127,30 -38,1 -97,-16 -123,-27 -41,-19 -63,-32 -94,-64 -191,-191 -71,-458 91,-514 78,-27 239,-18 338,-17 62,0 62,-6 119,-121l203 -392c26,-54 54,-105 82,-158l-130 -68c-232,-117 -516,-136 -775,-70 -94,24 -160,59 -238,97 -140,70 -272,186 -367,303 -95,118 -186,266 -229,434 -47,183 -51,409 7,584 91,272 329,588 503,831 110,153 246,316 357,471 26,36 45,64 73,98 54,64 66,152 183,152zm-187 -1482l166 0 166 0c97,0 176,79 176,176l0 17 0 116 0 115c0,26 -22,48 -48,48 -26,0 -47,-22 -47,-48l0 -115 0 -151c0,-7 -6,-12 -13,-12 -7,0 -12,5 -12,12l0 151 0 504 -222 277 -222 -277 0 -504 0 -151c0,-7 -5,-12 -12,-12 -7,0 -12,5 -12,12l0 151 0 115c0,26 -22,48 -48,48 -26,0 -47,-22 -47,-48l0 -115 0 -116 0 -17c0,-97 79,-176 175,-176z"/>
 </g>
</svg>
