<?xml version="1.0" encoding="UTF-8"?>
<!DOCTYPE svg PUBLIC "-//W3C//DTD SVG 1.1//EN" "http://www.w3.org/Graphics/SVG/1.1/DTD/svg11.dtd">
<!-- Creator: CorelDRAW X8 -->
<svg xmlns="http://www.w3.org/2000/svg" xml:space="preserve" width="50.5mm" height="50.5mm" version="1.1" style="shape-rendering:geometricPrecision; text-rendering:geometricPrecision; image-rendering:optimizeQuality; fill-rule:evenodd; clip-rule:evenodd"
viewBox="0 0 5050 5050"
 xmlns:xlink="http://www.w3.org/1999/xlink">
 <defs>
  <style type="text/css">
   <![CDATA[
    .str2 {stroke:#00204A;stroke-width:200;stroke-linecap:round;stroke-linejoin:round}
    .str0 {stroke:#00204A;stroke-width:6.3}
    .str1 {stroke:#00204A;stroke-width:157.5;stroke-linecap:round;stroke-linejoin:round}
    .fil2 {fill:none}
    .fil0 {fill:#00204A}
    .fil1 {fill:#00204A;fill-rule:nonzero}
   ]]>
  </style>
 </defs>
 <g id="Capa_x0020_1">
  <metadata id="CorelCorpID_0Corel-Layer"/>
  <g id="_2315385644832">
   <path class="fil0 str0" d="M2525 2142c45,0 88,8 129,22 -31,28 -49,68 -49,113 0,85 69,154 154,154 48,0 90,-21 119,-55 19,46 30,96 30,148 0,212 -172,383 -383,383 -211,0 -383,-171 -383,-383 0,-211 172,-382 383,-382z"/>
   <g>
    <path class="fil1" d="M3385 2524l-158 0 0 0 -1 -36 -2 -36 -5 -35 -6 -34 -8 -34 -9 -34 -11 -32 -13 -32 -14 -31 -16 -31 -17 -29 -18 -29 -19 -27 -21 -27 -22 -25 -24 -25 -24 -23 -26 -22 -26 -21 -28 -19 -28 -19 -30 -17 -30 -15 -31 -14 -32 -13 -32 -11 -34 -9 -33 -8 -35 -6 -35 -5 -36 -2 -36 -1 0 -157 44 1 44 4 43 5 42 8 42 9 41 12 40 13 39 16 38 17 37 19 36 21 35 22 34 24 32 26 31 27 30 28 29 30 27 31 25 33 24 33 22 35 21 36 19 37 17 38 16 39 13 40 12 41 9 41 8 43 5 43 4 43 1 44 0 0zm-860 860l0 -157 0 0 36 -1 36 -2 35 -5 35 -6 33 -8 34 -9 32 -11 32 -13 31 -14 30 -16 30 -16 28 -19 28 -19 26 -21 26 -22 24 -23 24 -25 22 -25 21 -27 19 -28 18 -28 17 -29 16 -31 14 -31 13 -32 11 -32 9 -34 8 -34 6 -34 5 -36 2 -35 1 -37 158 0 -1 45 -4 43 -5 43 -8 42 -9 42 -12 41 -13 40 -16 39 -17 38 -19 37 -21 36 -22 35 -24 33 -25 33 -27 31 -29 30 -30 28 -31 27 -32 26 -34 24 -35 22 -36 21 -37 19 -38 17 -39 15 -40 14 -41 11 -42 10 -42 8 -43 5 -44 3 -44 2 0 0zm-860 -860l158 0 0 0 1 37 2 35 5 36 6 34 8 34 9 34 11 32 13 32 14 31 16 31 17 29 18 28 19 28 21 27 22 25 24 25 24 23 26 22 26 21 28 19 28 19 30 16 30 16 31 14 32 13 32 11 34 9 33 8 35 6 35 5 36 2 36 1 0 157 -44 -2 -44 -3 -43 -5 -42 -8 -42 -10 -41 -11 -40 -14 -39 -15 -38 -17 -37 -19 -36 -21 -35 -22 -34 -24 -32 -26 -31 -27 -30 -28 -29 -30 -27 -31 -25 -33 -24 -33 -22 -35 -21 -36 -19 -37 -17 -38 -16 -39 -13 -40 -12 -41 -9 -42 -8 -42 -5 -43 -4 -43 -1 -45 0 0zm860 -859l0 157 0 0 -36 1 -36 2 -35 5 -35 6 -33 8 -34 9 -32 11 -32 13 -31 14 -30 15 -30 17 -28 19 -28 19 -26 21 -26 22 -24 23 -24 25 -22 25 -21 27 -19 27 -18 29 -17 29 -16 31 -14 31 -13 32 -11 32 -9 34 -8 34 -6 34 -5 35 -2 36 -1 36 -158 0 1 -44 4 -43 5 -43 8 -43 9 -41 12 -41 13 -40 16 -39 17 -38 19 -37 21 -36 22 -35 24 -33 25 -33 27 -31 29 -30 30 -28 31 -27 32 -26 34 -24 35 -22 36 -21 37 -19 38 -17 39 -16 40 -13 41 -12 42 -9 42 -8 43 -5 44 -4 44 -1 0 0z"/>
   </g>
   <path class="fil2 str1" d="M2525 1743c682,0 1300,298 1755,781 -455,484 -1073,781 -1755,781 -682,0 -1300,-297 -1755,-781 455,-483 1073,-781 1755,-781z"/>
   <line class="fil2 str2" x1="1092" y1="3673" x2="3958" y2= "1377" />
  </g>
 </g>
</svg>
