<?xml version="1.0" encoding="UTF-8"?>
<!DOCTYPE svg PUBLIC "-//W3C//DTD SVG 1.1//EN" "http://www.w3.org/Graphics/SVG/1.1/DTD/svg11.dtd">
<!-- Creator: CorelDRAW X8 -->
<svg xmlns="http://www.w3.org/2000/svg" xml:space="preserve" width="50.5mm" height="50mm" version="1.1" style="shape-rendering:geometricPrecision; text-rendering:geometricPrecision; image-rendering:optimizeQuality; fill-rule:evenodd; clip-rule:evenodd"
viewBox="0 0 5050 5000"
 xmlns:xlink="http://www.w3.org/1999/xlink">
 <defs>
  <style type="text/css">
   <![CDATA[
    .str2 {stroke:#ED3237;stroke-width:171.64;stroke-linecap:round;stroke-linejoin:round}
    .str0 {stroke:#495C80;stroke-width:127.12;stroke-linecap:round;stroke-linejoin:round}
    .str1 {stroke:#495C80;stroke-width:127.12;stroke-linecap:round;stroke-linejoin:round}
    .fil1 {fill:none}
    .fil3 {fill:#ED3237}
    .fil0 {fill:#D2D3D5;fill-rule:nonzero}
    .fil2 {fill:#495C80;fill-rule:nonzero}
   ]]>
  </style>
 </defs>
 <g id="Capa_x0020_1">
  <metadata id="CorelCorpID_0Corel-Layer"/>
  <g id="_1514445343056">
   <g>
    <path class="fil0" d="M4723 1995c0,-55 43,-100 97,-100 54,0 97,45 97,100l-194 0zm0 2281l0 -2281 194 0 0 2281 0 0 -194 0zm-383 595l0 -200 0 0 20 -1 19 -1 19 -3 19 -3 18 -5 18 -5 18 -6 17 -7 17 -8 17 -9 16 -9 16 -11 15 -11 14 -12 14 -12 13 -13 13 -14 12 -14 12 -15 10 -16 10 -16 10 -16 8 -17 8 -18 7 -18 6 -18 5 -18 4 -19 4 -20 2 -19 1 -20 1 -21 194 0 -1 31 -2 30 -4 30 -5 29 -6 29 -8 28 -9 27 -10 27 -12 27 -13 25 -14 25 -15 24 -16 24 -17 22 -18 22 -19 20 -20 20 -21 19 -22 17 -23 17 -23 15 -24 15 -25 13 -26 12 -26 11 -27 9 -27 8 -28 7 -28 5 -29 4 -29 2 -30 1 0 0zm-4060 -200l4060 0 0 200 -4060 0 0 0 0 -200zm-147 48l194 0 0 0 0 -2 0 -3 -1 -2 0 -2 0 -3 -1 -2 -1 -3 -1 -2 -1 -2 -1 -2 -1 -2 -1 -2 -1 -2 -2 -2 -1 -1 -2 -2 -1 -2 -2 -1 -2 -2 -1 -1 -2 -1 -2 -1 -2 -1 -2 -1 -3 -1 -2 -1 -2 -1 -3 0 -2 -1 -2 0 -3 0 -2 0 0 200 -8 0 -7 -1 -7 -1 -8 -1 -7 -2 -7 -2 -7 -2 -6 -3 -7 -3 -6 -4 -6 -3 -6 -4 -6 -4 -6 -5 -5 -5 -5 -5 -5 -5 -4 -5 -5 -6 -4 -6 -4 -6 -3 -6 -3 -7 -3 -7 -3 -7 -2 -7 -2 -7 -2 -7 -1 -8 -1 -7 -1 -8 0 -8 0 0zm194 -4438l0 4438 -194 0 0 -4438 0 0 194 0zm-47 -152l0 200 0 0 2 0 3 0 2 0 2 -1 3 0 2 -1 2 -1 3 -1 2 -1 2 -1 2 -1 2 -1 1 -1 2 -2 2 -1 1 -2 2 -2 1 -1 2 -2 1 -2 1 -2 1 -2 1 -2 1 -2 1 -2 1 -3 1 -2 0 -3 0 -2 1 -2 0 -3 0 -2 -194 0 0 -8 1 -8 1 -7 1 -8 2 -7 2 -7 2 -7 3 -7 3 -7 3 -7 3 -6 4 -6 4 -6 5 -6 4 -5 5 -5 5 -5 5 -5 6 -5 6 -4 6 -4 6 -3 6 -4 7 -3 6 -3 7 -2 7 -2 7 -2 8 -1 7 -1 7 -1 8 0 0 0zm2702 200l-2702 0 0 -200 2702 0 0 200zm0 -200c53,0 97,45 97,100 0,55 -44,100 -97,100l0 -200z"/>
   </g>
   <g>
    <path class="fil1 str0" d="M1711 1153c0,-60 49,-109 110,-109l883 0c9,0 16,3 22,10l815 823c6,7 8,12 8,20l0 910"/>
   </g>
   <g>
    <path class="fil1 str1" d="M2833 3542l-1311 0c-60,0 -110,-49 -110,-110l0 -2094c0,-61 50,-110 110,-110l883 0c10,0 17,4 22,10l816 824c5,6 7,11 7,19l0 910"/>
   </g>
   <g>
    <path class="fil2" d="M1830 1998c-52,0 -95,-28 -95,-63 0,-35 43,-64 95,-64l0 127zm1041 0l-1041 0 0 -127 1041 0 0 127zm0 -127c53,0 95,29 95,64 0,35 -42,63 -95,63l0 -127z"/>
   </g>
   <g>
    <path class="fil2" d="M1830 2996c-52,0 -95,-29 -95,-64 0,-35 43,-63 95,-63l0 127zm1041 0l-1041 0 0 -127 1041 0 0 127zm0 -127c53,0 95,28 95,63 0,35 -42,64 -95,64l0 -127z"/>
   </g>
   <g>
    <path class="fil2" d="M1830 2297c-52,0 -95,-28 -95,-63 0,-36 43,-64 95,-64l0 127zm1041 0l-1041 0 0 -127 1041 0 0 127zm0 -127c53,0 95,28 95,64 0,35 -42,63 -95,63l0 -127z"/>
   </g>
   <g>
    <path class="fil1 str2" d="M3565 2520l335 0 -605 -632 -652 632 334 0c65,436 -4,810 -310,1072 560,-80 850,-448 898,-1072z"/>
    <path id="1" class="fil3" d="M3565 2520l335 0 -605 -632 -652 632 334 0c65,436 -4,810 -310,1072 560,-80 850,-448 898,-1072z"/>
   </g>
  </g>
 </g>
</svg>
