<?xml version="1.0" encoding="UTF-8"?>
<!DOCTYPE svg PUBLIC "-//W3C//DTD SVG 1.1//EN" "http://www.w3.org/Graphics/SVG/1.1/DTD/svg11.dtd">
<!-- Creator: CorelDRAW X8 -->
<svg xmlns="http://www.w3.org/2000/svg" xml:space="preserve" width="50.5mm" height="50mm" version="1.1" style="shape-rendering:geometricPrecision; text-rendering:geometricPrecision; image-rendering:optimizeQuality; fill-rule:evenodd; clip-rule:evenodd"
viewBox="0 0 5050 5000"
 xmlns:xlink="http://www.w3.org/1999/xlink">
 <defs>
  <style type="text/css">
   <![CDATA[
    .str4 {stroke:#96989A;stroke-width:100}
    .str2 {stroke:#FEFEFE;stroke-width:200}
    .str3 {stroke:#96989A;stroke-width:150}
    .str1 {stroke:#FEFEFE;stroke-width:20}
    .str5 {stroke:#96989A;stroke-width:20}
    .str0 {stroke:#495C80;stroke-width:350;stroke-linecap:round;stroke-linejoin:round}
    .fil0 {fill:none}
    .fil3 {fill:#FEFEFE}
    .fil1 {fill:#96989A}
    .fil2 {fill:#495C80}
    .fil4 {fill:#495C80;fill-rule:nonzero}
   ]]>
  </style>
 </defs>
 <g id="Capa_x0020_1">
  <metadata id="CorelCorpID_0Corel-Layer"/>
  <g id="_1514508701744">
   <g>
    <path class="fil0 str0" d="M4820 2010l0 2214c0,264 -216,480 -480,480l-4060 0c-28,0 -50,-22 -50,-50l0 -4308c0,-28 22,-50 50,-50l2702 0"/>
   </g>
   <rect class="fil1 str1" transform="matrix(2.85765E-14 -0.663525 1.75922 2.86518E-14 709.459 3704.36)" width="723" height="1623" rx="190" ry="190"/>
   <rect class="fil2 str2" x="902" y="2279" width="480" height="1077" rx="126" ry="126"/>
   <rect class="fil2 str2" x="1565" y="1893" width="480" height="1463" rx="126" ry="171"/>
   <rect class="fil2 str2" x="2229" y="2127" width="480" height="1229" rx="126" ry="144"/>
   <rect class="fil3 str2" x="2892" y="1601" width="480" height="1756" rx="126" ry="206"/>
   <rect class="fil1 str1" x="902" y="2279" width="480" height="1077" rx="126" ry="126"/>
   <rect class="fil1 str1" x="1565" y="1893" width="480" height="1463" rx="126" ry="171"/>
   <rect class="fil1 str1" x="2229" y="2127" width="480" height="1229" rx="126" ry="144"/>
   <rect class="fil1 str1" x="2892" y="1601" width="480" height="1756" rx="126" ry="206"/>
   <polyline class="fil0 str3" points="1142,1616 1805,1230 2469,1464 3132,937 "/>
   <circle class="fil1 str4" cx="1142" cy="1616" r="88"/>
   <circle class="fil1 str4" cx="1805" cy="1230" r="88"/>
   <circle class="fil1 str4" cx="2469" cy="1464" r="88"/>
   <polygon class="fil1 str5" points="3344,807 3277,975 3209,1144 3095,985 2981,826 3163,816 "/>
   <g>
    <path class="fil4" d="M3617 3133l-391 391 -5 -6 391 -391 5 0 0 6zm-5 -6l2 -2 3 2 -5 0zm683 690l-683 -684 5 -6 684 684 0 0 -6 6zm6 234l-6 -5 0 0 6 -6 5 -7 5 -6 5 -7 4 -6 4 -7 3 -7 4 -8 2 -7 3 -8 2 -7 1 -8 2 -7 1 -8 0 -8 0 -8 0 -7 0 -8 -1 -8 -2 -8 -1 -7 -2 -8 -3 -7 -2 -8 -4 -7 -3 -7 -4 -7 -4 -7 -5 -6 -5 -7 -5 -6 -6 -6 6 -6 6 6 6 7 5 7 5 7 4 7 4 7 4 8 3 7 3 8 3 8 2 8 2 8 1 8 1 8 0 8 1 8 -1 8 0 9 -1 8 -1 8 -2 8 -2 8 -3 8 -3 7 -3 8 -4 7 -4 8 -4 7 -5 7 -5 7 -6 6 -6 6 0 0zm-162 151l156 -156 6 5 -156 157 0 0 -6 -6zm-235 6l6 -6 0 0 6 6 6 5 7 5 6 5 7 4 7 4 7 3 8 3 7 3 7 3 8 2 8 1 7 2 8 0 8 1 8 0 7 0 8 -1 8 0 7 -2 8 -1 8 -2 7 -3 7 -3 8 -3 7 -3 7 -4 7 -4 6 -5 7 -5 6 -5 6 -6 6 6 -7 6 -6 5 -7 6 -7 5 -7 4 -7 4 -8 4 -7 3 -8 3 -8 2 -8 3 -8 1 -8 2 -8 1 -8 0 -9 0 -8 0 -8 0 -8 -1 -8 -2 -8 -1 -8 -3 -8 -2 -8 -3 -7 -3 -8 -4 -7 -4 -7 -4 -7 -5 -7 -6 -6 -5 -7 -6 0 0zm-678 -690l684 684 -6 6 -683 -684 0 -6 5 0zm-5 6l-3 -3 3 -3 0 6z"/>
    <path id="1" class="fil2" d="M3224 3521l390 -391 684 684c65,65 65,170 0,235l-156 156c-65,64 -170,64 -235,0l-683 -684z"/>
   </g>
   <g>
    <path class="fil4" d="M3496 2076l-154 154 0 0 -27 -25 -28 -24 -29 -23 -29 -20 -31 -19 -31 -17 -31 -16 -32 -14 -33 -12 -33 -11 -34 -9 -34 -8 -34 -5 -34 -5 -35 -2 -35 -1 -34 1 -35 2 -34 5 -34 5 -34 8 -34 9 -33 11 -33 12 -32 14 -31 15 -31 18 -31 19 -29 20 -29 23 -28 23 -27 26 -153 -154 34 -33 37 -31 37 -29 39 -27 39 -24 41 -23 41 -20 42 -19 43 -16 43 -14 44 -12 44 -9 44 -8 45 -5 45 -3 45 -1 45 1 45 3 45 5 44 8 44 9 44 12 43 14 43 16 42 18 41 21 41 22 39 25 39 27 37 29 36 31 35 33 0 0zm0 1327l-154 -154 0 0 26 -27 24 -28 22 -29 21 -29 18 -30 18 -31 15 -32 14 -32 13 -33 10 -33 9 -34 8 -34 6 -34 4 -34 2 -35 1 -34 -1 -35 -2 -34 -4 -35 -6 -34 -8 -34 -9 -33 -10 -34 -13 -32 -14 -33 -15 -31 -18 -31 -19 -31 -20 -29 -22 -29 -24 -28 -26 -27 154 -154 33 35 31 36 29 38 27 38 25 40 22 40 21 41 18 42 16 43 14 43 12 44 10 44 7 45 5 44 4 45 1 45 -1 45 -4 45 -5 45 -7 44 -10 44 -12 44 -14 44 -16 42 -18 42 -21 42 -22 40 -25 40 -27 38 -29 37 -31 37 -33 35 0 0zm-1327 0l154 -154 0 0 27 25 28 24 29 23 30 20 30 19 31 17 32 16 32 14 33 12 33 11 33 9 34 8 34 5 35 5 34 2 35 1 35 -1 34 -2 34 -5 35 -5 34 -8 33 -9 33 -10 33 -13 32 -14 32 -15 31 -18 30 -19 30 -20 28 -22 28 -24 27 -26 154 154 -35 33 -36 31 -38 29 -38 27 -40 25 -40 22 -42 21 -42 18 -42 16 -44 14 -43 12 -45 9 -44 8 -45 5 -45 3 -45 1 -45 -1 -44 -3 -45 -5 -45 -8 -44 -9 -44 -12 -43 -14 -42 -16 -42 -18 -42 -21 -40 -22 -40 -25 -38 -27 -38 -29 -36 -31 -35 -33 0 0zm1 -1327l153 154 0 0 -25 27 -24 28 -23 29 -20 29 -19 30 -17 31 -16 32 -14 32 -12 33 -11 33 -9 34 -7 34 -6 34 -4 34 -3 35 -1 34 1 35 3 34 4 35 6 34 7 34 9 33 11 34 12 32 14 33 16 31 17 31 19 31 21 29 22 29 24 28 25 27 -154 154 -33 -35 -31 -36 -29 -38 -27 -38 -24 -40 -23 -40 -20 -41 -19 -42 -16 -43 -14 -43 -11 -44 -10 -44 -8 -45 -5 -44 -3 -45 -1 -45 1 -45 3 -45 5 -45 8 -44 10 -44 11 -44 14 -43 16 -43 19 -42 20 -42 23 -40 24 -40 27 -38 29 -37 31 -37 34 -35 0 0z"/>
   </g>
  </g>
 </g>
</svg>
