<?xml version="1.0" encoding="UTF-8"?>
<!DOCTYPE svg PUBLIC "-//W3C//DTD SVG 1.1//EN" "http://www.w3.org/Graphics/SVG/1.1/DTD/svg11.dtd">
<!-- Creator: CorelDRAW X8 -->
<svg xmlns="http://www.w3.org/2000/svg" xml:space="preserve" width="50.5mm" height="50mm" version="1.1" style="shape-rendering:geometricPrecision; text-rendering:geometricPrecision; image-rendering:optimizeQuality; fill-rule:evenodd; clip-rule:evenodd"
viewBox="0 0 5050 5000"
 xmlns:xlink="http://www.w3.org/1999/xlink">
 <defs>
  <style type="text/css">
   <![CDATA[
    .str7 {stroke:#FEFEFE;stroke-width:100}
    .str4 {stroke:#495C80;stroke-width:200}
    .str6 {stroke:#FEFEFE;stroke-width:150}
    .str5 {stroke:#FEFEFE;stroke-width:20}
    .str3 {stroke:#495C80;stroke-width:20}
    .str0 {stroke:#495C80;stroke-width:7.62}
    .str2 {stroke:#495C80;stroke-width:350;stroke-linecap:round;stroke-linejoin:round}
    .str1 {stroke:#495C80;stroke-width:350;stroke-linecap:round;stroke-linejoin:round}
    .fil1 {fill:none}
    .fil2 {fill:#FEFEFE}
    .fil4 {fill:#BDBFC1}
    .fil0 {fill:#495C80}
    .fil3 {fill:#BDBFC1;fill-rule:nonzero}
   ]]>
  </style>
 </defs>
 <g id="Capa_x0020_1">
  <metadata id="CorelCorpID_0Corel-Layer"/>
  <g id="_1514508708016">
   <path class="fil0 str0" d="M193 208l4349 0c229,0 416,188 416,416l0 3752c0,228 -187,416 -416,416l-4349 0 0 -4584z"/>
   <g>
    <path class="fil1 str1" d="M4782 2097l0 2215c0,264 -216,480 -480,480l-4060 0c-28,0 -50,-23 -50,-50l0 -4309c0,-28 22,-50 50,-50l2702 0"/>
   </g>
   <g>
    <path class="fil1 str2" d="M4782 2097l0 2215c0,264 -216,480 -480,480l-4060 0c-28,0 -50,-23 -50,-50l0 -4309c0,-28 22,-50 50,-50l2702 0"/>
   </g>
   <rect class="fil2 str3" transform="matrix(2.85765E-14 -0.663525 1.75922 2.86518E-14 671.259 3791.52)" width="723" height="1623" rx="190" ry="190"/>
   <rect class="fil0 str4" x="863" y="2367" width="480" height="1077" rx="126" ry="126"/>
   <rect class="fil0 str4" x="1527" y="1980" width="480" height="1463" rx="126" ry="171"/>
   <rect class="fil0 str4" x="2191" y="2214" width="480" height="1229" rx="126" ry="144"/>
   <rect class="fil2 str4" x="2854" y="1688" width="480" height="1756" rx="126" ry="206"/>
   <rect class="fil2 str5" x="863" y="2367" width="480" height="1077" rx="126" ry="126"/>
   <rect class="fil2 str5" x="1527" y="1980" width="480" height="1463" rx="126" ry="171"/>
   <rect class="fil2 str5" x="2191" y="2214" width="480" height="1229" rx="126" ry="144"/>
   <rect class="fil2 str5" x="2854" y="1688" width="480" height="1756" rx="126" ry="206"/>
   <polyline class="fil1 str6" points="1103,1703 1767,1317 2430,1551 3094,1024 "/>
   <circle class="fil2 str7" cx="1103" cy="1703" r="88"/>
   <circle class="fil2 str7" cx="1767" cy="1317" r="88"/>
   <circle class="fil2 str7" cx="2430" cy="1551" r="88"/>
   <polygon class="fil2 str5" points="3306,894 3238,1062 3171,1231 3057,1072 2943,913 3124,903 "/>
   <g>
    <path class="fil3" d="M3856 3645l-243 243 -4 -4 243 -242 4 0 0 3zm-4 -3l2 -2 2 2 -4 0zm424 428l-424 -425 4 -3 424 424 -4 4zm4 145l-4 -3 0 0 4 -4 3 -4 3 -4 3 -4 3 -4 2 -5 2 -4 2 -5 2 -4 2 -5 1 -4 1 -5 1 -5 0 -5 1 -5 0 -4 0 -5 -1 -5 0 -5 -1 -5 -1 -4 -1 -5 -2 -5 -2 -4 -2 -5 -2 -4 -2 -4 -3 -5 -3 -4 -3 -4 -3 -4 -4 -3 4 -4 4 4 3 4 4 4 3 5 2 4 3 5 2 4 2 5 2 5 2 5 1 4 1 5 1 5 0 5 1 6 0 5 0 5 -1 5 0 5 -1 5 -1 5 -1 5 -2 5 -2 4 -2 5 -2 5 -3 4 -2 5 -3 4 -4 4 -3 4 -4 4 0 0zm-101 94l97 -97 4 3 -97 97 -4 -3zm-145 3l3 -3 0 0 4 3 4 3 4 4 4 2 4 3 5 2 4 3 5 2 4 1 5 2 5 1 4 1 5 1 5 0 5 1 4 0 5 0 5 -1 5 0 5 -1 4 -1 5 -1 5 -2 4 -1 5 -2 4 -3 4 -2 5 -3 4 -2 4 -3 4 -4 3 -3 4 3 -4 4 -4 3 -4 4 -4 3 -5 2 -4 3 -5 2 -5 2 -5 2 -5 2 -4 1 -5 1 -5 1 -5 1 -6 0 -5 0 -5 0 -5 0 -5 -1 -5 -1 -5 -1 -5 -1 -5 -2 -4 -2 -5 -2 -5 -2 -4 -3 -5 -2 -4 -3 -4 -4 -4 -3 -4 -4 0 0zm-421 -428l424 425 -3 3 -425 -424 0 -4 4 0zm-4 4l-1 -2 1 -2 0 4z"/>
    <path id="1" class="fil4" d="M3611 3886l243 -243 424 425c40,40 40,105 0,145l-97 97c-40,40 -105,40 -145,0l-425 -424z"/>
   </g>
   <g>
    <path class="fil3" d="M3780 2989l-95 96 0 0 -17 -16 -17 -15 -18 -14 -18 -13 -19 -11 -20 -11 -19 -10 -20 -9 -20 -7 -21 -7 -21 -5 -21 -5 -21 -4 -22 -2 -21 -2 -21 0 -22 0 -21 2 -22 2 -21 4 -21 5 -21 5 -20 7 -21 7 -20 9 -19 10 -20 11 -18 11 -19 13 -18 14 -17 15 -17 16 -95 -96 22 -20 22 -20 23 -18 24 -16 25 -16 25 -14 26 -12 26 -12 26 -10 27 -8 27 -8 28 -6 27 -4 28 -4 28 -2 28 0 28 0 28 2 27 4 28 4 27 6 28 8 26 8 27 10 26 12 26 12 25 14 24 16 24 16 23 18 23 20 21 20 0 0zm0 823l-95 -95 0 0 16 -17 15 -17 13 -18 13 -18 12 -19 11 -19 9 -20 9 -20 8 -20 6 -21 6 -20 5 -21 3 -22 3 -21 1 -21 1 -22 -1 -21 -1 -22 -3 -21 -3 -21 -5 -21 -6 -21 -6 -21 -8 -20 -9 -20 -9 -20 -11 -19 -12 -19 -13 -18 -13 -18 -15 -17 -16 -17 95 -96 21 22 19 22 18 23 17 24 15 25 14 25 13 26 11 26 10 26 9 27 7 27 6 28 5 27 3 28 2 28 1 28 -1 28 -2 27 -3 28 -5 28 -6 27 -7 27 -9 27 -10 27 -11 26 -13 26 -14 25 -15 24 -17 24 -18 23 -19 23 -21 21 0 0zm-823 1l96 -96 0 0 16 16 18 15 17 14 19 12 19 12 19 11 20 10 20 8 20 8 20 7 21 5 21 5 22 3 21 3 21 1 22 1 21 -1 22 -1 21 -3 21 -3 21 -5 21 -5 21 -7 20 -8 20 -8 20 -10 19 -11 19 -12 18 -12 18 -14 17 -15 17 -16 95 95 -21 21 -23 19 -23 18 -24 17 -25 15 -25 14 -25 13 -26 11 -27 10 -27 9 -27 7 -27 6 -28 5 -28 3 -28 2 -27 1 -28 -1 -28 -2 -28 -3 -28 -5 -27 -6 -27 -7 -27 -9 -27 -10 -26 -11 -25 -13 -25 -14 -25 -15 -24 -17 -23 -18 -22 -19 -22 -20 0 0zm0 -824l95 96 0 0 -15 16 -15 18 -14 17 -13 19 -12 19 -10 19 -10 19 -9 20 -7 21 -7 20 -6 21 -4 21 -4 21 -2 22 -2 21 0 22 0 21 2 22 2 21 4 21 4 21 6 21 7 21 7 20 9 20 10 20 10 19 12 19 13 18 14 18 15 17 16 17 -96 96 -21 -22 -19 -23 -18 -23 -17 -24 -15 -24 -14 -25 -13 -26 -11 -26 -10 -26 -9 -27 -7 -27 -6 -28 -5 -27 -3 -28 -2 -28 -1 -28 1 -28 2 -28 3 -27 5 -28 6 -28 7 -27 9 -27 10 -26 11 -26 13 -26 14 -25 15 -24 17 -24 18 -24 19 -22 21 -22 0 0z"/>
   </g>
  </g>
 </g>
</svg>
