<?xml version="1.0" encoding="UTF-8"?>
<!DOCTYPE svg PUBLIC "-//W3C//DTD SVG 1.1//EN" "http://www.w3.org/Graphics/SVG/1.1/DTD/svg11.dtd">
<!-- Creator: CorelDRAW X8 -->
<svg xmlns="http://www.w3.org/2000/svg" xml:space="preserve" width="50.5mm" height="50mm" version="1.1" style="shape-rendering:geometricPrecision; text-rendering:geometricPrecision; image-rendering:optimizeQuality; fill-rule:evenodd; clip-rule:evenodd"
viewBox="0 0 5050 5000"
 xmlns:xlink="http://www.w3.org/1999/xlink">
 <defs>
  <style type="text/css">
   <![CDATA[
    .str2 {stroke:#FEFEFE;stroke-width:250}
    .str0 {stroke:#495C80;stroke-width:7.62}
    .str1 {stroke:#FEFEFE;stroke-width:250;stroke-linecap:round;stroke-linejoin:round}
    .fil2 {fill:none}
    .fil0 {fill:#495C80}
    .fil1 {fill:#495C80;fill-rule:nonzero}
   ]]>
  </style>
 </defs>
 <g id="Capa_x0020_1">
  <metadata id="CorelCorpID_0Corel-Layer"/>
  <g id="_1514445382928">
   <path class="fil0 str0" d="M267 182l4185 0c227,0 414,186 414,414l0 3735c0,227 -187,414 -414,414l-4266 0 0 -4482c0,-45 36,-81 81,-81z"/>
   <g>
    <path class="fil1" d="M4677 2043c0,-56 44,-100 97,-100 54,0 97,44 97,100l-194 0zm0 2281l0 -2281 194 0 0 2281 0 0 -194 0zm-383 594l0 -200 0 0 20 0 19 -2 19 -2 19 -4 19 -4 18 -6 17 -6 18 -7 17 -8 16 -9 16 -9 16 -10 15 -12 14 -11 14 -13 14 -13 12 -14 12 -14 12 -15 11 -15 10 -17 9 -16 8 -17 8 -17 7 -18 6 -19 5 -18 4 -19 4 -20 2 -19 2 -20 0 -20 194 0 0 30 -3 30 -3 30 -5 29 -7 29 -8 28 -9 28 -10 27 -12 26 -13 26 -14 25 -15 24 -16 23 -17 22 -18 22 -19 21 -20 19 -21 19 -22 18 -22 16 -24 16 -24 14 -25 13 -25 12 -27 11 -26 9 -28 8 -28 7 -28 5 -29 4 -29 2 -30 1 0 0zm-4060 -200l4060 0 0 200 -4060 0 0 0 0 -200zm-147 49l194 0 0 0 0 -3 0 -2 0 -3 -1 -2 0 -3 -1 -2 -1 -2 0 -2 -1 -3 -1 -2 -2 -2 -1 -2 -1 -2 -1 -1 -2 -2 -1 -2 -2 -1 -2 -2 -1 -1 -2 -1 -2 -2 -2 -1 -2 -1 -2 -1 -2 -1 -3 -1 -2 0 -2 -1 -3 0 -2 -1 -2 0 -3 0 0 200 -7 0 -8 -1 -7 -1 -7 -1 -8 -2 -7 -2 -6 -2 -7 -3 -7 -3 -6 -3 -6 -4 -6 -4 -6 -4 -5 -5 -6 -4 -5 -5 -4 -5 -5 -6 -5 -6 -4 -6 -3 -6 -4 -6 -3 -7 -3 -6 -3 -7 -2 -7 -2 -7 -2 -8 -1 -7 -1 -8 -1 -8 0 -7 0 0zm194 -4439l0 4439 -194 0 0 -4439 0 0 194 0zm-47 -152l0 200 0 0 3 0 2 0 2 0 3 -1 2 0 2 -1 3 -1 2 0 2 -1 2 -1 2 -2 2 -1 2 -1 1 -2 2 -1 2 -2 1 -1 2 -2 1 -2 1 -2 1 -2 2 -2 1 -2 1 -2 0 -2 1 -2 1 -3 0 -2 1 -3 0 -2 0 -3 0 -2 -194 0 0 -8 1 -7 1 -8 1 -8 2 -7 2 -7 2 -7 3 -7 3 -7 3 -6 4 -7 3 -6 4 -6 5 -5 5 -6 4 -5 5 -5 6 -5 5 -4 6 -4 6 -4 6 -4 6 -3 7 -4 7 -2 6 -3 7 -2 8 -1 7 -2 7 -1 8 0 7 -1 0 0zm2702 200l-2702 0 0 -200 2702 0 0 200zm0 -200c54,0 97,45 97,100 0,56 -43,100 -97,100l0 -200z"/>
   </g>
   <g>
    <path class="fil1" d="M4677 2043c0,-56 44,-100 97,-100 54,0 97,44 97,100l-194 0zm0 2281l0 -2281 194 0 0 2281 0 0 -194 0zm-383 594l0 -200 0 0 20 0 19 -2 19 -2 19 -4 19 -4 18 -6 17 -6 18 -7 17 -8 16 -9 16 -9 16 -10 15 -12 14 -11 14 -13 14 -13 12 -14 12 -14 12 -15 11 -15 10 -17 9 -16 8 -17 8 -17 7 -18 6 -19 5 -18 4 -19 4 -20 2 -19 2 -20 0 -20 194 0 0 30 -3 30 -3 30 -5 29 -7 29 -8 28 -9 28 -10 27 -12 26 -13 26 -14 25 -15 24 -16 23 -17 22 -18 22 -19 21 -20 19 -21 19 -22 18 -22 16 -24 16 -24 14 -25 13 -25 12 -27 11 -26 9 -28 8 -28 7 -28 5 -29 4 -29 2 -30 1 0 0zm-4060 -200l4060 0 0 200 -4060 0 0 0 0 -200zm-147 49l194 0 0 0 0 -3 0 -2 0 -3 -1 -2 0 -3 -1 -2 -1 -2 0 -2 -1 -3 -1 -2 -2 -2 -1 -2 -1 -2 -1 -1 -2 -2 -1 -2 -2 -1 -2 -2 -1 -1 -2 -1 -2 -2 -2 -1 -2 -1 -2 -1 -2 -1 -3 -1 -2 0 -2 -1 -3 0 -2 -1 -2 0 -3 0 0 200 -7 0 -8 -1 -7 -1 -7 -1 -8 -2 -7 -2 -6 -2 -7 -3 -7 -3 -6 -3 -6 -4 -6 -4 -6 -4 -5 -5 -6 -4 -5 -5 -4 -5 -5 -6 -5 -6 -4 -6 -3 -6 -4 -6 -3 -7 -3 -6 -3 -7 -2 -7 -2 -7 -2 -8 -1 -7 -1 -8 -1 -8 0 -7 0 0zm194 -4439l0 4439 -194 0 0 -4439 0 0 194 0zm-47 -152l0 200 0 0 3 0 2 0 2 0 3 -1 2 0 2 -1 3 -1 2 0 2 -1 2 -1 2 -2 2 -1 2 -1 1 -2 2 -1 2 -2 1 -1 2 -2 1 -2 1 -2 1 -2 2 -2 1 -2 1 -2 0 -2 1 -2 1 -3 0 -2 1 -3 0 -2 0 -3 0 -2 -194 0 0 -8 1 -7 1 -8 1 -8 2 -7 2 -7 2 -7 3 -7 3 -7 3 -6 4 -7 3 -6 4 -6 5 -5 5 -6 4 -5 5 -5 6 -5 5 -4 6 -4 6 -4 6 -4 6 -3 7 -4 7 -2 6 -3 7 -2 8 -1 7 -2 7 -1 8 0 7 -1 0 0zm2702 200l-2702 0 0 -200 2702 0 0 200zm0 -200c54,0 97,45 97,100 0,56 -43,100 -97,100l0 -200z"/>
   </g>
   <path class="fil2 str1" d="M2236 2854l0 770c0,95 -78,173 -174,173l-679 0c-96,0 -174,-78 -174,-173l0 -680c0,-95 78,-174 174,-174l309 0"/>
   <rect class="fil2 str2" x="2735" y="2770" width="1027" height="1027" rx="174" ry="152"/>
   <path class="fil2 str1" d="M2735 2188l0 -770c0,-95 79,-174 174,-174l679 0c96,0 174,79 174,174l0 680c0,95 -78,173 -174,173l-309 0"/>
   <rect class="fil2 str2" x="1209" y="1244" width="1027" height="1027" rx="174" ry="152"/>
  </g>
 </g>
</svg>
