<?xml version="1.0" encoding="UTF-8"?>
<!DOCTYPE svg PUBLIC "-//W3C//DTD SVG 1.1//EN" "http://www.w3.org/Graphics/SVG/1.1/DTD/svg11.dtd">
<!-- Creator: CorelDRAW X8 -->
<svg xmlns="http://www.w3.org/2000/svg" xml:space="preserve" width="50.5mm" height="50mm" version="1.1" style="shape-rendering:geometricPrecision; text-rendering:geometricPrecision; image-rendering:optimizeQuality; fill-rule:evenodd; clip-rule:evenodd"
viewBox="0 0 5050 5000"
 xmlns:xlink="http://www.w3.org/1999/xlink">
 <defs>
  <style type="text/css">
   <![CDATA[
    .str0 {stroke:#495C80;stroke-width:7.62}
    .str2 {stroke:#FEFEFE;stroke-width:5.83}
    .str1 {stroke:#FEFEFE;stroke-width:204.08}
    .str7 {stroke:#FEFEFE;stroke-width:145.77}
    .str9 {stroke:#FEFEFE;stroke-width:145.77}
    .str11 {stroke:#FEFEFE;stroke-width:145.77}
    .str5 {stroke:#FEFEFE;stroke-width:145.77}
    .str6 {stroke:#FEFEFE;stroke-width:116.62;stroke-linecap:round;stroke-linejoin:round}
    .str8 {stroke:#FEFEFE;stroke-width:116.62;stroke-linecap:round;stroke-linejoin:round}
    .str4 {stroke:#FEFEFE;stroke-width:116.62;stroke-linecap:round;stroke-linejoin:round}
    .str10 {stroke:#FEFEFE;stroke-width:116.62;stroke-linecap:round;stroke-linejoin:round}
    .str3 {stroke:#495C80;stroke-width:145.77;stroke-linecap:round;stroke-linejoin:round}
    .fil2 {fill:none}
    .fil3 {fill:#FEFEFE}
    .fil0 {fill:#495C80}
    .fil4 {fill:#FEFEFE;fill-rule:nonzero}
    .fil1 {fill:#495C80;fill-rule:nonzero}
   ]]>
  </style>
 </defs>
 <g id="Capa_x0020_1">
  <metadata id="CorelCorpID_0Corel-Layer"/>
  <g id="_1514419278336">
   <path class="fil0 str0" d="M267 182l4185 0c227,0 414,186 414,414l0 3735c0,227 -187,414 -414,414l-4266 0 0 -4482c0,-45 36,-81 81,-81z"/>
   <g>
    <path class="fil1" d="M4677 2043c0,-56 44,-100 97,-100 54,0 97,44 97,100l-194 0zm0 2281l0 -2281 194 0 0 2281 0 0 -194 0zm-383 594l0 -200 0 0 20 0 19 -2 19 -2 19 -4 19 -4 18 -6 17 -6 18 -7 17 -8 16 -9 16 -9 16 -10 15 -12 14 -11 14 -13 14 -13 12 -14 12 -14 12 -15 11 -15 10 -17 9 -16 8 -17 8 -17 7 -18 6 -19 5 -18 4 -19 4 -20 2 -19 2 -20 0 -20 194 0 0 30 -3 30 -3 30 -5 29 -7 29 -8 28 -9 28 -10 27 -12 26 -13 26 -14 25 -15 24 -16 23 -17 22 -18 22 -19 21 -20 19 -21 19 -22 18 -22 16 -24 16 -24 14 -25 13 -25 12 -27 11 -26 9 -28 8 -28 7 -28 5 -29 4 -29 2 -30 1 0 0zm-4060 -200l4060 0 0 200 -4060 0 0 0 0 -200zm-147 49l194 0 0 0 0 -3 0 -2 0 -3 -1 -2 0 -3 -1 -2 -1 -2 0 -2 -1 -3 -1 -2 -2 -2 -1 -2 -1 -2 -1 -1 -2 -2 -1 -2 -2 -1 -2 -2 -1 -1 -2 -1 -2 -2 -2 -1 -2 -1 -2 -1 -2 -1 -3 -1 -2 0 -2 -1 -3 0 -2 -1 -2 0 -3 0 0 200 -7 0 -8 -1 -7 -1 -7 -1 -8 -2 -7 -2 -6 -2 -7 -3 -7 -3 -6 -3 -6 -4 -6 -4 -6 -4 -5 -5 -6 -4 -5 -5 -4 -5 -5 -6 -5 -6 -4 -6 -3 -6 -4 -6 -3 -7 -3 -6 -3 -7 -2 -7 -2 -7 -2 -8 -1 -7 -1 -8 -1 -8 0 -7 0 0zm194 -4439l0 4439 -194 0 0 -4439 0 0 194 0zm-47 -152l0 200 0 0 3 0 2 0 2 0 3 -1 2 0 2 -1 3 -1 2 0 2 -1 2 -1 2 -2 2 -1 2 -1 1 -2 2 -1 2 -2 1 -1 2 -2 1 -2 1 -2 1 -2 2 -2 1 -2 1 -2 0 -2 1 -2 1 -3 0 -2 1 -3 0 -2 0 -3 0 -2 -194 0 0 -8 1 -7 1 -8 1 -8 2 -7 2 -7 2 -7 3 -7 3 -7 3 -6 4 -7 3 -6 4 -6 5 -5 5 -6 4 -5 5 -5 6 -5 5 -4 6 -4 6 -4 6 -4 6 -3 7 -4 7 -2 6 -3 7 -2 8 -1 7 -2 7 -1 8 0 7 -1 0 0zm2702 200l-2702 0 0 -200 2702 0 0 200zm0 -200c54,0 97,45 97,100 0,56 -43,100 -97,100l0 -200z"/>
   </g>
   <g>
    <path class="fil1" d="M4677 2043c0,-56 44,-100 97,-100 54,0 97,44 97,100l-194 0zm0 2281l0 -2281 194 0 0 2281 0 0 -194 0zm-383 594l0 -200 0 0 20 0 19 -2 19 -2 19 -4 19 -4 18 -6 17 -6 18 -7 17 -8 16 -9 16 -9 16 -10 15 -12 14 -11 14 -13 14 -13 12 -14 12 -14 12 -15 11 -15 10 -17 9 -16 8 -17 8 -17 7 -18 6 -19 5 -18 4 -19 4 -20 2 -19 2 -20 0 -20 194 0 0 30 -3 30 -3 30 -5 29 -7 29 -8 28 -9 28 -10 27 -12 26 -13 26 -14 25 -15 24 -16 23 -17 22 -18 22 -19 21 -20 19 -21 19 -22 18 -22 16 -24 16 -24 14 -25 13 -25 12 -27 11 -26 9 -28 8 -28 7 -28 5 -29 4 -29 2 -30 1 0 0zm-4060 -200l4060 0 0 200 -4060 0 0 0 0 -200zm-147 49l194 0 0 0 0 -3 0 -2 0 -3 -1 -2 0 -3 -1 -2 -1 -2 0 -2 -1 -3 -1 -2 -2 -2 -1 -2 -1 -2 -1 -1 -2 -2 -1 -2 -2 -1 -2 -2 -1 -1 -2 -1 -2 -2 -2 -1 -2 -1 -2 -1 -2 -1 -3 -1 -2 0 -2 -1 -3 0 -2 -1 -2 0 -3 0 0 200 -7 0 -8 -1 -7 -1 -7 -1 -8 -2 -7 -2 -6 -2 -7 -3 -7 -3 -6 -3 -6 -4 -6 -4 -6 -4 -5 -5 -6 -4 -5 -5 -4 -5 -5 -6 -5 -6 -4 -6 -3 -6 -4 -6 -3 -7 -3 -6 -3 -7 -2 -7 -2 -7 -2 -8 -1 -7 -1 -8 -1 -8 0 -7 0 0zm194 -4439l0 4439 -194 0 0 -4439 0 0 194 0zm-47 -152l0 200 0 0 3 0 2 0 2 0 3 -1 2 0 2 -1 3 -1 2 0 2 -1 2 -1 2 -2 2 -1 2 -1 1 -2 2 -1 2 -2 1 -1 2 -2 1 -2 1 -2 1 -2 2 -2 1 -2 1 -2 0 -2 1 -2 1 -3 0 -2 1 -3 0 -2 0 -3 0 -2 -194 0 0 -8 1 -7 1 -8 1 -8 2 -7 2 -7 2 -7 3 -7 3 -7 3 -6 4 -7 3 -6 4 -6 5 -5 5 -6 4 -5 5 -5 6 -5 5 -4 6 -4 6 -4 6 -4 6 -3 7 -4 7 -2 6 -3 7 -2 8 -1 7 -2 7 -1 8 0 7 -1 0 0zm2702 200l-2702 0 0 -200 2702 0 0 200zm0 -200c54,0 97,45 97,100 0,56 -43,100 -97,100l0 -200z"/>
   </g>
   <g>
    <path class="fil2 str1" d="M2638 4085l-990 0c-109,0 -198,-89 -198,-197l0 -2469c0,-108 89,-197 198,-197l182 0m1476 0l150 0c108,0 197,89 197,197l0 1573"/>
   </g>
   <g>
    <path class="fil2 str2" d="M2571 802c154,0 280,126 280,281l250 0c32,0 59,26 59,58l0 45c0,160 -132,292 -292,292l-633 0c-160,0 -291,-132 -291,-292l0 -45c0,-32 26,-58 58,-58l250 0c0,-155 127,-281 281,-281l38 0zm-19 187c64,0 116,52 116,116 0,65 -52,117 -116,117 -65,0 -117,-52 -117,-117 0,-64 52,-116 117,-116z"/>
    <path id="1" class="fil3" d="M2571 802c154,0 280,126 280,281l250 0c32,0 59,26 59,58l0 45c0,160 -132,292 -292,292l-633 0c-160,0 -291,-132 -291,-292l0 -45c0,-32 26,-58 58,-58l250 0c0,-155 127,-281 281,-281l38 0zm-19 187c64,0 116,52 116,116 0,65 -52,117 -116,117 -65,0 -117,-52 -117,-117 0,-64 52,-116 117,-116z"/>
   </g>
   <g>
    <path class="fil4" d="M4000 3733l-6 0 0 0 -1 -32 -2 -33 -4 -32 -6 -31 -7 -31 -8 -31 -11 -29 -11 -29 -13 -29 -14 -27 -15 -27 -17 -26 -18 -25 -19 -24 -20 -23 -21 -22 -22 -21 -23 -21 -24 -19 -25 -17 -26 -17 -27 -15 -28 -14 -28 -13 -29 -12 -30 -10 -30 -8 -31 -7 -31 -6 -32 -4 -33 -3 -33 0 0 -6 34 1 32 2 33 4 31 6 32 7 30 9 30 10 29 11 29 13 28 15 27 15 26 17 25 18 24 19 24 20 22 22 22 22 20 23 19 25 18 25 17 26 15 27 15 28 12 28 12 30 10 30 9 30 7 31 6 32 4 32 2 33 1 33 0 0zm-645 645l0 -6 0 0 33 -1 33 -2 32 -4 31 -6 31 -7 30 -9 30 -10 29 -11 28 -13 28 -14 27 -15 26 -17 25 -18 24 -19 23 -20 22 -21 21 -22 20 -23 19 -24 18 -25 17 -26 15 -27 14 -28 13 -28 11 -29 11 -30 8 -30 7 -31 6 -31 4 -32 2 -33 1 -33 6 0 -1 34 -2 32 -4 33 -6 31 -7 32 -9 30 -10 30 -12 29 -12 29 -15 28 -15 27 -17 26 -18 25 -19 24 -20 24 -22 22 -22 22 -24 20 -24 19 -25 18 -26 17 -27 15 -28 14 -29 13 -29 12 -30 10 -30 9 -32 7 -31 6 -33 4 -32 2 -34 1 0 0zm-644 -645l6 0 0 0 0 33 3 33 4 32 6 31 7 31 8 30 10 30 12 29 13 28 14 28 15 27 17 26 17 25 19 24 21 23 21 22 22 21 23 20 24 19 25 18 26 17 27 15 27 14 29 13 29 11 29 10 31 9 31 7 31 6 32 4 33 2 32 1 0 6 -33 -1 -32 -2 -33 -4 -31 -6 -32 -7 -30 -9 -30 -10 -30 -12 -28 -13 -28 -14 -27 -15 -26 -17 -25 -18 -25 -19 -23 -20 -22 -22 -22 -22 -20 -24 -19 -24 -18 -25 -17 -26 -15 -27 -15 -28 -13 -29 -11 -29 -10 -30 -9 -30 -7 -32 -6 -31 -4 -33 -2 -32 -1 -34 0 0zm644 -644l0 6 0 0 -32 0 -33 3 -32 4 -31 6 -31 7 -31 8 -29 10 -29 12 -29 13 -27 14 -27 15 -26 17 -25 17 -24 19 -23 21 -22 21 -21 22 -21 23 -19 24 -17 25 -17 26 -15 27 -14 27 -13 29 -12 29 -10 29 -8 31 -7 31 -6 31 -4 32 -3 33 0 32 -6 0 1 -33 2 -33 4 -32 6 -32 7 -31 9 -30 10 -30 11 -30 13 -28 15 -28 15 -27 17 -26 18 -25 19 -25 20 -23 22 -22 22 -22 23 -20 25 -19 25 -18 26 -17 27 -15 28 -15 28 -13 30 -11 30 -10 30 -9 32 -7 31 -6 33 -4 32 -2 33 -1 0 0z"/>
    <path id="1" class="fil3" d="M3355 3092c355,0 642,287 642,641 0,355 -287,642 -642,642 -354,0 -641,-287 -641,-642 0,-354 287,-641 641,-641z"/>
   </g>
   <g>
    <polyline class="fil2 str3" points="2986,3771 3223,4044 3632,3556 "/>
   </g>
   <g>
    <polyline class="fil2 str4" points="1852,1835 1968,1968 2169,1729 "/>
   </g>
   <g>
    <line class="fil2 str5" x1="2402" y1="1950" x2="3308" y2= "1950" />
   </g>
   <g>
    <polyline class="fil2 str6" points="1852,2384 1968,2518 2169,2279 "/>
   </g>
   <g>
    <line class="fil2 str7" x1="2402" y1="2499" x2="3308" y2= "2499" />
   </g>
   <g>
    <polyline class="fil2 str8" points="1852,2902 1968,3036 2169,2797 "/>
   </g>
   <g>
    <line class="fil2 str9" x1="2402" y1="3018" x2="2968" y2= "3018" />
   </g>
   <g>
    <polyline class="fil2 str10" points="1852,3439 1968,3573 2169,3334 "/>
   </g>
   <g>
    <line class="fil2 str11" x1="2402" y1="3554" x2="2573" y2= "3554" />
   </g>
  </g>
 </g>
</svg>
