<?xml version="1.0" encoding="UTF-8"?>
<!DOCTYPE svg PUBLIC "-//W3C//DTD SVG 1.1//EN" "http://www.w3.org/Graphics/SVG/1.1/DTD/svg11.dtd">
<!-- Creator: CorelDRAW X8 -->
<svg xmlns="http://www.w3.org/2000/svg" xml:space="preserve" width="50mm" height="50mm" version="1.1" style="shape-rendering:geometricPrecision; text-rendering:geometricPrecision; image-rendering:optimizeQuality; fill-rule:evenodd; clip-rule:evenodd"
viewBox="0 0 5000 5000"
 xmlns:xlink="http://www.w3.org/1999/xlink">
 <defs>
  <style type="text/css">
   <![CDATA[
    .str1 {stroke:#495C80;stroke-width:5.83}
    .str0 {stroke:#495C80;stroke-width:204.08}
    .str6 {stroke:#495C80;stroke-width:145.77}
    .str4 {stroke:#495C80;stroke-width:145.77}
    .str8 {stroke:#495C80;stroke-width:145.77}
    .str10 {stroke:#495C80;stroke-width:145.77}
    .str3 {stroke:#495C80;stroke-width:116.62;stroke-linecap:round;stroke-linejoin:round}
    .str5 {stroke:#495C80;stroke-width:116.62;stroke-linecap:round;stroke-linejoin:round}
    .str9 {stroke:#495C80;stroke-width:116.62;stroke-linecap:round;stroke-linejoin:round}
    .str7 {stroke:#495C80;stroke-width:116.62;stroke-linecap:round;stroke-linejoin:round}
    .str2 {stroke:#FEFEFE;stroke-width:145.77;stroke-linecap:round;stroke-linejoin:round}
    .fil0 {fill:none}
    .fil1 {fill:#495C80}
    .fil3 {fill:#D2D3D5;fill-rule:nonzero}
    .fil2 {fill:#495C80;fill-rule:nonzero}
   ]]>
  </style>
 </defs>
 <g id="Capa_x0020_1">
  <metadata id="CorelCorpID_0Corel-Layer"/>
  <g>
   <path class="fil0 str0" d="M2659 4038l-991 0c-108,0 -197,-89 -197,-198l0 -2468c0,-109 89,-197 197,-197l182 0m1477 0l149 0c109,0 198,88 198,197l0 1572"/>
  </g>
  <g>
   <path class="fil0 str1" d="M2591 755c155,0 281,126 281,280l250 0c32,0 58,27 58,59l0 45c0,160 -131,291 -291,291l-633 0c-160,0 -291,-131 -291,-291l0 -45c0,-32 26,-59 58,-59l250 0c0,-154 126,-280 281,-280l37 0zm-19 186c65,0 117,53 117,117 0,64 -52,117 -117,117 -64,0 -116,-53 -116,-117 0,-64 52,-117 116,-117z"/>
   <path id="1" class="fil1" d="M2591 755c155,0 281,126 281,280l250 0c32,0 58,27 58,59l0 45c0,160 -131,291 -291,291l-633 0c-160,0 -291,-131 -291,-291l0 -45c0,-32 26,-59 58,-59l250 0c0,-154 126,-280 281,-280l37 0zm-19 186c65,0 117,53 117,117 0,64 -52,117 -117,117 -64,0 -116,-53 -116,-117 0,-64 52,-117 116,-117z"/>
  </g>
  <g>
   <path class="fil2" d="M4021 3686l-6 0 0 0 -1 -33 -2 -32 -4 -32 -6 -32 -7 -31 -9 -30 -10 -30 -11 -29 -13 -28 -14 -27 -15 -27 -17 -26 -18 -25 -19 -24 -20 -23 -21 -23 -22 -21 -23 -20 -25 -19 -25 -18 -26 -16 -26 -16 -28 -14 -28 -12 -29 -12 -30 -10 -30 -9 -31 -7 -32 -5 -32 -4 -32 -3 -33 -1 0 -6 33 1 33 3 32 4 32 6 31 7 31 8 30 11 29 11 29 13 27 14 27 16 27 17 25 18 24 19 24 20 22 21 21 23 21 23 19 24 18 26 16 26 16 27 14 28 13 28 12 29 10 30 9 31 7 31 5 32 4 32 3 33 1 33 0 0zm-645 645l0 -6 0 0 33 -1 32 -2 32 -4 32 -6 31 -7 30 -9 30 -10 29 -11 28 -13 28 -14 26 -16 26 -16 25 -18 25 -19 23 -20 22 -21 21 -22 20 -24 19 -24 18 -25 17 -26 15 -26 14 -28 13 -28 11 -29 10 -30 9 -30 7 -31 6 -32 4 -32 2 -32 1 -33 6 0 -1 33 -3 33 -4 32 -5 32 -7 31 -9 31 -10 30 -12 29 -13 29 -14 27 -16 27 -16 27 -18 25 -19 24 -21 24 -21 22 -22 21 -24 21 -24 19 -25 18 -27 16 -27 16 -27 14 -29 13 -29 12 -30 10 -31 9 -31 7 -32 5 -32 4 -33 3 -33 1 0 0zm-645 -645l6 0 0 0 1 33 3 32 4 32 5 32 7 31 9 30 10 30 12 29 12 28 14 28 16 26 16 26 18 25 19 24 20 24 21 22 23 21 23 20 24 19 25 18 26 16 27 16 27 14 28 13 30 11 29 10 31 9 30 7 32 6 32 4 32 2 33 1 0 6 -33 -1 -33 -3 -32 -4 -32 -5 -31 -7 -31 -9 -29 -10 -30 -12 -28 -13 -28 -14 -27 -16 -26 -16 -26 -18 -24 -19 -23 -21 -23 -21 -21 -22 -20 -24 -19 -24 -18 -25 -17 -27 -16 -27 -14 -27 -13 -29 -11 -29 -11 -30 -8 -31 -7 -31 -6 -32 -4 -32 -3 -33 -1 -33 0 0zm645 -645l0 6 0 0 -33 1 -32 3 -32 4 -32 5 -30 7 -31 9 -29 10 -30 12 -28 12 -27 14 -27 16 -26 16 -25 18 -24 19 -23 20 -23 21 -21 23 -20 23 -19 24 -18 25 -16 26 -16 27 -14 27 -12 28 -12 29 -10 30 -9 30 -7 31 -5 32 -4 32 -3 32 -1 33 -6 0 1 -33 3 -33 4 -32 6 -32 7 -31 8 -31 11 -30 11 -29 13 -28 14 -28 16 -27 17 -26 18 -26 19 -24 20 -23 21 -23 23 -21 23 -20 24 -19 26 -18 26 -17 27 -16 28 -14 28 -13 30 -11 29 -11 31 -8 31 -7 32 -6 32 -4 33 -3 33 -1 0 0z"/>
   <path id="1" class="fil1" d="M3376 3044c355,0 642,288 642,642 0,355 -287,642 -642,642 -354,0 -642,-287 -642,-642 0,-354 288,-642 642,-642z"/>
  </g>
  <g>
   <polyline class="fil0 str2" points="3007,3723 3244,3996 3652,3509 "/>
  </g>
  <g>
   <polyline class="fil0 str3" points="1873,1787 1989,1921 2190,1682 "/>
  </g>
  <g>
   <line class="fil0 str4" x1="2423" y1="1903" x2="3328" y2= "1903" />
  </g>
  <g>
   <polyline class="fil0 str5" points="1873,2337 1989,2470 2190,2231 "/>
  </g>
  <g>
   <line class="fil0 str6" x1="2423" y1="2452" x2="3328" y2= "2452" />
  </g>
  <g>
   <polyline class="fil0 str7" points="1873,2855 1989,2989 2190,2750 "/>
  </g>
  <g>
   <line class="fil0 str8" x1="2423" y1="2970" x2="2989" y2= "2970" />
  </g>
  <g>
   <polyline class="fil0 str9" points="1873,3392 1989,3526 2190,3287 "/>
  </g>
  <g>
   <line class="fil0 str10" x1="2423" y1="3507" x2="2594" y2= "3507" />
  </g>
  <g>
   <path class="fil3" d="M4698 1995c0,-55 43,-100 97,-100 54,0 97,45 97,100l-194 0zm0 2281l0 -2281 194 0 0 2281 0 0 -194 0zm-383 595l0 -200 0 0 20 -1 19 -1 19 -3 19 -3 18 -5 18 -5 18 -6 17 -7 17 -8 17 -9 16 -9 16 -11 15 -11 14 -12 14 -12 13 -13 13 -14 12 -14 12 -15 10 -16 10 -16 10 -16 8 -17 8 -18 7 -18 6 -18 5 -18 4 -19 4 -20 2 -19 1 -20 1 -21 194 0 -1 31 -2 30 -4 30 -5 29 -6 29 -8 28 -9 27 -10 27 -12 27 -13 25 -14 25 -15 24 -16 24 -17 22 -18 22 -19 20 -20 20 -21 19 -22 17 -23 17 -23 15 -24 15 -25 13 -26 12 -26 11 -27 9 -27 8 -28 7 -28 5 -29 4 -29 2 -30 1 0 0zm-4060 -200l4060 0 0 200 -4060 0 0 0 0 -200zm-147 48l194 0 0 0 0 -2 0 -3 -1 -2 0 -2 0 -3 -1 -2 -1 -3 -1 -2 -1 -2 -1 -2 -1 -2 -1 -2 -1 -2 -2 -2 -1 -1 -2 -2 -1 -2 -2 -1 -2 -2 -1 -1 -2 -1 -2 -1 -2 -1 -2 -1 -3 -1 -2 -1 -2 -1 -3 0 -2 -1 -2 0 -3 0 -2 0 0 200 -8 0 -7 -1 -7 -1 -8 -1 -7 -2 -7 -2 -7 -2 -6 -3 -7 -3 -6 -4 -6 -3 -6 -4 -6 -4 -6 -5 -5 -5 -5 -5 -5 -5 -4 -5 -5 -6 -4 -6 -4 -6 -3 -6 -3 -7 -3 -7 -3 -6 -2 -8 -2 -7 -2 -7 -1 -8 -1 -7 -1 -8 0 -8 0 0zm194 -4438l0 4438 -194 0 0 -4438 0 0 194 0zm-47 -152l0 200 0 0 2 0 3 0 2 0 2 -1 3 0 2 -1 2 -1 3 -1 2 -1 2 -1 2 -1 2 -1 1 -1 2 -2 2 -1 1 -2 2 -2 1 -1 2 -2 1 -2 1 -2 1 -2 1 -2 1 -2 1 -2 1 -3 1 -2 0 -3 0 -2 1 -2 0 -3 0 -2 -194 0 0 -8 1 -8 1 -7 1 -8 2 -7 2 -7 2 -7 3 -7 3 -7 3 -7 3 -6 4 -6 4 -6 5 -6 4 -5 5 -5 5 -5 5 -5 6 -5 6 -4 6 -4 6 -3 6 -4 7 -3 6 -3 7 -2 7 -2 7 -2 8 -1 7 -1 7 -1 8 0 0 0zm2702 200l-2702 0 0 -200 2702 0 0 200zm0 -200c53,0 97,45 97,100 0,55 -44,100 -97,100l0 -200z"/>
  </g>
 </g>
</svg>
