<?xml version="1.0" encoding="UTF-8"?>
<!DOCTYPE svg PUBLIC "-//W3C//DTD SVG 1.1//EN" "http://www.w3.org/Graphics/SVG/1.1/DTD/svg11.dtd">
<!-- Creator: CorelDRAW X8 -->
<svg xmlns="http://www.w3.org/2000/svg" xml:space="preserve" width="50mm" height="50mm" version="1.1" style="shape-rendering:geometricPrecision; text-rendering:geometricPrecision; image-rendering:optimizeQuality; fill-rule:evenodd; clip-rule:evenodd"
viewBox="0 0 5000 5000"
 xmlns:xlink="http://www.w3.org/1999/xlink">
 <defs>
  <style type="text/css">
   <![CDATA[
    .str1 {stroke:#FEFEFE;stroke-width:200}
    .str2 {stroke:#96989A;stroke-width:122.02;stroke-linecap:round;stroke-linejoin:round}
    .str0 {stroke:#495C80;stroke-width:350;stroke-linecap:round;stroke-linejoin:round}
    .str7 {stroke:#96989A;stroke-width:81.35;stroke-linecap:round;stroke-linejoin:round}
    .str6 {stroke:#96989A;stroke-width:81.35;stroke-linecap:round;stroke-linejoin:round}
    .str3 {stroke:#96989A;stroke-width:81.35;stroke-linecap:round;stroke-linejoin:round}
    .str4 {stroke:#96989A;stroke-width:81.35;stroke-linecap:round;stroke-linejoin:round}
    .str5 {stroke:#96989A;stroke-width:81.35;stroke-linecap:round;stroke-linejoin:round}
    .fil0 {fill:none}
    .fil1 {fill:#FEFEFE}
    .fil2 {fill:#96989A;fill-rule:nonzero}
   ]]>
  </style>
 </defs>
 <g id="Capa_x0020_1">
  <metadata id="CorelCorpID_0Corel-Layer"/>
  <g id="_1514418513472">
   <g>
    <path class="fil0 str0" d="M4795 2010l0 2214c0,264 -216,480 -480,480l-4060 0c-28,0 -50,-22 -50,-50l0 -4308c0,-28 22,-50 50,-50l2702 0"/>
   </g>
   <rect class="fil1 str1" x="2867" y="1601" width="480" height="1756" rx="126" ry="206"/>
   <g>
    <path class="fil2" d="M3949 1879l-123 0 0 0 1 1 0 0 -1 -1 -1 -2 -3 -4 -5 -5 -6 -5 -9 -6 -10 -6 -11 -7 -13 -6 -15 -7 -16 -6 -17 -7 -19 -6 -20 -6 -21 -6 -22 -5 -23 -5 -24 -5 -26 -5 -26 -4 -27 -4 -27 -4 -29 -3 -29 -3 -30 -2 -30 -2 -31 -2 -31 -1 -32 -1 -33 0 0 -121 34 0 34 0 33 2 33 1 32 3 32 2 31 3 31 4 29 3 29 5 28 4 28 5 26 6 26 5 25 7 24 6 23 7 22 7 21 8 20 8 19 9 18 9 17 9 16 10 15 11 14 12 13 13 11 14 10 16 8 18 5 19 2 20 0 0zm-709 246l0 -122 0 0 33 0 32 -1 31 -1 31 -1 30 -2 30 -3 29 -3 29 -3 27 -3 27 -4 26 -5 25 -4 25 -5 23 -5 22 -6 21 -6 20 -6 19 -6 17 -6 16 -7 15 -6 13 -7 11 -6 10 -6 9 -6 6 -6 5 -4 3 -4 1 -3 1 -1 0 1 -1 1 123 0 -2 20 -5 19 -8 18 -10 15 -11 15 -13 13 -14 11 -15 11 -16 10 -17 10 -18 9 -19 8 -20 8 -21 8 -22 7 -23 7 -24 7 -25 6 -26 6 -26 5 -28 5 -28 5 -29 4 -29 4 -31 3 -31 3 -32 3 -32 2 -33 2 -33 1 -34 1 -34 0 0 0zm-708 -246l122 0 0 0 0 -1 0 -1 0 1 2 3 3 4 4 4 7 6 8 6 10 6 12 6 13 7 14 6 16 7 18 6 18 6 20 6 21 6 23 6 23 5 24 5 25 4 26 5 27 4 28 3 28 3 29 3 30 3 30 2 31 1 32 1 32 1 32 0 0 122 -34 0 -34 -1 -33 -1 -33 -2 -32 -2 -32 -3 -31 -3 -30 -3 -30 -4 -29 -4 -28 -5 -27 -5 -27 -5 -26 -6 -24 -6 -24 -7 -23 -7 -22 -7 -21 -8 -20 -8 -19 -8 -18 -9 -17 -10 -16 -10 -15 -11 -14 -11 -13 -13 -12 -15 -9 -15 -8 -18 -5 -19 -2 -20 0 0zm708 -246l0 121 0 0 -32 0 -32 1 -32 1 -31 2 -30 2 -30 2 -29 3 -28 3 -28 4 -27 4 -26 4 -25 5 -24 5 -23 5 -23 5 -21 6 -20 6 -18 6 -18 7 -16 6 -14 7 -13 6 -12 7 -10 6 -8 6 -7 5 -4 5 -3 4 -2 2 0 1 0 0 0 -1 -122 0 2 -20 5 -19 8 -18 9 -16 12 -14 13 -13 14 -12 15 -11 16 -10 17 -9 18 -9 19 -9 20 -8 21 -8 22 -7 23 -7 24 -6 24 -7 26 -5 27 -6 27 -5 28 -4 29 -5 30 -3 30 -4 31 -3 32 -2 32 -3 33 -1 33 -2 34 0 34 0 0 0z"/>
   </g>
   <g>
    <path class="fil2" d="M4319 1879l-122 0 0 0 -1 -16 -2 -16 -5 -16 -7 -16 -8 -17 -11 -17 -13 -17 -16 -17 -17 -17 -20 -17 -22 -16 -24 -17 -26 -16 -28 -15 -30 -15 -31 -15 -34 -14 -35 -13 -37 -13 -38 -12 -40 -11 -41 -10 -42 -10 -44 -9 -44 -7 -46 -7 -47 -6 -48 -5 -49 -4 -49 -2 -51 -2 -51 -1 0 -122 54 1 53 2 52 3 52 4 51 5 49 6 49 7 48 9 46 9 46 10 44 11 43 12 41 13 41 14 38 15 38 15 35 17 34 17 33 18 31 19 29 20 27 21 25 21 23 23 21 23 19 25 17 25 14 27 11 28 9 28 5 30 1 30 0 0zm-1079 507l0 -122 0 0 51 0 51 -2 49 -3 49 -4 48 -5 47 -5 46 -7 44 -8 44 -9 42 -9 41 -10 40 -12 38 -12 37 -12 35 -14 34 -13 31 -15 30 -15 28 -16 26 -16 24 -16 22 -17 20 -17 17 -17 16 -17 13 -17 11 -17 8 -16 7 -16 5 -16 2 -16 1 -16 122 0 -1 30 -5 29 -9 29 -11 27 -14 27 -17 26 -19 24 -21 24 -23 22 -25 22 -27 21 -29 19 -31 19 -33 19 -34 17 -35 16 -38 16 -38 14 -41 14 -41 13 -43 12 -44 12 -46 10 -46 9 -48 8 -49 7 -49 7 -51 5 -52 4 -52 3 -53 1 -54 1 0 0zm-1079 -507l122 0 0 0 1 16 3 16 4 16 7 16 9 16 11 17 13 17 15 17 18 17 19 17 22 17 24 16 26 16 28 16 30 15 32 15 33 13 35 14 37 12 38 12 40 12 41 10 42 9 44 9 45 8 46 7 47 5 47 5 49 4 50 3 50 2 51 0 0 122 -54 -1 -53 -1 -52 -3 -51 -4 -51 -5 -50 -7 -49 -7 -47 -8 -47 -9 -45 -10 -44 -12 -43 -12 -42 -13 -40 -14 -39 -14 -37 -16 -36 -16 -34 -17 -33 -19 -30 -19 -29 -19 -27 -21 -26 -22 -23 -22 -21 -24 -19 -24 -16 -26 -15 -27 -11 -27 -8 -29 -5 -29 -2 -30 0 0zm1079 -508l0 122 0 0 -51 1 -50 2 -50 2 -49 4 -47 5 -47 6 -46 7 -45 7 -44 9 -42 10 -41 10 -40 11 -38 12 -37 13 -35 13 -33 14 -32 15 -30 15 -28 15 -26 16 -24 17 -22 16 -19 17 -18 17 -15 17 -13 17 -11 17 -9 17 -7 16 -4 16 -3 16 -1 16 -122 0 2 -30 5 -30 8 -28 11 -28 15 -27 16 -25 19 -25 21 -23 23 -23 26 -21 27 -21 29 -20 30 -19 33 -18 34 -17 36 -17 37 -15 39 -15 40 -14 42 -13 43 -12 44 -11 45 -10 47 -9 47 -9 49 -7 50 -6 51 -5 51 -4 52 -3 53 -2 54 -1 0 0z"/>
   </g>
   <g>
    <path class="fil0 str2" d="M2222 2607l0 -728c0,-264 524,-447 1018,-447 447,0 1018,156 1018,447l0 728c0,276 -592,439 -828,439l0 -215c1,-514 -715,-240 -939,-650"/>
   </g>
   <g>
    <path class="fil2" d="M803 2767l2627 0 0 122 -2627 0 -61 -61 61 -61zm0 122c-34,0 -61,-27 -61,-61 0,-33 27,-61 61,-61l0 122zm-61 614l0 -675 122 0 0 675 0 0 -122 0zm195 73l0 122 0 0 -10 0 -10 -1 -10 -1 -10 -2 -9 -2 -9 -3 -9 -3 -9 -3 -9 -4 -8 -5 -8 -4 -8 -5 -8 -6 -7 -5 -7 -7 -7 -6 -7 -7 -6 -7 -5 -7 -6 -8 -5 -8 -5 -8 -4 -8 -4 -9 -3 -9 -3 -9 -3 -9 -2 -9 -2 -10 -1 -10 -1 -10 0 -10 122 0 0 4 0 4 1 4 0 3 1 4 1 3 1 3 2 4 1 3 2 3 1 3 2 3 2 3 3 3 2 2 2 3 3 2 2 3 3 2 3 2 3 2 3 2 3 1 4 2 3 1 3 1 4 1 3 1 4 1 3 0 4 0 4 0 0 0zm2359 122l-2359 0 0 -122 2359 0 0 0 0 122zm73 -195l122 0 0 0 0 10 -1 10 -1 10 -2 10 -2 9 -3 9 -3 9 -3 9 -4 9 -5 8 -4 8 -5 8 -6 8 -6 7 -6 7 -6 7 -7 6 -7 7 -7 5 -8 6 -8 5 -8 4 -8 5 -9 4 -9 3 -9 3 -9 3 -10 2 -9 2 -10 1 -10 1 -10 0 0 -122 4 0 4 0 3 0 4 -1 3 -1 4 -1 3 -1 3 -1 3 -2 4 -1 3 -2 3 -2 2 -2 3 -2 3 -3 2 -2 3 -3 2 -2 2 -3 2 -3 2 -3 2 -3 2 -3 1 -3 2 -4 1 -3 1 -3 0 -4 1 -3 1 -4 0 -4 0 -4 0 0zm122 -675l0 675 -122 0 0 -675 61 -61 61 61zm-122 0c0,-33 27,-61 61,-61 34,0 61,28 61,61l-122 0z"/>
   </g>
   <g>
    <path class="fil2" d="M1362 3405c0,-23 19,-41 41,-41 22,0 41,18 41,41l-82 0zm0 232l0 -232 82 0 0 232 -82 0zm82 0c0,23 -19,41 -41,41 -22,0 -41,-18 -41,-41l82 0z"/>
   </g>
   <g>
    <line class="fil0 str3" x1="1116" y1="3173" x2="1116" y2= "3637" />
   </g>
   <g>
    <path class="fil2" d="M1936 3405c0,-23 18,-41 40,-41 23,0 41,18 41,41l-81 0zm0 232l0 -232 81 0 0 232 -81 0zm81 0c0,23 -18,41 -41,41 -22,0 -40,-18 -40,-41l81 0z"/>
   </g>
   <g>
    <line class="fil0 str4" x1="1690" y1="3173" x2="1690" y2= "3637" />
   </g>
   <g>
    <path class="fil2" d="M2509 3405c0,-23 18,-41 41,-41 22,0 40,18 40,41l-81 0zm0 232l0 -232 81 0 0 232 -81 0zm81 0c0,23 -18,41 -40,41 -23,0 -41,-18 -41,-41l81 0z"/>
   </g>
   <g>
    <line class="fil0 str5" x1="2263" y1="3173" x2="2263" y2= "3637" />
   </g>
   <g>
    <path class="fil2" d="M3082 3405c0,-23 19,-41 41,-41 23,0 41,18 41,41l-82 0zm0 232l0 -232 82 0 0 232 -82 0zm82 0c0,23 -18,41 -41,41 -22,0 -41,-18 -41,-41l82 0z"/>
   </g>
   <g>
    <line class="fil0 str6" x1="2836" y1="3173" x2="2836" y2= "3637" />
   </g>
   <g>
    <path class="fil2" d="M3872 2705c0,-22 18,-40 41,-40 22,0 40,18 40,40l-81 0zm0 233l0 -233 81 0 0 233 -81 0zm81 0c0,22 -18,40 -40,40 -23,0 -41,-18 -41,-40l81 0z"/>
   </g>
   <g>
    <line class="fil0 str7" x1="3612" y1="2561" x2="3612" y2= "3025" />
   </g>
  </g>
 </g>
</svg>
