<?xml version="1.0" encoding="UTF-8"?>
<!DOCTYPE svg PUBLIC "-//W3C//DTD SVG 1.1//EN" "http://www.w3.org/Graphics/SVG/1.1/DTD/svg11.dtd">
<!-- Creator: CorelDRAW X8 -->
<svg xmlns="http://www.w3.org/2000/svg" xml:space="preserve" width="50.5mm" height="50mm" version="1.1" style="shape-rendering:geometricPrecision; text-rendering:geometricPrecision; image-rendering:optimizeQuality; fill-rule:evenodd; clip-rule:evenodd"
viewBox="0 0 5050 5000"
 xmlns:xlink="http://www.w3.org/1999/xlink">
 <defs>
  <style type="text/css">
   <![CDATA[
    .str0 {stroke:#495C80;stroke-width:7.62}
    .str3 {stroke:#FEFEFE;stroke-width:122.02;stroke-linecap:round;stroke-linejoin:round}
    .str2 {stroke:#495C80;stroke-width:350;stroke-linecap:round;stroke-linejoin:round}
    .str1 {stroke:#495C80;stroke-width:350;stroke-linecap:round;stroke-linejoin:round}
    .str8 {stroke:#FEFEFE;stroke-width:81.35;stroke-linecap:round;stroke-linejoin:round}
    .str6 {stroke:#FEFEFE;stroke-width:81.35;stroke-linecap:round;stroke-linejoin:round}
    .str7 {stroke:#FEFEFE;stroke-width:81.35;stroke-linecap:round;stroke-linejoin:round}
    .str5 {stroke:#FEFEFE;stroke-width:81.35;stroke-linecap:round;stroke-linejoin:round}
    .str4 {stroke:#FEFEFE;stroke-width:81.35;stroke-linecap:round;stroke-linejoin:round}
    .fil1 {fill:none}
    .fil0 {fill:#495C80}
    .fil2 {fill:#FEFEFE;fill-rule:nonzero}
   ]]>
  </style>
 </defs>
 <g id="Capa_x0020_1">
  <metadata id="CorelCorpID_0Corel-Layer"/>
  <path class="fil0 str0" d="M213 142l4349 0c229,0 416,187 416,416l0 3751c0,229 -187,416 -416,416l-4349 0 0 -4583z"/>
  <g>
   <path class="fil1 str1" d="M4802 2031l0 2214c0,264 -216,480 -480,480l-4060 0c-28,0 -50,-22 -50,-50l0 -4309c0,-27 22,-50 50,-50l2702 0"/>
  </g>
  <g>
   <path class="fil1 str2" d="M4802 2031l0 2214c0,264 -216,480 -480,480l-4060 0c-28,0 -50,-22 -50,-50l0 -4309c0,-27 22,-50 50,-50l2702 0"/>
  </g>
  <g>
   <path class="fil2" d="M3955 1899l-122 0 0 0 0 1 0 1 0 -1 -2 -3 -3 -3 -4 -5 -7 -5 -8 -6 -10 -7 -11 -6 -13 -7 -15 -6 -16 -7 -18 -6 -18 -6 -20 -6 -21 -6 -22 -5 -24 -6 -24 -5 -25 -4 -26 -4 -27 -4 -27 -4 -29 -3 -29 -3 -30 -2 -30 -2 -31 -2 -32 -1 -32 -1 -32 0 0 -122 34 0 34 1 33 1 33 2 32 2 32 3 31 3 30 3 30 4 29 4 28 5 28 5 26 5 26 6 25 6 24 7 23 7 22 7 21 8 20 8 19 8 18 9 17 10 16 10 15 11 14 12 12 13 12 14 10 16 7 17 6 19 1 20 0 0zm-708 247l0 -122 0 0 32 0 32 -1 32 -1 31 -2 30 -2 30 -2 29 -3 29 -3 27 -4 27 -4 26 -4 25 -4 24 -5 24 -6 22 -5 21 -6 20 -6 18 -6 18 -6 16 -7 15 -6 13 -7 11 -6 10 -7 8 -6 7 -5 4 -5 3 -3 2 -3 0 -1 0 0 0 1 122 0 -1 21 -6 19 -7 17 -10 16 -12 14 -12 13 -14 12 -15 11 -16 10 -17 10 -18 9 -19 8 -20 8 -21 8 -22 7 -23 7 -24 7 -25 6 -26 5 -26 6 -28 5 -28 5 -29 4 -30 4 -30 3 -31 3 -32 3 -32 2 -33 1 -33 2 -34 0 -34 1 0 0zm-708 -247l122 0 0 0 0 -1 0 0 0 1 2 3 3 3 4 5 7 5 8 6 10 7 11 6 14 7 14 6 16 7 18 6 18 6 20 6 21 6 22 5 24 6 24 5 25 4 26 4 27 4 27 4 29 3 29 3 30 2 30 2 31 2 32 1 32 1 32 0 0 122 -34 -1 -34 0 -33 -2 -33 -1 -32 -2 -32 -3 -31 -3 -30 -3 -30 -4 -29 -4 -28 -5 -28 -5 -26 -6 -26 -5 -25 -6 -24 -7 -23 -7 -22 -7 -21 -8 -20 -8 -19 -8 -18 -9 -17 -10 -16 -10 -15 -11 -14 -12 -12 -13 -12 -14 -10 -16 -7 -17 -6 -19 -1 -21 0 0zm708 -246l0 122 0 0 -32 0 -32 1 -32 1 -31 2 -30 2 -30 2 -29 3 -29 3 -27 4 -27 4 -26 4 -25 4 -24 5 -24 6 -22 5 -21 6 -20 6 -18 6 -18 6 -16 7 -14 6 -14 7 -11 6 -10 7 -8 6 -7 5 -4 5 -3 3 -2 3 0 1 0 -1 0 -1 -122 0 1 -20 6 -19 7 -17 10 -16 12 -14 12 -13 14 -12 15 -11 16 -10 17 -10 18 -9 19 -8 20 -8 21 -8 22 -7 23 -7 24 -7 25 -6 26 -6 26 -5 28 -5 28 -5 29 -4 30 -4 30 -3 31 -3 32 -3 32 -2 33 -2 33 -1 34 -1 34 0 0 0z"/>
  </g>
  <g>
   <path class="fil2" d="M4326 1899l-122 0 0 0 -1 -16 -3 -15 -4 -16 -7 -17 -9 -16 -10 -17 -13 -17 -16 -17 -17 -17 -20 -17 -22 -17 -24 -16 -26 -16 -28 -16 -30 -15 -32 -14 -33 -14 -35 -14 -37 -12 -38 -12 -40 -11 -41 -11 -42 -9 -44 -9 -45 -8 -45 -6 -47 -6 -48 -5 -49 -4 -50 -3 -50 -1 -51 -1 0 -122 54 1 53 2 52 2 52 4 50 6 50 6 49 7 47 8 47 9 45 11 45 11 43 12 41 13 40 14 39 14 37 16 36 16 34 18 33 18 30 19 29 20 28 20 25 22 23 22 21 24 19 24 17 26 14 27 11 27 8 29 5 30 2 29 0 0zm-1079 508l0 -122 0 0 51 -1 50 -1 50 -3 49 -4 48 -5 47 -6 45 -7 45 -7 44 -9 42 -9 41 -11 40 -11 38 -12 37 -12 35 -14 33 -14 32 -14 30 -15 28 -16 26 -16 24 -17 22 -16 20 -17 17 -17 16 -17 13 -17 10 -17 9 -16 7 -17 4 -16 3 -16 1 -16 122 0 -2 30 -5 30 -8 28 -11 28 -14 27 -17 25 -19 25 -21 24 -23 22 -25 22 -28 20 -29 20 -30 19 -33 18 -34 17 -36 17 -37 15 -39 15 -40 14 -41 13 -43 12 -45 11 -45 10 -47 10 -47 8 -49 7 -50 6 -50 5 -52 4 -52 3 -53 2 -54 1 0 0zm-1079 -508l122 0 0 0 1 16 3 16 4 16 7 17 9 16 10 17 14 17 15 17 17 17 20 17 22 16 24 17 26 16 28 16 30 15 32 14 33 14 35 14 37 12 38 12 40 11 41 11 42 9 44 9 45 7 45 7 47 6 48 5 49 4 50 3 50 1 51 1 0 122 -54 -1 -53 -2 -52 -3 -52 -4 -50 -5 -50 -6 -49 -7 -47 -8 -47 -10 -45 -10 -45 -11 -43 -12 -41 -13 -40 -14 -39 -15 -37 -15 -36 -17 -34 -17 -33 -18 -30 -19 -29 -20 -28 -20 -25 -22 -23 -22 -21 -24 -19 -25 -17 -25 -14 -27 -11 -28 -8 -28 -5 -30 -2 -30 0 0zm1079 -507l0 122 0 0 -51 1 -50 1 -50 3 -49 4 -48 5 -47 6 -45 6 -45 8 -44 9 -42 9 -41 11 -40 11 -38 12 -37 12 -35 14 -33 14 -32 14 -30 15 -28 16 -26 16 -24 16 -22 17 -20 17 -17 17 -15 17 -14 17 -10 17 -9 16 -7 17 -4 16 -3 15 -1 16 -122 0 2 -29 5 -30 8 -29 11 -27 14 -27 17 -26 19 -24 21 -24 23 -22 25 -22 28 -20 29 -20 30 -19 33 -18 34 -18 36 -16 37 -16 39 -14 40 -14 41 -13 43 -12 45 -11 45 -11 47 -9 47 -8 49 -7 50 -6 50 -6 52 -4 52 -2 53 -2 54 -1 0 0z"/>
  </g>
  <g>
   <path class="fil1 str3" d="M2229 2628l0 -729c0,-263 524,-446 1018,-446 447,0 1018,156 1018,446l0 729c0,275 -593,438 -828,438l0 -214c1,-514 -716,-241 -940,-651"/>
  </g>
  <g>
   <path class="fil2" d="M810 2788l2627 0 0 122 -2627 0 -61 -61 61 -61zm0 122c-34,0 -61,-28 -61,-61 0,-34 27,-61 61,-61l0 122zm-61 614l0 -675 122 0 0 675 0 0 -122 0zm194 73l0 122 0 0 -10 0 -10 -1 -9 -1 -10 -2 -9 -2 -10 -3 -9 -3 -9 -4 -8 -3 -9 -5 -8 -5 -8 -5 -7 -5 -8 -6 -7 -6 -6 -6 -7 -7 -6 -7 -6 -7 -5 -8 -5 -8 -5 -8 -4 -9 -4 -8 -4 -9 -3 -9 -2 -9 -2 -10 -2 -9 -1 -10 -1 -10 0 -10 122 0 0 4 0 4 0 3 1 4 1 3 1 4 1 3 1 3 2 4 1 3 2 3 2 3 2 3 2 2 3 3 2 3 3 2 2 2 3 3 3 2 3 2 3 1 3 2 3 1 4 2 3 1 3 1 4 1 3 0 4 1 4 0 3 0 0 0zm2360 122l-2360 0 0 -122 2360 0 0 0 0 122zm73 -195l122 0 0 0 0 10 -1 10 -1 10 -2 9 -2 10 -3 9 -3 9 -4 9 -4 8 -4 9 -5 8 -5 8 -5 8 -6 7 -6 7 -6 7 -7 6 -7 6 -7 6 -8 5 -8 5 -8 5 -9 5 -8 3 -9 4 -9 3 -9 3 -10 2 -9 2 -10 1 -10 1 -10 0 0 -122 4 0 3 0 4 -1 4 0 3 -1 3 -1 4 -1 3 -2 3 -1 3 -2 3 -1 3 -2 3 -2 3 -3 3 -2 2 -2 3 -3 2 -3 2 -2 2 -3 2 -3 2 -3 2 -3 1 -4 1 -3 1 -3 1 -4 1 -3 1 -4 0 -3 1 -4 0 -4 0 0zm122 -675l0 675 -122 0 0 -675 61 -61 61 61zm-122 0c0,-34 27,-61 61,-61 33,0 61,27 61,61l-122 0z"/>
  </g>
  <g>
   <path class="fil2" d="M1369 3426c0,-23 18,-41 41,-41 22,0 40,18 40,41l-81 0zm0 232l0 -232 81 0 0 232 -81 0zm81 0c0,22 -18,41 -40,41 -23,0 -41,-19 -41,-41l81 0z"/>
  </g>
  <g>
   <line class="fil1 str4" x1="1123" y1="3193" x2="1123" y2= "3658" />
  </g>
  <g>
   <path class="fil2" d="M1942 3426c0,-23 19,-41 41,-41 23,0 41,18 41,41l-82 0zm0 232l0 -232 82 0 0 232 -82 0zm82 0c0,22 -18,41 -41,41 -22,0 -41,-19 -41,-41l82 0z"/>
  </g>
  <g>
   <line class="fil1 str5" x1="1696" y1="3193" x2="1696" y2= "3658" />
  </g>
  <g>
   <path class="fil2" d="M2516 3426c0,-23 18,-41 41,-41 22,0 40,18 40,41l-81 0zm0 232l0 -232 81 0 0 232 -81 0zm81 0c0,22 -18,41 -40,41 -23,0 -41,-19 -41,-41l81 0z"/>
  </g>
  <g>
   <line class="fil1 str6" x1="2270" y1="3193" x2="2270" y2= "3658" />
  </g>
  <g>
   <path class="fil2" d="M3089 3426c0,-23 18,-41 41,-41 22,0 41,18 41,41l-82 0zm0 232l0 -232 82 0 0 232 -82 0zm82 0c0,22 -19,41 -41,41 -23,0 -41,-19 -41,-41l82 0z"/>
  </g>
  <g>
   <line class="fil1 str7" x1="2843" y1="3193" x2="2843" y2= "3658" />
  </g>
  <g>
   <path class="fil2" d="M3879 2726c0,-22 18,-41 41,-41 22,0 40,19 40,41l-81 0zm0 233l0 -233 81 0 0 233 -81 0zm81 0c0,22 -18,40 -40,40 -23,0 -41,-18 -41,-40l81 0z"/>
  </g>
  <g>
   <line class="fil1 str8" x1="3619" y1="2581" x2="3619" y2= "3046" />
  </g>
 </g>
</svg>
