<?xml version="1.0" encoding="UTF-8"?>
<!DOCTYPE svg PUBLIC "-//W3C//DTD SVG 1.1//EN" "http://www.w3.org/Graphics/SVG/1.1/DTD/svg11.dtd">
<!-- Creator: CorelDRAW X8 -->
<svg xmlns="http://www.w3.org/2000/svg" xml:space="preserve" width="50.5mm" height="50mm" version="1.1" style="shape-rendering:geometricPrecision; text-rendering:geometricPrecision; image-rendering:optimizeQuality; fill-rule:evenodd; clip-rule:evenodd"
viewBox="0 0 5050 5000"
 xmlns:xlink="http://www.w3.org/1999/xlink">
 <defs>
  <style type="text/css">
   <![CDATA[
    .str0 {stroke:#495C80;stroke-width:7.62}
    .fil1 {fill:#FEFEFE}
    .fil0 {fill:#495C80}
    .fil2 {fill:#495C80;fill-rule:nonzero}
   ]]>
  </style>
 </defs>
 <g id="Capa_x0020_1">
  <metadata id="CorelCorpID_0Corel-Layer"/>
  <g id="_1514411025392">
   <path class="fil0 str0" d="M267 182l4185 0c227,0 414,186 414,414l0 3735c0,227 -187,414 -414,414l-4266 0 0 -4482c0,-45 36,-81 81,-81z"/>
   <rect class="fil1" x="2238" y="2306" width="483" height="483" rx="34" ry="38"/>
   <path class="fil1" d="M2513 847l595 695c10,7 16,19 16,32 0,21 -16,38 -37,38l-366 0 0 376c0,25 -21,46 -45,46l-393 0c-25,0 -45,-21 -45,-46l0 -376 -366 0c-21,0 -38,-21 -38,-38 0,-17 7,-25 17,-32l595 -695c6,-12 19,-20 33,-20 15,0 27,8 34,20z"/>
   <path class="fil1" d="M2513 4248l595 -696c10,-7 16,-18 16,-31 0,-21 -16,-38 -37,-38l-366 0 0 -377c0,-24 -21,-45 -45,-45l-393 0c-25,0 -45,20 -45,45l0 377 -366 0c-21,0 -38,21 -38,38 0,17 7,24 17,31l595 696c6,11 19,19 33,19 15,0 27,-8 34,-19z"/>
   <path class="fil1" d="M779 2514l695 -595c7,-10 19,-17 32,-17 21,0 38,17 38,38l0 366 376 0c25,0 46,20 46,45l0 393c0,24 -21,45 -46,45l-376 0 0 366c0,20 -21,37 -38,37 -17,0 -25,-6 -32,-16l-695 -595c-12,-7 -20,-19 -20,-34 0,-14 8,-27 20,-33z"/>
   <path class="fil1" d="M4180 2514l-696 -595c-7,-10 -18,-17 -31,-17 -21,0 -38,17 -38,38l0 366 -377 0c-24,0 -45,20 -45,45l0 393c0,24 20,45 45,45l377 0 0 366c0,20 21,37 38,37 17,0 24,-6 31,-16l696 -595c11,-7 19,-19 19,-34 0,-14 -8,-27 -19,-33z"/>
   <g>
    <path class="fil2" d="M4677 2043c0,-56 44,-100 97,-100 54,0 97,44 97,100l-194 0zm0 2281l0 -2281 194 0 0 2281 0 0 -194 0zm-383 594l0 -200 0 0 20 0 19 -2 19 -2 19 -4 19 -4 18 -6 17 -6 18 -7 17 -8 16 -9 16 -9 16 -10 15 -12 14 -11 14 -13 14 -13 12 -14 12 -14 12 -15 11 -15 10 -17 9 -16 8 -17 8 -17 7 -18 6 -19 5 -18 4 -19 4 -20 2 -19 2 -20 0 -20 194 0 0 30 -3 30 -3 30 -5 29 -7 29 -8 28 -9 28 -10 27 -12 26 -13 26 -14 25 -15 24 -16 23 -17 22 -18 22 -19 21 -20 19 -21 19 -22 18 -22 16 -24 16 -24 14 -25 13 -25 12 -27 11 -26 9 -28 8 -28 7 -28 5 -29 4 -29 2 -30 1 0 0zm-4060 -200l4060 0 0 200 -4060 0 0 0 0 -200zm-147 49l194 0 0 0 0 -3 0 -2 0 -3 -1 -2 0 -3 -1 -2 -1 -2 0 -2 -1 -3 -1 -2 -2 -2 -1 -2 -1 -2 -1 -1 -2 -2 -1 -2 -2 -1 -2 -2 -1 -1 -2 -1 -2 -2 -2 -1 -2 -1 -2 -1 -2 -1 -3 -1 -2 0 -2 -1 -3 0 -2 -1 -2 0 -3 0 0 200 -7 0 -8 -1 -7 -1 -7 -1 -8 -2 -7 -2 -6 -2 -7 -3 -7 -3 -6 -3 -6 -4 -6 -4 -6 -4 -5 -5 -6 -4 -5 -5 -4 -5 -5 -6 -5 -6 -4 -6 -3 -6 -4 -6 -3 -7 -3 -6 -3 -7 -2 -7 -2 -7 -2 -8 -1 -7 -1 -8 -1 -8 0 -7 0 0zm194 -4439l0 4439 -194 0 0 -4439 0 0 194 0zm-47 -152l0 200 0 0 3 0 2 0 2 0 3 -1 2 0 2 -1 3 -1 2 0 2 -1 2 -1 2 -2 2 -1 2 -1 1 -2 2 -1 2 -2 1 -1 2 -2 1 -2 1 -2 1 -2 2 -2 1 -2 1 -2 0 -2 1 -2 1 -3 0 -2 1 -3 0 -2 0 -3 0 -2 -194 0 0 -8 1 -7 1 -8 1 -8 2 -7 2 -7 2 -7 3 -7 3 -7 3 -6 4 -7 3 -6 4 -6 5 -5 5 -6 4 -5 5 -5 6 -5 5 -4 6 -4 6 -4 6 -4 6 -3 7 -4 7 -2 6 -3 7 -2 8 -1 7 -2 7 -1 8 0 7 -1 0 0zm2702 200l-2702 0 0 -200 2702 0 0 200zm0 -200c54,0 97,45 97,100 0,56 -43,100 -97,100l0 -200z"/>
   </g>
  </g>
 </g>
</svg>
