<?xml version="1.0" encoding="UTF-8"?>
<!DOCTYPE svg PUBLIC "-//W3C//DTD SVG 1.1//EN" "http://www.w3.org/Graphics/SVG/1.1/DTD/svg11.dtd">
<!-- Creator: CorelDRAW X8 -->
<svg xmlns="http://www.w3.org/2000/svg" xml:space="preserve" width="50mm" height="50mm" version="1.1" style="shape-rendering:geometricPrecision; text-rendering:geometricPrecision; image-rendering:optimizeQuality; fill-rule:evenodd; clip-rule:evenodd"
viewBox="0 0 5000 5000"
 xmlns:xlink="http://www.w3.org/1999/xlink">
 <defs>
  <style type="text/css">
   <![CDATA[
    .str1 {stroke:#495C80;stroke-width:100}
    .str0 {stroke:#495C80;stroke-width:129.99}
    .str2 {stroke:#495C80;stroke-width:100;stroke-linecap:round;stroke-linejoin:round}
    .str3 {stroke:#495C80;stroke-width:129.99;stroke-linecap:round;stroke-linejoin:round}
    .fil0 {fill:none}
    .fil2 {fill:#FEFEFE}
    .fil1 {fill:#D2D3D5;fill-rule:nonzero}
   ]]>
  </style>
 </defs>
 <g id="Capa_x0020_1">
  <metadata id="CorelCorpID_0Corel-Layer"/>
  <g id="_1614767814976">
   <path class="fil0 str0" d="M1175 1419l0 264c0,10 16,20 36,20l1203 0c19,0 37,-10 37,-20l0 -264"/>
   <g>
    <path class="fil1" d="M4698 1995c0,-55 43,-100 97,-100 54,0 97,45 97,100l-194 0zm0 2281l0 -2281 194 0 0 2281 0 0 -194 0zm-383 595l0 -200 0 0 20 -1 19 -1 19 -3 19 -3 18 -5 18 -5 18 -6 17 -7 17 -8 17 -9 16 -9 16 -11 15 -11 14 -12 14 -12 13 -13 13 -14 12 -14 12 -15 10 -16 10 -16 10 -16 8 -17 8 -18 7 -18 6 -18 5 -18 4 -19 4 -20 2 -19 1 -20 1 -21 194 0 -1 31 -2 30 -4 30 -5 29 -6 29 -8 28 -9 27 -10 27 -12 27 -13 25 -14 25 -15 24 -16 24 -17 22 -18 22 -19 20 -20 20 -21 19 -22 17 -23 17 -23 15 -24 15 -25 13 -26 12 -26 11 -27 9 -27 8 -28 7 -28 5 -29 4 -29 2 -30 1 0 0zm-4060 -200l4060 0 0 200 -4060 0 0 0 0 -200zm-147 48l194 0 0 0 0 -2 0 -3 -1 -2 0 -2 0 -3 -1 -2 -1 -3 -1 -2 -1 -2 -1 -2 -1 -2 -1 -2 -1 -2 -2 -2 -1 -1 -2 -2 -1 -2 -2 -1 -2 -2 -1 -1 -2 -1 -2 -1 -2 -1 -2 -1 -3 -1 -2 -1 -2 -1 -3 0 -2 -1 -2 0 -3 0 -2 0 0 200 -8 0 -7 -1 -7 -1 -8 -1 -7 -2 -7 -2 -7 -2 -6 -3 -7 -3 -6 -4 -6 -3 -6 -4 -6 -4 -6 -5 -5 -5 -5 -5 -5 -5 -4 -5 -5 -6 -4 -6 -4 -6 -3 -6 -3 -7 -3 -7 -3 -6 -2 -8 -2 -7 -2 -7 -1 -8 -1 -7 -1 -8 0 -8 0 0zm194 -4438l0 4438 -194 0 0 -4438 0 0 194 0zm-47 -152l0 200 0 0 2 0 3 0 2 0 2 -1 3 0 2 -1 2 -1 3 -1 2 -1 2 -1 2 -1 2 -1 1 -1 2 -2 2 -1 1 -2 2 -2 1 -1 2 -2 1 -2 1 -2 1 -2 1 -2 1 -2 1 -2 1 -3 1 -2 0 -3 0 -2 1 -2 0 -3 0 -2 -194 0 0 -8 1 -8 1 -7 1 -8 2 -7 2 -7 2 -7 3 -7 3 -7 3 -7 3 -6 4 -6 4 -6 5 -6 4 -5 5 -5 5 -5 5 -5 6 -5 6 -4 6 -4 6 -3 6 -4 7 -3 6 -3 7 -2 7 -2 7 -2 8 -1 7 -1 7 -1 8 0 0 0zm2702 200l-2702 0 0 -200 2702 0 0 200zm0 -200c53,0 97,45 97,100 0,55 -44,100 -97,100l0 -200z"/>
   </g>
   <path class="fil2 str1" d="M2804 2941l1276 -1276c66,-66 174,-66 240,0l124 124c66,66 66,174 0,240l-1276 1276 -520 156 156 -520z"/>
   <line class="fil0 str1" x1="3933" y1="1813" x2="4296" y2= "2176" />
   <line class="fil0 str1" x1="3800" y1="1945" x2="4164" y2= "2309" />
   <line class="fil0 str1" x1="2804" y1="2941" x2="3168" y2= "3305" />
   <line class="fil0 str1" x1="2713" y1="3245" x2="2864" y2= "3396" />
   <rect class="fil0 str2" transform="matrix(0.847343 -0.267199 0.267199 0.847343 1014.14 2415.68)" width="1197" height="1627"/>
   <rect class="fil2 str2" transform="matrix(0.881922 -0.1077 0.1077 0.881922 1214.56 2170.96)" width="1197" height="1627"/>
   <polygon class="fil2 str2" points="1400,2437 1400,3475 2463,3475 2463,2029 1808,2029 "/>
   <path class="fil0 str3" d="M3054 3682l0 173c0,83 -68,151 -151,151l-2181 0c-83,0 -151,-68 -151,-151l0 -2285c0,-83 68,-151 151,-151l808 0 0 -88c0,-157 127,-283 283,-283 156,0 283,126 283,283l0 88 807 0c83,0 151,68 151,151l0 612"/>
   <polygon class="fil2 str2" points="1808,2437 1400,2437 1808,2029 "/>
  </g>
 </g>
</svg>
