<?xml version="1.0" encoding="UTF-8"?>
<!DOCTYPE svg PUBLIC "-//W3C//DTD SVG 1.1//EN" "http://www.w3.org/Graphics/SVG/1.1/DTD/svg11.dtd">
<!-- Creator: CorelDRAW X8 -->
<svg xmlns="http://www.w3.org/2000/svg" xml:space="preserve" width="50mm" height="50mm" version="1.1" style="shape-rendering:geometricPrecision; text-rendering:geometricPrecision; image-rendering:optimizeQuality; fill-rule:evenodd; clip-rule:evenodd"
viewBox="0 0 5000 5000"
 xmlns:xlink="http://www.w3.org/1999/xlink">
 <defs>
  <style type="text/css">
   <![CDATA[
    .str0 {stroke:#495C80;stroke-width:166.27;stroke-linecap:round;stroke-linejoin:round}
    .str1 {stroke:#495C80;stroke-width:133.02;stroke-linecap:round;stroke-linejoin:round}
    .fil2 {fill:none}
    .fil0 {fill:#D2D3D5;fill-rule:nonzero}
    .fil1 {fill:#495C80;fill-rule:nonzero}
   ]]>
  </style>
 </defs>
 <g id="Capa_x0020_1">
  <metadata id="CorelCorpID_0Corel-Layer"/>
  <g id="_1514442442448">
   <g>
    <path class="fil0" d="M4698 1995c0,-55 43,-100 97,-100 54,0 97,45 97,100l-194 0zm0 2281l0 -2281 194 0 0 2281 0 0 -194 0zm-383 595l0 -200 0 0 20 -1 19 -1 19 -3 19 -3 18 -5 18 -5 18 -6 17 -7 17 -8 17 -9 16 -9 16 -11 15 -11 14 -12 14 -12 13 -13 13 -14 12 -14 12 -15 10 -16 10 -16 10 -16 8 -17 8 -18 7 -18 6 -18 5 -18 4 -19 4 -20 2 -19 1 -20 1 -21 194 0 -1 31 -2 30 -4 30 -5 29 -6 29 -8 28 -9 27 -10 27 -12 27 -13 25 -14 25 -15 24 -16 24 -17 22 -18 22 -19 20 -20 20 -21 19 -22 17 -23 17 -23 15 -24 15 -25 13 -26 12 -26 11 -27 9 -27 8 -28 7 -28 5 -29 4 -29 2 -30 1 0 0zm-4060 -200l4060 0 0 200 -4060 0 0 0 0 -200zm-147 48l194 0 0 0 0 -2 0 -3 -1 -2 0 -2 0 -3 -1 -2 -1 -3 -1 -2 -1 -2 -1 -2 -1 -2 -1 -2 -1 -2 -2 -2 -1 -1 -2 -2 -1 -2 -2 -1 -2 -2 -1 -1 -2 -1 -2 -1 -2 -1 -2 -1 -3 -1 -2 -1 -2 -1 -3 0 -2 -1 -2 0 -3 0 -2 0 0 200 -8 0 -7 -1 -7 -1 -8 -1 -7 -2 -7 -2 -7 -2 -6 -3 -7 -3 -6 -4 -6 -3 -6 -4 -6 -4 -6 -5 -5 -5 -5 -5 -5 -5 -4 -5 -5 -6 -4 -6 -4 -6 -3 -6 -3 -7 -3 -7 -3 -6 -2 -8 -2 -7 -2 -7 -1 -8 -1 -7 -1 -8 0 -8 0 0zm194 -4438l0 4438 -194 0 0 -4438 0 0 194 0zm-47 -152l0 200 0 0 2 0 3 0 2 0 2 -1 3 0 2 -1 2 -1 3 -1 2 -1 2 -1 2 -1 2 -1 1 -1 2 -2 2 -1 1 -2 2 -2 1 -1 2 -2 1 -2 1 -2 1 -2 1 -2 1 -2 1 -2 1 -3 1 -2 0 -3 0 -2 1 -2 0 -3 0 -2 -194 0 0 -8 1 -8 1 -7 1 -8 2 -7 2 -7 2 -7 3 -7 3 -7 3 -7 3 -6 4 -6 4 -6 5 -6 4 -5 5 -5 5 -5 5 -5 6 -5 6 -4 6 -4 6 -3 6 -4 7 -3 6 -3 7 -2 7 -2 7 -2 8 -1 7 -1 7 -1 8 0 0 0zm2702 200l-2702 0 0 -200 2702 0 0 200zm0 -200c53,0 97,45 97,100 0,55 -44,100 -97,100l0 -200z"/>
   </g>
   <g>
    <path class="fil1" d="M1114 2341l67 66 -67 66 -260 0 0 -132 260 0zm0 132l0 -132c37,0 67,29 67,66 0,36 -30,66 -67,66zm-66 -822l66 -66 67 66 0 756 -133 0 0 -756zm133 0l-133 0c0,-36 29,-66 66,-66 37,0 67,30 67,66zm-327 66l0 -132 260 0 0 132 -260 0zm-118 -15l0 0 1 -6 0 -6 1 -5 1 -6 1 -6 2 -6 2 -5 2 -6 2 -5 3 -5 2 -5 3 -4 4 -5 3 -4 4 -5 4 -4 4 -3 4 -4 5 -4 4 -3 5 -3 5 -3 5 -2 5 -3 6 -2 5 -2 6 -1 5 -2 6 -1 6 -1 6 0 6 0 0 132 1 0 1 0 0 0 1 0 1 0 1 0 0 -1 1 0 1 0 1 -1 0 0 1 0 0 -1 1 0 1 -1 0 0 0 -1 1 0 0 -1 1 0 0 -1 1 0 0 -1 0 -1 0 -1 1 0 0 -1 0 -1 0 -1 0 0 0 -1 0 -1 0 0 -133 0zm133 654l-133 0 0 -654 133 0 0 654zm-15 117l0 0 -6 0 -6 -1 -6 0 -6 -1 -5 -2 -6 -1 -5 -2 -6 -2 -5 -3 -5 -2 -5 -3 -5 -3 -4 -3 -5 -4 -4 -4 -4 -3 -4 -4 -4 -5 -3 -4 -4 -5 -3 -4 -2 -5 -3 -5 -2 -6 -2 -5 -2 -6 -2 -5 -1 -6 -1 -6 -1 -5 0 -6 -1 -6 133 0 0 -1 0 -1 0 0 0 -1 0 -1 0 -1 -1 0 0 -1 0 -1 0 -1 -1 0 0 -1 -1 0 0 -1 -1 0 0 -1 0 0 -1 -1 -1 0 0 -1 -1 0 0 0 -1 -1 -1 0 -1 0 0 -1 -1 0 -1 0 -1 0 0 0 -1 0 -1 0 0 0 0 132z"/>
   </g>
   <g>
    <path class="fil2 str0" d="M1954 688l449 0c462,0 840,378 840,840l0 138c0,428 -325,784 -741,834 -1,0 -2,-1 -2,0l2 6 0 284c0,31 -25,56 -56,56l-1276 0c-31,0 -56,-25 -56,-56l0 -284 0 -978c0,-462 378,-840 840,-840z"/>
   </g>
   <g>
    <path class="fil2 str1" d="M2275 2864l1515 0c127,0 211,89 211,211 0,135 -128,212 -211,212l-2778 0c-140,0 -212,98 -212,211 0,147 109,211 212,211l2989 0 0 231"/>
   </g>
   <g>
    <path class="fil1" d="M2553 1615l-132 0 0 0 -1 -14 -1 -14 -1 -13 -3 -13 -3 -13 -3 -12 -4 -13 -5 -12 -5 -12 -6 -11 -7 -11 -7 -11 -7 -10 -8 -10 -8 -10 -9 -9 -9 -9 -10 -9 -10 -8 -11 -7 -10 -7 -12 -6 -11 -6 -12 -5 -12 -5 -12 -4 -13 -4 -13 -3 -13 -2 -13 -2 -14 -1 -14 0 0 -133 21 0 20 2 20 2 20 4 19 4 19 6 19 6 18 7 17 8 18 9 16 9 16 11 16 11 15 12 15 12 13 13 14 14 12 15 12 15 11 15 11 17 9 16 9 18 8 17 7 18 6 19 6 19 4 19 4 20 2 20 2 20 0 21 0 0zm-399 399l0 -133 0 0 14 -1 14 -1 13 -1 13 -3 13 -3 13 -3 12 -4 12 -5 12 -6 11 -5 12 -7 10 -7 11 -7 10 -8 10 -9 9 -8 9 -10 8 -9 8 -10 7 -11 7 -11 7 -11 6 -11 5 -12 5 -12 4 -12 3 -13 3 -13 3 -13 1 -13 1 -14 1 -13 132 0 0 20 -2 20 -2 20 -4 20 -4 19 -6 19 -6 19 -7 18 -8 18 -9 17 -9 17 -11 16 -11 16 -12 15 -12 14 -14 14 -13 13 -15 13 -15 11 -16 12 -16 10 -16 10 -18 8 -17 8 -18 7 -19 7 -19 5 -19 5 -20 3 -20 3 -20 1 -21 1 0 0zm-398 -399l132 0 0 0 1 13 1 14 1 13 3 13 3 13 3 13 4 12 5 12 5 12 6 11 7 11 7 11 7 11 8 10 8 9 9 10 9 8 10 9 10 8 11 7 10 7 12 7 11 5 12 6 12 5 12 4 13 3 13 3 13 3 13 1 14 1 13 1 0 133 -20 -1 -20 -1 -20 -3 -20 -3 -19 -5 -19 -5 -19 -7 -18 -7 -17 -8 -18 -8 -16 -10 -16 -10 -16 -12 -15 -11 -15 -13 -13 -13 -14 -14 -12 -14 -12 -15 -11 -16 -11 -16 -9 -17 -9 -17 -8 -18 -7 -18 -6 -19 -6 -19 -4 -19 -4 -20 -2 -20 -2 -20 0 -20 0 0zm398 -399l0 133 0 0 -13 0 -14 1 -13 2 -13 2 -13 3 -13 4 -12 4 -12 5 -12 5 -11 6 -12 6 -10 7 -11 7 -10 8 -10 9 -9 9 -9 9 -8 10 -8 10 -7 10 -7 11 -7 11 -6 11 -5 12 -5 12 -4 13 -3 12 -3 13 -3 13 -1 13 -1 14 -1 14 -132 0 0 -21 2 -20 2 -20 4 -20 4 -19 6 -19 6 -19 7 -18 8 -17 9 -18 9 -16 11 -17 11 -15 12 -15 12 -15 14 -14 13 -13 15 -12 15 -12 16 -11 16 -11 16 -9 18 -9 17 -8 18 -7 19 -6 19 -6 19 -4 20 -4 20 -2 20 -2 20 0 0 0z"/>
   </g>
  </g>
 </g>
</svg>
