<?xml version="1.0" encoding="UTF-8"?>
<!DOCTYPE svg PUBLIC "-//W3C//DTD SVG 1.1//EN" "http://www.w3.org/Graphics/SVG/1.1/DTD/svg11.dtd">
<!-- Creator: CorelDRAW X8 -->
<svg xmlns="http://www.w3.org/2000/svg" xml:space="preserve" width="50.5mm" height="50mm" version="1.1" style="shape-rendering:geometricPrecision; text-rendering:geometricPrecision; image-rendering:optimizeQuality; fill-rule:evenodd; clip-rule:evenodd"
viewBox="0 0 5050 5000"
 xmlns:xlink="http://www.w3.org/1999/xlink">
 <defs>
  <style type="text/css">
   <![CDATA[
    .str16 {stroke:#ED3237;stroke-width:7.62}
    .str0 {stroke:#495C80;stroke-width:43.85;stroke-linecap:round;stroke-linejoin:round}
    .str10 {stroke:#373435;stroke-width:21.05;stroke-linecap:round;stroke-linejoin:round}
    .str6 {stroke:#373435;stroke-width:3.51;stroke-linecap:round;stroke-linejoin:round}
    .str8 {stroke:#373435;stroke-width:3.51;stroke-linecap:round;stroke-linejoin:round}
    .str7 {stroke:#373435;stroke-width:3.51;stroke-linecap:round;stroke-linejoin:round}
    .str5 {stroke:#FEFEFE;stroke-width:3.51;stroke-linecap:round;stroke-linejoin:round}
    .str3 {stroke:#373435;stroke-width:3.51;stroke-linecap:round;stroke-linejoin:round}
    .str2 {stroke:#373435;stroke-width:3.51;stroke-linecap:round;stroke-linejoin:round}
    .str1 {stroke:#373435;stroke-width:3.51;stroke-linecap:round;stroke-linejoin:round}
    .str9 {stroke:#373435;stroke-width:3.51;stroke-linecap:round;stroke-linejoin:round}
    .str4 {stroke:#373435;stroke-width:3.51;stroke-linecap:round;stroke-linejoin:round}
    .str11 {stroke:#FEFEFE;stroke-width:3.51;stroke-linecap:round;stroke-linejoin:round}
    .str13 {stroke:white;stroke-width:331.22;stroke-linecap:round;stroke-linejoin:round}
    .str12 {stroke:white;stroke-width:331.22;stroke-linecap:round;stroke-linejoin:round}
    .str15 {stroke:#495C80;stroke-width:142.87;stroke-linecap:round;stroke-linejoin:round}
    .str14 {stroke:#495C80;stroke-width:142.87;stroke-linecap:round;stroke-linejoin:round}
    .fil1 {fill:none}
    .fil3 {fill:#FEFEFE}
    .fil4 {fill:#373435}
    .fil6 {fill:#ED3237}
    .fil2 {fill:#495C80}
    .fil0 {fill:#D2D3D5;fill-rule:nonzero}
    .fil5 {fill:#495C80;fill-rule:nonzero}
   ]]>
  </style>
 </defs>
 <g id="Capa_x0020_1">
  <metadata id="CorelCorpID_0Corel-Layer"/>
  <g>
   <path class="fil0" d="M4723 1995c0,-55 43,-100 97,-100 54,0 97,45 97,100l-194 0zm0 2281l0 -2281 194 0 0 2281 0 0 -194 0zm-383 595l0 -200 0 0 20 -1 19 -1 19 -3 19 -3 18 -5 18 -5 18 -6 17 -7 17 -8 17 -9 16 -9 16 -11 15 -11 14 -12 14 -12 13 -13 13 -14 12 -14 12 -15 10 -16 10 -16 10 -16 8 -17 8 -18 7 -18 6 -18 5 -18 4 -19 4 -20 2 -19 1 -20 1 -21 194 0 -1 31 -2 30 -4 30 -5 29 -6 29 -8 28 -9 27 -10 27 -12 27 -13 25 -14 25 -15 24 -16 24 -17 22 -18 22 -19 20 -20 20 -21 19 -22 17 -23 17 -23 15 -24 15 -25 13 -26 12 -26 11 -27 9 -27 8 -28 7 -28 5 -29 4 -29 2 -30 1 0 0zm-4060 -200l4060 0 0 200 -4060 0 0 0 0 -200zm-147 48l194 0 0 0 0 -2 0 -3 -1 -2 0 -2 0 -3 -1 -2 -1 -3 -1 -2 -1 -2 -1 -2 -1 -2 -1 -2 -1 -2 -2 -2 -1 -1 -2 -2 -1 -2 -2 -1 -2 -2 -1 -1 -2 -1 -2 -1 -2 -1 -2 -1 -3 -1 -2 -1 -2 -1 -3 0 -2 -1 -2 0 -3 0 -2 0 0 200 -8 0 -7 -1 -7 -1 -8 -1 -7 -2 -7 -2 -7 -2 -6 -3 -7 -3 -6 -4 -6 -3 -6 -4 -6 -4 -6 -5 -5 -5 -5 -5 -5 -5 -4 -5 -5 -6 -4 -6 -4 -6 -3 -6 -3 -7 -3 -7 -3 -7 -2 -7 -2 -7 -2 -7 -1 -8 -1 -7 -1 -8 0 -8 0 0zm194 -4438l0 4438 -194 0 0 -4438 0 0 194 0zm-47 -152l0 200 0 0 2 0 3 0 2 0 2 -1 3 0 2 -1 2 -1 3 -1 2 -1 2 -1 2 -1 2 -1 1 -1 2 -2 2 -1 1 -2 2 -2 1 -1 2 -2 1 -2 1 -2 1 -2 1 -2 1 -2 1 -2 1 -3 1 -2 0 -3 0 -2 1 -2 0 -3 0 -2 -194 0 0 -8 1 -8 1 -7 1 -8 2 -7 2 -7 2 -7 3 -7 3 -7 3 -7 3 -6 4 -6 4 -6 5 -6 4 -5 5 -5 5 -5 5 -5 6 -5 6 -4 6 -4 6 -3 6 -4 7 -3 6 -3 7 -2 7 -2 7 -2 8 -1 7 -1 7 -1 8 0 0 0zm2702 200l-2702 0 0 -200 2702 0 0 200zm0 -200c53,0 97,45 97,100 0,55 -44,100 -97,100l0 -200z"/>
  </g>
  <g>
   <polygon class="fil1 str0" points="753,3751 1576,3361 2198,3602 2820,3317 3643,3751 3303,2290 2820,2074 2164,2290 1576,2074 1118,2290 "/>
  </g>
  <g>
   <polygon class="fil1 str1" points="1224,2374 1576,2213 1598,2705 1090,2927 "/>
   <polygon id="1" class="fil2" points="1224,2374 1576,2213 1598,2705 1090,2927 "/>
  </g>
  <g>
   <polygon class="fil1 str2" points="1050,3061 945,3543 1545,3240 1576,2838 "/>
   <polygon id="1" class="fil2" points="1050,3061 945,3543 1545,3240 1576,2838 "/>
  </g>
  <g>
   <polygon class="fil1 str3" points="1694,2832 1657,3243 2142,3469 2146,3085 "/>
   <polygon id="1" class="fil2" points="1694,2832 1657,3243 2142,3469 2146,3085 "/>
  </g>
  <g>
   <polygon class="fil1 str4" points="2169,2456 2156,2954 1681,2711 1691,2237 "/>
   <polygon id="1" class="fil2" points="2169,2456 2156,2954 1681,2711 1691,2237 "/>
  </g>
  <g>
   <polygon class="fil1 str5" points="1183,2244 1369,2856 1604,2770 1784,2819 2112,2352 2138,2280 2124,2033 1530,1916 1183,2125 "/>
   <polygon id="1" class="fil3" points="1183,2244 1369,2856 1604,2770 1784,2819 2112,2352 2138,2280 2124,2033 1530,1916 1183,2125 "/>
  </g>
  <g>
   <polygon class="fil1 str6" points="2820,2059 3223,2207 3448,3114 2854,2910 "/>
   <polygon id="1" class="fil4" points="2820,2059 3223,2207 3448,3114 2854,2910 "/>
  </g>
  <g>
   <polygon class="fil1 str7" points="2873,3040 2866,3092 3484,3414 3450,3248 "/>
   <polygon id="1" class="fil4" points="2873,3040 2866,3092 3484,3414 3450,3248 "/>
  </g>
  <g>
   <polygon class="fil1 str8" points="2268,2978 2277,3340 2752,3097 2752,3001 "/>
   <polygon id="1" class="fil4" points="2268,2978 2277,3340 2752,3097 2752,3001 "/>
  </g>
  <g>
   <polygon class="fil1 str8" points="2268,2978 2277,3340 2752,3097 2752,3001 "/>
   <polygon id="1" class="fil4" points="2268,2978 2277,3340 2752,3097 2752,3001 "/>
  </g>
  <g>
   <polygon class="fil1 str9" points="2764,2868 2743,2054 2268,2297 2280,2845 "/>
   <polygon id="1" class="fil4" points="2764,2868 2743,2054 2268,2297 2280,2845 "/>
  </g>
  <g>
   <path class="fil1 str10" d="M2761 1975c-130,373 199,510 873,469"/>
  </g>
  <g>
   <polygon class="fil1 str11" points="2718,2035 2554,2325 2284,2328 2160,2438 2150,3501 2223,3639 2536,3669 3862,3669 4039,3625 4061,3371 4087,2454 3960,2329 3297,2296 3193,2112 2998,2019 "/>
   <polygon id="1" class="fil3" points="2718,2035 2554,2325 2284,2328 2160,2438 2150,3501 2223,3639 2536,3669 3862,3669 4039,3625 4061,3371 4087,2454 3960,2329 3297,2296 3193,2112 2998,2019 "/>
  </g>
  <g>
   <path class="fil1 str12" d="M3313 2325l-164 -290c-5,-9 -15,-16 -27,-16l-189 0 -188 0c-12,0 -22,7 -27,16l-164 290"/>
  </g>
  <g>
   <path class="fil1 str13" d="M2554 2325l-236 0c-106,0 -168,88 -168,168l0 1008c0,60 51,168 168,168l1605 0c73,0 168,-49 168,-168l0 -1008c0,-109 -91,-168 -168,-168l-782 0"/>
  </g>
  <g>
   <path class="fil5" d="M2725 2997l0 0 0 -20 2 -20 2 -20 4 -20 4 -19 6 -19 6 -18 7 -18 8 -18 9 -17 9 -17 11 -16 11 -15 11 -15 13 -15 13 -13 14 -13 14 -13 15 -12 15 -11 16 -10 17 -9 17 -9 18 -8 18 -7 18 -6 19 -6 19 -4 20 -4 19 -2 20 -2 21 0 0 143 -14 0 -12 1 -13 2 -13 2 -12 3 -12 3 -12 4 -11 5 -12 5 -10 5 -11 6 -10 7 -10 7 -10 8 -9 8 -9 8 -8 9 -8 9 -8 10 -7 10 -7 10 -6 10 -5 11 -5 12 -5 11 -4 12 -3 12 -3 12 -2 12 -2 13 -1 13 0 13 0 0 -142 0zm396 396l0 0 -21 0 -20 -2 -19 -2 -20 -4 -19 -4 -19 -5 -18 -7 -18 -7 -18 -8 -17 -9 -17 -9 -16 -10 -15 -11 -15 -12 -14 -13 -14 -13 -13 -13 -13 -15 -11 -15 -11 -15 -11 -16 -9 -17 -9 -17 -8 -18 -7 -18 -6 -18 -6 -19 -4 -19 -4 -20 -2 -20 -2 -20 0 -20 142 0 0 13 1 13 2 13 2 12 3 12 3 12 4 12 5 12 5 11 5 11 6 10 7 11 7 9 8 10 8 9 8 9 9 8 9 8 10 8 10 7 10 7 11 6 10 5 12 5 11 5 12 4 12 3 12 3 13 2 13 2 12 1 14 0 0 0 0 143zm396 -396l0 0 -1 20 -2 20 -2 20 -4 20 -4 19 -5 19 -7 18 -7 18 -8 18 -8 17 -10 17 -10 16 -11 15 -12 15 -12 15 -14 13 -13 13 -15 13 -15 12 -15 11 -16 10 -17 9 -17 9 -17 8 -18 7 -19 7 -19 5 -19 4 -19 4 -20 2 -20 2 -20 0 0 -143 13 0 13 -1 12 -2 13 -2 12 -3 12 -3 12 -4 12 -5 11 -5 11 -5 10 -6 11 -7 10 -7 9 -8 9 -8 9 -8 9 -9 8 -9 7 -10 7 -10 7 -10 6 -10 6 -11 5 -11 4 -12 4 -12 3 -12 3 -12 3 -12 1 -13 1 -13 0 -13 0 0 143 0zm-396 -396l0 0 20 0 20 2 20 2 19 4 19 4 19 6 19 6 18 7 17 8 17 9 17 9 16 10 15 11 15 12 15 13 13 13 14 13 12 15 12 15 11 15 10 16 10 17 8 17 8 18 7 18 7 18 5 19 4 19 4 20 2 20 2 20 1 20 -143 0 0 -13 -1 -13 -1 -13 -3 -12 -3 -12 -3 -12 -4 -12 -4 -11 -5 -12 -6 -11 -6 -10 -7 -10 -7 -10 -7 -10 -8 -9 -9 -9 -9 -8 -9 -8 -9 -8 -10 -7 -11 -7 -10 -6 -11 -5 -11 -5 -12 -5 -12 -4 -12 -3 -12 -3 -13 -2 -12 -2 -13 -1 -13 0 0 0 0 -143z"/>
  </g>
  <g>
   <path class="fil5" d="M2412 2613l0 0 0 -6 1 -6 1 -6 1 -6 1 -5 1 -6 2 -5 2 -6 3 -5 2 -5 3 -5 3 -4 3 -5 4 -4 3 -4 4 -4 4 -4 4 -4 5 -3 4 -3 5 -3 5 -3 5 -3 5 -2 5 -2 5 -2 6 -1 5 -2 6 -1 6 0 5 -1 6 0 0 143 2 0 1 0 1 0 2 -1 1 0 1 0 2 -1 1 0 1 -1 1 0 1 -1 1 -1 1 0 1 -1 1 -1 1 -1 1 -1 1 -1 1 -1 1 -1 0 -1 1 -1 1 -1 0 -2 1 -1 0 -1 0 -2 1 -1 0 -1 0 -2 0 -1 0 -1 0 0 -142 0zm115 115l0 0 -6 0 -5 0 -6 -1 -6 -1 -5 -1 -6 -2 -5 -2 -5 -2 -5 -2 -5 -3 -5 -3 -5 -2 -4 -4 -5 -3 -4 -4 -4 -4 -4 -4 -3 -4 -4 -4 -3 -5 -3 -4 -3 -5 -2 -5 -3 -5 -2 -5 -2 -6 -1 -6 -1 -5 -1 -6 -1 -6 -1 -5 0 -6 142 0 0 -2 0 -1 0 -2 0 -1 -1 -1 0 -2 0 -1 -1 -1 0 -1 -1 -2 -1 -1 0 -1 -1 -1 -1 -1 -1 -1 -1 -1 -1 -1 -1 -1 -1 0 -1 -1 -1 -1 -1 0 -1 -1 -1 -1 -1 0 -2 -1 -1 0 -1 0 -2 0 -1 -1 -1 0 -2 0 0 0 0 143zm115 -115l0 0 0 6 0 5 -1 6 -1 6 -1 5 -2 6 -2 6 -2 5 -2 5 -3 5 -2 5 -3 4 -4 5 -3 4 -4 4 -3 4 -4 4 -5 4 -4 3 -4 4 -5 2 -5 3 -5 3 -5 2 -5 2 -6 2 -5 2 -6 1 -5 1 -6 1 -6 0 -6 0 0 -143 -1 0 -1 0 -2 1 -1 0 -1 0 -2 0 -1 1 -1 0 -1 1 -1 1 -2 0 -1 1 -1 1 -1 0 -1 1 -1 1 0 1 -1 1 -1 1 -1 1 -1 1 0 1 -1 2 0 1 -1 1 0 1 -1 2 0 1 0 1 0 2 -1 1 0 2 0 0 142 0zm-115 -116l0 0 6 0 6 1 6 0 5 1 6 2 5 1 6 2 5 2 5 2 5 3 5 3 5 3 4 3 4 3 5 4 4 4 3 4 4 4 3 4 4 5 3 4 2 5 3 5 2 5 2 6 2 5 2 6 1 5 1 6 1 6 0 6 0 6 -142 0 0 1 1 1 0 2 0 1 0 1 1 2 0 1 1 1 0 2 1 1 0 1 1 1 1 1 1 1 1 1 0 1 1 1 1 1 1 1 1 0 1 1 2 1 1 0 1 1 1 0 1 1 2 0 1 0 1 1 2 0 1 0 1 0 0 0 0 -143z"/>
   <path id="1" class="fil2" d="M2527 2568c-24,0 -44,20 -44,45 0,24 20,44 44,44 25,0 44,-20 44,-44 0,-25 -19,-45 -44,-45z"/>
  </g>
  <g>
   <path class="fil1 str14" d="M3313 2325l-164 -290c-5,-9 -15,-16 -27,-16l-189 0 -188 0c-12,0 -22,7 -27,16l-164 290"/>
  </g>
  <g>
   <path class="fil1 str15" d="M2554 2325l-236 0c-106,0 -168,88 -168,168l0 1008c0,60 51,168 168,168l1605 0c73,0 168,-49 168,-168l0 -1008c0,-109 -91,-168 -168,-168l-782 0"/>
  </g>
  <path class="fil6 str16" d="M1649 2745c29,0 52,-12 67,-29 7,-8 15,-19 22,-27 7,-9 12,-18 19,-29l79 -110c28,-38 51,-72 79,-110l240 -335c66,-97 127,-145 127,-282 0,-72 -30,-135 -57,-180 -20,-34 -73,-120 -93,-149l-285 22c0,68 -3,128 -58,183 -12,12 -41,32 -58,39 -21,9 -56,18 -82,19 -24,1 -62,-10 -79,-17 -26,-12 -40,-21 -60,-41 -123,-123 -46,-294 58,-330 50,-17 154,-12 218,-11 39,0 39,-4 76,-78l130 -252c17,-34 35,-67 53,-101l-84 -44c-149,-75 -331,-87 -497,-45 -61,16 -103,38 -153,63 -90,44 -175,119 -236,194 -61,76 -119,171 -147,279 -30,118 -33,262 5,375 58,175 211,378 323,533 70,99 157,203 229,303 17,23 29,41 47,63 34,41 42,97 117,97zm280 -1779l-157 308 -116 -1c-405,11 -368,561 -3,573 94,2 243,-68 278,-247l159 -13c70,127 153,218 73,365l-500 698c-10,12 -15,12 -25,3l-238 -321c-144,-177 -301,-384 -383,-607 -164,-594 485,-985 912,-758z"/>
 </g>
</svg>
