<?xml version="1.0" encoding="UTF-8"?>
<!DOCTYPE svg PUBLIC "-//W3C//DTD SVG 1.1//EN" "http://www.w3.org/Graphics/SVG/1.1/DTD/svg11.dtd">
<!-- Creator: CorelDRAW X8 -->
<svg xmlns="http://www.w3.org/2000/svg" xml:space="preserve" width="50.5mm" height="50.5mm" version="1.1" style="shape-rendering:geometricPrecision; text-rendering:geometricPrecision; image-rendering:optimizeQuality; fill-rule:evenodd; clip-rule:evenodd"
viewBox="0 0 5050 5050"
 xmlns:xlink="http://www.w3.org/1999/xlink">
 <defs>
  <style type="text/css">
   <![CDATA[
    .str0 {stroke:#00204A;stroke-width:6.3}
    .str1 {stroke:#00204A;stroke-width:157.5;stroke-linecap:round;stroke-linejoin:round}
    .fil2 {fill:none}
    .fil0 {fill:#00204A}
    .fil1 {fill:#00204A;fill-rule:nonzero}
   ]]>
  </style>
 </defs>
 <g id="Capa_x0020_1">
  <metadata id="CorelCorpID_0Corel-Layer"/>
  <g id="_2315340499152">
   <path class="fil0 str0" d="M2525 2142c45,0 88,8 129,23 -31,28 -49,68 -49,112 0,86 69,155 154,155 48,0 90,-21 119,-55 19,45 30,95 30,148 0,211 -172,383 -383,383 -211,0 -383,-172 -383,-383 0,-211 172,-383 383,-383z"/>
   <g>
    <path class="fil1" d="M3385 2525l-158 0 0 0 -1 -36 -2 -36 -5 -35 -6 -35 -8 -34 -9 -33 -11 -33 -13 -32 -14 -31 -16 -30 -17 -30 -18 -28 -19 -28 -21 -26 -22 -26 -24 -24 -24 -23 -26 -22 -26 -21 -28 -20 -28 -18 -30 -17 -30 -16 -31 -14 -32 -12 -32 -11 -34 -10 -33 -7 -35 -7 -35 -4 -36 -3 -36 -1 0 -156 44 1 44 3 43 6 42 7 42 10 41 12 40 13 39 15 38 18 37 19 36 20 35 23 34 24 32 25 31 27 30 29 29 30 27 31 25 32 24 34 22 35 21 36 19 37 17 38 16 39 13 40 12 40 9 42 8 42 5 43 4 44 1 44 0 0zm-860 859l0 -156 0 0 36 -1 36 -3 35 -4 35 -7 33 -7 34 -10 32 -11 32 -12 31 -14 30 -16 30 -17 28 -18 28 -20 26 -21 26 -22 24 -23 24 -24 22 -26 21 -26 19 -28 18 -28 17 -30 16 -30 14 -31 13 -32 11 -33 9 -33 8 -34 6 -35 5 -35 2 -36 1 -36 158 0 -1 44 -4 44 -5 43 -8 42 -9 42 -12 40 -13 40 -16 39 -17 38 -19 37 -21 36 -22 35 -24 34 -25 32 -27 31 -29 30 -30 29 -31 27 -32 25 -34 24 -35 23 -36 20 -37 19 -38 18 -39 15 -40 13 -41 12 -42 10 -42 7 -43 6 -44 3 -44 1 0 0zm-860 -859l158 0 0 0 1 36 2 36 5 35 6 35 8 34 9 33 11 33 13 32 14 31 16 30 17 30 18 28 19 28 21 26 22 26 24 24 24 23 26 22 26 21 28 20 28 18 30 17 30 16 31 14 32 12 32 11 34 10 33 7 35 7 35 4 36 3 36 1 0 156 -44 -1 -44 -3 -43 -6 -42 -7 -42 -10 -41 -12 -40 -13 -39 -15 -38 -18 -37 -19 -36 -20 -35 -23 -34 -24 -32 -25 -31 -27 -30 -29 -29 -30 -27 -31 -25 -32 -24 -34 -22 -35 -21 -36 -19 -37 -17 -38 -16 -39 -13 -40 -12 -40 -9 -42 -8 -42 -5 -43 -4 -44 -1 -44 0 0zm860 -859l0 156 0 0 -36 1 -36 3 -35 4 -35 7 -33 7 -34 10 -32 11 -32 12 -31 14 -30 16 -30 17 -28 18 -28 20 -26 21 -26 22 -24 23 -24 24 -22 26 -21 26 -19 28 -18 28 -17 30 -16 30 -14 31 -13 32 -11 33 -9 33 -8 34 -6 35 -5 35 -2 36 -1 36 -158 0 1 -44 4 -44 5 -43 8 -42 9 -42 12 -40 13 -40 16 -39 17 -38 19 -37 21 -36 22 -35 24 -34 25 -32 27 -31 29 -30 30 -29 31 -27 32 -25 34 -24 35 -23 36 -20 37 -19 38 -18 39 -15 40 -13 41 -12 42 -10 42 -7 43 -6 44 -3 44 -1 0 0z"/>
   </g>
   <path class="fil2 str1" d="M2525 1744c682,0 1300,298 1755,781 -455,483 -1073,781 -1755,781 -682,0 -1300,-298 -1755,-781 455,-483 1073,-781 1755,-781z"/>
  </g>
 </g>
</svg>
