<?xml version="1.0" encoding="UTF-8"?>
<!DOCTYPE svg PUBLIC "-//W3C//DTD SVG 1.1//EN" "http://www.w3.org/Graphics/SVG/1.1/DTD/svg11.dtd">
<!-- Creator: CorelDRAW X8 -->
<svg xmlns="http://www.w3.org/2000/svg" xml:space="preserve" width="50.5mm" height="50mm" version="1.1" style="shape-rendering:geometricPrecision; text-rendering:geometricPrecision; image-rendering:optimizeQuality; fill-rule:evenodd; clip-rule:evenodd"
viewBox="0 0 5050 5000"
 xmlns:xlink="http://www.w3.org/1999/xlink">
 <defs>
  <style type="text/css">
   <![CDATA[
    .str1 {stroke:#FEFEFE;stroke-width:200}
    .str3 {stroke:#ED3237;stroke-width:7.62}
    .str0 {stroke:#495C80;stroke-width:7.62}
    .str2 {stroke:#495C80;stroke-width:350;stroke-linecap:round;stroke-linejoin:round}
    .fil2 {fill:none}
    .fil1 {fill:#ED3237}
    .fil0 {fill:#495C80}
   ]]>
  </style>
 </defs>
 <g id="Capa_x0020_1">
  <metadata id="CorelCorpID_0Corel-Layer"/>
  <g id="_2892617230928">
   <path class="fil0 str0" d="M213 208l4349 0c229,0 416,188 416,416l0 3752c0,228 -187,416 -416,416l-4349 0 0 -4584z"/>
   <path class="fil1 str1" d="M2613 4449c56,0 99,-24 129,-57 14,-15 29,-36 42,-52 14,-18 24,-35 37,-56l153 -211c53,-74 97,-140 151,-213l463 -646c128,-187 244,-279 244,-543 0,-139 -57,-261 -109,-348 -40,-66 -141,-232 -179,-287l-550 42c0,132 -5,247 -112,354 -22,22 -79,62 -111,75 -42,16 -108,35 -158,36 -47,2 -120,-19 -152,-33 -52,-23 -78,-40 -117,-78 -236,-237 -88,-568 113,-637 97,-33 296,-23 419,-21 76,0 76,-8 146,-150l252 -486c33,-66 66,-129 101,-194l-161 -85c-287,-145 -638,-168 -958,-87 -117,30 -199,73 -295,121 -173,86 -337,229 -454,375 -118,145 -231,329 -284,537 -58,227 -64,506 9,723 112,337 407,728 623,1028 136,189 303,391 441,583 32,45 56,80 91,121 66,81 81,189 226,189zm-231 -1834l205 0 206 0c119,0 217,97 217,217l0 22 0 143 0 143c0,32 -26,58 -59,58 -32,0 -58,-26 -58,-58l0 -143 0 -187c0,-8 -7,-15 -16,-15 -8,0 -15,7 -15,15l0 187 0 624 -275 343 -274 -343 0 -624 0 -187c0,-8 -7,-15 -16,-15 -8,0 -15,7 -15,15l0 187 0 143c0,32 -27,58 -59,58 -32,0 -59,-26 -59,-58l0 -143 0 -143 0 -22c0,-120 98,-217 218,-217z"/>
   <g>
    <path class="fil2 str2" d="M4802 2097l0 2215c0,264 -216,480 -480,480l-4060 0c-28,0 -50,-23 -50,-50l0 -4309c0,-28 22,-50 50,-50l2702 0"/>
   </g>
   <g>
    <path class="fil2 str2" d="M4802 2097l0 2215c0,264 -216,480 -480,480l-4060 0c-28,0 -50,-23 -50,-50l0 -4309c0,-28 22,-50 50,-50l2702 0"/>
   </g>
   <g>
    <path class="fil2 str2" d="M4802 2097l0 2215c0,264 -216,480 -480,480l-4060 0c-28,0 -50,-23 -50,-50l0 -4309c0,-28 22,-50 50,-50l2702 0"/>
   </g>
   <path class="fil1 str3" d="M2613 4449c56,0 99,-24 129,-57 14,-15 29,-36 42,-52 14,-18 24,-35 37,-56l153 -211c53,-74 97,-140 151,-213l463 -646c128,-187 244,-279 244,-543 0,-139 -57,-261 -109,-348 -40,-66 -141,-232 -179,-287l-550 42c0,132 -5,247 -112,354 -22,22 -79,62 -111,75 -42,16 -108,35 -158,36 -47,2 -120,-19 -152,-33 -52,-23 -78,-40 -117,-78 -236,-237 -88,-568 113,-637 97,-33 296,-23 419,-21 76,0 76,-8 146,-150l252 -486c33,-66 66,-129 101,-194l-161 -85c-287,-145 -638,-168 -958,-87 -117,30 -199,73 -295,121 -173,86 -337,229 -454,375 -118,145 -231,329 -284,537 -58,227 -64,506 9,723 112,337 407,728 623,1028 136,189 303,391 441,583 32,45 56,80 91,121 66,81 81,189 226,189zm-231 -1834l205 0 206 0c119,0 217,97 217,217l0 22 0 143 0 143c0,32 -26,58 -59,58 -32,0 -58,-26 -58,-58l0 -143 0 -187c0,-8 -7,-15 -16,-15 -8,0 -15,7 -15,15l0 187 0 624 -275 343 -274 -343 0 -624 0 -187c0,-8 -7,-15 -16,-15 -8,0 -15,7 -15,15l0 187 0 143c0,32 -27,58 -59,58 -32,0 -59,-26 -59,-58l0 -143 0 -143 0 -22c0,-120 98,-217 218,-217z"/>
  </g>
 </g>
</svg>
