<?xml version="1.0" encoding="utf-8"?>
<!-- Generator: Adobe Illustrator 24.1.0, SVG Export Plug-In . SVG Version: 6.00 Build 0)  -->
<svg version="1.1" id="Capa_1" xmlns="http://www.w3.org/2000/svg" xmlns:xlink="http://www.w3.org/1999/xlink" x="0px" y="0px"
	 viewBox="0 0 142 142" style="enable-background:new 0 0 142 142;" xml:space="preserve">
<style type="text/css">
	.st0{fill:url(#SVGID_1_);}
</style>
<linearGradient id="SVGID_1_" gradientUnits="userSpaceOnUse" x1="0" y1="71" x2="142" y2="71">
	<stop  offset="0" style="stop-color:#5FC2CF"/>
	<stop  offset="0.389" style="stop-color:#52BAD6"/>
	<stop  offset="1" style="stop-color:#36A9E1"/>
</linearGradient>
<path class="st0" d="M71.15,0C0.1,0,0,70.62,0,70.62V142c0,0,61.99,0,71.17,0c-3.6,0,1.65-0.2,10.66-2.23
	c-5.05,0.29-10.23-0.59-15.24-2.59c-18.23-7.31-27.08-28.07-19.77-46.3c1.17-2.91,2.68-5.61,4.47-8.01c2.11-3.29,4.81-6.4,8.26-9.18
	c26.63-21.52,63.37-35.66,70.73-68.17c0,0,24.35,83.74-21.85,121.86c-2.78,2.29-4.64,3.89-9.91,6.96c-0.05,0.03-0.19,0.06-0.24,0.09
	c20.2-8.23,43.74-25.89,43.74-63.82c0-71,0-70.62,0-70.62S142.2,0,71.15,0z M73.5,41.54c-0.27,1.74-0.75,3.4-1.42,4.94
	c-0.73,2.07-1.81,4.11-3.34,6.07C56.93,67.74,38.64,80.18,38.78,98.9c0,0-24.04-42.69-3.65-69.46c1.23-1.61,2.04-2.72,4.53-5.08
	c0.3-0.3,0.62-0.59,0.94-0.88c0.09-0.08,0.17-0.16,0.27-0.24c0.11-0.1,0.24-0.2,0.36-0.29c4.21-3.39,9.77-5.06,15.54-4.18
	C67.67,20.44,75.17,30.63,73.5,41.54z"/>
</svg>
