<?xml version="1.0" encoding="UTF-8"?>
<!DOCTYPE svg PUBLIC "-//W3C//DTD SVG 1.1//EN" "http://www.w3.org/Graphics/SVG/1.1/DTD/svg11.dtd">
<!-- Creator: CorelDRAW X8 -->
<svg xmlns="http://www.w3.org/2000/svg" xml:space="preserve" width="50.5mm" height="50mm" version="1.1" style="shape-rendering:geometricPrecision; text-rendering:geometricPrecision; image-rendering:optimizeQuality; fill-rule:evenodd; clip-rule:evenodd"
viewBox="0 0 5050 5000"
 xmlns:xlink="http://www.w3.org/1999/xlink">
 <defs>
  <style type="text/css">
   <![CDATA[
    .str1 {stroke:#495C80;stroke-width:170}
    .str0 {stroke:#495C80;stroke-width:170;stroke-linecap:round;stroke-linejoin:round}
    .str2 {stroke:#495C80;stroke-width:250;stroke-linecap:round;stroke-linejoin:round}
    .str3 {stroke:#848688;stroke-width:127.21;stroke-linecap:round;stroke-linejoin:round}
    .fil0 {fill:none}
    .fil2 {fill:#848688}
    .fil1 {fill:#D2D3D5;fill-rule:nonzero}
   ]]>
  </style>
 </defs>
 <g id="Capa_x0020_1">
  <metadata id="CorelCorpID_0Corel-Layer"/>
  <g id="_1514623895824">
   <path class="fil0 str0" d="M2127 3256c-321,-149 -526,-471 -526,-825 0,-503 408,-911 911,-911 503,0 911,408 911,911 0,354 -205,676 -526,825"/>
   <g>
    <path class="fil1" d="M4723 1995c0,-55 43,-100 97,-100 54,0 97,45 97,100l-194 0zm0 2281l0 -2281 194 0 0 2281 0 0 -194 0zm-383 595l0 -200 0 0 20 -1 19 -1 19 -3 19 -3 18 -5 18 -5 18 -6 17 -7 17 -8 17 -9 16 -9 16 -11 15 -11 14 -12 14 -12 13 -13 13 -14 12 -14 12 -15 10 -16 10 -16 10 -16 8 -17 8 -18 7 -18 6 -18 5 -18 4 -19 4 -20 2 -19 1 -20 1 -21 194 0 -1 31 -2 30 -4 30 -5 29 -6 29 -8 28 -9 27 -10 27 -12 27 -13 25 -14 25 -15 24 -16 24 -17 22 -18 22 -19 20 -20 20 -21 19 -22 17 -23 17 -23 15 -24 15 -25 13 -26 12 -26 11 -27 9 -27 8 -28 7 -28 5 -29 4 -29 2 -30 1 0 0zm-4060 -200l4060 0 0 200 -4060 0 0 0 0 -200zm-147 48l194 0 0 0 0 -2 0 -3 -1 -2 0 -2 0 -3 -1 -2 -1 -3 -1 -2 -1 -2 -1 -2 -1 -2 -1 -2 -1 -2 -2 -2 -1 -1 -2 -2 -1 -2 -2 -1 -2 -2 -1 -1 -2 -1 -2 -1 -2 -1 -2 -1 -3 -1 -2 -1 -2 -1 -3 0 -2 -1 -2 0 -3 0 -2 0 0 200 -8 0 -7 -1 -7 -1 -8 -1 -7 -2 -7 -2 -7 -2 -6 -3 -7 -3 -6 -4 -6 -3 -6 -4 -6 -4 -6 -5 -5 -5 -5 -5 -5 -5 -4 -5 -5 -6 -4 -6 -4 -6 -3 -6 -3 -7 -3 -7 -3 -7 -2 -7 -2 -7 -2 -7 -1 -8 -1 -7 -1 -8 0 -8 0 0zm194 -4438l0 4438 -194 0 0 -4438 0 0 194 0zm-47 -152l0 200 0 0 2 0 3 0 2 0 2 -1 3 0 2 -1 2 -1 3 -1 2 -1 2 -1 2 -1 2 -1 1 -1 2 -2 2 -1 1 -2 2 -2 1 -1 2 -2 1 -2 1 -2 1 -2 1 -2 1 -2 1 -2 1 -3 1 -2 0 -3 0 -2 1 -2 0 -3 0 -2 -194 0 0 -8 1 -8 1 -7 1 -8 2 -7 2 -7 2 -7 3 -7 3 -7 3 -7 3 -6 4 -6 4 -6 5 -6 4 -5 5 -5 5 -5 5 -5 6 -5 6 -4 6 -4 6 -3 6 -4 7 -3 6 -3 7 -2 7 -2 7 -2 8 -1 7 -1 7 -1 8 0 0 0zm2702 200l-2702 0 0 -200 2702 0 0 200zm0 -200c53,0 97,45 97,100 0,55 -44,100 -97,100l0 -200z"/>
   </g>
   <circle class="fil0 str0" cx="2512" cy="2599" r="204"/>
   <line class="fil0 str1" x1="2512" y1="2803" x2="2512" y2= "3526" />
   <line class="fil0 str0" x1="2021" y1="3526" x2="3002" y2= "3526" />
   <line class="fil0 str0" x1="2120" y1="3876" x2="2904" y2= "3876" />
   <line class="fil0 str0" x1="2171" y1="4226" x2="2852" y2= "4226" />
   <line class="fil0 str2" x1="840" y1="2471" x2="1238" y2= "2471" />
   <line class="fil0 str0" x1="4183" y1="2471" x2="3785" y2= "2471" />
   <line class="fil0 str2" x1="4183" y1="2471" x2="3785" y2= "2471" />
   <line class="fil0 str2" x1="2552" y1="759" x2="2552" y2= "1158" />
   <line class="fil0 str0" x1="1358" y1="1218" x2="1640" y2= "1500" />
   <line class="fil0 str2" x1="1358" y1="1218" x2="1640" y2= "1500" />
   <line class="fil0 str2" x1="3678" y1="1218" x2="3397" y2= "1500" />
   <g>
    <path class="fil0 str3" d="M3432 3465l-1199 649 126 232 1199 -649 108 -59c134,130 341,165 513,72 140,-76 222,-218 229,-367 1,-24 4,-23 -16,-12l-111 60 -113 61 -132 -47 -132 -46 33 -136 33 -136 114 -61 111 -60c17,-9 18,-6 1,-17 -128,-78 -293,-87 -434,-11 -173,93 -257,285 -221,468l-109 59z"/>
    <path id="1" class="fil2" d="M3432 3465l-1199 649 126 232 1199 -649 108 -59c134,130 341,165 513,72 140,-76 222,-218 229,-367 1,-24 4,-23 -16,-12l-111 60 -113 61 -132 -47 -132 -46 33 -136 33 -136 114 -61 111 -60c17,-9 18,-6 1,-17 -128,-78 -293,-87 -434,-11 -173,93 -257,285 -221,468l-109 59z"/>
   </g>
  </g>
 </g>
</svg>
