<?xml version="1.0" encoding="UTF-8"?>
<!DOCTYPE svg PUBLIC "-//W3C//DTD SVG 1.1//EN" "http://www.w3.org/Graphics/SVG/1.1/DTD/svg11.dtd">
<!-- Creator: CorelDRAW X8 -->
<svg xmlns="http://www.w3.org/2000/svg" xml:space="preserve" width="50.5mm" height="50mm" version="1.1" style="shape-rendering:geometricPrecision; text-rendering:geometricPrecision; image-rendering:optimizeQuality; fill-rule:evenodd; clip-rule:evenodd"
viewBox="0 0 5050 5000"
 xmlns:xlink="http://www.w3.org/1999/xlink">
 <defs>
  <style type="text/css">
   <![CDATA[
    .str4 {stroke:#FEFEFE;stroke-width:170}
    .str1 {stroke:#FEFEFE;stroke-width:7.62}
    .str0 {stroke:#495C80;stroke-width:7.62}
    .str3 {stroke:#FEFEFE;stroke-width:170;stroke-linecap:round;stroke-linejoin:round}
    .str2 {stroke:#FFF212;stroke-width:170;stroke-linecap:round;stroke-linejoin:round}
    .str5 {stroke:#FEFEFE;stroke-width:250;stroke-linecap:round;stroke-linejoin:round}
    .str6 {stroke:#FEFEFE;stroke-width:200;stroke-linecap:round;stroke-linejoin:round}
    .fil6 {fill:none}
    .fil3 {fill:#FEFEFE}
    .fil7 {fill:#848688}
    .fil5 {fill:#FFF212}
    .fil0 {fill:#495C80}
    .fil2 {fill:#FEFEFE;fill-rule:nonzero}
    .fil4 {fill:#373435;fill-rule:nonzero}
    .fil1 {fill:#495C80;fill-rule:nonzero}
   ]]>
  </style>
 </defs>
 <g id="Capa_x0020_1">
  <metadata id="CorelCorpID_0Corel-Layer"/>
  <g id="_1514445840032">
   <path class="fil0 str0" d="M267 182l4185 0c227,0 414,186 414,414l0 3735c0,227 -187,414 -414,414l-4266 0 0 -4482c0,-45 36,-81 81,-81z"/>
   <g>
    <path class="fil1" d="M4677 2043c0,-56 44,-100 97,-100 54,0 97,44 97,100l-194 0zm0 2281l0 -2281 194 0 0 2281 0 0 -194 0zm-383 594l0 -200 0 0 20 0 19 -2 19 -2 19 -4 19 -4 18 -6 17 -6 18 -7 17 -8 16 -9 16 -9 16 -10 15 -12 14 -11 14 -13 14 -13 12 -14 12 -14 12 -15 11 -15 10 -17 9 -16 8 -17 8 -17 7 -18 6 -19 5 -18 4 -19 4 -20 2 -19 2 -20 0 -20 194 0 0 30 -3 30 -3 30 -5 29 -7 29 -8 28 -9 28 -10 27 -12 26 -13 26 -14 25 -15 24 -16 23 -17 22 -18 22 -19 21 -20 19 -21 19 -22 18 -22 16 -24 16 -24 14 -25 13 -25 12 -27 11 -26 9 -28 8 -28 7 -28 5 -29 4 -29 2 -30 1 0 0zm-4060 -200l4060 0 0 200 -4060 0 0 0 0 -200zm-147 49l194 0 0 0 0 -3 0 -2 0 -3 -1 -2 0 -3 -1 -2 -1 -2 0 -2 -1 -3 -1 -2 -2 -2 -1 -2 -1 -2 -1 -1 -2 -2 -1 -2 -2 -1 -2 -2 -1 -1 -2 -1 -2 -2 -2 -1 -2 -1 -2 -1 -2 -1 -3 -1 -2 0 -2 -1 -3 0 -2 -1 -2 0 -3 0 0 200 -7 0 -8 -1 -7 -1 -7 -1 -8 -2 -7 -2 -6 -2 -7 -3 -7 -3 -6 -3 -6 -4 -6 -4 -6 -4 -5 -5 -6 -4 -5 -5 -4 -5 -5 -6 -5 -6 -4 -6 -3 -6 -4 -6 -3 -7 -3 -6 -3 -7 -2 -7 -2 -7 -2 -8 -1 -7 -1 -8 -1 -8 0 -7 0 0zm194 -4439l0 4439 -194 0 0 -4439 0 0 194 0zm-47 -152l0 200 0 0 3 0 2 0 2 0 3 -1 2 0 2 -1 3 -1 2 0 2 -1 2 -1 2 -2 2 -1 2 -1 1 -2 2 -1 2 -2 1 -1 2 -2 1 -2 1 -2 1 -2 2 -2 1 -2 1 -2 0 -2 1 -2 1 -3 0 -2 1 -3 0 -2 0 -3 0 -2 -194 0 0 -8 1 -7 1 -8 1 -8 2 -7 2 -7 2 -7 3 -7 3 -7 3 -6 4 -7 3 -6 4 -6 5 -5 5 -6 4 -5 5 -5 6 -5 5 -4 6 -4 6 -4 6 -4 6 -3 7 -4 7 -2 6 -3 7 -2 8 -1 7 -2 7 -1 8 0 7 -1 0 0zm2702 200l-2702 0 0 -200 2702 0 0 200zm0 -200c54,0 97,45 97,100 0,56 -43,100 -97,100l0 -200z"/>
   </g>
   <g>
    <path class="fil1" d="M4677 2043c0,-56 44,-100 97,-100 54,0 97,44 97,100l-194 0zm0 2281l0 -2281 194 0 0 2281 0 0 -194 0zm-383 594l0 -200 0 0 20 0 19 -2 19 -2 19 -4 19 -4 18 -6 17 -6 18 -7 17 -8 16 -9 16 -9 16 -10 15 -12 14 -11 14 -13 14 -13 12 -14 12 -14 12 -15 11 -15 10 -17 9 -16 8 -17 8 -17 7 -18 6 -19 5 -18 4 -19 4 -20 2 -19 2 -20 0 -20 194 0 0 30 -3 30 -3 30 -5 29 -7 29 -8 28 -9 28 -10 27 -12 26 -13 26 -14 25 -15 24 -16 23 -17 22 -18 22 -19 21 -20 19 -21 19 -22 18 -22 16 -24 16 -24 14 -25 13 -25 12 -27 11 -26 9 -28 8 -28 7 -28 5 -29 4 -29 2 -30 1 0 0zm-4060 -200l4060 0 0 200 -4060 0 0 0 0 -200zm-147 49l194 0 0 0 0 -3 0 -2 0 -3 -1 -2 0 -3 -1 -2 -1 -2 0 -2 -1 -3 -1 -2 -2 -2 -1 -2 -1 -2 -1 -1 -2 -2 -1 -2 -2 -1 -2 -2 -1 -1 -2 -1 -2 -2 -2 -1 -2 -1 -2 -1 -2 -1 -3 -1 -2 0 -2 -1 -3 0 -2 -1 -2 0 -3 0 0 200 -7 0 -8 -1 -7 -1 -7 -1 -8 -2 -7 -2 -6 -2 -7 -3 -7 -3 -6 -3 -6 -4 -6 -4 -6 -4 -5 -5 -6 -4 -5 -5 -4 -5 -5 -6 -5 -6 -4 -6 -3 -6 -4 -6 -3 -7 -3 -6 -3 -7 -2 -7 -2 -7 -2 -8 -1 -7 -1 -8 -1 -8 0 -7 0 0zm194 -4439l0 4439 -194 0 0 -4439 0 0 194 0zm-47 -152l0 200 0 0 3 0 2 0 2 0 3 -1 2 0 2 -1 3 -1 2 0 2 -1 2 -1 2 -2 2 -1 2 -1 1 -2 2 -1 2 -2 1 -1 2 -2 1 -2 1 -2 1 -2 2 -2 1 -2 1 -2 0 -2 1 -2 1 -3 0 -2 1 -3 0 -2 0 -3 0 -2 -194 0 0 -8 1 -7 1 -8 1 -8 2 -7 2 -7 2 -7 3 -7 3 -7 3 -6 4 -7 3 -6 4 -6 5 -5 5 -6 4 -5 5 -5 6 -5 5 -4 6 -4 6 -4 6 -4 6 -3 7 -4 7 -2 6 -3 7 -2 8 -1 7 -2 7 -1 8 0 7 -1 0 0zm2702 200l-2702 0 0 -200 2702 0 0 200zm0 -200c54,0 97,45 97,100 0,56 -43,100 -97,100l0 -200z"/>
   </g>
   <g>
    <path class="fil2" d="M3046 2584l-513 512 -7 -8 512 -512 8 0 0 8zm-8 -8l4 -4 4 4 -8 0zm896 903l-896 -895 8 -8 895 896 0 0 -7 7zm7 308l-7 -8 0 0 7 -8 7 -8 7 -8 6 -9 5 -9 5 -9 5 -9 4 -10 3 -10 4 -9 2 -10 2 -10 2 -10 1 -10 1 -11 0 -10 0 -10 -1 -10 -1 -10 -2 -10 -2 -10 -2 -10 -4 -10 -3 -10 -4 -9 -5 -9 -5 -9 -5 -9 -6 -9 -7 -8 -7 -9 -7 -8 7 -7 8 8 7 9 7 9 7 9 5 9 6 10 5 9 4 10 4 11 3 10 3 10 2 11 2 10 1 11 1 11 0 10 0 11 -1 11 -1 10 -2 11 -2 10 -3 11 -3 10 -4 10 -4 10 -5 10 -6 9 -5 10 -7 9 -7 9 -7 8 -8 9 0 0zm-212 197l205 -205 7 8 -205 205 -7 -8zm-308 8l8 -8 0 0 8 7 8 7 9 7 8 6 9 5 9 6 10 4 9 4 10 4 10 3 9 3 10 2 10 2 11 1 10 0 10 1 10 -1 10 0 10 -1 10 -2 10 -2 10 -3 10 -3 10 -4 9 -4 10 -4 9 -6 9 -5 8 -6 9 -7 8 -7 8 -7 7 8 -8 7 -9 8 -8 7 -10 6 -9 6 -9 5 -10 5 -10 4 -10 4 -11 3 -10 3 -11 2 -10 2 -11 1 -10 1 -11 0 -11 0 -10 -1 -11 -1 -11 -2 -10 -2 -11 -3 -10 -3 -10 -4 -10 -4 -10 -5 -9 -5 -10 -6 -9 -6 -9 -7 -8 -8 -9 -7 0 0zm-888 -904l896 896 -8 8 -895 -896 0 -8 7 0zm-7 8l-4 -4 4 -4 0 8z"/>
    <path id="1" class="fil3" d="M2530 3092l512 -512 895 896c85,84 85,222 0,307l-204 205c-85,84 -223,84 -308,0l-895 -896z"/>
   </g>
   <g>
    <path class="fil1" d="M2887 1199l-202 202 0 0 -36 -34 -36 -31 -38 -29 -39 -27 -39 -25 -41 -23 -41 -20 -43 -19 -42 -16 -44 -14 -44 -12 -44 -10 -45 -7 -45 -5 -45 -4 -46 -1 -45 1 -45 4 -45 5 -45 7 -45 10 -44 12 -43 14 -43 16 -42 19 -42 20 -40 23 -40 25 -38 26 -38 30 -37 31 -35 33 -201 -201 46 -43 47 -41 49 -38 51 -35 51 -33 53 -29 54 -27 56 -24 55 -21 57 -18 58 -16 57 -12 59 -10 58 -7 59 -4 59 -2 59 2 59 4 58 7 59 10 57 12 58 16 56 18 56 21 55 24 54 27 53 29 52 33 50 35 49 38 48 40 46 44 0 0zm-1 1738l-201 -202 0 0 34 -35 31 -36 29 -38 27 -39 25 -39 22 -41 21 -41 18 -43 16 -42 14 -44 12 -44 10 -44 8 -45 5 -45 3 -45 1 -46 -1 -45 -3 -45 -5 -45 -8 -45 -10 -45 -12 -44 -14 -43 -16 -43 -18 -42 -21 -42 -22 -40 -25 -40 -27 -39 -29 -37 -32 -37 -33 -35 202 -202 43 46 41 47 38 49 35 50 32 52 30 53 26 54 24 55 21 56 19 57 15 57 13 58 10 58 7 59 4 59 1 59 -1 58 -4 59 -7 59 -10 58 -13 58 -15 57 -19 57 -21 56 -24 55 -26 54 -30 53 -32 52 -35 50 -38 49 -41 48 -44 46 0 0zm-1737 0l201 -202 0 0 36 34 36 31 38 29 39 27 39 25 41 23 41 20 43 19 43 16 43 14 44 12 45 9 44 8 45 5 46 4 45 1 45 -1 46 -4 45 -5 44 -8 45 -9 44 -12 43 -14 43 -16 42 -19 42 -20 40 -23 40 -25 39 -27 37 -29 37 -31 35 -34 201 202 -45 43 -48 41 -49 38 -50 35 -52 32 -53 30 -54 27 -55 24 -56 21 -57 18 -57 16 -58 12 -58 10 -59 7 -59 4 -59 2 -59 -2 -59 -4 -58 -7 -58 -10 -58 -12 -58 -16 -56 -18 -56 -21 -55 -24 -54 -27 -53 -29 -52 -33 -50 -35 -49 -38 -48 -41 -45 -43 0 0zm0 -1738l201 201 0 0 -33 36 -32 36 -29 38 -27 39 -25 39 -22 41 -21 41 -18 42 -16 43 -14 44 -12 44 -10 44 -7 45 -6 45 -3 45 -1 46 1 45 3 45 6 45 7 45 10 44 12 44 14 44 16 43 18 42 21 42 22 40 25 40 27 39 29 37 32 37 33 35 -201 202 -44 -46 -41 -47 -38 -49 -35 -51 -32 -51 -30 -53 -26 -54 -24 -55 -21 -56 -19 -57 -15 -57 -13 -58 -10 -58 -7 -59 -4 -59 -1 -59 1 -59 4 -58 7 -59 10 -58 13 -58 15 -57 19 -57 21 -56 24 -55 26 -54 30 -53 32 -52 36 -51 38 -49 40 -47 44 -46 0 0z"/>
   </g>
   <path class="fil3 str1" d="M1593 1618l334 26c4,-1 9,1 12,4 6,6 6,14 0,20l-94 94 485 485c6,6 6,17 0,24l-102 101c-6,6 -17,6 -23,0l-485 -485 -95 95c-5,5 -15,4 -19,0 -4,-5 -5,-9 -4,-13l-26 -333c-1,-5 0,-10 4,-14 3,-4 9,-5 13,-4z"/>
   <path class="fil3 str1" d="M2472 2497l-26 -333c1,-5 0,-9 -3,-13 -6,-5 -15,-5 -20,0l-95 95 -355 -356c-7,-6 -17,-6 -24,0l-101 101c-7,7 -7,17 0,24l356 356 -95 94c-5,6 -4,15 0,20 4,4 8,4 12,3l334 26c5,2 10,1 14,-3 3,-4 5,-9 3,-14z"/>
   <path class="fil3 str1" d="M1576 2497l26 -333c-1,-5 1,-9 4,-13 5,-5 14,-5 19,0l95 95 485 -485c6,-7 17,-7 23,0l102 101c6,7 6,17 0,24l-485 485 94 94c6,6 5,15 0,20 -4,4 -8,4 -12,3l-334 26c-4,2 -10,1 -13,-3 -4,-4 -5,-9 -4,-14z"/>
   <path class="fil3 str1" d="M2455 1618l-334 26c-4,-1 -9,1 -12,4 -5,6 -5,14 0,20l95 94 -356 356c-7,6 -7,17 0,23l101 102c7,6 17,6 24,0l355 -356 95 95c5,5 15,4 20,0 4,-5 4,-9 3,-13l26 -333c2,-5 0,-10 -3,-14 -4,-4 -9,-5 -14,-4z"/>
   <g>
    <path class="fil2" d="M2887 1199l-202 202 0 0 -36 -34 -36 -31 -38 -29 -39 -27 -39 -25 -41 -23 -41 -20 -43 -19 -42 -16 -44 -14 -44 -12 -44 -10 -45 -7 -45 -5 -45 -4 -46 -1 -45 1 -45 4 -45 5 -45 7 -45 10 -44 12 -43 14 -43 16 -42 19 -42 20 -40 23 -40 25 -38 26 -38 30 -37 31 -35 33 -201 -201 46 -43 47 -41 49 -38 51 -35 51 -33 53 -29 54 -27 56 -24 55 -21 57 -18 58 -16 57 -12 59 -10 58 -7 59 -4 59 -2 59 2 59 4 58 7 59 10 57 12 58 16 56 18 56 21 55 24 54 27 53 29 52 33 50 35 49 38 48 40 46 44 0 0zm-1 1738l-201 -202 0 0 34 -35 31 -36 29 -38 27 -39 25 -39 22 -41 21 -41 18 -43 16 -42 14 -44 12 -44 10 -44 8 -45 5 -45 3 -45 1 -46 -1 -45 -3 -45 -5 -45 -8 -45 -10 -45 -12 -44 -14 -43 -16 -43 -18 -42 -21 -42 -22 -40 -25 -40 -27 -39 -29 -37 -32 -37 -33 -35 202 -202 43 46 41 47 38 49 35 50 32 52 30 53 26 54 24 55 21 56 19 57 15 57 13 58 10 58 7 59 4 59 1 59 -1 58 -4 59 -7 59 -10 58 -13 58 -15 57 -19 57 -21 56 -24 55 -26 54 -30 53 -32 52 -35 50 -38 49 -41 48 -44 46 0 0zm-1737 0l201 -202 0 0 36 34 36 31 38 29 39 27 39 25 41 23 41 20 43 19 43 16 43 14 44 12 45 9 44 8 45 5 46 4 45 1 45 -1 46 -4 45 -5 44 -8 45 -9 44 -12 43 -14 43 -16 42 -19 42 -20 40 -23 40 -25 39 -27 37 -29 37 -31 35 -34 201 202 -45 43 -48 41 -49 38 -50 35 -52 32 -53 30 -54 27 -55 24 -56 21 -57 18 -57 16 -58 12 -58 10 -59 7 -59 4 -59 2 -59 -2 -59 -4 -58 -7 -58 -10 -58 -12 -58 -16 -56 -18 -56 -21 -55 -24 -54 -27 -53 -29 -52 -33 -50 -35 -49 -38 -48 -41 -45 -43 0 0zm0 -1738l201 201 0 0 -33 36 -32 36 -29 38 -27 39 -25 39 -22 41 -21 41 -18 42 -16 43 -14 44 -12 44 -10 44 -7 45 -6 45 -3 45 -1 46 1 45 3 45 6 45 7 45 10 44 12 44 14 44 16 43 18 42 21 42 22 40 25 40 27 39 29 37 32 37 33 35 -201 202 -44 -46 -41 -47 -38 -49 -35 -51 -32 -51 -30 -53 -26 -54 -24 -55 -21 -56 -19 -57 -15 -57 -13 -58 -10 -58 -7 -59 -4 -59 -1 -59 1 -59 4 -58 7 -59 10 -58 13 -58 15 -57 19 -57 21 -56 24 -55 26 -54 30 -53 32 -52 36 -51 38 -49 40 -47 44 -46 0 0z"/>
   </g>
  </g>
  <path class="fil4" d="M1478 2798l0 -74 310 -388c23,-28 44,-52 64,-73l-338 0 0 -71 433 0 0 71 -340 421 -37 43 387 0 0 71 -479 0z"/>
  <path id="1" class="fil4" d="M2006 2579c0,-81 23,-142 68,-181 38,-32 84,-48 138,-48 60,0 110,19 148,59 38,39 58,94 58,164 0,56 -9,100 -26,133 -17,32 -41,57 -74,75 -32,18 -68,27 -106,27 -61,0 -111,-20 -149,-59 -38,-40 -57,-96 -57,-170zm76 0c0,56 13,98 37,126 25,28 56,42 93,42 37,0 68,-14 93,-42 24,-28 36,-71 36,-129 0,-54 -12,-95 -37,-123 -24,-28 -55,-41 -92,-41 -37,0 -68,13 -93,41 -24,28 -37,70 -37,126z"/>
  <path id="2" class="fil4" d="M2477 2579c0,-81 23,-142 68,-181 38,-32 84,-48 138,-48 60,0 110,19 148,59 38,39 58,94 58,164 0,56 -9,100 -26,133 -17,32 -41,57 -74,75 -32,18 -68,27 -106,27 -61,0 -111,-20 -149,-59 -38,-40 -57,-96 -57,-170zm76 0c0,56 13,98 37,126 25,28 56,42 93,42 37,0 68,-14 93,-42 24,-28 36,-71 36,-129 0,-54 -12,-95 -37,-123 -24,-28 -55,-41 -92,-41 -37,0 -68,13 -93,41 -24,28 -37,70 -37,126z"/>
  <path id="3" class="fil4" d="M2976 2798l0 -439 67 0 0 62c13,-21 32,-39 55,-52 23,-13 49,-19 78,-19 32,0 59,6 80,20 20,13 35,32 43,56 35,-51 81,-76 137,-76 43,0 77,12 101,36 23,24 35,61 35,111l0 301 -75 0 0 -276c0,-30 -2,-51 -7,-64 -5,-13 -13,-24 -26,-32 -13,-8 -28,-12 -45,-12 -31,0 -57,10 -77,31 -21,20 -31,53 -31,98l0 255 -74 0 0 -285c0,-33 -6,-58 -19,-74 -12,-17 -32,-25 -59,-25 -21,0 -40,6 -58,17 -18,11 -31,27 -39,48 -8,21 -12,52 -12,92l0 227 -74 0z"/>
  <path class="fil4" d="M1478 2798l0 -74 310 -388c23,-28 44,-52 64,-73l-338 0 0 -71 433 0 0 71 -340 421 -37 43 387 0 0 71 -479 0z"/>
  <path id="1" class="fil4" d="M2006 2579c0,-81 23,-142 68,-181 38,-32 84,-48 138,-48 60,0 110,19 148,59 38,39 58,94 58,164 0,56 -9,100 -26,133 -17,32 -41,57 -74,75 -32,18 -68,27 -106,27 -61,0 -111,-20 -149,-59 -38,-40 -57,-96 -57,-170zm76 0c0,56 13,98 37,126 25,28 56,42 93,42 37,0 68,-14 93,-42 24,-28 36,-71 36,-129 0,-54 -12,-95 -37,-123 -24,-28 -55,-41 -92,-41 -37,0 -68,13 -93,41 -24,28 -37,70 -37,126z"/>
  <path id="2" class="fil4" d="M2477 2579c0,-81 23,-142 68,-181 38,-32 84,-48 138,-48 60,0 110,19 148,59 38,39 58,94 58,164 0,56 -9,100 -26,133 -17,32 -41,57 -74,75 -32,18 -68,27 -106,27 -61,0 -111,-20 -149,-59 -38,-40 -57,-96 -57,-170zm76 0c0,56 13,98 37,126 25,28 56,42 93,42 37,0 68,-14 93,-42 24,-28 36,-71 36,-129 0,-54 -12,-95 -37,-123 -24,-28 -55,-41 -92,-41 -37,0 -68,13 -93,41 -24,28 -37,70 -37,126z"/>
  <path id="3" class="fil4" d="M2976 2798l0 -439 67 0 0 62c13,-21 32,-39 55,-52 23,-13 49,-19 78,-19 32,0 59,6 80,20 20,13 35,32 43,56 35,-51 81,-76 137,-76 43,0 77,12 101,36 23,24 35,61 35,111l0 301 -75 0 0 -276c0,-30 -2,-51 -7,-64 -5,-13 -13,-24 -26,-32 -13,-8 -28,-12 -45,-12 -31,0 -57,10 -77,31 -21,20 -31,53 -31,98l0 255 -74 0 0 -285c0,-33 -6,-58 -19,-74 -12,-17 -32,-25 -59,-25 -21,0 -40,6 -58,17 -18,11 -31,27 -39,48 -8,21 -12,52 -12,92l0 227 -74 0z"/>
  <path class="fil4" d="M1478 2798l0 -74 310 -388c23,-28 44,-52 64,-73l-338 0 0 -71 433 0 0 71 -340 421 -37 43 387 0 0 71 -479 0z"/>
  <path id="1" class="fil4" d="M2006 2579c0,-81 23,-142 68,-181 38,-32 84,-48 138,-48 60,0 110,19 148,59 38,39 58,94 58,164 0,56 -9,100 -26,133 -17,32 -41,57 -74,75 -32,18 -68,27 -106,27 -61,0 -111,-20 -149,-59 -38,-40 -57,-96 -57,-170zm76 0c0,56 13,98 37,126 25,28 56,42 93,42 37,0 68,-14 93,-42 24,-28 36,-71 36,-129 0,-54 -12,-95 -37,-123 -24,-28 -55,-41 -92,-41 -37,0 -68,13 -93,41 -24,28 -37,70 -37,126z"/>
  <path id="2" class="fil4" d="M2477 2579c0,-81 23,-142 68,-181 38,-32 84,-48 138,-48 60,0 110,19 148,59 38,39 58,94 58,164 0,56 -9,100 -26,133 -17,32 -41,57 -74,75 -32,18 -68,27 -106,27 -61,0 -111,-20 -149,-59 -38,-40 -57,-96 -57,-170zm76 0c0,56 13,98 37,126 25,28 56,42 93,42 37,0 68,-14 93,-42 24,-28 36,-71 36,-129 0,-54 -12,-95 -37,-123 -24,-28 -55,-41 -92,-41 -37,0 -68,13 -93,41 -24,28 -37,70 -37,126z"/>
  <path id="3" class="fil4" d="M2976 2798l0 -439 67 0 0 62c13,-21 32,-39 55,-52 23,-13 49,-19 78,-19 32,0 59,6 80,20 20,13 35,32 43,56 35,-51 81,-76 137,-76 43,0 77,12 101,36 23,24 35,61 35,111l0 301 -75 0 0 -276c0,-30 -2,-51 -7,-64 -5,-13 -13,-24 -26,-32 -13,-8 -28,-12 -45,-12 -31,0 -57,10 -77,31 -21,20 -31,53 -31,98l0 255 -74 0 0 -285c0,-33 -6,-58 -19,-74 -12,-17 -32,-25 -59,-25 -21,0 -40,6 -58,17 -18,11 -31,27 -39,48 -8,21 -12,52 -12,92l0 227 -74 0z"/>
  <polygon class="fil4" points="982,2719 982,2113 1063,2113 1063,2719 "/>
  <path id="1" class="fil4" d="M1195 2719l0 -440 67 0 0 63c13,-22 32,-39 54,-52 23,-13 49,-20 78,-20 33,0 60,7 80,20 21,14 36,33 44,57 35,-51 81,-77 136,-77 44,0 78,12 101,36 24,24 36,61 36,112l0 301 -75 0 0 -277c0,-29 -2,-51 -7,-64 -5,-13 -14,-23 -27,-32 -12,-8 -27,-12 -44,-12 -31,0 -57,11 -77,31 -21,21 -31,54 -31,99l0 255 -75 0 0 -285c0,-33 -6,-58 -18,-75 -12,-16 -32,-25 -59,-25 -21,0 -41,6 -58,17 -18,11 -31,27 -39,48 -8,22 -12,52 -12,92l0 228 -74 0z"/>
  <path id="2" class="fil4" d="M1900 2887l0 -608 68 0 0 58c16,-22 34,-39 54,-50 20,-11 44,-17 73,-17 37,0 71,10 99,29 29,19 50,46 65,81 15,36 22,74 22,116 0,45 -8,85 -24,121 -16,36 -40,63 -70,83 -31,19 -63,28 -97,28 -25,0 -47,-5 -67,-15 -20,-11 -36,-24 -49,-40l0 214 -74 0zm68 -385c0,56 11,98 34,125 23,27 50,40 83,40 33,0 61,-14 84,-42 24,-28 36,-71 36,-129 0,-56 -12,-98 -35,-126 -23,-28 -50,-41 -82,-41 -32,0 -60,14 -84,44 -24,29 -36,72 -36,129z"/>
  <path id="3" class="fil4" d="M2343 2499c0,-81 22,-141 68,-180 37,-33 84,-49 138,-49 60,0 110,20 148,59 38,40 57,94 57,164 0,56 -8,101 -25,133 -17,32 -42,57 -74,75 -32,18 -68,27 -106,27 -62,0 -111,-19 -149,-59 -38,-39 -57,-96 -57,-170zm76 0c0,56 12,99 37,126 25,28 56,42 93,42 37,0 68,-14 92,-42 25,-28 37,-71 37,-128 0,-54 -12,-95 -37,-123 -25,-28 -55,-42 -92,-42 -37,0 -68,14 -93,42 -25,27 -37,69 -37,125z"/>
  <path id="4" class="fil4" d="M2841 2719l0 -440 67 0 0 68c17,-31 33,-52 47,-62 15,-10 31,-15 48,-15 25,0 51,8 77,24l-27 68c-18,-10 -36,-15 -54,-15 -16,0 -31,5 -44,15 -13,10 -22,23 -27,40 -9,27 -13,56 -13,87l0 230 -74 0z"/>
  <path id="5" class="fil4" d="M3285 2652l11 66c-21,5 -40,7 -56,7 -27,0 -48,-4 -63,-13 -15,-9 -26,-20 -32,-34 -6,-14 -9,-43 -9,-88l0 -253 -55 0 0 -58 55 0 0 -108 75 -45 0 153 74 0 0 58 -74 0 0 257c0,22 1,35 4,41 2,7 7,11 13,15 5,4 14,5 25,5 8,0 19,-1 32,-3z"/>
  <path id="6" class="fil4" d="M3646 2664c-28,23 -54,40 -80,50 -25,9 -53,14 -82,14 -48,0 -86,-12 -112,-35 -26,-24 -39,-54 -39,-90 0,-22 5,-41 15,-59 10,-18 23,-32 39,-43 16,-10 33,-18 53,-24 15,-4 37,-7 67,-11 60,-7 104,-16 133,-26 0,-10 0,-16 0,-19 0,-30 -7,-52 -21,-64 -19,-17 -48,-25 -85,-25 -35,0 -61,6 -78,18 -17,13 -29,34 -37,66l-73 -10c7,-32 18,-57 33,-76 15,-19 37,-34 66,-44 29,-11 62,-16 100,-16 37,0 68,5 92,13 23,9 40,20 51,34 11,13 19,30 24,50 2,13 3,36 3,69l0 99c0,69 2,112 5,131 3,18 9,36 18,53l-78 0c-7,-16 -12,-34 -14,-55zm-6 -165c-27,11 -68,20 -122,28 -31,4 -52,9 -65,14 -13,6 -23,14 -29,24 -7,11 -11,23 -11,36 0,19 8,36 23,49 15,13 37,20 66,20 28,0 54,-6 76,-19 23,-12 39,-30 50,-51 8,-17 12,-42 12,-74l0 -27z"/>
  <path id="7" class="fil4" d="M3829 2719l0 -440 67 0 0 68c17,-31 33,-52 47,-62 15,-10 31,-15 48,-15 25,0 51,8 77,24l-27 68c-18,-10 -36,-15 -54,-15 -16,0 -31,5 -44,15 -12,10 -22,23 -27,40 -8,27 -13,56 -13,87l0 230 -74 0z"/>
  <path class="fil4" d="M1478 2798l0 -74 310 -388c23,-28 44,-52 64,-73l-338 0 0 -71 433 0 0 71 -340 421 -37 43 387 0 0 71 -479 0z"/>
  <path id="1" class="fil4" d="M2006 2579c0,-81 23,-142 68,-181 38,-32 84,-48 138,-48 60,0 110,19 148,59 38,39 58,94 58,164 0,56 -9,100 -26,133 -17,32 -41,57 -74,75 -32,18 -68,27 -106,27 -61,0 -111,-20 -149,-59 -38,-40 -57,-96 -57,-170zm76 0c0,56 13,98 37,126 25,28 56,42 93,42 37,0 68,-14 93,-42 24,-28 36,-71 36,-129 0,-54 -12,-95 -37,-123 -24,-28 -55,-41 -92,-41 -37,0 -68,13 -93,41 -24,28 -37,70 -37,126z"/>
  <path id="2" class="fil4" d="M2477 2579c0,-81 23,-142 68,-181 38,-32 84,-48 138,-48 60,0 110,19 148,59 38,39 58,94 58,164 0,56 -9,100 -26,133 -17,32 -41,57 -74,75 -32,18 -68,27 -106,27 -61,0 -111,-20 -149,-59 -38,-40 -57,-96 -57,-170zm76 0c0,56 13,98 37,126 25,28 56,42 93,42 37,0 68,-14 93,-42 24,-28 36,-71 36,-129 0,-54 -12,-95 -37,-123 -24,-28 -55,-41 -92,-41 -37,0 -68,13 -93,41 -24,28 -37,70 -37,126z"/>
  <path id="3" class="fil4" d="M2976 2798l0 -439 67 0 0 62c13,-21 32,-39 55,-52 23,-13 49,-19 78,-19 32,0 59,6 80,20 20,13 35,32 43,56 35,-51 81,-76 137,-76 43,0 77,12 101,36 23,24 35,61 35,111l0 301 -75 0 0 -276c0,-30 -2,-51 -7,-64 -5,-13 -13,-24 -26,-32 -13,-8 -28,-12 -45,-12 -31,0 -57,10 -77,31 -21,20 -31,53 -31,98l0 255 -74 0 0 -285c0,-33 -6,-58 -19,-74 -12,-17 -32,-25 -59,-25 -21,0 -40,6 -58,17 -18,11 -31,27 -39,48 -8,21 -12,52 -12,92l0 227 -74 0z"/>
  <path class="fil4" d="M1478 2798l0 -74 310 -388c23,-28 44,-52 64,-73l-338 0 0 -71 433 0 0 71 -340 421 -37 43 387 0 0 71 -479 0z"/>
  <path id="1" class="fil4" d="M2006 2579c0,-81 23,-142 68,-181 38,-32 84,-48 138,-48 60,0 110,19 148,59 38,39 58,94 58,164 0,56 -9,100 -26,133 -17,32 -41,57 -74,75 -32,18 -68,27 -106,27 -61,0 -111,-20 -149,-59 -38,-40 -57,-96 -57,-170zm76 0c0,56 13,98 37,126 25,28 56,42 93,42 37,0 68,-14 93,-42 24,-28 36,-71 36,-129 0,-54 -12,-95 -37,-123 -24,-28 -55,-41 -92,-41 -37,0 -68,13 -93,41 -24,28 -37,70 -37,126z"/>
  <path id="2" class="fil4" d="M2477 2579c0,-81 23,-142 68,-181 38,-32 84,-48 138,-48 60,0 110,19 148,59 38,39 58,94 58,164 0,56 -9,100 -26,133 -17,32 -41,57 -74,75 -32,18 -68,27 -106,27 -61,0 -111,-20 -149,-59 -38,-40 -57,-96 -57,-170zm76 0c0,56 13,98 37,126 25,28 56,42 93,42 37,0 68,-14 93,-42 24,-28 36,-71 36,-129 0,-54 -12,-95 -37,-123 -24,-28 -55,-41 -92,-41 -37,0 -68,13 -93,41 -24,28 -37,70 -37,126z"/>
  <path id="3" class="fil4" d="M2976 2798l0 -439 67 0 0 62c13,-21 32,-39 55,-52 23,-13 49,-19 78,-19 32,0 59,6 80,20 20,13 35,32 43,56 35,-51 81,-76 137,-76 43,0 77,12 101,36 23,24 35,61 35,111l0 301 -75 0 0 -276c0,-30 -2,-51 -7,-64 -5,-13 -13,-24 -26,-32 -13,-8 -28,-12 -45,-12 -31,0 -57,10 -77,31 -21,20 -31,53 -31,98l0 255 -74 0 0 -285c0,-33 -6,-58 -19,-74 -12,-17 -32,-25 -59,-25 -21,0 -40,6 -58,17 -18,11 -31,27 -39,48 -8,21 -12,52 -12,92l0 227 -74 0z"/>
  <path class="fil4" d="M1478 2798l0 -74 310 -388c23,-28 44,-52 64,-73l-338 0 0 -71 433 0 0 71 -340 421 -37 43 387 0 0 71 -479 0z"/>
  <path id="1" class="fil4" d="M2006 2579c0,-81 23,-142 68,-181 38,-32 84,-48 138,-48 60,0 110,19 148,59 38,39 58,94 58,164 0,56 -9,100 -26,133 -17,32 -41,57 -74,75 -32,18 -68,27 -106,27 -61,0 -111,-20 -149,-59 -38,-40 -57,-96 -57,-170zm76 0c0,56 13,98 37,126 25,28 56,42 93,42 37,0 68,-14 93,-42 24,-28 36,-71 36,-129 0,-54 -12,-95 -37,-123 -24,-28 -55,-41 -92,-41 -37,0 -68,13 -93,41 -24,28 -37,70 -37,126z"/>
  <path id="2" class="fil4" d="M2477 2579c0,-81 23,-142 68,-181 38,-32 84,-48 138,-48 60,0 110,19 148,59 38,39 58,94 58,164 0,56 -9,100 -26,133 -17,32 -41,57 -74,75 -32,18 -68,27 -106,27 -61,0 -111,-20 -149,-59 -38,-40 -57,-96 -57,-170zm76 0c0,56 13,98 37,126 25,28 56,42 93,42 37,0 68,-14 93,-42 24,-28 36,-71 36,-129 0,-54 -12,-95 -37,-123 -24,-28 -55,-41 -92,-41 -37,0 -68,13 -93,41 -24,28 -37,70 -37,126z"/>
  <path id="3" class="fil4" d="M2976 2798l0 -439 67 0 0 62c13,-21 32,-39 55,-52 23,-13 49,-19 78,-19 32,0 59,6 80,20 20,13 35,32 43,56 35,-51 81,-76 137,-76 43,0 77,12 101,36 23,24 35,61 35,111l0 301 -75 0 0 -276c0,-30 -2,-51 -7,-64 -5,-13 -13,-24 -26,-32 -13,-8 -28,-12 -45,-12 -31,0 -57,10 -77,31 -21,20 -31,53 -31,98l0 255 -74 0 0 -285c0,-33 -6,-58 -19,-74 -12,-17 -32,-25 -59,-25 -21,0 -40,6 -58,17 -18,11 -31,27 -39,48 -8,21 -12,52 -12,92l0 227 -74 0z"/>
  <polygon class="fil4" points="982,2719 982,2113 1063,2113 1063,2719 "/>
  <path id="1" class="fil4" d="M1195 2719l0 -440 67 0 0 63c13,-22 32,-39 54,-52 23,-13 49,-20 78,-20 33,0 60,7 80,20 21,14 36,33 44,57 35,-51 81,-77 136,-77 44,0 78,12 101,36 24,24 36,61 36,112l0 301 -75 0 0 -277c0,-29 -2,-51 -7,-64 -5,-13 -14,-23 -27,-32 -12,-8 -27,-12 -44,-12 -31,0 -57,11 -77,31 -21,21 -31,54 -31,99l0 255 -75 0 0 -285c0,-33 -6,-58 -18,-75 -12,-16 -32,-25 -59,-25 -21,0 -41,6 -58,17 -18,11 -31,27 -39,48 -8,22 -12,52 -12,92l0 228 -74 0z"/>
  <path id="2" class="fil4" d="M1900 2887l0 -608 68 0 0 58c16,-22 34,-39 54,-50 20,-11 44,-17 73,-17 37,0 71,10 99,29 29,19 50,46 65,81 15,36 22,74 22,116 0,45 -8,85 -24,121 -16,36 -40,63 -70,83 -31,19 -63,28 -97,28 -25,0 -47,-5 -67,-15 -20,-11 -36,-24 -49,-40l0 214 -74 0zm68 -385c0,56 11,98 34,125 23,27 50,40 83,40 33,0 61,-14 84,-42 24,-28 36,-71 36,-129 0,-56 -12,-98 -35,-126 -23,-28 -50,-41 -82,-41 -32,0 -60,14 -84,44 -24,29 -36,72 -36,129z"/>
  <path id="3" class="fil4" d="M2343 2499c0,-81 22,-141 68,-180 37,-33 84,-49 138,-49 60,0 110,20 148,59 38,40 57,94 57,164 0,56 -8,101 -25,133 -17,32 -42,57 -74,75 -32,18 -68,27 -106,27 -62,0 -111,-19 -149,-59 -38,-39 -57,-96 -57,-170zm76 0c0,56 12,99 37,126 25,28 56,42 93,42 37,0 68,-14 92,-42 25,-28 37,-71 37,-128 0,-54 -12,-95 -37,-123 -25,-28 -55,-42 -92,-42 -37,0 -68,14 -93,42 -25,27 -37,69 -37,125z"/>
  <path id="4" class="fil4" d="M2841 2719l0 -440 67 0 0 68c17,-31 33,-52 47,-62 15,-10 31,-15 48,-15 25,0 51,8 77,24l-27 68c-18,-10 -36,-15 -54,-15 -16,0 -31,5 -44,15 -13,10 -22,23 -27,40 -9,27 -13,56 -13,87l0 230 -74 0z"/>
  <path id="5" class="fil4" d="M3285 2652l11 66c-21,5 -40,7 -56,7 -27,0 -48,-4 -63,-13 -15,-9 -26,-20 -32,-34 -6,-14 -9,-43 -9,-88l0 -253 -55 0 0 -58 55 0 0 -108 75 -45 0 153 74 0 0 58 -74 0 0 257c0,22 1,35 4,41 2,7 7,11 13,15 5,4 14,5 25,5 8,0 19,-1 32,-3z"/>
  <path id="6" class="fil4" d="M3646 2664c-28,23 -54,40 -80,50 -25,9 -53,14 -82,14 -48,0 -86,-12 -112,-35 -26,-24 -39,-54 -39,-90 0,-22 5,-41 15,-59 10,-18 23,-32 39,-43 16,-10 33,-18 53,-24 15,-4 37,-7 67,-11 60,-7 104,-16 133,-26 0,-10 0,-16 0,-19 0,-30 -7,-52 -21,-64 -19,-17 -48,-25 -85,-25 -35,0 -61,6 -78,18 -17,13 -29,34 -37,66l-73 -10c7,-32 18,-57 33,-76 15,-19 37,-34 66,-44 29,-11 62,-16 100,-16 37,0 68,5 92,13 23,9 40,20 51,34 11,13 19,30 24,50 2,13 3,36 3,69l0 99c0,69 2,112 5,131 3,18 9,36 18,53l-78 0c-7,-16 -12,-34 -14,-55zm-6 -165c-27,11 -68,20 -122,28 -31,4 -52,9 -65,14 -13,6 -23,14 -29,24 -7,11 -11,23 -11,36 0,19 8,36 23,49 15,13 37,20 66,20 28,0 54,-6 76,-19 23,-12 39,-30 50,-51 8,-17 12,-42 12,-74l0 -27z"/>
  <path id="7" class="fil4" d="M3829 2719l0 -440 67 0 0 68c17,-31 33,-52 47,-62 15,-10 31,-15 48,-15 25,0 51,8 77,24l-27 68c-18,-10 -36,-15 -54,-15 -16,0 -31,5 -44,15 -12,10 -22,23 -27,40 -8,27 -13,56 -13,87l0 230 -74 0z"/>
  <g>
   <path class="fil0 str0" d="M267 182l4185 0c227,0 414,186 414,414l0 3735c0,227 -187,414 -414,414l-4266 0 0 -4482c0,-45 36,-81 81,-81z"/>
   <g>
    <path class="fil1" d="M4677 2043c0,-56 44,-100 97,-100 54,0 97,44 97,100l-194 0zm0 2281l0 -2281 194 0 0 2281 0 0 -194 0zm-383 594l0 -200 0 0 20 0 19 -2 19 -2 19 -4 19 -4 18 -6 17 -6 18 -7 17 -8 16 -9 16 -9 16 -10 15 -12 14 -11 14 -13 14 -13 12 -14 12 -14 12 -15 11 -15 10 -17 9 -16 8 -17 8 -17 7 -18 6 -19 5 -18 4 -19 4 -20 2 -19 2 -20 0 -20 194 0 0 30 -3 30 -3 30 -5 29 -7 29 -8 28 -9 28 -10 27 -12 26 -13 26 -14 25 -15 24 -16 23 -17 22 -18 22 -19 21 -20 19 -21 19 -22 18 -22 16 -24 16 -24 14 -25 13 -25 12 -27 11 -26 9 -28 8 -28 7 -28 5 -29 4 -29 2 -30 1 0 0zm-4060 -200l4060 0 0 200 -4060 0 0 0 0 -200zm-147 49l194 0 0 0 0 -3 0 -2 0 -3 -1 -2 0 -3 -1 -2 -1 -2 0 -2 -1 -3 -1 -2 -2 -2 -1 -2 -1 -2 -1 -1 -2 -2 -1 -2 -2 -1 -2 -2 -1 -1 -2 -1 -2 -2 -2 -1 -2 -1 -2 -1 -2 -1 -3 -1 -2 0 -2 -1 -3 0 -2 -1 -2 0 -3 0 0 200 -7 0 -8 -1 -7 -1 -7 -1 -8 -2 -7 -2 -6 -2 -7 -3 -7 -3 -6 -3 -6 -4 -6 -4 -6 -4 -5 -5 -6 -4 -5 -5 -4 -5 -5 -6 -5 -6 -4 -6 -3 -6 -4 -6 -3 -7 -3 -6 -3 -7 -2 -7 -2 -7 -2 -8 -1 -7 -1 -8 -1 -8 0 -7 0 0zm194 -4439l0 4439 -194 0 0 -4439 0 0 194 0zm-47 -152l0 200 0 0 3 0 2 0 2 0 3 -1 2 0 2 -1 3 -1 2 0 2 -1 2 -1 2 -2 2 -1 2 -1 1 -2 2 -1 2 -2 1 -1 2 -2 1 -2 1 -2 1 -2 2 -2 1 -2 1 -2 0 -2 1 -2 1 -3 0 -2 1 -3 0 -2 0 -3 0 -2 -194 0 0 -8 1 -7 1 -8 1 -8 2 -7 2 -7 2 -7 3 -7 3 -7 3 -6 4 -7 3 -6 4 -6 5 -5 5 -6 4 -5 5 -5 6 -5 5 -4 6 -4 6 -4 6 -4 6 -3 7 -4 7 -2 6 -3 7 -2 8 -1 7 -2 7 -1 8 0 7 -1 0 0zm2702 200l-2702 0 0 -200 2702 0 0 200zm0 -200c54,0 97,45 97,100 0,56 -43,100 -97,100l0 -200z"/>
   </g>
   <circle class="fil5 str2" cx="2466" cy="2478" r="911"/>
   <circle class="fil6 str3" cx="2466" cy="2646" r="204"/>
   <line class="fil6 str4" x1="2466" y1="2850" x2="2466" y2= "3573" />
   <line class="fil6 str3" x1="1975" y1="3573" x2="2957" y2= "3573" />
   <line class="fil6 str3" x1="2074" y1="3923" x2="2858" y2= "3923" />
   <line class="fil6 str3" x1="2125" y1="4273" x2="2807" y2= "4273" />
   <line class="fil6 str5" x1="794" y1="2518" x2="1193" y2= "2518" />
   <line class="fil6 str3" x1="4137" y1="2518" x2="3739" y2= "2518" />
   <line class="fil6 str5" x1="4137" y1="2518" x2="3739" y2= "2518" />
   <line class="fil6 str5" x1="2506" y1="807" x2="2506" y2= "1205" />
   <line class="fil6 str3" x1="1312" y1="1266" x2="1594" y2= "1547" />
   <line class="fil6 str5" x1="1312" y1="1266" x2="1594" y2= "1547" />
   <line class="fil6 str5" x1="3633" y1="1266" x2="3351" y2= "1547" />
   <g>
    <path class="fil6 str6" d="M3386 3513l-1198 648 125 232 1199 -648 109 -59c133,130 340,164 512,71 141,-76 223,-217 229,-366 1,-24 4,-23 -16,-13l-110 60 -114 61 -132 -47 -132 -46 33 -136 33 -136 114 -61 111 -60c17,-9 19,-6 1,-17 -128,-77 -293,-87 -434,-11 -172,93 -257,286 -221,469l-109 59z"/>
    <path id="1" class="fil7" d="M3386 3513l-1198 648 125 232 1199 -648 109 -59c133,130 340,164 512,71 141,-76 223,-217 229,-366 1,-24 4,-23 -16,-13l-110 60 -114 61 -132 -47 -132 -46 33 -136 33 -136 114 -61 111 -60c17,-9 19,-6 1,-17 -128,-77 -293,-87 -434,-11 -172,93 -257,286 -221,469l-109 59z"/>
   </g>
   <path class="fil6 str3" d="M2081 3304c-321,-150 -526,-472 -526,-826 0,-503 408,-911 911,-911 503,0 911,408 911,911 0,354 -205,676 -526,826"/>
  </g>
 </g>
</svg>
