<?xml version="1.0" encoding="UTF-8"?>
<!DOCTYPE svg PUBLIC "-//W3C//DTD SVG 1.1//EN" "http://www.w3.org/Graphics/SVG/1.1/DTD/svg11.dtd">
<!-- Creator: CorelDRAW X8 -->
<svg xmlns="http://www.w3.org/2000/svg" xml:space="preserve" width="50.5mm" height="50mm" version="1.1" style="shape-rendering:geometricPrecision; text-rendering:geometricPrecision; image-rendering:optimizeQuality; fill-rule:evenodd; clip-rule:evenodd"
viewBox="0 0 5050 5000"
 xmlns:xlink="http://www.w3.org/1999/xlink">
 <defs>
  <style type="text/css">
   <![CDATA[
    .str0 {stroke:#495C80;stroke-width:7.62}
    .str1 {stroke:#495C80;stroke-width:350;stroke-linecap:round;stroke-linejoin:round}
    .fil1 {fill:none}
    .fil4 {fill:#FEFEFE}
    .fil0 {fill:#495C80}
    .fil3 {fill:#FEFEFE;fill-rule:nonzero}
    .fil2 {fill:#495C80;fill-rule:nonzero}
   ]]>
  </style>
 </defs>
 <g id="Capa_x0020_1">
  <metadata id="CorelCorpID_0Corel-Layer"/>
  <g id="_1514445816704">
   <path class="fil0 str0" d="M213 142l4349 0c229,0 416,187 416,416l0 3751c0,229 -187,416 -416,416l-4349 0 0 -4583z"/>
   <g>
    <path class="fil1 str1" d="M4802 2031l0 2214c0,264 -216,480 -480,480l-4060 0c-28,0 -50,-22 -50,-50l0 -4309c0,-27 22,-50 50,-50l2702 0"/>
   </g>
   <g>
    <path class="fil2" d="M4705 2082c0,-55 43,-100 97,-100 53,0 97,45 97,100l-194 0zm0 2281l0 -2281 194 0 0 2281 0 0 -194 0zm-383 595l0 -200 0 0 19 -1 20 -1 19 -3 19 -3 18 -4 18 -6 18 -6 17 -7 17 -8 17 -9 16 -9 15 -11 15 -11 15 -11 14 -13 13 -13 13 -14 12 -14 11 -15 11 -16 10 -16 9 -16 9 -17 8 -18 6 -17 7 -19 5 -18 4 -19 3 -20 3 -19 1 -20 1 -21 194 0 -1 31 -2 30 -4 30 -5 29 -6 29 -8 28 -9 28 -11 27 -11 26 -13 26 -14 24 -15 25 -16 23 -17 22 -18 22 -20 20 -20 20 -20 19 -22 17 -23 17 -23 16 -24 14 -25 13 -26 12 -26 11 -27 9 -27 8 -28 7 -29 5 -28 4 -30 2 -29 1 0 0zm-4060 -200l4060 0 0 200 -4060 0 0 0 0 -200zm-147 48l194 0 0 0 0 -2 0 -2 -1 -3 0 -2 -1 -3 0 -2 -1 -2 -1 -3 -1 -2 -1 -2 -1 -2 -1 -2 -2 -2 -1 -1 -1 -2 -2 -2 -1 -1 -2 -2 -2 -1 -2 -2 -2 -1 -2 -1 -2 -1 -2 -1 -2 -1 -2 -1 -2 0 -3 -1 -2 0 -2 -1 -3 0 -2 0 0 200 -8 0 -7 -1 -8 -1 -7 -1 -7 -2 -7 -2 -7 -2 -7 -3 -6 -3 -6 -3 -7 -4 -6 -4 -5 -4 -6 -5 -5 -5 -5 -4 -5 -6 -5 -5 -4 -6 -4 -6 -4 -6 -3 -6 -4 -7 -3 -7 -2 -6 -3 -7 -2 -8 -1 -7 -2 -8 -1 -7 0 -8 0 -8 0 0zm194 -4438l0 4438 -194 0 0 -4438 0 0 194 0zm-47 -152l0 200 0 0 2 0 3 0 2 0 2 -1 3 0 2 -1 2 -1 2 -1 2 -1 2 -1 2 -1 2 -1 2 -1 2 -2 2 -1 1 -2 2 -1 1 -2 1 -2 2 -2 1 -2 1 -2 1 -2 1 -2 1 -2 1 -2 0 -3 1 -2 0 -3 1 -2 0 -3 0 -2 -194 0 0 -8 0 -7 1 -8 2 -8 1 -7 2 -7 3 -7 2 -7 3 -7 4 -7 3 -6 4 -6 4 -6 4 -6 5 -5 5 -5 5 -5 5 -5 6 -4 5 -5 6 -4 7 -3 6 -4 6 -3 7 -2 7 -3 7 -2 7 -2 7 -1 8 -1 7 0 8 -1 0 0zm2702 200l-2702 0 0 -200 2702 0 0 200zm0 -200c53,0 97,45 97,100 0,56 -44,100 -97,100l0 -200z"/>
   </g>
   <g>
    <path class="fil3" d="M3073 2624l-512 512 -8 -8 512 -512 8 0 0 8zm-8 -8l4 -4 4 4 -8 0zm896 903l-896 -895 8 -8 896 896 0 0 -8 7zm8 308l-8 -8 0 0 8 -8 7 -8 6 -8 6 -9 6 -9 5 -9 4 -10 4 -9 4 -10 3 -9 3 -10 2 -10 2 -10 1 -10 1 -11 0 -10 0 -10 -1 -10 -1 -10 -2 -10 -2 -10 -3 -10 -3 -10 -4 -10 -4 -9 -4 -9 -5 -10 -6 -8 -6 -9 -6 -9 -7 -8 -8 -8 8 -7 8 8 7 9 7 8 6 10 6 9 5 10 5 9 4 10 4 10 4 11 2 10 3 11 1 10 2 11 0 10 1 11 -1 11 0 11 -2 10 -1 11 -3 10 -2 11 -4 10 -4 10 -4 10 -5 10 -5 9 -6 10 -6 9 -7 9 -7 8 -8 9 0 0zm-213 197l205 -205 8 8 -205 204 -8 -7zm-307 7l8 -7 0 0 8 7 8 7 8 7 9 6 9 5 9 5 9 5 10 4 9 4 10 3 10 3 10 2 10 1 10 2 10 0 10 1 11 -1 10 0 10 -2 10 -1 10 -2 10 -3 10 -3 9 -4 10 -4 9 -5 9 -5 9 -5 9 -6 8 -7 8 -7 8 -7 8 7 -8 8 -9 8 -9 6 -9 7 -9 6 -10 5 -10 5 -10 4 -10 4 -10 3 -11 3 -10 2 -11 2 -10 1 -11 1 -11 0 -10 0 -11 -1 -11 -1 -10 -2 -11 -2 -10 -3 -10 -3 -10 -4 -10 -4 -10 -5 -10 -5 -9 -6 -9 -6 -9 -7 -9 -8 -8 -8 0 0zm-888 -903l896 896 -8 7 -896 -895 0 -8 8 0zm-8 8l-3 -4 3 -4 0 8z"/>
    <path id="1" class="fil4" d="M2557 3132l512 -512 896 896c84,84 84,222 0,307l-205 205c-84,84 -223,84 -307,0l-896 -896z"/>
   </g>
   <g>
    <path class="fil3" d="M2914 1239l-202 202 0 0 -35 -34 -37 -31 -37 -29 -39 -27 -40 -25 -40 -23 -42 -20 -42 -19 -43 -16 -43 -14 -44 -12 -45 -10 -45 -7 -45 -6 -45 -3 -45 -1 -46 1 -45 3 -45 6 -45 7 -44 10 -44 12 -44 14 -42 16 -43 18 -41 21 -41 23 -39 24 -39 27 -38 29 -36 32 -35 33 -202 -201 46 -43 48 -41 49 -38 50 -35 52 -33 53 -29 54 -27 55 -24 56 -21 57 -18 57 -16 58 -12 58 -10 59 -7 59 -5 58 -1 59 1 59 5 59 7 58 10 58 12 57 16 57 18 56 21 55 24 54 27 53 29 52 33 50 35 49 38 47 40 46 44 0 0zm0 1738l-201 -202 0 0 33 -35 31 -37 30 -37 27 -39 24 -39 23 -41 20 -41 19 -43 16 -43 14 -43 12 -44 10 -44 7 -45 6 -45 3 -45 1 -46 -1 -45 -3 -45 -6 -45 -7 -45 -10 -45 -12 -44 -14 -43 -16 -43 -19 -42 -20 -42 -23 -40 -25 -40 -27 -39 -29 -38 -31 -36 -34 -35 202 -202 44 46 40 47 38 49 35 50 33 52 29 53 27 54 24 55 21 56 18 57 16 57 12 58 10 58 7 59 4 59 2 58 -2 59 -4 59 -7 59 -10 58 -12 58 -16 57 -18 57 -21 56 -24 55 -27 54 -29 53 -33 52 -35 50 -38 49 -41 48 -43 46 0 0zm-1738 0l202 -202 0 0 35 34 37 31 37 29 39 27 40 25 41 23 41 20 42 18 43 17 44 14 44 12 44 9 45 8 45 5 45 3 45 2 46 -2 45 -3 45 -5 45 -8 44 -9 44 -12 44 -14 43 -17 42 -18 41 -20 41 -23 39 -25 39 -27 38 -29 36 -31 36 -34 201 202 -46 43 -47 41 -49 38 -51 35 -52 32 -53 30 -54 27 -55 24 -56 21 -56 18 -58 15 -58 13 -58 10 -59 7 -58 4 -59 2 -59 -2 -59 -4 -59 -7 -58 -10 -58 -13 -57 -15 -57 -18 -56 -21 -55 -24 -54 -27 -53 -30 -51 -32 -51 -35 -49 -38 -47 -41 -46 -43 0 0zm0 -1738l202 201 0 0 -34 36 -31 36 -29 38 -27 38 -25 40 -23 41 -20 41 -19 42 -16 43 -14 44 -12 44 -9 44 -8 45 -5 45 -4 45 -1 45 1 46 4 45 5 45 8 45 9 44 12 44 14 44 16 43 19 42 20 41 23 41 25 40 27 38 29 38 31 37 34 35 -202 202 -43 -46 -41 -47 -38 -49 -35 -51 -33 -51 -29 -53 -27 -54 -24 -56 -21 -55 -18 -57 -16 -57 -12 -58 -10 -58 -7 -59 -4 -59 -2 -59 2 -59 4 -59 7 -58 10 -58 12 -58 16 -58 18 -56 21 -56 24 -55 27 -54 30 -53 32 -52 35 -51 38 -49 41 -47 43 -46 0 0z"/>
   </g>
  </g>
 </g>
</svg>
