<?xml version="1.0" encoding="UTF-8"?>
<!DOCTYPE svg PUBLIC "-//W3C//DTD SVG 1.1//EN" "http://www.w3.org/Graphics/SVG/1.1/DTD/svg11.dtd">
<!-- Creator: CorelDRAW X8 -->
<svg xmlns="http://www.w3.org/2000/svg" xml:space="preserve" width="50.5mm" height="50mm" version="1.1" style="shape-rendering:geometricPrecision; text-rendering:geometricPrecision; image-rendering:optimizeQuality; fill-rule:evenodd; clip-rule:evenodd"
viewBox="0 0 5050 5000"
 xmlns:xlink="http://www.w3.org/1999/xlink">
 <defs>
  <style type="text/css">
   <![CDATA[
    .str0 {stroke:#606062;stroke-width:7.62}
    .fil3 {fill:#606062}
    .fil1 {fill:#495C80}
    .fil2 {fill:#D2D3D5;fill-rule:nonzero}
    .fil0 {fill:#495C80;fill-rule:nonzero}
   ]]>
  </style>
 </defs>
 <g id="Capa_x0020_1">
  <metadata id="CorelCorpID_0Corel-Layer"/>
  <g id="_1514445355568">
   <g>
    <path class="fil0" d="M4723 1995c0,-55 43,-100 97,-100 54,0 97,45 97,100l-194 0zm0 2281l0 -2281 194 0 0 2281 0 0 -194 0zm-383 595l0 -200 0 0 20 -1 19 -1 19 -3 19 -3 18 -5 18 -5 18 -6 17 -7 17 -8 17 -9 16 -9 16 -11 15 -11 14 -12 14 -12 13 -13 13 -14 12 -14 12 -15 10 -16 10 -16 10 -16 8 -17 8 -18 7 -18 6 -18 5 -18 4 -19 4 -20 2 -19 1 -20 1 -21 194 0 -1 31 -2 30 -4 30 -5 29 -6 29 -8 28 -9 27 -10 27 -12 27 -13 25 -14 25 -15 24 -16 24 -17 22 -18 22 -19 20 -20 20 -21 19 -22 17 -23 17 -23 15 -24 15 -25 13 -26 12 -26 11 -27 9 -27 8 -28 7 -28 5 -29 4 -29 2 -30 1 0 0zm-4060 -200l4060 0 0 200 -4060 0 0 0 0 -200zm-147 48l194 0 0 0 0 -2 0 -3 -1 -2 0 -2 0 -3 -1 -2 -1 -3 -1 -2 -1 -2 -1 -2 -1 -2 -1 -2 -1 -2 -2 -2 -1 -1 -2 -2 -1 -2 -2 -1 -2 -2 -1 -1 -2 -1 -2 -1 -2 -1 -2 -1 -3 -1 -2 -1 -2 -1 -3 0 -2 -1 -2 0 -3 0 -2 0 0 200 -8 0 -7 -1 -7 -1 -8 -1 -7 -2 -7 -2 -7 -2 -6 -3 -7 -3 -6 -4 -6 -3 -6 -4 -6 -4 -6 -5 -5 -5 -5 -5 -5 -5 -4 -5 -5 -6 -4 -6 -4 -6 -3 -6 -3 -7 -3 -7 -3 -7 -2 -7 -2 -7 -2 -7 -1 -8 -1 -7 -1 -8 0 -8 0 0zm194 -4438l0 4438 -194 0 0 -4438 0 0 194 0zm-47 -152l0 200 0 0 2 0 3 0 2 0 2 -1 3 0 2 -1 2 -1 3 -1 2 -1 2 -1 2 -1 2 -1 1 -1 2 -2 2 -1 1 -2 2 -2 1 -1 2 -2 1 -2 1 -2 1 -2 1 -2 1 -2 1 -2 1 -3 1 -2 0 -3 0 -2 1 -2 0 -3 0 -2 -194 0 0 -8 1 -8 1 -7 1 -8 2 -7 2 -7 2 -7 3 -7 3 -7 3 -7 3 -6 4 -6 4 -6 5 -6 4 -5 5 -5 5 -5 5 -5 6 -5 6 -4 6 -4 6 -3 6 -4 7 -3 6 -3 7 -2 7 -2 7 -2 8 -1 7 -1 7 -1 8 0 0 0zm2702 200l-2702 0 0 -200 2702 0 0 200zm0 -200c53,0 97,45 97,100 0,55 -44,100 -97,100l0 -200z"/>
   </g>
   <g>
    <path class="fil0" d="M3091 2537l-512 512 -7 -8 512 -512 7 0 0 8zm-7 -8l3 -4 4 4 -7 0zm895 903l-895 -895 7 -8 896 896 0 0 -8 7zm8 307l-8 -7 0 0 8 -8 7 -8 6 -9 6 -8 6 -9 5 -9 5 -10 4 -9 3 -10 3 -10 3 -9 2 -10 2 -11 1 -10 1 -10 0 -10 0 -10 -1 -10 -1 -10 -2 -11 -2 -10 -3 -9 -3 -10 -3 -10 -4 -9 -5 -10 -5 -9 -6 -9 -6 -8 -6 -9 -7 -8 -8 -8 8 -7 8 8 7 8 7 9 6 9 6 10 5 9 5 10 5 10 3 10 4 11 3 10 2 10 2 11 1 11 1 10 0 11 0 11 -1 10 -1 11 -2 11 -2 10 -3 10 -4 11 -3 10 -5 10 -5 10 -5 9 -6 10 -6 9 -7 9 -7 8 -8 8 0 0zm-213 198l205 -205 8 7 -205 205 -8 -7zm-307 7l8 -7 0 0 8 7 8 7 8 7 9 6 9 5 9 5 9 5 10 4 9 4 10 3 10 2 10 3 10 1 10 1 10 1 11 0 10 0 10 -1 10 -1 10 -1 10 -3 10 -2 10 -3 9 -4 10 -4 9 -5 9 -5 9 -5 9 -6 8 -7 9 -7 7 -7 8 7 -8 8 -9 7 -9 7 -9 7 -9 6 -10 5 -10 5 -10 4 -10 4 -10 3 -10 3 -11 2 -10 2 -11 1 -11 1 -10 0 -11 0 -11 -1 -10 -1 -11 -2 -10 -2 -11 -3 -10 -3 -10 -4 -10 -4 -10 -5 -10 -5 -9 -6 -9 -7 -9 -7 -9 -7 -8 -8 0 0zm-888 -903l896 896 -8 7 -895 -895 0 -8 7 0zm-7 8l-4 -4 4 -4 0 8z"/>
    <path id="1" class="fil1" d="M2575 3045l512 -512 896 895c85,85 85,223 0,308l-205 204c-84,85 -222,85 -307,0l-896 -895z"/>
   </g>
   <g>
    <path class="fil0" d="M2932 1152l-202 201 0 0 -35 -33 -36 -31 -38 -30 -39 -27 -39 -24 -41 -23 -42 -21 -42 -18 -43 -16 -43 -14 -44 -12 -45 -10 -44 -7 -46 -6 -45 -3 -45 -1 -45 1 -46 3 -45 6 -44 7 -45 10 -44 12 -43 14 -43 16 -42 18 -42 21 -40 22 -40 25 -39 27 -37 29 -37 32 -35 33 -201 -201 45 -44 48 -40 49 -38 50 -36 52 -32 53 -29 54 -27 55 -24 56 -21 57 -19 57 -15 58 -13 58 -9 59 -8 59 -4 59 -1 59 1 58 4 59 8 58 9 58 13 57 15 57 19 56 21 55 24 54 26 53 30 52 32 50 36 49 37 48 41 45 44 0 0zm0 1737l-201 -201 0 0 33 -35 32 -37 29 -37 27 -39 25 -40 22 -40 21 -42 18 -42 16 -43 14 -43 12 -44 10 -45 7 -44 6 -45 3 -46 1 -45 -1 -45 -3 -45 -6 -46 -7 -44 -10 -45 -12 -44 -14 -43 -16 -43 -18 -42 -21 -42 -23 -41 -24 -39 -27 -39 -30 -38 -31 -36 -34 -36 202 -201 44 45 41 48 37 49 36 50 32 52 29 53 27 54 24 55 21 56 19 57 15 57 13 58 9 58 7 59 5 58 1 59 -1 59 -5 59 -7 59 -9 58 -13 58 -16 57 -18 57 -21 56 -24 55 -27 54 -29 53 -33 52 -35 50 -38 49 -40 48 -44 45 0 0zm-1738 1l202 -202 0 0 35 33 37 32 38 29 38 27 40 25 41 22 41 21 42 18 43 16 44 15 44 11 44 10 45 8 45 5 45 3 46 1 45 -1 45 -3 45 -5 45 -8 44 -10 44 -11 44 -15 43 -16 42 -18 41 -20 41 -23 40 -25 38 -27 38 -29 36 -31 36 -34 201 201 -46 44 -47 41 -49 38 -51 35 -51 32 -53 30 -55 27 -55 23 -56 22 -56 18 -58 15 -57 13 -59 10 -58 7 -59 4 -59 1 -59 -1 -59 -4 -58 -7 -59 -10 -57 -13 -58 -15 -56 -18 -56 -22 -55 -23 -54 -27 -53 -30 -52 -32 -51 -35 -49 -38 -47 -41 -46 -43 0 0zm1 -1738l201 201 0 0 -34 36 -31 36 -29 38 -27 38 -25 40 -23 41 -20 41 -18 42 -17 43 -14 44 -11 43 -10 45 -8 45 -5 45 -3 45 -1 45 1 46 3 45 5 45 8 45 10 44 11 44 15 44 16 43 18 42 21 41 22 41 25 40 27 38 29 38 32 36 33 36 -202 202 -43 -46 -41 -47 -38 -49 -35 -51 -32 -52 -30 -53 -27 -54 -24 -55 -21 -56 -18 -56 -15 -58 -13 -57 -10 -59 -7 -58 -4 -59 -1 -59 1 -59 4 -59 7 -58 10 -59 13 -57 15 -58 18 -56 22 -56 23 -55 27 -55 30 -53 32 -51 35 -51 38 -49 41 -47 44 -46 0 0z"/>
   </g>
   <g>
    <path class="fil2" d="M4723 1995c0,-55 43,-100 97,-100 54,0 97,45 97,100l-194 0zm0 2281l0 -2281 194 0 0 2281 0 0 -194 0zm-383 595l0 -200 0 0 20 -1 19 -1 19 -3 19 -3 18 -5 18 -5 18 -6 17 -7 17 -8 17 -9 16 -9 16 -11 15 -11 14 -12 14 -12 13 -13 13 -14 12 -14 12 -15 10 -16 10 -16 10 -16 8 -17 8 -18 7 -18 6 -18 5 -18 4 -19 4 -20 2 -19 1 -20 1 -21 194 0 -1 31 -2 30 -4 30 -5 29 -6 29 -8 28 -9 27 -10 27 -12 27 -13 25 -14 25 -15 24 -16 24 -17 22 -18 22 -19 20 -20 20 -21 19 -22 17 -23 17 -23 15 -24 15 -25 13 -26 12 -26 11 -27 9 -27 8 -28 7 -28 5 -29 4 -29 2 -30 1 0 0zm-4060 -200l4060 0 0 200 -4060 0 0 0 0 -200zm-147 48l194 0 0 0 0 -2 0 -3 -1 -2 0 -2 0 -3 -1 -2 -1 -3 -1 -2 -1 -2 -1 -2 -1 -2 -1 -2 -1 -2 -2 -2 -1 -1 -2 -2 -1 -2 -2 -1 -2 -2 -1 -1 -2 -1 -2 -1 -2 -1 -2 -1 -3 -1 -2 -1 -2 -1 -3 0 -2 -1 -2 0 -3 0 -2 0 0 200 -8 0 -7 -1 -7 -1 -8 -1 -7 -2 -7 -2 -7 -2 -6 -3 -7 -3 -6 -4 -6 -3 -6 -4 -6 -4 -6 -5 -5 -5 -5 -5 -5 -5 -4 -5 -5 -6 -4 -6 -4 -6 -3 -6 -3 -7 -3 -7 -3 -7 -2 -7 -2 -7 -2 -7 -1 -8 -1 -7 -1 -8 0 -8 0 0zm194 -4438l0 4438 -194 0 0 -4438 0 0 194 0zm-47 -152l0 200 0 0 2 0 3 0 2 0 2 -1 3 0 2 -1 2 -1 3 -1 2 -1 2 -1 2 -1 2 -1 1 -1 2 -2 2 -1 1 -2 2 -2 1 -1 2 -2 1 -2 1 -2 1 -2 1 -2 1 -2 1 -2 1 -3 1 -2 0 -3 0 -2 1 -2 0 -3 0 -2 -194 0 0 -8 1 -8 1 -7 1 -8 2 -7 2 -7 2 -7 3 -7 3 -7 3 -7 3 -6 4 -6 4 -6 5 -6 4 -5 5 -5 5 -5 5 -5 6 -5 6 -4 6 -4 6 -3 6 -4 7 -3 6 -3 7 -2 7 -2 7 -2 8 -1 7 -1 7 -1 8 0 0 0zm2702 200l-2702 0 0 -200 2702 0 0 200zm0 -200c53,0 97,45 97,100 0,55 -44,100 -97,100l0 -200z"/>
   </g>
   <g>
    <path class="fil0" d="M2932 1152l-202 201 0 0 -35 -33 -36 -31 -38 -30 -39 -27 -39 -24 -41 -23 -42 -21 -42 -18 -43 -16 -43 -14 -44 -12 -45 -10 -44 -7 -46 -6 -45 -3 -45 -1 -45 1 -46 3 -45 6 -44 7 -45 10 -44 12 -43 14 -43 16 -42 18 -42 21 -40 22 -40 25 -39 27 -37 29 -37 32 -35 33 -201 -201 45 -44 48 -40 49 -38 50 -36 52 -32 53 -29 54 -27 55 -24 56 -21 57 -19 57 -15 58 -13 58 -9 59 -8 59 -4 59 -1 59 1 58 4 59 8 58 9 58 13 57 15 57 19 56 21 55 24 54 26 53 30 52 32 50 36 49 37 48 41 45 44 0 0zm0 1737l-201 -201 0 0 33 -35 32 -37 29 -37 27 -39 25 -40 22 -40 21 -42 18 -42 16 -43 14 -43 12 -44 10 -45 7 -44 6 -45 3 -46 1 -45 -1 -45 -3 -45 -6 -46 -7 -44 -10 -45 -12 -44 -14 -43 -16 -43 -18 -42 -21 -42 -23 -41 -24 -39 -27 -39 -30 -38 -31 -36 -34 -36 202 -201 44 45 41 48 37 49 36 50 32 52 29 53 27 54 24 55 21 56 19 57 15 57 13 58 9 58 7 59 5 58 1 59 -1 59 -5 59 -7 59 -9 58 -13 58 -16 57 -18 57 -21 56 -24 55 -27 54 -29 53 -33 52 -35 50 -38 49 -40 48 -44 45 0 0zm-1738 1l202 -202 0 0 35 33 37 32 38 29 38 27 40 25 41 22 41 21 42 18 43 16 44 15 44 11 44 10 45 8 45 5 45 3 46 1 45 -1 45 -3 45 -5 45 -8 44 -10 44 -11 44 -15 43 -16 42 -18 41 -20 41 -23 40 -25 38 -27 38 -29 36 -31 36 -34 201 201 -46 44 -47 41 -49 38 -51 35 -51 32 -53 30 -55 27 -55 23 -56 22 -56 18 -58 15 -57 13 -59 10 -58 7 -59 4 -59 1 -59 -1 -59 -4 -58 -7 -59 -10 -57 -13 -58 -15 -56 -18 -56 -22 -55 -23 -54 -27 -53 -30 -52 -32 -51 -35 -49 -38 -47 -41 -46 -43 0 0zm1 -1738l201 201 0 0 -34 36 -31 36 -29 38 -27 38 -25 40 -23 41 -20 41 -18 42 -17 43 -14 44 -11 43 -10 45 -8 45 -5 45 -3 45 -1 45 1 46 3 45 5 45 8 45 10 44 11 44 15 44 16 43 18 42 21 41 22 41 25 40 27 38 29 38 32 36 33 36 -202 202 -43 -46 -41 -47 -38 -49 -35 -51 -32 -52 -30 -53 -27 -54 -24 -55 -21 -56 -18 -56 -15 -58 -13 -57 -10 -59 -7 -58 -4 -59 -1 -59 1 -59 4 -59 7 -58 10 -59 13 -57 15 -58 18 -56 22 -56 23 -55 27 -55 30 -53 32 -51 35 -51 38 -49 41 -47 44 -46 0 0z"/>
   </g>
   <rect class="fil3 str0" x="1463" y="1880" width="1200" height="282" rx="70" ry="141"/>
   <rect class="fil3 str0" transform="matrix(9.64805E-15 -0.36429 0.735853 1.94887E-14 1922.16 2620.66)" width="3294" height="384" rx="192" ry="192"/>
  </g>
 </g>
</svg>
