<?xml version="1.0" encoding="UTF-8"?>
<!DOCTYPE svg PUBLIC "-//W3C//DTD SVG 1.1//EN" "http://www.w3.org/Graphics/SVG/1.1/DTD/svg11.dtd">
<!-- Creator: CorelDRAW X8 -->
<svg xmlns="http://www.w3.org/2000/svg" xml:space="preserve" width="50.5mm" height="50mm" version="1.1" style="shape-rendering:geometricPrecision; text-rendering:geometricPrecision; image-rendering:optimizeQuality; fill-rule:evenodd; clip-rule:evenodd"
viewBox="0 0 5050 5000"
 xmlns:xlink="http://www.w3.org/1999/xlink">
 <defs>
  <style type="text/css">
   <![CDATA[
    .str1 {stroke:#FEFEFE;stroke-width:7.62}
    .str0 {stroke:#495C80;stroke-width:7.62}
    .fil3 {fill:#FEFEFE}
    .fil0 {fill:#495C80}
    .fil2 {fill:#FEFEFE;fill-rule:nonzero}
    .fil1 {fill:#495C80;fill-rule:nonzero}
   ]]>
  </style>
 </defs>
 <g id="Capa_x0020_1">
  <metadata id="CorelCorpID_0Corel-Layer"/>
  <g id="_1514626178608">
   <path class="fil0 str0" d="M267 182l4185 0c227,0 414,186 414,414l0 3735c0,227 -187,414 -414,414l-4266 0 0 -4482c0,-45 36,-81 81,-81z"/>
   <g>
    <path class="fil1" d="M4677 2043c0,-56 44,-100 97,-100 54,0 97,44 97,100l-194 0zm0 2281l0 -2281 194 0 0 2281 0 0 -194 0zm-383 594l0 -200 0 0 20 0 19 -2 19 -2 19 -4 19 -4 18 -6 17 -6 18 -7 17 -8 16 -9 16 -9 16 -10 15 -12 14 -11 14 -13 14 -13 12 -14 12 -14 12 -15 11 -15 10 -17 9 -16 8 -17 8 -17 7 -18 6 -19 5 -18 4 -19 4 -20 2 -19 2 -20 0 -20 194 0 0 30 -3 30 -3 30 -5 29 -7 29 -8 28 -9 28 -10 27 -12 26 -13 26 -14 25 -15 24 -16 23 -17 22 -18 22 -19 21 -20 19 -21 19 -22 18 -22 16 -24 16 -24 14 -25 13 -25 12 -27 11 -26 9 -28 8 -28 7 -28 5 -29 4 -29 2 -30 1 0 0zm-4060 -200l4060 0 0 200 -4060 0 0 0 0 -200zm-147 49l194 0 0 0 0 -3 0 -2 0 -3 -1 -2 0 -3 -1 -2 -1 -2 0 -2 -1 -3 -1 -2 -2 -2 -1 -2 -1 -2 -1 -1 -2 -2 -1 -2 -2 -1 -2 -2 -1 -1 -2 -1 -2 -2 -2 -1 -2 -1 -2 -1 -2 -1 -3 -1 -2 0 -2 -1 -3 0 -2 -1 -2 0 -3 0 0 200 -7 0 -8 -1 -7 -1 -7 -1 -8 -2 -7 -2 -6 -2 -7 -3 -7 -3 -6 -3 -6 -4 -6 -4 -6 -4 -5 -5 -6 -4 -5 -5 -4 -5 -5 -6 -5 -6 -4 -6 -3 -6 -4 -6 -3 -7 -3 -6 -3 -7 -2 -7 -2 -7 -2 -8 -1 -7 -1 -8 -1 -8 0 -7 0 0zm194 -4439l0 4439 -194 0 0 -4439 0 0 194 0zm-47 -152l0 200 0 0 3 0 2 0 2 0 3 -1 2 0 2 -1 3 -1 2 0 2 -1 2 -1 2 -2 2 -1 2 -1 1 -2 2 -1 2 -2 1 -1 2 -2 1 -2 1 -2 1 -2 2 -2 1 -2 1 -2 0 -2 1 -2 1 -3 0 -2 1 -3 0 -2 0 -3 0 -2 -194 0 0 -8 1 -7 1 -8 1 -8 2 -7 2 -7 2 -7 3 -7 3 -7 3 -6 4 -7 3 -6 4 -6 5 -5 5 -6 4 -5 5 -5 6 -5 5 -4 6 -4 6 -4 6 -4 6 -3 7 -4 7 -2 6 -3 7 -2 8 -1 7 -2 7 -1 8 0 7 -1 0 0zm2702 200l-2702 0 0 -200 2702 0 0 200zm0 -200c54,0 97,45 97,100 0,56 -43,100 -97,100l0 -200z"/>
   </g>
   <g>
    <path class="fil1" d="M4677 2043c0,-56 44,-100 97,-100 54,0 97,44 97,100l-194 0zm0 2281l0 -2281 194 0 0 2281 0 0 -194 0zm-383 594l0 -200 0 0 20 0 19 -2 19 -2 19 -4 19 -4 18 -6 17 -6 18 -7 17 -8 16 -9 16 -9 16 -10 15 -12 14 -11 14 -13 14 -13 12 -14 12 -14 12 -15 11 -15 10 -17 9 -16 8 -17 8 -17 7 -18 6 -19 5 -18 4 -19 4 -20 2 -19 2 -20 0 -20 194 0 0 30 -3 30 -3 30 -5 29 -7 29 -8 28 -9 28 -10 27 -12 26 -13 26 -14 25 -15 24 -16 23 -17 22 -18 22 -19 21 -20 19 -21 19 -22 18 -22 16 -24 16 -24 14 -25 13 -25 12 -27 11 -26 9 -28 8 -28 7 -28 5 -29 4 -29 2 -30 1 0 0zm-4060 -200l4060 0 0 200 -4060 0 0 0 0 -200zm-147 49l194 0 0 0 0 -3 0 -2 0 -3 -1 -2 0 -3 -1 -2 -1 -2 0 -2 -1 -3 -1 -2 -2 -2 -1 -2 -1 -2 -1 -1 -2 -2 -1 -2 -2 -1 -2 -2 -1 -1 -2 -1 -2 -2 -2 -1 -2 -1 -2 -1 -2 -1 -3 -1 -2 0 -2 -1 -3 0 -2 -1 -2 0 -3 0 0 200 -7 0 -8 -1 -7 -1 -7 -1 -8 -2 -7 -2 -6 -2 -7 -3 -7 -3 -6 -3 -6 -4 -6 -4 -6 -4 -5 -5 -6 -4 -5 -5 -4 -5 -5 -6 -5 -6 -4 -6 -3 -6 -4 -6 -3 -7 -3 -6 -3 -7 -2 -7 -2 -7 -2 -8 -1 -7 -1 -8 -1 -8 0 -7 0 0zm194 -4439l0 4439 -194 0 0 -4439 0 0 194 0zm-47 -152l0 200 0 0 3 0 2 0 2 0 3 -1 2 0 2 -1 3 -1 2 0 2 -1 2 -1 2 -2 2 -1 2 -1 1 -2 2 -1 2 -2 1 -1 2 -2 1 -2 1 -2 1 -2 2 -2 1 -2 1 -2 0 -2 1 -2 1 -3 0 -2 1 -3 0 -2 0 -3 0 -2 -194 0 0 -8 1 -7 1 -8 1 -8 2 -7 2 -7 2 -7 3 -7 3 -7 3 -6 4 -7 3 -6 4 -6 5 -5 5 -6 4 -5 5 -5 6 -5 5 -4 6 -4 6 -4 6 -4 6 -3 7 -4 7 -2 6 -3 7 -2 8 -1 7 -2 7 -1 8 0 7 -1 0 0zm2702 200l-2702 0 0 -200 2702 0 0 200zm0 -200c54,0 97,45 97,100 0,56 -43,100 -97,100l0 -200z"/>
   </g>
   <g>
    <path class="fil2" d="M3046 2584l-513 512 -7 -8 512 -512 8 0 0 8zm-8 -8l4 -4 4 4 -8 0zm896 903l-896 -895 8 -8 895 896 0 0 -7 7zm7 308l-7 -8 0 0 7 -8 7 -8 7 -8 6 -9 5 -9 5 -9 5 -9 4 -10 3 -10 4 -9 2 -10 2 -10 2 -10 1 -10 1 -11 0 -10 0 -10 -1 -10 -1 -10 -2 -10 -2 -10 -2 -10 -4 -10 -3 -10 -4 -9 -5 -9 -5 -9 -5 -9 -6 -9 -7 -8 -7 -9 -7 -8 7 -7 8 8 7 9 7 9 7 9 5 9 6 10 5 9 4 10 4 11 3 10 3 10 2 11 2 10 1 11 1 11 0 10 0 11 -1 11 -1 10 -2 11 -2 10 -3 11 -3 10 -4 10 -4 10 -5 10 -6 9 -5 10 -7 9 -7 9 -7 8 -8 9 0 0zm-212 197l205 -205 7 8 -205 205 -7 -8zm-308 8l8 -8 0 0 8 7 8 7 9 7 8 6 9 5 9 6 10 4 9 4 10 4 10 3 9 3 10 2 10 2 11 1 10 0 10 1 10 -1 10 0 10 -1 10 -2 10 -2 10 -3 10 -3 10 -4 9 -4 10 -4 9 -6 9 -5 8 -6 9 -7 8 -7 8 -7 7 8 -8 7 -9 8 -8 7 -10 6 -9 6 -9 5 -10 5 -10 4 -10 4 -11 3 -10 3 -11 2 -10 2 -11 1 -10 1 -11 0 -11 0 -10 -1 -11 -1 -11 -2 -10 -2 -11 -3 -10 -3 -10 -4 -10 -4 -10 -5 -9 -5 -10 -6 -9 -6 -9 -7 -8 -8 -9 -7 0 0zm-888 -904l896 896 -8 8 -895 -896 0 -8 7 0zm-7 8l-4 -4 4 -4 0 8z"/>
    <path id="1" class="fil3" d="M2530 3092l512 -512 895 896c85,84 85,222 0,307l-204 205c-85,84 -223,84 -308,0l-895 -896z"/>
   </g>
   <g>
    <path class="fil1" d="M2887 1199l-202 202 0 0 -36 -34 -36 -31 -38 -29 -39 -27 -39 -25 -41 -23 -41 -20 -43 -19 -42 -16 -44 -14 -44 -12 -44 -10 -45 -7 -45 -5 -45 -4 -46 -1 -45 1 -45 4 -45 5 -45 7 -45 10 -44 12 -43 14 -43 16 -42 19 -42 20 -40 23 -40 25 -38 26 -38 30 -37 31 -35 33 -201 -201 46 -43 47 -41 49 -38 51 -35 51 -33 53 -29 54 -27 56 -24 55 -21 57 -18 58 -16 57 -12 59 -10 58 -7 59 -4 59 -2 59 2 59 4 58 7 59 10 57 12 58 16 56 18 56 21 55 24 54 27 53 29 52 33 50 35 49 38 48 40 46 44 0 0zm-1 1738l-201 -202 0 0 34 -35 31 -36 29 -38 27 -39 25 -39 22 -41 21 -41 18 -43 16 -42 14 -44 12 -44 10 -44 8 -45 5 -45 3 -45 1 -46 -1 -45 -3 -45 -5 -45 -8 -45 -10 -45 -12 -44 -14 -43 -16 -43 -18 -42 -21 -42 -22 -40 -25 -40 -27 -39 -29 -37 -32 -37 -33 -35 202 -202 43 46 41 47 38 49 35 50 32 52 30 53 26 54 24 55 21 56 19 57 15 57 13 58 10 58 7 59 4 59 1 59 -1 58 -4 59 -7 59 -10 58 -13 58 -15 57 -19 57 -21 56 -24 55 -26 54 -30 53 -32 52 -35 50 -38 49 -41 48 -44 46 0 0zm-1737 0l201 -202 0 0 36 34 36 31 38 29 39 27 39 25 41 23 41 20 43 19 43 16 43 14 44 12 45 9 44 8 45 5 46 4 45 1 45 -1 46 -4 45 -5 44 -8 45 -9 44 -12 43 -14 43 -16 42 -19 42 -20 40 -23 40 -25 39 -27 37 -29 37 -31 35 -34 201 202 -45 43 -48 41 -49 38 -50 35 -52 32 -53 30 -54 27 -55 24 -56 21 -57 18 -57 16 -58 12 -58 10 -59 7 -59 4 -59 2 -59 -2 -59 -4 -58 -7 -58 -10 -58 -12 -58 -16 -56 -18 -56 -21 -55 -24 -54 -27 -53 -29 -52 -33 -50 -35 -49 -38 -48 -41 -45 -43 0 0zm0 -1738l201 201 0 0 -33 36 -32 36 -29 38 -27 39 -25 39 -22 41 -21 41 -18 42 -16 43 -14 44 -12 44 -10 44 -7 45 -6 45 -3 45 -1 46 1 45 3 45 6 45 7 45 10 44 12 44 14 44 16 43 18 42 21 42 22 40 25 40 27 39 29 37 32 37 33 35 -201 202 -44 -46 -41 -47 -38 -49 -35 -51 -32 -51 -30 -53 -26 -54 -24 -55 -21 -56 -19 -57 -15 -57 -13 -58 -10 -58 -7 -59 -4 -59 -1 -59 1 -59 4 -58 7 -59 10 -58 13 -58 15 -57 19 -57 21 -56 24 -55 26 -54 30 -53 32 -52 36 -51 38 -49 40 -47 44 -46 0 0z"/>
   </g>
   <g>
    <path class="fil2" d="M2887 1199l-202 202 0 0 -36 -34 -36 -31 -38 -29 -39 -27 -39 -25 -41 -23 -41 -20 -43 -19 -42 -16 -44 -14 -44 -12 -44 -10 -45 -7 -45 -5 -45 -4 -46 -1 -45 1 -45 4 -45 5 -45 7 -45 10 -44 12 -43 14 -43 16 -42 19 -42 20 -40 23 -40 25 -38 26 -38 30 -37 31 -35 33 -201 -201 46 -43 47 -41 49 -38 51 -35 51 -33 53 -29 54 -27 56 -24 55 -21 57 -18 58 -16 57 -12 59 -10 58 -7 59 -4 59 -2 59 2 59 4 58 7 59 10 57 12 58 16 56 18 56 21 55 24 54 27 53 29 52 33 50 35 49 38 48 40 46 44 0 0zm-1 1738l-201 -202 0 0 34 -35 31 -36 29 -38 27 -39 25 -39 22 -41 21 -41 18 -43 16 -42 14 -44 12 -44 10 -44 8 -45 5 -45 3 -45 1 -46 -1 -45 -3 -45 -5 -45 -8 -45 -10 -45 -12 -44 -14 -43 -16 -43 -18 -42 -21 -42 -22 -40 -25 -40 -27 -39 -29 -37 -32 -37 -33 -35 202 -202 43 46 41 47 38 49 35 50 32 52 30 53 26 54 24 55 21 56 19 57 15 57 13 58 10 58 7 59 4 59 1 59 -1 58 -4 59 -7 59 -10 58 -13 58 -15 57 -19 57 -21 56 -24 55 -26 54 -30 53 -32 52 -35 50 -38 49 -41 48 -44 46 0 0zm-1737 0l201 -202 0 0 36 34 36 31 38 29 39 27 39 25 41 23 41 20 43 19 43 16 43 14 44 12 45 9 44 8 45 5 46 4 45 1 45 -1 46 -4 45 -5 44 -8 45 -9 44 -12 43 -14 43 -16 42 -19 42 -20 40 -23 40 -25 39 -27 37 -29 37 -31 35 -34 201 202 -45 43 -48 41 -49 38 -50 35 -52 32 -53 30 -54 27 -55 24 -56 21 -57 18 -57 16 -58 12 -58 10 -59 7 -59 4 -59 2 -59 -2 -59 -4 -58 -7 -58 -10 -58 -12 -58 -16 -56 -18 -56 -21 -55 -24 -54 -27 -53 -29 -52 -33 -50 -35 -49 -38 -48 -41 -45 -43 0 0zm0 -1738l201 201 0 0 -33 36 -32 36 -29 38 -27 39 -25 39 -22 41 -21 41 -18 42 -16 43 -14 44 -12 44 -10 44 -7 45 -6 45 -3 45 -1 46 1 45 3 45 6 45 7 45 10 44 12 44 14 44 16 43 18 42 21 42 22 40 25 40 27 39 29 37 32 37 33 35 -201 202 -44 -46 -41 -47 -38 -49 -35 -51 -32 -51 -30 -53 -26 -54 -24 -55 -21 -56 -19 -57 -15 -57 -13 -58 -10 -58 -7 -59 -4 -59 -1 -59 1 -59 4 -58 7 -59 10 -58 13 -58 15 -57 19 -57 21 -56 24 -55 26 -54 30 -53 32 -52 36 -51 38 -49 40 -47 44 -46 0 0z"/>
   </g>
   <rect class="fil3 str1" x="1418" y="1927" width="1200" height="282" rx="70" ry="141"/>
  </g>
 </g>
</svg>
