<?xml version="1.0" encoding="UTF-8"?>
<!DOCTYPE svg PUBLIC "-//W3C//DTD SVG 1.1//EN" "http://www.w3.org/Graphics/SVG/1.1/DTD/svg11.dtd">
<!-- Creator: CorelDRAW X8 -->
<svg xmlns="http://www.w3.org/2000/svg" xml:space="preserve" width="50.5mm" height="50mm" version="1.1" style="shape-rendering:geometricPrecision; text-rendering:geometricPrecision; image-rendering:optimizeQuality; fill-rule:evenodd; clip-rule:evenodd"
viewBox="0 0 5050 5000"
 xmlns:xlink="http://www.w3.org/1999/xlink">
 <defs>
  <style type="text/css">
   <![CDATA[
    .str0 {stroke:#495C80;stroke-width:350;stroke-linecap:round;stroke-linejoin:round}
    .fil2 {fill:none}
    .fil1 {fill:#96989A}
    .fil0 {fill:#96989A;fill-rule:nonzero}
   ]]>
  </style>
 </defs>
 <g id="Capa_x0020_1">
  <metadata id="CorelCorpID_0Corel-Layer"/>
  <g>
   <path class="fil0" d="M3091 2537l-512 512 -7 -8 512 -512 7 0 0 8zm-7 -8l3 -4 4 4 -7 0zm895 903l-895 -895 7 -8 896 896 0 0 -8 7zm8 307l-8 -7 0 0 8 -8 7 -8 6 -9 6 -8 6 -9 5 -9 5 -10 4 -9 3 -10 3 -10 3 -9 2 -10 2 -11 1 -10 1 -10 0 -10 0 -10 -1 -10 -1 -10 -2 -11 -2 -10 -3 -9 -3 -10 -3 -10 -4 -9 -5 -10 -5 -9 -6 -9 -6 -8 -6 -9 -7 -8 -8 -8 8 -7 8 8 7 8 7 9 6 9 6 10 5 9 5 10 5 10 3 10 4 11 3 10 2 10 2 11 1 11 1 10 0 11 0 11 -1 10 -1 11 -2 11 -2 10 -3 10 -4 11 -3 10 -5 10 -5 10 -5 9 -6 10 -6 9 -7 9 -7 8 -8 8 0 0zm-213 198l205 -205 8 7 -205 205 -8 -7zm-307 7l8 -7 0 0 8 7 8 7 8 7 9 6 9 5 9 5 9 5 10 4 9 4 10 3 10 2 10 3 10 1 10 1 10 1 11 0 10 0 10 -1 10 -1 10 -1 10 -3 10 -2 10 -3 9 -4 10 -4 9 -5 9 -5 9 -5 9 -6 8 -7 9 -7 7 -7 8 7 -8 8 -9 7 -9 7 -9 7 -9 6 -10 5 -10 5 -10 4 -10 4 -10 3 -10 3 -11 2 -10 2 -11 1 -11 1 -10 0 -11 0 -11 -1 -10 -1 -11 -2 -10 -2 -11 -3 -10 -3 -10 -4 -10 -4 -10 -5 -10 -5 -9 -6 -9 -7 -9 -7 -9 -7 -8 -8 0 0zm-888 -903l896 896 -8 7 -895 -895 0 -8 7 0zm-7 8l-4 -4 4 -4 0 8z"/>
   <path id="1" class="fil1" d="M2575 3045l512 -512 896 895c85,85 85,223 0,308l-205 204c-84,85 -222,85 -307,0l-896 -895z"/>
  </g>
  <g>
   <path class="fil0" d="M2932 1152l-202 201 0 0 -35 -33 -36 -31 -38 -30 -39 -27 -39 -24 -41 -23 -42 -21 -42 -18 -43 -16 -43 -14 -44 -12 -45 -10 -44 -7 -46 -6 -45 -3 -45 -1 -45 1 -46 3 -45 6 -44 7 -45 10 -44 12 -43 14 -43 16 -42 18 -42 21 -40 22 -40 25 -39 27 -37 29 -37 32 -35 33 -201 -201 45 -44 48 -40 49 -38 50 -36 52 -32 53 -29 54 -27 55 -24 56 -21 57 -19 57 -15 58 -13 58 -9 59 -8 59 -4 59 -1 59 1 58 4 59 8 58 9 58 13 57 15 57 19 56 21 55 24 54 26 53 30 52 32 50 36 49 37 48 41 45 44 0 0zm0 1737l-201 -201 0 0 33 -35 32 -37 29 -37 27 -39 25 -40 22 -40 21 -42 18 -42 16 -43 14 -43 12 -44 10 -45 7 -44 6 -45 3 -46 1 -45 -1 -45 -3 -45 -6 -46 -7 -44 -10 -45 -12 -44 -14 -43 -16 -43 -18 -42 -21 -42 -23 -41 -24 -39 -27 -39 -30 -38 -31 -36 -34 -36 202 -201 44 45 41 48 37 49 36 50 32 52 29 53 27 54 24 55 21 56 19 57 15 57 13 58 9 58 7 59 5 58 1 59 -1 59 -5 59 -7 59 -9 58 -13 58 -16 57 -18 57 -21 56 -24 55 -27 54 -29 53 -33 52 -35 50 -38 49 -40 48 -44 45 0 0zm-1738 1l202 -202 0 0 35 33 37 32 38 29 38 27 40 25 41 22 41 21 42 18 43 16 44 15 44 11 44 10 45 8 45 5 45 3 46 1 45 -1 45 -3 45 -5 45 -8 44 -10 44 -11 44 -15 43 -16 42 -18 41 -20 41 -23 40 -25 38 -27 38 -29 36 -31 36 -34 201 201 -46 44 -47 41 -49 38 -51 35 -51 32 -53 30 -55 27 -55 23 -56 22 -56 18 -58 15 -57 13 -59 10 -58 7 -59 4 -59 1 -59 -1 -59 -4 -58 -7 -59 -10 -57 -13 -58 -15 -56 -18 -56 -22 -55 -23 -54 -27 -53 -30 -52 -32 -51 -35 -49 -38 -47 -41 -46 -43 0 0zm1 -1738l201 201 0 0 -34 36 -31 36 -29 38 -27 38 -25 40 -23 41 -20 41 -18 42 -17 43 -14 44 -11 43 -10 45 -8 45 -5 45 -3 45 -1 45 1 46 3 45 5 45 8 45 10 44 11 44 15 44 16 43 18 42 21 41 22 41 25 40 27 38 29 38 32 36 33 36 -202 202 -43 -46 -41 -47 -38 -49 -35 -51 -32 -52 -30 -53 -27 -54 -24 -55 -21 -56 -18 -56 -15 -58 -13 -57 -10 -59 -7 -58 -4 -59 -1 -59 1 -59 4 -59 7 -58 10 -59 13 -57 15 -58 18 -56 22 -56 23 -55 27 -55 30 -53 32 -51 35 -51 38 -49 41 -47 44 -46 0 0z"/>
  </g>
  <g>
   <path class="fil2 str0" d="M4820 1944l0 2214c0,264 -216,480 -480,480l-4060 0c-28,0 -50,-23 -50,-50l0 -4309c0,-27 22,-50 50,-50l2702 0"/>
  </g>
 </g>
</svg>
