<svg id="Capa_1" data-name="Capa 1" xmlns="http://www.w3.org/2000/svg" xmlns:xlink="http://www.w3.org/1999/xlink" viewBox="0 0 127.33 178.58"><defs><style>.cls-1{fill:url(#Degradado_sin_nombre_9);}.cls-2{fill:url(#Degradado_sin_nombre_12);}.cls-3{fill:url(#Degradado_sin_nombre_12-2);}.cls-4{fill:url(#Degradado_sin_nombre_9-2);}</style><radialGradient id="Degradado_sin_nombre_9" cx="63.49" cy="135.89" r="100.35" gradientUnits="userSpaceOnUse"><stop offset="0" stop-color="#00b5e5"/><stop offset="0.5" stop-color="#0068a3"/><stop offset="1" stop-color="#293189"/></radialGradient><radialGradient id="Degradado_sin_nombre_12" cx="103.87" cy="32.87" r="79.13" gradientUnits="userSpaceOnUse"><stop offset="0" stop-color="#00b5e5"/><stop offset="0.49" stop-color="#0068a3"/><stop offset="1" stop-color="#293189"/></radialGradient><radialGradient id="Degradado_sin_nombre_12-2" cx="169.47" cy="3.2" r="103.54" gradientTransform="translate(-120.79 1.94) scale(1.12 1.05)" xlink:href="#Degradado_sin_nombre_12"/><radialGradient id="Degradado_sin_nombre_9-2" cx="9.1" cy="79.4" r="91.3" xlink:href="#Degradado_sin_nombre_9"/></defs><path class="cls-1" d="M127.49,90.35c-2.81-8.17-5.65-12.87-12-22l-21.37,1c-.15,7.85-.76,18.79-2,21.48l-2.8,9.5c-4.9,13.54-10.29,23.16-20.47,32.68-7.2,6.52-13.31,11-25.35,16.14l19.68,27.15c5.12,7.07,12.72,2.55,14.2,0,.89-1.53,8-11,9-12.43,13.89-19.23,35.62-49.45,35.62-49.45S131.89,103.14,127.49,90.35Z" transform="translate(-1.28 -1.57)"/><path class="cls-2" d="M103.48,10.31,84.57,46.15c-.79.05-6.52.05-9.76,0-6.42-.06-9.12.14-10.55.67C53.7,50,45.72,58.2,45.72,69.72c0,0-7.86-36.89,21.62-68.13C84.64,1.28,92.79,5,103.48,10.31Z" transform="translate(-1.28 -1.57)"/><path class="cls-3" d="M74.51,94.22c-7.27,2.39-21.5,2-26.36,1.53C20.71,93.34,1.6,73.57,1.6,73.57-.85,62.28,9.75,5.41,67.34,1.59c-28,29.37-21.77,68.1-21.77,68.1,0,12.61,10.3,23.34,21.67,24.39Z" transform="translate(-1.28 -1.57)"/><path class="cls-4" d="M62.67,94.93A72.56,72.56,0,0,1,28.22,90C18.31,87.56,1,73.06,1.43,72.63,2,90.47,13.88,108.5,17.18,113l26.26,36.2a78.59,78.59,0,0,0,45.22-45.89c3.5-9.33,7-24.49,5.41-33.91C92.16,94.94,69.05,94.26,62.67,94.93Z" transform="translate(-1.28 -1.57)"/></svg>