<?xml version="1.0" encoding="UTF-8"?>
<!DOCTYPE svg PUBLIC "-//W3C//DTD SVG 1.1//EN" "http://www.w3.org/Graphics/SVG/1.1/DTD/svg11.dtd">
<!-- Creator: CorelDRAW X8 -->
<svg xmlns="http://www.w3.org/2000/svg" xml:space="preserve" width="56.9mm" height="43.5mm" version="1.1" style="shape-rendering:geometricPrecision; text-rendering:geometricPrecision; image-rendering:optimizeQuality; fill-rule:evenodd; clip-rule:evenodd"
viewBox="0 0 5690 4350"
 xmlns:xlink="http://www.w3.org/1999/xlink">
 <defs>
  <style type="text/css">
   <![CDATA[
    .str0 {stroke:#FD2F33;stroke-width:50}
    .str1 {stroke:#747474;stroke-width:7.62}
    .str3 {stroke:white;stroke-width:400;stroke-linecap:round;stroke-linejoin:round}
    .str2 {stroke:white;stroke-width:400;stroke-linecap:round;stroke-linejoin:round}
    .str5 {stroke:#191919;stroke-width:172.53;stroke-linecap:round;stroke-linejoin:round}
    .str4 {stroke:#191919;stroke-width:172.53;stroke-linecap:round;stroke-linejoin:round}
    .fil3 {fill:none}
    .fil5 {fill:#191919}
    .fil0 {fill:#FD2F33}
    .fil4 {fill:#191919;fill-rule:nonzero}
    .fil1 {fill:#747474;fill-rule:nonzero}
    .fil2 {fill:#757474;fill-rule:nonzero}
   ]]>
  </style>
 </defs>
 <g id="Capa_x0020_1">
  <metadata id="CorelCorpID_0Corel-Layer"/>
  <path class="fil0 str0" d="M3820 1264c43,126 247,294 133,557 -37,85 -252,358 -314,445 -69,95 -140,195 -211,288 -74,97 -143,193 -215,292 -79,109 -81,129 -123,65 -83,-122 -231,-316 -320,-433 -193,-252 -476,-612 -602,-902 -111,-256 -88,-584 41,-815 109,-195 298,-381 529,-476 222,-91 645,-140 836,20l-252 474c-283,5 -377,1 -534,164 -120,123 -139,362 -32,523 191,287 624,254 770,-52 24,-48 24,-83 42,-129l252 -21zm-79 -1016c-65,-30 -118,-66 -196,-97 -230,-90 -502,-104 -737,-29 -597,190 -984,839 -781,1424 89,257 295,540 432,723 166,222 333,440 498,666 10,14 22,26 31,43 23,42 45,86 125,95 100,12 133,-63 171,-116l723 -1007c46,-66 71,-103 94,-200 55,-238 -104,-428 -226,-617l-723 56 8 150 265 -26c2,0 -1,12 -2,14 -18,64 -56,125 -140,172 -133,75 -277,40 -369,-40 -80,-69 -137,-232 -75,-369 105,-238 351,-170 558,-185l344 -657z"/>
  <path class="fil1 str1" d="M75 82l287 0 0 2030 -287 0 0 -2030zm394 1310c0,-101 18,-195 56,-282 38,-87 89,-164 155,-229 66,-66 143,-117 231,-155 88,-38 182,-57 281,-57 101,0 195,19 282,57 87,38 164,89 231,155 67,65 119,142 156,229 38,87 57,181 57,282 0,99 -19,193 -57,281 -37,89 -89,166 -156,233 -67,66 -144,119 -231,156 -87,38 -181,57 -282,57 -99,0 -193,-19 -281,-57 -88,-37 -165,-90 -231,-156 -66,-67 -117,-144 -155,-233 -38,-88 -56,-182 -56,-281zm284 0c0,61 11,118 34,172 22,53 53,100 93,140 40,40 87,71 141,94 53,22 110,33 171,33 60,0 117,-11 171,-33 54,-23 100,-54 140,-94 40,-40 71,-87 94,-140 22,-54 34,-111 34,-172 0,-60 -12,-116 -34,-169 -23,-53 -54,-99 -94,-139 -40,-40 -86,-71 -140,-93 -54,-23 -111,-34 -171,-34 -61,0 -118,11 -171,34 -54,22 -101,53 -141,93 -40,40 -71,86 -93,139 -23,53 -34,109 -34,169z"/>
  <path class="fil2 str1" d="M4166 1392c0,-101 19,-195 56,-282 38,-87 90,-164 155,-229 66,-66 143,-117 231,-155 88,-38 182,-57 281,-57 101,0 195,19 282,57 88,38 164,89 231,155 67,65 119,142 157,229 37,87 56,181 56,282 0,99 -19,193 -56,281 -38,89 -90,166 -157,233 -67,66 -143,119 -231,156 -87,38 -181,57 -282,57 -99,0 -193,-19 -281,-57 -88,-37 -165,-90 -231,-156 -65,-67 -117,-144 -155,-233 -37,-88 -56,-182 -56,-281zm284 0c0,61 11,118 34,172 22,53 54,100 93,140 40,40 87,71 141,94 54,22 111,33 171,33 60,0 117,-11 171,-33 54,-23 101,-54 140,-94 40,-40 71,-87 94,-140 23,-54 34,-111 34,-172 0,-60 -11,-116 -34,-169 -23,-53 -54,-99 -94,-139 -39,-40 -86,-71 -140,-93 -54,-23 -111,-34 -171,-34 -60,0 -117,11 -171,34 -54,22 -101,53 -141,93 -39,40 -71,86 -93,139 -23,53 -34,109 -34,169z"/>
  <g>
   <path class="fil3 str2" d="M4546 2494l-198 -350c-6,-12 -18,-20 -32,-20l-228 0 -228 0c-14,0 -27,8 -32,20l-198 350"/>
  </g>
  <g>
   <path class="fil3 str3" d="M3630 2494l-285 0c-128,0 -203,106 -203,202l0 1218c0,73 62,203 203,203l1938 0c88,0 203,-59 203,-203l0 -1218c0,-131 -110,-202 -203,-202l-945 0"/>
  </g>
  <g>
   <path class="fil4" d="M3836 3305l0 0 1 -24 1 -25 3 -24 5 -23 5 -23 6 -23 8 -22 9 -22 9 -21 11 -21 11 -20 13 -20 13 -18 14 -18 15 -18 16 -16 17 -16 17 -15 18 -14 19 -14 19 -12 20 -12 21 -10 21 -10 22 -8 22 -8 23 -6 23 -6 23 -4 24 -3 24 -2 25 0 0 172 -16 1 -16 1 -15 2 -15 2 -15 4 -14 4 -15 5 -13 5 -14 6 -13 7 -13 8 -13 8 -12 8 -11 9 -11 10 -11 10 -10 11 -10 11 -9 11 -8 12 -8 13 -8 13 -6 13 -7 13 -5 14 -5 14 -4 15 -3 15 -3 15 -2 15 -1 15 -1 16 0 0 -171 0zm478 479l0 0 -25 -1 -24 -2 -24 -3 -23 -4 -23 -5 -23 -7 -22 -7 -22 -9 -21 -9 -21 -11 -20 -11 -19 -13 -19 -13 -18 -14 -17 -15 -17 -16 -16 -17 -15 -17 -14 -18 -13 -19 -13 -19 -11 -20 -11 -21 -9 -21 -9 -22 -8 -22 -6 -23 -5 -23 -5 -24 -3 -24 -1 -24 -1 -25 171 0 1 16 1 16 2 15 3 15 3 15 4 14 5 14 5 14 7 14 6 13 8 13 8 12 8 12 9 12 10 11 10 10 11 11 11 9 11 9 12 9 13 8 13 7 13 7 14 6 13 6 15 4 14 5 15 3 15 3 15 2 16 1 16 0 0 0 0 173zm478 -479l0 0 -1 25 -1 24 -3 24 -5 24 -5 23 -6 23 -8 22 -9 22 -9 21 -11 21 -11 20 -13 19 -13 19 -14 18 -15 17 -16 17 -17 16 -17 15 -18 14 -19 13 -19 13 -20 11 -21 11 -21 9 -22 9 -22 7 -23 7 -23 5 -23 4 -24 3 -25 2 -24 1 0 -173 16 0 15 -1 16 -2 15 -3 15 -3 14 -5 15 -4 13 -6 14 -6 13 -7 13 -7 12 -8 13 -9 11 -9 11 -9 11 -11 10 -10 10 -11 9 -12 8 -12 8 -12 8 -13 6 -13 7 -14 5 -14 5 -14 4 -14 3 -15 3 -15 2 -15 1 -16 0 -16 0 0 172 0zm-478 -478l0 0 24 0 25 2 24 3 23 4 23 6 23 6 22 8 22 8 21 10 21 10 20 12 19 12 19 14 18 14 17 15 17 16 16 16 15 18 14 18 13 18 13 20 11 20 11 21 9 21 9 22 8 22 6 23 5 23 5 23 3 24 1 25 1 24 -172 0 0 -16 -1 -15 -2 -15 -3 -15 -3 -15 -4 -15 -5 -14 -5 -14 -7 -13 -6 -13 -8 -13 -8 -13 -8 -12 -9 -11 -10 -11 -10 -11 -11 -10 -11 -10 -11 -9 -13 -8 -12 -8 -13 -8 -13 -7 -14 -6 -13 -5 -15 -5 -14 -4 -15 -4 -15 -2 -16 -2 -15 -1 -16 -1 0 0 0 -172z"/>
  </g>
  <g>
   <path class="fil4" d="M3458 2841l0 0 1 -7 0 -7 1 -7 1 -7 2 -7 2 -7 2 -6 2 -7 3 -6 3 -6 4 -6 3 -5 4 -6 4 -5 5 -5 4 -5 5 -4 5 -5 5 -4 6 -4 6 -4 5 -3 6 -3 7 -3 6 -2 6 -2 7 -2 7 -2 6 -1 8 -1 7 0 6 -1 0 173 2 0 2 0 1 0 2 -1 1 0 2 0 2 -1 1 -1 2 0 1 -1 1 -1 2 -1 1 -1 1 0 1 -2 1 -1 1 -1 1 -1 1 -1 1 -1 1 -2 1 -1 1 -2 0 -1 1 -1 1 -2 0 -2 0 -1 1 -2 0 -2 0 -1 0 -2 0 0 -172 0zm139 139l0 0 -7 0 -6 0 -7 -1 -7 -1 -7 -2 -7 -2 -6 -2 -6 -2 -7 -3 -6 -3 -5 -4 -6 -3 -5 -4 -6 -4 -5 -5 -5 -4 -4 -5 -5 -5 -4 -5 -4 -6 -3 -6 -4 -5 -3 -6 -3 -7 -2 -6 -2 -7 -2 -6 -2 -7 -1 -7 -1 -7 0 -7 -1 -7 172 0 0 -2 0 -1 0 -2 -1 -2 0 -1 0 -2 -1 -2 -1 -1 0 -2 -1 -1 -1 -1 -1 -2 -1 -1 -1 -1 -1 -1 -1 -2 -1 -1 -1 -1 -1 -1 -1 0 -2 -1 -1 -1 -2 -1 -1 -1 -1 0 -2 -1 -2 0 -1 0 -2 -1 -1 0 -2 0 -2 0 0 0 0 172zm140 -139l0 0 -1 7 0 7 -1 7 -1 7 -2 7 -2 6 -2 7 -2 6 -3 7 -3 6 -4 5 -3 6 -4 6 -4 5 -5 5 -4 5 -5 4 -5 5 -6 4 -5 4 -5 3 -6 4 -6 3 -7 3 -6 2 -6 2 -7 2 -7 2 -7 1 -7 1 -6 0 -8 0 0 -172 -1 0 -2 0 -1 0 -2 1 -1 0 -2 0 -2 1 -1 0 -1 1 -2 1 -1 1 -2 0 -1 1 -1 1 -1 1 -1 1 -1 2 -1 1 -1 1 -1 1 -1 2 -1 1 -1 1 0 2 -1 1 -1 2 0 2 0 1 -1 2 0 2 0 1 0 2 0 0 172 0zm-140 -140l0 0 7 1 7 0 8 1 6 1 7 2 7 2 6 2 6 2 7 3 6 3 5 3 6 4 6 4 5 4 5 5 5 4 4 5 5 5 4 5 4 6 3 5 4 6 3 6 3 6 2 7 2 6 2 7 2 7 1 7 1 7 0 7 1 7 -172 0 0 1 0 2 0 2 1 2 0 1 0 2 1 1 1 2 0 2 1 1 1 1 1 2 1 1 1 1 1 1 1 1 1 1 1 2 1 0 1 1 2 1 1 1 1 1 2 0 1 1 2 1 2 0 1 0 2 1 1 0 2 0 1 0 0 0 0 -173z"/>
   <path id="1" class="fil5" d="M3597 2788c-29,0 -53,24 -53,53 0,29 24,53 53,53 30,0 54,-24 54,-53 0,-29 -24,-53 -54,-53z"/>
  </g>
  <g>
   <path class="fil3 str4" d="M4546 2494l-198 -350c-6,-12 -18,-20 -32,-20l-228 0 -228 0c-14,0 -27,8 -32,20l-198 350"/>
  </g>
  <g>
   <path class="fil3 str5" d="M3630 2494l-285 0c-128,0 -203,106 -203,202l0 1218c0,73 62,203 203,203l1938 0c88,0 203,-59 203,-203l0 -1218c0,-131 -110,-202 -203,-202l-945 0"/>
  </g>
 </g>
</svg>
