<?xml version="1.0" encoding="UTF-8"?>
<!DOCTYPE svg PUBLIC "-//W3C//DTD SVG 1.1//EN" "http://www.w3.org/Graphics/SVG/1.1/DTD/svg11.dtd">
<!-- Creator: CorelDRAW X8 -->
<svg xmlns="http://www.w3.org/2000/svg" xml:space="preserve" width="215.9mm" height="279.4mm" version="1.1" style="shape-rendering:geometricPrecision; text-rendering:geometricPrecision; image-rendering:optimizeQuality; fill-rule:evenodd; clip-rule:evenodd"
viewBox="0 0 21590 27940"
 xmlns:xlink="http://www.w3.org/1999/xlink">
 <defs>
  <style type="text/css">
   <![CDATA[
    .str0 {stroke:#FFF212;stroke-width:20}
    .str3 {stroke:#201E1E;stroke-width:200;stroke-linecap:round;stroke-linejoin:round}
    .str2 {stroke:#201E1E;stroke-width:200;stroke-linecap:round;stroke-linejoin:round}
    .str1 {stroke:#201E1E;stroke-width:20;stroke-linecap:round;stroke-linejoin:round}
    .fil5 {fill:none}
    .fil3 {fill:#373435}
    .fil0 {fill:#FFF212}
    .fil4 {fill:#201E1E}
    .fil2 {fill:#201E1E;fill-rule:nonzero}
    .fil1 {fill:#201E1E;fill-rule:nonzero}
   ]]>
  </style>
 </defs>
 <g id="Capa_x0020_1">
  <metadata id="CorelCorpID_0Corel-Layer"/>
  <polygon class="fil0 str0" points="2070,11799 2140,12032 2062,12274 2358,12702 3542,12063 3175,11633 2911,11339 2615,11353 2184,11571 "/>
  <path class="fil1" d="M7403 16800c-118,0 -227,-17 -325,-51 -98,-34 -175,-80 -229,-138l159 -240c60,47 122,81 187,101 65,20 124,30 178,30 54,0 96,-8 126,-24 29,-16 44,-36 44,-59 0,-30 -18,-52 -53,-68 -35,-16 -93,-34 -171,-54 -97,-25 -177,-50 -240,-76 -64,-26 -119,-66 -166,-121 -47,-54 -71,-126 -71,-216 0,-117 48,-208 142,-270 95,-63 216,-95 365,-95 116,0 220,17 310,50 91,34 164,80 219,139l-155 245c-61,-47 -123,-81 -186,-102 -62,-21 -120,-32 -172,-32 -90,0 -135,28 -135,83 0,31 18,54 53,70 36,16 93,33 173,52 96,22 175,46 238,70 64,25 119,65 166,119 47,55 71,129 71,222 0,77 -24,144 -72,199 -47,55 -111,97 -191,124 -80,28 -168,42 -265,42z"/>
  <polygon id="1" class="fil1" points="8296,15546 8737,15546 9012,16137 9287,15546 9728,15546 9728,16781 9340,16781 9340,16242 9102,16751 8922,16751 8684,16242 8684,16781 8296,16781 "/>
  <path id="2" class="fil1" d="M10531 15546l458 0 457 1235 -388 0 -70 -205 -456 0 -68 205 -389 0 456 -1235zm358 739l-129 -378 -127 378 256 0z"/>
  <path id="3" class="fil1" d="M11758 15546l567 0c117,0 215,20 294,60 79,40 137,92 174,156 37,64 55,133 55,209 0,69 -15,134 -46,196 -31,61 -78,111 -141,150l249 464 -402 0 -182 -380 -180 0 0 380 -388 0 0 -1235zm567 538c41,0 73,-11 97,-32 25,-21 37,-48 37,-81 0,-32 -12,-58 -37,-78 -24,-20 -56,-30 -97,-30l-179 0 0 221 179 0z"/>
  <polygon id="4" class="fil1" points="13464,15863 13152,15863 13152,15546 14166,15546 14166,15863 13852,15863 13852,16781 13464,16781 "/>
  <path class="fil1" d="M15522 16235c0,-15 3,-25 9,-30 6,-6 16,-8 30,-8l99 0c14,0 24,2 30,8 6,5 9,15 9,30l0 404c0,15 -2,25 -6,32 -4,7 -13,14 -26,20 -138,72 -290,109 -459,109 -114,0 -218,-26 -314,-79 -95,-52 -171,-126 -227,-221 -57,-95 -85,-205 -85,-328 0,-127 29,-240 87,-338 57,-98 135,-174 234,-228 99,-53 208,-80 328,-80 84,0 164,13 240,40 77,26 143,60 200,101 15,11 23,21 23,32 0,5 -5,14 -13,27l-49 70c-8,12 -18,18 -28,18 -9,0 -18,-4 -29,-11 -113,-73 -228,-109 -347,-109 -90,0 -170,20 -240,60 -71,40 -125,96 -164,167 -39,72 -58,153 -58,244 0,92 20,173 60,245 41,72 96,127 164,166 69,39 145,58 229,58 111,0 203,-17 279,-51 10,-5 17,-9 20,-13 3,-4 4,-11 4,-21l0 -314z"/>
  <path id="1" class="fil1" d="M16263 15584c0,-15 3,-25 9,-30 6,-6 16,-8 30,-8l667 0c14,0 24,2 30,8 6,5 9,15 9,30l0 90c0,16 -3,26 -9,31 -6,6 -16,8 -30,8l-508 0c-8,0 -14,2 -17,5 -3,3 -4,8 -4,15l0 322c0,9 1,14 4,17 3,3 9,5 17,5l448 0c14,0 24,2 30,8 6,5 9,15 9,30l0 89c0,14 -3,24 -9,30 -6,6 -16,8 -30,8l-448 0c-8,0 -14,2 -17,5 -3,3 -4,8 -4,15l0 332c0,7 1,12 4,15 3,2 9,4 17,4l510 0c14,0 24,3 30,8 6,5 9,15 9,31l0 90c0,15 -3,25 -9,31 -6,5 -16,8 -30,8l-669 0c-14,0 -24,-3 -30,-8 -6,-6 -9,-16 -9,-31l0 -1158z"/>
  <path id="2" class="fil1" d="M17495 16514c9,-13 18,-19 26,-19 6,0 15,4 27,14 107,83 214,125 323,125 54,0 101,-8 141,-23 40,-15 71,-37 92,-66 22,-29 33,-62 33,-100 0,-36 -9,-66 -26,-90 -18,-23 -47,-43 -86,-61 -39,-17 -95,-34 -167,-53 -84,-21 -154,-46 -209,-74 -54,-29 -97,-65 -127,-111 -30,-45 -45,-102 -45,-170 0,-74 18,-138 55,-192 36,-54 86,-96 149,-125 63,-28 134,-43 213,-43 148,0 282,47 402,140 6,4 10,9 13,13 3,4 4,8 4,13 0,4 -1,8 -3,12 -2,5 -5,10 -9,16l-51 76c-5,7 -9,12 -13,15 -4,3 -9,5 -14,5 -8,0 -18,-5 -30,-13 -47,-34 -95,-61 -144,-81 -50,-20 -102,-30 -157,-30 -45,0 -85,7 -119,22 -35,15 -62,36 -81,64 -20,27 -30,60 -30,97 0,38 10,69 30,94 19,25 48,45 86,62 38,16 90,33 156,49 91,24 164,50 220,80 56,29 97,66 125,110 28,44 41,98 41,163 0,73 -19,137 -58,193 -39,56 -92,99 -160,129 -68,30 -147,45 -235,45 -80,0 -155,-14 -225,-41 -70,-27 -134,-64 -193,-111 -13,-12 -19,-22 -19,-30 0,-8 4,-18 12,-30l53 -74z"/>
  <path id="3" class="fil1" d="M19136 15733c0,-7 -2,-12 -5,-15 -3,-3 -8,-5 -17,-5l-331 0c-14,0 -24,-2 -30,-8 -6,-5 -9,-15 -9,-31l0 -90c0,-15 3,-25 9,-30 6,-6 16,-8 30,-8l882 0c14,0 24,2 30,8 6,5 9,15 9,30l0 90c0,16 -3,26 -9,31 -6,6 -16,8 -30,8l-332 0c-8,0 -14,2 -17,5 -3,3 -4,8 -4,15l0 1009c0,15 -3,25 -9,31 -6,5 -16,8 -30,8l-99 0c-14,0 -24,-3 -30,-8 -5,-6 -8,-16 -8,-31l0 -1009z"/>
  <g>
   <path class="fil2" d="M2724 13197c-66,70 -177,74 -247,8 -71,-65 -75,-176 -9,-247l256 239zm1433 -973l0 350 0 0 -51 0 -51 2 -50 4 -51 4 -50 6 -50 7 -49 8 -49 10 -49 11 -49 12 -48 13 -48 15 -47 16 -47 17 -46 18 -46 19 -46 21 -45 21 -44 23 -44 24 -43 25 -43 26 -42 27 -41 29 -41 29 -40 31 -39 31 -38 33 -38 33 -37 35 -36 36 -35 37 -256 -239 41 -43 43 -42 43 -41 45 -40 45 -38 46 -37 47 -36 48 -35 49 -33 49 -32 50 -31 51 -30 52 -28 52 -27 53 -25 54 -24 54 -23 55 -22 55 -19 56 -19 56 -17 57 -16 57 -14 58 -13 58 -11 58 -10 59 -9 59 -7 59 -5 60 -4 60 -2 60 -1 0 0zm1688 734l-256 239 -35 -37 -36 -36 -37 -35 -37 -33 -39 -33 -39 -31 -40 -31 -41 -29 -41 -29 -42 -27 -42 -26 -44 -25 -44 -24 -44 -23 -45 -21 -45 -21 -46 -19 -47 -18 -47 -17 -47 -16 -48 -15 -48 -13 -49 -12 -48 -11 -50 -10 -49 -8 -50 -7 -50 -6 -50 -4 -51 -4 -51 -2 -50 0 0 -350 60 1 59 2 60 4 59 5 59 7 59 9 58 10 58 11 58 13 57 14 57 16 56 17 56 19 55 19 55 22 54 23 54 24 53 25 52 27 52 28 51 30 50 31 50 32 48 33 48 35 47 36 46 37 46 38 44 40 43 41 43 42 41 43zm0 0c66,71 62,182 -9,247 -70,66 -181,62 -247,-8l256 -239z"/>
  </g>
  <g>
   <path class="fil2" d="M3170 13708c-62,74 -172,84 -246,23 -75,-62 -85,-173 -23,-247l269 224zm987 -811l0 350 0 0 -36 0 -36 2 -35 2 -35 4 -35 4 -35 5 -35 7 -34 7 -34 8 -34 9 -33 10 -34 11 -32 12 -33 12 -32 14 -32 14 -31 15 -31 16 -31 17 -30 18 -29 18 -30 20 -28 20 -28 21 -28 22 -27 22 -26 23 -26 24 -25 25 -25 26 -24 26 -23 27 -269 -224 30 -34 30 -34 32 -32 32 -32 32 -30 34 -30 34 -29 35 -27 36 -27 37 -26 37 -24 37 -24 39 -22 38 -22 40 -20 40 -20 40 -18 41 -17 41 -16 42 -15 43 -14 42 -12 43 -12 44 -10 43 -9 44 -8 45 -7 44 -6 45 -4 45 -3 45 -2 46 -1 0 0zm1251 583l-268 225 -23 -27 -24 -26 -24 -25 -26 -25 -25 -24 -27 -23 -27 -23 -27 -21 -28 -21 -29 -20 -29 -19 -29 -19 -30 -17 -31 -17 -31 -16 -31 -15 -32 -14 -32 -14 -32 -12 -33 -12 -33 -10 -33 -10 -34 -9 -34 -8 -34 -7 -35 -7 -34 -5 -35 -4 -35 -4 -35 -2 -36 -2 -35 0 0 -350 45 1 45 2 45 3 44 4 45 6 44 7 44 7 43 10 43 10 43 11 43 13 42 13 42 15 41 16 41 17 40 18 40 19 39 21 39 21 38 22 38 24 37 24 36 26 36 26 34 28 35 28 33 30 33 30 32 31 31 33 31 33 29 34zm0 0c62,74 53,184 -21,246 -74,62 -185,53 -247,-21l268 -225z"/>
  </g>
  <g>
   <path class="fil2" d="M3630 14240c-63,73 -173,82 -246,19 -74,-63 -82,-174 -19,-247l265 228zm527 -591l0 349 0 0 -19 1 -19 0 -19 2 -19 1 -18 3 -19 3 -18 3 -18 4 -18 4 -18 5 -18 5 -18 5 -17 7 -18 6 -17 7 -17 8 -17 8 -16 8 -16 9 -16 9 -16 10 -16 10 -15 11 -15 11 -15 11 -14 12 -15 12 -13 13 -14 13 -13 13 -13 14 -13 14 -265 -228 19 -21 19 -21 20 -20 20 -20 21 -19 21 -18 22 -18 22 -17 23 -16 23 -16 23 -16 24 -14 24 -14 25 -13 25 -13 25 -12 25 -11 26 -11 26 -10 27 -9 26 -9 27 -7 27 -7 27 -7 28 -5 28 -5 27 -5 28 -3 29 -3 28 -2 28 -1 29 0 0 0zm787 358l-264 230 -12 -14 -13 -14 -14 -13 -13 -13 -14 -12 -14 -12 -14 -12 -15 -11 -15 -11 -15 -11 -16 -10 -16 -9 -16 -9 -16 -9 -16 -8 -17 -8 -17 -8 -17 -7 -17 -6 -17 -6 -18 -6 -18 -5 -17 -4 -18 -5 -19 -3 -18 -4 -18 -2 -19 -3 -18 -1 -19 -2 -19 0 -18 -1 0 -349 28 0 28 1 28 2 28 3 28 3 27 4 28 5 27 6 27 6 27 7 27 8 26 8 27 9 25 10 26 11 25 11 25 12 25 12 25 13 24 14 23 14 24 15 22 16 23 16 22 17 22 18 21 18 21 19 20 19 20 20 19 20 19 21zm0 0c64,73 56,184 -17,247 -73,63 -183,56 -247,-17l264 -230z"/>
  </g>
  <path class="fil3" d="M2060 11500l517 -300c166,-96 381,-39 478,127l62 107 3 -1 273 72 317 546 0 0c30,88 -6,188 -89,237 -84,48 -188,29 -250,-40l-796 461c30,88 -6,188 -89,237 -84,48 -188,29 -250,-40l0 0 -317 -546 73 -273 3 -2 -62 -107c-96,-167 -39,-382 127,-478zm149 182l452 -262c77,-44 177,-18 222,59l29 50 -733 425 -28 -50c-45,-77 -19,-177 58,-222zm-70 552l1036 -601 197 339 -1037 601 -196 -339z"/>
  <g>
   <path class="fil2" d="M2890 11895l-382 222 -10 -17 382 -222 14 4 -4 13zm-10 -17c5,-3 11,-1 14,4 3,5 1,11 -4,13l-10 -17zm101 193l-104 -179 17 -10 104 179 -3 14 -14 -4zm17 -10c3,5 1,11 -3,14 -5,3 -11,1 -14,-4l17 -10zm-396 218l382 -221 11 17 -383 222 -13 -4 3 -14zm10 18c-4,3 -11,1 -13,-4 -3,-5 -2,-11 3,-14l10 18zm-100 -193l104 179 -17 10 -105 -179 4 -14 14 4zm-18 10c-2,-5 -1,-11 4,-14 5,-3 11,-1 14,4l-18 10z"/>
   <polygon id="1" class="fil3" points="2503,12109 2885,11887 2990,12066 2607,12288 "/>
  </g>
  <g>
   <path class="fil2" d="M2478 12243l-18 10 0 0 -2 -4 -3 -3 -3 -4 -2 -3 -3 -4 -4 -3 -3 -3 -3 -2 -4 -3 -4 -2 -3 -2 -4 -2 -4 -2 -4 -2 -4 -1 -4 -1 -5 -1 -4 -1 -4 -1 -5 0 -4 0 -4 0 -5 0 -4 0 -4 1 -5 1 -4 1 -4 1 -4 2 -5 1 -4 2 -4 3 -10 -18 5 -2 5 -3 5 -2 5 -2 6 -1 5 -2 5 -1 6 -1 5 0 5 0 6 0 5 0 5 0 5 1 6 1 5 1 5 2 5 1 5 2 4 3 5 2 5 3 4 3 5 3 4 3 4 4 4 3 3 4 4 5 3 4 4 5 3 4 0 0zm-40 151l-10 -18 0 0 4 -2 3 -3 4 -2 3 -3 4 -3 3 -4 3 -3 2 -3 3 -4 2 -4 2 -3 2 -4 2 -4 2 -4 1 -4 1 -4 1 -5 1 -4 1 -4 0 -4 0 -5 0 -4 0 -4 0 -5 -1 -4 -1 -4 -1 -5 -1 -4 -2 -4 -2 -4 -2 -5 -2 -4 18 -10 2 5 3 5 2 5 2 6 1 5 2 5 1 5 1 6 0 5 0 5 0 6 0 5 0 5 -1 5 -1 6 -1 5 -2 5 -1 5 -2 5 -3 5 -2 4 -3 5 -3 4 -3 5 -3 4 -4 4 -3 4 -4 4 -5 3 -4 4 -5 3 -4 3 0 0zm-151 -40l18 -10 0 0 2 4 3 3 2 4 3 3 3 4 3 3 4 3 3 2 4 3 3 2 4 3 4 1 4 2 4 2 4 1 4 2 4 1 5 0 4 1 4 0 5 1 4 0 4 -1 5 0 4 -1 4 -1 5 -1 4 -1 4 -2 4 -1 4 -2 5 -3 10 18 -5 2 -5 3 -6 2 -5 2 -5 1 -5 2 -5 1 -6 1 -5 0 -5 0 -6 1 -5 -1 -5 0 -6 -1 -5 -1 -5 -1 -5 -2 -5 -1 -5 -2 -5 -3 -4 -2 -5 -3 -4 -2 -5 -4 -4 -3 -4 -3 -4 -4 -4 -4 -3 -4 -4 -5 -3 -4 -3 -5 0 0zm40 -151l10 18 0 0 -4 2 -3 3 -4 2 -4 3 -3 3 -3 4 -3 3 -3 3 -2 4 -2 4 -3 3 -2 4 -1 4 -2 4 -1 4 -2 4 -1 5 0 4 -1 4 0 4 -1 5 0 4 1 5 0 4 1 4 1 5 1 4 1 4 2 4 1 4 2 5 3 4 -18 10 -2 -5 -3 -5 -2 -5 -2 -6 -2 -5 -1 -5 -1 -5 -1 -6 0 -5 -1 -5 0 -6 1 -5 0 -5 1 -5 1 -6 1 -5 2 -5 1 -5 2 -5 2 -5 3 -4 3 -5 2 -4 4 -5 3 -4 3 -4 4 -4 4 -4 4 -3 5 -3 4 -4 5 -3 0 0z"/>
   <path id="1" class="fil3" d="M2332 12212c48,-28 109,-11 137,36 28,48 11,109 -36,137 -48,28 -109,11 -137,-36 -28,-48 -12,-109 36,-137z"/>
  </g>
  <g>
   <path class="fil2" d="M3015 11932l0 0 -3 -5 -2 -5 -2 -5 -2 -6 -2 -5 -1 -5 -1 -5 -1 -6 -1 -5 0 -5 0 -6 0 -5 1 -5 1 -6 1 -5 1 -5 1 -5 2 -5 2 -5 2 -5 3 -4 2 -5 3 -4 3 -5 4 -4 3 -4 4 -4 4 -4 4 -3 5 -4 4 -3 5 -3 10 18 -4 2 -4 3 -3 2 -4 3 -3 3 -3 4 -3 3 -3 3 -2 4 -3 4 -2 3 -2 4 -2 4 -1 4 -2 4 -1 4 -1 5 -1 4 0 4 -1 4 0 5 0 4 0 4 1 5 0 4 1 4 1 5 2 4 1 4 2 4 2 5 2 4 0 0 -17 10zm150 40l0 0 -5 2 -5 3 -5 2 -5 2 -5 1 -5 2 -6 1 -5 1 -5 0 -6 0 -5 0 -5 0 -6 0 -5 -1 -5 -1 -5 -1 -5 -2 -5 -1 -5 -2 -5 -3 -5 -2 -4 -3 -5 -3 -4 -3 -4 -3 -4 -4 -4 -3 -4 -4 -3 -5 -4 -4 -3 -5 -3 -4 17 -10 3 4 2 3 3 4 3 3 3 4 3 3 4 3 3 2 4 3 3 2 4 2 4 2 4 2 4 2 4 1 4 1 4 1 4 1 5 1 4 0 4 0 5 0 4 0 4 0 5 -1 4 -1 4 -1 5 -1 4 -2 4 -1 4 -2 4 -3 0 0 10 18zm40 -151l0 0 3 5 2 5 3 5 1 6 2 5 1 5 1 5 1 6 1 5 0 5 0 6 0 5 -1 5 0 5 -1 6 -2 5 -1 5 -2 5 -2 5 -2 4 -2 5 -3 5 -3 4 -3 5 -3 4 -4 4 -4 4 -4 4 -4 3 -4 3 -5 4 -5 3 -10 -18 4 -2 4 -3 4 -2 3 -3 3 -3 3 -4 3 -3 3 -3 3 -4 2 -4 2 -3 2 -4 2 -4 2 -4 1 -4 1 -4 1 -5 1 -4 1 -4 0 -5 0 -4 0 -4 0 -5 -1 -4 0 -4 -1 -5 -1 -4 -1 -4 -2 -4 -2 -5 -2 -4 -2 -4 0 0 17 -10zm-150 -40l0 0 5 -2 5 -3 5 -2 5 -2 5 -2 6 -1 5 -1 5 -1 6 0 5 -1 5 0 6 1 5 0 5 1 5 1 5 1 5 2 5 1 5 2 5 2 5 3 4 3 5 2 4 4 5 3 4 3 4 4 3 4 4 4 3 5 3 4 3 5 -17 10 -2 -4 -3 -3 -3 -4 -3 -4 -3 -3 -3 -3 -3 -3 -4 -2 -3 -3 -4 -2 -4 -3 -4 -2 -3 -1 -4 -2 -5 -1 -4 -2 -4 -1 -4 0 -4 -1 -5 0 -4 -1 -4 0 -5 1 -4 0 -4 1 -5 1 -4 1 -4 1 -5 2 -4 1 -4 2 -4 3 0 0 -10 -18z"/>
   <path id="1" class="fil3" d="M3060 11790c-48,28 -64,89 -36,137 27,47 89,64 136,36 48,-28 64,-89 37,-137 -28,-48 -89,-64 -137,-36z"/>
  </g>
  <rect class="fil0" transform="matrix(0.815473 0.578795 -0.523976 0.738239 5317.75 11735.1)" width="1042" height="852"/>
  <g>
   <path class="fil2" d="M5469 12408l0 0 71 -71 0 0 -64 76 -7 -5zm99 124l-82 -58 0 0 1 -2 2 -1 1 -2 0 -2 1 -2 1 -2 1 -2 0 -2 0 -2 1 -2 0 -2 0 -3 0 -2 0 -2 0 -2 -1 -2 0 -2 -1 -2 0 -2 -1 -2 -1 -2 -1 -2 -1 -2 -1 -2 -1 -2 -1 -1 -1 -2 -2 -2 -1 -1 -2 -2 -2 -1 -1 -2 58 -82 6 5 5 4 6 5 5 5 4 6 5 5 4 6 4 6 3 6 4 6 2 6 3 7 2 6 2 7 2 7 1 6 1 7 1 7 0 7 0 7 0 7 -1 7 -1 7 -1 7 -2 7 -2 6 -2 7 -3 7 -3 6 -3 7 -4 6 -4 6 0 0zm-181 83l99 -141 82 58 -100 140 -81 -57zm-113 96l45 -90 7 4 1 1 2 1 2 1 2 1 2 1 2 1 2 0 2 1 3 0 2 0 2 1 2 0 2 0 2 0 2 -1 2 0 3 0 2 -1 2 0 2 -1 2 -1 2 -1 1 -1 2 -1 2 -1 2 -1 1 -2 2 -1 1 -1 2 -2 1 -2 2 -1 81 57 -4 6 -5 6 -5 5 -5 5 -6 5 -5 5 -6 4 -6 4 -6 3 -6 3 -6 3 -7 3 -6 2 -7 2 -7 2 -7 1 -6 1 -7 1 -7 0 -7 0 -7 0 -7 -1 -7 -1 -7 -1 -6 -2 -7 -2 -7 -2 -7 -3 -6 -3 -6 -3 -7 -4 -6 -4 7 4zm45 -90l0 0 -45 90 0 0 -7 -4 52 -86zm-86 -115l82 58 0 0 -1 2 -1 1 -1 2 -1 2 -1 2 -1 2 0 2 -1 2 0 2 -1 2 0 2 0 3 0 2 0 2 0 2 1 2 0 2 1 2 0 2 1 2 1 2 1 2 1 2 1 2 1 2 1 1 1 2 2 2 1 1 2 2 2 1 2 2 -59 82 -6 -5 -5 -4 -6 -5 -5 -5 -4 -6 -5 -5 -4 -6 -4 -6 -3 -6 -4 -6 -2 -6 -3 -7 -2 -6 -2 -7 -2 -7 -1 -6 -1 -7 -1 -7 0 -7 0 -7 0 -7 1 -7 1 -7 1 -7 2 -7 2 -6 2 -7 3 -7 3 -6 3 -7 4 -6 4 -6 0 0zm181 -83l-99 141 -82 -58 100 -140 81 57zm126 -86l-71 71 7 5 -2 -1 -2 -1 -2 -1 -2 -1 -2 -1 -2 -1 -2 0 -2 -1 -3 0 -2 0 -2 -1 -2 0 -2 0 -2 0 -2 1 -2 0 -2 0 -3 1 -2 0 -2 1 -2 1 -1 1 -2 1 -2 1 -2 1 -2 1 -1 2 -2 1 -1 1 -2 2 -1 2 -2 1 -81 -57 4 -6 5 -6 5 -5 5 -5 6 -5 5 -5 6 -4 6 -4 6 -3 6 -3 6 -3 7 -3 6 -2 7 -2 7 -2 7 -1 6 -1 7 -1 7 0 7 0 7 0 7 1 7 1 7 1 6 2 7 2 7 2 7 3 6 3 6 3 7 4 6 4 6 6z"/>
   <path id="1" class="fil4" d="M5505 12372l0 0c42,30 52,89 22,131l-100 141c-30,42 -88,52 -131,22l0 0c-42,-30 -52,-89 -22,-131l100 -140c30,-43 89,-53 131,-23z"/>
  </g>
  <polygon class="fil0" points="5052,11547 6222,11361 6433,12527 "/>
  <path class="fil0" d="M4472 10498c132,34 230,164 230,320 0,100 -42,191 -107,251 65,60 107,150 107,251 0,181 -134,328 -299,328 -99,0 -187,-52 -241,-133 -54,81 -142,133 -241,133 -165,0 -299,-147 -299,-328 0,-97 39,-184 99,-244 -70,-60 -115,-153 -115,-258 0,-170 117,-309 268,-327 4,-177 136,-319 299,-319 164,0 298,146 299,326z"/>
  <g>
   <path class="fil5 str1" d="M4162 11515c65,0 118,53 118,118l0 193 92 0c86,0 155,69 155,154 0,86 -69,155 -155,155l-92 0 0 273c0,65 -53,117 -118,117 -65,0 -118,-52 -118,-117l0 -775c0,-65 53,-118 118,-118z"/>
   <path id="1" class="fil4" d="M4162 11515c65,0 118,53 118,118l0 193 92 0c86,0 155,69 155,154 0,86 -69,155 -155,155l-92 0 0 273c0,65 -53,117 -118,117 -65,0 -118,-52 -118,-117l0 -775c0,-65 53,-118 118,-118z"/>
  </g>
  <g>
   <path class="fil2" d="M5314 15021l-20 0 0 0 -1 -16 -1 -15 -2 -15 -2 -15 -4 -15 -4 -14 -5 -15 -5 -13 -6 -14 -7 -13 -7 -13 -8 -12 -9 -12 -9 -11 -9 -12 -10 -10 -11 -10 -11 -10 -11 -9 -12 -8 -13 -8 -12 -7 -14 -7 -13 -6 -14 -6 -14 -5 -14 -4 -15 -3 -15 -3 -15 -2 -16 -1 -16 0 0 -20 17 0 17 1 16 3 16 2 15 4 16 4 15 5 15 6 14 7 14 7 14 8 13 8 12 9 13 10 11 10 12 11 10 11 11 12 9 12 9 13 9 13 7 13 8 14 6 15 6 15 5 15 4 15 4 16 3 16 2 16 1 16 1 17 0 0zm-325 324l0 -20 0 0 16 0 16 -1 15 -2 15 -3 15 -3 14 -4 14 -5 14 -6 13 -6 14 -7 12 -7 13 -8 12 -8 11 -9 11 -10 11 -10 10 -10 9 -12 9 -11 9 -12 8 -12 7 -13 7 -13 6 -14 5 -13 5 -15 4 -14 4 -15 2 -15 2 -15 1 -15 1 -16 20 0 -1 17 -1 16 -2 16 -3 16 -4 16 -4 15 -5 15 -6 15 -6 15 -8 14 -7 13 -9 13 -9 13 -9 12 -11 12 -10 11 -12 11 -11 10 -13 10 -12 9 -13 8 -14 8 -14 7 -14 7 -15 6 -15 5 -16 4 -15 4 -16 2 -16 3 -17 1 -17 0 0 0zm-324 -324l20 0 0 0 1 16 1 15 2 15 2 15 4 15 4 14 5 15 5 13 6 14 7 13 7 13 8 12 9 12 9 11 9 12 10 10 11 10 11 10 11 9 12 8 13 8 12 7 14 7 13 6 14 6 14 5 14 4 15 3 15 3 15 2 16 1 15 0 0 20 -16 0 -17 -1 -16 -3 -16 -2 -15 -4 -16 -4 -15 -5 -15 -6 -14 -7 -14 -7 -14 -8 -13 -8 -12 -9 -13 -10 -11 -10 -12 -11 -10 -11 -11 -12 -9 -12 -9 -13 -9 -13 -8 -13 -7 -14 -6 -15 -6 -15 -5 -15 -4 -15 -4 -16 -3 -16 -2 -16 -1 -16 -1 -17 0 0zm324 -324l0 20 0 0 -15 0 -16 1 -15 2 -15 3 -15 3 -14 4 -14 5 -14 6 -13 6 -14 7 -12 7 -13 8 -12 8 -11 9 -11 10 -11 10 -10 10 -9 12 -9 11 -9 12 -8 12 -7 13 -7 13 -6 14 -5 13 -5 15 -4 14 -4 15 -2 15 -2 15 -1 15 -1 16 -20 0 1 -17 1 -16 2 -16 3 -16 4 -16 4 -15 5 -15 6 -15 6 -15 7 -14 8 -13 9 -13 9 -13 9 -12 11 -12 10 -11 12 -11 11 -10 13 -10 12 -9 13 -8 14 -8 14 -7 14 -7 15 -6 15 -5 16 -4 15 -4 16 -2 16 -3 17 -1 16 0 0 0z"/>
   <path id="1" class="fil4" d="M4989 14707c174,0 315,140 315,314 0,174 -141,314 -315,314 -173,0 -314,-140 -314,-314 0,-174 141,-314 314,-314z"/>
  </g>
  <g>
   <path class="fil2" d="M6273 16801l-20 0 0 0 0 -11 -1 -12 -1 -11 -2 -11 -3 -11 -3 -11 -3 -11 -4 -10 -5 -10 -5 -10 -5 -9 -6 -9 -7 -9 -6 -9 -8 -8 -7 -8 -8 -8 -8 -7 -9 -6 -9 -7 -9 -6 -9 -5 -10 -5 -10 -5 -10 -4 -11 -3 -11 -3 -11 -3 -11 -2 -11 -1 -12 -1 -12 -1 0 -20 13 1 13 1 12 1 12 2 12 3 12 4 11 3 12 5 10 5 11 5 10 6 10 7 10 6 9 8 9 8 9 8 8 8 8 9 7 10 7 9 7 10 6 11 5 10 5 11 4 11 4 12 4 12 2 12 3 12 1 12 1 13 0 12 0 0zm-247 247l0 -20 0 0 12 0 12 -1 11 -1 11 -2 11 -3 11 -3 11 -3 10 -4 10 -5 10 -5 9 -6 9 -5 9 -7 9 -6 8 -8 8 -7 7 -8 8 -8 6 -9 7 -9 6 -9 5 -9 5 -10 5 -10 4 -11 3 -10 3 -11 3 -11 2 -11 1 -11 1 -12 0 -12 20 0 0 13 -1 13 -1 12 -3 12 -2 12 -4 12 -4 11 -4 12 -5 10 -5 11 -6 10 -7 11 -7 9 -7 10 -8 8 -8 9 -9 8 -9 8 -9 7 -10 7 -10 7 -10 6 -11 5 -10 5 -12 4 -11 4 -12 4 -12 2 -12 3 -12 1 -13 1 -13 0 0 0zm-246 -247l19 0 0 0 1 12 1 12 1 11 2 11 3 11 3 11 3 10 4 11 5 10 5 10 5 9 6 9 7 9 6 9 7 8 8 8 8 7 8 8 9 6 8 7 10 5 9 6 10 5 10 5 10 4 11 3 11 3 11 3 11 2 11 1 12 1 11 0 0 20 -12 0 -13 -1 -12 -1 -12 -3 -12 -2 -12 -4 -11 -4 -12 -4 -11 -5 -10 -5 -11 -6 -10 -7 -9 -7 -10 -7 -9 -8 -8 -8 -8 -9 -8 -8 -7 -10 -7 -9 -7 -11 -6 -10 -5 -11 -5 -10 -4 -12 -4 -11 -4 -12 -2 -12 -3 -12 -1 -12 -1 -13 0 -13 0 0zm246 -247l0 20 0 0 -11 1 -12 1 -11 1 -11 2 -11 3 -11 3 -11 3 -10 4 -10 5 -10 5 -9 5 -10 6 -8 7 -9 6 -8 7 -8 8 -8 8 -7 8 -6 9 -7 9 -6 9 -5 9 -5 10 -5 10 -4 10 -3 11 -3 11 -3 11 -2 11 -1 11 -1 12 -1 11 -19 0 0 -12 1 -13 1 -12 3 -12 2 -12 4 -12 4 -12 4 -11 5 -11 5 -10 6 -11 7 -10 7 -9 7 -10 8 -9 8 -8 8 -8 9 -8 10 -8 9 -6 10 -7 11 -6 10 -5 11 -5 12 -5 11 -3 12 -4 12 -3 12 -2 12 -1 13 -1 12 -1 0 0z"/>
   <path id="1" class="fil4" d="M6026 16564c131,0 237,107 237,237 0,131 -106,237 -237,237 -130,0 -237,-106 -237,-237 0,-130 107,-237 237,-237z"/>
  </g>
  <g>
   <path class="fil2" d="M5744 17531l-20 0 0 0 0 -12 -1 -11 -1 -11 -2 -12 -3 -11 -3 -10 -3 -11 -4 -10 -5 -10 -5 -10 -6 -10 -5 -9 -7 -9 -6 -8 -8 -8 -7 -8 -8 -8 -8 -7 -9 -7 -9 -6 -9 -6 -9 -5 -10 -5 -10 -5 -11 -4 -10 -4 -11 -3 -11 -2 -11 -2 -11 -2 -12 -1 -12 0 0 -20 13 0 13 1 12 2 12 2 12 3 12 3 11 4 11 5 11 5 11 5 10 6 10 6 10 7 9 8 9 7 9 8 8 9 8 9 7 9 7 10 6 10 6 10 6 11 5 11 4 11 4 12 3 11 3 12 2 13 2 12 1 12 0 13 0 0zm-247 247l0 -20 0 0 12 0 12 -1 11 -2 11 -2 11 -2 11 -3 10 -4 11 -4 10 -4 10 -5 9 -6 9 -6 9 -6 9 -7 8 -7 8 -7 7 -8 8 -9 6 -8 7 -9 5 -9 6 -10 5 -9 5 -11 4 -10 3 -10 3 -11 3 -11 2 -11 1 -12 1 -11 0 -12 20 0 0 13 -1 12 -2 13 -2 12 -3 12 -3 12 -4 11 -4 11 -5 11 -6 11 -6 10 -6 10 -7 10 -7 9 -8 9 -8 9 -9 8 -9 8 -9 7 -10 7 -10 6 -10 6 -11 6 -11 5 -11 4 -11 4 -12 3 -12 3 -12 2 -12 2 -13 1 -13 0 0 0zm-247 -247l20 0 0 0 1 12 0 11 2 12 2 11 2 11 4 11 3 10 4 10 5 11 5 9 5 10 6 9 6 9 7 8 7 9 8 8 8 7 8 7 8 7 9 6 10 6 9 6 10 5 10 4 10 4 11 4 11 3 11 2 11 2 11 2 12 1 11 0 0 20 -12 0 -13 -1 -12 -2 -12 -2 -12 -3 -12 -3 -12 -4 -11 -4 -11 -5 -10 -6 -11 -6 -10 -6 -9 -7 -10 -7 -9 -8 -8 -8 -8 -9 -8 -9 -8 -9 -6 -10 -7 -10 -6 -10 -5 -11 -5 -11 -5 -11 -3 -11 -4 -12 -3 -12 -2 -12 -1 -13 -1 -12 -1 -13 0 0zm247 -247l0 20 0 0 -11 0 -12 1 -11 2 -11 2 -11 2 -11 3 -11 4 -10 4 -10 5 -10 5 -9 5 -10 6 -9 6 -8 7 -8 7 -8 8 -8 8 -7 8 -7 8 -6 9 -6 9 -5 10 -5 10 -5 10 -4 10 -3 11 -4 10 -2 11 -2 12 -2 11 0 11 -1 12 -20 0 1 -13 1 -12 1 -12 2 -13 3 -12 4 -11 3 -12 5 -11 5 -11 5 -11 6 -10 7 -10 6 -10 8 -9 8 -9 8 -9 8 -8 9 -7 10 -8 9 -7 10 -6 11 -6 10 -5 11 -5 11 -5 12 -4 12 -3 12 -3 12 -2 12 -2 13 -1 12 0 0 0z"/>
   <path id="1" class="fil4" d="M5497 17294c131,0 237,106 237,237 0,131 -106,237 -237,237 -131,0 -237,-106 -237,-237 0,-131 106,-237 237,-237z"/>
  </g>
  <g>
   <path class="fil5 str1" d="M3961 14546c60,-129 158,-190 308,-157 113,50 191,131 154,314 -104,432 -38,661 306,889 272,130 546,106 827,-185 94,-113 203,-165 346,-72 92,94 135,154 60,318 -278,341 -639,513 -1021,475 -60,-6 -76,55 -23,92 313,219 687,325 1108,344 194,-5 246,198 237,237 1,79 -50,223 -237,237 -315,-8 -605,-97 -884,-221 -99,-6 -146,31 -118,130 169,160 362,275 570,365 130,89 178,195 117,321 -78,120 -176,157 -290,122 -1317,-341 -1965,-1986 -1460,-3209z"/>
   <path id="1" class="fil4" d="M3961 14546c60,-129 158,-190 308,-157 113,50 191,131 154,314 -104,432 -38,661 306,889 272,130 546,106 827,-185 94,-113 203,-165 346,-72 92,94 135,154 60,318 -278,341 -639,513 -1021,475 -60,-6 -76,55 -23,92 313,219 687,325 1108,344 194,-5 246,198 237,237 1,79 -50,223 -237,237 -315,-8 -605,-97 -884,-221 -99,-6 -146,31 -118,130 169,160 362,275 570,365 130,89 178,195 117,321 -78,120 -176,157 -290,122 -1317,-341 -1965,-1986 -1460,-3209z"/>
  </g>
  <g>
   <path class="fil2" d="M6110 12420l-850 -603 116 -163 850 603 24 140 -140 23zm116 -163c45,32 56,95 24,140 -32,45 -95,55 -140,23l116 -163zm-587 652l447 -629 164 117 -447 629 -139 23 -25 -140zm164 117c-32,45 -94,55 -139,23 -46,-32 -56,-95 -25,-140l164 117zm-874 -744l850 604 -115 163 -851 -603 -24 -140 140 -24zm-116 164c-45,-33 -56,-95 -24,-140 32,-45 95,-56 140,-24l-116 164zm587 -653l-447 629 -164 -116 447 -629 140 -23 24 139zm-164 -116c32,-45 94,-56 140,-23 45,32 56,94 24,139l-164 -116z"/>
  </g>
  <g>
   <polygon class="fil5 str2" points="5052,11547 6222,11361 6433,12527 "/>
  </g>
  <g>
   <path class="fil5 str3" d="M4472 10498c132,34 230,164 230,320 0,100 -42,191 -107,251 65,60 107,150 107,251 0,181 -134,328 -299,328 -99,0 -187,-52 -241,-133 -54,81 -142,133 -241,133 -165,0 -299,-147 -299,-328 0,-97 39,-184 99,-244 -70,-60 -115,-153 -115,-258 0,-170 117,-309 268,-327 4,-177 136,-319 299,-319 164,0 298,146 299,326z"/>
  </g>
 </g>
</svg>
