<svg id="Capa_1" data-name="Capa 1" xmlns="http://www.w3.org/2000/svg" xmlns:xlink="http://www.w3.org/1999/xlink" viewBox="0 0 519.99 178.58"><defs><style>.cls-1{fill:url(#Degradado_sin_nombre_9);}.cls-2{fill:url(#Degradado_sin_nombre_12);}.cls-3{fill:url(#Degradado_sin_nombre_12-2);}.cls-4{fill:url(#Degradado_sin_nombre_9-2);}.cls-5{fill:#001628;}</style><radialGradient id="Degradado_sin_nombre_9" cx="66.52" cy="136.23" r="100.35" gradientUnits="userSpaceOnUse"><stop offset="0" stop-color="#00b5e5"/><stop offset="0.5" stop-color="#0068a3"/><stop offset="1" stop-color="#293189"/></radialGradient><radialGradient id="Degradado_sin_nombre_12" cx="106.91" cy="33.21" r="79.13" gradientUnits="userSpaceOnUse"><stop offset="0" stop-color="#00b5e5"/><stop offset="0.49" stop-color="#0068a3"/><stop offset="1" stop-color="#293189"/></radialGradient><radialGradient id="Degradado_sin_nombre_12-2" cx="193.11" cy="3.47" r="103.54" gradientTransform="translate(-144.17 1.99) scale(1.12 1.05)" xlink:href="#Degradado_sin_nombre_12"/><radialGradient id="Degradado_sin_nombre_9-2" cx="12.13" cy="79.74" r="91.3" xlink:href="#Degradado_sin_nombre_9"/></defs><path class="cls-1" d="M130.53,90.69c-2.81-8.17-5.66-12.88-12-22l-21.37,1c-.16,7.84-.77,18.79-2,21.47l-2.81,9.51C87.39,114.28,82,123.9,71.83,133.41c-7.2,6.52-13.31,11-25.36,16.14l19.69,27.16c5.12,7.06,12.72,2.54,14.2,0,.89-1.53,7.94-11,9-12.43C103.23,145.05,125,114.82,125,114.82S134.93,103.48,130.53,90.69Z" transform="translate(-4.31 -1.91)"/><path class="cls-2" d="M106.52,10.65,87.61,46.48c-.8.06-6.53.06-9.76,0-6.43,0-9.12.15-10.56.68-10.56,3.18-18.53,11.38-18.53,22.9,0,0-7.87-36.89,21.61-68.13C87.68,1.62,95.83,5.29,106.52,10.65Z" transform="translate(-4.31 -1.91)"/><path class="cls-3" d="M77.55,94.56C70.28,97,56,96.51,51.19,96.08,23.74,93.67,4.63,73.91,4.63,73.91c-2.44-11.29,8.15-68.17,65.74-72C42.39,31.3,48.6,70,48.6,70c0,12.61,10.3,23.33,21.68,24.38Z" transform="translate(-4.31 -1.91)"/><path class="cls-4" d="M65.71,95.26a72.56,72.56,0,0,1-34.45-4.93C21.34,87.9,4,73.39,4.46,73c.57,17.85,12.46,35.88,15.75,40.4l26.26,36.19A78.55,78.55,0,0,0,91.7,103.66c3.5-9.32,7-24.49,5.41-33.9C95.2,95.27,72.08,94.59,65.71,95.26Z" transform="translate(-4.31 -1.91)"/><path class="cls-5" d="M153,45.45h-9.38V34.05H153v-2.8a32.16,32.16,0,0,1,1.73-10.53,26.9,26.9,0,0,1,5.23-9,24.74,24.74,0,0,1,8.5-6.22A28,28,0,0,1,180.2,3.24a39.54,39.54,0,0,1,9.3,1.06,40.18,40.18,0,0,1,8,2.88A46.09,46.09,0,0,1,204,11l-6,11a23.24,23.24,0,0,0-7.49-4.42,26,26,0,0,0-9.37-1.74A12.72,12.72,0,0,0,173.57,18a12.52,12.52,0,0,0-4.42,5.62,19.16,19.16,0,0,0-1.4,7.24v3.21h36.67v68.34H189.7V45.45H167.75v56.94H153Z" transform="translate(-4.31 -1.91)"/><path class="cls-5" d="M240.3,103.74a48.38,48.38,0,0,1-16.73-2.88A35.73,35.73,0,0,1,210,92.21l5.49-9.91a41.53,41.53,0,0,0,12.11,7.78,32.93,32.93,0,0,0,12.11,2.4,19.43,19.43,0,0,0,10-2.3,7.36,7.36,0,0,0,3.89-6.76,5.88,5.88,0,0,0-2-4.91,18.35,18.35,0,0,0-5.82-2.79c-2.55-.79-5.61-1.68-9.16-2.66a84.62,84.62,0,0,1-12.59-4.71,19.26,19.26,0,0,1-7.63-6,15.49,15.49,0,0,1-2.54-9.16A19.12,19.12,0,0,1,217.4,41.6a21.79,21.79,0,0,1,9.71-7.29,37.92,37.92,0,0,1,14.39-2.53,41.48,41.48,0,0,1,14.13,2.34,31,31,0,0,1,11.43,7.31l-6.29,9.78a32.77,32.77,0,0,0-9.56-6.3,27.6,27.6,0,0,0-10.52-2,25.33,25.33,0,0,0-6.15.73,10.19,10.19,0,0,0-4.88,2.65,7.22,7.22,0,0,0-1.94,5.37,6.32,6.32,0,0,0,1.6,4.5,12.33,12.33,0,0,0,4.82,2.92c2.14.8,4.76,1.68,7.89,2.65,5.44,1.59,10.09,3.17,13.92,4.7a22.77,22.77,0,0,1,8.9,6Q268,76,268,82.39q0,10.1-7.56,15.71c-5,3.76-11.77,5.64-20.14,5.64" transform="translate(-4.31 -1.91)"/><path class="cls-5" d="M305.88,103.73A36.78,36.78,0,0,1,291,100.88,34,34,0,0,1,279.71,93a35.75,35.75,0,0,1-7.29-11.49,36.94,36.94,0,0,1-2.55-13.73,37.62,37.62,0,0,1,2.55-13.83,34.82,34.82,0,0,1,7.29-11.47,34.28,34.28,0,0,1,11.38-7.84,39.8,39.8,0,0,1,29.58,0,34.59,34.59,0,0,1,11.38,7.84,35,35,0,0,1,7.29,11.47,37.82,37.82,0,0,1,2.54,13.83,37.13,37.13,0,0,1-2.54,13.73A35.92,35.92,0,0,1,332.05,93a34.13,34.13,0,0,1-11.38,7.89,36.91,36.91,0,0,1-14.79,2.85M285,67.89a24.94,24.94,0,0,0,2.81,11.89,22,22,0,0,0,7.5,8.32A19.56,19.56,0,0,0,316.38,88,22.26,22.26,0,0,0,324,79.58a26.43,26.43,0,0,0,0-23.72,22.39,22.39,0,0,0-7.57-8.38,18.78,18.78,0,0,0-10.5-3.1,18.36,18.36,0,0,0-10.57,3.17,23.19,23.19,0,0,0-7.5,8.38,24.88,24.88,0,0,0-2.81,12" transform="translate(-4.31 -1.91)"/><path class="cls-5" d="M386.18,99.05c-1.26.62-2.81,1.29-4.69,2a45.46,45.46,0,0,1-6.35,1.88,33.35,33.35,0,0,1-7.31.81,22.12,22.12,0,0,1-8.43-1.6A13.57,13.57,0,0,1,353.18,97a16.27,16.27,0,0,1-2.34-9.14V44.24h-9.23V32.86h9.23V9.8h14.72V32.86h15.26V44.24H365.56v38.9a7.29,7.29,0,0,0,2.35,5.33,7.7,7.7,0,0,0,5.15,1.74A16.28,16.28,0,0,0,379,89.13c1.87-.71,3.25-1.29,4.15-1.74Z" transform="translate(-4.31 -1.91)"/><path class="cls-5" d="M420.44,103.74a37.08,37.08,0,0,1-14.79-2.86,35.14,35.14,0,0,1-18.86-19.29,37.66,37.66,0,0,1,1.94-31.72,35.34,35.34,0,0,1,12.7-13.12,36.08,36.08,0,0,1,19.16-5c7.3,0,13.62,1.65,18.92,5A34.82,34.82,0,0,1,451.9,49.83a35.72,35.72,0,0,1,4.41,17.38c0,1.07-.05,2.06-.13,3s-.17,1.7-.26,2.32H399.83A21.42,21.42,0,0,0,410.94,90.3a20.41,20.41,0,0,0,10,2.59,22.49,22.49,0,0,0,11.17-3,15.27,15.27,0,0,0,7.17-7.78l12.58,3.62A26.69,26.69,0,0,1,445,95a34.54,34.54,0,0,1-10.9,6.43,39,39,0,0,1-13.67,2.35m-21-41h42.3a21.29,21.29,0,0,0-3.41-10.45,21.77,21.77,0,0,0-7.64-7.09,20.7,20.7,0,0,0-10.24-2.56,20.37,20.37,0,0,0-10.09,2.56,21.07,21.07,0,0,0-7.57,7.09,21.65,21.65,0,0,0-3.35,10.45" transform="translate(-4.31 -1.91)"/><path class="cls-5" d="M493.38,103.74a36.88,36.88,0,0,1-14.79-2.86A34.52,34.52,0,0,1,467.15,93a35.92,35.92,0,0,1-7.43-11.55,36.48,36.48,0,0,1-2.61-13.81,36.36,36.36,0,0,1,4.48-17.92,34.65,34.65,0,0,1,12.59-13q8.08-4.94,19.2-4.92a35.82,35.82,0,0,1,18.67,4.75A29.16,29.16,0,0,1,523.77,49.2l-14.33,4.55a17.3,17.3,0,0,0-6.76-6.89,18.91,18.91,0,0,0-9.56-2.49,19.59,19.59,0,0,0-10.64,3,20.84,20.84,0,0,0-7.5,8.19,25.59,25.59,0,0,0-2.74,12.08,25.33,25.33,0,0,0,2.81,12A22.18,22.18,0,0,0,482.6,88a19,19,0,0,0,10.65,3.11,19.94,19.94,0,0,0,7-1.27,19.33,19.33,0,0,0,6-3.48,13.14,13.14,0,0,0,3.61-4.9l14.46,4.29A26.55,26.55,0,0,1,517.54,95,33.6,33.6,0,0,1,507,101.39a37.57,37.57,0,0,1-13.58,2.35" transform="translate(-4.31 -1.91)"/><path class="cls-5" d="M172.43,173.32a20.79,20.79,0,0,1-9.56-2.23,25.17,25.17,0,0,1-7.62-5.94,27.26,27.26,0,0,1-5-8.34,26.33,26.33,0,0,1-1.76-9.46,27.32,27.32,0,0,1,1.73-9.68,26.48,26.48,0,0,1,4.88-8.28,23.6,23.6,0,0,1,7.48-5.75,20.94,20.94,0,0,1,9.41-2.13q7.62,0,12.33,3.13a20.55,20.55,0,0,1,7.15,8l-3,1.8a16.34,16.34,0,0,0-6.86-7.29,20.24,20.24,0,0,0-9.67-2.27,17.54,17.54,0,0,0-8.2,1.9,19.56,19.56,0,0,0-6.25,5.11,23.4,23.4,0,0,0-3.95,7.23,25.66,25.66,0,0,0-1.36,8.28,23.08,23.08,0,0,0,1.58,8.56,23.57,23.57,0,0,0,4.38,7.19,20.51,20.51,0,0,0,6.54,5,18,18,0,0,0,8,1.8,19.14,19.14,0,0,0,9.34-2.41,27.92,27.92,0,0,0,8.41-7.59V164q-7.62,9.28-18,9.28m17.18-22.23H178v-3h14.73V173h-3.16Z" transform="translate(-4.31 -1.91)"/><rect class="cls-5" x="195.65" y="119.96" width="3.66" height="51.09"/><path class="cls-5" d="M243.09,130.37a15.36,15.36,0,0,0-2.73-2.42,17,17,0,0,0-3.23-1.72,20.09,20.09,0,0,0-3.74-1,24.6,24.6,0,0,0-4.32-.36c-5,0-8.61,1-10.88,2.84a9.42,9.42,0,0,0-3.42,7.65,7.92,7.92,0,0,0,1.55,5.14,10.47,10.47,0,0,0,4.85,3.06,71,71,0,0,0,8.55,2.22,63.73,63.73,0,0,1,9.56,2.69,14.84,14.84,0,0,1,6.22,4.2,11,11,0,0,1,2.19,7.19,13,13,0,0,1-1.29,5.94,11,11,0,0,1-3.74,4.19,18.66,18.66,0,0,1-5.79,2.52,29.93,29.93,0,0,1-7.44.86,32.45,32.45,0,0,1-7.54-.86,29.59,29.59,0,0,1-6.76-2.52,25.66,25.66,0,0,1-5.89-4.25l1.94-2.95a19.69,19.69,0,0,0,3.55,3.07,23.48,23.48,0,0,0,4.31,2.26,30.62,30.62,0,0,0,5,1.48,27.77,27.77,0,0,0,5.54.53q6.67,0,10.46-2.47a9.23,9.23,0,0,0,2-12.82,12,12,0,0,0-5.31-3.42,66.63,66.63,0,0,0-9-2.48,61.83,61.83,0,0,1-9.16-2.59,12.57,12.57,0,0,1-5.68-3.88,10.46,10.46,0,0,1-1.91-6.61,13.19,13.19,0,0,1,2.27-7.8,14,14,0,0,1,6.36-4.85,25,25,0,0,1,9.41-1.65,27.11,27.11,0,0,1,6.15.65,20.28,20.28,0,0,1,5.25,2,21.55,21.55,0,0,1,4.49,3.34Z" transform="translate(-4.31 -1.91)"/><path class="cls-5" d="M297.86,130.37a16.09,16.09,0,0,0-2.73-2.42,16.74,16.74,0,0,0-3.24-1.72,20,20,0,0,0-3.73-1,24.6,24.6,0,0,0-4.32-.36c-5,0-8.61,1-10.89,2.84a9.44,9.44,0,0,0-3.41,7.65,8,8,0,0,0,1.54,5.14,10.57,10.57,0,0,0,4.85,3.06,71.68,71.68,0,0,0,8.56,2.22,63.73,63.73,0,0,1,9.56,2.69,14.84,14.84,0,0,1,6.22,4.2,11,11,0,0,1,2.19,7.19,13.15,13.15,0,0,1-1.29,5.94,11.06,11.06,0,0,1-3.74,4.19,18.66,18.66,0,0,1-5.79,2.52,30,30,0,0,1-7.44.86,32.59,32.59,0,0,1-7.55-.86,29.76,29.76,0,0,1-6.76-2.52,25.6,25.6,0,0,1-5.88-4.25l1.93-2.95a20.1,20.1,0,0,0,3.56,3.07,23.16,23.16,0,0,0,4.31,2.26,30.33,30.33,0,0,0,5,1.48,27.7,27.7,0,0,0,5.54.53q6.67,0,10.45-2.47a9.22,9.22,0,0,0,2.05-12.82,12.09,12.09,0,0,0-5.32-3.42,66,66,0,0,0-9-2.48,62,62,0,0,1-9.17-2.59,12.6,12.6,0,0,1-5.67-3.88,10.39,10.39,0,0,1-1.91-6.61,13.12,13.12,0,0,1,2.27-7.8,14,14,0,0,1,6.36-4.85,25,25,0,0,1,9.41-1.65,27.18,27.18,0,0,1,6.15.65,20.07,20.07,0,0,1,5.24,2,21.61,21.61,0,0,1,4.5,3.34Z" transform="translate(-4.31 -1.91)"/><polygon class="cls-5" points="349.97 171.06 349.97 127.09 329.91 161.49 327.47 161.49 307.42 127.09 307.42 171.06 303.76 171.06 303.76 119.96 307.42 119.96 328.69 156.52 349.97 119.96 353.63 119.96 353.63 171.06 349.97 171.06"/><path class="cls-5" d="M383.74,121.87h3.16L408.47,173h-3.88l-7-16.85H373L366,173h-4Zm12.64,31.23-11.05-26.76L374.22,153.1Z" transform="translate(-4.31 -1.91)"/><path class="cls-5" d="M412.64,173v-51.1h21.21a13.11,13.11,0,0,1,6,1.37,15.2,15.2,0,0,1,4.67,3.64,17.43,17.43,0,0,1,3.09,5.07,15.51,15.51,0,0,1,1.11,5.75,16.8,16.8,0,0,1-1.51,7.13,15.33,15.33,0,0,1-4.2,5.54,12.48,12.48,0,0,1-6.29,2.73L449.44,173H445.2l-12.36-19.3H416.31V173Zm3.67-22.67H434.2a9.42,9.42,0,0,0,5.75-1.8,11.91,11.91,0,0,0,3.78-4.68,14.48,14.48,0,0,0,1.32-6.12,12.72,12.72,0,0,0-1.54-6.14,13.24,13.24,0,0,0-4.09-4.62,9.89,9.89,0,0,0-5.72-1.76H416.31Z" transform="translate(-4.31 -1.91)"/><polygon class="cls-5" points="486.39 123.27 467.7 123.27 467.7 171.06 464.03 171.06 464.03 123.27 445.35 123.27 445.35 119.96 486.39 119.96 486.39 123.27"/></svg>