<?xml version="1.0" encoding="UTF-8"?>
<!DOCTYPE svg PUBLIC "-//W3C//DTD SVG 1.1//EN" "http://www.w3.org/Graphics/SVG/1.1/DTD/svg11.dtd">
<!-- Creator: CorelDRAW X8 -->
<svg xmlns="http://www.w3.org/2000/svg" xml:space="preserve" width="105mm" height="37.5mm" version="1.1" style="shape-rendering:geometricPrecision; text-rendering:geometricPrecision; image-rendering:optimizeQuality; fill-rule:evenodd; clip-rule:evenodd"
viewBox="0 0 10500 3750"
 xmlns:xlink="http://www.w3.org/1999/xlink">
 <defs>
  <style type="text/css">
   <![CDATA[
    .str0 {stroke:#FEFEFE;stroke-width:7.62}
    .fil5 {fill:none;fill-rule:nonzero}
    .fil4 {fill:#FEFEFE;fill-rule:nonzero}
    .fil0 {fill:url(#id0)}
    .fil2 {fill:url(#id1)}
    .fil1 {fill:url(#id2)}
    .fil3 {fill:url(#id3)}
   ]]>
  </style>
  <linearGradient id="id0" gradientUnits="userSpaceOnUse" x1="878.01" y1="981.76" x2="2099.22" y2="1038.23">
   <stop offset="0" style="stop-opacity:1; stop-color:#0050AB"/>
   <stop offset="0.0784314" style="stop-opacity:1; stop-color:#009CC0"/>
   <stop offset="0.4" style="stop-opacity:1; stop-color:#0050AB"/>
   <stop offset="1" style="stop-opacity:1; stop-color:#00E8D6"/>
  </linearGradient>
  <linearGradient id="id1" gradientUnits="userSpaceOnUse" x1="916.91" y1="2616.6" x2="1889.97" y2="2030.74">
   <stop offset="0" style="stop-opacity:1; stop-color:#0050AB"/>
   <stop offset="1" style="stop-opacity:1; stop-color:#00E8D6"/>
  </linearGradient>
  <linearGradient id="id2" gradientUnits="userSpaceOnUse" xlink:href="#id1" x1="454.41" y1="1350.62" x2="1457.04" y2="1258.17">
  </linearGradient>
  <linearGradient id="id3" gradientUnits="userSpaceOnUse" xlink:href="#id1" x1="1368.49" y1="3130.06" x2="2918.95" y2="1944.73">
  </linearGradient>
 </defs>
 <g id="Capa_x0020_1">
  <metadata id="CorelCorpID_0Corel-Layer"/>
  <path class="fil0" d="M1071 1490c-84,-469 67,-925 399,-1271 12,0 24,-1 35,-1 231,-2 447,57 633,162l-349 663 -271 0c-246,0 -446,199 -447,445 0,0 0,1 0,2z"/>
  <path class="fil1" d="M1228 1965c-85,-3 -172,-2 -256,-20 -265,-57 -515,-195 -722,-394 0,-1 0,-4 0,-6 -3,-86 1,-163 16,-251 102,-596 603,-1052 1204,-1075 -332,346 -468,819 -399,1270l0 1c0,66 15,129 41,186 109,206 264,271 487,257 -110,26 -257,38 -371,32z"/>
  <path class="fil2" d="M1027 2966l-8 -12 -35 -48 -442 -610c-161,-238 -278,-471 -292,-747 364,345 809,487 1349,384 220,-50 341,-199 365,-443 0,0 11,54 9,116 -2,69 -17,150 -27,206 -54,327 -205,638 -471,875 -68,62 -146,119 -221,165 -72,44 -150,84 -227,114z"/>
  <path class="fil3" d="M2560 1818c82,215 40,322 -120,551l-790 1094c-71,94 -192,90 -262,0l-365 -503c158,-62 307,-153 441,-273 352,-313 521,-757 500,-1196l0 -1 392 -25c0,0 139,181 204,353z"/>
  <path class="fil4" d="M3227 1064l-177 0 0 -215 177 0 0 -52c0,-69 11,-135 32,-198 22,-63 55,-119 99,-169 43,-49 97,-88 160,-117 63,-28 136,-43 220,-43 62,0 120,7 175,20 54,14 105,32 151,55 46,22 87,46 122,71l-113 207c-37,-34 -84,-61 -141,-83 -57,-22 -116,-33 -176,-33 -58,0 -105,13 -143,40 -38,27 -65,62 -83,106 -17,44 -26,89 -26,136l0 60 690 0 0 1285 -277 0 0 -1070 -413 0 0 1070 -277 0 0 -1070z"/>
  <path id="1" class="fil4" d="M4876 2159c-110,0 -215,-18 -314,-54 -100,-36 -184,-90 -255,-163l103 -186c76,67 152,116 228,146 77,30 153,45 228,45 77,0 140,-14 189,-43 49,-28 73,-71 73,-127 0,-42 -12,-72 -38,-92 -25,-20 -61,-38 -109,-52 -48,-15 -106,-32 -173,-50 -94,-29 -173,-58 -236,-89 -64,-31 -112,-69 -144,-114 -32,-45 -48,-102 -48,-172 0,-84 22,-157 66,-217 43,-60 104,-105 182,-137 78,-31 169,-47 271,-47 96,0 184,14 266,44 81,29 153,75 215,137l-118 184c-59,-54 -119,-93 -180,-119 -62,-25 -128,-37 -198,-37 -40,0 -79,4 -116,14 -37,8 -68,25 -92,49 -24,24 -36,58 -36,101 0,35 10,63 30,85 20,21 50,39 90,55 41,15 90,31 149,49 102,30 190,60 262,89 72,29 128,66 167,112 40,45 60,108 60,188 0,126 -48,225 -143,295 -95,71 -221,106 -379,106z"/>
  <path id="2" class="fil4" d="M6118 2159c-104,0 -197,-18 -280,-54 -82,-35 -153,-85 -212,-148 -60,-63 -106,-136 -138,-216 -31,-81 -47,-167 -47,-258 0,-92 16,-178 47,-260 32,-81 78,-153 138,-215 59,-63 131,-112 214,-148 83,-35 176,-53 278,-53 102,0 195,18 278,53 83,36 155,85 214,148 60,62 106,134 138,215 31,82 47,168 47,260 0,91 -16,177 -47,258 -32,80 -78,153 -138,216 -59,63 -131,113 -214,148 -83,36 -176,54 -278,54zm-393 -674c0,83 18,158 53,224 35,66 82,118 141,156 59,38 125,57 199,57 72,0 138,-19 198,-58 59,-39 107,-92 142,-159 35,-67 53,-141 53,-222 0,-83 -18,-158 -53,-223 -35,-67 -83,-119 -142,-158 -60,-39 -126,-59 -198,-59 -74,0 -140,20 -199,60 -59,40 -106,92 -141,158 -35,65 -53,140 -53,224z"/>
  <path id="3" class="fil4" d="M7637 2071c-24,12 -53,24 -89,38 -35,13 -75,25 -119,35 -45,10 -90,15 -137,15 -57,0 -110,-10 -159,-30 -49,-20 -88,-52 -117,-97 -29,-44 -44,-101 -44,-171l0 -820 -174 0 0 -214 174 0 0 -433 277 0 0 433 287 0 0 214 -287 0 0 731c3,45 18,78 44,100 26,22 58,33 97,33 38,0 75,-7 111,-21 35,-13 61,-24 78,-32l58 219z"/>
  <path id="4" class="fil4" d="M8289 2159c-102,0 -195,-18 -278,-54 -83,-35 -155,-85 -216,-147 -60,-63 -107,-134 -139,-215 -33,-81 -49,-167 -49,-259 0,-123 28,-235 85,-337 57,-102 137,-185 239,-247 103,-62 223,-93 361,-93 137,0 256,31 356,93 100,62 177,144 233,246 55,101 83,210 83,326 0,20 -1,39 -3,57 -1,17 -3,31 -5,43l-1055 0c5,77 27,143 64,200 38,57 86,102 145,134 59,33 122,49 189,49 74,0 144,-19 210,-55 67,-37 112,-86 135,-146l237 67c-29,64 -72,122 -130,173 -58,51 -126,91 -205,121 -79,29 -165,44 -257,44zm-395 -771l795 0c-5,-74 -26,-139 -64,-196 -38,-57 -85,-101 -143,-133 -58,-32 -122,-48 -193,-48 -69,0 -132,16 -190,48 -58,32 -105,76 -142,133 -37,57 -58,122 -63,196z"/>
  <path id="5" class="fil4" d="M9669 2159c-102,0 -195,-18 -278,-54 -83,-35 -155,-85 -215,-148 -61,-63 -107,-136 -140,-217 -33,-82 -49,-168 -49,-260 0,-123 28,-235 84,-337 56,-101 135,-182 237,-244 101,-62 222,-92 361,-92 134,0 252,29 351,89 100,60 174,139 221,238l-270 86c-30,-56 -72,-99 -127,-130 -54,-31 -114,-47 -180,-47 -74,0 -140,19 -200,56 -60,38 -107,89 -141,154 -34,66 -52,141 -52,227 0,83 18,158 53,225 35,67 83,120 142,159 60,39 127,58 201,58 45,0 89,-8 132,-24 43,-16 80,-37 112,-65 32,-28 54,-59 68,-92l272 80c-29,66 -71,124 -127,174 -57,51 -123,90 -199,120 -77,29 -162,44 -256,44z"/>
  <path id="6" class="fil5 str0" d="M3227 1064l-177 0 0 -215 177 0 0 -52c0,-69 11,-135 32,-198 22,-63 55,-119 99,-169 43,-49 97,-88 160,-117 63,-28 136,-43 220,-43 62,0 120,7 175,20 54,14 105,32 151,55 46,22 87,46 122,71l-113 207c-37,-34 -84,-61 -141,-83 -57,-22 -116,-33 -176,-33 -58,0 -105,13 -143,40 -38,27 -65,62 -83,106 -17,44 -26,89 -26,136l0 60 690 0 0 1285 -277 0 0 -1070 -413 0 0 1070 -277 0 0 -1070z"/>
  <path id="7" class="fil5 str0" d="M4876 2159c-110,0 -215,-18 -314,-54 -100,-36 -184,-90 -255,-163l103 -186c76,67 152,116 228,146 77,30 153,45 228,45 77,0 140,-14 189,-43 49,-28 73,-71 73,-127 0,-42 -12,-72 -38,-92 -25,-20 -61,-38 -109,-52 -48,-15 -106,-32 -173,-50 -94,-29 -173,-58 -236,-89 -64,-31 -112,-69 -144,-114 -32,-45 -48,-102 -48,-172 0,-84 22,-157 66,-217 43,-60 104,-105 182,-137 78,-31 169,-47 271,-47 96,0 184,14 266,44 81,29 153,75 215,137l-118 184c-59,-54 -119,-93 -180,-119 -62,-25 -128,-37 -198,-37 -40,0 -79,4 -116,14 -37,8 -68,25 -92,49 -24,24 -36,58 -36,101 0,35 10,63 30,85 20,21 50,39 90,55 41,15 90,31 149,49 102,30 190,60 262,89 72,29 128,66 167,112 40,45 60,108 60,188 0,126 -48,225 -143,295 -95,71 -221,106 -379,106z"/>
  <path id="8" class="fil5 str0" d="M6118 2159c-104,0 -197,-18 -280,-54 -82,-35 -153,-85 -212,-148 -60,-63 -106,-136 -138,-216 -31,-81 -47,-167 -47,-258 0,-92 16,-178 47,-260 32,-81 78,-153 138,-215 59,-63 131,-112 214,-148 83,-35 176,-53 278,-53 102,0 195,18 278,53 83,36 155,85 214,148 60,62 106,134 138,215 31,82 47,168 47,260 0,91 -16,177 -47,258 -32,80 -78,153 -138,216 -59,63 -131,113 -214,148 -83,36 -176,54 -278,54zm-393 -674c0,83 18,158 53,224 35,66 82,118 141,156 59,38 125,57 199,57 72,0 138,-19 198,-58 59,-39 107,-92 142,-159 35,-67 53,-141 53,-222 0,-83 -18,-158 -53,-223 -35,-67 -83,-119 -142,-158 -60,-39 -126,-59 -198,-59 -74,0 -140,20 -199,60 -59,40 -106,92 -141,158 -35,65 -53,140 -53,224z"/>
  <path id="9" class="fil5 str0" d="M7637 2071c-24,12 -53,24 -89,38 -35,13 -75,25 -119,35 -45,10 -90,15 -137,15 -57,0 -110,-10 -159,-30 -49,-20 -88,-52 -117,-97 -29,-44 -44,-101 -44,-171l0 -820 -174 0 0 -214 174 0 0 -433 277 0 0 433 287 0 0 214 -287 0 0 731c3,45 18,78 44,100 26,22 58,33 97,33 38,0 75,-7 111,-21 35,-13 61,-24 78,-32l58 219z"/>
  <path id="10" class="fil5 str0" d="M8289 2159c-102,0 -195,-18 -278,-54 -83,-35 -155,-85 -216,-147 -60,-63 -107,-134 -139,-215 -33,-81 -49,-167 -49,-259 0,-123 28,-235 85,-337 57,-102 137,-185 239,-247 103,-62 223,-93 361,-93 137,0 256,31 356,93 100,62 177,144 233,246 55,101 83,210 83,326 0,20 -1,39 -3,57 -1,17 -3,31 -5,43l-1055 0c5,77 27,143 64,200 38,57 86,102 145,134 59,33 122,49 189,49 74,0 144,-19 210,-55 67,-37 112,-86 135,-146l237 67c-29,64 -72,122 -130,173 -58,51 -126,91 -205,121 -79,29 -165,44 -257,44zm-395 -771l795 0c-5,-74 -26,-139 -64,-196 -38,-57 -85,-101 -143,-133 -58,-32 -122,-48 -193,-48 -69,0 -132,16 -190,48 -58,32 -105,76 -142,133 -37,57 -58,122 -63,196z"/>
  <path id="11" class="fil5 str0" d="M9669 2159c-102,0 -195,-18 -278,-54 -83,-35 -155,-85 -215,-148 -61,-63 -107,-136 -140,-217 -33,-82 -49,-168 -49,-260 0,-123 28,-235 84,-337 56,-101 135,-182 237,-244 101,-62 222,-92 361,-92 134,0 252,29 351,89 100,60 174,139 221,238l-270 86c-30,-56 -72,-99 -127,-130 -54,-31 -114,-47 -180,-47 -74,0 -140,19 -200,56 -60,38 -107,89 -141,154 -34,66 -52,141 -52,227 0,83 18,158 53,225 35,67 83,120 142,159 60,39 127,58 201,58 45,0 89,-8 132,-24 43,-16 80,-37 112,-65 32,-28 54,-59 68,-92l272 80c-29,66 -71,124 -127,174 -57,51 -123,90 -199,120 -77,29 -162,44 -256,44z"/>
  <path class="fil4" d="M3615 3487c-68,0 -130,-15 -187,-44 -57,-29 -106,-67 -148,-115 -42,-49 -75,-103 -98,-163 -23,-60 -34,-122 -34,-185 0,-65 11,-128 33,-188 23,-60 55,-114 96,-161 41,-48 90,-85 146,-113 56,-27 117,-41 183,-41 99,0 180,20 241,61 61,41 108,93 139,156l-58 35c-34,-65 -79,-112 -134,-142 -56,-29 -119,-44 -189,-44 -59,0 -112,12 -160,37 -48,25 -88,58 -122,100 -34,41 -59,88 -77,141 -18,52 -27,106 -27,161 0,59 11,114 31,167 21,52 49,99 86,140 36,41 79,73 127,97 49,23 101,35 156,35 64,0 125,-16 182,-47 57,-31 112,-81 164,-148l0 80c-99,120 -216,181 -350,181zm335 -434l-226 0 0 -57 288 0 0 484 -62 0 0 -427z"/>
  <polygon id="1" class="fil4" points="4128,3480 4128,2484 4200,2484 4200,3480 "/>
  <path id="2" class="fil4" d="M4946 2650c-16,-18 -34,-34 -53,-47 -20,-14 -41,-25 -63,-34 -23,-9 -47,-16 -73,-20 -26,-5 -54,-7 -84,-7 -98,0 -168,18 -213,55 -44,37 -66,86 -66,149 0,42 10,75 30,100 20,25 51,45 94,60 43,15 99,29 167,43 72,15 134,32 187,53 52,20 93,47 121,82 29,34 43,81 43,140 0,43 -9,82 -25,115 -17,33 -41,61 -73,82 -32,21 -70,38 -113,49 -44,11 -92,17 -145,17 -52,0 -101,-6 -148,-17 -46,-11 -90,-28 -131,-49 -42,-22 -80,-49 -115,-83l37 -57c21,22 44,42 70,59 26,17 54,32 84,44 30,13 63,22 98,29 34,7 70,11 107,11 87,0 155,-17 205,-49 49,-32 73,-80 73,-143 0,-44 -11,-80 -33,-107 -23,-27 -58,-49 -104,-66 -47,-17 -105,-33 -176,-48 -70,-15 -129,-32 -178,-51 -49,-19 -86,-44 -111,-75 -25,-32 -37,-75 -37,-129 0,-60 14,-111 44,-152 29,-42 71,-73 124,-95 53,-21 114,-32 184,-32 43,0 83,4 120,13 37,8 71,21 102,38 31,17 60,39 88,65l-37 57z"/>
  <path id="3" class="fil5 str0" d="M3615 3487c-68,0 -130,-15 -187,-44 -57,-29 -106,-67 -148,-115 -42,-49 -75,-103 -98,-163 -23,-60 -34,-122 -34,-185 0,-65 11,-128 33,-188 23,-60 55,-114 96,-161 41,-48 90,-85 146,-113 56,-27 117,-41 183,-41 99,0 180,20 241,61 61,41 108,93 139,156l-58 35c-34,-65 -79,-112 -134,-142 -56,-29 -119,-44 -189,-44 -59,0 -112,12 -160,37 -48,25 -88,58 -122,100 -34,41 -59,88 -77,141 -18,52 -27,106 -27,161 0,59 11,114 31,167 21,52 49,99 86,140 36,41 79,73 127,97 49,23 101,35 156,35 64,0 125,-16 182,-47 57,-31 112,-81 164,-148l0 80c-99,120 -216,181 -350,181zm335 -434l-226 0 0 -57 288 0 0 484 -62 0 0 -427z"/>
  <polygon id="4" class="fil5 str0" points="4128,3480 4128,2484 4200,2484 4200,3480 "/>
  <path id="5" class="fil5 str0" d="M4946 2650c-16,-18 -34,-34 -53,-47 -20,-14 -41,-25 -63,-34 -23,-9 -47,-16 -73,-20 -26,-5 -54,-7 -84,-7 -98,0 -168,18 -213,55 -44,37 -66,86 -66,149 0,42 10,75 30,100 20,25 51,45 94,60 43,15 99,29 167,43 72,15 134,32 187,53 52,20 93,47 121,82 29,34 43,81 43,140 0,43 -9,82 -25,115 -17,33 -41,61 -73,82 -32,21 -70,38 -113,49 -44,11 -92,17 -145,17 -52,0 -101,-6 -148,-17 -46,-11 -90,-28 -131,-49 -42,-22 -80,-49 -115,-83l37 -57c21,22 44,42 70,59 26,17 54,32 84,44 30,13 63,22 98,29 34,7 70,11 107,11 87,0 155,-17 205,-49 49,-32 73,-80 73,-143 0,-44 -11,-80 -33,-107 -23,-27 -58,-49 -104,-66 -47,-17 -105,-33 -176,-48 -70,-15 -129,-32 -178,-51 -49,-19 -86,-44 -111,-75 -25,-32 -37,-75 -37,-129 0,-60 14,-111 44,-152 29,-42 71,-73 124,-95 53,-21 114,-32 184,-32 43,0 83,4 120,13 37,8 71,21 102,38 31,17 60,39 88,65l-37 57z"/>
  <path class="fil4" d="M5982 2650c-16,-18 -34,-34 -54,-47 -19,-14 -40,-25 -63,-34 -22,-9 -47,-16 -73,-20 -26,-5 -54,-7 -84,-7 -97,0 -168,18 -212,55 -45,37 -67,86 -67,149 0,42 10,75 30,100 20,25 52,45 95,60 43,15 98,29 167,43 72,15 134,32 186,53 53,20 93,47 122,82 28,34 42,81 42,140 0,43 -8,82 -25,115 -17,33 -41,61 -73,82 -32,21 -69,38 -113,49 -43,11 -92,17 -145,17 -51,0 -100,-6 -147,-17 -47,-11 -91,-28 -132,-49 -41,-22 -79,-49 -115,-83l38 -57c20,22 44,42 69,59 26,17 54,32 84,44 31,13 63,22 98,29 34,7 70,11 108,11 87,0 155,-17 204,-49 49,-32 74,-80 74,-143 0,-44 -12,-80 -34,-107 -23,-27 -57,-49 -104,-66 -47,-17 -105,-33 -175,-48 -70,-15 -130,-32 -179,-51 -49,-19 -86,-44 -111,-75 -25,-32 -37,-75 -37,-129 0,-60 15,-111 44,-152 30,-42 71,-73 124,-95 54,-21 115,-32 184,-32 43,0 83,4 120,13 37,8 71,21 102,38 32,17 61,39 88,65l-36 57z"/>
  <polygon id="1" class="fil4" points="7048,3480 7048,2623 6657,3293 6609,3293 6218,2623 6218,3480 6146,3480 6146,2484 6218,2484 6633,3196 7048,2484 7120,2484 7120,3480 "/>
  <path id="2" class="fil4" d="M7589 2484l61 0 421 996 -76 0 -136 -328 -481 0 -136 328 -77 0 424 -996zm246 609l-216 -522 -216 522 432 0z"/>
  <path id="3" class="fil4" d="M8118 3480l0 -996 414 0c43,0 82,9 117,27 35,17 65,41 91,70 26,30 46,63 60,99 15,37 22,74 22,113 0,49 -10,95 -30,138 -19,43 -47,79 -82,108 -35,29 -76,47 -122,54l248 387 -83 0 -241 -376 -323 0 0 376 -71 0zm71 -442l350 0c43,0 80,-12 112,-35 32,-23 56,-54 73,-91 18,-38 26,-77 26,-119 0,-43 -10,-83 -30,-120 -20,-37 -46,-67 -80,-90 -33,-23 -70,-34 -111,-34l-340 0 0 489z"/>
  <polygon id="4" class="fil4" points="9607,2549 9242,2549 9242,3480 9170,3480 9170,2549 8806,2549 8806,2484 9607,2484 "/>
  <path id="5" class="fil5 str0" d="M5982 2650c-16,-18 -34,-34 -54,-47 -19,-14 -40,-25 -63,-34 -22,-9 -47,-16 -73,-20 -26,-5 -54,-7 -84,-7 -97,0 -168,18 -212,55 -45,37 -67,86 -67,149 0,42 10,75 30,100 20,25 52,45 95,60 43,15 98,29 167,43 72,15 134,32 186,53 53,20 93,47 122,82 28,34 42,81 42,140 0,43 -8,82 -25,115 -17,33 -41,61 -73,82 -32,21 -69,38 -113,49 -43,11 -92,17 -145,17 -51,0 -100,-6 -147,-17 -47,-11 -91,-28 -132,-49 -41,-22 -79,-49 -115,-83l38 -57c20,22 44,42 69,59 26,17 54,32 84,44 31,13 63,22 98,29 34,7 70,11 108,11 87,0 155,-17 204,-49 49,-32 74,-80 74,-143 0,-44 -12,-80 -34,-107 -23,-27 -57,-49 -104,-66 -47,-17 -105,-33 -175,-48 -70,-15 -130,-32 -179,-51 -49,-19 -86,-44 -111,-75 -25,-32 -37,-75 -37,-129 0,-60 15,-111 44,-152 30,-42 71,-73 124,-95 54,-21 115,-32 184,-32 43,0 83,4 120,13 37,8 71,21 102,38 32,17 61,39 88,65l-36 57z"/>
  <polygon id="6" class="fil5 str0" points="7048,3480 7048,2623 6657,3293 6609,3293 6218,2623 6218,3480 6146,3480 6146,2484 6218,2484 6633,3196 7048,2484 7120,2484 7120,3480 "/>
  <path id="7" class="fil5 str0" d="M7589 2484l61 0 421 996 -76 0 -136 -328 -481 0 -136 328 -77 0 424 -996zm246 609l-216 -522 -216 522 432 0z"/>
  <path id="8" class="fil5 str0" d="M8118 3480l0 -996 414 0c43,0 82,9 117,27 35,17 65,41 91,70 26,30 46,63 60,99 15,37 22,74 22,113 0,49 -10,95 -30,138 -19,43 -47,79 -82,108 -35,29 -76,47 -122,54l248 387 -83 0 -241 -376 -323 0 0 376 -71 0zm71 -442l350 0c43,0 80,-12 112,-35 32,-23 56,-54 73,-91 18,-38 26,-77 26,-119 0,-43 -10,-83 -30,-120 -20,-37 -46,-67 -80,-90 -33,-23 -70,-34 -111,-34l-340 0 0 489z"/>
  <polygon id="9" class="fil5 str0" points="9607,2549 9242,2549 9242,3480 9170,3480 9170,2549 8806,2549 8806,2484 9607,2484 "/>
 </g>
</svg>
