<?xml version="1.0" encoding="utf-8"?>
<!-- Generator: Adobe Illustrator 25.2.1, SVG Export Plug-In . SVG Version: 6.00 Build 0)  -->
<svg version="1.1" id="Capa_1" xmlns="http://www.w3.org/2000/svg" xmlns:xlink="http://www.w3.org/1999/xlink" x="0px" y="0px"
	 viewBox="0 0 100 100" style="enable-background:new 0 0 100 100;" xml:space="preserve">
<style type="text/css">
	.st0{fill:#B3B3B3;stroke:#B3B3B3;stroke-width:2;stroke-miterlimit:10;}
	.st1{fill:#FFFFFF;}
</style>
<g>
	<path class="st0" d="M29.92,67.79H71.2c9.84,0,17.82-7.98,17.82-17.82v0c0-9.84-7.98-17.82-17.82-17.82H29.92
		c-9.84,0-17.82,7.98-17.82,17.82v0C12.1,59.81,20.08,67.79,29.92,67.79z"/>
	<g>
		<circle class="st1" cx="29.69" cy="50" r="17.71"/>
		<path d="M29.69,33.29c9.22,0,16.71,7.5,16.71,16.71s-7.5,16.71-16.71,16.71S12.98,59.22,12.98,50S20.48,33.29,29.69,33.29
			 M29.69,31.29c-10.33,0-18.71,8.38-18.71,18.71s8.38,18.71,18.71,18.71S48.41,60.33,48.41,50S40.03,31.29,29.69,31.29L29.69,31.29
			z"/>
	</g>
</g>
</svg>
