<?xml version="1.0" encoding="utf-8"?>
<!-- Generator: Adobe Illustrator 25.2.1, SVG Export Plug-In . SVG Version: 6.00 Build 0)  -->
<svg version="1.1" xmlns="http://www.w3.org/2000/svg" xmlns:xlink="http://www.w3.org/1999/xlink" x="0px" y="0px"
	 viewBox="0 0 100 100" style="enable-background:new 0 0 100 100;" xml:space="preserve">
<style type="text/css">
	.st0{fill:none;stroke:#000000;stroke-width:5;stroke-linecap:round;stroke-linejoin:round;stroke-miterlimit:10;}
</style>
<g id="Capa_1">
</g>
<g id="Capa_2">
	<g>
		<path d="M85.74,68.16C85.73,68.16,85.73,68.16,85.74,68.16C85.73,68.16,85.73,68.16,85.74,68.16
			C85.73,68.16,85.73,68.16,85.74,68.16 M65.74,68.27c0.01,0,0.02,0.01,0.03,0.01c0,0.01-0.01,0.01-0.01,0.01
			C65.75,68.29,65.75,68.28,65.74,68.27 M81.38,87.8c0,0.02,0,0.03,0,0.05c-0.01-0.01-0.02-0.02-0.04-0.03
			C81.36,87.81,81.37,87.8,81.38,87.8 M75.8,52.73c-0.97,0-1.92,0.06-2.86,0.17h-0.01l-1.41,8.12c-0.28,1.6-1.67,2.67-3.18,2.67
			c-0.42,0-0.86-0.08-1.28-0.27L58.9,59.9c-1.09,1.13-2.07,2.36-2.92,3.69l5.37,7.11c1.25,1.66,0.62,4.06-1.29,4.89l-7.63,3.31
			c0.19,1.68,0.55,3.3,1.08,4.85l8.99,0.38c2.08,0.09,3.53,2.1,2.96,4.1l-2.26,7.88c1.52,0.97,3.16,1.77,4.89,2.36l5.19-6.59
			c0.65-0.82,1.59-1.23,2.53-1.23s1.88,0.41,2.53,1.23l5.19,6.59c1.8-0.62,3.5-1.46,5.07-2.48l-2.14-8.15
			c-0.53-2.02,0.97-3.99,3.05-4.04l8.64-0.17c0.51-1.54,0.86-3.15,1.05-4.8l-7.69-3.76c-1.87-0.91-2.39-3.34-1.07-4.94l5.3-6.4
			c-0.85-1.36-1.84-2.62-2.95-3.77l-8.62,3.44c-0.4,0.16-0.8,0.23-1.2,0.23c-1.54,0-2.95-1.12-3.18-2.76l-1.15-7.98
			C77.69,52.79,76.75,52.73,75.8,52.73L75.8,52.73z M75.8,84.08c-4.32,0-7.82-3.5-7.82-7.82c0-4.32,3.5-7.82,7.82-7.82
			s7.82,3.5,7.82,7.82C83.62,80.57,80.12,84.08,75.8,84.08L75.8,84.08z"/>
	</g>
	<line class="st0" x1="50" y1="76.26" x2="13.47" y2="76.26"/>
	<line class="st0" x1="12.04" y1="9.06" x2="12.04" y2="76.26"/>
	<polyline class="st0" points="56,55.04 56,23.91 55.29,23.55 12.75,9.06 	"/>
	<g>
		<line class="st0" x1="21.07" y1="29.73" x2="29.15" y2="29.73"/>
		<line class="st0" x1="38.89" y1="29.73" x2="46.97" y2="29.73"/>
		<line class="st0" x1="21.07" y1="39.12" x2="29.15" y2="39.12"/>
		<line class="st0" x1="38.89" y1="39.12" x2="46.97" y2="39.12"/>
		<line class="st0" x1="21.07" y1="47.93" x2="29.15" y2="47.93"/>
		<line class="st0" x1="38.89" y1="47.93" x2="46.97" y2="47.93"/>
	</g>
	<rect x="24.4" y="59.16" class="st0" width="19.61" height="17.1"/>
	<line class="st0" x1="34.2" y1="59.86" x2="34.2" y2="75.61"/>
</g>
</svg>
