<?xml version="1.0" encoding="UTF-8"?>
<!DOCTYPE svg PUBLIC "-//W3C//DTD SVG 1.1//EN" "http://www.w3.org/Graphics/SVG/1.1/DTD/svg11.dtd">
<!-- Creator: CorelDRAW X8 -->
<svg xmlns="http://www.w3.org/2000/svg" xml:space="preserve" width="50mm" height="50mm" version="1.1" style="shape-rendering:geometricPrecision; text-rendering:geometricPrecision; image-rendering:optimizeQuality; fill-rule:evenodd; clip-rule:evenodd"
viewBox="0 0 5000 5000"
 xmlns:xlink="http://www.w3.org/1999/xlink">
 <defs>
  <style type="text/css">
   <![CDATA[
    .fil1 {fill:#00204A}
    .fil0 {fill:#00204A;fill-rule:nonzero}
   ]]>
  </style>
 </defs>
 <g id="Capa_x0020_1">
  <metadata id="CorelCorpID_0Corel-Layer"/>
  <g id="_2791164808288">
   <g>
    <path class="fil0" d="M1875 3005c0,-47 38,-85 86,-85 47,0 86,38 86,85l-172 0zm625 454l0 172 0 0 -32 -1 -32 -3 -31 -4 -31 -5 -30 -7 -30 -8 -29 -10 -28 -12 -28 -12 -27 -14 -26 -15 -26 -16 -24 -18 -24 -18 -22 -20 -22 -20 -21 -22 -19 -23 -19 -23 -17 -25 -17 -25 -15 -27 -13 -26 -13 -28 -11 -29 -10 -29 -8 -29 -7 -31 -6 -30 -4 -32 -2 -31 -1 -33 172 0 0 24 2 23 3 23 4 22 5 22 6 21 7 21 8 21 9 20 10 19 11 19 12 19 13 18 13 17 14 16 15 16 16 15 17 14 17 14 18 12 18 12 19 11 20 10 20 9 20 8 21 7 22 7 22 5 22 4 23 2 23 2 23 1 0 0zm453 -454l172 0 -1 33 -2 31 -4 32 -5 30 -7 31 -9 29 -10 29 -11 29 -12 28 -14 26 -15 27 -17 25 -17 25 -19 23 -19 23 -21 22 -22 20 -22 20 -24 18 -24 18 -26 16 -26 15 -27 14 -28 12 -28 12 -29 10 -30 8 -30 7 -31 5 -31 4 -32 3 -32 1 0 -172 23 -1 24 -2 22 -2 22 -4 22 -5 22 -7 21 -7 20 -8 21 -9 19 -10 19 -11 18 -12 18 -12 17 -14 17 -14 16 -15 15 -16 14 -16 13 -17 13 -18 12 -19 11 -19 10 -19 9 -20 8 -21 7 -21 6 -21 5 -22 4 -22 3 -23 2 -23 0 -24zm0 0c0,-47 39,-85 86,-85 48,0 86,38 86,85l-172 0zm803 1c-1,-47 38,-86 85,-86 48,-1 86,37 87,85l-172 1zm32 456l0 -172 -82 60 3 -10 3 -10 3 -10 3 -10 2 -11 3 -10 2 -10 3 -11 2 -10 2 -11 2 -10 3 -11 1 -10 2 -11 2 -10 2 -11 1 -11 2 -11 1 -11 1 -10 1 -11 1 -11 1 -11 1 -11 1 -12 1 -11 0 -11 0 -11 1 -12 0 -11 0 -11 0 -12 172 -1 0 13 0 13 0 13 -1 13 0 13 -1 13 -1 13 0 13 -1 12 -1 13 -2 13 -1 12 -1 13 -2 12 -2 13 -1 12 -2 13 -2 12 -2 12 -3 12 -2 12 -2 13 -3 12 -3 12 -2 12 -3 12 -3 11 -4 12 -3 12 -3 12 -4 11 -3 12 -82 61zm82 -61c-14,45 -62,71 -108,57 -45,-14 -70,-62 -56,-108l164 51zm-335 -111l253 0 0 172 -253 0 -82 -111 82 -61zm0 172c-47,0 -86,-39 -86,-86 0,-48 39,-86 86,-86l0 172zm22 -44l-121 121 -18 -96 1 -3 2 -3 1 -2 1 -3 1 -3 2 -3 1 -3 1 -3 1 -3 2 -3 1 -3 1 -3 1 -2 1 -3 1 -3 1 -3 1 -3 1 -3 1 -3 2 -2 1 -3 1 -3 1 -3 0 -3 1 -3 1 -3 1 -2 1 -3 1 -3 1 -3 1 -3 1 -3 165 49 -2 4 -1 3 -1 4 -1 4 -1 3 -1 4 -1 3 -2 4 -1 4 -1 3 -1 4 -2 3 -1 4 -1 4 -2 3 -1 4 -1 3 -2 4 -1 3 -1 4 -2 3 -1 4 -2 3 -1 4 -2 4 -1 3 -2 4 -1 3 -2 3 -1 4 -2 3 -1 4 -18 -96zm18 96c-20,43 -71,62 -114,43 -43,-20 -62,-70 -43,-114l157 71zm37 202l-176 -177 121 -121 176 176 15 102 -136 20zm121 -122c34,34 34,88 0,122 -34,33 -88,33 -121,0l121 -122zm-643 645l122 -121 -104 -14 19 -11 19 -11 18 -12 19 -12 18 -12 18 -12 17 -13 18 -13 17 -13 17 -13 16 -14 17 -14 16 -14 16 -14 16 -15 15 -15 15 -15 15 -16 15 -16 15 -16 14 -16 14 -17 14 -17 13 -18 13 -17 13 -18 13 -19 12 -19 12 -19 12 -19 12 -20 11 -20 151 82 -13 23 -13 23 -14 22 -14 22 -14 21 -14 21 -15 21 -15 20 -15 20 -16 20 -16 19 -16 19 -17 18 -17 18 -17 18 -17 18 -18 17 -18 16 -18 17 -18 16 -19 16 -19 15 -19 15 -19 15 -20 14 -20 14 -20 14 -20 14 -20 13 -21 13 -21 13 -21 12 -104 -14zm104 14c-41,24 -93,10 -117,-31 -24,-42 -10,-94 31,-118l86 149zm-135 -289l153 154 -122 121 -153 -153 17 -135 105 13zm-122 122c-33,-34 -33,-88 0,-122 34,-33 88,-33 122,0l-122 122zm17 0l-172 0 58 -82 4 -1 4 -1 3 -1 4 -2 4 -1 3 -2 4 -1 4 -1 3 -2 4 -1 4 -2 3 -1 4 -2 3 -2 4 -1 3 -2 4 -2 3 -1 4 -2 3 -2 4 -2 3 -1 4 -2 3 -2 4 -2 3 -2 4 -2 3 -2 4 -2 3 -2 3 -2 4 -2 89 148 -5 2 -4 3 -5 2 -4 3 -4 2 -5 3 -4 2 -5 3 -4 2 -5 2 -4 3 -5 2 -4 2 -5 2 -4 3 -5 2 -4 2 -5 2 -5 2 -4 2 -5 2 -4 2 -5 2 -5 2 -4 2 -5 2 -5 1 -5 2 -4 2 -5 2 -5 1 -5 2 58 -81zm-58 81c-45,15 -94,-8 -109,-53 -15,-45 9,-94 53,-110l56 163zm-114 129l0 -210 172 0 0 210 -60 82 -112 -82zm172 0c0,47 -38,86 -86,86 -47,0 -86,-39 -86,-86l172 0zm-909 -1l172 0 -65 -83 23 6 24 5 23 5 24 5 23 5 23 4 22 3 23 4 23 2 22 3 22 2 22 2 22 1 22 1 22 1 21 0 22 0 21 0 21 -1 21 -1 21 -2 21 -2 21 -2 21 -3 20 -3 21 -4 20 -4 20 -4 20 -5 20 -5 20 -5 20 -6 51 164 -23 7 -24 6 -23 6 -23 6 -24 5 -24 4 -23 4 -24 4 -24 3 -24 3 -24 2 -24 2 -24 2 -24 1 -25 0 -24 0 -25 0 -25 -1 -24 -1 -25 -2 -25 -2 -25 -2 -25 -3 -25 -3 -25 -4 -26 -4 -25 -4 -26 -5 -25 -5 -26 -6 -26 -6 -26 -6 -64 -84zm64 84c-45,-12 -73,-59 -62,-105 12,-46 59,-74 105,-62l-43 167zm108 -263l0 179 -172 0 0 -179 103 -84 69 84zm-172 0c0,-47 38,-86 86,-86 47,0 86,39 86,86l-172 0zm16 13l-122 -121 100 -16 3 1 4 2 3 2 3 1 4 2 4 2 3 1 3 2 4 1 3 2 4 1 3 2 4 1 3 2 3 1 4 1 3 1 4 2 3 1 3 1 4 1 3 1 4 1 3 1 4 1 3 1 3 1 4 1 3 1 4 1 3 1 3 0 -35 168 -5 -1 -6 -1 -5 -1 -5 -1 -5 -2 -5 -1 -5 -1 -5 -2 -5 -1 -5 -2 -5 -2 -4 -1 -5 -2 -5 -1 -5 -2 -5 -2 -4 -2 -5 -2 -5 -1 -4 -2 -5 -2 -4 -2 -5 -2 -4 -2 -5 -2 -5 -2 -4 -2 -4 -2 -5 -3 -4 -2 -5 -2 -4 -2 100 -16zm-100 16c-42,-21 -59,-73 -38,-116 22,-42 73,-59 116,-37l-78 153zm-146 -13l124 -124 122 121 -124 124 -104 14 -18 -135zm122 121c-34,34 -88,34 -122,0 -33,-33 -33,-88 0,-121l122 121zm-654 -633l121 121 15 -102 11 20 11 19 12 18 11 19 13 18 12 17 13 18 13 17 14 16 14 17 14 16 15 16 14 15 15 16 16 15 16 15 16 14 16 15 16 14 17 14 17 13 18 14 17 13 18 13 18 13 18 12 19 13 19 12 19 12 19 12 19 12 20 11 -86 149 -22 -13 -21 -12 -20 -13 -21 -14 -21 -13 -20 -14 -20 -13 -20 -15 -20 -14 -20 -15 -19 -15 -19 -15 -19 -16 -19 -16 -18 -16 -18 -16 -18 -17 -18 -18 -17 -17 -17 -18 -17 -18 -16 -19 -16 -19 -16 -19 -16 -20 -15 -21 -14 -20 -15 -21 -14 -22 -13 -21 -13 -23 -13 -22 15 -102zm-15 102c-23,-42 -7,-94 34,-117 42,-23 94,-7 117,34l-151 83zm249 -94l-113 113 -121 -121 113 -114 136 19 -15 103zm-121 -122c33,-33 88,-33 121,0 34,34 34,88 0,122l-121 -122zm-21 -45l0 -172 82 60 2 6 2 7 2 6 2 6 2 7 2 6 2 6 3 6 2 6 2 5 2 6 3 6 2 6 2 5 3 6 2 5 2 6 3 5 2 5 2 6 3 5 2 5 3 5 2 5 3 5 2 5 3 5 2 5 3 5 2 5 3 4 3 5 -150 84 -4 -6 -3 -5 -3 -6 -3 -6 -3 -6 -3 -6 -3 -6 -3 -6 -3 -6 -3 -6 -3 -6 -3 -6 -3 -7 -2 -6 -3 -6 -3 -7 -3 -6 -3 -7 -2 -7 -3 -6 -3 -7 -2 -7 -3 -7 -2 -7 -3 -7 -3 -7 -2 -7 -3 -7 -2 -7 -2 -8 -3 -7 -2 -7 82 60zm-82 -60c-14,-46 11,-94 56,-108 45,-14 93,11 108,56l-164 52zm-80 -112l162 0 0 172 -162 0 -82 -63 82 -109zm0 172c-47,0 -86,-39 -86,-86 0,-48 39,-86 86,-86l0 172zm-141 -455l172 -1 0 11 1 10 0 11 0 11 1 11 0 11 1 11 1 10 1 11 1 11 1 11 1 11 2 11 1 10 1 11 2 11 2 11 2 11 1 10 2 11 2 11 3 11 2 11 2 11 3 10 2 11 3 11 2 11 3 11 3 11 3 11 3 10 -165 47 -4 -12 -3 -12 -3 -12 -3 -12 -3 -12 -3 -12 -3 -12 -3 -13 -2 -12 -3 -12 -2 -12 -3 -12 -2 -13 -2 -12 -2 -12 -2 -12 -2 -13 -1 -12 -2 -12 -1 -12 -2 -13 -1 -12 -1 -12 -1 -13 -1 -12 -1 -12 -1 -13 0 -12 -1 -13 0 -12 -1 -12 0 -13zm0 0c0,-47 38,-86 86,-86 47,-1 86,37 86,85l-172 1z"/>
   </g>
   <g>
    <path class="fil1" d="M2500 653c268,0 485,217 485,484 0,268 -217,485 -485,485 -268,0 -485,-217 -485,-485 0,-267 217,-484 485,-484z"/>
    <path id="1" class="fil0" d="M3113 1137l-257 0 0 0 -1 -18 -1 -18 -2 -18 -4 -18 -4 -17 -4 -17 -6 -16 -6 -16 -7 -16 -8 -15 -9 -15 -9 -15 -10 -14 -11 -13 -11 -13 -12 -12 -12 -12 -13 -11 -13 -11 -14 -10 -15 -9 -15 -9 -15 -7 -16 -8 -16 -6 -16 -5 -17 -5 -17 -4 -18 -3 -17 -3 -19 -1 -18 0 0 -258 31 1 32 2 30 4 31 5 29 7 29 9 29 9 28 11 27 12 27 14 25 15 25 16 24 17 23 18 23 19 21 21 20 21 19 22 19 23 17 24 16 25 14 26 14 26 12 28 11 27 10 29 8 29 7 30 5 30 4 31 3 31 0 31 0 0zm-613 614l0 -258 0 0 18 0 19 -2 17 -2 18 -3 17 -4 17 -5 16 -5 16 -7 16 -7 15 -8 15 -8 15 -10 14 -10 13 -10 13 -11 12 -12 12 -12 11 -13 11 -14 10 -14 9 -14 9 -15 8 -16 7 -15 6 -16 6 -17 4 -17 4 -17 4 -17 2 -18 1 -18 1 -19 257 0 0 32 -3 31 -4 31 -5 30 -7 29 -8 30 -10 28 -11 28 -12 27 -14 27 -14 25 -16 25 -17 24 -19 23 -19 23 -20 21 -21 20 -23 20 -23 18 -24 17 -25 16 -25 15 -27 13 -27 12 -28 11 -29 10 -29 8 -29 7 -31 6 -30 4 -32 2 -31 1 0 0zm-613 -614l257 0 0 0 1 19 1 18 2 18 4 17 4 17 4 17 6 17 6 16 7 15 8 16 9 15 9 14 10 14 11 14 11 13 12 12 12 12 13 11 13 10 14 10 15 10 15 8 15 8 16 7 16 7 16 5 17 5 17 4 18 3 17 2 19 2 18 0 0 258 -31 -1 -32 -2 -30 -4 -31 -6 -29 -7 -29 -8 -29 -10 -28 -11 -27 -12 -27 -13 -25 -15 -25 -16 -24 -17 -23 -18 -23 -20 -21 -20 -20 -21 -19 -23 -19 -23 -17 -24 -16 -25 -14 -25 -14 -27 -12 -27 -11 -28 -10 -28 -8 -30 -7 -29 -5 -30 -4 -31 -3 -31 0 -32 0 0zm613 -613l0 258 0 0 -18 0 -19 1 -17 3 -18 3 -17 4 -17 5 -16 5 -16 6 -16 8 -15 7 -15 9 -15 9 -14 10 -13 11 -13 11 -12 12 -12 12 -11 13 -11 13 -10 14 -9 15 -9 15 -8 15 -7 16 -6 16 -6 16 -4 17 -4 17 -4 18 -2 18 -1 18 -1 18 -257 0 0 -31 3 -31 4 -31 5 -30 7 -30 8 -29 10 -29 11 -27 12 -28 14 -26 14 -26 16 -25 17 -24 19 -23 19 -22 20 -21 21 -21 23 -19 23 -18 24 -17 25 -16 25 -15 27 -14 27 -12 28 -11 29 -9 29 -9 29 -7 31 -5 30 -4 32 -2 31 -1 0 0z"/>
   </g>
   <g>
    <path class="fil0" d="M1861 1341l-215 0 0 0 0 -16 -1 -16 -2 -16 -3 -16 -4 -15 -4 -15 -5 -15 -5 -14 -7 -14 -7 -14 -7 -13 -9 -13 -9 -13 -9 -12 -10 -11 -11 -11 -11 -11 -11 -10 -12 -9 -13 -9 -12 -8 -14 -8 -13 -7 -14 -6 -15 -6 -15 -5 -15 -4 -15 -4 -15 -2 -16 -2 -16 -2 -17 0 0 -215 27 1 27 2 27 3 26 5 26 6 25 7 25 9 24 9 24 11 23 12 22 12 22 14 21 15 20 16 19 17 18 17 18 19 17 19 15 20 15 21 14 21 13 23 12 23 10 23 10 24 8 25 7 25 6 26 5 26 3 27 3 27 0 27 0 0zm-532 532l0 -214 0 0 17 -1 16 -1 16 -2 15 -3 15 -3 15 -5 15 -4 15 -6 14 -6 13 -7 14 -8 12 -8 13 -9 12 -10 11 -10 11 -10 11 -11 10 -12 9 -12 9 -12 9 -13 7 -13 7 -14 7 -14 5 -14 5 -15 4 -15 4 -16 3 -15 2 -16 1 -16 0 -17 215 0 0 28 -3 27 -3 26 -5 26 -6 26 -7 25 -8 25 -10 24 -10 24 -12 23 -13 22 -14 22 -15 21 -15 20 -17 19 -18 19 -18 17 -19 17 -20 16 -21 14 -22 14 -22 13 -23 12 -24 11 -24 9 -25 8 -25 8 -26 6 -26 4 -27 4 -27 2 -27 0 0 0zm-532 -532l215 0 0 0 0 17 1 16 2 16 3 15 4 16 4 15 5 15 6 14 6 14 7 14 8 13 8 13 9 12 9 12 10 12 11 11 11 10 11 10 12 10 13 9 13 8 13 8 14 7 14 6 14 6 15 4 15 5 15 3 16 3 16 2 16 1 16 1 0 214 -27 0 -27 -2 -27 -4 -26 -4 -26 -6 -25 -8 -25 -8 -24 -9 -24 -11 -23 -12 -22 -13 -22 -14 -20 -14 -20 -16 -20 -17 -18 -17 -18 -19 -17 -19 -15 -20 -15 -21 -14 -22 -13 -22 -12 -23 -10 -24 -10 -24 -8 -25 -7 -25 -6 -26 -5 -26 -3 -26 -2 -27 -1 -28 0 0zm532 -532l0 215 0 0 -16 0 -16 2 -16 2 -16 2 -15 4 -15 4 -15 5 -14 6 -14 6 -14 7 -13 8 -13 8 -13 9 -12 9 -11 10 -11 11 -11 11 -10 11 -9 12 -9 13 -8 13 -8 13 -7 14 -6 14 -6 14 -5 15 -4 15 -4 15 -3 16 -2 16 -1 16 0 16 -215 0 1 -27 2 -27 3 -27 5 -26 6 -26 7 -25 8 -25 10 -24 10 -23 12 -23 13 -23 14 -21 15 -21 15 -20 17 -19 18 -19 18 -17 20 -17 20 -16 20 -15 22 -14 22 -12 23 -12 24 -11 24 -9 25 -9 25 -7 26 -6 26 -5 27 -3 27 -2 27 -1 0 0z"/>
   </g>
   <g>
    <path class="fil0" d="M1342 2897l-1028 0 0 -215 1028 0 108 108 -108 107zm108 -107l0 107 -108 0 108 -107zm282 -614l42 -210 34 197 -20 13 -19 12 -19 14 -19 14 -18 15 -18 15 -17 16 -16 16 -17 17 -15 17 -15 18 -15 18 -14 18 -13 20 -13 19 -12 20 -11 20 -11 21 -10 21 -9 22 -9 22 -8 22 -8 22 -6 23 -6 23 -6 23 -4 24 -4 24 -3 24 -2 24 -1 25 0 25 -215 0 0 -32 2 -32 3 -32 4 -31 4 -31 6 -31 7 -30 7 -30 9 -30 10 -29 10 -28 12 -29 12 -28 13 -27 14 -27 15 -26 16 -26 16 -25 17 -25 18 -24 19 -24 19 -23 20 -22 21 -21 21 -21 23 -21 22 -19 24 -19 24 -18 24 -18 25 -16 26 -16 34 197zm42 -210l275 54 -241 143 -34 -197zm-163 199l0 -215 0 0 6 0 5 0 5 0 5 0 5 0 5 0 6 1 5 0 5 0 5 0 5 1 5 0 5 0 5 1 6 0 5 1 5 0 5 1 5 0 5 1 5 1 5 0 5 1 5 1 5 1 5 0 5 1 5 1 5 1 5 1 5 1 5 1 -42 210 -4 0 -3 -1 -4 -1 -4 0 -3 -1 -4 -1 -4 0 -4 -1 -3 0 -4 -1 -4 0 -3 -1 -4 0 -4 -1 -4 0 -4 0 -3 -1 -4 0 -4 0 -4 -1 -4 0 -3 0 -4 0 -4 -1 -4 0 -4 0 -3 0 -4 0 -4 0 -4 0 -4 0 -4 0 0 0zm-564 -215l564 0 0 215 -564 0 0 0 0 -215zm-733 732l0 215 -107 -107 1 -43 3 -43 6 -42 7 -41 10 -41 11 -40 13 -39 15 -38 17 -37 19 -36 20 -35 22 -34 23 -33 25 -32 27 -30 28 -30 29 -27 30 -27 32 -25 33 -23 34 -22 35 -20 36 -19 37 -17 39 -15 39 -13 40 -12 40 -9 41 -7 42 -6 43 -3 43 -1 0 215 -32 0 -32 3 -31 4 -31 5 -30 7 -29 9 -29 10 -29 11 -27 12 -27 14 -26 15 -26 17 -24 17 -24 19 -23 20 -21 20 -21 22 -20 23 -19 24 -17 24 -16 26 -16 26 -13 27 -13 27 -11 29 -10 29 -8 29 -7 30 -6 31 -4 31 -2 32 -1 32 -108 -108zm0 108l0 0 0 0 0 0 0 -108 0 108zm0 107l-107 0 0 -107 107 107z"/>
   </g>
   <g>
    <path class="fil1" d="M1342 2768l2316 0 0 0c0,-459 -376,-835 -836,-835l-644 0c-460,0 -836,376 -836,835l0 0z"/>
    <path id="1" class="fil0" d="M3658 2897l-2316 0 0 -258 2316 0 129 129 -129 129zm129 -129l0 129 -129 0 129 -129zm-129 0l0 0 0 0 0 0 -129 0 129 0zm-836 -707l0 -257 0 0 49 1 49 4 48 6 48 8 46 11 46 13 45 16 44 17 43 19 41 22 41 23 39 25 37 27 37 29 35 30 33 32 32 33 31 35 28 37 27 38 25 39 24 40 21 42 19 42 18 44 15 45 13 46 11 46 8 48 7 48 3 49 2 49 -258 0 -1 -36 -3 -36 -4 -35 -7 -35 -8 -34 -9 -33 -11 -33 -13 -32 -14 -31 -16 -31 -17 -29 -18 -29 -20 -28 -21 -26 -22 -26 -24 -25 -25 -23 -25 -23 -27 -21 -28 -20 -29 -18 -29 -17 -31 -16 -31 -14 -32 -13 -33 -11 -33 -9 -34 -8 -35 -6 -35 -5 -36 -3 -36 -1 0 0zm-644 -257l644 0 0 257 -644 0 0 0 0 -257zm-836 835l0 258 -129 -129 2 -49 3 -49 7 -48 8 -48 11 -46 13 -46 15 -45 18 -44 19 -42 21 -42 24 -40 25 -39 27 -38 28 -37 31 -35 32 -33 33 -32 35 -30 37 -29 37 -27 40 -25 40 -23 41 -22 43 -19 44 -17 45 -16 46 -13 46 -11 48 -8 48 -6 49 -4 49 -1 0 257 -36 1 -36 3 -35 5 -35 6 -34 8 -33 9 -33 11 -32 13 -31 14 -31 16 -29 17 -29 18 -28 20 -27 21 -25 23 -25 23 -24 25 -22 26 -21 26 -20 28 -18 29 -17 29 -16 31 -14 31 -13 32 -11 33 -9 33 -8 34 -7 35 -4 35 -3 36 -1 36 -129 -129zm0 129l0 0 0 0 0 0 0 -129 0 129zm0 129l-129 0 0 -129 129 129z"/>
   </g>
   <g>
    <path class="fil0" d="M3139 1341l0 0 0 -27 3 -27 3 -27 5 -26 6 -26 7 -25 8 -25 10 -24 10 -23 12 -23 13 -23 14 -21 15 -21 15 -20 17 -19 18 -19 18 -17 19 -17 20 -16 21 -15 22 -14 22 -12 23 -12 24 -11 24 -9 25 -9 25 -7 26 -6 26 -5 27 -3 27 -2 27 -1 0 215 -17 0 -16 2 -16 2 -15 2 -15 4 -15 4 -15 5 -15 6 -14 6 -13 7 -14 8 -12 8 -13 9 -12 9 -11 10 -11 11 -11 11 -10 11 -9 12 -9 13 -9 13 -7 13 -7 14 -7 14 -5 14 -5 15 -4 15 -4 15 -3 16 -2 16 -1 16 0 16 0 0 -215 0zm532 532l0 0 -27 0 -27 -2 -27 -4 -26 -4 -26 -6 -25 -8 -25 -8 -24 -9 -24 -11 -23 -12 -22 -13 -22 -14 -21 -14 -20 -16 -19 -17 -18 -17 -18 -19 -17 -19 -15 -20 -15 -21 -14 -22 -13 -22 -12 -23 -10 -24 -10 -24 -8 -25 -7 -25 -6 -26 -5 -26 -3 -26 -3 -27 0 -28 215 0 0 17 1 16 2 16 3 15 4 16 4 15 5 15 5 14 7 14 7 14 7 13 9 13 9 12 9 12 10 12 11 11 11 10 11 10 12 10 13 9 12 8 14 8 13 7 14 6 15 6 15 4 15 5 15 3 15 3 16 2 16 1 17 1 0 0 0 214zm532 -532l0 0 -1 28 -2 27 -3 26 -5 26 -6 26 -7 25 -8 25 -10 24 -10 24 -12 23 -13 22 -14 22 -15 21 -15 20 -17 19 -18 19 -18 17 -20 17 -20 16 -20 14 -22 14 -22 13 -23 12 -24 11 -24 9 -25 8 -25 8 -26 6 -26 4 -27 4 -27 2 -27 0 0 -214 16 -1 17 -1 15 -2 16 -3 15 -3 15 -5 15 -4 14 -6 14 -6 14 -7 13 -8 13 -8 13 -9 12 -10 11 -10 11 -10 11 -11 10 -12 9 -12 9 -12 8 -13 8 -13 7 -14 6 -14 6 -14 5 -15 4 -15 4 -16 3 -15 2 -16 1 -16 0 -17 0 0 215 0zm-532 -532l0 0 27 1 27 2 27 3 26 5 26 6 25 7 25 9 24 9 24 11 23 12 22 12 22 14 20 15 20 16 20 17 18 17 18 19 17 19 15 20 15 21 14 21 13 23 12 23 10 23 10 24 8 25 7 25 6 26 5 26 3 27 2 27 1 27 -215 0 0 -16 -1 -16 -2 -16 -3 -16 -4 -15 -4 -15 -5 -15 -6 -14 -6 -14 -7 -14 -8 -13 -8 -13 -9 -13 -9 -12 -10 -11 -11 -11 -11 -11 -11 -10 -12 -9 -13 -9 -13 -8 -13 -8 -14 -7 -14 -6 -14 -6 -15 -5 -15 -4 -15 -4 -16 -2 -15 -2 -17 -2 -16 0 0 0 0 -215z"/>
   </g>
   <g>
    <path class="fil0" d="M3658 2897l-108 -107 108 -108 1028 0 0 215 -1028 0zm0 0l-108 0 0 -107 108 107zm-390 -721l34 -197 26 16 25 16 24 18 24 18 24 19 22 19 23 21 21 21 21 21 20 22 19 23 19 24 18 24 17 25 16 25 16 26 15 26 14 27 13 27 12 28 12 29 10 28 10 29 9 30 7 30 7 30 6 31 5 31 3 31 3 32 2 32 0 32 -215 0 0 -25 -1 -25 -2 -24 -3 -24 -4 -24 -4 -24 -6 -23 -6 -23 -6 -23 -8 -22 -8 -22 -9 -22 -9 -22 -10 -21 -11 -21 -11 -20 -12 -20 -13 -19 -13 -20 -14 -18 -15 -18 -15 -18 -15 -17 -17 -17 -16 -16 -17 -16 -18 -15 -18 -15 -19 -14 -19 -14 -19 -12 -20 -13 34 -197 42 210zm-76 -13l-241 -143 275 -54 -34 197zm197 2l0 0 -4 0 -4 0 -4 0 -4 0 -4 0 -3 0 -4 0 -4 0 -4 1 -4 0 -3 0 -4 0 -4 1 -4 0 -4 0 -3 1 -4 0 -4 0 -4 1 -3 0 -4 1 -4 0 -4 1 -3 0 -4 1 -4 0 -4 1 -3 1 -4 0 -4 1 -3 1 -4 0 -42 -210 5 -1 5 -1 5 -1 5 -1 5 -1 5 -1 5 0 5 -1 5 -1 5 -1 5 0 5 -1 5 -1 5 0 5 -1 5 0 6 -1 5 0 5 -1 5 0 5 0 5 -1 5 0 5 0 5 0 6 -1 5 0 5 0 5 0 5 0 5 0 6 0 0 0 0 215zm564 -215l0 215 -564 0 0 -215 564 0zm733 732l-108 108 -1 -32 -2 -32 -4 -31 -6 -31 -7 -30 -8 -29 -10 -29 -11 -29 -13 -27 -13 -27 -16 -26 -16 -26 -17 -24 -19 -24 -20 -23 -21 -22 -21 -20 -23 -20 -24 -19 -24 -17 -26 -17 -26 -15 -27 -14 -27 -12 -29 -11 -29 -10 -29 -9 -30 -7 -31 -5 -31 -4 -32 -3 -32 0 0 -215 43 1 43 3 42 6 41 7 40 9 40 12 39 13 39 15 37 17 36 19 35 20 34 22 33 23 32 25 30 27 29 27 28 30 27 30 25 32 23 33 22 34 20 35 19 36 17 37 15 38 13 39 11 40 10 41 7 41 6 42 3 43 1 43 -107 107 0 -215zm0 108l0 0 0 0 0 0 0 107 0 -107zm107 0l0 107 -107 0 107 -107z"/>
   </g>
  </g>
 </g>
</svg>
