<?xml version="1.0" encoding="utf-8"?>
<!-- Generator: Adobe Illustrator 25.2.1, SVG Export Plug-In . SVG Version: 6.00 Build 0)  -->
<svg version="1.1" xmlns="http://www.w3.org/2000/svg" xmlns:xlink="http://www.w3.org/1999/xlink" x="0px" y="0px"
	 viewBox="0 0 100 100" style="enable-background:new 0 0 100 100;" xml:space="preserve">
<style type="text/css">
	.st0{fill:none;stroke:#FFFFFF;stroke-width:6;stroke-linecap:round;stroke-linejoin:round;stroke-miterlimit:10;}
	.st1{fill:none;stroke:#FFFFFF;stroke-width:6;stroke-miterlimit:10;}
	.st2{fill:#FFFFFF;}
</style>
<g id="Capa_1">
</g>
<g id="Capa_2">
	<g>
		<path class="st0" d="M4.82,66.59c7.15,12.32,27.42,12.32,34.33,12.32c2.37,0,4.59-0.04,6.68-0.14"/>
		<path class="st1" d="M57.8,24.61c-0.22,10.25-8.95,18.28-18.76,18.23c-9.74-0.06-18.32-8.07-18.55-18.23
			C20.27,14.13,29.03,5.52,39.15,5.52C49.26,5.52,58.03,14.11,57.8,24.61z"/>
		<path class="st0" d="M4.82,66.59C10.09,55.71,15.8,52.3,20.04,51.21c6.18-1.6,8.57,1.85,19.36,1.77
			c10.74-0.07,12.89-2.87,19.21-2.07c1.56,0.2,3.23,0.76,4.97,1.82"/>
		<path class="st0" d="M63.59,52.73C63.59,52.73,63.59,52.73,63.59,52.73"/>
		<g>
			<path class="st2" d="M75.8,52.73c-0.97,0-1.92,0.06-2.86,0.17h-0.01l-1.41,8.12c-0.28,1.6-1.67,2.67-3.18,2.67
				c-0.42,0-0.86-0.08-1.28-0.27L58.9,59.9c-1.09,1.13-2.07,2.36-2.92,3.69l5.37,7.11c1.25,1.66,0.62,4.06-1.29,4.89l-7.63,3.31
				c0.19,1.68,0.55,3.3,1.08,4.85l8.99,0.38c2.08,0.09,3.53,2.1,2.96,4.1l-2.26,7.88c1.52,0.97,3.16,1.77,4.89,2.36l5.19-6.59
				c0.65-0.82,1.59-1.23,2.53-1.23s1.88,0.41,2.53,1.23l5.19,6.59c1.8-0.62,3.5-1.46,5.07-2.48l-2.14-8.15
				c-0.53-2.02,0.97-3.99,3.05-4.04l8.64-0.17c0.51-1.54,0.86-3.15,1.05-4.8l-7.69-3.76c-1.87-0.91-2.39-3.34-1.07-4.94l5.3-6.4
				c-0.85-1.36-1.84-2.62-2.95-3.77l-8.62,3.44c-0.4,0.16-0.8,0.23-1.2,0.23c-1.54,0-2.95-1.12-3.18-2.76l-1.15-7.98
				C77.69,52.79,76.75,52.73,75.8,52.73L75.8,52.73z M75.8,84.08c-4.32,0-7.82-3.5-7.82-7.82s3.5-7.82,7.82-7.82
				c4.32,0,7.82,3.5,7.82,7.82S80.12,84.08,75.8,84.08L75.8,84.08z"/>
		</g>
	</g>
</g>
</svg>
