<?xml version="1.0" encoding="utf-8"?>
<!-- Generator: Adobe Illustrator 25.2.1, SVG Export Plug-In . SVG Version: 6.00 Build 0)  -->
<svg version="1.1" id="Capa_2" xmlns="http://www.w3.org/2000/svg" xmlns:xlink="http://www.w3.org/1999/xlink" x="0px" y="0px"
	 viewBox="0 0 100 100" style="enable-background:new 0 0 100 100;" xml:space="preserve">
<style type="text/css">
	.st0{fill:none;stroke:#000000;stroke-width:5;stroke-miterlimit:10;}
</style>
<path class="st0" d="M81.19,48.97c-3.72-1.82-4.76-6.64-2.12-9.83L89.6,26.41c-1.69-2.7-3.66-5.22-5.86-7.5l-17.14,6.85
	c-3.85,1.54-8.12-0.93-8.71-5.03L55.6,4.85c-1.84-0.22-3.71-0.33-5.6-0.33c-1.92,0-3.81,0.11-5.69,0.34H44.3l-2.8,16.15
	c-0.72,4.08-5.05,6.42-8.86,4.78l-16.26-7.04c-2.17,2.25-4.12,4.7-5.81,7.34l10.67,14.15c2.49,3.31,1.24,8.08-2.57,9.73L3.51,56.56
	c0.37,3.34,1.1,6.56,2.14,9.65l17.87,0.75c4.14,0.18,7.02,4.18,5.88,8.16l-4.49,15.66c3.02,1.92,6.29,3.51,9.73,4.7l10.32-13.11
	c2.57-3.25,7.49-3.25,10.06,0l10.32,13.11c3.58-1.24,6.95-2.9,10.08-4.93l-4.25-16.2c-1.05-4.01,1.92-7.94,6.06-8.02l17.17-0.33
	c1.01-3.06,1.72-6.26,2.08-9.55L81.19,48.97z M49.99,66.84c-8.59,0-15.55-6.96-15.55-15.55s6.96-15.55,15.55-15.55
	s15.55,6.96,15.55,15.55S58.58,66.84,49.99,66.84z"/>
</svg>
