<?xml version="1.0" encoding="UTF-8"?>
<!DOCTYPE svg PUBLIC "-//W3C//DTD SVG 1.1//EN" "http://www.w3.org/Graphics/SVG/1.1/DTD/svg11.dtd">
<!-- Creator: CorelDRAW X8 -->
<svg xmlns="http://www.w3.org/2000/svg" xml:space="preserve" width="35.5mm" height="29mm" version="1.1" style="shape-rendering:geometricPrecision; text-rendering:geometricPrecision; image-rendering:optimizeQuality; fill-rule:evenodd; clip-rule:evenodd"
viewBox="0 0 3550 2900"
 xmlns:xlink="http://www.w3.org/1999/xlink">
 <defs>
  <style type="text/css">
   <![CDATA[
    .str1 {stroke:#FEFEFE;stroke-width:160}
    .str0 {stroke:#FEFEFE;stroke-width:160;stroke-linecap:round;stroke-linejoin:round}
    .fil2 {fill:none}
    .fil1 {fill:#FEFEFE}
    .fil0 {fill:#FEFEFE;fill-rule:nonzero}
   ]]>
  </style>
 </defs>
 <g id="Capa_x0020_1">
  <metadata id="CorelCorpID_0Corel-Layer"/>
  <g>
   <path class="fil0" d="M1727 1828l-511 0 0 -61 511 0 30 31 -30 30zm0 -61l30 0 0 31 -30 -31zm-31 541l0 -510 61 0 0 510 -30 30 -31 -30zm61 0l0 30 -30 0 30 -30zm-541 -30l511 0 0 60 -511 0 -30 -30 30 -30zm0 60l-30 0 0 -30 30 30zm31 -540l0 510 -61 0 0 -510 30 -31 31 31zm-61 0l0 -31 30 0 -30 31z"/>
  </g>
  <g>
   <path class="fil0" d="M2334 1828l-511 0 0 -61 511 0 30 31 -30 30zm0 -61l30 0 0 31 -30 -31zm-31 541l0 -510 61 0 0 510 -30 30 -31 -30zm61 0l0 30 -30 0 30 -30zm-541 -30l511 0 0 60 -511 0 -30 -30 30 -30zm0 60l-30 0 0 -30 30 30zm31 -540l0 510 -61 0 0 -510 30 -31 31 31zm-61 0l0 -31 30 0 -30 31z"/>
  </g>
  <g>
   <path class="fil0" d="M2429 2376l-1308 0 0 -8 1308 0 4 4 -4 4zm0 -8l4 0 0 4 -4 -4zm-5 67l0 -63 9 0 0 63 -4 4 -5 -4zm9 0l0 4 -4 0 4 -4zm-1312 -4l1308 0 0 8 -1308 0 -4 -4 4 -4zm0 8l-4 0 0 -4 4 4zm5 -67l0 63 -9 0 0 -63 4 -4 5 4zm-9 0l0 -4 4 0 -4 4z"/>
   <polygon id="1" class="fil1" points="1121,2372 2429,2372 2429,2435 1121,2435 "/>
  </g>
  <g>
   <path class="fil0" d="M2429 2507l-1308 0 0 -9 1308 0 4 4 -4 5zm0 -9l4 0 0 4 -4 -4zm-5 67l0 -63 9 0 0 63 -4 5 -5 -5zm9 0l0 5 -4 0 4 -5zm-1312 -4l1308 0 0 9 -1308 0 -4 -5 4 -4zm0 9l-4 0 0 -5 4 5zm5 -68l0 63 -9 0 0 -63 4 -4 5 4zm-9 0l0 -4 4 0 -4 4z"/>
   <polygon id="1" class="fil1" points="1121,2502 2429,2502 2429,2565 1121,2565 "/>
  </g>
  <g>
   <path class="fil0" d="M1748 2390l0 144 -9 0 0 -144 4 -4 5 4zm-9 0l0 -4 4 0 -4 4zm68 5l-64 0 0 -9 64 0 4 4 -4 5zm0 -9l4 0 0 4 -4 -4zm-5 148l0 -144 9 0 0 144 -4 4 -5 -4zm9 0l0 4 -4 0 4 -4zm-68 -5l64 0 0 9 -64 0 -4 -4 4 -5zm0 9l-4 0 0 -4 4 4z"/>
   <polygon id="1" class="fil1" points="1743,2534 1743,2390 1807,2390 1807,2534 "/>
  </g>
  <g>
   <path class="fil0" d="M1227 2390l0 144 -9 0 0 -144 5 -4 4 4zm-9 0l0 -4 5 0 -5 4zm68 5l-63 0 0 -9 63 0 4 4 -4 5zm0 -9l4 0 0 4 -4 -4zm-5 148l0 -144 9 0 0 144 -4 4 -5 -4zm9 0l0 4 -4 0 4 -4zm-67 -5l63 0 0 9 -63 0 -5 -4 5 -5zm0 9l-5 0 0 -4 5 4z"/>
   <polygon id="1" class="fil1" points="1223,2534 1223,2390 1286,2390 1286,2534 "/>
  </g>
  <g>
   <path class="fil0" d="M2269 2390l0 144 -9 0 0 -144 4 -4 5 4zm-9 0l0 -4 4 0 -4 4zm67 5l-63 0 0 -9 63 0 5 4 -5 5zm0 -9l5 0 0 4 -5 -4zm-4 148l0 -144 9 0 0 144 -5 4 -4 -4zm9 0l0 4 -5 0 5 -4zm-68 -5l63 0 0 9 -63 0 -4 -4 4 -5zm0 9l-4 0 0 -4 4 4z"/>
   <polygon id="1" class="fil1" points="2264,2534 2264,2390 2327,2390 2327,2534 "/>
  </g>
  <g>
   <path class="fil0" d="M2027 1220l-511 0 0 -61 511 0 30 31 -30 30zm0 -61l30 0 0 31 -30 -31zm-31 541l0 -510 61 0 0 510 -30 30 -31 -30zm61 0l0 30 -30 0 30 -30zm-541 -30l511 0 0 60 -511 0 -30 -30 30 -30zm0 60l-30 0 0 -30 30 30zm31 -540l0 510 -61 0 0 -510 30 -31 31 31zm-61 0l0 -31 30 0 -30 31z"/>
  </g>
  <g>
   <polygon class="fil0" points="1441,2308 1441,1798 1502,1798 1502,2308 "/>
  </g>
  <g>
   <polygon class="fil0" points="2048,2308 2048,1798 2109,1798 2109,2308 "/>
  </g>
  <g>
   <polygon class="fil0" points="1741,1700 1741,1190 1802,1190 1802,1700 "/>
  </g>
  <path class="fil2 str0" d="M116 1279l1441 -1066c146,-91 294,-87 446,8l1431 1058"/>
  <path class="fil2 str1" d="M725 836l0 1298c0,348 307,619 619,619l862 0c365,0 619,-298 619,-619l0 -1298"/>
 </g>
</svg>
