<?xml version="1.0" encoding="UTF-8"?>
<!DOCTYPE svg PUBLIC "-//W3C//DTD SVG 1.1//EN" "http://www.w3.org/Graphics/SVG/1.1/DTD/svg11.dtd">
<!-- Creator: CorelDRAW X8 -->
<svg xmlns="http://www.w3.org/2000/svg" xml:space="preserve" width="33.8306mm" height="28mm" version="1.1" style="shape-rendering:geometricPrecision; text-rendering:geometricPrecision; image-rendering:optimizeQuality; fill-rule:evenodd; clip-rule:evenodd"
viewBox="0 0 3383 2800"
 xmlns:xlink="http://www.w3.org/1999/xlink">
 <defs>
  <style type="text/css">
   <![CDATA[
    .str0 {stroke:white;stroke-width:20}
    .fil1 {fill:white}
    .fil0 {fill:white;fill-rule:nonzero}
   ]]>
  </style>
 </defs>
 <g id="Capa_x0020_1">
  <metadata id="CorelCorpID_0Corel-Layer"/>
  <g>
   <path class="fil0" d="M781 1197c-1,45 -38,80 -82,78 -44,-1 -79,-37 -78,-81l160 3zm-35 -356l0 160 77 -56 -3 8 -2 7 -2 8 -3 8 -2 8 -2 8 -2 8 -2 8 -2 8 -1 8 -2 8 -2 8 -1 8 -2 8 -1 8 -1 8 -2 8 -1 7 -1 8 -1 8 -1 8 -1 8 -1 8 -1 8 0 7 -1 8 0 8 -1 8 0 8 -1 8 0 8 0 7 -160 -3 0 -10 0 -9 1 -9 0 -9 1 -10 1 -9 0 -9 1 -9 1 -9 1 -10 1 -9 1 -9 2 -9 1 -10 1 -9 2 -9 1 -10 2 -9 2 -9 1 -9 2 -10 2 -9 2 -9 3 -10 2 -9 2 -9 3 -10 2 -9 3 -9 2 -9 3 -10 3 -9 76 -56zm-76 56c13,-42 58,-66 100,-53 42,13 66,58 53,101l-153 -48zm223 104l-147 0 0 -160 147 0 75 106 -75 54zm0 -160c44,0 80,36 80,80 0,44 -36,80 -80,80l0 -160zm1 9l113 -113 13 95 -2 4 -2 3 -2 4 -1 4 -2 3 -2 4 -2 4 -2 3 -2 4 -2 4 -1 3 -2 4 -2 3 -1 4 -2 4 -2 3 -1 4 -2 3 -2 4 -1 4 -2 3 -1 4 -2 3 -1 4 -2 4 -1 3 -1 4 -2 3 -1 4 -1 3 -2 4 -1 3 -151 -53 2 -4 1 -5 2 -4 2 -5 1 -4 2 -4 2 -5 2 -4 1 -4 2 -5 2 -4 2 -5 2 -4 2 -4 2 -4 2 -5 2 -4 2 -4 2 -5 2 -4 2 -5 2 -4 2 -4 2 -4 2 -5 2 -4 3 -4 2 -5 2 -4 2 -4 3 -4 2 -5 14 95zm-14 -95c21,-38 70,-53 108,-32 39,22 54,70 32,109l-140 -77zm20 -125l107 107 -113 113 -107 -107 -14 -95 127 -18zm-113 113c-31,-31 -31,-82 0,-113 31,-31 82,-31 113,0l-113 113zm547 -547l-113 113 98 12 -16 10 -16 10 -16 10 -16 11 -15 10 -15 11 -15 11 -15 11 -14 11 -14 11 -14 12 -14 11 -14 12 -13 12 -13 13 -13 12 -12 13 -13 13 -12 13 -12 13 -11 13 -12 14 -11 14 -11 14 -11 14 -10 14 -10 15 -10 15 -10 15 -9 15 -10 16 -9 16 -140 -78 11 -18 11 -18 11 -18 11 -18 12 -17 11 -17 13 -17 12 -17 13 -16 13 -16 13 -16 13 -15 14 -16 14 -15 14 -14 15 -15 15 -14 15 -14 15 -14 15 -14 16 -13 16 -13 16 -13 16 -13 17 -12 17 -12 17 -12 17 -12 17 -11 18 -12 18 -11 18 -11 97 12zm-97 -12c38,-23 87,-10 109,28 23,38 11,87 -27,109l-82 -137zm110 251l-126 -126 113 -113 126 126 -25 130 -88 -17zm113 -113c31,31 31,82 0,113 -31,31 -82,31 -113,0l113 -113zm-29 17l160 0 -57 77 -3 1 -4 1 -3 1 -3 1 -3 1 -3 1 -3 1 -3 1 -4 1 -3 1 -3 1 -3 1 -3 1 -3 2 -3 1 -3 1 -3 1 -4 1 -3 1 -3 1 -3 2 -3 1 -3 1 -3 1 -3 1 -3 2 -3 1 -3 1 -3 1 -3 2 -3 1 -3 1 -63 -147 3 -1 4 -2 3 -1 4 -2 3 -1 4 -2 4 -1 3 -1 4 -2 3 -1 4 -2 3 -1 4 -1 4 -2 3 -1 4 -1 3 -2 4 -1 4 -1 3 -2 4 -1 4 -1 3 -1 4 -2 4 -1 4 -1 3 -1 4 -2 4 -1 4 -1 3 -1 4 -1 -57 76zm57 -76c42,-13 87,11 100,54 12,42 -12,86 -54,99l-46 -153zm103 -107l0 183 -160 0 0 -183 59 -77 101 77zm-160 0c0,-44 36,-80 80,-80 44,0 80,36 80,80l-160 0zm774 0l-160 0 59 77 -18 -5 -19 -4 -18 -4 -18 -4 -19 -4 -18 -3 -18 -3 -18 -2 -18 -3 -18 -2 -18 -1 -18 -2 -18 -1 -18 0 -18 -1 -18 0 -18 0 -18 1 -17 0 -18 2 -18 1 -17 2 -18 2 -18 2 -17 3 -18 2 -17 4 -18 3 -17 4 -18 4 -17 4 -18 5 -42 -154 19 -5 20 -5 21 -5 20 -4 20 -4 20 -4 20 -4 20 -3 21 -2 20 -2 20 -2 21 -2 20 -1 21 -1 20 -1 21 0 20 0 21 1 21 0 20 2 21 1 21 2 20 2 21 3 21 3 21 3 21 4 20 4 21 4 21 5 21 5 21 6 59 77zm-59 -77c43,11 68,55 56,98 -11,43 -55,68 -98,56l42 -154zm-101 287l0 -210 160 0 0 210 -108 74 -52 -74zm160 0c0,44 -36,80 -80,80 -44,0 -80,-36 -80,-80l160 0zm-54 -20l113 113 -93 15 -2 -1 -2 -1 -3 -2 -2 -1 -2 -1 -3 -1 -2 -1 -2 -1 -3 -1 -2 -1 -2 -2 -3 -1 -2 -1 -2 -1 -3 -1 -2 -1 -2 -1 -2 -1 -3 -1 -2 -1 -3 -1 -2 -1 -2 -1 -3 -1 -2 -1 -2 -1 -3 -1 -2 -1 -2 -1 -3 -1 -2 -1 -2 -1 56 -149 3 1 3 1 3 1 3 1 3 2 3 1 3 1 3 1 3 1 3 2 3 1 3 1 2 1 3 2 3 1 3 1 3 2 3 1 2 1 3 1 3 2 3 1 3 1 2 2 3 1 3 1 3 2 2 1 3 1 3 2 2 1 3 2 -93 14zm93 -14c40,20 55,68 35,107 -20,40 -68,55 -108,35l73 -142zm171 -23l-151 150 -113 -113 150 -150 95 -14 19 127zm-114 -113c32,-31 82,-31 114,0 31,31 31,82 0,113l-114 -113zm548 547l-113 -113 -13 96 -9 -16 -10 -16 -10 -16 -9 -15 -11 -16 -10 -15 -10 -14 -11 -15 -11 -14 -11 -14 -11 -14 -12 -14 -12 -13 -11 -13 -13 -13 -12 -13 -13 -13 -12 -12 -13 -12 -14 -12 -13 -11 -14 -12 -14 -11 -14 -11 -15 -10 -14 -11 -15 -10 -16 -10 -15 -9 -16 -10 -16 -9 -16 -9 76 -141 19 11 18 10 19 11 18 11 17 12 18 12 17 12 17 12 16 13 17 13 16 13 15 14 16 13 15 14 15 15 15 14 14 15 14 15 14 15 14 16 13 16 13 16 13 16 12 16 12 17 12 17 12 17 12 18 11 17 11 18 11 18 10 18 -13 96zm13 -96c22,39 8,87 -30,109 -39,22 -87,8 -109,-30l139 -79zm-283 140l157 -157 113 113 -157 157 -129 -23 16 -90zm113 113c-31,32 -82,32 -113,0 -32,-31 -32,-82 0,-113l113 113zm-24 -59l0 160 -76 -52 0 -3 -1 -2 -1 -2 -1 -2 -1 -2 0 -2 -1 -3 -1 -2 -1 -2 -1 -2 -1 -2 -1 -3 -1 -2 -1 -2 0 -2 -1 -2 -1 -3 -1 -2 -1 -2 -1 -2 -1 -3 -1 -2 -1 -2 -1 -2 -1 -3 -1 -2 -1 -2 -1 -3 -1 -2 -1 -2 -1 -2 -1 -3 145 -67 1 3 1 2 1 3 2 3 1 2 1 3 1 2 1 3 1 3 1 2 2 3 1 2 1 3 1 3 1 2 1 3 1 2 1 3 2 3 1 2 1 3 1 3 1 2 1 3 1 3 1 2 1 3 1 3 1 2 1 3 1 3 1 2 -75 -53zm75 53c15,42 -7,88 -48,103 -42,15 -88,-7 -103,-48l151 -55zm147 107l-222 0 0 -160 222 0 77 59 -77 101zm0 -160c44,0 80,36 80,80 0,45 -36,80 -80,80l0 -160zm124 367l-160 4 0 0 0 -8 0 -8 -1 -8 0 -8 -1 -8 0 -8 -1 -8 -1 -8 0 -8 -1 -8 -1 -9 -1 -8 -1 -8 -1 -9 -1 -8 -2 -8 -1 -9 -1 -8 -2 -9 -1 -8 -2 -9 -2 -8 -1 -9 -2 -9 -2 -8 -2 -9 -2 -9 -2 -9 -2 -9 -3 -9 -2 -9 -2 -9 154 -42 3 10 2 10 3 10 2 10 3 10 2 10 2 10 2 10 2 10 2 10 2 9 2 10 2 10 1 9 2 10 2 10 1 9 1 10 2 9 1 10 1 9 1 10 1 9 1 10 1 9 0 9 1 10 0 9 1 9 0 9 1 10 0 9 0 0zm0 0c1,44 -34,81 -78,82 -44,1 -81,-34 -82,-78l160 -4zm0 17l-160 1 0 0 0 0 0 -1 0 -1 0 0 0 -1 0 1 0 -2 0 0 0 0 0 0 0 -1 0 -1 0 -1 0 1 0 -1 0 0 0 -1 0 0 0 -1 0 0 0 -1 0 0 0 -1 0 1 0 -1 0 -1 0 -1 0 0 0 0 0 0 0 -1 160 -4 0 0 0 0 0 2 0 0 0 1 0 -1 0 1 0 1 0 1 0 0 0 1 0 0 0 0 0 1 0 0 0 1 0 0 0 2 0 0 0 0 0 0 0 1 0 1 0 1 0 -1 0 2 0 0 0 1 0 0 0 0 0 1 0 1zm0 0c1,44 -35,80 -79,80 -44,1 -80,-35 -81,-79l160 -1zm-331 571c24,-37 74,-48 111,-24 37,25 47,74 23,111l-134 -87zm123 105l-133 -90 0 0 0 0 1 -1 0 -1 0 0 1 0 0 -1 0 0 1 -1 0 0 0 -1 1 -1 0 0 0 0 1 -1 0 0 0 0 0 -1 1 -1 0 0 1 -1 0 0 0 0 1 -1 0 -1 0 0 0 0 1 -1 0 0 0 -1 0 0 1 -1 0 0 134 87 0 1 0 0 -1 1 0 0 -1 1 0 0 0 1 -1 1 0 0 0 0 -1 1 0 1 -1 0 0 1 0 0 0 1 -1 1 0 0 -1 1 0 0 -1 1 0 0 0 1 -1 0 0 1 0 0 -1 1 0 0 -1 1 0 1 0 0 0 1 0 0zm-503 358l113 -114 -96 -12 13 -8 13 -8 13 -8 12 -8 13 -8 13 -9 12 -8 12 -9 13 -9 11 -9 12 -9 12 -9 12 -9 11 -10 11 -10 12 -10 11 -10 10 -10 11 -10 11 -11 10 -10 10 -11 11 -11 10 -12 9 -11 10 -12 10 -11 9 -12 9 -13 9 -12 9 -12 9 -13 133 90 -11 14 -10 15 -11 14 -10 14 -11 14 -11 14 -12 14 -11 13 -12 13 -11 13 -12 12 -13 13 -12 12 -12 12 -13 12 -12 11 -13 12 -13 11 -13 11 -14 11 -13 10 -14 11 -14 10 -13 10 -14 10 -14 10 -15 9 -14 10 -14 9 -15 9 -15 9 -15 8 -96 -12zm96 12c-38,22 -87,9 -109,-29 -22,-38 -9,-87 30,-109l79 138zm-110 -253l127 127 -113 114 -127 -128 15 -125 98 12zm-113 113c-32,-31 -32,-82 0,-113 31,-31 81,-31 113,0l-113 113zm28 -6l-160 0 54 -76 3 -1 3 -1 3 -1 3 -1 3 -1 3 -1 3 -1 3 -2 3 -1 3 -1 3 -1 3 -2 3 -1 3 -1 3 -1 3 -2 2 -1 3 -2 3 -1 3 -1 3 -2 3 -1 3 -2 2 -1 3 -2 3 -1 3 -2 3 -1 2 -2 3 -2 3 -1 3 -2 82 137 -3 2 -4 3 -4 2 -3 2 -4 2 -4 2 -4 2 -3 2 -4 2 -4 2 -4 2 -3 2 -4 2 -4 2 -4 1 -4 2 -4 2 -4 2 -3 2 -4 1 -4 2 -4 2 -4 1 -4 2 -4 1 -4 2 -4 1 -4 2 -4 1 -4 2 -4 1 -4 2 54 -76zm-54 76c-42,14 -87,-8 -102,-50 -14,-42 8,-87 50,-102l52 152zm-106 99l0 -175 160 0 0 175 -56 76 -104 -76zm160 0c0,44 -36,80 -80,80 -44,0 -80,-36 -80,-80l160 0zm-714 77l40 -155 19 4 20 5 19 4 19 4 19 4 19 3 19 3 19 3 19 2 18 2 18 2 19 1 18 2 18 0 18 1 18 0 17 0 18 0 17 -1 18 -1 17 -1 17 -2 17 -2 17 -2 17 -3 17 -3 17 -3 17 -3 16 -4 17 -4 16 -5 17 -5 47 153 -20 6 -19 5 -20 5 -20 5 -19 4 -20 4 -20 3 -20 3 -20 3 -20 2 -20 2 -20 2 -21 1 -20 1 -21 0 -20 0 -21 0 -20 -1 -21 -1 -21 -1 -21 -2 -21 -2 -21 -2 -21 -3 -21 -3 -21 -3 -21 -4 -22 -4 -21 -4 -21 -5 -22 -5 -22 -5zm0 0c-42,-11 -68,-55 -58,-98 11,-42 55,-68 98,-57l-40 155z"/>
  </g>
  <path class="fil1 str0" d="M176 2192l-82 0c-35,-123 -40,-248 0,-376l89 0c9,-25 21,-51 35,-77l-65 -66c62,-112 154,-198 265,-265l77 77c21,-9 43,-17 66,-24l0 -112c121,-34 246,-35 374,0l0 128c18,7 34,14 51,23l91 -92c116,62 202,152 266,265l-96 96c7,16 14,32 19,48l136 0c39,142 34,265 0,376l-129 0c-5,17 -12,35 -19,52l89 89c-64,118 -156,203 -265,266l-77 -78c-21,13 -43,23 -66,31l0 107c-116,36 -240,34 -375,0l0 -91c-23,-5 -45,-14 -66,-25l-63 63c-112,-64 -208,-145 -271,-260l58 -57c-16,-28 -30,-60 -42,-98zm572 -461c151,0 274,122 274,274 0,151 -123,273 -274,273 -152,0 -274,-122 -274,-273 0,-152 122,-274 274,-274z"/>
  <path class="fil1 str0" d="M2535 1714l-51 0c-22,-76 -25,-154 0,-234l56 0c5,-16 13,-32 22,-48l-41 -41c39,-70 96,-124 165,-166l48 48c13,-5 27,-10 41,-15l0 -70c76,-21 154,-21 234,0l0 80c11,4 21,9 31,14l58 -57c71,39 125,95 165,166l-60 60c5,10 9,20 12,29l85 0c24,89 21,166 0,235l-80 0c-3,11 -8,22 -12,32l55 56c-40,74 -97,127 -165,166l-48 -49c-13,8 -27,15 -42,20l0 66c-72,23 -149,21 -233,0l0 -57c-15,-3 -28,-8 -42,-15l-39 40c-69,-41 -129,-91 -169,-163l36 -36c-10,-17 -18,-37 -26,-61zm357 -287c94,0 171,76 171,170 0,95 -77,171 -171,171 -95,0 -171,-76 -171,-171 0,-94 76,-170 171,-170z"/>
  <g>
   <path class="fil0" d="M1288 1307c-44,0 -80,-36 -80,-79 0,-43 36,-78 80,-78l0 157zm1059 0l-1059 0 0 -157 1059 0 0 157zm0 -157c44,0 80,35 80,78 0,43 -36,79 -80,79l0 -157z"/>
  </g>
  <g>
   <path class="fil0" d="M1896 1757c0,45 -35,80 -78,80 -44,0 -79,-35 -79,-80l157 0zm0 -1058l0 1058 -157 0 0 -1058 157 0zm-157 0c0,-44 35,-80 79,-80 43,0 78,36 78,80l-157 0z"/>
  </g>
 </g>
</svg>
