<?xml version="1.0" encoding="UTF-8"?>
<!DOCTYPE svg PUBLIC "-//W3C//DTD SVG 1.1//EN" "http://www.w3.org/Graphics/SVG/1.1/DTD/svg11.dtd">
<!-- Creator: CorelDRAW X8 -->
<svg xmlns="http://www.w3.org/2000/svg" xml:space="preserve" width="42mm" height="35mm" version="1.1" style="shape-rendering:geometricPrecision; text-rendering:geometricPrecision; image-rendering:optimizeQuality; fill-rule:evenodd; clip-rule:evenodd"
viewBox="0 0 4200 3500"
 xmlns:xlink="http://www.w3.org/1999/xlink">
 <defs>
  <style type="text/css">
   <![CDATA[
    .str0 {stroke:black;stroke-width:179.99}
    .fil3 {fill:none}
    .fil4 {fill:black}
    .fil2 {fill:white}
    .fil0 {fill:black;fill-rule:nonzero}
    .fil1 {fill:white;fill-rule:nonzero}
   ]]>
  </style>
 </defs>
 <g id="Capa_x0020_1">
  <metadata id="CorelCorpID_0Corel-Layer"/>
  <g>
   <path class="fil0" d="M847 1247l0 695 -180 0 0 -695 90 -90 90 90zm-180 0l0 -90 90 0 -90 90zm399 90l-309 0 0 -180 309 0 83 124 -83 56zm83 -56l-23 56 -60 0 83 -56zm104 -254l-104 254 -167 -69 105 -254 147 -29 19 98zm-19 -98l42 42 -23 56 -19 -98zm-218 -218l218 218 -128 127 -217 -218 0 -127 127 0zm-127 127l-64 -63 64 -64 0 127zm556 -429l-429 429 -127 -127 428 -429 128 0 0 127zm-128 -127l64 -63 64 63 -128 0zm217 345l-217 -218 128 -127 217 217 -29 147 -99 -19zm99 19l-56 23 -43 -42 99 19zm254 -106l-254 106 -70 -166 255 -106 125 83 -56 83zm56 -83l0 60 -56 23 56 -83zm0 -307l0 307 -180 0 0 -307 90 -90 90 90zm-180 0l0 -90 90 0 -90 90zm393 90l-303 0 0 -180 303 0 0 0 0 180zm303 0l-303 0 0 -180 303 0 90 90 -90 90zm0 -180l90 0 0 90 -90 -90zm-90 397l0 -307 180 0 0 307 -124 83 -56 -83zm56 83l-56 -23 0 -60 56 83zm255 106l-255 -106 69 -166 255 106 29 147 -98 19zm98 -19l-43 42 -55 -23 98 -19zm217 -218l-217 218 -127 -128 217 -217 127 0 0 127zm-127 -127l63 -63 64 63 -127 0zm428 556l-428 -429 127 -127 429 429 0 127 -128 0zm128 -127l63 64 -63 63 0 -127zm-346 218l218 -218 128 127 -218 218 -147 -29 19 -98zm-19 98l-23 -56 42 -42 -19 98zm104 254l-104 -254 166 -69 105 254 -83 125 -84 -56zm84 56l-61 0 -23 -56 84 56zm308 0l-308 0 0 -180 308 0 90 90 -90 90zm0 -180l90 0 0 90 -90 -90zm-90 440l0 -350 180 0 0 350 -180 0zm-597 1093l428 -429 128 128 -429 428 -127 0 0 -127zm127 127l-64 64 -63 -64 127 0zm-221 -348l221 221 -127 127 -222 -221 30 -147 98 20zm-98 -20l55 -23 43 43 -98 -20zm-251 104l251 -104 68 167 -250 103 -125 -83 56 -83zm-56 83l0 -60 56 -23 -56 83zm0 313l0 -313 180 0 0 313 -90 90 -90 -90zm180 0l0 90 -90 0 90 -90zm-696 -90l606 0 0 180 -606 0 -90 -90 90 -90zm0 180l-90 0 0 -90 90 90zm90 -403l0 313 -180 0 0 -313 124 -83 56 83zm-56 -83l56 23 0 60 -56 -83zm-251 -104l251 104 -68 166 -251 -103 68 -167z"/>
  </g>
  <g>
   <path class="fil1" d="M1626 2073l-259 -259 71 -71 258 259 0 71 -70 0zm70 -71l36 35 -36 36 0 -71zm-202 132l132 -132 70 71 -131 131 -82 -16 11 -54zm-11 54l-12 -31 23 -23 -11 54zm63 153l-63 -153 93 -38 63 153 -46 69 -47 -31zm47 31l-34 0 -13 -31 47 31zm186 0l-186 0 0 -100 186 0 50 50 -50 50zm0 -100l50 0 0 50 -50 -50zm-50 416l0 -366 100 0 0 366 -50 50 -50 -50zm100 0l0 50 -50 0 50 -50zm-238 -50l188 0 0 100 -188 0 -46 -69 46 -31zm-46 31l13 -31 33 0 -46 31zm-63 152l63 -152 93 38 -64 152 -81 16 -11 -54zm11 54l-24 -23 13 -31 11 54zm133 133l-133 -133 70 -70 133 133 0 70 -70 0zm70 -70l36 35 -36 35 0 -70zm-329 258l259 -258 70 70 -258 259 -71 0 0 -71zm71 71l-36 35 -35 -35 71 0zm-134 -204l134 133 -71 71 -134 -133 17 -82 54 11zm-54 -11l31 -13 23 24 -54 -11zm-152 63l152 -63 38 92 -151 63 -70 -46 31 -46zm-31 46l0 -34 31 -12 -31 46zm0 189l0 -189 100 0 0 189 -50 50 -50 -50zm100 0l0 50 -50 0 50 -50zm-415 -50l365 0 0 100 -365 0 -50 -50 50 -50zm0 100l-50 0 0 -50 50 50zm50 -239l0 189 -100 0 0 -189 69 -46 31 46zm-31 -46l31 12 0 34 -31 -46zm-152 -63l152 63 -39 92 -151 -63 -16 -81 54 -11zm-54 11l23 -24 31 13 -54 11zm-134 133l134 -133 70 71 -133 133 -71 0 0 -71zm71 71l-35 35 -36 -35 71 0zm-259 -329l259 258 -71 71 -258 -259 0 -70 70 0zm-70 70l-36 -35 36 -35 0 70zm203 -133l-133 133 -70 -70 133 -133 81 16 -11 54zm11 -54l13 31 -24 23 11 -54zm-63 -152l63 152 -92 38 -64 -152 46 -69 47 31zm-47 -31l34 0 13 31 -47 -31zm-187 0l187 0 0 100 -187 0 -50 -50 50 -50zm0 100l-50 0 0 -50 50 50zm50 -416l0 366 -100 0 0 -366 50 -50 50 50zm-100 0l0 -50 50 0 -50 50zm236 50l-186 0 0 -100 186 0 47 69 -47 31zm47 -31l-13 31 -34 0 47 -31zm63 -153l-63 153 -93 -38 63 -153 82 -16 11 54zm-11 -54l23 23 -12 31 -11 -54zm-132 -132l132 132 -71 70 -131 -131 0 -71 70 0zm-70 71l-36 -36 36 -35 0 71zm329 -259l-259 259 -70 -71 258 -259 71 0 0 71zm-71 -71l36 -35 35 35 -71 0zm131 202l-131 -131 71 -71 131 131 -16 82 -55 -11zm55 11l-31 13 -24 -24 55 11zm154 -64l-154 64 -39 -92 154 -64 70 46 -31 46zm31 -46l0 33 -31 13 31 -46zm0 -185l0 185 -100 0 0 -185 50 -50 50 50zm-100 0l0 -50 50 0 -50 50zm232 50l-182 0 0 -100 182 0 0 0 0 100zm183 0l-183 0 0 -100 183 0 50 50 -50 50zm0 -100l50 0 0 50 -50 -50zm-50 235l0 -185 100 0 0 185 -69 46 -31 -46zm31 46l-31 -13 0 -33 31 46zm154 64l-154 -64 39 -92 153 64 17 81 -55 11zm55 -11l-24 24 -31 -13 55 -11zm131 -131l-131 131 -71 -71 131 -131 71 0 0 71zm-71 -71l35 -35 36 35 -71 0zm-43 762l-100 0 0 0 -1 -15 -1 -14 -2 -15 -2 -14 -3 -14 -4 -14 -5 -13 -5 -13 -6 -13 -6 -13 -7 -12 -8 -12 -8 -11 -8 -11 -9 -10 -10 -10 -10 -10 -11 -9 -10 -9 -12 -8 -12 -7 -12 -7 -12 -7 -13 -5 -13 -6 -13 -4 -14 -4 -14 -3 -14 -3 -15 -2 -15 -1 -15 0 0 -100 20 0 20 2 20 2 19 4 19 4 18 5 18 6 18 7 17 8 17 9 16 9 16 10 15 11 15 12 14 12 14 13 13 13 12 15 11 14 11 15 10 16 10 17 8 16 8 18 7 17 6 18 6 19 4 19 3 19 3 19 1 20 1 20 0 0zm-390 390l0 -100 0 0 15 -1 15 -1 15 -2 14 -2 14 -4 14 -3 13 -5 13 -5 13 -6 12 -6 12 -7 12 -8 12 -8 10 -9 11 -9 10 -9 10 -10 9 -11 8 -11 8 -11 8 -12 7 -12 6 -12 6 -13 5 -13 5 -14 4 -13 3 -14 2 -15 2 -14 1 -15 1 -15 100 0 -1 20 -1 20 -3 19 -3 20 -4 18 -6 19 -6 18 -7 18 -8 17 -8 17 -10 16 -10 16 -11 15 -11 15 -12 14 -13 14 -14 12 -14 13 -15 11 -15 11 -16 10 -16 10 -17 8 -17 8 -18 7 -18 6 -18 5 -19 5 -19 3 -20 3 -20 1 -20 1 0 0zm-389 -390l100 0 0 0 0 15 2 15 1 14 3 15 3 14 4 13 5 14 5 13 6 13 6 12 7 12 7 12 9 11 8 11 9 11 10 10 10 9 10 10 11 8 12 8 11 8 13 7 12 6 13 6 13 5 13 5 14 3 14 4 14 2 15 2 15 1 14 1 0 100 -20 -1 -19 -1 -20 -3 -19 -3 -19 -5 -18 -5 -18 -6 -18 -7 -17 -8 -17 -8 -16 -10 -16 -10 -16 -11 -14 -11 -14 -13 -14 -12 -13 -14 -12 -14 -12 -15 -10 -15 -11 -16 -9 -16 -8 -17 -8 -17 -7 -18 -6 -18 -6 -19 -4 -18 -3 -20 -3 -19 -1 -20 -1 -20 0 0zm389 -389l0 100 0 0 -14 0 -15 1 -15 2 -14 3 -14 3 -14 4 -13 4 -13 6 -13 5 -12 7 -13 7 -11 7 -12 8 -11 9 -10 9 -10 10 -10 10 -9 10 -8 11 -9 11 -7 12 -7 12 -6 13 -6 13 -5 13 -5 13 -4 14 -3 14 -3 14 -1 15 -2 14 0 15 -100 0 1 -20 1 -20 3 -19 3 -19 4 -19 6 -19 6 -18 7 -17 8 -18 8 -16 9 -17 11 -16 10 -15 12 -14 12 -15 13 -13 14 -13 14 -12 14 -12 16 -11 16 -10 16 -9 17 -9 17 -8 18 -7 18 -6 18 -5 19 -4 19 -4 20 -2 19 -2 20 0 0 0z"/>
   <path id="1" class="fil2" d="M1402 1779l259 258 -132 132 64 153 186 0 0 366 -188 0 -63 152 133 133 -259 259 -133 -134 -152 63 0 189 -365 0 0 -189 -152 -63 -133 134 -259 -259 133 -133 -64 -152 -187 0 0 -366 186 0 63 -153 -131 -132 259 -258 131 131 154 -64 0 -185 182 0 183 0 0 185 154 64 131 -131zm-468 387c188,0 340,152 340,339 0,188 -152,340 -340,340 -187,0 -339,-152 -339,-340 0,-187 152,-339 339,-339z"/>
  </g>
  <g>
   <path class="fil1" d="M4001 1753l-162 -162 70 -70 162 162 0 70 -70 0zm70 -70l36 35 -36 35 0 -70zm-153 82l83 -82 70 70 -82 83 -82 -16 11 -55zm-11 55l-12 -31 23 -24 -11 55zm40 96l-40 -96 93 -38 39 96 -46 69 -46 -31zm46 31l-33 0 -13 -31 46 31zm117 0l-117 0 0 -100 117 0 50 50 -50 50zm0 -100l50 0 0 50 -50 -50zm-50 279l0 -229 100 0 0 229 -50 50 -50 -50zm100 0l0 50 -50 0 50 -50zm-167 -50l117 0 0 100 -117 0 -47 -69 47 -31zm-47 31l13 -31 34 0 -47 31zm-39 95l39 -95 93 38 -40 95 -82 17 -10 -55zm10 55l-23 -24 13 -31 10 55zm84 83l-84 -83 71 -71 83 83 0 71 -70 0zm70 -71l36 35 -36 36 0 -71zm-232 162l162 -162 70 71 -162 162 -70 0 0 -71zm70 71l-35 35 -35 -35 70 0zm-83 -154l83 83 -70 71 -84 -84 16 -81 55 11zm-55 -11l31 -13 24 24 -55 -11zm-95 39l95 -39 38 92 -94 39 -70 -46 31 -46zm-31 46l0 -33 31 -13 -31 46zm0 119l0 -119 100 0 0 119 -50 50 -50 -50zm100 0l0 50 -50 0 50 -50zm-279 -50l229 0 0 100 -229 0 -50 -50 50 -50zm0 100l-50 0 0 -50 50 50zm50 -169l0 119 -100 0 0 -119 69 -46 31 46zm-31 -46l31 13 0 33 -31 -46zm-95 -39l95 39 -38 92 -95 -39 -16 -81 54 -11zm-54 11l23 -24 31 13 -54 11zm-84 83l84 -83 71 70 -84 84 -71 0 0 -71zm71 71l-35 35 -36 -35 71 0zm-162 -233l162 162 -71 71 -162 -162 0 -71 71 0zm-71 71l-35 -36 35 -35 0 71zm154 -83l-83 83 -71 -71 83 -83 82 16 -11 55zm11 -55l13 31 -24 24 11 -55zm-40 -95l40 95 -92 38 -40 -95 46 -69 46 31zm-46 -31l33 0 13 31 -46 -31zm-117 0l117 0 0 100 -117 0 -50 -50 50 -50zm0 100l-50 0 0 -50 50 50zm50 -279l0 229 -100 0 0 -229 50 -50 50 50zm-100 0l0 -50 50 0 -50 50zm166 50l-116 0 0 -100 116 0 47 69 -47 31zm47 -31l-13 31 -34 0 47 -31zm39 -96l-39 96 -93 -38 40 -96 81 -17 11 55zm-11 -55l24 24 -13 31 -11 -55zm-82 -82l82 82 -70 71 -83 -83 0 -70 71 0zm-71 70l-35 -35 35 -35 0 70zm233 -162l-162 162 -71 -70 162 -162 71 0 0 70zm-71 -70l36 -36 35 36 -71 0zm82 152l-82 -82 71 -70 82 82 -16 81 -55 -11zm55 11l-31 13 -24 -24 55 11zm96 -40l-96 40 -38 -92 96 -40 69 46 -31 46zm31 -46l0 33 -31 13 31 -46zm0 -116l0 116 -100 0 0 -116 50 -50 50 50zm-100 0l0 -50 50 0 -50 50zm165 50l-115 0 0 -100 115 0 0 0 0 100zm114 0l-114 0 0 -100 114 0 50 50 -50 50zm0 -100l50 0 0 50 -50 -50zm-50 166l0 -116 100 0 0 116 -69 46 -31 -46zm31 46l-31 -13 0 -33 31 46zm97 40l-97 -40 39 -92 96 40 16 81 -54 11zm54 -11l-23 24 -31 -13 54 -11zm82 -82l-82 82 -71 -70 83 -82 70 0 0 70zm-70 -70l35 -36 35 36 -70 0zm4 490l-100 0 0 0 0 -8 0 -8 -1 -9 -2 -8 -2 -7 -2 -8 -2 -8 -3 -7 -4 -7 -3 -7 -4 -7 -4 -7 -5 -6 -5 -6 -5 -6 -5 -6 -6 -5 -6 -5 -6 -5 -6 -5 -7 -4 -7 -4 -7 -3 -7 -4 -7 -3 -8 -2 -8 -2 -7 -2 -8 -2 -9 -1 -8 0 -8 0 0 -100 13 0 14 1 13 2 13 2 12 3 13 3 12 5 12 4 12 6 11 5 11 7 11 6 10 8 10 8 9 8 10 9 8 9 8 9 8 10 8 10 6 11 7 11 6 11 5 12 5 12 4 12 3 13 3 12 2 13 2 14 1 13 0 13 0 0zm-262 263l0 -100 0 0 8 0 8 -1 9 -1 8 -1 7 -2 8 -2 8 -3 7 -3 7 -3 7 -4 7 -4 7 -4 6 -4 6 -5 6 -5 6 -6 5 -5 5 -6 5 -6 5 -7 4 -6 4 -7 3 -7 4 -7 3 -8 2 -7 2 -8 2 -8 2 -8 1 -8 0 -8 0 -9 100 0 0 14 -1 13 -2 13 -2 13 -3 13 -3 12 -4 13 -5 12 -5 11 -6 12 -7 11 -6 10 -8 11 -8 9 -8 10 -8 9 -10 9 -9 8 -10 8 -10 7 -11 7 -11 6 -11 6 -12 5 -12 5 -12 4 -13 4 -12 3 -13 2 -13 2 -14 1 -13 0 0 0zm-263 -263l100 0 0 0 0 9 1 8 1 8 1 8 2 8 2 8 3 7 3 8 3 7 4 7 4 7 4 6 4 7 5 6 5 6 6 5 5 6 6 5 6 5 7 4 6 4 7 4 7 4 7 3 8 3 7 3 8 2 8 2 8 1 8 1 8 1 9 0 0 100 -14 0 -13 -1 -13 -2 -13 -2 -13 -3 -12 -4 -13 -4 -11 -5 -12 -5 -11 -6 -11 -6 -11 -7 -10 -7 -10 -8 -10 -8 -9 -9 -9 -9 -8 -10 -8 -9 -7 -11 -7 -10 -6 -11 -6 -12 -5 -11 -5 -12 -4 -13 -4 -12 -3 -13 -2 -13 -2 -13 -1 -13 0 -14 0 0zm263 -262l0 100 0 0 -9 0 -8 0 -8 1 -8 2 -8 2 -8 2 -7 2 -8 3 -7 4 -7 3 -7 4 -6 4 -7 5 -6 5 -6 5 -5 5 -6 6 -5 6 -5 6 -4 6 -4 7 -4 7 -4 7 -3 7 -3 7 -3 8 -2 8 -2 7 -1 8 -1 9 -1 8 0 8 -100 0 0 -13 1 -13 2 -14 2 -13 3 -12 4 -13 4 -12 5 -12 5 -12 6 -11 6 -11 7 -11 7 -10 8 -10 8 -9 9 -9 9 -9 10 -8 10 -8 10 -8 11 -6 11 -7 11 -5 12 -6 11 -4 13 -5 12 -3 13 -3 13 -2 13 -2 13 -1 14 0 0 0z"/>
   <path id="1" class="fil2" d="M3874 1556l162 162 -82 83 39 96 117 0 0 229 -117 0 -40 95 83 83 -162 163 -84 -84 -95 39 0 119 -229 0 0 -119 -95 -39 -83 84 -163 -163 84 -83 -40 -95 -117 0 0 -229 116 0 40 -96 -83 -83 163 -162 82 82 96 -40 0 -116 115 0 114 0 0 116 97 40 82 -82zm-293 243c117,0 212,95 212,212 0,118 -95,213 -212,213 -118,0 -213,-95 -213,-213 0,-117 95,-212 213,-212z"/>
  </g>
  <ellipse class="fil3 str0" cx="2133" cy="1550" rx="417" ry="421"/>
  <path class="fil4" d="M1402 1779l259 258 -132 132 64 153 186 0 0 366 -188 0 -63 152 133 133 -259 259 -133 -134 -152 63 0 189 -365 0 0 -189 -152 -63 -133 134 -259 -259 133 -133 -64 -152 -187 0 0 -366 186 0 63 -153 -131 -132 259 -258 131 131 154 -64 0 -185 182 0 183 0 0 185 154 64 131 -131zm-468 387c188,0 340,152 340,339 0,188 -152,340 -340,340 -187,0 -339,-152 -339,-340 0,-187 152,-339 339,-339z"/>
  <path class="fil4" d="M3874 1556l162 162 -82 83 39 96 117 0 0 229 -117 0 -40 95 83 83 -162 163 -84 -84 -95 39 0 119 -229 0 0 -119 -95 -39 -83 84 -163 -163 84 -83 -40 -95 -117 0 0 -229 116 0 40 -96 -83 -83 163 -162 82 82 96 -40 0 -116 115 0 114 0 0 116 97 40 82 -82zm-293 243c117,0 212,95 212,212 0,118 -95,213 -212,213 -118,0 -213,-95 -213,-213 0,-117 95,-212 213,-212z"/>
 </g>
</svg>
