<?xml version="1.0" encoding="UTF-8"?>
<!DOCTYPE svg PUBLIC "-//W3C//DTD SVG 1.1//EN" "http://www.w3.org/Graphics/SVG/1.1/DTD/svg11.dtd">
<!-- Creator: CorelDRAW X8 -->
<svg xmlns="http://www.w3.org/2000/svg" xml:space="preserve" width="42mm" height="35mm" version="1.1" style="shape-rendering:geometricPrecision; text-rendering:geometricPrecision; image-rendering:optimizeQuality; fill-rule:evenodd; clip-rule:evenodd"
viewBox="0 0 4200 3500"
 xmlns:xlink="http://www.w3.org/1999/xlink">
 <defs>
  <style type="text/css">
   <![CDATA[
    .str2 {stroke:#FEFEFE;stroke-width:179.99}
    .str0 {stroke:black;stroke-width:20}
    .str1 {stroke:black;stroke-width:179.99}
    .fil1 {fill:none}
    .fil4 {fill:#FEFEFE}
    .fil3 {fill:#FEFEFE}
    .fil0 {fill:black}
    .fil2 {fill:#FEFEFE;fill-rule:nonzero}
   ]]>
  </style>
 </defs>
 <g id="Capa_x0020_1">
  <metadata id="CorelCorpID_0Corel-Layer"/>
  <polygon class="fil0 str0" points="752,1594 752,1247 1061,1247 1165,993 1022,753 1337,385 1593,563 1808,473 1848,150 2414,150 2478,509 2637,533 2926,346 3315,735 3137,993 3181,1245 3550,1247 3550,1525 3277,1769 3335,2171 3179,2501 2903,2730 2705,2532 2454,2636 2454,2949 1829,2994 1848,2636 1554,2398 1089,2060 "/>
  <g>
   <path class="fil1 str1" d="M752 1942l0 -695 309 0 104 -254 -218 -218 429 -429 217 217 255 -106 0 -307 303 0 303 0 0 307 255 106 217 -217 429 429 -218 218 105 254 308 0 0 350m-195 728l-429 429 -221 -222 -251 104 0 313 -606 0 0 -313 -251 -104"/>
  </g>
  <g>
   <path class="fil2" d="M1613 2080l-258 -259 85 -85 258 259 0 85 -85 0zm85 -85l43 42 -43 43 0 -85zm-216 132l131 -132 85 85 -131 131 -98 -19 13 -65zm-13 65l-15 -37 28 -28 -13 65zm63 153l-63 -153 111 -46 63 153 -55 83 -56 -37zm56 37l-41 0 -15 -37 56 37zm186 0l-186 0 0 -120 186 0 60 60 -60 60zm0 -120l60 0 0 60 -60 -60zm-60 426l0 -366 120 0 0 366 -60 60 -60 -60zm120 0l0 60 -60 0 60 -60zm-248 -60l188 0 0 120 -188 0 -55 -83 55 -37zm-55 37l15 -37 40 0 -55 37zm-63 152l63 -152 111 46 -64 152 -97 19 -13 -65zm13 65l-29 -28 16 -37 13 65zm132 133l-132 -133 84 -84 133 133 0 84 -85 0zm85 -84l43 42 -43 42 0 -84zm-343 258l258 -258 85 84 -258 259 -85 0 0 -85zm85 85l-43 43 -42 -43 85 0zm-134 -218l134 133 -85 85 -134 -133 20 -98 65 13zm-65 -13l37 -16 28 29 -65 -13zm-152 62l152 -62 46 111 -152 62 -83 -55 37 -56zm-37 56l0 -40 37 -16 -37 56zm0 189l0 -189 120 0 0 189 -60 60 -60 -60zm120 0l0 60 -60 0 60 -60zm-425 -60l365 0 0 120 -365 0 -60 -60 60 -60zm0 120l-60 0 0 -60 60 60zm60 -249l0 189 -120 0 0 -189 82 -56 38 56zm-38 -56l38 16 0 40 -38 -56zm-151 -62l151 62 -45 111 -152 -62 -19 -98 65 -13zm-65 13l28 -29 37 16 -65 13zm-134 133l134 -133 85 85 -134 133 -85 0 0 -85zm85 85l-42 43 -43 -43 85 0zm-259 -343l259 258 -85 85 -258 -259 0 -84 84 0zm-84 84l-43 -42 43 -42 0 84zm217 -133l-133 133 -84 -84 132 -133 98 19 -13 65zm13 -65l16 37 -29 28 13 -65zm-63 -152l63 152 -110 46 -64 -152 55 -83 56 37zm-56 -37l40 0 16 37 -56 -37zm-187 0l187 0 0 120 -187 0 -60 -60 60 -60zm0 120l-60 0 0 -60 60 60zm60 -426l0 366 -120 0 0 -366 60 -60 60 60zm-120 0l0 -60 60 0 -60 60zm246 60l-186 0 0 -120 186 0 56 83 -56 37zm56 -37l-15 37 -41 0 56 -37zm63 -153l-63 153 -111 -46 63 -153 98 -19 13 65zm-13 -65l28 28 -15 37 -13 -65zm-132 -132l132 132 -85 84 -131 -131 0 -85 84 0zm-84 85l-43 -43 43 -42 0 85zm343 -259l-259 259 -84 -85 258 -259 85 0 0 85zm-85 -85l43 -42 42 42 -85 0zm131 216l-131 -131 85 -85 131 131 -19 98 -66 -13zm66 13l-37 16 -29 -29 66 13zm154 -64l-154 64 -46 -111 153 -64 84 56 -37 55zm37 -55l0 40 -37 15 37 -55zm0 -185l0 185 -120 0 0 -185 60 -60 60 60zm-120 0l0 -60 60 0 -60 60zm242 60l-182 0 0 -120 182 0 0 0 0 120zm183 0l-183 0 0 -120 183 0 60 60 -60 60zm0 -120l60 0 0 60 -60 -60zm-60 245l0 -185 120 0 0 185 -83 55 -37 -55zm37 55l-37 -15 0 -40 37 55zm154 64l-154 -64 46 -111 154 64 20 98 -66 13zm66 -13l-29 29 -37 -16 66 -13zm131 -131l-131 131 -85 -85 131 -131 85 0 0 85zm-85 -85l42 -42 43 42 -85 0zm-26 769l-120 0 0 0 -1 -14 -1 -14 -1 -14 -3 -14 -3 -14 -4 -13 -4 -13 -5 -13 -6 -12 -6 -12 -7 -12 -7 -11 -8 -11 -8 -10 -9 -11 -9 -9 -10 -10 -10 -8 -10 -9 -11 -7 -12 -8 -11 -6 -12 -7 -13 -5 -12 -5 -13 -5 -14 -3 -13 -3 -14 -3 -14 -2 -14 -1 -15 0 0 -120 21 0 20 2 20 2 20 4 19 4 19 6 19 6 18 7 18 8 17 9 17 10 16 10 15 11 15 12 15 13 14 13 13 14 13 14 11 15 12 16 10 16 10 17 8 17 8 18 8 18 6 18 5 19 5 20 3 19 3 20 1 21 1 20 0 0zm-400 400l0 -120 0 0 15 -1 14 -1 14 -2 14 -2 13 -3 14 -4 13 -4 12 -5 13 -6 12 -6 11 -7 12 -7 11 -8 10 -8 10 -9 10 -9 9 -10 9 -10 8 -11 8 -11 7 -11 7 -12 6 -12 6 -12 5 -13 4 -13 4 -13 3 -13 3 -14 1 -14 1 -14 1 -15 120 0 -1 21 -1 20 -3 20 -3 20 -5 19 -5 19 -6 19 -8 18 -8 17 -8 18 -10 16 -10 17 -12 15 -11 15 -13 15 -13 14 -14 13 -15 12 -15 12 -15 11 -16 11 -17 9 -17 9 -18 8 -18 7 -19 7 -19 5 -19 4 -20 4 -20 3 -20 1 -21 1 0 0zm-399 -400l120 0 0 0 0 15 2 14 1 14 3 14 3 13 4 13 4 13 5 13 6 12 6 12 7 12 7 11 8 11 8 11 9 10 9 10 10 9 10 9 10 8 11 8 12 7 11 7 12 6 13 6 12 5 13 4 14 4 13 3 14 2 14 2 14 1 14 1 0 120 -20 -1 -20 -1 -20 -3 -20 -4 -19 -4 -19 -5 -19 -7 -18 -7 -18 -8 -17 -9 -17 -9 -16 -11 -16 -11 -15 -12 -14 -12 -14 -13 -13 -14 -13 -15 -12 -15 -11 -15 -10 -17 -10 -16 -8 -18 -8 -17 -8 -18 -6 -19 -5 -19 -5 -19 -3 -20 -3 -20 -1 -20 -1 -21 0 0zm399 -399l0 120 0 0 -14 0 -14 1 -14 2 -14 3 -13 3 -14 3 -13 5 -12 5 -13 5 -12 7 -11 6 -12 8 -11 7 -10 9 -10 8 -10 10 -9 9 -9 11 -8 10 -8 11 -7 11 -7 12 -6 12 -6 12 -5 13 -4 13 -4 13 -3 14 -3 14 -1 14 -2 14 0 14 -120 0 1 -20 1 -21 3 -20 3 -19 5 -20 5 -19 6 -18 7 -18 8 -18 9 -17 10 -17 10 -16 11 -16 12 -15 13 -14 13 -14 14 -13 14 -13 15 -12 16 -11 16 -10 17 -10 17 -9 18 -8 18 -7 19 -6 19 -6 19 -4 20 -4 20 -2 20 -2 20 0 0 0z"/>
   <path id="1" class="fil3" d="M1397 1779l259 258 -132 132 64 153 186 0 0 366 -188 0 -63 152 133 133 -259 259 -133 -134 -152 63 0 189 -365 0 0 -189 -152 -63 -133 134 -259 -259 133 -133 -64 -152 -187 0 0 -366 186 0 63 -153 -131 -132 259 -258 131 131 154 -64 0 -185 182 0 183 0 0 185 154 64 131 -131zm-468 387c188,0 340,152 340,339 0,188 -152,340 -340,340 -187,0 -339,-152 -339,-340 0,-187 152,-339 339,-339z"/>
  </g>
  <path class="fil0" d="M1397 1779l259 258 -132 132 64 153 186 0 0 366 -188 0 -63 152 133 133 -259 259 -133 -134 -152 63 0 189 -365 0 0 -189 -152 -63 -133 134 -259 -259 133 -133 -64 -152 -187 0 0 -366 186 0 63 -153 -131 -132 259 -258 131 131 154 -64 0 -185 182 0 183 0 0 185 154 64 131 -131zm-468 387c188,0 340,152 340,339 0,188 -152,340 -340,340 -187,0 -339,-152 -339,-340 0,-187 152,-339 339,-339z"/>
  <g>
   <path class="fil2" d="M3999 1771l-163 -163 85 -84 163 162 0 85 -85 0zm85 -85l42 42 -42 43 0 -85zm-168 82l83 -82 85 85 -83 82 -98 -20 13 -65zm-13 65l-15 -37 28 -28 -13 65zm40 96l-40 -96 111 -45 40 96 -56 83 -55 -38zm55 38l-40 0 -15 -38 55 38zm117 0l-117 0 0 -120 117 0 60 60 -60 60zm0 -120l60 0 0 60 -60 -60zm-60 289l0 -229 120 0 0 229 -60 60 -60 -60zm120 0l0 60 -60 0 60 -60zm-177 -60l117 0 0 120 -117 0 -56 -83 56 -37zm-56 37l16 -37 40 0 -56 37zm-40 95l40 -95 111 46 -40 95 -98 20 -13 -66zm13 66l-28 -29 15 -37 13 66zm84 83l-84 -83 85 -85 84 83 0 85 -85 0zm85 -85l42 42 -42 43 0 -85zm-247 162l162 -162 85 85 -163 162 -84 0 0 -85zm84 85l-42 42 -42 -42 84 0zm-83 -168l83 83 -84 85 -84 -84 19 -97 66 13zm-66 -13l37 -16 29 29 -66 -13zm-94 39l94 -39 46 110 -95 40 -83 -56 38 -55zm-38 55l0 -40 38 -15 -38 55zm0 119l0 -119 120 0 0 119 -60 60 -60 -60zm120 0l0 60 -60 0 60 -60zm-289 -60l229 0 0 120 -229 0 -60 -60 60 -60zm0 120l-60 0 0 -60 60 60zm60 -179l0 119 -120 0 0 -119 83 -55 37 55zm-37 -55l37 15 0 40 -37 -55zm-95 -39l95 39 -46 111 -95 -40 -19 -97 65 -13zm-65 13l28 -29 37 16 -65 13zm-84 83l84 -83 85 84 -84 84 -85 0 0 -85zm85 85l-42 42 -43 -42 85 0zm-162 -247l162 162 -85 85 -162 -162 0 -85 85 0zm-85 85l-42 -43 42 -42 0 85zm168 -83l-83 83 -85 -85 83 -83 98 19 -13 66zm13 -66l16 37 -29 29 13 -66zm-40 -95l40 95 -111 46 -39 -95 55 -83 55 37zm-55 -37l40 0 15 37 -55 -37zm-117 0l117 0 0 120 -117 0 -60 -60 60 -60zm0 120l-60 0 0 -60 60 60zm60 -289l0 229 -120 0 0 -229 60 -60 60 60zm-120 0l0 -60 60 0 -60 60zm176 60l-116 0 0 -120 116 0 56 82 -56 38zm56 -38l-15 38 -41 0 56 -38zm39 -96l-39 96 -111 -45 39 -96 98 -20 13 65zm-13 -65l29 28 -16 37 -13 -65zm-82 -82l82 82 -85 85 -82 -82 0 -85 85 0zm-85 85l-42 -43 42 -42 0 85zm247 -163l-162 163 -85 -85 162 -162 85 0 0 84zm-85 -84l43 -43 42 43 -85 0zm82 166l-82 -82 85 -84 82 82 -19 97 -66 -13zm66 13l-37 16 -29 -29 66 13zm96 -40l-96 40 -46 -110 96 -40 83 55 -37 55zm37 -55l0 40 -37 15 37 -55zm0 -116l0 116 -120 0 0 -116 60 -60 60 60zm-120 0l0 -60 60 0 -60 60zm175 60l-115 0 0 -120 115 0 0 0 0 120zm114 0l-114 0 0 -120 114 0 60 60 -60 60zm0 -120l60 0 0 60 -60 -60zm-60 176l0 -116 120 0 0 116 -83 55 -37 -55zm37 55l-37 -15 0 -40 37 55zm97 40l-97 -40 46 -110 97 40 19 97 -65 13zm65 -13l-28 29 -37 -16 65 -13zm82 -82l-82 82 -85 -84 82 -82 85 0 0 84zm-85 -84l43 -43 42 43 -85 0zm22 497l-120 0 0 0 0 -8 0 -7 -1 -8 -2 -8 -1 -7 -2 -7 -3 -7 -3 -7 -3 -7 -3 -6 -4 -7 -4 -6 -4 -6 -4 -6 -5 -5 -5 -6 -6 -5 -5 -5 -6 -4 -6 -4 -6 -4 -6 -4 -7 -3 -7 -3 -7 -3 -7 -3 -7 -2 -7 -1 -8 -2 -8 -1 -7 0 -8 0 0 -120 14 0 14 1 13 2 14 2 13 3 13 4 13 4 12 5 12 6 12 6 11 6 11 7 11 8 10 8 10 8 10 9 9 10 8 10 8 10 8 11 7 11 7 11 6 12 5 12 5 13 4 12 4 13 3 13 2 14 2 13 1 14 0 14 0 0zm-272 273l0 -120 0 0 8 0 7 -1 8 -1 8 -1 7 -2 7 -2 7 -2 7 -3 7 -3 7 -3 6 -4 6 -4 6 -4 6 -5 5 -5 6 -5 5 -5 5 -6 4 -5 4 -6 4 -7 4 -6 3 -7 3 -6 3 -7 3 -7 2 -7 1 -8 2 -7 1 -8 0 -8 0 -8 120 0 0 14 -1 14 -2 14 -2 13 -3 13 -4 13 -4 13 -5 12 -5 13 -6 11 -7 12 -7 11 -8 10 -8 11 -8 10 -9 9 -10 9 -10 9 -10 8 -11 7 -11 7 -11 7 -12 6 -12 6 -12 4 -13 5 -13 3 -13 3 -14 3 -13 2 -14 1 -14 0 0 0zm-273 -273l120 0 0 0 0 8 1 8 1 8 1 7 2 8 2 7 2 7 3 7 3 6 3 7 4 6 4 7 4 6 5 5 5 6 5 5 5 5 6 5 5 5 6 4 7 4 6 4 7 3 6 3 7 3 7 2 8 2 7 2 7 1 8 1 8 1 8 0 0 120 -14 0 -14 -1 -14 -2 -13 -3 -13 -3 -13 -3 -13 -5 -12 -4 -12 -6 -12 -6 -12 -7 -11 -7 -10 -7 -11 -8 -10 -9 -9 -9 -9 -9 -9 -10 -8 -11 -7 -10 -7 -11 -7 -12 -6 -11 -5 -13 -5 -12 -5 -13 -3 -13 -3 -13 -3 -13 -2 -14 -1 -14 0 -14 0 0zm273 -272l0 120 0 0 -8 0 -8 0 -8 1 -7 2 -7 1 -8 2 -7 3 -7 3 -6 3 -7 3 -6 4 -7 4 -6 4 -5 4 -6 5 -5 5 -5 6 -5 5 -5 6 -4 6 -4 6 -4 7 -3 6 -3 7 -3 7 -2 7 -2 7 -2 7 -1 8 -1 8 -1 7 0 8 -120 0 0 -14 1 -14 2 -13 3 -14 3 -13 3 -13 5 -12 5 -13 5 -12 6 -12 7 -11 7 -11 7 -11 8 -10 9 -10 9 -10 9 -9 10 -8 11 -8 10 -8 11 -7 12 -6 12 -6 12 -6 12 -5 13 -4 13 -4 13 -3 13 -2 14 -2 14 -1 14 0 0 0z"/>
   <path id="1" class="fil3" d="M3879 1566l162 162 -82 83 39 96 117 0 0 229 -117 0 -40 95 83 83 -162 163 -84 -84 -95 39 0 119 -229 0 0 -119 -95 -39 -83 84 -163 -163 84 -83 -40 -95 -117 0 0 -229 116 0 40 -96 -83 -83 163 -162 82 82 96 -40 0 -116 115 0 114 0 0 116 97 40 82 -82zm-293 243c117,0 212,95 212,212 0,118 -95,213 -212,213 -118,0 -213,-95 -213,-213 0,-117 95,-212 213,-212z"/>
  </g>
  <ellipse class="fil4 str2" cx="2128" cy="1550" rx="417" ry="421"/>
  <path class="fil0" d="M3879 1566l162 162 -82 83 39 96 117 0 0 229 -117 0 -40 95 83 83 -162 163 -84 -84 -95 39 0 119 -229 0 0 -119 -95 -39 -83 84 -163 -163 84 -83 -40 -95 -117 0 0 -229 116 0 40 -96 -83 -83 163 -162 82 82 96 -40 0 -116 115 0 114 0 0 116 97 40 82 -82zm-293 243c117,0 212,95 212,212 0,118 -95,213 -212,213 -118,0 -213,-95 -213,-213 0,-117 95,-212 213,-212z"/>
 </g>
</svg>
