<?xml version="1.0" encoding="utf-8"?>
<!-- Generator: Adobe Illustrator 25.2.1, SVG Export Plug-In . SVG Version: 6.00 Build 0)  -->
<svg version="1.1" id="Capa_2" xmlns="http://www.w3.org/2000/svg" xmlns:xlink="http://www.w3.org/1999/xlink" x="0px" y="0px"
	 viewBox="0 0 100 100" style="enable-background:new 0 0 100 100;" xml:space="preserve">
<style type="text/css">
	.st0{fill:none;stroke:#C1272D;stroke-width:5;stroke-linejoin:round;stroke-miterlimit:10;}
	.st1{fill:none;stroke:#C1272D;stroke-width:5;stroke-linecap:round;stroke-linejoin:bevel;stroke-miterlimit:10;}
	.st2{fill:#C1272D;}
</style>
<g>
	<path class="st0" d="M64.41,84.01H10.5c-3.31,0-6-2.69-6-6V45c0-3.31,2.69-6,6-6h53.91c3.31,0,6,2.69,6,6v33.01
		C70.41,81.32,67.73,84.01,64.41,84.01z"/>
	<line class="st1" x1="6.09" y1="41.58" x2="37.46" y2="63.01"/>
	<line class="st1" x1="68.83" y1="41.58" x2="37.46" y2="63.01"/>
</g>
<g>
	<g>
		<path class="st2" d="M91.61,86.11c-1.53,0-2.83-0.53-3.91-1.59c-1.08-1.06-1.62-2.36-1.62-3.88c0-1.53,0.54-2.83,1.62-3.91
			c1.08-1.08,2.38-1.62,3.91-1.62c1.49,0,2.79,0.54,3.88,1.62c1.1,1.08,1.64,2.38,1.64,3.91c0,1.53-0.55,2.82-1.64,3.88
			S93.1,86.11,91.61,86.11z M95.79,13.79l-0.95,51.3h-6.72l-0.9-51.3H95.79z"/>
	</g>
</g>
</svg>
