<?xml version="1.0" encoding="utf-8"?>
<!-- Generator: Adobe Illustrator 25.2.1, SVG Export Plug-In . SVG Version: 6.00 Build 0)  -->
<svg version="1.1" id="Capa_2" xmlns="http://www.w3.org/2000/svg" xmlns:xlink="http://www.w3.org/1999/xlink" x="0px" y="0px"
	 viewBox="0 0 100 100" style="enable-background:new 0 0 100 100;" xml:space="preserve">
<style type="text/css">
	.st0{fill:none;stroke:#000000;stroke-width:5;stroke-miterlimit:10;}
	.st1{stroke:#000000;stroke-width:2;stroke-miterlimit:10;}
</style>
<circle class="st0" cx="50" cy="50" r="45"/>
<g>
	<g>
		<path class="st1" d="M55.81,38.85c0-3.7-2.23-6.68-6.66-6.68c-3.04,0-5.78,1.5-7.93,3.94l-3.26-2.97c2.9-3.25,6.83-5.7,11.83-5.7
			c6.98,0,11.57,4.23,11.57,11.01c0,9.06-11.12,12.71-9.99,22.35h-5.03C44.88,50.1,55.81,46.15,55.81,38.85z M44.9,71.04
			c0-2.61,1.85-4.38,4.11-4.38c2.26,0,4.11,1.78,4.11,4.38c0,2.52-1.85,4.3-4.11,4.3C46.76,75.34,44.9,73.56,44.9,71.04z"/>
	</g>
</g>
</svg>
