<?xml version="1.0" encoding="utf-8"?>
<!-- Generator: Adobe Illustrator 25.2.1, SVG Export Plug-In . SVG Version: 6.00 Build 0)  -->
<svg version="1.1" xmlns="http://www.w3.org/2000/svg" xmlns:xlink="http://www.w3.org/1999/xlink" x="0px" y="0px"
	 viewBox="0 0 100 100" style="enable-background:new 0 0 100 100;" xml:space="preserve">
<style type="text/css">
	.st0{display:none;}
	.st1{display:inline;fill:#666666;}
	.st2{fill:#FFFFFF;stroke:#FFFFFF;stroke-width:6.4311;stroke-miterlimit:10;}
	.st3{fill:none;stroke:#4D4D4D;stroke-width:2.5252;stroke-miterlimit:10;}
	.st4{fill:#4D4D4D;stroke:#4D4D4D;stroke-width:2.5252;stroke-miterlimit:10;}
</style>
<g id="Capa_3" class="st0">
	<rect class="st1" width="100" height="100"/>
</g>
<g id="Capa_2">
	<circle class="st2" cx="50.03" cy="50.42" r="45.44"/>
</g>
<g id="Capa_4">
	<g>
		<path class="st3" d="M73.98,50.59l-22.44,10.6c-0.85,0.4-2.21,0.4-3.07,0l-22.44-10.6c-0.84-0.4-0.84-1.05,0-1.45l4.51-2.13
			c0.38-0.18,0.82-0.18,1.2,0l16.73,7.9c0.85,0.4,2.21,0.4,3.07,0l16.73-7.9c0.38-0.18,0.82-0.18,1.2,0l4.51,2.13
			C74.82,49.55,74.82,50.19,73.98,50.59z"/>
		<path class="st3" d="M73.98,62.82l-22.44,10.6c-0.85,0.4-2.21,0.4-3.07,0l-22.44-10.6c-0.84-0.4-0.84-1.05,0-1.45l4.51-2.13
			c0.38-0.18,0.82-0.18,1.2,0l16.73,7.9c0.85,0.4,2.21,0.4,3.07,0l16.73-7.9c0.38-0.18,0.82-0.18,1.2,0l4.51,2.13
			C74.82,61.77,74.82,62.42,73.98,62.82z"/>
		<path class="st4" d="M71.29,39.73l-19.15,9.05c-1.17,0.55-3.09,0.55-4.26,0l-19.15-9.05c-2.32-1.1-2.32-2.89,0-3.99l19.15-9.05
			c1.17-0.55,3.09-0.55,4.26,0l19.15,9.05C73.61,36.84,73.61,38.64,71.29,39.73z"/>
	</g>
</g>
</svg>
