<?xml version="1.0" encoding="utf-8"?>
<!-- Generator: Adobe Illustrator 25.2.1, SVG Export Plug-In . SVG Version: 6.00 Build 0)  -->
<svg version="1.1" xmlns="http://www.w3.org/2000/svg" xmlns:xlink="http://www.w3.org/1999/xlink" x="0px" y="0px"
	 viewBox="0 0 100 100" style="enable-background:new 0 0 100 100;" xml:space="preserve">
<style type="text/css">
	.st0{display:none;}
	.st1{display:inline;fill:#666666;}
	.st2{fill:#FFFFFF;stroke:#FFFFFF;stroke-width:5;stroke-miterlimit:10;}
	.st3{fill:none;stroke:#4D4D4D;stroke-width:3;stroke-linecap:round;stroke-miterlimit:10;}
	.st4{fill:none;stroke:#4D4D4D;stroke-width:1.5;stroke-linecap:round;stroke-linejoin:round;stroke-miterlimit:10;}
</style>
<g id="Capa_3" class="st0">
	<rect class="st1" width="100" height="100"/>
</g>
<g id="Capa_2">
	<circle class="st2" cx="39.91" cy="60.29" r="35.33"/>
	<circle class="st2" cx="73.61" cy="26.86" r="22.48"/>
</g>
<g id="Capa_4">
	<g>
		<g>
			<line class="st3" x1="54.57" y1="75.65" x2="25.26" y2="46.04"/>
		</g>
		<g>
			<line class="st3" x1="54.4" y1="45.66" x2="25.43" y2="74.93"/>
		</g>
	</g>
	<g>
		<path class="st4" d="M80.67,27.12c3.31,0.72,5.52,2.01,5.52,3.47c0,2.26-5.23,4.09-11.68,4.09c-6.45,0-11.68-1.83-11.68-4.09
			c0-1.41,2.04-2.65,5.14-3.39"/>
		<path class="st4" d="M80.67,26.24"/>
		<circle class="st4" cx="74.51" cy="14.92" r="2.94"/>
		<g>
			<path class="st4" d="M69.49,23.33"/>
			<path class="st4" d="M74.53,27.16"/>
			<path class="st4" d="M70.25,22.14c0-2.36,1.92-4.28,4.28-4.28s4.28,1.92,4.28,4.28"/>
			<line class="st4" x1="70.25" y1="22.03" x2="70.25" y2="25.41"/>
			<line class="st4" x1="78.8" y1="21.99" x2="78.8" y2="25.41"/>
			<line class="st4" x1="70.25" y1="25.41" x2="72.33" y2="26.93"/>
			<line class="st4" x1="72.33" y1="26.93" x2="72.32" y2="31.6"/>
			<line class="st4" x1="78.75" y1="25.41" x2="76.67" y2="26.93"/>
			<line class="st4" x1="76.67" y1="26.93" x2="76.68" y2="31.6"/>
			<line class="st4" x1="72.32" y1="31.6" x2="76.68" y2="31.6"/>
		</g>
	</g>
</g>
</svg>
