<?xml version="1.0" encoding="utf-8"?>
<!-- Generator: Adobe Illustrator 25.2.1, SVG Export Plug-In . SVG Version: 6.00 Build 0)  -->
<svg version="1.1" xmlns="http://www.w3.org/2000/svg" xmlns:xlink="http://www.w3.org/1999/xlink" x="0px" y="0px"
	 viewBox="0 0 100 100" style="enable-background:new 0 0 100 100;" xml:space="preserve">
<style type="text/css">
	.st0{display:none;}
	.st1{display:inline;fill:#666666;}
	.st2{fill:#FFFFFF;stroke:#FFFFFF;stroke-width:5;stroke-miterlimit:10;}
	.st3{fill:none;stroke:#4D4D4D;stroke-width:3;stroke-linecap:round;stroke-miterlimit:10;}
	.st4{fill:none;stroke:#4D4D4D;stroke-width:1.1273;stroke-linecap:round;stroke-linejoin:round;stroke-miterlimit:10;}
	.st5{fill:none;stroke:#4D4D4D;stroke-width:0.9018;stroke-linecap:round;stroke-linejoin:round;stroke-miterlimit:10;}
	.st6{fill:#4D4D4D;}
	.st7{font-family:'ArialNarrow';}
	.st8{font-size:11.7237px;}
</style>
<g id="Capa_3" class="st0">
	<rect class="st1" width="100" height="100"/>
</g>
<g id="Capa_2">
	<circle class="st2" cx="39.91" cy="60.29" r="35.33"/>
	<circle class="st2" cx="73.61" cy="26.86" r="22.48"/>
</g>
<g id="Capa_4">
	<g>
		<g>
			<line class="st3" x1="54.57" y1="75.65" x2="25.26" y2="46.04"/>
		</g>
		<g>
			<line class="st3" x1="54.4" y1="45.66" x2="25.43" y2="74.93"/>
		</g>
	</g>
	<g>
		<g>
			<path class="st4" d="M84.32,23.62v9.47c0,0.62-0.5,1.13-1.13,1.13H67.02c-0.62,0-1.13-0.5-1.13-1.13V16.92
				c0-0.62,0.5-1.13,1.13-1.13h9.53c0.55,0,1.02,0.4,1.11,0.95c0.08,0.46,0.21,0.91,0.38,1.36c0.34,0.86,0.85,1.67,1.55,2.38
				c0.65,0.65,1.46,1.21,2.43,1.61c0.43,0.18,0.9,0.33,1.4,0.43C83.94,22.64,84.32,23.09,84.32,23.62z"/>
			<line class="st5" x1="79.59" y1="20.48" x2="66.16" y2="33.82"/>
			<line class="st5" x1="82.03" y1="22.09" x2="69.8" y2="34.22"/>
			<line class="st5" x1="84.32" y1="23.82" x2="73.83" y2="34.22"/>
			<line class="st5" x1="84.32" y1="28" x2="78.05" y2="34.22"/>
			<line class="st5" x1="84.32" y1="32.09" x2="82.18" y2="34.22"/>
			<line class="st5" x1="68.23" y1="15.8" x2="65.89" y2="18.12"/>
			<line class="st5" x1="72.27" y1="15.8" x2="65.89" y2="22.12"/>
			<line class="st5" x1="76.18" y1="15.8" x2="65.89" y2="26.01"/>
			<line class="st5" x1="78.05" y1="18.11" x2="65.89" y2="30.17"/>
		</g>
		<text transform="matrix(1 0 0 1 80.7002 19.6348)" class="st6 st7 st8">s</text>
	</g>
</g>
</svg>
