<?xml version="1.0" encoding="utf-8"?>
<!-- Generator: Adobe Illustrator 25.2.1, SVG Export Plug-In . SVG Version: 6.00 Build 0)  -->
<svg version="1.1" xmlns="http://www.w3.org/2000/svg" xmlns:xlink="http://www.w3.org/1999/xlink" x="0px" y="0px"
	 viewBox="0 0 100 100" style="enable-background:new 0 0 100 100;" xml:space="preserve">
<style type="text/css">
	.st0{display:none;}
	.st1{display:inline;fill:#666666;}
	.st2{fill:#FFFFFF;stroke:#FFFFFF;stroke-width:5;stroke-miterlimit:10;}
	.st3{fill:none;stroke:#4D4D4D;stroke-width:3;stroke-linecap:round;stroke-miterlimit:10;}
	.st4{fill:none;stroke:#4D4D4D;stroke-width:2;stroke-linecap:round;stroke-linejoin:round;stroke-miterlimit:10;}
</style>
<g id="Capa_3" class="st0">
	<rect class="st1" width="100" height="100"/>
</g>
<g id="Capa_2">
	<circle class="st2" cx="39.91" cy="60.29" r="35.33"/>
	<circle class="st2" cx="73.61" cy="26.86" r="22.48"/>
</g>
<g id="Capa_4">
	<g>
		<g>
			<line class="st3" x1="54.57" y1="75.65" x2="25.26" y2="46.04"/>
		</g>
		<g>
			<line class="st3" x1="54.4" y1="45.66" x2="25.43" y2="74.93"/>
		</g>
	</g>
	<g>
		<path class="st4" d="M83.03,25.97c0,4.44-2.83,8.21-6.77,9.62c-0.41,0.15-0.84,0.27-1.27,0.36c-0.7,0.15-1.43,0.23-2.17,0.23
			c-5.65,0-10.22-4.58-10.22-10.22s4.57-10.22,10.22-10.22c0.74,0,1.47,0.08,2.17,0.23c0.44,0.09,0.86,0.22,1.27,0.36
			C80.2,17.75,83.03,21.53,83.03,25.97z"/>
		<path class="st4" d="M87.37,25.97c0,5.64-4.57,10.22-10.22,10.22c-0.75,0-1.47-0.08-2.17-0.23c0.44-0.09,0.86-0.22,1.27-0.36
			c3.95-1.41,6.77-5.19,6.77-9.62c0-4.44-2.83-8.21-6.77-9.62c-0.41-0.15-0.84-0.27-1.27-0.36c0.7-0.15,1.43-0.23,2.17-0.23
			C82.8,15.75,87.37,20.32,87.37,25.97z"/>
	</g>
</g>
</svg>
