<?xml version="1.0" encoding="utf-8"?>
<!-- Generator: Adobe Illustrator 25.2.1, SVG Export Plug-In . SVG Version: 6.00 Build 0)  -->
<svg version="1.1" xmlns="http://www.w3.org/2000/svg" xmlns:xlink="http://www.w3.org/1999/xlink" x="0px" y="0px"
	 viewBox="0 0 100 100" style="enable-background:new 0 0 100 100;" xml:space="preserve">
<style type="text/css">
	.st0{display:none;}
	.st1{display:inline;fill:#666666;}
	.st2{fill:#FFFFFF;stroke:#FFFFFF;stroke-width:5;stroke-miterlimit:10;}
	.st3{fill:none;stroke:#4D4D4D;stroke-width:3;stroke-linecap:round;stroke-miterlimit:10;}
	.st4{fill:none;stroke:#4D4D4D;stroke-width:1.2354;stroke-linecap:round;stroke-linejoin:round;stroke-miterlimit:10;}
</style>
<g id="Capa_3" class="st0">
	<rect class="st1" width="100" height="100"/>
</g>
<g id="Capa_2">
	<circle class="st2" cx="39.91" cy="60.29" r="35.33"/>
	<circle class="st2" cx="73.61" cy="26.86" r="22.48"/>
</g>
<g id="Capa_4">
	<g>
		<g>
			<line class="st3" x1="54.57" y1="75.65" x2="25.26" y2="46.04"/>
		</g>
		<g>
			<line class="st3" x1="54.4" y1="45.66" x2="25.43" y2="74.93"/>
		</g>
	</g>
	<g>
		<path class="st4" d="M85.33,33.41"/>
		<path class="st4" d="M70.13,31.51h-1.96c-0.6,0-1.09-0.49-1.09-1.09v-5.23c0-0.6,0.49-1.09,1.09-1.09h1.96
			c0.6,0,1.09,0.49,1.09,1.09v5.23C71.22,31.02,70.73,31.51,70.13,31.51z"/>
		<path class="st4" d="M76.42,31.51h-2.16c-0.6,0-1.09-0.49-1.09-1.09v-8.07c0-0.6,0.49-1.09,1.09-1.09h2.16
			c0.6,0,1.09,0.49,1.09,1.09v8.07C77.51,31.02,77.03,31.51,76.42,31.51z"/>
		<path class="st4" d="M82.53,31.51h-2.04c-0.6,0-1.09-0.49-1.09-1.09V17.91c0-0.6,0.49-1.09,1.09-1.09h2.04
			c0.6,0,1.09,0.49,1.09,1.09v12.51C83.62,31.02,83.13,31.51,82.53,31.51z"/>
		<path class="st4" d="M84.48,33.63l-17.59,0c-1.57,0-2.07-0.74-2.07-2.31L64.8,15.87"/>
	</g>
</g>
</svg>
