<?xml version="1.0" encoding="utf-8"?>
<!-- Generator: Adobe Illustrator 25.2.1, SVG Export Plug-In . SVG Version: 6.00 Build 0)  -->
<svg version="1.1" xmlns="http://www.w3.org/2000/svg" xmlns:xlink="http://www.w3.org/1999/xlink" x="0px" y="0px"
	 viewBox="0 0 100 100" style="enable-background:new 0 0 100 100;" xml:space="preserve">
<style type="text/css">
	.st0{display:none;}
	.st1{display:inline;fill:#666666;}
	.st2{fill:#FFFFFF;stroke:#FFFFFF;stroke-width:5;stroke-miterlimit:10;}
	.st3{fill:none;stroke:#4D4D4D;stroke-width:3;stroke-linecap:round;stroke-miterlimit:10;}
	.st4{fill:none;stroke:#4D4D4D;stroke-width:2;stroke-linecap:round;stroke-linejoin:round;stroke-miterlimit:10;}
</style>
<g id="Capa_3" class="st0">
	<rect class="st1" width="100" height="100"/>
</g>
<g id="Capa_2">
	<circle class="st2" cx="39.91" cy="60.29" r="35.33"/>
	<circle class="st2" cx="73.61" cy="26.86" r="22.48"/>
</g>
<g id="Capa_4">
	<g>
		<g>
			<line class="st3" x1="54.57" y1="75.65" x2="25.26" y2="46.04"/>
		</g>
		<g>
			<line class="st3" x1="54.4" y1="45.66" x2="25.43" y2="74.93"/>
		</g>
	</g>
	<g>
		<path class="st4" d="M84.5,25.78c0,5.81-4.71,10.51-10.51,10.51c-5.81,0-10.51-4.7-10.51-10.51c0-5.8,4.7-10.51,10.51-10.51
			c1.84,0,3.57,0.47,5.07,1.3l-5.35,5.32c-0.27,0.27-0.48,0.6-0.59,0.97l-2.19,4.8c-0.28,0.87,0.54,1.68,1.4,1.42l4.69-2.28
			c0.37-0.11,0.7-0.31,0.97-0.58l5.32-5.28C84.06,22.37,84.5,24.03,84.5,25.78z"/>
		<path class="st4" d="M86.69,17.55l-3.38,3.36l-5.32,5.28c-0.27,0.27-0.6,0.47-0.97,0.58l-4.69,2.28c-0.87,0.27-1.68-0.55-1.4-1.42
			l2.19-4.8c0.11-0.37,0.32-0.7,0.59-0.97l5.35-5.32l3.35-3.33c0.43-0.43,1.14-0.43,1.57,0l2.73,2.74
			C87.12,16.42,87.12,17.12,86.69,17.55z"/>
	</g>
</g>
</svg>
