<?xml version="1.0" encoding="utf-8"?>
<!-- Generator: Adobe Illustrator 25.2.1, SVG Export Plug-In . SVG Version: 6.00 Build 0)  -->
<svg version="1.1" xmlns="http://www.w3.org/2000/svg" xmlns:xlink="http://www.w3.org/1999/xlink" x="0px" y="0px"
	 viewBox="0 0 100 100" style="enable-background:new 0 0 100 100;" xml:space="preserve">
<style type="text/css">
	.st0{display:none;}
	.st1{display:inline;fill:#666666;}
	.st2{fill:#FFFFFF;stroke:#FFFFFF;stroke-width:5;stroke-miterlimit:10;}
	.st3{fill:none;stroke:#4D4D4D;stroke-width:3;stroke-linecap:round;stroke-miterlimit:10;}
	.st4{fill:none;stroke:#4D4D4D;stroke-width:1.4905;stroke-linecap:round;stroke-linejoin:round;stroke-miterlimit:10;}
</style>
<g id="Capa_3" class="st0">
	<rect class="st1" width="100" height="100"/>
</g>
<g id="Capa_2">
	<circle class="st2" cx="39.91" cy="60.29" r="35.33"/>
	<circle class="st2" cx="73.61" cy="26.86" r="22.48"/>
</g>
<g id="Capa_4">
	<g>
		<g>
			<line class="st3" x1="54.57" y1="75.65" x2="25.26" y2="46.04"/>
		</g>
		<g>
			<line class="st3" x1="54.4" y1="45.66" x2="25.43" y2="74.93"/>
		</g>
	</g>
	<g>
		<path class="st4" d="M73.09,33.32c-5.65,0-10.24-4.58-10.24-10.24s4.58-10.24,10.24-10.24s10.24,4.58,10.24,10.24"/>
		<path class="st4" d="M73.09,33.32"/>
		<path class="st4" d="M83.33,23.09"/>
		<line class="st4" x1="73.09" y1="33.32" x2="83.33" y2="33.11"/>
		<line class="st4" x1="83.33" y1="23.09" x2="83.33" y2="33.11"/>
		<line class="st4" x1="85.5" y1="33.11" x2="91.08" y2="33.11"/>
		<line class="st4" x1="91.08" y1="34.83" x2="91.08" y2="33.11"/>
		<circle class="st4" cx="73.09" cy="22.8" r="4.37"/>
		<circle class="st4" cx="79.52" cy="29.33" r="1.23"/>
	</g>
</g>
</svg>
