<?xml version="1.0" encoding="utf-8"?>
<!-- Generator: Adobe Illustrator 25.2.1, SVG Export Plug-In . SVG Version: 6.00 Build 0)  -->
<svg version="1.1" xmlns="http://www.w3.org/2000/svg" xmlns:xlink="http://www.w3.org/1999/xlink" x="0px" y="0px"
	 viewBox="0 0 100 100" style="enable-background:new 0 0 100 100;" xml:space="preserve">
<style type="text/css">
	.st0{display:none;}
	.st1{display:inline;fill:#666666;}
	.st2{fill:#FFFFFF;stroke:#FFFFFF;stroke-width:6.4311;stroke-miterlimit:10;}
	.st3{fill:none;stroke:#4D4D4D;stroke-width:2.5;stroke-miterlimit:10;}
</style>
<g id="Capa_3" class="st0">
	<rect class="st1" width="100" height="100"/>
</g>
<g id="Capa_2">
	<circle class="st2" cx="50.03" cy="50.42" r="45.44"/>
</g>
<g id="Capa_4">
	<g>
		<path class="st3" d="M74.22,50.6L51.55,61.3c-0.86,0.4-2.24,0.4-3.1,0L25.78,50.6c-0.85-0.4-0.85-1.06,0-1.46l4.56-2.15
			c0.38-0.18,0.83-0.18,1.21,0l16.9,7.98c0.86,0.4,2.24,0.4,3.1,0l16.9-7.98c0.38-0.18,0.83-0.18,1.21,0l4.56,2.15
			C75.07,49.54,75.07,50.19,74.22,50.6z"/>
		<path class="st3" d="M74.22,62.94l-22.67,10.7c-0.86,0.4-2.24,0.4-3.1,0l-22.67-10.7c-0.85-0.4-0.85-1.06,0-1.46l4.56-2.15
			c0.38-0.18,0.83-0.18,1.21,0l16.9,7.98c0.86,0.4,2.24,0.4,3.1,0l16.9-7.98c0.38-0.18,0.83-0.18,1.21,0l4.56,2.15
			C75.07,61.89,75.07,62.54,74.22,62.94z"/>
		<path class="st3" d="M71.5,39.63l-19.35,9.14c-1.18,0.56-3.12,0.56-4.3,0L28.5,39.63c-2.34-1.11-2.34-2.92,0-4.03l19.35-9.14
			c1.18-0.56,3.12-0.56,4.3,0L71.5,35.6C73.84,36.71,73.84,38.52,71.5,39.63z"/>
	</g>
</g>
</svg>
