<?xml version="1.0" encoding="utf-8"?>
<!-- Generator: Adobe Illustrator 25.2.1, SVG Export Plug-In . SVG Version: 6.00 Build 0)  -->
<svg version="1.1" xmlns="http://www.w3.org/2000/svg" xmlns:xlink="http://www.w3.org/1999/xlink" x="0px" y="0px"
	 viewBox="0 0 100 100" style="enable-background:new 0 0 100 100;" xml:space="preserve">
<style type="text/css">
	.st0{display:none;}
	.st1{display:inline;fill:#666666;}
	.st2{fill:#FFFFFF;stroke:#FFFFFF;stroke-width:5;stroke-miterlimit:10;}
	.st3{fill:none;stroke:#4D4D4D;stroke-width:3;stroke-linecap:round;stroke-miterlimit:10;}
	.st4{fill:none;stroke:#4D4D4D;stroke-width:1.7;stroke-miterlimit:10;}
	.st5{fill:none;stroke:#4D4D4D;stroke-width:1.7;stroke-linecap:round;stroke-linejoin:round;stroke-miterlimit:10;}
</style>
<g id="Capa_3" class="st0">
	<rect class="st1" width="100" height="100"/>
</g>
<g id="Capa_2">
	<circle class="st2" cx="39.91" cy="60.29" r="35.33"/>
	<circle class="st2" cx="73.61" cy="26.86" r="22.48"/>
</g>
<g id="Capa_4">
	<g>
		<g>
			<line class="st3" x1="54.57" y1="75.65" x2="25.26" y2="46.04"/>
		</g>
		<g>
			<line class="st3" x1="54.4" y1="45.66" x2="25.43" y2="74.93"/>
		</g>
	</g>
	<g>
		<path class="st4" d="M82.46,18.55"/>
		<path class="st4" d="M68.02,18.55"/>
		<path class="st4" d="M82.51,18.59c-0.26,5.72-0.51,11.45-0.77,17.17c0,0.85-0.64,1.55-1.44,1.55H69.77
			c-0.79,0-1.44-0.69-1.44-1.55c-0.25-5.75-0.51-11.49-0.76-17.24"/>
		<path class="st5" d="M85.22,17.86"/>
		<path class="st5" d="M65.27,17.86"/>
		<line class="st5" x1="73.14" y1="14.84" x2="76.95" y2="14.84"/>
		<line class="st5" x1="64.53" y1="18.55" x2="85.96" y2="18.55"/>
		<path class="st4" d="M68.02,18.55"/>
		<path class="st4" d="M72.64,14.62"/>
		<path class="st5" d="M82.46,18.01"/>
		<path class="st5" d="M77.84,14.62"/>
		<line class="st5" x1="71.34" y1="22.15" x2="71.5" y2="33.71"/>
		<line class="st5" x1="74.96" y1="22.16" x2="75.12" y2="33.72"/>
		<line class="st5" x1="78.58" y1="22.11" x2="78.74" y2="33.67"/>
	</g>
</g>
</svg>
