<?xml version="1.0" encoding="utf-8"?>
<!-- Generator: Adobe Illustrator 25.2.1, SVG Export Plug-In . SVG Version: 6.00 Build 0)  -->
<svg version="1.1" xmlns="http://www.w3.org/2000/svg" xmlns:xlink="http://www.w3.org/1999/xlink" x="0px" y="0px"
	 viewBox="0 0 100 100" style="enable-background:new 0 0 100 100;" xml:space="preserve">
<style type="text/css">
	.st0{display:none;}
	.st1{display:inline;fill:#666666;}
	.st2{fill:#FFFFFF;stroke:#FFFFFF;stroke-width:5;stroke-miterlimit:10;}
	.st3{fill:none;stroke:#4D4D4D;stroke-width:3;stroke-linecap:round;stroke-miterlimit:10;}
	.st4{fill:none;stroke:#4D4D4D;stroke-width:1.2879;stroke-linecap:round;stroke-linejoin:round;stroke-miterlimit:10;}
</style>
<g id="Capa_3" class="st0">
	<rect class="st1" width="100" height="100"/>
</g>
<g id="Capa_2">
	<circle class="st2" cx="39.91" cy="60.29" r="35.33"/>
	<circle class="st2" cx="73.61" cy="26.86" r="22.48"/>
</g>
<g id="Capa_4">
	<g>
		<g>
			<line class="st3" x1="54.57" y1="75.65" x2="25.26" y2="46.04"/>
		</g>
		<g>
			<line class="st3" x1="54.4" y1="45.66" x2="25.43" y2="74.93"/>
		</g>
	</g>
	<g>
		<path class="st4" d="M86.04,25.72c-1.08,5.09-5.15,5.18-7.21,5.22c-0.94,0.02-3.4-0.13-3.62,1.45c-0.16,1.21,0.98,1.76,1.06,2.88
			c0.1,1.37-1.45,1.87-3.62,1.87c-5.73,0-10.13-4.93-10.13-11.43s5.27-11.76,11.76-11.76C82.74,13.96,87.11,20.71,86.04,25.72z"/>
		<circle class="st4" cx="66.92" cy="23.78" r="1.26"/>
		<circle class="st4" cx="68.44" cy="30.27" r="1.26"/>
		<circle class="st4" cx="70.85" cy="18.73" r="1.26"/>
		<circle class="st4" cx="77.1" cy="18.42" r="1.26"/>
		<circle class="st4" cx="81.3" cy="23.46" r="1.26"/>
	</g>
</g>
</svg>
