<?xml version="1.0" encoding="utf-8"?>
<!-- Generator: Adobe Illustrator 25.2.1, SVG Export Plug-In . SVG Version: 6.00 Build 0)  -->
<svg version="1.1" xmlns="http://www.w3.org/2000/svg" xmlns:xlink="http://www.w3.org/1999/xlink" x="0px" y="0px"
	 viewBox="0 0 100 100" style="enable-background:new 0 0 100 100;" xml:space="preserve">
<style type="text/css">
	.st0{display:none;}
	.st1{display:inline;fill:#666666;}
	.st2{fill:#FFFFFF;stroke:#FFFFFF;stroke-width:5;stroke-miterlimit:10;}
	.st3{fill:none;stroke:#4D4D4D;stroke-width:3;stroke-linecap:round;stroke-miterlimit:10;}
	.st4{fill:none;stroke:#4D4D4D;stroke-width:1.5;stroke-linecap:round;stroke-linejoin:round;stroke-miterlimit:10;}
</style>
<g id="Capa_3" class="st0">
	<rect class="st1" width="100" height="100"/>
</g>
<g id="Capa_2">
	<circle class="st2" cx="39.91" cy="60.29" r="35.33"/>
	<circle class="st2" cx="73.61" cy="26.86" r="22.48"/>
</g>
<g id="Capa_4">
	<g>
		<g>
			<line class="st3" x1="54.57" y1="75.65" x2="25.26" y2="46.04"/>
		</g>
		<g>
			<line class="st3" x1="54.4" y1="45.66" x2="25.43" y2="74.93"/>
		</g>
	</g>
	<g>
		<g>
			<line class="st4" x1="71.71" y1="24.94" x2="80.1" y2="24.94"/>
			<ellipse class="st4" cx="68.7" cy="25.04" rx="0.09" ry="0.1"/>
			<line class="st4" x1="71.71" y1="20.68" x2="80.1" y2="20.68"/>
			<ellipse class="st4" cx="68.7" cy="20.78" rx="0.09" ry="0.1"/>
			<line class="st4" x1="71.71" y1="29.19" x2="80.1" y2="29.19"/>
			<ellipse class="st4" cx="68.7" cy="29.29" rx="0.09" ry="0.1"/>
		</g>
		<path class="st4" d="M81.44,34.78H67.28c-1.47,0-2.66-1.19-2.66-2.66V17.96c0-1.47,1.19-2.66,2.66-2.66h14.16
			c1.47,0,2.66,1.19,2.66,2.66v14.16C84.1,33.59,82.91,34.78,81.44,34.78z"/>
	</g>
</g>
</svg>
