<?xml version="1.0" encoding="utf-8"?>
<!-- Generator: Adobe Illustrator 25.2.1, SVG Export Plug-In . SVG Version: 6.00 Build 0)  -->
<svg version="1.1" xmlns="http://www.w3.org/2000/svg" xmlns:xlink="http://www.w3.org/1999/xlink" x="0px" y="0px"
	 viewBox="0 0 100 100" style="enable-background:new 0 0 100 100;" xml:space="preserve">
<style type="text/css">
	.st0{display:none;}
	.st1{display:inline;fill:#666666;}
	.st2{fill:#FFFFFF;stroke:#FFFFFF;stroke-width:6.4311;stroke-miterlimit:10;}
	.st3{display:inline;}
	.st4{fill:none;stroke:#4D4D4D;stroke-width:3.8586;stroke-linecap:round;stroke-miterlimit:10;}
	.st5{fill:none;stroke:#4D4D4D;stroke-width:2.8922;stroke-linecap:round;stroke-miterlimit:10;}
	.st6{fill:none;stroke:#4D4D4D;stroke-width:2.8922;stroke-linecap:round;stroke-linejoin:round;stroke-miterlimit:10;}
</style>
<g id="Capa_3" class="st0">
	<rect class="st1" width="100" height="100"/>
</g>
<g id="Capa_2">
	<circle class="st2" cx="50.03" cy="50.42" r="45.44"/>
</g>
<g id="Capa_4">
	<g class="st0">
		<g class="st3">
			<line class="st4" x1="68.88" y1="69.7" x2="31.17" y2="31.62"/>
		</g>
		<g class="st3">
			<line class="st4" x1="68.66" y1="31.13" x2="31.39" y2="68.77"/>
		</g>
	</g>
	<g>
		<path class="st5" d="M24.41,50.83l18.35,18.12c0.73,0.72,1.97,0.2,1.97-0.83v-8.61c0-1.15,0.93-2.08,2.08-2.08h10.9
			c0.95,0,1.74-0.78,1.74-1.74V44.31c0-0.96-0.78-1.74-1.74-1.74h-10.9c-1.15,0-2.08-0.93-2.08-2.08v-8.61
			c0-1.02-1.24-1.54-1.97-0.82L24.41,49.18C23.96,49.63,23.96,50.37,24.41,50.83z"/>
		<path class="st6" d="M54.77,69.28H65.7c3.3,0,4.23-2.32,4.23-5.17V35.89c0.03-3.95-2.03-5.17-4.37-5.17H54.77"/>
	</g>
</g>
</svg>
