<?xml version="1.0" encoding="utf-8"?>
<!-- Generator: Adobe Illustrator 25.2.1, SVG Export Plug-In . SVG Version: 6.00 Build 0)  -->
<svg version="1.1" id="Capa_1" xmlns="http://www.w3.org/2000/svg" xmlns:xlink="http://www.w3.org/1999/xlink" x="0px" y="0px"
	 viewBox="0 0 100 100" style="enable-background:new 0 0 100 100;" xml:space="preserve">
<style type="text/css">
	.st0{fill:none;stroke:#000000;stroke-width:5;stroke-miterlimit:10;}
</style>
<g>
	<g>
		<path class="st0" d="M96.33,14.72v48.93c0,1.65-0.72,3.22-2,4.37L70.2,89.66c-1.24,1.11-2.89,1.73-4.62,1.73H10.29
			c-3.66,0-6.62-2.73-6.62-6.1V34.74c0-1.82,0.88-3.54,2.4-4.7l26.3-20.03c1.19-0.9,2.68-1.4,4.22-1.4h53.11
			C93.36,8.61,96.33,11.35,96.33,14.72z"/>
		<line class="st0" x1="3.67" y1="31.87" x2="68.27" y2="32.09"/>
		<line class="st0" x1="68.27" y1="91.39" x2="68.27" y2="32.09"/>
		<line class="st0" x1="94.29" y1="10.32" x2="68.27" y2="32.09"/>
	</g>
	<line class="st0" x1="18.24" y1="20.25" x2="81.76" y2="20.46"/>
</g>
</svg>
