<?xml version="1.0" encoding="utf-8"?>
<!-- Generator: Adobe Illustrator 25.2.1, SVG Export Plug-In . SVG Version: 6.00 Build 0)  -->
<svg version="1.1" id="Capa_1" xmlns="http://www.w3.org/2000/svg" xmlns:xlink="http://www.w3.org/1999/xlink" x="0px" y="0px"
	 viewBox="0 0 100 100" style="enable-background:new 0 0 100 100;" xml:space="preserve">
<style type="text/css">
	.st0{fill:none;stroke:#000000;stroke-width:5;stroke-linecap:round;stroke-linejoin:round;stroke-miterlimit:10;}
	.st1{stroke:#000000;stroke-width:5;stroke-linecap:round;stroke-linejoin:round;stroke-miterlimit:10;}
	.st2{fill:none;stroke:#000000;stroke-width:7;stroke-linecap:round;stroke-linejoin:round;stroke-miterlimit:10;}
</style>
<path class="st0" d="M80.88,92.5H19.12C12.7,92.5,7.5,87.3,7.5,80.88V27.65c0-6.42,5.2-11.62,11.62-11.62h61.76
	c6.42,0,11.62,5.2,11.62,11.62v53.23C92.5,87.3,87.3,92.5,80.88,92.5z"/>
<rect x="18.23" y="38.88" class="st1" width="9.89" height="9.89"/>
<rect x="36.5" y="38.88" class="st1" width="9.89" height="9.89"/>
<rect x="54.41" y="38.88" class="st1" width="9.89" height="9.89"/>
<rect x="72.77" y="38.88" class="st1" width="9.89" height="9.89"/>
<rect x="18.27" y="56.26" class="st1" width="9.89" height="9.89"/>
<rect x="36.54" y="56.26" class="st1" width="9.89" height="9.89"/>
<rect x="54.45" y="56.26" class="st1" width="9.89" height="9.89"/>
<rect x="72.81" y="56.26" class="st1" width="9.89" height="9.89"/>
<rect x="18.27" y="73.63" class="st1" width="9.89" height="9.89"/>
<rect x="36.54" y="73.63" class="st1" width="9.89" height="9.89"/>
<line class="st2" x1="18.98" y1="28.01" x2="81.99" y2="28.01"/>
<line class="st2" x1="28.18" y1="5.83" x2="28.14" y2="18.54"/>
<line class="st2" x1="72.79" y1="5.83" x2="72.75" y2="18.54"/>
</svg>
