<?xml version="1.0" encoding="utf-8"?>
<!-- Generator: Adobe Illustrator 25.2.1, SVG Export Plug-In . SVG Version: 6.00 Build 0)  -->
<svg version="1.1" id="Capa_1" xmlns="http://www.w3.org/2000/svg" xmlns:xlink="http://www.w3.org/1999/xlink" x="0px" y="0px"
	 viewBox="0 0 100 100" style="enable-background:new 0 0 100 100;" xml:space="preserve">
<style type="text/css">
	.st0{fill:none;stroke:#000000;stroke-width:5;stroke-linecap:round;stroke-linejoin:round;stroke-miterlimit:10;}
</style>
<g>
	<g>
		<path class="st0" d="M94.87,41.63v42.69c0,3.86-2.85,7-6.36,7H11.49c-3.51,0-6.36-3.13-6.36-7V41.63c0-3.86,2.85-7,6.36-7h11.95
			c1.99,0,3.87-1.03,5.08-2.78l6.06-8.82c1.2-1.75,3.08-2.78,5.08-2.78h20.68c1.99,0,3.87,1.03,5.08,2.78l6.06,8.82
			c1.2,1.75,3.08,2.78,5.08,2.78h11.95C92.02,34.63,94.87,37.77,94.87,41.63z"/>
		<circle class="st0" cx="50.25" cy="60.3" r="13.77"/>
	</g>
	<path class="st0" d="M47.21,8.68"/>
</g>
</svg>
