<?xml version="1.0" encoding="utf-8"?>
<!-- Generator: Adobe Illustrator 25.2.1, SVG Export Plug-In . SVG Version: 6.00 Build 0)  -->
<svg version="1.1" id="Capa_1" xmlns="http://www.w3.org/2000/svg" xmlns:xlink="http://www.w3.org/1999/xlink" x="0px" y="0px"
	 viewBox="0 0 100 100" style="enable-background:new 0 0 100 100;" xml:space="preserve">
<style type="text/css">
	.st0{fill:none;stroke:#000000;stroke-width:5;stroke-linecap:round;stroke-linejoin:round;stroke-miterlimit:10;}
</style>
<g>
	<g>
		<path class="st0" d="M94.03,52.07V82.2c0,2.73-2.01,4.94-4.49,4.94H35.19c-2.48,0-4.49-2.21-4.49-4.94V52.07
			c0-2.73,2.01-4.94,4.49-4.94h8.43c1.41,0,2.73-0.73,3.58-1.96l4.28-6.22c0.85-1.23,2.17-1.96,3.58-1.96h14.6
			c1.41,0,2.73,0.73,3.58,1.96l4.28,6.22c0.85,1.23,2.17,1.96,3.58,1.96h8.43C92.02,47.13,94.03,49.34,94.03,52.07z"/>
		<circle class="st0" cx="62.54" cy="65.24" r="9.72"/>
	</g>
	<path class="st0" d="M5.97,28.81"/>
	<path class="st0" d="M5.97,49.23"/>
	<path class="st0" d="M23.35,67.29H10.5c-2.5,0-4.54-2.03-4.54-4.54V49.23"/>
	<path class="st0" d="M23.35,67.29"/>
	<path class="st0" d="M60.39,28.81"/>
	<path class="st0" d="M42.95,12.86h12.91c2.5,0,4.54,2.03,4.54,4.54v11.42"/>
	<path class="st0" d="M42.95,12.86"/>
	<path class="st0" d="M5.97,28.81V17.4c0-2.5,2.03-4.54,4.54-4.54h12.76"/>
</g>
</svg>
