<?xml version="1.0" encoding="utf-8"?>
<!-- Generator: Adobe Illustrator 25.2.1, SVG Export Plug-In . SVG Version: 6.00 Build 0)  -->
<svg version="1.1" id="Capa_2" xmlns="http://www.w3.org/2000/svg" xmlns:xlink="http://www.w3.org/1999/xlink" x="0px" y="0px"
	 viewBox="0 0 100 100" style="enable-background:new 0 0 100 100;" xml:space="preserve">
<style type="text/css">
	.st0{fill:#FFF;stroke:#FFF;stroke-width:5;stroke-linecap:round;stroke-linejoin:round;stroke-miterlimit:10;}
</style>
<g>
	<path style="fill:#FFF;" d="M50,11.85c0.39,0,0.78,0.18,1.08,0.54L74.8,38.98c0.94,1.15,0.27,3.1-1.08,3.1H61.29c-1.51,0-2.73,1.47-2.73,3.27
		l-0.06,23.83c0,1.5-1.63,2.73-2.88,2.73H44.28c-1.26,0-2.78-1.23-2.78-2.73l0.06-23.83c0-1.81-1.22-3.27-2.73-3.27H26.27
		c-1.34,0-2.02-1.95-1.08-3.1l23.72-26.59C49.22,12.03,49.61,11.85,50,11.85 M50,6.85c-1.86,0-3.62,0.82-4.85,2.26L21.47,35.66
		l-0.07,0.08l-0.07,0.08c-1.71,2.08-2.06,5.03-0.89,7.5c1.1,2.33,3.34,3.77,5.83,3.77h10.28l-0.06,22.09c0,4.13,3.64,7.74,7.78,7.74
		h11.35c3.73,0,7.88-3.17,7.88-7.73l0.06-22.11h10.16c2.49,0,4.73-1.44,5.83-3.76c1.17-2.46,0.83-5.4-0.87-7.49l-0.07-0.09
		l-0.08-0.09L54.85,9.11C53.61,7.67,51.85,6.85,50,6.85L50,6.85z"/>
</g>
<path class="st0" d="M95.05,68.92v11.5c0,5.52-2.3,9.99-9.07,9.99H14.25c-6.33,0-9.3-3.57-9.3-9.19v-12.3"/>
</svg>
