<?xml version="1.0" encoding="utf-8"?>
<!-- Generator: Adobe Illustrator 25.2.1, SVG Export Plug-In . SVG Version: 6.00 Build 0)  -->
<svg version="1.1" id="Capa_1" xmlns="http://www.w3.org/2000/svg" xmlns:xlink="http://www.w3.org/1999/xlink" x="0px" y="0px"
	 viewBox="0 0 100 100" style="enable-background:new 0 0 100 100;" xml:space="preserve">
<path d="M49.69,4.99c-25.21,0-45.65,20.44-45.65,45.66c0,25.22,17.09,44.37,39.33,44.36c8.46-0.01,14.47-1.96,14.07-7.28
	c-0.33-4.33-4.76-6.49-4.13-11.18c0.84-6.14,10.38-5.56,14.04-5.64c8.01-0.16,23.8-0.5,28-20.26C99.49,31.18,82.54,4.99,49.69,4.99z
	 M13.62,43.1c0-4.14,3.35-7.5,7.5-7.5c4.14,0,7.5,3.36,7.5,7.5s-3.36,7.5-7.5,7.5C16.97,50.6,13.62,47.24,13.62,43.1z M27.01,75.82
	c-4.14,0-7.5-3.35-7.5-7.5c0-4.14,3.36-7.5,7.5-7.5s7.5,3.36,7.5,7.5C34.51,72.47,31.15,75.82,27.01,75.82z M36.37,31.02
	c-4.14,0-7.5-3.36-7.5-7.5c0-4.14,3.36-7.5,7.5-7.5s7.5,3.36,7.5,7.5C43.87,27.66,40.51,31.02,36.37,31.02z M60.65,29.8
	c-4.15,0-7.5-3.35-7.5-7.5c0-4.14,3.35-7.5,7.5-7.5c4.14,0,7.5,3.36,7.5,7.5C68.15,26.45,64.79,29.8,60.65,29.8z M76.94,49.38
	c-4.14,0-7.5-3.35-7.5-7.5c0-4.14,3.36-7.5,7.5-7.5c4.15,0,7.5,3.36,7.5,7.5C84.44,46.03,81.09,49.38,76.94,49.38z"/>
</svg>
