<?xml version="1.0" encoding="UTF-8"?>
<!DOCTYPE svg PUBLIC "-//W3C//DTD SVG 1.1//EN" "http://www.w3.org/Graphics/SVG/1.1/DTD/svg11.dtd">
<!-- Creator: CorelDRAW X8 -->
<svg xmlns="http://www.w3.org/2000/svg" xml:space="preserve" width="9mm" height="15.5mm" version="1.1" style="shape-rendering:geometricPrecision; text-rendering:geometricPrecision; image-rendering:optimizeQuality; fill-rule:evenodd; clip-rule:evenodd"
viewBox="0 0 900 1550"
 xmlns:xlink="http://www.w3.org/1999/xlink">
 <defs>
  <style type="text/css">
   <![CDATA[
    .str0 {stroke:#00204A;stroke-width:200}
    .fil0 {fill:none}
    .fil1 {fill:#495C80;fill-rule:nonzero}
   ]]>
  </style>
 </defs>
 <g id="Capa_x0020_1">
  <metadata id="CorelCorpID_0Corel-Layer"/>
  <polyline class="fil0 str0" points="172,1474 728,775 172,76 "/>
  <g>
   <path class="fil1" d="M60448 75545c0,-55 43,-100 97,-100 53,0 97,45 97,100l-194 0zm0 2281l0 -2281 194 0 0 2281 0 0 -194 0zm-383 595l0 -200 0 0 19 -1 20 -1 19 -3 19 -3 18 -5 18 -5 18 -6 17 -7 17 -8 17 -9 16 -9 15 -11 15 -11 15 -12 14 -12 13 -13 13 -14 12 -14 11 -15 11 -16 10 -16 9 -16 9 -17 7 -18 7 -18 6 -18 6 -18 4 -19 3 -20 3 -19 1 -20 1 -21 194 0 -1 31 -2 30 -4 30 -5 29 -6 29 -8 28 -9 28 -11 26 -11 27 -13 25 -14 25 -15 24 -16 24 -17 22 -19 22 -19 20 -20 20 -21 19 -21 17 -23 17 -23 15 -25 15 -24 13 -26 12 -26 11 -27 9 -27 8 -28 7 -29 5 -29 4 -29 2 -29 1 0 0zm-4060 -200l4060 0 0 200 -4060 0 0 0 0 -200zm-147 48l194 0 0 0 0 -2 -1 -2 0 -3 0 -2 -1 -3 0 -2 -1 -3 -1 -2 -1 -2 -1 -2 -1 -2 -1 -2 -2 -2 -1 -2 -2 -1 -1 -2 -2 -1 -1 -2 -2 -1 -2 -2 -2 -1 -2 -1 -2 -1 -2 -1 -2 -1 -2 -1 -2 -1 -3 0 -2 -1 -3 0 -2 0 -2 0 0 200 -8 0 -7 -1 -8 -1 -7 -1 -7 -2 -7 -2 -7 -2 -7 -3 -6 -3 -7 -4 -6 -3 -6 -4 -5 -4 -6 -5 -5 -5 -5 -5 -5 -5 -5 -5 -4 -6 -4 -6 -4 -6 -4 -6 -3 -7 -3 -7 -2 -6 -3 -7 -2 -8 -1 -7 -2 -8 -1 -7 0 -8 0 -8 0 0zm194 -4438l0 4438 -194 0 0 -4438 0 0 194 0zm-47 -152l0 200 0 0 2 0 2 0 3 0 2 -1 3 0 2 -1 2 -1 2 -1 2 -1 2 -1 2 -1 2 -1 2 -1 2 -2 1 -1 2 -2 1 -1 2 -2 1 -2 2 -2 1 -2 1 -2 1 -2 1 -2 1 -2 1 -3 0 -2 1 -2 0 -3 0 -2 1 -3 0 -2 -194 0 0 -8 0 -8 1 -7 2 -8 1 -7 2 -7 3 -7 2 -7 3 -7 3 -7 4 -6 4 -6 4 -6 4 -6 5 -5 5 -5 5 -5 5 -5 6 -5 5 -4 6 -4 6 -3 7 -4 6 -3 7 -2 7 -3 7 -2 7 -2 7 -1 8 -1 7 -1 8 0 0 0zm2702 200l-2702 0 0 -200 2702 0 0 200zm0 -200c53,0 97,45 97,100 0,55 -44,100 -97,100l0 -200z"/>
  </g>
 </g>
</svg>
