<?xml version="1.0" encoding="UTF-8"?>
<!DOCTYPE svg PUBLIC "-//W3C//DTD SVG 1.1//EN" "http://www.w3.org/Graphics/SVG/1.1/DTD/svg11.dtd">
<!-- Creator: CorelDRAW X8 -->
<svg xmlns="http://www.w3.org/2000/svg" xml:space="preserve" width="40mm" height="45mm" version="1.1" style="shape-rendering:geometricPrecision; text-rendering:geometricPrecision; image-rendering:optimizeQuality; fill-rule:evenodd; clip-rule:evenodd"
viewBox="0 0 4000 4500"
 xmlns:xlink="http://www.w3.org/1999/xlink">
 <defs>
  <style type="text/css">
   <![CDATA[
    .str0 {stroke:#FEFEFE;stroke-width:160;stroke-linecap:round;stroke-linejoin:round}
    .fil0 {fill:none}
   ]]>
  </style>
 </defs>
 <g id="Capa_x0020_1">
  <metadata id="CorelCorpID_0Corel-Layer"/>
  <g id="_21168747024">
   <g>
    <path class="fil0 str0" d="M1539 366l961 0 324 0 137 0 600 600 0 79 -737 0 -239 0 0 688 44 0c55,0 100,45 100,100l0 1201c0,55 -45,100 -100,100l-470 0c-55,0 -100,-45 -100,-100l0 -1201c0,-55 45,-100 100,-100l44 0 0 -688 -664 0c-55,0 -100,-45 -100,-100l0 -479c0,-55 45,-100 100,-100z"/>
   </g>
   <g>
    <path class="fil0 str0" d="M539 1366l961 0 324 0 137 0 600 600 0 79 -737 0 -239 0 0 688 44 0c55,0 100,45 100,100l0 1201c0,55 -45,100 -100,100l-470 0c-55,0 -100,-45 -100,-100l0 -1201c0,-55 45,-100 100,-100l44 0 0 -688 -664 0c-55,0 -100,-45 -100,-100l0 -479c0,-55 45,-100 100,-100z"/>
   </g>
   <g>
    <path class="fil0 str0" d="M539 1366l961 0 324 0 137 0 600 600 0 79 -737 0 -239 0 0 688 44 0c55,0 100,45 100,100l0 1201c0,55 -45,100 -100,100l-470 0c-55,0 -100,-45 -100,-100l0 -1201c0,-55 45,-100 100,-100l44 0 0 -688 -664 0c-55,0 -100,-45 -100,-100l0 -479c0,-55 45,-100 100,-100z"/>
   </g>
  </g>
 </g>
</svg>
