<?xml version="1.0" encoding="UTF-8"?>
<!DOCTYPE svg PUBLIC "-//W3C//DTD SVG 1.1//EN" "http://www.w3.org/Graphics/SVG/1.1/DTD/svg11.dtd">
<!-- Creator: CorelDRAW X8 -->
<svg xmlns="http://www.w3.org/2000/svg" xml:space="preserve" width="60mm" height="35mm" version="1.1" style="shape-rendering:geometricPrecision; text-rendering:geometricPrecision; image-rendering:optimizeQuality; fill-rule:evenodd; clip-rule:evenodd"
viewBox="0 0 6000 3500"
 xmlns:xlink="http://www.w3.org/1999/xlink">
 <defs>
  <style type="text/css">
   <![CDATA[
    .str1 {stroke:#FEFEFE;stroke-width:20}
    .str0 {stroke:#FEFEFE;stroke-width:160;stroke-linecap:round;stroke-linejoin:round}
    .fil0 {fill:none}
    .fil1 {fill:#FEFEFE;fill-rule:nonzero}
   ]]>
  </style>
 </defs>
 <g id="Capa_x0020_1">
  <metadata id="CorelCorpID_0Corel-Layer"/>
  <g>
   <path class="fil0 str0" d="M576 366l961 0 324 0 137 0 600 600 0 79 -737 0 -239 0 0 688 44 0c55,0 100,45 100,100l0 1201c0,55 -45,100 -100,100l-470 0c-55,0 -100,-45 -100,-100l0 -1201c0,-55 45,-100 100,-100l44 0 0 -688 -664 0c-55,0 -100,-45 -100,-100l0 -479c0,-55 45,-100 100,-100z"/>
  </g>
  <g>
   <path class="fil0 str0" d="M3502 366l961 0 324 0 137 0 600 600 0 79 -737 0 -239 0 0 688 44 0c55,0 100,45 100,100l0 1201c0,55 -45,100 -100,100l-470 0c-55,0 -100,-45 -100,-100l0 -1201c0,-55 45,-100 100,-100l44 0 0 -688 -664 0c-55,0 -100,-45 -100,-100l0 -479c0,-55 45,-100 100,-100z"/>
  </g>
  <path class="fil1 str1" d="M2253 2391l631 0 0 174 630 -348 -630 -348 0 174 -631 0 0 348zm315 0m316 87m315 -87m0 -348m-315 -87m-316 87m-315 174"/>
 </g>
</svg>
