<?xml version="1.0" encoding="utf-8"?>
<!-- Generator: Adobe Illustrator 25.2.1, SVG Export Plug-In . SVG Version: 6.00 Build 0)  -->
<svg version="1.1" id="Capa_2" xmlns="http://www.w3.org/2000/svg" xmlns:xlink="http://www.w3.org/1999/xlink" x="0px" y="0px"
	 viewBox="0 0 100 100" style="enable-background:new 0 0 100 100;" xml:space="preserve">
<style type="text/css">
	.st0{fill:none;stroke:#000000;stroke-width:7;stroke-linecap:round;stroke-linejoin:round;stroke-miterlimit:10;}
</style>
<line class="st0" x1="50.01" y1="55.01" x2="50" y2="3.96"/>
<line class="st0" x1="50" y1="96.04" x2="50" y2="78.01"/>
<line class="st0" x1="16.65" y1="26.6" x2="16.65" y2="3.96"/>
<line class="st0" x1="16.65" y1="96.04" x2="16.65" y2="49.6"/>
<path class="st0" d="M28.15,38.11c0,6.34-5.15,11.49-11.49,11.49h-0.01c-6.36-0.01-11.5-5.15-11.5-11.49
	c0-6.35,5.14-11.5,11.5-11.51h0.01C23,26.6,28.15,31.76,28.15,38.11z"/>
<path class="st0" d="M61.5,66.52c0,6.34-5.15,11.49-11.49,11.49c-6.35,0-11.51-5.15-11.51-11.49c0-6.35,5.15-11.51,11.51-11.51
	C56.35,55.01,61.5,60.16,61.5,66.52z"/>
<path class="st0" d="M95.43,23.68c0,6.34-5.15,11.49-11.49,11.49c-6.35,0-11.51-5.15-11.51-11.49c0-6.35,5.15-11.51,11.51-11.51
	C90.28,12.18,95.43,17.33,95.43,23.68z"/>
<line class="st0" x1="83.94" y1="12.18" x2="83.93" y2="3.96"/>
<line class="st0" x1="83.93" y1="96.04" x2="83.94" y2="35.18"/>
</svg>
