<?xml version="1.0" encoding="UTF-8"?>
<!DOCTYPE svg PUBLIC "-//W3C//DTD SVG 1.1//EN" "http://www.w3.org/Graphics/SVG/1.1/DTD/svg11.dtd">
<!-- Creator: CorelDRAW X8 -->
<svg xmlns="http://www.w3.org/2000/svg" xml:space="preserve" width="50mm" height="50mm" version="1.1" style="shape-rendering:geometricPrecision; text-rendering:geometricPrecision; image-rendering:optimizeQuality; fill-rule:evenodd; clip-rule:evenodd"
viewBox="0 0 5000 5000"
 xmlns:xlink="http://www.w3.org/1999/xlink">
 <defs>
  <style type="text/css">
   <![CDATA[
    .str1 {stroke:#00204A;stroke-width:150}
    .str0 {stroke:#00204A;stroke-width:7.62}
    .fil2 {fill:none}
    .fil1 {fill:#00204A}
    .fil0 {fill:#00204A;fill-rule:nonzero}
   ]]>
  </style>
 </defs>
 <g id="Capa_x0020_1">
  <metadata id="CorelCorpID_0Corel-Layer"/>
  <g id="_2791171813840">
   <g>
    <path class="fil0" d="M1283 2200c-3,67 -60,119 -127,116 -67,-3 -119,-60 -116,-127l243 11zm-61 -469l0 243 116 -86 -3 10 -3 10 -3 10 -3 10 -2 10 -3 9 -2 10 -3 10 -2 10 -2 10 -3 9 -2 10 -2 10 -1 10 -2 9 -2 10 -2 10 -1 10 -2 9 -1 10 -2 10 -1 9 -1 10 -1 10 -1 10 -1 9 -1 10 -1 10 -1 9 0 10 -1 10 0 9 -243 -11 1 -12 0 -11 1 -12 1 -11 1 -12 1 -12 1 -11 1 -12 2 -11 1 -12 2 -12 1 -11 2 -12 2 -11 2 -12 2 -12 2 -11 2 -12 2 -12 3 -11 2 -12 3 -12 2 -11 3 -12 3 -12 3 -12 3 -11 3 -12 3 -12 4 -11 3 -12 4 -12 116 -85zm-116 85c20,-64 88,-100 152,-80 64,20 100,88 80,152l-232 -72zm314 158l-198 0 0 -243 198 0 114 162 -114 81zm0 -243c67,0 121,54 121,121 0,68 -54,122 -121,122l0 -243zm-8 35l172 -172 20 144 -2 5 -3 5 -3 5 -2 5 -3 5 -2 5 -3 5 -2 5 -3 4 -2 5 -2 5 -3 5 -2 5 -2 5 -3 5 -2 4 -2 5 -2 5 -2 5 -2 5 -2 5 -2 4 -2 5 -2 5 -2 5 -2 4 -2 5 -2 5 -2 5 -1 4 -2 5 -2 5 -229 -81 2 -6 2 -6 3 -6 2 -6 2 -6 3 -6 2 -6 2 -6 3 -6 2 -6 3 -6 2 -6 3 -6 3 -6 2 -6 3 -6 3 -6 2 -6 3 -6 3 -6 3 -5 3 -6 2 -6 3 -6 3 -6 3 -6 3 -6 3 -6 3 -5 4 -6 3 -6 3 -6 21 144zm-21 -144c32,-59 106,-81 165,-49 59,32 80,106 48,165l-213 -116zm48 -172l145 144 -172 172 -145 -145 -20 -145 192 -26zm-172 171c-47,-47 -47,-124 0,-172 48,-47 125,-47 172,1l-172 171zm760 -760l-172 172 148 18 -22 13 -21 14 -21 13 -21 14 -21 14 -20 15 -20 14 -20 15 -19 15 -19 15 -19 16 -18 16 -18 16 -18 16 -18 16 -17 17 -17 17 -16 17 -17 18 -16 17 -15 18 -16 19 -15 18 -14 19 -15 19 -14 19 -13 20 -14 20 -13 20 -12 21 -13 21 -12 21 -212 -118 14 -25 15 -24 15 -25 15 -24 16 -24 16 -23 17 -23 17 -22 17 -23 18 -22 18 -21 18 -21 19 -21 19 -21 19 -20 20 -20 20 -19 21 -20 21 -19 21 -18 21 -18 22 -18 22 -18 22 -17 22 -17 23 -17 23 -16 24 -16 23 -16 24 -15 25 -15 24 -15 149 18zm-149 -18c58,-35 132,-16 167,41 34,58 16,132 -42,167l-125 -208zm147 360l-170 -170 172 -172 170 171 -38 197 -134 -26zm172 -171c47,47 47,124 0,171 -48,48 -125,48 -172,0l172 -171zm-62 32l242 0 -86 117 -4 1 -5 1 -4 2 -4 1 -4 1 -5 2 -4 1 -4 1 -4 2 -4 1 -5 2 -4 1 -4 2 -4 1 -4 2 -4 1 -4 2 -4 1 -5 2 -4 1 -4 2 -4 1 -4 2 -4 2 -4 1 -4 2 -4 1 -4 2 -4 2 -4 1 -4 2 -4 2 -96 -223 4 -2 5 -2 5 -2 5 -2 4 -2 5 -2 5 -2 5 -2 5 -2 5 -2 5 -2 5 -2 4 -2 5 -1 5 -2 5 -2 5 -2 5 -2 5 -1 5 -2 5 -2 5 -2 5 -1 5 -2 5 -2 5 -1 5 -2 6 -2 5 -1 5 -2 5 -1 5 -2 -86 116zm86 -116c64,-19 132,17 151,81 20,65 -17,132 -81,152l-70 -233zm156 -132l0 248 -242 0 0 -248 88 -117 154 117zm-242 0c0,-67 54,-122 121,-122 67,0 121,55 121,122l-242 0zm1073 0l-243 0 90 117 -25 -7 -25 -6 -24 -5 -25 -5 -24 -5 -25 -5 -24 -4 -25 -3 -24 -3 -24 -3 -24 -2 -24 -2 -24 -1 -24 -1 -24 -1 -24 0 -24 0 -24 1 -23 1 -24 2 -24 1 -24 3 -23 2 -24 3 -23 4 -24 4 -23 4 -24 5 -23 5 -24 6 -23 5 -23 7 -66 -234 28 -8 27 -7 27 -6 28 -6 27 -5 27 -5 28 -5 28 -4 27 -4 28 -3 28 -3 28 -2 28 -2 27 -1 28 -1 28 0 29 0 28 1 28 1 28 2 28 2 28 2 29 4 28 3 28 4 29 5 28 5 28 5 29 6 28 7 29 7 28 7 90 118zm-90 -118c65,18 103,85 86,150 -18,64 -85,103 -149,85l63 -235zm-153 402l0 -284 243 0 0 284 -165 113 -78 -113zm243 0c0,67 -54,121 -121,121 -68,0 -122,-54 -122,-121l243 0zm-96 -36l172 172 -141 22 -3 -1 -3 -2 -3 -1 -4 -2 -3 -2 -3 -1 -3 -2 -3 -1 -3 -2 -3 -1 -3 -2 -3 -1 -4 -2 -3 -1 -3 -1 -3 -2 -3 -1 -3 -2 -3 -1 -3 -1 -3 -2 -3 -1 -4 -1 -3 -2 -3 -1 -3 -1 -3 -2 -3 -1 -3 -1 -3 -1 -3 -1 -4 -2 87 -227 4 2 4 1 4 2 4 2 4 1 4 2 4 1 4 2 4 2 4 2 4 1 4 2 4 2 4 1 4 2 4 2 3 2 4 2 4 1 4 2 4 2 4 2 3 1 4 2 4 2 4 2 3 2 4 2 4 2 3 1 4 2 4 2 -142 22zm142 -22c60,31 83,104 52,164 -30,59 -103,83 -163,52l111 -216zm234 -10l-204 204 -172 -172 204 -203 143 -21 29 192zm-172 -171c47,-48 124,-48 171,0 48,47 48,124 1,171l-172 -171zm759 760l-172 -172 -20 146 -12 -22 -13 -21 -13 -22 -13 -20 -14 -21 -13 -20 -14 -20 -15 -20 -14 -19 -15 -19 -15 -18 -16 -19 -15 -18 -16 -17 -17 -18 -16 -17 -17 -17 -17 -16 -18 -16 -18 -16 -18 -16 -18 -15 -19 -15 -19 -14 -19 -15 -20 -14 -20 -13 -20 -14 -21 -13 -21 -12 -21 -13 -22 -12 115 -213 26 14 25 14 25 15 25 16 24 16 24 16 23 16 23 17 23 18 22 17 22 18 21 19 22 19 20 19 21 19 20 20 19 21 19 20 19 21 19 21 18 22 18 22 17 22 17 22 17 23 16 23 16 24 16 23 15 24 15 25 15 24 14 25 -20 146zm20 -146c33,59 12,133 -46,166 -59,33 -133,12 -166,-46l212 -120zm-404 187l212 -213 172 172 -212 213 -197 -35 25 -137zm172 172c-48,47 -125,47 -172,0 -48,-47 -48,-124 0,-172l172 172zm-43 -102l0 243 -114 -80 -1 -3 -1 -3 -1 -3 -1 -3 -1 -3 -1 -3 -2 -3 -1 -3 -1 -3 -1 -2 -1 -3 -1 -3 -2 -3 -1 -3 -1 -3 -1 -3 -2 -3 -1 -3 -1 -3 -1 -3 -2 -3 -1 -3 -1 -3 -2 -3 -1 -4 -1 -3 -2 -3 -1 -3 -2 -3 -1 -3 -1 -3 -2 -3 221 -102 1 4 2 3 2 4 1 3 2 4 1 3 2 4 2 4 1 3 2 4 1 3 2 4 1 3 2 4 1 3 2 4 1 4 2 3 1 4 2 3 1 4 2 4 1 3 2 4 1 4 1 3 2 4 1 4 2 3 1 4 1 3 2 4 -115 -80zm115 80c22,63 -10,133 -74,156 -63,22 -132,-10 -155,-73l229 -83zm186 163l-301 0 0 -243 301 0 117 90 -117 153zm0 -243c67,0 121,54 121,121 0,67 -54,122 -121,122l0 -243zm155 257l-241 34 -1 -7 -1 -5 0 -5 -1 -5 -1 -5 0 -4 -1 -4 -1 -4 0 -3 -1 -3 -1 -3 0 -3 -1 -3 -1 -3 0 -3 -1 -3 -1 -3 0 -3 -1 -3 -1 -4 -1 -3 -1 -4 -1 -4 -2 -5 -1 -4 -1 -5 -2 -5 -1 -6 -2 -6 -2 -6 -1 -7 -2 -7 234 -63 2 6 2 6 1 6 2 6 1 5 2 6 1 4 1 5 2 5 1 4 1 5 2 4 1 5 1 4 1 5 1 4 1 5 1 4 1 5 1 5 1 5 1 5 1 5 1 5 1 5 1 6 1 5 1 6 1 6 1 6 1 7 1 7zm0 0c9,66 -37,127 -104,137 -66,9 -127,-37 -137,-103l241 -34zm-655 1291c48,-47 125,-46 172,1 47,48 47,125 -1,172l-171 -173zm-303 396l172 -172 -147 -19 11 -7 11 -6 10 -6 10 -6 10 -6 10 -6 10 -6 9 -6 9 -6 9 -5 9 -6 8 -6 9 -6 8 -5 9 -6 8 -6 8 -6 8 -6 8 -6 8 -6 7 -6 8 -6 8 -7 8 -6 8 -7 8 -7 8 -7 8 -8 8 -7 8 -8 9 -8 8 -9 171 173 -10 10 -10 10 -10 9 -9 9 -10 9 -10 9 -10 8 -10 9 -9 8 -10 8 -10 8 -10 8 -10 7 -10 8 -9 7 -10 7 -10 7 -10 7 -11 7 -10 7 -10 7 -10 7 -11 6 -10 7 -11 7 -10 6 -11 7 -11 6 -11 7 -12 7 -11 6 -12 7 -146 -19zm146 19c-58,34 -132,14 -166,-44 -33,-58 -13,-133 45,-166l121 210zm-147 -364l173 173 -172 172 -173 -173 23 -190 149 18zm-172 172c-47,-48 -47,-125 0,-172 48,-47 125,-47 172,0l-172 172zm62 -18l-243 0 82 -115 4 -1 4 -1 4 -2 4 -1 4 -2 4 -1 4 -2 3 -1 4 -2 4 -2 4 -1 4 -2 4 -2 4 -1 4 -2 3 -2 4 -2 4 -2 4 -1 4 -2 3 -2 4 -2 4 -2 4 -2 3 -2 4 -2 4 -2 4 -2 3 -3 4 -2 4 -2 3 -2 126 208 -5 3 -5 3 -5 3 -5 3 -5 3 -5 3 -6 2 -5 3 -5 3 -5 3 -5 2 -6 3 -5 2 -5 3 -5 3 -6 2 -5 3 -5 2 -6 2 -5 3 -5 2 -6 2 -5 3 -5 2 -6 2 -5 2 -6 2 -5 2 -6 2 -5 2 -6 2 -5 2 82 -115zm-82 115c-64,22 -133,-12 -155,-75 -22,-64 12,-133 76,-155l79 230zm-161 122l0 -237 243 0 0 237 -86 116 -157 -116zm243 0c0,67 -55,122 -122,122 -67,0 -121,-55 -121,-122l243 0zm-1074 -1l243 0 -92 -117 27 6 26 6 26 6 26 5 25 5 26 4 25 4 25 4 25 3 25 3 25 2 24 2 25 2 24 1 24 1 24 0 23 0 24 0 23 -1 24 -2 23 -1 23 -3 23 -2 22 -3 23 -4 23 -4 22 -4 22 -5 22 -5 22 -6 22 -6 22 -6 72 232 -27 8 -26 7 -27 7 -27 6 -27 6 -27 5 -27 5 -27 4 -27 4 -28 3 -27 3 -28 2 -28 1 -28 2 -27 0 -28 0 -29 0 -28 -1 -28 -1 -28 -2 -29 -2 -28 -3 -29 -3 -28 -4 -29 -4 -29 -5 -29 -5 -29 -5 -29 -6 -29 -7 -30 -7 -29 -7 -92 -118zm92 118c-65,-16 -105,-82 -88,-148 16,-65 82,-104 147,-87l-59 235zm151 -319l0 201 -243 0 0 -201 243 0zm-243 0c0,-67 55,-122 122,-122 67,0 121,55 121,122l-243 0z"/>
   </g>
   <path class="fil1 str0" d="M450 3573l-111 0c-47,-166 -54,-335 0,-508l121 0c12,-35 28,-70 47,-105l-88 -88c84,-152 207,-269 359,-360l104 105c28,-13 57,-24 88,-33l0 -152c165,-45 334,-47 507,0l0 174c24,9 46,19 68,31l124 -125c156,84 273,207 359,359l-130 130c10,22 19,43 27,65l183 0c52,192 46,358 0,508l-174 0c-7,24 -16,47 -26,71l121 121c-88,159 -211,274 -358,359l-106 -105c-28,17 -58,31 -89,42l0 144c-157,49 -325,46 -507,0l0 -123c-31,-7 -61,-19 -90,-33l-85 85c-150,-87 -280,-196 -366,-352l78 -78c-21,-37 -40,-81 -56,-132zm773 -624c205,0 371,166 371,370 0,205 -166,371 -371,371 -204,0 -370,-166 -370,-371 0,-204 166,-370 370,-370z"/>
   <path class="fil1 str0" d="M3641 2927l-69 0c-29,-104 -33,-209 0,-317l75 0c8,-22 18,-44 30,-66l-55 -55c53,-94 129,-167 224,-224l65 65c17,-7 36,-14 55,-20l0 -95c102,-28 208,-29 316,0l0 109c15,5 29,12 43,19l77 -78c97,53 170,129 224,224l-81 81c6,14 12,27 16,40l115 0c32,120 29,224 0,317l-109 0c-4,15 -10,30 -16,45l75 75c-54,100 -131,171 -223,225l-66 -66c-18,10 -36,19 -55,26l0 90c-99,30 -203,28 -317,0l0 -77c-19,-4 -38,-12 -56,-21l-53 54c-94,-55 -175,-123 -228,-220l48 -49c-13,-23 -25,-50 -35,-82zm483 -389c127,0 231,103 231,231 0,127 -104,231 -231,231 -128,0 -232,-104 -232,-231 0,-128 104,-231 232,-231z"/>
   <ellipse class="fil2 str1" cx="2670" cy="2269" rx="408" ry="422"/>
  </g>
 </g>
</svg>
