<?xml version="1.0" encoding="UTF-8"?>
<!DOCTYPE svg PUBLIC "-//W3C//DTD SVG 1.1//EN" "http://www.w3.org/Graphics/SVG/1.1/DTD/svg11.dtd">
<!-- Creator: CorelDRAW X8 -->
<svg xmlns="http://www.w3.org/2000/svg" xml:space="preserve" width="41mm" height="41mm" version="1.1" style="shape-rendering:geometricPrecision; text-rendering:geometricPrecision; image-rendering:optimizeQuality; fill-rule:evenodd; clip-rule:evenodd"
viewBox="0 0 4100 4100"
 xmlns:xlink="http://www.w3.org/1999/xlink">
 <defs>
  <style type="text/css">
   <![CDATA[
    .fil0 {fill:white}
   ]]>
  </style>
 </defs>
 <g id="Capa_x0020_1">
  <metadata id="CorelCorpID_0Corel-Layer"/>
  <g id="_1391213088">
   <path class="fil0" d="M2457 1194l0 93c-5,150 -36,299 -91,437 -102,253 -243,355 -379,525 -21,26 -36,40 -56,65 -55,70 -186,236 -186,327l-191 157 -687 0c-29,0 -26,15 -26,43l658 0 55 -43 -287 234 -426 0 0 35 383 0 14 -11 -321 263c-38,-32 -64,-58 -75,-62 -38,-14 -49,-6 -91,-30 -155,-91 -71,-281 -71,-290 0,-21 -22,-42 -22,-87 0,-80 11,-184 105,-209 -2,-90 -135,-263 -185,-319l-178 -205c-89,-93 -201,-254 -251,-375 -97,-233 -99,-286 -99,-535 0,-239 104,-490 224,-671 198,-297 619,-502 975,-502 347,0 624,133 854,363 102,101 178,200 244,338 69,142 105,300 110,459zm-1451 1421l-52 0c-44,-186 -149,-304 -253,-433 -14,-17 -14,-21 -32,-39l-91 -99c-198,-225 -345,-457 -345,-785 0,-410 234,-789 603,-943 469,-196 857,-69 1141,215 349,349 384,905 134,1278 -27,40 -51,74 -79,111l-228 259c-16,17 -29,34 -43,52 -90,113 -173,236 -208,384l-26 0c1,-42 14,-107 20,-154 7,-45 17,-114 22,-160 15,-127 124,-897 124,-972 -70,0 -113,-18 -183,-18 0,47 -13,114 -20,163l-130 991c-24,183 15,150 -163,150l-122 -1147c-3,-53 -17,-110 -17,-165 -32,0 -166,2 -178,21 -17,26 100,964 109,1100 4,66 17,120 17,191z"/>
   <path class="fil0" d="M4035 1916c53,256 -35,532 -251,709 -311,254 -769,209 -1023,-102 -255,-310 -209,-768 101,-1023 217,-178 507,-209 748,-106l-191 157 -154 126 -154 126 30 193 29 194 184 67 184 67 154 -126 154 -126 189 -156z"/>
   <path class="fil0" d="M2706 2028l529 646 -1584 1298c-178,146 -442,119 -588,-58l0 0c-145,-178 -119,-442 59,-588l1584 -1298z"/>
  </g>
 </g>
</svg>
