<?xml version="1.0" encoding="UTF-8"?>
<!DOCTYPE svg PUBLIC "-//W3C//DTD SVG 1.1//EN" "http://www.w3.org/Graphics/SVG/1.1/DTD/svg11.dtd">
<!-- Creator: CorelDRAW X8 -->
<svg xmlns="http://www.w3.org/2000/svg" xml:space="preserve" width="41mm" height="41mm" version="1.1" style="shape-rendering:geometricPrecision; text-rendering:geometricPrecision; image-rendering:optimizeQuality; fill-rule:evenodd; clip-rule:evenodd"
viewBox="0 0 4100 4100"
 xmlns:xlink="http://www.w3.org/1999/xlink">
 <defs>
  <style type="text/css">
   <![CDATA[
    .str2 {stroke:black;stroke-width:40}
    .str1 {stroke:black;stroke-width:20}
    .str0 {stroke:black;stroke-width:7.62}
    .fil0 {fill:black}
    .fil1 {fill:black;fill-rule:nonzero}
   ]]>
  </style>
 </defs>
 <g id="Capa_x0020_1">
  <metadata id="CorelCorpID_0Corel-Layer"/>
  <g id="_1338642848">
   <path class="fil0 str0" d="M2456 3506c6,13 38,45 51,59l149 169c30,34 72,88 116,101 36,11 58,4 82,-13l213 -189c33,-26 91,-84 125,-112 12,-10 18,-17 30,-26 15,-13 42,-38 53,-53 7,-12 12,-24 13,-40 7,-62 7,-243 9,-315 2,-76 13,-128 -27,-176 -41,-50 -71,-53 -136,-84 -47,-22 -100,-47 -148,-69 -41,-19 -119,-63 -168,-53 -88,20 -95,129 -29,201 48,52 192,82 218,106l-551 494z"/>
   <path class="fil0 str0" d="M1994 2740c-34,3 -73,41 -81,57 -43,86 41,149 101,218 37,42 91,117 146,131 52,14 72,-11 98,-33 30,-24 38,-55 27,-105 56,16 75,15 114,-21 31,-29 47,-52 31,-109 24,5 35,16 67,8 24,-6 31,-15 47,-28 55,-45 32,-84 33,-111 45,17 71,15 102,-10 29,-24 50,-41 48,-91 -3,-60 -69,-114 -111,-162 -35,-41 -93,-120 -147,-133 -56,-12 -73,12 -100,35 -35,28 -30,54 -25,102 -55,-15 -78,-13 -113,20 -38,36 -43,49 -33,110 -56,-18 -81,-10 -113,21 -35,34 -47,53 -31,110 -22,-3 -31,-12 -60,-9z"/>
   <path class="fil0 str0" d="M2608 3233c-6,-5 -53,-58 -55,-68 -8,-32 19,-47 46,-71l77 -69c7,-8 7,-8 15,-15 11,-10 24,-17 30,-30 -27,-20 -61,-92 -64,-97 -67,90 -120,93 -131,102 -5,5 -33,77 -114,117 -7,4 -25,9 -29,11 -10,8 -12,42 -88,103 -47,37 -123,43 -181,22 -85,-31 -125,-113 -167,-143 -8,5 -4,3 -10,9l-131 118c-40,42 -75,114 -73,194 4,140 118,261 270,263 100,1 158,-43 224,-103 127,-114 255,-228 381,-343z"/>
   <path class="fil0 str0" d="M2962 2188l-74 67c-8,7 -11,8 -18,15l-169 152c40,59 101,93 121,179 94,4 115,25 186,57l165 73 114 -104c4,-3 6,-4 10,-8l37 -35c-101,-27 -194,-84 -265,-171 -56,-68 -91,-145 -107,-225z"/>
   <path class="fil0 str0" d="M3336 3752l-132 -147c-20,-21 -14,-13 -16,-26l-257 228c-34,35 -81,55 -67,123 18,88 114,133 169,96l102 -91c10,-9 195,-170 201,-183z"/>
   <path class="fil0 str0" d="M3188 3579c2,13 -4,5 16,26l132 147 102 -89c43,-48 3,-146 -71,-175 -28,-11 -56,-9 -79,4 -15,9 -64,51 -77,65 -10,11 -14,12 -23,22z"/>
   <path class="fil0 str0" d="M2700 3151c4,-58 31,-82 87,-76 11,-8 22,-20 33,-28l-56 -30c-15,16 5,2 -31,36 -16,15 -20,18 -35,31 -42,36 -29,41 -100,34 -11,15 -30,21 -28,38 4,17 42,56 55,63 7,-4 70,-60 75,-68z"/>
   <path class="fil0 str0" d="M2625 3219c-13,-7 -51,-46 -55,-63 -2,-17 17,-23 28,-38 71,7 58,2 100,-34 15,-13 19,-16 35,-31 36,-34 16,-20 31,-36 -3,-3 -2,-2 -6,-6l-37 -31c-6,13 -19,20 -30,30 -8,7 -8,7 -15,15l-77 69c-27,24 -54,39 -46,71 2,10 49,63 55,68 8,-4 11,-8 17,-14z"/>
   <path class="fil0 str0" d="M2900 3112c-7,1 -35,29 -44,36 -15,13 -32,31 -44,41 -12,10 -81,67 -87,80 -1,10 -8,0 23,17 33,19 51,-9 100,-54l48 -43c10,-8 28,-18 20,-42 -2,-7 -11,-32 -16,-35z"/>
   <path class="fil0 str0" d="M2934 3083c-9,4 -10,5 -18,11 -10,8 -10,8 -16,18 5,3 14,28 16,35 8,24 -10,34 -20,42l-48 43c-49,45 -67,73 -100,54 -31,-17 -24,-7 -23,-17 -12,4 -30,20 -36,32 24,-8 30,-12 50,1 47,29 71,-11 121,-56 56,-51 93,-62 69,-117 -9,-21 0,-27 5,-46z"/>
   <path class="fil0 str0" d="M2787 3075c-56,-6 -83,18 -87,76 14,-8 59,-52 77,-68l10 -8z"/>
   <path class="fil0 str1" d="M4030 1923c36,180 -25,374 -178,499 -219,179 -541,147 -721,-72 -179,-219 -147,-541 72,-721 153,-125 357,-147 527,-74l-135 110 -108 89 -109 89 21 136 21 136 130 48 129 47 108 -89 109 -89 134 -109z"/>
   <path class="fil0 str1" d="M2537 915l-280 0c-78,0 -142,-64 -142,-142l0 0 564 0 0 0c0,78 -64,142 -142,142z"/>
   <path class="fil0 str2" d="M1147 1195l0 2109c66,30 112,97 112,174l0 119 -329 -135c-44,-18 -101,-50 -56,-95 27,-27 59,-52 84,-63l0 -2114c0,-52 43,-95 96,-95l93 0 653 -497 189 0 0 5c1,-26 22,-47 48,-47l624 0c27,0 48,22 48,48l0 94 -720 0 -189 0 -653 497z"/>
   <g>
    <path class="fil1" d="M1683 3640c56,9 95,62 86,118 -8,57 -61,95 -117,87l31 -205zm-1646 -1678l206 0 0 0 2 78 5 78 9 76 12 76 15 74 19 73 21 72 25 71 28 69 31 68 34 66 36 65 39 63 42 61 44 59 47 57 50 55 51 53 54 50 56 48 59 46 60 44 62 40 65 38 66 36 68 32 69 30 71 26 73 24 74 20 76 17 77 13 -31 205 -86 -16 -85 -19 -83 -22 -82 -27 -80 -29 -78 -34 -76 -36 -74 -39 -72 -43 -70 -46 -68 -48 -65 -52 -63 -54 -60 -57 -58 -59 -56 -61 -52 -64 -50 -67 -47 -68 -44 -71 -41 -72 -37 -74 -35 -76 -31 -78 -28 -79 -24 -81 -21 -82 -18 -84 -13 -85 -10 -85 -6 -87 -2 -88 0 0zm1904 -1904l0 206 0 0 -87 2 -87 7 -85 11 -83 15 -82 19 -81 23 -79 26 -77 31 -75 34 -73 37 -72 41 -68 44 -67 48 -64 50 -62 53 -59 57 -56 59 -53 61 -51 64 -47 67 -44 69 -41 71 -38 73 -34 75 -30 77 -27 79 -23 81 -19 82 -15 83 -10 85 -7 87 -2 87 -206 0 3 -98 7 -96 12 -96 17 -94 21 -92 26 -90 30 -89 34 -86 38 -85 42 -82 46 -80 50 -77 53 -75 56 -71 60 -70 63 -66 66 -63 69 -60 72 -56 75 -53 77 -50 80 -45 82 -43 84 -38 87 -34 88 -30 91 -25 92 -22 93 -16 96 -13 96 -7 98 -2 0 0zm1755 1165l-189 80 -26 -58 -28 -57 -30 -56 -32 -54 -33 -53 -36 -51 -37 -50 -39 -49 -40 -46 -42 -46 -44 -43 -45 -42 -46 -40 -48 -39 -50 -36 -50 -35 -52 -33 -53 -31 -54 -30 -55 -27 -56 -25 -57 -24 -58 -21 -59 -19 -60 -17 -60 -15 -61 -13 -62 -10 -62 -8 -63 -6 -64 -4 -64 -1 0 -206 72 1 71 4 70 7 70 9 70 11 68 15 68 16 67 19 66 22 65 24 64 26 63 28 61 31 61 33 59 34 58 37 57 40 55 41 54 43 52 45 51 47 49 49 47 50 45 53 44 54 41 56 40 58 38 59 35 61 34 63 31 64 29 65zm0 0c22,53 -2,113 -55,135 -52,23 -112,-2 -134,-55l189 -80z"/>
   </g>
   <path class="fil0 str2" d="M958 1195l0 2109c-35,16 -65,42 -85,75 -2,4 -4,8 -6,12 -58,114 -6,78 57,42l223 -129 0 -2114c0,-52 -43,-95 -95,-95l-94 0 -391 -298 -39 71 430 327z"/>
  </g>
 </g>
</svg>
