<?xml version="1.0" encoding="utf-8"?>
<!-- Generator: Adobe Illustrator 25.2.1, SVG Export Plug-In . SVG Version: 6.00 Build 0)  -->
<svg version="1.1" id="Capa_1" xmlns="http://www.w3.org/2000/svg" xmlns:xlink="http://www.w3.org/1999/xlink" x="0px" y="0px"
	 viewBox="0 0 100 100" style="enable-background:new 0 0 100 100;" xml:space="preserve">
<style type="text/css">
	.st0{fill:#000;stroke:#000000;stroke-width:5;stroke-miterlimit:10;}
	.st1{fill:none;stroke:#000000;stroke-width:5;stroke-linecap:round;stroke-linejoin:round;stroke-miterlimit:10;}
</style>
<g>
	<path class="st0" d="M71.51,37.65l-0.5,49.99c0,3.2-2.6,5.8-5.8,5.8H20.96c-3.2,0-5.8-2.6-5.8-5.8V23.39c0-3.2,2.6-5.8,5.8-5.8
		h30.73L71.51,37.65z"/>
	<path class="st0" d="M28.99,12.36c0-3.2,2.6-5.8,5.8-5.8h41.62c4.66,0,8.43,3.78,8.43,8.43v60.16c0,4.02-3.26,7.27-7.27,7.27H72.1"
		/>
	<path class="st0" d="M50.3,27.39"/>
	<path class="st0" d="M71.01,33.94"/>
	<path class="st0" d="M48.67,32.07l0.01-11.98c0-1.81,2.19-2.71,3.47-1.43l17.8,17.8c1.28,1.28,0.37,3.47-1.43,3.47l-11.98,0.01
		C52.19,39.93,48.67,36.41,48.67,32.07z"/>
	<line class="st1" x1="28.04" y1="61.43" x2="58.86" y2="61.67"/>
	<line class="st1" x1="27.92" y1="76.23" x2="58.74" y2="76.47"/>
</g>
</svg>
