<?xml version="1.0" encoding="utf-8"?>
<!-- Generator: Adobe Illustrator 25.2.1, SVG Export Plug-In . SVG Version: 6.00 Build 0)  -->
<svg version="1.1" id="Capa_1" xmlns="http://www.w3.org/2000/svg" xmlns:xlink="http://www.w3.org/1999/xlink" x="0px" y="0px"
	 viewBox="0 0 100 100" style="enable-background:new 0 0 100 100;" xml:space="preserve">
<style type="text/css">
	.st0{stroke:#FFFFFF;stroke-width:5;stroke-linecap:round;stroke-linejoin:round;stroke-miterlimit:10;}
</style>
<g>
	<path class="st0" d="M79.47,50c0,16.25-10.35,30.08-24.81,35.25c-1.51,0.54-3.07,0.99-4.67,1.33c-2.56,0.56-5.23,0.85-7.95,0.85
		C21.37,87.44,4.61,70.67,4.61,50s16.76-37.44,37.44-37.44c2.72,0,5.39,0.29,7.95,0.85c1.6,0.33,3.15,0.79,4.67,1.33
		C69.12,19.92,79.47,33.75,79.47,50z"/>
	<path class="st0" d="M95.39,50c0,20.67-16.76,37.44-37.43,37.44c-2.73,0-5.39-0.29-7.96-0.85c1.6-0.33,3.15-0.79,4.67-1.33
		c14.46-5.18,24.81-19,24.81-35.25c0-16.25-10.35-30.08-24.81-35.25c-1.51-0.54-3.07-0.99-4.67-1.33c2.57-0.56,5.23-0.85,7.96-0.85
		C78.63,12.56,95.39,29.33,95.39,50z"/>
</g>
</svg>
