<?xml version="1.0" encoding="utf-8"?>
<!-- Generator: Adobe Illustrator 25.2.1, SVG Export Plug-In . SVG Version: 6.00 Build 0)  -->
<svg version="1.1" id="Capa_2" xmlns="http://www.w3.org/2000/svg" xmlns:xlink="http://www.w3.org/1999/xlink" x="0px" y="0px"
	 viewBox="0 0 100 100" style="enable-background:new 0 0 100 100;" xml:space="preserve">
<style type="text/css">
	.st0{fill:none;stroke:#000000;stroke-width:5;stroke-linecap:round;stroke-miterlimit:10;}
	.st1{fill:none;stroke:#000000;stroke-width:5;stroke-miterlimit:10;}
	.st2{fill:none;stroke:#000000;stroke-width:5;stroke-linecap:round;stroke-linejoin:round;stroke-miterlimit:10;}
	.st3{stroke:#000000;stroke-width:5;stroke-linecap:round;stroke-linejoin:round;stroke-miterlimit:10;}
</style>
<path class="st0" d="M20.05,30.07V11.59c0-3.83,3.11-6.94,6.94-6.94h36.73l23.7,23.99l-0.6,59.77c0,3.83-3.11,6.94-6.94,6.94h-52.9
	c-3.83,0-6.94-3.11-6.94-6.94v-2.74"/>
<path class="st1" d="M14.05,44.3"/>
<path class="st1" d="M62.08,16.38"/>
<path class="st1" d="M86.83,24.21"/>
<path class="st1" d="M60.37,22.69l0.01-15.16c0-2.19,2.65-3.28,4.19-1.74l21.18,21.18c1.55,1.55,0.45,4.19-1.74,4.19l-15.16,0.01
	C64.17,31.18,60.37,27.38,60.37,22.69z"/>
<g>
	<line class="st2" x1="7.32" y1="43.09" x2="62.08" y2="43.09"/>
	<line class="st2" x1="7.32" y1="58.53" x2="62.08" y2="58.53"/>
	<line class="st2" x1="7.32" y1="73.97" x2="62.08" y2="73.97"/>
	<circle class="st3" cx="46.75" cy="43.09" r="3.61"/>
	<circle class="st3" cx="30.56" cy="58.02" r="3.61"/>
	<circle class="st3" cx="52.17" cy="73.97" r="3.61"/>
</g>
</svg>
