<?xml version="1.0" encoding="utf-8"?>
<!-- Generator: Adobe Illustrator 25.2.1, SVG Export Plug-In . SVG Version: 6.00 Build 0)  -->
<svg version="1.1" id="Capa_2" xmlns="http://www.w3.org/2000/svg" xmlns:xlink="http://www.w3.org/1999/xlink" x="0px" y="0px"
	 viewBox="0 0 100 100" style="enable-background:new 0 0 100 100;" xml:space="preserve">
<style type="text/css">
	.st0{fill:none;stroke:#000000;stroke-width:5;stroke-linecap:round;stroke-linejoin:round;stroke-miterlimit:10;}
	.st1{fill:none;stroke:#000000;stroke-width:5;stroke-miterlimit:10;}
	.st2{fill:none;stroke:#000000;stroke-width:4;stroke-linecap:round;stroke-linejoin:round;stroke-miterlimit:10;}
	.st3{fill:none;stroke:#000000;stroke-width:5;stroke-linecap:round;stroke-miterlimit:10;}
</style>
<path class="st0" d="M55.06,90.6L17.4,90.77c-3.68,0-6.68-2.99-6.68-6.68v-73.9c0-3.68,2.99-6.68,6.68-6.68h35.34l22.8,23.08
	l-0.01,26.32"/>
<path class="st1" d="M51.15,14.8"/>
<path class="st1" d="M74.96,22.33"/>
<path class="st1" d="M49.51,20.55l0.01-14.03c0-2.19,2.65-3.28,4.19-1.74l20.06,20.06c1.55,1.55,0.45,4.19-1.74,4.19L58,29.04
	C53.31,29.04,49.51,25.24,49.51,20.55z"/>
<line class="st2" x1="23.49" y1="41.87" x2="54.17" y2="41.87"/>
<line class="st2" x1="23.66" y1="52.56" x2="44.72" y2="52.56"/>
<line class="st2" x1="23.66" y1="63.26" x2="51.15" y2="63.26"/>
<path class="st3" d="M74.35,96.21L60.9,81.78c-0.53-0.58-0.15-1.55,0.61-1.55h6.39c0.85,0,1.55-0.73,1.55-1.64l0-14.35
	c0-0.75,0.58-1.36,1.29-1.36h8.45c0.71,0,1.29,0.61,1.29,1.36l0,14.35c0,0.9,0.69,1.64,1.55,1.64h6.4c0.76,0,1.15,0.97,0.61,1.55
	L75.57,96.21C75.24,96.57,74.69,96.57,74.35,96.21z"/>
</svg>
