<?xml version="1.0" encoding="utf-8"?>
<!-- Generator: Adobe Illustrator 25.2.1, SVG Export Plug-In . SVG Version: 6.00 Build 0)  -->
<svg version="1.1" id="Capa_2" xmlns="http://www.w3.org/2000/svg" xmlns:xlink="http://www.w3.org/1999/xlink" x="0px" y="0px"
	 viewBox="0 0 100 100" style="enable-background:new 0 0 100 100;" xml:space="preserve">
<style type="text/css">
	.st0{fill:none;stroke:#000000;stroke-width:5;stroke-linecap:round;stroke-linejoin:round;stroke-miterlimit:10;}
</style>
<g>
	<path d="M55.62,11.85c1.25,0,2.88,1.23,2.88,2.73l0.06,23.83c0,1.81,1.22,3.27,2.73,3.27h12.43c1.35,0,2.02,1.95,1.08,3.1
		L51.08,71.38c-0.3,0.36-0.69,0.54-1.08,0.54s-0.78-0.18-1.08-0.54L25.2,44.79c-0.95-1.15-0.27-3.1,1.08-3.1h12.55
		c1.51,0,2.73-1.47,2.73-3.27l-0.06-23.83c0-1.5,1.52-2.73,2.78-2.73H55.62 M55.62,6.85H44.28c-4.15,0-7.78,3.61-7.78,7.73
		l0.06,22.11H26.27c-2.5,0-4.73,1.45-5.83,3.77c-1.17,2.47-0.82,5.41,0.89,7.5l0.07,0.08l0.07,0.08l23.68,26.54
		c1.23,1.44,2.99,2.26,4.85,2.26c1.85,0,3.62-0.82,4.85-2.25l23.69-26.55l0.08-0.09l0.07-0.09c1.7-2.09,2.04-5.03,0.87-7.49
		c-1.1-2.32-3.34-3.76-5.83-3.76H63.56l-0.06-22.12C63.51,10.03,59.35,6.85,55.62,6.85L55.62,6.85z"/>
</g>
<path class="st0" d="M95.05,68.92v11.5c0,5.52-2.3,9.99-9.07,9.99H14.25c-6.33,0-9.3-3.57-9.3-9.19v-12.3"/>
</svg>
