<?xml version="1.0" encoding="UTF-8"?>
<!DOCTYPE svg PUBLIC "-//W3C//DTD SVG 1.1//EN" "http://www.w3.org/Graphics/SVG/1.1/DTD/svg11.dtd">
<!-- Creator: CorelDRAW X8 -->
<svg xmlns="http://www.w3.org/2000/svg" xml:space="preserve" width="45.9mm" height="49.4mm" version="1.1" style="shape-rendering:geometricPrecision; text-rendering:geometricPrecision; image-rendering:optimizeQuality; fill-rule:evenodd; clip-rule:evenodd"
viewBox="0 0 4590 4940"
 xmlns:xlink="http://www.w3.org/1999/xlink">
 <defs>
  <style type="text/css">
   <![CDATA[
    .fil0 {fill:black;fill-rule:nonzero}
   ]]>
  </style>
 </defs>
 <g id="Capa_x0020_1">
  <metadata id="CorelCorpID_0Corel-Layer"/>
  <g>
   <path class="fil0" d="M4150 3269c0,-101 81,-183 182,-183 101,0 183,82 183,183l-365 0zm0 477l0 -477 365 0 0 477 0 0 -365 0zm-426 791l0 -365 0 0 22 -1 22 -1 21 -3 21 -4 20 -5 20 -5 20 -7 19 -8 19 -8 18 -10 18 -10 17 -11 17 -12 16 -13 16 -13 15 -14 14 -15 13 -16 13 -16 12 -17 11 -17 10 -18 10 -18 8 -19 8 -19 7 -20 5 -20 5 -20 4 -21 3 -21 1 -22 1 -22 365 0 -2 41 -3 40 -5 39 -7 39 -9 38 -10 38 -13 37 -14 36 -16 35 -17 34 -19 33 -21 32 -22 31 -23 30 -25 28 -26 28 -28 26 -28 25 -30 23 -31 22 -32 21 -33 19 -34 17 -35 16 -36 14 -37 13 -38 11 -38 8 -39 7 -39 5 -40 4 -41 1 0 0zm-2858 -365l2858 0 0 365 -2858 0 0 0 0 -365zm-791 -426l365 0 0 0 1 22 1 22 3 21 4 21 5 20 5 20 7 20 8 19 8 19 10 18 10 18 11 17 12 17 13 16 13 16 14 15 15 14 16 13 16 13 17 12 17 11 18 10 18 10 19 8 19 8 20 7 20 5 20 5 21 4 21 3 22 1 22 1 0 365 -41 -1 -40 -4 -39 -5 -39 -7 -38 -8 -38 -11 -37 -13 -36 -14 -35 -16 -34 -17 -33 -19 -32 -21 -31 -22 -30 -23 -28 -25 -28 -26 -26 -28 -25 -28 -23 -30 -22 -31 -21 -32 -19 -33 -17 -34 -16 -35 -14 -36 -13 -37 -10 -38 -9 -38 -7 -39 -5 -39 -3 -40 -2 -41 0 0zm365 -477l0 477 -365 0 0 -477 365 0zm-365 0c0,-101 82,-183 183,-183 101,0 182,82 182,183l-365 0z"/>
  </g>
  <g>
   <path class="fil0" d="M3064 2166l-183 181 -182 -181 0 -1428 365 0 0 1428zm-365 0l365 0c0,100 -82,181 -183,181 -100,0 -182,-81 -182,-181zm769 -182l141 296 -141 67 -587 0 0 -363 587 0zm0 363l0 -363c100,0 182,81 182,182 0,100 -82,181 -182,181zm-1032 1361l-282 0 0 -230 1173 -1427 282 229 -1173 1428zm-282 -230l282 230c-64,77 -179,89 -256,25 -78,-63 -90,-177 -26,-255zm-1173 -1198l141 -296 141 67 1173 1427 -282 230 -1173 -1428zm282 -229l-282 229c-64,-77 -52,-192 26,-255 78,-63 193,-52 256,26zm446 -67l182 182 -182 181 -587 0 0 -363 587 0zm0 363l0 -363c100,0 182,81 182,182 0,100 -82,181 -182,181zm-183 -1609l183 -181 182 181 0 1428 -365 0 0 -1428zm365 0l-365 0c0,-100 82,-181 183,-181 100,0 182,81 182,181zm990 -181l183 181 -183 182 -1172 0 0 -363 1172 0zm0 363l0 -363c101,0 183,81 183,181 0,100 -82,182 -183,182z"/>
  </g>
 </g>
</svg>
