<svg id="Capa_1" data-name="Capa 1" xmlns="http://www.w3.org/2000/svg" viewBox="0 0 98.12 94.02"><defs><style>.cls-1,.cls-2,.cls-3,.cls-4{stroke:#fff;}.cls-1,.cls-3,.cls-4{stroke-linecap:round;stroke-linejoin:round;}.cls-1,.cls-2{stroke-width:4px;}.cls-2{stroke-miterlimit:10;}.cls-3{stroke-width:5px;}</style></defs><path class="cls-1" d="M83.4,54.86A40.28,40.28,0,0,1,49.94,94.55a41.14,41.14,0,0,1-6.8.57,40.26,40.26,0,0,1,0-80.52,41.14,41.14,0,0,1,6.8.57,39.85,39.85,0,0,1,14.49,5.52L45.06,39.94a9,9,0,0,0-2.26,3.7L35.55,60.45a4.31,4.31,0,0,0,5.38,5.42l16.83-7.18a9.06,9.06,0,0,0,3.71-2.23L79.81,38.23A40,40,0,0,1,83.4,54.86Z" transform="translate(-0.88 -3.1)"/><path class="cls-2" d="M97,54.86A40.25,40.25,0,0,1,56.74,95.12a41.14,41.14,0,0,1-6.8-.57A40.28,40.28,0,0,0,79.81,38.23l8.47-8.41A40.12,40.12,0,0,1,97,54.86Z" transform="translate(-0.88 -3.1)"/><path class="cls-3" d="M94.79,23.35l-6.51,6.47-8.47,8.41L61.47,56.46a9.06,9.06,0,0,1-3.71,2.23L40.93,65.87a4.31,4.31,0,0,1-5.38-5.42L42.8,43.64a9,9,0,0,1,2.26-3.7L64.43,20.69l4.3-4.27,9.64-9.58a4.25,4.25,0,0,1,6,0L94.81,17.36A4.23,4.23,0,0,1,94.79,23.35Z" transform="translate(-0.88 -3.1)"/><path class="cls-4" d="M64.43,20.69a39.85,39.85,0,0,0-14.49-5.52,41.14,41.14,0,0,1,6.8-.57,40.19,40.19,0,0,1,12,1.82Z" transform="translate(-0.88 -3.1)"/></svg>