<?xml version="1.0" encoding="utf-8"?>
<!-- Generator: Adobe Illustrator 25.2.1, SVG Export Plug-In . SVG Version: 6.00 Build 0)  -->
<svg version="1.1" id="Capa_1" xmlns="http://www.w3.org/2000/svg" xmlns:xlink="http://www.w3.org/1999/xlink" x="0px" y="0px"
	 viewBox="0 0 100 100" style="enable-background:new 0 0 100 100;" xml:space="preserve">
<style type="text/css">
	.st0{fill:none;stroke:#000000;stroke-width:5;stroke-linecap:round;stroke-linejoin:round;stroke-miterlimit:10;}
</style>
<path class="st0" d="M83.4,54.86c0,19.92-14.47,36.46-33.46,39.69c-2.21,0.37-4.48,0.57-6.8,0.57C20.9,95.12,2.88,77.1,2.88,54.86
	c0-22.23,18.02-40.26,40.26-40.26c2.32,0,4.59,0.2,6.8,0.57c5.25,0.89,10.14,2.8,14.49,5.52L45.06,39.94
	c-1.04,1.03-1.82,2.3-2.26,3.7l-7.25,16.81c-1.06,3.32,2.06,6.45,5.38,5.42l16.83-7.18c1.4-0.43,2.67-1.2,3.71-2.23l18.34-18.23
	C82.12,43.3,83.4,48.93,83.4,54.86z"/>
<path class="st0" d="M64.43,20.69c-4.35-2.72-9.24-4.63-14.49-5.52c2.21-0.37,4.48-0.57,6.8-0.57c4.18,0,8.21,0.64,11.99,1.82
	L64.43,20.69z"/>
<path class="st0" d="M97,54.86c0,22.24-18.02,40.26-40.26,40.26c-2.32,0-4.59-0.2-6.8-0.57C68.93,91.32,83.4,74.78,83.4,54.86
	c0-5.93-1.28-11.56-3.59-16.63l8.47-8.41C93.74,36.7,97,45.39,97,54.86z"/>
<path class="st0" d="M94.79,23.35l-6.51,6.47l-8.47,8.41L61.47,56.46c-1.04,1.03-2.31,1.8-3.71,2.23l-16.83,7.18
	c-3.32,1.03-6.44-2.1-5.38-5.42l7.25-16.81c0.44-1.4,1.22-2.67,2.26-3.7l19.37-19.25l4.3-4.27l9.64-9.58c1.66-1.65,4.35-1.65,6,0.01
	l10.44,10.51C96.46,19.02,96.45,21.7,94.79,23.35z"/>
</svg>
