<?xml version="1.0" encoding="UTF-8"?>
<!DOCTYPE svg PUBLIC "-//W3C//DTD SVG 1.1//EN" "http://www.w3.org/Graphics/SVG/1.1/DTD/svg11.dtd">
<!-- Creator: CorelDRAW X8 -->
<svg xmlns="http://www.w3.org/2000/svg" xml:space="preserve" width="55mm" height="55mm" version="1.1" style="shape-rendering:geometricPrecision; text-rendering:geometricPrecision; image-rendering:optimizeQuality; fill-rule:evenodd; clip-rule:evenodd"
viewBox="0 0 5500 5500"
 xmlns:xlink="http://www.w3.org/1999/xlink">
 <defs>
  <style type="text/css">
   <![CDATA[
    .str0 {stroke:#373435;stroke-width:316.4;stroke-linecap:round;stroke-linejoin:round}
    .str1 {stroke:#373435;stroke-width:316.4;stroke-linecap:round;stroke-linejoin:round}
    .fil0 {fill:none}
   ]]>
  </style>
 </defs>
 <g id="Capa_x0020_1">
  <metadata id="CorelCorpID_0Corel-Layer"/>
  <g>
   <path class="fil0 str0" d="M4852 2946l0 1800c0,235 -192,427 -427,427l-3625 0c-234,0 -426,-192 -426,-427l0 -3549c0,-235 192,-427 426,-427l1784 0"/>
  </g>
  <g>
   <path class="fil0 str1" d="M1651 3595l506 -1283 1877 -1878c123,-123 325,-123 448,0l547 547c123,123 123,325 0,448l-1878 1877 -1267 499c-205,81 -292,-60 -233,-210z"/>
  </g>
 </g>
</svg>
