<?xml version="1.0" encoding="utf-8"?>
<!-- Generator: Adobe Illustrator 25.2.1, SVG Export Plug-In . SVG Version: 6.00 Build 0)  -->
<svg version="1.1" id="Capa_1" xmlns="http://www.w3.org/2000/svg" xmlns:xlink="http://www.w3.org/1999/xlink" x="0px" y="0px"
	 viewBox="0 0 100 100" style="enable-background:new 0 0 100 100;" xml:space="preserve">
<style type="text/css">
	.st0{fill:none;stroke:#000000;stroke-width:5;stroke-miterlimit:10;}
</style>
<g>
	<g>
		<path class="st0" d="M97.11,28.65l-0.62,57.59c0,3.69-3.19,6.69-7.13,6.69H35.02c-3.93,0-7.13-3-7.13-6.69V52.16l23.14,20.28
			l16.63,5.39c1.33,0.23,2.71-1.32,2.32-2.61l-7.65-15.67L27.89,29.36V12.21c0-3.69,3.2-6.69,7.13-6.69h37.74L97.11,28.65z"/>
		<path class="st0" d="M71.06,16.83"/>
		<path class="st0" d="M96.49,24.38"/>
		<path class="st0" d="M69.05,23.41l0.01-15.96c0-1.78,2.12-2.7,3.42-1.48l23.21,21.78c1.34,1.26,0.45,3.51-1.39,3.51l-17.39,0.01
			C72.57,31.27,69.05,27.75,69.05,23.41z"/>
	</g>
	<path class="st0" d="M67.66,77.83l-16.63-5.39L27.89,52.16L4.84,31.95c-2.8-2.46-2.55-7.34,0.57-10.89
		c1.94-2.2,4.51-3.39,6.86-3.39c1.44,0,2.8,0.45,3.87,1.39l11.75,10.3l34.44,30.19l7.65,15.67C70.37,76.51,68.99,78.06,67.66,77.83z
		"/>
</g>
</svg>
