<?xml version="1.0" encoding="UTF-8"?>
<!DOCTYPE svg PUBLIC "-//W3C//DTD SVG 1.1//EN" "http://www.w3.org/Graphics/SVG/1.1/DTD/svg11.dtd">
<!-- Creator: CorelDRAW X8 -->
<svg xmlns="http://www.w3.org/2000/svg" xml:space="preserve" width="52mm" height="52mm" version="1.1" style="shape-rendering:geometricPrecision; text-rendering:geometricPrecision; image-rendering:optimizeQuality; fill-rule:evenodd; clip-rule:evenodd"
viewBox="0 0 5200 5200"
 xmlns:xlink="http://www.w3.org/1999/xlink">
 <defs>
  <style type="text/css">
   <![CDATA[
    .str0 {stroke:#495C80;stroke-width:150;stroke-linecap:round;stroke-linejoin:round}
    .fil2 {fill:#FEFEFE}
    .fil1 {fill:#495C80}
    .fil0 {fill:#495C80;fill-rule:nonzero}
   ]]>
  </style>
 </defs>
 <g id="Capa_x0020_1">
  <metadata id="CorelCorpID_0Corel-Layer"/>
  <g id="_2093151365664">
   <g>
    <path class="fil0" d="M3326 4736c61,0 111,50 111,112 0,61 -50,111 -111,111l0 -223zm-803 0l803 0 0 223 -803 0 -112 -111 112 -112zm0 223c-62,0 -112,-50 -112,-111 0,-62 50,-112 112,-112l0 223zm111 -867l0 756 -223 0 0 -756 112 -111 111 111zm-223 0c0,-61 50,-111 112,-111 61,0 111,50 111,111l-223 0zm-655 -111l767 0 0 223 -767 0 -112 -112 112 -111zm0 223c-62,0 -112,-50 -112,-112 0,-61 50,-111 112,-111l0 223zm-112 644l0 -756 223 0 0 756 -111 111 -112 -111zm223 0c0,61 -50,111 -111,111 -62,0 -112,-50 -112,-111l223 0zm-914 -112l803 0 0 223 -803 0 -111 -111 111 -112zm0 223c-62,0 -111,-50 -111,-111 0,-62 49,-112 111,-112l0 223zm112 -3428l0 3317 -223 0 0 -3317 61 -100 162 100zm-223 0c0,-62 49,-112 111,-112 62,0 112,50 112,112l-223 0zm2534 -1093l-2373 1192 -100 -199 2372 -1192 162 100 -61 99zm-101 -199c55,-28 123,-5 150,50 28,55 6,122 -49,149l-101 -199zm-61 2779l0 -2679 223 0 0 2679 -223 0zm223 0c0,62 -50,112 -111,112 -62,0 -112,-50 -112,-112l223 0z"/>
   </g>
   <g>
    <path class="fil0" d="M2994 1589l-443 0 0 -45 443 0 22 22 -22 23zm0 -45c12,0 22,10 22,22 0,13 -10,23 -22,23l0 -45zm22 -355l0 377 -45 0 0 -377 23 -23 22 23zm-45 0c0,-13 10,-23 23,-23 12,0 22,10 22,23l-45 0zm-420 -23l443 0 0 45 -443 0 -22 -22 22 -23zm0 45c-12,0 -22,-10 -22,-22 0,-13 10,-23 22,-23l0 45zm-22 355l0 -377 44 0 0 377 -22 23 -22 -23zm44 0c0,13 -10,23 -22,23 -12,0 -22,-10 -22,-23l44 0z"/>
    <polygon id="1" class="fil1" points="2551,1566 2994,1566 2994,1189 2551,1189 "/>
   </g>
   <g>
    <path class="fil0" d="M2994 2122l-443 0 0 -44 443 0 22 22 -22 22zm0 -44c12,0 22,10 22,22 0,12 -10,22 -22,22l0 -44zm22 -356l0 378 -45 0 0 -378 23 -22 22 22zm-45 0c0,-12 10,-22 23,-22 12,0 22,10 22,22l-45 0zm-420 -22l443 0 0 45 -443 0 -22 -23 22 -22zm0 45c-12,0 -22,-10 -22,-23 0,-12 10,-22 22,-22l0 45zm-22 355l0 -378 44 0 0 378 -22 22 -22 -22zm44 0c0,12 -10,22 -22,22 -12,0 -22,-10 -22,-22l44 0z"/>
    <polygon id="1" class="fil1" points="2551,2100 2994,2100 2994,1722 2551,1722 "/>
   </g>
   <g>
    <path class="fil0" d="M2350 2122l-442 0 0 -44 442 0 23 22 -23 22zm0 -44c13,0 23,10 23,22 0,12 -10,22 -23,22l0 -44zm23 -356l0 378 -45 0 0 -378 22 -22 23 22zm-45 0c0,-12 10,-22 22,-22 13,0 23,10 23,22l-45 0zm-420 -22l442 0 0 45 -442 0 -23 -23 23 -22zm0 45c-13,0 -23,-10 -23,-23 0,-12 10,-22 23,-22l0 45zm-23 355l0 -378 45 0 0 378 -22 22 -23 -22zm45 0c0,12 -10,22 -22,22 -13,0 -23,-10 -23,-22l45 0z"/>
    <polygon id="1" class="fil1" points="1908,2100 2350,2100 2350,1722 1908,1722 "/>
   </g>
   <g>
    <path class="fil0" d="M1707 2122l-443 0 0 -44 443 0 22 22 -22 22zm0 -44c12,0 22,10 22,22 0,12 -10,22 -22,22l0 -44zm22 -356l0 378 -44 0 0 -378 22 -22 22 22zm-44 0c0,-12 10,-22 22,-22 12,0 22,10 22,22l-44 0zm-421 -22l443 0 0 45 -443 0 -22 -23 22 -22zm0 45c-12,0 -22,-10 -22,-23 0,-12 10,-22 22,-22l0 45zm-22 355l0 -378 45 0 0 378 -23 22 -22 -22zm45 0c0,12 -10,22 -23,22 -12,0 -22,-10 -22,-22l45 0z"/>
    <polygon id="1" class="fil1" points="1264,2100 1707,2100 1707,1722 1264,1722 "/>
   </g>
   <g>
    <path class="fil0" d="M2994 2679l-443 0 0 -45 443 0 22 22 -22 23zm0 -45c12,0 22,10 22,22 0,13 -10,23 -22,23l0 -45zm22 -355l0 377 -45 0 0 -377 23 -23 22 23zm-45 0c0,-13 10,-23 23,-23 12,0 22,10 22,23l-45 0zm-420 -23l443 0 0 45 -443 0 -22 -22 22 -23zm0 45c-12,0 -22,-10 -22,-22 0,-13 10,-23 22,-23l0 45zm-22 355l0 -377 44 0 0 377 -22 23 -22 -23zm44 0c0,13 -10,23 -22,23 -12,0 -22,-10 -22,-23l44 0z"/>
    <polygon id="1" class="fil1" points="2551,2656 2994,2656 2994,2279 2551,2279 "/>
   </g>
   <g>
    <path class="fil0" d="M2350 2679l-442 0 0 -45 442 0 23 22 -23 23zm0 -45c13,0 23,10 23,22 0,13 -10,23 -23,23l0 -45zm23 -355l0 377 -45 0 0 -377 22 -23 23 23zm-45 0c0,-13 10,-23 22,-23 13,0 23,10 23,23l-45 0zm-420 -23l442 0 0 45 -442 0 -23 -22 23 -23zm0 45c-13,0 -23,-10 -23,-22 0,-13 10,-23 23,-23l0 45zm-23 355l0 -377 45 0 0 377 -22 23 -23 -23zm45 0c0,13 -10,23 -22,23 -13,0 -23,-10 -23,-23l45 0z"/>
    <polygon id="1" class="fil1" points="1908,2656 2350,2656 2350,2279 1908,2279 "/>
   </g>
   <g>
    <path class="fil0" d="M1707 2679l-443 0 0 -45 443 0 22 22 -22 23zm0 -45c12,0 22,10 22,22 0,13 -10,23 -22,23l0 -45zm22 -355l0 377 -44 0 0 -377 22 -23 22 23zm-44 0c0,-13 10,-23 22,-23 12,0 22,10 22,23l-44 0zm-421 -23l443 0 0 45 -443 0 -22 -22 22 -23zm0 45c-12,0 -22,-10 -22,-22 0,-13 10,-23 22,-23l0 45zm-22 355l0 -377 45 0 0 377 -23 23 -22 -23zm45 0c0,13 -10,23 -23,23 -12,0 -22,-10 -22,-23l45 0z"/>
    <polygon id="1" class="fil1" points="1264,2656 1707,2656 1707,2279 1264,2279 "/>
   </g>
   <g>
    <path class="fil0" d="M2994 3235l-443 0 0 -45 443 0 22 22 -22 23zm0 -45c12,0 22,10 22,22 0,13 -10,23 -22,23l0 -45zm22 -355l0 377 -45 0 0 -377 23 -23 22 23zm-45 0c0,-13 10,-23 23,-23 12,0 22,10 22,23l-45 0zm-420 -23l443 0 0 45 -443 0 -22 -22 22 -23zm0 45c-12,0 -22,-10 -22,-22 0,-13 10,-23 22,-23l0 45zm-22 355l0 -377 44 0 0 377 -22 23 -22 -23zm44 0c0,13 -10,23 -22,23 -12,0 -22,-10 -22,-23l44 0z"/>
    <polygon id="1" class="fil1" points="2551,3212 2994,3212 2994,2835 2551,2835 "/>
   </g>
   <g>
    <path class="fil0" d="M2350 3235l-442 0 0 -45 442 0 23 22 -23 23zm0 -45c13,0 23,10 23,22 0,13 -10,23 -23,23l0 -45zm23 -355l0 377 -45 0 0 -377 22 -23 23 23zm-45 0c0,-13 10,-23 22,-23 13,0 23,10 23,23l-45 0zm-420 -23l442 0 0 45 -442 0 -23 -22 23 -23zm0 45c-13,0 -23,-10 -23,-22 0,-13 10,-23 23,-23l0 45zm-23 355l0 -377 45 0 0 377 -22 23 -23 -23zm45 0c0,13 -10,23 -22,23 -13,0 -23,-10 -23,-23l45 0z"/>
    <polygon id="1" class="fil1" points="1908,3212 2350,3212 2350,2835 1908,2835 "/>
   </g>
   <g>
    <path class="fil0" d="M1707 3235l-443 0 0 -45 443 0 22 22 -22 23zm0 -45c12,0 22,10 22,22 0,13 -10,23 -22,23l0 -45zm22 -355l0 377 -44 0 0 -377 22 -23 22 23zm-44 0c0,-13 10,-23 22,-23 12,0 22,10 22,23l-44 0zm-421 -23l443 0 0 45 -443 0 -22 -22 22 -23zm0 45c-12,0 -22,-10 -22,-22 0,-13 10,-23 22,-23l0 45zm-22 355l0 -377 45 0 0 377 -23 23 -22 -23zm45 0c0,13 -10,23 -23,23 -12,0 -22,-10 -22,-23l45 0z"/>
    <polygon id="1" class="fil1" points="1264,3212 1707,3212 1707,2835 1264,2835 "/>
   </g>
   <g>
    <path class="fil0" d="M2994 3791l-443 0 0 -45 443 0 22 23 -22 22zm0 -45c12,0 22,10 22,23 0,12 -10,22 -22,22l0 -45zm22 -355l0 378 -45 0 0 -378 23 -22 22 22zm-45 0c0,-12 10,-22 23,-22 12,0 22,10 22,22l-45 0zm-420 -22l443 0 0 44 -443 0 -22 -22 22 -22zm0 44c-12,0 -22,-10 -22,-22 0,-12 10,-22 22,-22l0 44zm-22 356l0 -378 44 0 0 378 -22 22 -22 -22zm44 0c0,12 -10,22 -22,22 -12,0 -22,-10 -22,-22l44 0z"/>
    <polygon id="1" class="fil1" points="2551,3769 2994,3769 2994,3391 2551,3391 "/>
   </g>
   <g>
    <path class="fil0" d="M2350 3791l-442 0 0 -45 442 0 23 23 -23 22zm0 -45c13,0 23,10 23,23 0,12 -10,22 -23,22l0 -45zm23 -355l0 378 -45 0 0 -378 22 -22 23 22zm-45 0c0,-12 10,-22 22,-22 13,0 23,10 23,22l-45 0zm-420 -22l442 0 0 44 -442 0 -23 -22 23 -22zm0 44c-13,0 -23,-10 -23,-22 0,-12 10,-22 23,-22l0 44zm-23 356l0 -378 45 0 0 378 -22 22 -23 -22zm45 0c0,12 -10,22 -22,22 -13,0 -23,-10 -23,-22l45 0z"/>
    <polygon id="1" class="fil1" points="1908,3769 2350,3769 2350,3391 1908,3391 "/>
   </g>
   <g>
    <path class="fil0" d="M1707 3791l-443 0 0 -45 443 0 22 23 -22 22zm0 -45c12,0 22,10 22,23 0,12 -10,22 -22,22l0 -45zm22 -355l0 378 -44 0 0 -378 22 -22 22 22zm-44 0c0,-12 10,-22 22,-22 12,0 22,10 22,22l-44 0zm-421 -22l443 0 0 44 -443 0 -22 -22 22 -22zm0 44c-12,0 -22,-10 -22,-22 0,-12 10,-22 22,-22l0 44zm-22 356l0 -378 45 0 0 378 -23 22 -22 -22zm45 0c0,12 -10,22 -23,22 -12,0 -22,-10 -22,-22l45 0z"/>
    <polygon id="1" class="fil1" points="1264,3769 1707,3769 1707,3391 1264,3391 "/>
   </g>
   <path class="fil2 str0" d="M3886 3198l182 181 -124 192c35,59 62,124 79,192l224 49 0 256 -224 48c-17,69 -44,133 -79,193l124 192 -182 181 -192 -124c-59,36 -123,63 -192,80l-48 223 -257 0 -48 -223c-69,-17 -133,-44 -192,-80l-192 124 -182 -181 124 -192c-35,-60 -62,-124 -79,-193l-224 -48 0 -256 224 -49c17,-68 44,-133 79,-192l-124 -192 182 -181 192 123c59,-35 123,-62 192,-79l48 -224 257 0 48 224c69,17 133,44 192,79l192 -123zm-560 296c246,0 446,199 446,446 0,246 -200,446 -446,446 -247,0 -447,-200 -447,-446 0,-247 200,-446 447,-446z"/>
  </g>
 </g>
</svg>
