<?xml version="1.0" encoding="utf-8"?>
<!-- Generator: Adobe Illustrator 24.1.0, SVG Export Plug-In . SVG Version: 6.00 Build 0)  -->
<svg version="1.1" id="Capa_1" xmlns="http://www.w3.org/2000/svg" xmlns:xlink="http://www.w3.org/1999/xlink" x="0px" y="0px"
	 viewBox="0 0 142 142" style="enable-background:new 0 0 142 142;" xml:space="preserve">
<style type="text/css">
	.st0{fill:url(#SVGID_1_);}
</style>
<linearGradient id="SVGID_1_" gradientUnits="userSpaceOnUse" x1="0" y1="71" x2="142" y2="71">
	<stop  offset="0" style="stop-color:#F07E0A"/>
	<stop  offset="0.2795" style="stop-color:#F28E18"/>
	<stop  offset="1" style="stop-color:#F9B233"/>
</linearGradient>
<path class="st0" d="M141.89,35.9c0.04,0.02,0.11,0.05,0.11,0.07c0,9.15,0,20.63,0,35.03c0,33.19-18.08,50.86-36.14,60.27
	c1.94-4.51,2.47-13.22,2.47-13.22c-3.39,1.03-6.78,1.33-10.04,1.15c5.08-2.46,10.63-6.18,16.25-11.76c0.59-0.59,1.17-1.22,1.73-1.87
	c4.05-3.58,8.52-9.81,10.99-13.49c6.02-7.24,9.66-16.54,9.66-26.69c0-23.1-18.72-41.82-41.82-41.82c-23.1,0-41.82,18.58-41.82,41.67
	C53.28,75.96,57.33,86,63.97,93h-0.02c0,0,0.07,0.21,0.16,0.3c0.6,0.66,1.22,1.37,1.86,1.99c0,0,10.64,9.49,23.59,7.83
	c20.59-2.64,21.92-15.54,21.92-15.54s-1.45,6.17-15.22,8.53c-13.78,2.36-22.47-7.89-22.47-7.89c-0.46-0.49-0.92-0.78-1.36-1.3
	c-0.06-0.06-0.1,0.03-0.11,0.06c-4.84-6-7.8-13.56-7.8-21.91c0-17.97,13.7-32.65,30.6-32.65c16.9,0,30.6,14.53,30.6,32.5
	c0,8.87-3.35,16.88-8.75,22.74l-0.28,0.13c0,0-0.01,0.06-0.03,0.18c-0.16,0.17-0.31,0.34-0.48,0.5c-0.98,1.11-2.27,2.64-3.57,4.34
	c-6.22,6.11-18.9,15.5-39.07,16.86l0,0c-1.43,8.47,1.55,13.86,1.55,13.86c5.12,6.68,23.49,8.39,28.78,8.75
	c-0.78,0.38-1.55,0.74-2.32,1.09c-6.89,0.87-18.58-2.77-18.58-2.77s-0.83,5.54,3.51,8.17C74.66,142,66.82,142,71.01,142
	C61.83,142,0,142,0,142V71C0,71-0.05,0,71,0c4.3,0,8.34,0,12.13,0c-6.79,6-15.87,13.74-24.95,21.61c-2.27,1.95-4.53,3.91-6.76,5.83
	c-2.3,1.98-4.48,3.84-6.64,5.55c-4.33,3.46-8.61,6.46-12.34,8.92c-7.48,4.92-12.86,7.59-12.86,7.59s5.65-2.02,13.74-6.07
	c4.04-2.02,8.69-4.53,13.52-7.53c2.44-1.51,4.89-3.14,7.26-4.74c2.45-1.65,4.94-3.33,7.42-5.01c10.4-7.06,20.8-14.11,28.35-19.23
	c0.12-0.08,0.26-0.15,0.42-0.22c1.2-0.74,2.61-1.18,4.13-1.18c1.83,0,3.5,0.63,4.84,1.67c7.52,5.1,17.72,12.02,27.95,18.95
	c2.49,1.68,4.97,3.36,7.42,5.01C137,32.77,139.45,34.39,141.89,35.9z M105.59,0c6.79,6,15.86,13.74,24.95,21.61
	c2.27,1.95,4.53,3.91,6.76,5.83c1.62,1.39,2.7,2.7,4.7,3.96C142,0.01,142,0,142,0S142.03,0,105.59,0z M73.59,109.69
	c-0.03-0.01-0.05-0.02-0.05-0.02c0,0,0.02,0.01,0.05,0.04C73.59,109.71,73.59,109.7,73.59,109.69z"/>
</svg>
