<?xml version="1.0" encoding="UTF-8"?>
<!DOCTYPE svg PUBLIC "-//W3C//DTD SVG 1.1//EN" "http://www.w3.org/Graphics/SVG/1.1/DTD/svg11.dtd">
<!-- Creator: CorelDRAW X8 -->
<svg xmlns="http://www.w3.org/2000/svg" xml:space="preserve" width="55mm" height="55mm" version="1.1" style="shape-rendering:geometricPrecision; text-rendering:geometricPrecision; image-rendering:optimizeQuality; fill-rule:evenodd; clip-rule:evenodd"
viewBox="0 0 5500 5500"
 xmlns:xlink="http://www.w3.org/1999/xlink">
 <defs>
  <style type="text/css">
   <![CDATA[
    .str0 {stroke:#C1C1C1;stroke-width:7.62}
    .fil1 {fill:#C1C1C1}
    .fil0 {fill:url(#id0)}
    .fil2 {fill:url(#id1)}
   ]]>
  </style>
  <linearGradient id="id0" gradientUnits="userSpaceOnUse" x1="245.27" y1="2750" x2="5254.72" y2="2750">
   <stop offset="0" style="stop-opacity:1; stop-color:#6A6A6A"/>
   <stop offset="1" style="stop-opacity:1; stop-color:#BFBFBF"/>
  </linearGradient>
  <linearGradient id="id1" gradientUnits="userSpaceOnUse" x1="2839.56" y1="4114.89" x2="2841.34" y2="4114.89">
   <stop offset="0" style="stop-opacity:1; stop-color:black"/>
   <stop offset="1" style="stop-opacity:1; stop-color:white"/>
  </linearGradient>
 </defs>
 <g id="Capa_x0020_1">
  <metadata id="CorelCorpID_0Corel-Layer"/>
  <g id="_1888725230624">
   <path class="fil0" d="M5251 1512c1,1 4,1 4,2 0,323 0,728 0,1236 0,1171 -638,1794 -1275,2126 68,-159 87,-466 87,-466 -119,36 -239,47 -354,41 179,-87 375,-218 573,-415 21,-21 41,-43 61,-66 143,-127 301,-347 388,-476 212,-256 341,-584 341,-942 0,-815 -661,-1475 -1476,-1475 -814,0 -1475,655 -1475,1470 0,378 143,732 377,979 0,0 -1,0 -1,0 0,0 2,7 6,11 21,23 43,48 65,70 0,0 376,335 832,276 727,-93 774,-548 774,-548 0,0 -52,218 -537,301 -486,83 -793,-279 -793,-279 -16,-17 -32,-27 -48,-45 -2,-2 -3,1 -4,2 -171,-212 -275,-478 -275,-773 0,-634 483,-1152 1079,-1152 597,0 1080,513 1080,1147 0,313 -118,595 -309,802 0,0 -10,5 -10,5 0,0 0,2 -1,6 -5,6 -11,12 -16,18 -35,39 -80,93 -126,153 -220,215 -667,546 -1378,594 0,0 -1,0 -1,0 -50,299 55,489 55,489 181,236 829,296 1016,309 -28,13 -55,26 -82,38 -243,31 -656,-97 -656,-97 0,0 -29,195 124,288 -417,114 -694,114 -545,114 -324,0 -2506,0 -2506,0 0,0 0,-2505 0,-2505 0,0 -1,-2505 2505,-2505 152,0 294,0 428,0 -240,212 -560,485 -880,763 -80,69 -160,137 -239,205 -81,70 -158,136 -234,196 -153,122 -304,228 -435,315 -264,173 -454,268 -454,268 0,0 199,-72 485,-215 142,-71 306,-159 477,-265 86,-53 172,-111 256,-167 86,-59 174,-118 262,-177 367,-249 733,-498 1000,-678 4,-3 9,-6 14,-8 43,-27 93,-42 146,-42 65,0 124,22 171,59 265,180 625,424 986,669 87,59 175,118 262,177 83,56 170,114 256,167z"/>
   <path class="fil1 str0" d="M3970 245c240,212 560,485 880,763 80,69 160,137 239,205 57,49 95,95 166,140 0,-1107 0,-1108 0,-1108 0,0 1,0 -1285,0z"/>
   <path class="fil2" d="M2841 4115c-1,0 -1,-1 -1,-1 0,0 0,1 1,2 0,-1 0,-1 0,-1z"/>
  </g>
 </g>
</svg>
