<?xml version="1.0" encoding="utf-8"?>
<!-- Generator: Adobe Illustrator 25.2.1, SVG Export Plug-In . SVG Version: 6.00 Build 0)  -->
<svg version="1.1" id="Capa_1" xmlns="http://www.w3.org/2000/svg" xmlns:xlink="http://www.w3.org/1999/xlink" x="0px" y="0px"
	 viewBox="0 0 100 100" style="enable-background:new 0 0 100 100;" xml:space="preserve">
<style type="text/css">
	.st0{fill:#FFF;stroke:#000000;stroke-width:5;stroke-linecap:round;stroke-linejoin:round;stroke-miterlimit:10;}
	.st1{fill:#FFF;stroke:#000000;stroke-width:5;stroke-miterlimit:10;}
</style>
<g>
	<path class="st0" d="M83.52,53.87v27.38c0,3.9-3.16,7.06-7.06,7.06H16.58c-3.9,0-7.06-3.16-7.06-7.06V21.36
		c0-3.9,3.16-7.06,7.06-7.06h33.54"/>
	<path class="st1" d="M89.72,33.78l-19.92,18c-1.48,1.34-3.84,0.29-3.85-1.71l0.02-11.66c-3.4-0.35-9.74-0.97-18.99,2.56
		C30.7,47.2,24.25,61.24,23.6,60.68c-0.56-0.49,2.63-14.83,14.88-24.69C46.37,29.64,56.19,23.11,66,22.82L66.02,14
		c0.01-2,2.38-3.04,3.86-1.69l19.85,18.08C90.73,31.29,90.73,32.88,89.72,33.78z"/>
</g>
</svg>
