<?xml version="1.0" encoding="UTF-8"?>
<!DOCTYPE svg PUBLIC "-//W3C//DTD SVG 1.1//EN" "http://www.w3.org/Graphics/SVG/1.1/DTD/svg11.dtd">
<!-- Creator: CorelDRAW X8 -->
<svg xmlns="http://www.w3.org/2000/svg" xml:space="preserve" width="52mm" height="52mm" version="1.1" style="shape-rendering:geometricPrecision; text-rendering:geometricPrecision; image-rendering:optimizeQuality; fill-rule:evenodd; clip-rule:evenodd"
viewBox="0 0 5200 5200"
 xmlns:xlink="http://www.w3.org/1999/xlink">
 <defs>
  <style type="text/css">
   <![CDATA[
    .str0 {stroke:#FEFEFE;stroke-width:200;stroke-linecap:round;stroke-linejoin:round}
    .fil2 {fill:none}
    .fil1 {fill:#495C80}
    .fil0 {fill:#495C80;fill-rule:nonzero}
   ]]>
  </style>
 </defs>
 <g id="Capa_x0020_1">
  <metadata id="CorelCorpID_0Corel-Layer"/>
  <g>
   <path class="fil0" d="M4698 2600l-200 0 0 0 -3 -98 -7 -96 -12 -95 -17 -94 -21 -92 -25 -90 -30 -88 -34 -86 -38 -84 -42 -82 -46 -79 -49 -77 -53 -75 -57 -72 -59 -69 -63 -65 -66 -63 -69 -60 -72 -56 -74 -53 -77 -50 -80 -45 -81 -42 -84 -38 -87 -34 -88 -30 -90 -26 -91 -21 -94 -16 -95 -13 -96 -7 -98 -2 0 -200 108 3 106 8 105 14 104 18 101 24 100 28 97 33 96 37 93 42 90 47 88 50 85 55 82 58 80 63 76 66 73 69 69 73 66 76 62 79 59 82 54 85 51 88 46 91 42 93 38 95 33 97 28 100 23 101 19 104 13 105 8 106 3 108 0 0zm-2098 2098l0 -200 0 0 98 -2 96 -7 95 -13 94 -16 91 -21 90 -26 88 -30 87 -34 84 -38 81 -42 80 -45 77 -50 74 -53 72 -56 69 -60 66 -63 63 -65 59 -69 57 -72 53 -75 49 -77 46 -79 42 -82 38 -84 34 -86 30 -88 25 -90 21 -92 17 -94 12 -95 7 -96 3 -98 200 0 -3 108 -8 106 -13 105 -19 104 -23 101 -28 100 -33 97 -38 95 -42 93 -46 91 -51 88 -54 85 -59 82 -62 79 -66 76 -69 73 -73 70 -76 65 -80 63 -82 58 -85 55 -88 50 -90 47 -93 42 -96 37 -97 33 -100 29 -101 23 -104 18 -105 14 -106 8 -108 3 0 0zm-2098 -2098l200 0 0 0 3 98 7 96 12 95 17 94 21 92 25 90 30 88 34 86 38 84 42 82 46 79 49 77 53 75 57 72 59 69 63 65 66 63 69 60 72 56 74 53 77 50 80 45 81 42 84 38 87 34 88 30 90 26 91 21 94 16 95 13 96 7 98 2 0 200 -108 -3 -106 -8 -105 -14 -104 -18 -101 -23 -100 -29 -97 -33 -96 -37 -93 -42 -90 -47 -88 -50 -85 -55 -82 -58 -80 -63 -76 -65 -73 -70 -69 -73 -66 -76 -62 -79 -59 -82 -54 -85 -51 -88 -46 -91 -42 -93 -38 -95 -33 -97 -28 -100 -23 -101 -19 -104 -13 -105 -8 -106 -3 -108 0 0zm2098 -2098l0 200 0 0 -98 2 -96 7 -95 13 -94 16 -91 21 -90 26 -88 30 -87 34 -84 38 -81 42 -80 45 -77 50 -74 53 -72 56 -69 60 -66 63 -63 65 -59 69 -57 72 -53 75 -49 77 -46 79 -42 82 -38 84 -34 86 -30 88 -25 90 -21 92 -17 94 -12 95 -7 96 -3 98 -200 0 3 -108 8 -106 13 -105 19 -104 23 -101 28 -100 33 -97 38 -95 42 -93 46 -91 51 -88 54 -85 59 -82 62 -79 66 -76 69 -73 73 -69 76 -66 80 -63 82 -58 85 -55 88 -50 90 -47 93 -42 96 -37 97 -33 100 -28 101 -24 104 -18 105 -14 106 -8 108 -3 0 0z"/>
   <path id="1" class="fil1" d="M2600 602c1103,0 1998,895 1998,1998 0,1103 -895,1998 -1998,1998 -1103,0 -1998,-895 -1998,-1998 0,-1103 895,-1998 1998,-1998z"/>
  </g>
  <polygon class="fil2 str0" points="1881,3782 1881,1449 3332,1449 3332,3782 2607,2992 "/>
 </g>
</svg>
