<?xml version="1.0" encoding="utf-8"?>
<!-- Generator: Adobe Illustrator 25.2.1, SVG Export Plug-In . SVG Version: 6.00 Build 0)  -->
<svg version="1.1" id="Capa_2" xmlns="http://www.w3.org/2000/svg" xmlns:xlink="http://www.w3.org/1999/xlink" x="0px" y="0px"
	 viewBox="0 0 100 100" style="enable-background:new 0 0 100 100;" xml:space="preserve">
<style type="text/css">
	.st0{fill:none;stroke:#000000;stroke-width:5;stroke-miterlimit:10;}
	.st1{fill:none;stroke:#000000;stroke-width:5;stroke-linecap:round;stroke-linejoin:round;stroke-miterlimit:10;}
</style>
<path class="st0" d="M87.43,28.64l-0.6,59.77c0,3.83-3.11,6.94-6.94,6.94h-52.9c-3.83,0-6.94-3.11-6.94-6.94V11.59
	c0-3.83,3.11-6.94,6.94-6.94h36.73L87.43,28.64z"/>
<path class="st0" d="M62.08,16.38"/>
<path class="st0" d="M86.83,24.21"/>
<path class="st0" d="M60.37,22.69l0.01-15.16c0-2.19,2.65-3.28,4.19-1.74l21.18,21.18c1.55,1.55,0.45,4.19-1.74,4.19l-15.16,0.01
	C64.17,31.18,60.37,27.38,60.37,22.69z"/>
<line class="st1" x1="32.93" y1="63.93" x2="74.01" y2="63.93"/>
<line class="st1" x1="32.93" y1="78.2" x2="74.01" y2="78.2"/>
<path class="st1" d="M49.8,51.11H35.28c-1.3,0-2.35-1.05-2.35-2.35V34.24c0-1.3,1.05-2.35,2.35-2.35H49.8c1.3,0,2.35,1.05,2.35,2.35
	v14.52C52.15,50.06,51.1,51.11,49.8,51.11z"/>
</svg>
