<svg id="Capa_1" data-name="Capa 1" xmlns="http://www.w3.org/2000/svg" viewBox="0 0 92.49 92.49"><defs><style>.cls-1{fill:none;stroke:#000;stroke-linecap:round;stroke-linejoin:round;stroke-width:5px;}</style></defs><line class="cls-1" x1="2.5" y1="43.8" x2="89.99" y2="2.5"/><line class="cls-1" x1="48.69" y1="89.99" x2="89.99" y2="2.5"/><line class="cls-1" x1="2.5" y1="43.8" x2="42.02" y2="50.47"/><line class="cls-1" x1="48.69" y1="89.99" x2="42.02" y2="50.47"/><path d="M34.64,49a1.5,1.5,0,0,0,0-3,1.5,1.5,0,0,0,0,3Z" transform="translate(-0.91 -5.91)"/><path d="M45.18,34.73a72.79,72.79,0,0,0-4.57,10.39l21.93-2.87a15.31,15.31,0,0,1-1.75-2.76L62,42.36A7.1,7.1,0,0,1,61.61,41L62,44.23A5.71,5.71,0,0,1,62,43l-.42,3.19a5,5,0,0,1,.24-.94l-1.2,2.86a3.79,3.79,0,0,1,.35-.62L59.11,49.9a4.89,4.89,0,0,1,.5-.52l-2.43,1.88a4.83,4.83,0,0,1,.94-.53l-2.86,1.21c2.28-.83,4.74-1.41,7.09-2l-3.19.43.27,0-3.19-.43.27,0-2.87-1.21.17.08-2.43-1.87.14.11-1.88-2.42a.87.87,0,0,1,.18.31l-1.21-2.87a1.35,1.35,0,0,1,.08.4l-.43-3.19a4.47,4.47,0,0,1,0,.63l.43-3.19a37.14,37.14,0,0,1-2.21,8.43l1.21-2.86a38.71,38.71,0,0,1-2.23,4,19.51,19.51,0,0,0-2.83,9.57,12,12,0,0,0,12,12,12.14,12.14,0,0,0,8.48-3.51,12.8,12.8,0,0,0,3.52-8.49,3.38,3.38,0,0,1,0-.55l-.43,3.19a6.72,6.72,0,0,1,.45-1.59l-1.21,2.87a31.82,31.82,0,0,1,1.85-3.21,35,35,0,0,0,2.8-6.28,33,33,0,0,0,1.05-3.81,42.13,42.13,0,0,0,1.1-6.65,10.22,10.22,0,0,0-.2-2.12,12.46,12.46,0,0,0-1.5-4.85,13.91,13.91,0,0,0-2.06-2.75,14.78,14.78,0,0,0-1.35-1,7.13,7.13,0,0,0-2.82-1.63A7.91,7.91,0,0,0,61,26.55a6.48,6.48,0,0,0-1.87-.19,16.9,16.9,0,0,0-3.78.59c-.75.2-1.5.42-2.25.63-1.33.37-2.69.69-4,1.13a16.88,16.88,0,0,0-4.07,1.83,15.63,15.63,0,0,0-2.85,2.3A18,18,0,0,0,40,35.77a17,17,0,0,0-2,7.34A6.32,6.32,0,0,0,38,44a21.66,21.66,0,0,0,.56,3.92,17.25,17.25,0,0,0,.89,2.27,20.3,20.3,0,0,0,1,2.23,17.48,17.48,0,0,0,1.35,2l1.88,2.43,2.42,1.88L49,59.88a9.08,9.08,0,0,0,4.79.21,5.83,5.83,0,0,0,3-.82,6,6,0,0,0,2.65-1.54,6,6,0,0,0,2.15-2.15,9,9,0,0,0,2.15-4.08c.33-.94.69-1.86,1.07-2.77L63.61,51.6q1-2.45,2.29-4.75a12.58,12.58,0,0,0,1.21-9.25,12,12,0,0,0-21.93-2.87Z" transform="translate(-0.91 -5.91)"/><path d="M37,57a12.38,12.38,0,0,0,8.49-3.52A12.15,12.15,0,0,0,49,45c-.29-6.5-5.27-12-12-12a12.37,12.37,0,0,0-8.48,3.51A12.19,12.19,0,0,0,25,45c.29,6.5,5.27,12,12,12Z" transform="translate(-0.91 -5.91)"/><path d="M54.53,74.88A12.38,12.38,0,0,0,63,71.36a12.15,12.15,0,0,0,3.51-8.48c-.29-6.51-5.27-12-12-12a12.41,12.41,0,0,0-8.48,3.51,12.23,12.23,0,0,0-3.52,8.49c.3,6.5,5.28,12,12,12Z" transform="translate(-0.91 -5.91)"/><path d="M66.86,44.72a12.38,12.38,0,0,0,8.48-3.52,12.21,12.21,0,0,0,3.52-8.48c-.3-6.51-5.28-12-12-12a12.37,12.37,0,0,0-8.49,3.51,12.18,12.18,0,0,0-3.51,8.49c.29,6.5,5.27,12,12,12Z" transform="translate(-0.91 -5.91)"/><path d="M69.68,41.64a12.34,12.34,0,0,0,8.48-3.52,12.16,12.16,0,0,0,3.52-8.48c-.29-6.51-5.27-12-12-12a12.37,12.37,0,0,0-8.49,3.51,12.18,12.18,0,0,0-3.51,8.49c.29,6.5,5.27,12,12,12Z" transform="translate(-0.91 -5.91)"/><path d="M83.39,24.87l1.46-1.76a4.47,4.47,0,0,0,1.24-1.93,4.46,4.46,0,0,0,.52-2.31,4.46,4.46,0,0,0-.52-2.31,4.47,4.47,0,0,0-1.24-1.93l-1.22-.94a5.93,5.93,0,0,0-3-.82l-1.6.21a6,6,0,0,0-2.65,1.55l-1.45,1.76a4.43,4.43,0,0,0-1.24,1.93,4.46,4.46,0,0,0-.52,2.31,4.46,4.46,0,0,0,.52,2.31,4.38,4.38,0,0,0,1.24,1.93l1.21.94a6,6,0,0,0,3,.82l1.6-.21a6,6,0,0,0,2.64-1.55Z" transform="translate(-0.91 -5.91)"/><path d="M25.66,40.71l-3.47.22a4.46,4.46,0,0,0-2.31.51A4.47,4.47,0,0,0,18,42.68a4.49,4.49,0,0,0-1.24,1.93,4.52,4.52,0,0,0-.52,2.32l.21,1.59A6,6,0,0,0,18,51.17l1.21.94a6.09,6.09,0,0,0,3,.82l3.47-.22A4.51,4.51,0,0,0,28,52.19,4.43,4.43,0,0,0,29.9,51,4.43,4.43,0,0,0,31.14,49a4.49,4.49,0,0,0,.52-2.31l-.22-1.6a5.94,5.94,0,0,0-1.54-2.64l-1.21-.94a6,6,0,0,0-3-.82Z" transform="translate(-0.91 -5.91)"/><path d="M46.48,73l-.26,4.74a4.62,4.62,0,0,0,.51,2.32A4.68,4.68,0,0,0,48,82a4.56,4.56,0,0,0,1.94,1.24,4.56,4.56,0,0,0,2.31.51l1.59-.21A6.07,6.07,0,0,0,56.46,82l.94-1.22a6,6,0,0,0,.82-3L58.48,73A4.52,4.52,0,0,0,58,70.7a4.58,4.58,0,0,0-1.24-1.93,4.52,4.52,0,0,0-1.93-1.24A4.5,4.5,0,0,0,52.48,67l-1.6.21a6,6,0,0,0-2.65,1.54L47.3,70a5.84,5.84,0,0,0-.82,3Z" transform="translate(-0.91 -5.91)"/><path d="M11.93,51.17l8.71-.91a3.21,3.21,0,0,0,2.12-.87,3,3,0,0,0,0-4.25,2.93,2.93,0,0,0-2.12-.88l-8.71.91a3.27,3.27,0,0,0-2.12.88,3,3,0,0,0,0,4.25,2.88,2.88,0,0,0,2.12.87Z" transform="translate(-0.91 -5.91)"/><path d="M48.69,82.49l-.39,2.18a2.19,2.19,0,0,0-.06,1.19A2.28,2.28,0,0,0,48.6,87a2.23,2.23,0,0,0,.77.84,2.39,2.39,0,0,0,1,.54l.8.1a3,3,0,0,0,1.51-.41l.61-.47a2.94,2.94,0,0,0,.77-1.32l.4-2.18a2.33,2.33,0,0,0,.05-1.2,2.63,2.63,0,0,0-1.13-1.95,2.2,2.2,0,0,0-1-.54l-.79-.11a3.09,3.09,0,0,0-1.52.41l-.61.47a3.13,3.13,0,0,0-.77,1.33Z" transform="translate(-0.91 -5.91)"/><path d="M83.18,12.16l-.9.38a2.25,2.25,0,0,0-.84.78,2.39,2.39,0,0,0-.54,1,2.29,2.29,0,0,0-.05,1.19,2.28,2.28,0,0,0,.36,1.12l.46.6A3,3,0,0,0,83,18l.8.1a2.88,2.88,0,0,0,1.51-.41l.9-.38a2.31,2.31,0,0,0,.84-.77,2.29,2.29,0,0,0,.54-1,2.33,2.33,0,0,0,0-1.2,2.38,2.38,0,0,0-.35-1.12l-.47-.6a3,3,0,0,0-1.33-.77l-.8-.11a3,3,0,0,0-1.51.41Z" transform="translate(-0.91 -5.91)"/><path d="M53.19,89.47,53.55,87a2.33,2.33,0,0,0,.05-1.2,2.3,2.3,0,0,0-.35-1.11,2.36,2.36,0,0,0-.78-.85,2.27,2.27,0,0,0-1-.53l-.79-.11a3,3,0,0,0-1.52.41l-.61.47a2.94,2.94,0,0,0-.77,1.32l-.36,2.45a2.29,2.29,0,0,0,0,1.19,2.38,2.38,0,0,0,.35,1.12,2.25,2.25,0,0,0,.78.84,2.39,2.39,0,0,0,1,.54l.8.1a3,3,0,0,0,1.51-.41l.61-.47a2.94,2.94,0,0,0,.77-1.32Z" transform="translate(-0.91 -5.91)"/><path d="M21,50Q32.31,48,43.75,46.81a3.08,3.08,0,0,0,3-3,3,3,0,0,0-3-3Q31.49,42.1,19.36,44.16a3,3,0,0,0-2.1,3.69A3.08,3.08,0,0,0,21,50Z" transform="translate(-0.91 -5.91)"/></svg>