<?xml version="1.0" encoding="UTF-8"?>
<!DOCTYPE svg PUBLIC "-//W3C//DTD SVG 1.1//EN" "http://www.w3.org/Graphics/SVG/1.1/DTD/svg11.dtd">
<!-- Creator: CorelDRAW X8 -->
<svg xmlns="http://www.w3.org/2000/svg" xml:space="preserve" width="50mm" height="50mm" version="1.1" style="shape-rendering:geometricPrecision; text-rendering:geometricPrecision; image-rendering:optimizeQuality; fill-rule:evenodd; clip-rule:evenodd"
viewBox="0 0 5000 5000"
 xmlns:xlink="http://www.w3.org/1999/xlink">
 <defs>
  <style type="text/css">
   <![CDATA[
    .str2 {stroke:#00204A;stroke-width:200;stroke-linecap:round;stroke-linejoin:round}
    .str4 {stroke:#00204A;stroke-width:300;stroke-linecap:round;stroke-linejoin:round}
    .str1 {stroke:#00204A;stroke-width:300;stroke-linecap:round;stroke-linejoin:round}
    .str3 {stroke:#495C80;stroke-width:170;stroke-linecap:round;stroke-linejoin:round}
    .str0 {stroke:#00204A;stroke-width:250;stroke-linecap:round;stroke-linejoin:round}
    .fil0 {fill:none}
    .fil4 {fill:#FEFEFE}
    .fil1 {fill:#1F1F1F}
    .fil3 {fill:#495C80}
    .fil2 {fill:#FEFEFE;fill-rule:nonzero}
    .fil5 {fill:#1F1F1F;fill-rule:nonzero}
   ]]>
  </style>
 </defs>
 <g id="Capa_x0020_1">
  <metadata id="CorelCorpID_0Corel-Layer"/>
  <g id="_2790683039296">
   <path class="fil0 str0" d="M2023 3447c-398,-185 -653,-585 -653,-1024 0,-624 506,-1130 1130,-1130 624,0 1130,506 1130,1130 0,439 -255,839 -653,1024"/>
   <line class="fil0 str1" x1="1891" y1="3782" x2="3109" y2= "3782" />
   <line class="fil0 str0" x1="2014" y1="4216" x2="2986" y2= "4216" />
   <line class="fil0 str2" x1="2078" y1="4650" x2="2922" y2= "4650" />
   <line class="fil0 str1" x1="427" y1="2473" x2="921" y2= "2473" />
   <line class="fil0 str3" x1="4573" y1="2473" x2="4079" y2= "2473" />
   <line class="fil0 str1" x1="4573" y1="2473" x2="4079" y2= "2473" />
   <line class="fil0 str4" x1="2550" y1="350" x2="2550" y2= "844" />
   <line class="fil0 str3" x1="1069" y1="919" x2="1418" y2= "1268" />
   <line class="fil0 str1" x1="1069" y1="919" x2="1418" y2= "1268" />
   <line class="fil0 str4" x1="3947" y1="919" x2="3598" y2= "1268" />
   <g>
    <path class="fil1" d="M1812 3023l0 -103c0,-31 26,-57 57,-57l1179 0c31,0 57,26 57,57l0 103c0,32 -26,57 -57,57l-1179 0c-31,0 -57,-25 -57,-57z"/>
    <path id="1" class="fil2" d="M1817 2920l0 103 -9 0 0 -103 0 0 9 0zm52 -62l0 10 0 0 -2 0 -3 0 -3 0 -2 1 -3 0 -2 1 -3 1 -2 1 -2 1 -3 1 -2 1 -2 2 -2 1 -2 2 -2 1 -2 2 -2 2 -1 2 -2 2 -1 2 -2 2 -1 2 -1 2 -1 3 -1 2 -1 2 -1 3 0 2 -1 3 0 3 0 2 0 3 -9 0 0 -3 0 -3 0 -3 1 -3 1 -3 0 -3 1 -3 1 -3 2 -3 1 -2 2 -3 1 -2 2 -3 2 -2 2 -2 2 -2 2 -2 2 -2 2 -2 3 -2 2 -2 3 -1 3 -1 2 -2 3 -1 3 -1 3 -1 3 0 3 -1 3 0 3 0 3 -1 0 0zm1179 10l-1179 0 0 -10 1179 0 0 0 0 10zm61 52l-9 0 0 0 0 -3 0 -2 0 -3 -1 -3 -1 -2 0 -3 -1 -2 -1 -2 -1 -3 -1 -2 -2 -2 -1 -2 -1 -2 -2 -2 -2 -2 -1 -2 -2 -2 -2 -1 -2 -2 -2 -1 -2 -2 -2 -1 -3 -1 -2 -1 -2 -1 -3 -1 -2 -1 -3 0 -2 -1 -3 0 -3 0 -2 0 0 -10 3 1 3 0 3 0 3 1 3 0 3 1 3 1 3 1 2 2 3 1 3 1 2 2 2 2 3 2 2 2 2 2 2 2 2 2 2 2 2 3 1 2 2 3 1 2 1 3 1 3 1 3 1 3 1 3 1 3 0 3 0 3 0 3 0 0zm-9 103l0 -103 9 0 0 103 0 0 -9 0zm-52 62l0 -9 0 0 2 0 3 -1 3 0 2 0 3 -1 2 -1 3 0 2 -1 2 -1 3 -2 2 -1 2 -1 2 -2 2 -1 2 -2 2 -2 1 -2 2 -1 2 -2 1 -2 1 -3 2 -2 1 -2 1 -2 1 -3 1 -2 0 -3 1 -2 1 -3 0 -2 0 -3 0 -3 9 0 0 3 0 3 0 4 -1 3 -1 3 -1 2 -1 3 -1 3 -1 3 -1 2 -2 3 -1 3 -2 2 -2 2 -2 3 -2 2 -2 2 -2 2 -3 1 -2 2 -2 2 -3 1 -3 2 -2 1 -3 1 -3 1 -3 1 -3 1 -3 0 -3 0 -3 1 -3 0 0 0zm-1179 -9l1179 0 0 9 -1179 0 0 0 0 -9zm-61 -53l9 0 0 0 0 3 0 3 0 2 1 3 0 2 1 3 1 2 1 3 1 2 1 2 1 2 2 2 1 3 2 2 1 1 2 2 2 2 2 2 2 1 2 2 2 1 2 1 3 2 2 1 2 1 3 0 2 1 3 1 2 0 3 0 3 1 2 0 0 9 -3 0 -3 -1 -3 0 -3 0 -3 -1 -3 -1 -3 -1 -3 -1 -2 -1 -3 -2 -3 -1 -2 -2 -3 -2 -2 -1 -2 -2 -2 -2 -2 -2 -2 -3 -2 -2 -2 -2 -1 -3 -2 -3 -1 -2 -2 -3 -1 -3 -1 -3 0 -2 -1 -3 -1 -3 0 -4 0 -3 0 -3 0 0z"/>
   </g>
   <g>
    <path class="fil3" d="M1956 2435l103 0c32,0 57,26 57,57l0 374c0,31 -25,57 -57,57l-103 0c-31,0 -57,-26 -57,-57l0 -374c0,-31 26,-57 57,-57z"/>
    <path id="1" class="fil2" d="M2059 2480l-103 0 0 -90 103 0 0 0 0 90zm103 12l-91 0 0 0 0 0 0 -1 0 -1 0 0 0 -1 0 0 -1 -1 0 0 0 -1 0 0 0 -1 -1 0 0 -1 -1 0 0 -1 0 0 -1 -1 0 0 -1 0 0 -1 -1 0 0 0 -1 -1 0 0 -1 0 0 0 -1 0 0 0 -1 0 0 -1 -1 0 -1 0 0 -90 6 0 5 0 5 1 5 1 5 1 5 1 5 2 4 2 5 2 4 2 4 3 5 2 4 3 3 3 4 3 4 4 3 3 3 4 3 4 3 4 3 4 2 4 3 5 2 4 1 5 2 5 1 5 2 5 1 5 0 5 1 5 0 5 0 0zm-91 374l0 -374 91 0 0 374 0 0 -91 0zm-12 102l0 -91 0 0 1 0 1 0 0 0 1 0 0 0 1 0 0 0 1 -1 0 0 1 0 0 0 1 -1 0 0 1 0 0 -1 1 0 0 -1 0 0 1 0 0 -1 1 -1 0 0 0 0 0 -1 0 0 1 -1 0 -1 0 0 0 -1 0 0 0 -1 0 0 91 0 0 5 -1 5 0 5 -1 5 -2 5 -1 5 -2 5 -1 4 -2 5 -3 4 -2 5 -3 4 -3 4 -3 4 -3 3 -3 4 -4 3 -4 3 -3 3 -4 3 -5 3 -4 2 -4 3 -5 2 -4 2 -5 1 -5 2 -5 1 -5 1 -5 0 -5 1 -6 0 0 0zm-103 -91l103 0 0 91 -103 0 0 0 0 -91zm-102 -11l90 0 0 0 0 0 1 1 0 0 0 1 0 0 0 1 0 1 0 0 1 1 0 0 0 0 0 1 1 1 0 0 1 0 0 1 0 0 1 1 0 0 1 0 0 1 1 0 0 0 1 0 0 1 1 0 0 0 1 0 0 0 1 0 1 0 0 0 0 91 -5 0 -5 -1 -5 0 -5 -1 -5 -1 -5 -2 -5 -1 -5 -2 -4 -2 -5 -3 -4 -2 -4 -3 -4 -3 -4 -3 -4 -3 -3 -3 -3 -4 -4 -3 -3 -4 -3 -4 -2 -4 -3 -5 -2 -4 -2 -5 -2 -4 -1 -5 -2 -5 -1 -5 -1 -5 -1 -5 0 -5 0 -5 0 0zm90 -374l0 374 -90 0 0 -374 0 0 90 0zm12 -102l0 90 0 0 0 0 -1 0 -1 1 0 0 -1 0 0 0 -1 0 0 0 -1 1 0 0 -1 0 0 0 -1 1 0 0 -1 0 0 1 0 0 -1 1 0 0 -1 1 0 0 0 1 0 0 -1 1 0 0 0 1 0 0 0 1 0 0 0 1 -1 1 0 0 -90 0 0 -5 0 -5 1 -5 1 -5 1 -5 2 -5 1 -5 2 -5 2 -4 2 -5 3 -4 2 -4 3 -4 3 -4 4 -4 3 -3 3 -4 4 -3 4 -3 4 -3 4 -2 4 -3 5 -2 4 -2 5 -2 5 -2 5 -1 5 -1 5 -1 5 -1 5 0 5 0 0 0z"/>
   </g>
   <g>
    <path class="fil3" d="M2257 2260l103 0c31,0 57,26 57,57l0 549c0,31 -26,57 -57,57l-103 0c-32,0 -57,-26 -57,-57l0 -549c0,-31 25,-57 57,-57z"/>
    <path id="1" class="fil2" d="M2360 2306l-103 0 0 -91 103 0 0 0 0 91zm102 11l-90 0 0 0 0 0 0 -1 -1 0 0 -1 0 0 0 -1 0 -1 0 0 -1 -1 0 0 0 0 0 -1 -1 0 0 -1 0 0 -1 -1 0 0 -1 -1 0 0 -1 0 0 -1 -1 0 0 0 -1 0 0 -1 -1 0 0 0 -1 0 0 0 -1 0 -1 0 0 0 0 -91 5 0 5 0 5 1 5 1 5 1 5 1 5 2 5 2 4 2 4 2 5 3 4 2 4 3 4 3 3 3 4 4 3 3 4 4 3 4 2 4 3 4 3 4 2 5 2 4 2 5 1 5 2 5 1 5 1 5 1 5 0 5 0 5 0 0zm-90 549l0 -549 90 0 0 549 0 0 -90 0zm-12 102l0 -91 0 0 0 0 1 0 1 0 0 0 1 0 0 0 1 -1 0 0 1 0 0 0 1 -1 0 0 1 0 0 -1 1 0 0 0 1 -1 0 0 0 -1 1 0 0 -1 0 0 0 -1 1 0 0 -1 0 0 0 -1 0 0 0 -1 1 0 0 -1 0 0 90 0 0 5 0 5 -1 5 -1 5 -1 5 -2 5 -1 5 -2 5 -2 4 -2 5 -3 4 -3 4 -2 4 -3 4 -4 4 -3 3 -4 3 -3 4 -4 3 -4 3 -4 2 -5 3 -4 2 -4 2 -5 2 -5 1 -5 2 -5 1 -5 1 -5 1 -5 0 -5 0 0 0zm-103 -91l103 0 0 91 -103 0 0 0 0 -91zm-103 -11l91 0 0 0 0 0 0 1 0 0 0 1 0 0 0 1 1 0 0 1 0 0 0 1 0 0 1 1 0 0 1 1 0 0 0 1 1 0 0 0 1 1 0 0 1 0 0 1 1 0 0 0 1 0 0 1 1 0 0 0 1 0 0 0 1 0 1 0 0 91 -6 0 -5 0 -5 -1 -5 -1 -5 -1 -5 -2 -4 -1 -5 -2 -5 -2 -4 -2 -4 -3 -5 -2 -3 -3 -4 -3 -4 -4 -4 -3 -3 -3 -3 -4 -3 -4 -3 -4 -3 -4 -2 -4 -2 -5 -3 -4 -1 -5 -2 -5 -1 -5 -2 -5 0 -5 -1 -5 -1 -5 0 -5 0 0zm91 -549l0 549 -91 0 0 -549 0 0 91 0zm12 -102l0 91 0 0 -1 0 -1 0 0 0 -1 0 0 0 -1 0 0 0 -1 1 0 0 -1 0 0 0 -1 1 0 0 -1 0 0 1 -1 0 0 1 0 0 -1 1 0 0 -1 1 0 0 0 0 0 1 0 0 -1 1 0 1 0 0 0 1 0 0 0 1 0 0 -91 0 0 -5 1 -5 1 -5 0 -5 2 -5 1 -5 2 -5 1 -5 3 -4 2 -5 2 -4 3 -4 3 -4 3 -4 3 -4 3 -3 4 -4 4 -3 4 -3 3 -3 5 -2 4 -3 4 -2 5 -2 5 -2 4 -2 5 -1 5 -1 5 -1 5 -1 5 0 6 0 0 0z"/>
   </g>
   <g>
    <path class="fil3" d="M2557 2366l103 0c32,0 57,26 57,57l0 443c0,31 -25,57 -57,57l-103 0c-31,0 -57,-26 -57,-57l0 -443c0,-31 26,-57 57,-57z"/>
    <path id="1" class="fil2" d="M2660 2412l-103 0 0 -91 103 0 0 0 0 91zm103 11l-91 0 0 0 0 0 0 -1 0 -1 0 0 0 0 0 -1 -1 -1 0 0 0 -1 0 0 -1 0 0 -1 0 -1 -1 0 0 0 0 -1 -1 0 0 -1 -1 0 0 0 -1 -1 0 0 -1 0 0 0 -1 -1 0 0 -1 0 0 0 -1 0 -1 0 0 0 -1 0 0 -91 5 0 6 0 5 1 5 1 5 1 5 1 4 2 5 2 5 2 4 2 4 3 4 2 4 3 4 3 4 3 3 4 4 3 3 4 3 4 3 4 3 4 2 4 2 5 2 4 2 5 2 5 1 5 1 5 1 5 1 5 0 5 1 5 0 0zm-91 443l0 -443 91 0 0 443 0 0 -91 0zm-12 102l0 -91 0 0 1 0 0 0 1 0 1 0 0 0 1 0 0 -1 1 0 0 0 1 0 0 -1 1 0 0 0 1 -1 0 0 1 0 0 -1 0 0 1 -1 0 0 0 -1 1 0 0 -1 0 0 0 -1 1 0 0 -1 0 0 0 -1 0 0 0 -1 0 0 91 0 -1 5 0 5 -1 5 -1 5 -1 5 -1 5 -2 5 -2 4 -2 5 -2 4 -2 5 -3 4 -3 4 -3 4 -3 4 -4 3 -3 3 -4 4 -4 3 -4 2 -4 3 -4 3 -4 2 -5 2 -5 2 -4 1 -5 2 -5 1 -5 1 -5 1 -6 0 -5 0 0 0zm-103 -91l103 0 0 91 -103 0 0 0 0 -91zm-102 -11l90 0 0 0 0 0 0 1 0 0 1 1 0 0 0 1 0 0 0 1 0 0 1 1 0 0 0 1 1 0 0 1 0 0 1 1 0 0 1 0 0 1 1 0 0 0 0 1 1 0 1 0 0 0 1 1 0 0 1 0 0 0 1 0 0 0 1 0 0 91 -5 0 -5 0 -5 -1 -5 -1 -5 -1 -5 -2 -5 -1 -5 -2 -4 -2 -5 -2 -4 -3 -4 -3 -4 -2 -4 -3 -4 -4 -3 -3 -4 -3 -3 -4 -3 -4 -3 -4 -2 -4 -3 -5 -2 -4 -2 -5 -2 -4 -2 -5 -1 -5 -1 -5 -1 -5 -1 -5 0 -5 0 -5 0 0zm90 -443l0 443 -90 0 0 -443 0 0 90 0zm12 -102l0 91 0 0 -1 0 0 0 -1 0 0 0 -1 0 0 0 -1 0 0 1 -1 0 -1 0 0 0 0 1 -1 0 0 0 -1 1 0 0 -1 1 0 0 0 0 -1 1 0 1 0 0 -1 0 0 1 0 0 0 1 0 1 0 0 -1 0 0 1 0 1 0 0 -90 0 0 -5 0 -5 1 -5 1 -5 1 -5 1 -5 2 -5 2 -5 2 -4 2 -5 3 -4 2 -4 3 -4 3 -4 3 -4 4 -3 3 -4 4 -3 4 -3 4 -3 4 -2 4 -3 5 -2 4 -2 5 -2 5 -2 5 -1 5 -1 5 -1 5 -1 5 0 5 0 0 0z"/>
   </g>
   <g>
    <path class="fil4" d="M2857 2128l104 0c31,0 57,25 57,57l0 681c0,31 -26,57 -57,57l-104 0c-31,0 -57,-26 -57,-57l0 -681c0,-32 26,-57 57,-57z"/>
    <path id="1" class="fil2" d="M2961 2173l-104 0 0 -90 104 0 0 0 0 90zm102 12l-91 0 0 0 0 -1 0 0 0 -1 0 -1 0 0 0 -1 0 0 -1 -1 0 0 0 -1 0 0 -1 -1 0 0 0 -1 -1 0 0 -1 -1 0 0 -1 -1 0 0 0 -1 -1 0 0 0 0 -1 0 0 -1 -1 0 -1 0 0 0 -1 0 0 0 -1 0 0 0 0 -90 5 0 5 0 5 1 5 1 5 1 5 1 5 2 5 2 4 2 5 2 4 3 4 2 4 3 4 3 3 3 4 4 3 3 4 4 3 4 2 4 3 4 3 4 2 5 2 4 2 5 1 4 2 5 1 5 1 5 0 5 1 6 0 5 0 0zm-91 681l0 -681 91 0 0 681 0 0 -91 0zm-11 102l0 -90 0 0 0 0 1 0 0 -1 1 0 0 0 1 0 1 0 0 0 1 -1 0 0 0 0 1 0 0 -1 1 0 0 -1 1 0 0 0 1 -1 0 0 0 -1 1 0 0 -1 0 0 0 -1 1 0 0 -1 0 -1 0 0 0 -1 0 0 0 -1 0 0 91 0 0 5 -1 5 0 5 -1 5 -1 5 -2 5 -1 5 -2 4 -2 5 -2 4 -3 4 -3 5 -2 3 -3 4 -4 4 -3 4 -4 3 -3 3 -4 3 -4 3 -4 3 -4 2 -5 2 -4 3 -5 1 -5 2 -5 1 -5 2 -5 0 -5 1 -5 0 -5 1 0 0zm-104 -90l104 0 0 90 -104 0 0 0 0 -90zm-102 -12l91 0 0 0 0 0 0 1 0 0 0 1 0 0 0 1 0 1 1 0 0 1 0 0 0 1 1 0 0 1 0 0 1 1 0 0 1 0 0 1 1 0 0 1 1 0 0 0 1 0 0 1 1 0 0 0 1 0 0 0 1 0 0 1 1 0 0 0 0 90 -5 -1 -5 0 -5 -1 -5 0 -5 -2 -5 -1 -5 -2 -4 -1 -5 -3 -4 -2 -5 -2 -4 -3 -4 -3 -4 -3 -3 -3 -4 -3 -3 -4 -4 -4 -3 -4 -2 -3 -3 -5 -2 -4 -3 -4 -2 -5 -2 -4 -1 -5 -2 -5 -1 -5 -1 -5 0 -5 -1 -5 0 -5 0 0zm91 -681l0 681 -91 0 0 -681 0 0 91 0zm11 -102l0 90 0 0 0 0 -1 0 0 0 -1 0 0 0 -1 0 0 0 -1 1 0 0 -1 0 0 0 -1 1 0 0 -1 0 0 1 -1 0 0 1 -1 0 0 1 0 0 -1 1 0 0 0 1 0 0 -1 1 0 0 0 1 0 0 0 1 0 1 0 0 0 1 -91 0 0 -5 1 -6 0 -5 1 -5 1 -5 2 -5 1 -4 2 -5 2 -4 3 -5 2 -4 3 -4 2 -4 3 -4 4 -4 3 -3 4 -4 3 -3 4 -3 4 -3 4 -2 5 -3 4 -2 5 -2 4 -2 5 -2 5 -1 5 -1 5 -1 5 -1 5 0 5 0 0 0z"/>
   </g>
   <g>
    <path class="fil1" d="M1956 2435l103 0c32,0 57,26 57,57l0 374c0,31 -25,57 -57,57l-103 0c-31,0 -57,-26 -57,-57l0 -374c0,-31 26,-57 57,-57z"/>
    <path id="1" class="fil2" d="M2059 2440l-103 0 0 -9 103 0 0 0 0 9zm62 52l-9 0 0 0 0 -3 0 -2 -1 -3 0 -2 -1 -3 0 -2 -1 -3 -1 -2 -1 -3 -1 -2 -2 -2 -1 -2 -2 -2 -1 -2 -2 -2 -2 -2 -1 -2 -2 -1 -2 -2 -2 -1 -2 -2 -3 -1 -2 -1 -2 -1 -3 -1 -2 -1 -3 -1 -2 0 -3 -1 -2 0 -3 0 -3 0 0 -9 4 0 3 0 3 0 3 1 3 1 3 0 3 1 2 1 3 2 3 1 2 2 3 1 2 2 2 2 3 2 2 2 2 2 2 2 2 2 1 3 2 2 2 3 1 2 1 3 1 3 1 3 1 3 1 3 0 3 1 3 0 3 0 3 0 0zm-9 374l0 -374 9 0 0 374 0 0 -9 0zm-53 61l0 -9 0 0 3 0 3 0 2 -1 3 0 2 -1 3 0 2 -1 3 -1 2 -1 2 -1 3 -2 2 -1 2 -1 2 -2 2 -2 1 -1 2 -2 2 -2 1 -2 2 -2 1 -2 2 -2 1 -3 1 -2 1 -2 1 -3 0 -2 1 -3 0 -2 1 -3 0 -3 0 -2 9 0 0 3 0 3 -1 3 0 3 -1 3 -1 3 -1 3 -1 2 -1 3 -1 3 -2 2 -2 3 -1 2 -2 3 -2 2 -2 2 -2 2 -3 2 -2 2 -2 2 -3 1 -2 2 -3 1 -3 1 -2 1 -3 1 -3 1 -3 1 -3 0 -3 1 -3 0 -4 0 0 0zm-103 -9l103 0 0 9 -103 0 0 0 0 -9zm-61 -52l9 0 0 0 0 2 0 3 0 3 1 2 0 3 1 2 1 3 1 2 1 2 1 3 1 2 2 2 1 2 2 2 1 2 2 2 2 1 2 2 2 2 2 1 2 1 2 2 3 1 2 1 2 1 3 1 2 0 3 1 2 0 3 1 3 0 2 0 0 9 -3 0 -3 0 -3 -1 -3 0 -3 -1 -3 -1 -3 -1 -3 -1 -2 -1 -3 -1 -3 -2 -2 -1 -3 -2 -2 -2 -2 -2 -2 -2 -2 -2 -2 -2 -2 -3 -2 -2 -1 -3 -2 -2 -1 -3 -1 -3 -2 -2 -1 -3 0 -3 -1 -3 -1 -3 0 -3 0 -3 0 -3 0 0zm9 -374l0 374 -9 0 0 -374 0 0 9 0zm52 -61l0 9 0 0 -2 0 -3 0 -3 0 -2 1 -3 0 -2 1 -3 1 -2 1 -2 1 -3 1 -2 1 -2 2 -2 1 -2 2 -2 1 -2 2 -2 2 -1 2 -2 2 -1 2 -2 2 -1 2 -1 2 -1 3 -1 2 -1 3 -1 2 0 3 -1 2 0 3 0 2 0 3 -9 0 0 -3 0 -3 0 -3 1 -3 1 -3 0 -3 1 -3 2 -3 1 -3 1 -2 2 -3 1 -2 2 -3 2 -2 2 -2 2 -2 2 -2 2 -2 2 -2 3 -2 2 -1 3 -2 3 -1 2 -2 3 -1 3 -1 3 0 3 -1 3 -1 3 0 3 0 3 0 0 0z"/>
   </g>
   <g>
    <path class="fil1" d="M2257 2260l103 0c31,0 57,26 57,57l0 549c0,31 -26,57 -57,57l-103 0c-32,0 -57,-26 -57,-57l0 -549c0,-31 25,-57 57,-57z"/>
    <path id="1" class="fil2" d="M2360 2265l-103 0 0 -9 103 0 0 0 0 9zm61 52l-9 0 0 0 0 -2 0 -3 0 -3 -1 -2 0 -3 -1 -2 -1 -3 -1 -2 -1 -2 -1 -3 -1 -2 -2 -2 -1 -2 -2 -2 -1 -2 -2 -2 -2 -2 -2 -1 -2 -2 -2 -1 -2 -2 -2 -1 -2 -1 -3 -1 -2 -1 -3 -1 -2 -1 -3 0 -2 -1 -3 0 -3 0 -2 0 0 -9 3 0 3 0 3 0 3 1 3 1 3 0 3 1 3 2 2 1 3 1 3 2 2 1 3 2 2 2 2 2 2 2 2 2 2 2 2 2 2 3 1 2 2 3 1 3 2 2 1 3 1 3 0 3 1 3 1 3 0 3 0 3 0 3 0 0zm-9 549l0 -549 9 0 0 549 0 0 -9 0zm-52 61l0 -9 0 0 2 0 3 0 3 -1 2 0 3 -1 2 0 3 -1 2 -1 3 -1 2 -1 2 -2 2 -1 2 -1 2 -2 2 -2 2 -1 2 -2 1 -2 2 -2 1 -2 2 -2 1 -3 1 -2 1 -2 1 -2 1 -3 1 -2 0 -3 1 -3 0 -2 0 -3 0 -2 9 0 0 3 0 3 0 3 -1 3 -1 3 0 3 -1 3 -1 2 -2 3 -1 3 -2 2 -1 3 -2 2 -2 3 -2 2 -2 2 -2 2 -2 2 -2 2 -3 2 -2 1 -3 2 -3 1 -2 1 -3 1 -3 1 -3 1 -3 1 -3 0 -3 1 -3 0 -3 0 0 0zm-103 -9l103 0 0 9 -103 0 0 0 0 -9zm-62 -52l9 0 0 0 0 2 0 3 1 2 0 3 1 3 0 2 1 3 1 2 1 2 1 2 2 3 1 2 2 2 1 2 2 2 2 2 1 1 2 2 2 2 2 1 2 1 3 2 2 1 2 1 3 1 2 1 3 0 2 1 3 0 2 1 3 0 3 0 0 9 -3 0 -4 0 -3 -1 -3 0 -3 -1 -3 -1 -2 -1 -3 -1 -3 -1 -3 -1 -2 -2 -3 -1 -2 -2 -2 -2 -3 -2 -2 -2 -2 -2 -2 -2 -2 -3 -1 -2 -2 -3 -1 -2 -2 -3 -1 -3 -1 -2 -1 -3 -1 -3 -1 -3 0 -3 -1 -3 0 -3 0 -3 0 0zm9 -549l0 549 -9 0 0 -549 0 0 9 0zm53 -61l0 9 0 0 -3 0 -3 0 -2 0 -3 1 -2 0 -3 1 -2 1 -3 1 -2 1 -2 1 -3 1 -2 2 -2 1 -2 2 -2 1 -1 2 -2 2 -2 2 -1 2 -2 2 -1 2 -2 2 -1 3 -1 2 -1 2 -1 3 0 2 -1 3 0 2 -1 3 0 3 0 2 -9 0 0 -3 0 -3 1 -3 0 -3 1 -3 1 -3 1 -3 1 -3 1 -2 2 -3 1 -3 2 -2 1 -3 2 -2 2 -2 2 -2 2 -2 3 -2 2 -2 2 -2 3 -1 2 -2 3 -1 3 -1 3 -2 2 -1 3 0 3 -1 3 -1 3 0 4 0 3 0 0 0z"/>
   </g>
   <g>
    <path class="fil1" d="M2557 2366l103 0c32,0 57,26 57,57l0 443c0,31 -25,57 -57,57l-103 0c-31,0 -57,-26 -57,-57l0 -443c0,-31 26,-57 57,-57z"/>
    <path id="1" class="fil2" d="M2660 2371l-103 0 0 -9 103 0 0 0 0 9zm62 52l-9 0 0 0 0 -2 -1 -3 0 -3 0 -2 -1 -3 -1 -2 0 -3 -1 -2 -1 -2 -2 -3 -1 -2 -1 -2 -2 -2 -1 -2 -2 -2 -2 -2 -2 -2 -1 -1 -2 -2 -2 -1 -3 -2 -2 -1 -2 -1 -2 -1 -3 -1 -2 -1 -3 -1 -2 0 -3 -1 -2 0 -3 0 -3 0 0 -9 3 0 3 0 4 0 3 1 3 1 2 0 3 1 3 2 3 1 3 1 2 2 3 1 2 2 2 2 3 2 2 2 2 2 2 2 2 2 1 3 2 2 1 3 2 3 1 2 1 3 1 3 1 3 1 3 0 3 0 3 1 3 0 3 0 0zm-9 443l0 -443 9 0 0 443 0 0 -9 0zm-53 61l0 -9 0 0 3 0 3 0 2 -1 3 0 2 -1 3 0 2 -1 3 -1 2 -1 2 -1 2 -2 3 -1 2 -1 2 -2 1 -2 2 -1 2 -2 2 -2 1 -2 2 -2 1 -2 1 -3 2 -2 1 -2 1 -2 0 -3 1 -2 1 -3 0 -3 0 -2 1 -3 0 -2 9 0 0 3 -1 3 0 3 0 3 -1 3 -1 3 -1 3 -1 2 -1 3 -2 3 -1 2 -2 3 -1 2 -2 3 -2 2 -2 2 -2 2 -3 2 -2 2 -2 2 -3 1 -2 2 -3 1 -3 1 -3 1 -3 1 -2 1 -3 1 -3 0 -4 1 -3 0 -3 0 0 0zm-103 -9l103 0 0 9 -103 0 0 0 0 -9zm-62 -52l10 0 0 0 0 2 0 3 0 2 1 3 0 3 1 2 1 3 1 2 1 2 1 2 1 3 2 2 1 2 2 2 1 2 2 2 2 1 2 2 2 2 2 1 2 1 2 2 2 1 3 1 2 1 3 1 2 0 3 1 2 0 3 1 2 0 3 0 0 9 -3 0 -3 0 -3 -1 -3 0 -3 -1 -3 -1 -3 -1 -3 -1 -3 -1 -2 -1 -3 -2 -2 -1 -3 -2 -2 -2 -2 -2 -2 -2 -2 -2 -2 -2 -2 -3 -2 -2 -2 -3 -1 -2 -1 -3 -2 -3 -1 -2 -1 -3 -1 -3 0 -3 -1 -3 0 -3 0 -3 -1 -3 0 0zm10 -443l0 443 -10 0 0 -443 0 0 10 0zm52 -61l0 9 0 0 -3 0 -2 0 -3 0 -2 1 -3 0 -2 1 -3 1 -2 1 -3 1 -2 1 -2 1 -2 2 -2 1 -2 2 -2 1 -2 2 -2 2 -1 2 -2 2 -1 2 -2 2 -1 2 -1 3 -1 2 -1 2 -1 3 -1 2 0 3 -1 2 0 3 0 3 0 2 -10 0 1 -3 0 -3 0 -3 1 -3 0 -3 1 -3 1 -3 1 -3 2 -2 1 -3 1 -3 2 -2 2 -3 2 -2 2 -2 2 -2 2 -2 2 -2 2 -2 3 -2 2 -1 3 -2 2 -1 3 -1 3 -2 3 -1 3 0 3 -1 3 -1 3 0 3 0 3 0 0 0z"/>
   </g>
   <g>
    <path class="fil1" d="M2857 2128l104 0c31,0 57,25 57,57l0 681c0,31 -26,57 -57,57l-104 0c-31,0 -57,-26 -57,-57l0 -681c0,-32 26,-57 57,-57z"/>
    <path id="1" class="fil2" d="M2961 2132l-104 0 0 -9 104 0 0 0 0 9zm61 53l-9 0 0 0 0 -3 0 -3 0 -2 -1 -3 0 -2 -1 -3 -1 -2 -1 -3 -1 -2 -1 -2 -1 -2 -2 -3 -1 -2 -2 -2 -2 -1 -1 -2 -2 -2 -2 -2 -2 -1 -2 -2 -2 -1 -2 -1 -3 -2 -2 -1 -2 -1 -3 0 -2 -1 -3 -1 -2 0 -3 0 -3 -1 -2 0 0 -9 3 0 3 1 3 0 3 1 3 0 3 1 3 1 3 1 2 1 3 2 3 1 2 2 2 2 3 1 2 2 2 2 2 2 2 3 2 2 2 2 1 3 2 3 1 2 1 3 1 3 1 3 1 2 1 3 1 3 0 4 0 3 0 3 0 0zm-9 681l0 -681 9 0 0 681 0 0 -9 0zm-52 61l0 -9 0 0 2 0 3 0 3 -1 2 0 3 -1 2 0 3 -1 2 -1 2 -1 3 -1 2 -2 2 -1 2 -1 2 -2 2 -2 2 -1 1 -2 2 -2 2 -2 1 -2 2 -2 1 -2 1 -3 1 -2 1 -2 1 -3 1 -2 0 -3 1 -2 0 -3 0 -3 0 -2 9 0 0 3 0 3 0 3 -1 3 -1 3 -1 3 -1 3 -1 2 -1 3 -1 3 -2 2 -1 3 -2 2 -2 3 -2 2 -2 2 -2 2 -2 2 -3 2 -2 2 -2 1 -3 2 -3 1 -2 1 -3 1 -3 1 -3 1 -3 1 -3 0 -3 1 -3 0 -3 0 0 0zm-104 -9l104 0 0 9 -104 0 0 0 0 -9zm-61 -52l9 0 0 0 0 2 0 3 1 3 0 2 1 3 0 2 1 3 1 2 1 2 1 3 2 2 1 2 1 2 2 2 2 2 1 2 2 1 2 2 2 2 2 1 2 1 3 2 2 1 2 1 2 1 3 1 2 0 3 1 3 0 2 1 3 0 2 0 0 9 -3 0 -3 0 -3 -1 -3 0 -3 -1 -3 -1 -3 -1 -2 -1 -3 -1 -3 -1 -2 -2 -3 -1 -2 -2 -3 -2 -2 -2 -2 -2 -2 -2 -2 -2 -2 -3 -2 -2 -1 -3 -2 -2 -1 -3 -1 -3 -1 -2 -1 -3 -1 -3 -1 -3 0 -3 -1 -3 0 -3 0 -3 0 0zm9 -681l0 681 -9 0 0 -681 0 0 9 0zm52 -62l0 9 0 0 -2 0 -3 1 -2 0 -3 0 -3 1 -2 1 -3 0 -2 1 -2 1 -2 2 -3 1 -2 1 -2 2 -2 1 -2 2 -2 2 -1 2 -2 1 -2 2 -1 2 -1 3 -2 2 -1 2 -1 2 -1 3 -1 2 0 3 -1 2 0 3 -1 2 0 3 0 3 -9 0 0 -3 0 -3 1 -4 0 -3 1 -3 1 -2 1 -3 1 -3 1 -3 1 -2 2 -3 1 -3 2 -2 2 -2 2 -3 2 -2 2 -2 2 -2 3 -1 2 -2 3 -2 2 -1 3 -2 3 -1 2 -1 3 -1 3 -1 3 0 3 -1 3 0 3 -1 3 0 0 0z"/>
   </g>
   <g>
    <path class="fil5" d="M2325 1989l-300 175 -34 -59 300 -175 29 -2 5 61zm-34 -59l14 -7 15 5 -29 2zm306 168l-300 -106 23 -64 300 106 10 58 -33 6zm33 -6l-15 12 -18 -6 33 -6zm300 -238l-300 238 -42 -53 300 -238 42 53z"/>
   </g>
   <g>
    <path class="fil1" d="M2008 2095c22,0 40,18 40,40 0,22 -18,39 -40,39 -22,0 -40,-17 -40,-39 0,-22 18,-40 40,-40z"/>
    <path id="1" class="fil5" d="M2070 2135l-45 0 0 0 0 -1 0 -1 0 -1 0 -1 -1 -1 0 0 0 -1 0 -1 -1 -1 0 -1 -1 0 0 -1 -1 -1 0 0 -1 -1 0 -1 -1 0 0 -1 -1 0 -1 -1 0 0 -1 0 -1 -1 -1 0 0 0 -1 -1 -1 0 -1 0 -1 0 0 0 -1 -1 -1 0 0 -45 3 0 3 1 3 0 3 1 3 0 3 1 3 1 3 1 3 2 3 1 2 1 3 2 2 2 3 2 2 2 2 2 2 2 2 2 2 2 2 3 1 2 2 3 1 3 1 2 1 3 1 3 1 3 1 3 0 3 1 3 0 3 0 4 0 0zm-62 62l0 -45 0 0 1 0 1 0 0 0 1 0 1 -1 1 0 1 0 0 0 1 -1 1 0 1 -1 0 0 1 -1 1 0 0 -1 1 0 0 -1 1 0 0 -1 1 -1 0 0 1 -1 0 -1 1 -1 0 0 0 -1 0 -1 1 -1 0 -1 0 -1 0 0 0 -1 45 0 0 3 0 3 -1 3 0 3 -1 3 -1 3 -1 3 -1 3 -1 3 -1 2 -2 3 -1 2 -2 3 -2 2 -2 3 -2 2 -2 2 -2 2 -3 2 -2 1 -3 2 -2 1 -3 2 -3 1 -3 1 -3 1 -3 1 -3 1 -3 0 -3 1 -3 0 -3 0 0 0zm-63 -62l46 0 0 0 0 1 0 0 0 1 0 1 0 1 0 1 1 1 0 0 0 1 1 1 0 1 1 0 0 1 1 1 0 0 1 1 0 0 1 1 1 0 0 1 1 0 1 1 0 0 1 1 1 0 1 0 1 0 0 1 1 0 1 0 1 0 1 0 0 45 -3 0 -4 0 -3 -1 -3 0 -3 -1 -3 -1 -3 -1 -3 -1 -2 -1 -3 -2 -3 -1 -2 -2 -3 -1 -2 -2 -2 -2 -2 -2 -2 -2 -2 -3 -2 -2 -2 -3 -2 -2 -1 -3 -1 -2 -2 -3 -1 -3 -1 -3 -1 -3 0 -3 -1 -3 0 -3 0 -3 -1 -3 0 0zm63 -63l0 45 0 0 -1 0 -1 1 -1 0 -1 0 0 0 -1 0 -1 1 -1 0 -1 0 0 1 -1 0 -1 0 0 1 -1 0 -1 1 0 0 -1 1 0 1 -1 0 0 1 -1 1 0 0 -1 1 0 1 0 1 -1 1 0 0 0 1 0 1 0 1 0 1 0 1 -46 0 1 -4 0 -3 0 -3 1 -3 0 -3 1 -3 1 -3 1 -3 2 -2 1 -3 1 -3 2 -2 2 -3 2 -2 2 -2 2 -2 2 -2 2 -2 2 -2 3 -2 2 -2 3 -1 3 -1 2 -2 3 -1 3 -1 3 -1 3 0 3 -1 3 0 4 -1 3 0 0 0z"/>
   </g>
   <g>
    <path class="fil1" d="M2308 1920c22,0 40,18 40,40 0,22 -18,40 -40,40 -22,0 -40,-18 -40,-40 0,-22 18,-40 40,-40z"/>
    <path id="1" class="fil5" d="M2371 1960l-46 0 0 0 0 -1 0 -1 0 -1 0 -1 0 -1 0 0 -1 -1 0 -1 0 -1 -1 0 0 -1 -1 -1 0 -1 -1 0 0 -1 -1 0 0 -1 -1 0 -1 -1 0 0 -1 -1 -1 0 0 -1 -1 0 -1 0 -1 -1 -1 0 0 0 -1 0 -1 0 -1 0 -1 0 0 -45 3 0 4 0 3 0 3 1 3 1 3 0 3 1 3 1 2 2 3 1 3 2 2 1 3 2 2 2 2 2 2 2 2 2 2 2 2 3 2 2 2 3 1 2 1 3 2 3 1 2 1 3 1 3 0 3 1 3 0 3 1 4 0 3 0 0zm-63 62l0 -45 0 0 1 0 1 0 1 0 1 0 0 -1 1 0 1 0 1 0 1 -1 0 0 1 0 1 -1 0 0 1 -1 1 0 0 -1 1 -1 0 0 1 -1 0 -1 1 0 0 -1 1 -1 0 0 0 -1 1 -1 0 -1 0 -1 0 -1 0 0 0 -1 0 -1 46 0 0 3 -1 3 0 3 -1 3 0 3 -1 3 -1 3 -1 3 -2 3 -1 2 -1 3 -2 3 -2 2 -2 2 -2 3 -2 2 -2 2 -2 2 -2 2 -3 1 -2 2 -3 2 -3 1 -2 1 -3 1 -3 1 -3 1 -3 1 -3 0 -3 1 -4 0 -3 0 0 0zm-62 -62l45 0 0 0 0 1 0 1 0 0 0 1 1 1 0 1 0 1 0 1 1 0 0 1 1 1 0 0 1 1 0 1 1 0 0 1 1 1 0 0 1 1 1 0 0 1 1 0 1 0 1 1 0 0 1 0 1 0 1 1 1 0 0 0 1 0 1 0 0 45 -3 0 -3 0 -3 -1 -3 0 -3 -1 -3 -1 -3 -1 -3 -1 -3 -1 -3 -1 -2 -2 -3 -2 -2 -1 -3 -2 -2 -2 -2 -2 -2 -2 -2 -3 -2 -2 -2 -2 -1 -3 -2 -3 -1 -2 -1 -3 -1 -3 -1 -3 -1 -3 -1 -3 0 -3 -1 -3 0 -3 0 -3 0 0zm62 -62l0 45 0 0 -1 0 -1 0 0 0 -1 0 -1 0 -1 0 -1 1 0 0 -1 0 -1 1 -1 0 0 1 -1 0 -1 0 0 1 -1 1 0 0 -1 1 0 0 -1 1 0 1 -1 1 0 0 -1 1 0 1 0 1 0 0 -1 1 0 1 0 1 0 1 0 1 -45 0 0 -3 0 -4 1 -3 0 -3 1 -3 1 -3 1 -3 1 -2 1 -3 1 -3 2 -2 1 -3 2 -2 2 -3 2 -2 2 -2 2 -2 2 -2 3 -2 2 -2 3 -1 2 -2 3 -1 3 -2 3 -1 3 -1 3 0 3 -1 3 -1 3 0 3 0 3 0 0 0z"/>
   </g>
   <g>
    <path class="fil1" d="M2609 2026c22,0 39,18 39,40 0,22 -17,40 -39,40 -22,0 -40,-18 -40,-40 0,-22 18,-40 40,-40z"/>
    <path id="1" class="fil5" d="M2671 2066l-45 0 0 0 0 -1 0 -1 0 -1 -1 -1 0 -1 0 0 0 -1 -1 -1 0 -1 0 0 -1 -1 0 -1 -1 -1 0 0 -1 -1 0 0 -1 -1 -1 -1 0 0 -1 -1 -1 0 0 0 -1 -1 -1 0 0 0 -1 -1 -1 0 -1 0 -1 0 -1 0 0 0 -1 0 0 -45 3 0 3 0 3 0 3 1 3 0 3 1 3 1 3 1 3 2 2 1 3 2 3 1 2 2 2 2 3 2 2 2 2 2 2 2 2 3 1 2 2 3 2 2 1 3 1 3 1 2 1 3 1 3 1 3 0 3 1 3 0 4 0 3 0 0zm-62 62l0 -45 0 0 1 0 0 0 1 0 1 0 1 -1 1 0 1 0 0 0 1 -1 1 0 0 0 1 -1 1 0 0 -1 1 0 1 -1 0 -1 1 0 0 -1 1 -1 0 0 1 -1 0 -1 0 -1 1 0 0 -1 0 -1 0 -1 1 -1 0 0 0 -1 0 -1 45 0 0 3 0 3 -1 3 0 3 -1 3 -1 3 -1 3 -1 3 -1 3 -1 2 -2 3 -2 3 -1 2 -2 2 -2 3 -2 2 -2 2 -3 2 -2 2 -2 1 -3 2 -3 2 -2 1 -3 1 -3 1 -3 1 -3 1 -3 1 -3 0 -3 1 -3 0 -3 0 0 0zm-63 -62l46 0 0 0 0 1 0 1 0 0 0 1 0 1 0 1 1 1 0 0 0 1 1 1 0 1 0 0 1 1 0 1 1 0 1 1 0 1 1 0 0 1 1 0 1 1 1 0 0 0 1 1 1 0 1 0 0 0 1 1 1 0 1 0 1 0 1 0 0 45 -4 0 -3 0 -3 -1 -3 0 -3 -1 -3 -1 -3 -1 -3 -1 -2 -1 -3 -1 -3 -2 -2 -2 -3 -1 -2 -2 -2 -2 -3 -2 -2 -2 -2 -3 -1 -2 -2 -2 -2 -3 -1 -3 -2 -2 -1 -3 -1 -3 -1 -3 -1 -3 0 -3 -1 -3 0 -3 -1 -3 0 -3 0 0zm63 -62l0 45 0 0 -1 0 -1 0 -1 0 -1 0 -1 0 0 0 -1 1 -1 0 -1 0 0 1 -1 0 -1 0 -1 1 0 0 -1 1 0 1 -1 0 -1 1 0 0 -1 1 0 1 0 1 -1 0 0 1 0 1 -1 1 0 0 0 1 0 1 0 1 0 1 0 1 -46 0 0 -3 1 -4 0 -3 1 -3 0 -3 1 -3 1 -3 1 -2 1 -3 2 -3 1 -2 2 -3 2 -2 1 -3 2 -2 2 -2 3 -2 2 -2 2 -2 3 -2 2 -1 3 -2 3 -1 2 -2 3 -1 3 -1 3 -1 3 0 3 -1 3 0 3 0 4 0 0 0z"/>
   </g>
   <g>
    <polygon class="fil1" points="3005,1768 2974,1845 2944,1921 2892,1849 2841,1777 2923,1773 "/>
    <path id="1" class="fil5" d="M2970 1843l31 -76 8 3 -30 76 0 0 -9 -3zm-30 76l30 -76 9 3 -31 77 -8 1 0 -5zm8 4l-3 7 -5 -6 8 -1zm-52 -77l52 72 -8 6 -51 -72 0 0 7 -6zm-52 -72l52 72 -7 6 -52 -72 4 -8 3 2zm-7 6l-5 -7 9 -1 -4 8zm86 -3l-82 5 0 -10 82 -4 0 9zm82 -4l-82 4 0 -9 82 -4 4 6 -4 3zm0 -9l7 -1 -3 7 -4 -6z"/>
   </g>
  </g>
 </g>
</svg>
