<?xml version="1.0" encoding="UTF-8"?>
<!DOCTYPE svg PUBLIC "-//W3C//DTD SVG 1.1//EN" "http://www.w3.org/Graphics/SVG/1.1/DTD/svg11.dtd">
<!-- Creator: CorelDRAW X8 -->
<svg xmlns="http://www.w3.org/2000/svg" xml:space="preserve" width="50mm" height="50mm" version="1.1" style="shape-rendering:geometricPrecision; text-rendering:geometricPrecision; image-rendering:optimizeQuality; fill-rule:evenodd; clip-rule:evenodd"
viewBox="0 0 5000 5000"
 xmlns:xlink="http://www.w3.org/1999/xlink">
 <defs>
  <style type="text/css">
   <![CDATA[
    .str0 {stroke:#00204A;stroke-width:7.62}
    .fil1 {fill:#00204A}
    .fil0 {fill:#00204A;fill-rule:nonzero}
   ]]>
  </style>
 </defs>
 <g id="Capa_x0020_1">
  <metadata id="CorelCorpID_0Corel-Layer"/>
  <g id="_2791176470880">
   <g>
    <path class="fil0" d="M3620 2523l-1160 -1966 80 -46 1159 1966 -79 46zm79 -46c12,22 5,50 -17,62 -22,13 -50,6 -62,-16l79 -46zm1080 2012l-1159 -1966 79 -46 1159 1966 -40 69 -39 -23zm79 -46c13,22 5,50 -17,63 -21,13 -50,5 -62,-17l79 -46zm-2358 -22l2318 0 0 91 -2318 0 0 0 0 -91zm0 91c-25,0 -46,-20 -46,-46 0,-25 21,-45 46,-45l0 91zm-2318 -91l2318 0 0 91 -2318 0 -40 -69 40 -22zm0 91c-25,0 -46,-20 -46,-46 0,-25 21,-45 46,-45l0 91zm1198 -1989l-1159 1966 -79 -46 1159 -1966 0 0 79 46zm-79 -46c13,-22 41,-29 63,-16 22,12 29,40 16,62l-79 -46zm1239 -1920l-1160 1966 -79 -46 1159 -1966 80 0 0 46zm-80 -46c13,-22 41,-30 63,-17 22,13 29,41 17,63l-80 -46z"/>
   </g>
   <g>
    <path class="fil0" d="M3306 2733l-925 -1570 238 -139 925 1570 0 0 -238 139zm238 -139c38,65 16,149 -49,187 -66,39 -150,17 -189,-48l238 -139zm687 1708l-925 -1569 238 -139 925 1569 -119 206 -119 -67zm238 -139c38,65 16,149 -49,188 -66,38 -150,16 -189,-49l238 -139zm-1969 -68l1850 0 0 274 -1850 0 0 0 0 -274zm0 274c-76,0 -138,-61 -138,-137 0,-76 62,-137 138,-137l0 274zm-1850 -274l1850 0 0 274 -1850 0 -119 -206 119 -68zm0 274c-76,0 -138,-61 -138,-137 0,-76 62,-137 138,-137l0 274zm1044 -1636l-925 1569 -238 -139 925 -1569 0 0 238 139zm-238 -139c39,-66 123,-88 189,-49 65,38 87,122 49,188l-238 -139zm1163 -1431l-925 1570 -238 -139 925 -1570 238 0 0 139zm-238 -139c39,-65 123,-87 189,-48 65,38 87,122 49,187l-238 -139z"/>
   </g>
   <path class="fil1 str0" d="M2523 2301c-48,0 -88,40 -88,88l0 129 0 430 0 4c0,15 -12,28 -27,28l0 0c-15,0 -28,-13 -28,-28l0 -4 0 -430 0 -73c0,-49 -39,-88 -88,-88 -48,0 -87,39 -87,88l0 124 0 430 0 3c0,15 -13,28 -29,28l0 0c-15,0 -28,-13 -28,-28l0 -3 0 -374c0,-49 -40,-88 -88,-88 -48,0 -88,39 -88,88l0 727 5 118c9,195 208,353 465,353 198,0 368,-95 434,-228 3,-4 7,-8 10,-12l270 -398c33,-50 20,-118 -29,-151 -50,-34 -117,-21 -151,29l-127 187 0 -746c0,-48 -40,-88 -88,-88 -48,0 -88,40 -88,88l0 444 -1 0c0,18 -14,32 -31,32l0 0c-17,0 -31,-14 -31,-32l0 -427c0,-2 0,-5 1,-7l0 -125c0,-48 -40,-88 -88,-88z"/>
  </g>
 </g>
</svg>
