<?xml version="1.0" encoding="utf-8"?>
<!-- Generator: Adobe Illustrator 25.2.1, SVG Export Plug-In . SVG Version: 6.00 Build 0)  -->
<svg version="1.1" id="Capa_2" xmlns="http://www.w3.org/2000/svg" xmlns:xlink="http://www.w3.org/1999/xlink" x="0px" y="0px"
	 viewBox="0 0 100 100" style="enable-background:new 0 0 100 100;" xml:space="preserve">
<style type="text/css">
	.st0{fill:none;stroke:#000000;stroke-width:3.2;stroke-miterlimit:10;}
	.st1{stroke:#000000;stroke-width:3.2;stroke-miterlimit:10;}
</style>
<g>
	<g>
		<path class="st0" d="M61.15,77.5l0.74-2.68v-0.01c0.54-2.13,1.63-4,2.86-5.81c2.89-4.21,6.54-7.82,9.98-11.57
			c5.44-5.93,8.43-12.84,8.63-20.68c0.26-9.87-3.45-18.35-11.16-24.9C62.73,3.81,51.6,1.48,39.7,5.29
			c-12.77,4.07-20.4,12.92-22.63,25.86c-1.48,8.57,0.71,16.33,5.83,23.35c2.93,4.02,6.66,7.4,9.85,11.23
			c2.91,3.49,5.44,7.16,5.98,11.78"/>
		<path class="st0" d="M38.74,77.5"/>
		<path class="st0" d="M59.66,75.91"/>
	</g>
	<path class="st0" d="M61.87,83.96H38.13c-1.76,0-3.19-1.43-3.19-3.19v-0.08c0-1.76,1.43-3.19,3.19-3.19h23.74
		c1.76,0,3.19,1.43,3.19,3.19v0.08C65.06,82.53,63.63,83.96,61.87,83.96z"/>
	<path class="st0" d="M61.87,90.47H38.13c-1.76,0-3.19-1.43-3.19-3.19v-0.08c0-1.76,1.43-3.19,3.19-3.19h23.74
		c1.76,0,3.19,1.43,3.19,3.19v0.08C65.06,89.04,63.63,90.47,61.87,90.47z"/>
	<path class="st0" d="M39.45,90.47L39.45,90.47c5.93,8.03,15.17,8.03,21.1,0l0,0"/>
	<g>
		<polyline class="st0" points="35.2,33.27 44.65,23.19 52.45,28.4 61.18,18.23 		"/>
		<polygon class="st1" points="63.58,20.25 61.18,18.23 58.78,16.21 61.79,15.22 64.8,14.22 64.19,17.24 		"/>
	</g>
	<g>
		<path class="st0" d="M38.35,57.93H33.6c-1.19,0-2.15-0.96-2.15-2.15V42.66c0-1.19,0.96-2.15,2.15-2.15h4.75
			c1.19,0,2.15,0.96,2.15,2.15v13.12C40.5,56.97,39.53,57.93,38.35,57.93z"/>
		<path class="st0" d="M52.29,57.93h-4.32c-1.31,0-2.37-1.06-2.37-2.37v-16.4c0-1.31,1.06-2.37,2.37-2.37h4.32
			c1.31,0,2.37,1.06,2.37,2.37v16.4C54.66,56.87,53.6,57.93,52.29,57.93z"/>
		<path class="st0" d="M65.88,57.93h-3.71c-1.48,0-2.67-1.2-2.67-2.67V33.69c0-1.48,1.2-2.67,2.67-2.67h3.71
			c1.48,0,2.67,1.2,2.67,2.67v21.57C68.56,56.73,67.36,57.93,65.88,57.93z"/>
	</g>
</g>
</svg>
