<?xml version="1.0" encoding="UTF-8"?>
<!DOCTYPE svg PUBLIC "-//W3C//DTD SVG 1.1//EN" "http://www.w3.org/Graphics/SVG/1.1/DTD/svg11.dtd">
<!-- Creator: CorelDRAW X8 -->
<svg xmlns="http://www.w3.org/2000/svg" xml:space="preserve" width="178.5mm" height="52mm" version="1.1" style="shape-rendering:geometricPrecision; text-rendering:geometricPrecision; image-rendering:optimizeQuality; fill-rule:evenodd; clip-rule:evenodd"
viewBox="0 0 17850 5200"
 xmlns:xlink="http://www.w3.org/1999/xlink">
 <defs>
  <style type="text/css">
   <![CDATA[
    .str0 {stroke:#848688;stroke-width:20}
    .str1 {stroke:#848688;stroke-width:7.62}
    .fil5 {fill:none;fill-rule:nonzero}
    .fil4 {fill:#848688;fill-rule:nonzero}
    .fil1 {fill:url(#id0)}
    .fil3 {fill:url(#id1)}
    .fil2 {fill:url(#id2)}
    .fil0 {fill:url(#id3)}
   ]]>
  </style>
  <linearGradient id="id0" gradientUnits="objectBoundingBox" x1="0.000199623%" y1="75%" x2="112.792%" y2="74.3037%">
   <stop offset="0" style="stop-opacity:1; stop-color:#545454"/>
   <stop offset="1" style="stop-opacity:1; stop-color:#D4D3D3"/>
  </linearGradient>
  <linearGradient id="id1" gradientUnits="objectBoundingBox" x1="0%" y1="0%" x2="171684%" y2="0%">
   <stop offset="0" style="stop-opacity:1; stop-color:#F07F07"/>
   <stop offset="1" style="stop-opacity:1; stop-color:#F9B132"/>
  </linearGradient>
  <linearGradient id="id2" gradientUnits="objectBoundingBox" xlink:href="#id0" x1="0%" y1="0%" x2="171684%" y2="0%">
  </linearGradient>
  <linearGradient id="id3" gradientUnits="objectBoundingBox" xlink:href="#id0" x1="0%" y1="339.191%" x2="149.893%" y2="336.042%">
  </linearGradient>
 </defs>
 <g id="Capa_x0020_1">
  <metadata id="CorelCorpID_0Corel-Layer"/>
  <path class="fil0" d="M3803 95c240,212 560,485 880,763 80,69 160,137 239,205 57,49 95,95 166,140 0,-1107 0,-1108 0,-1108 0,0 1,0 -1285,0z"/>
  <path class="fil1" d="M5084 1362c1,1 4,1 4,2 0,323 0,728 0,1236 0,1171 -638,1794 -1275,2126 68,-159 87,-466 87,-466 -119,36 -239,47 -354,41 179,-87 375,-218 573,-415 21,-21 41,-43 61,-66 143,-127 301,-347 388,-476 212,-256 341,-584 341,-942 0,-815 -661,-1475 -1476,-1475 -814,0 -1475,655 -1475,1470 0,378 143,732 377,979 0,0 -1,0 -1,0 0,0 2,7 6,11 21,23 43,48 65,70 0,0 376,335 832,276 727,-93 774,-548 774,-548 0,0 -52,218 -537,301 -486,83 -793,-279 -793,-279 -16,-17 -32,-27 -48,-45 -2,-2 -3,1 -4,2 -171,-212 -275,-478 -275,-773 0,-634 483,-1152 1079,-1152 597,0 1080,513 1080,1147 0,313 -118,595 -309,802 0,0 -10,5 -10,5 0,0 0,2 -1,6 -5,6 -11,12 -16,18 -35,39 -80,93 -126,153 -220,215 -667,546 -1378,594 0,0 -1,0 -1,0 -50,299 55,489 55,489 181,236 829,296 1016,309 -28,13 -55,26 -82,38 -243,31 -656,-97 -656,-97 0,0 -29,195 124,288 -417,114 -694,114 -545,114 -324,0 -2506,0 -2506,0 0,0 0,-2505 0,-2505 0,0 -2,-2505 2505,-2505 152,0 294,0 428,0 -240,212 -560,485 -880,763 -80,69 -160,137 -239,205 -81,70 -158,136 -234,196 -153,122 -304,228 -435,315 -264,173 -454,268 -454,268 0,0 199,-72 485,-215 142,-71 306,-159 477,-265 86,-53 172,-111 256,-167 86,-59 174,-118 262,-177 367,-249 733,-498 1000,-678 4,-3 9,-6 14,-8 43,-27 93,-42 146,-42 65,0 124,22 171,59 265,180 625,424 986,669 87,59 175,118 262,177 83,56 170,114 256,167z"/>
  <g id="_1578540626736">
   <path class="fil1" d="M5084 1362c1,1 4,1 4,2 0,323 0,728 0,1236 0,1171 -638,1794 -1275,2126 68,-159 87,-466 87,-466 -119,36 -239,47 -354,41 179,-87 375,-218 573,-415 21,-21 41,-43 61,-66 143,-127 301,-347 388,-476 212,-256 341,-584 341,-942 0,-815 -661,-1475 -1476,-1475 -814,0 -1475,655 -1475,1470 0,378 143,732 377,979 0,0 -1,0 -1,0 0,0 2,7 6,11 21,23 43,48 65,70 0,0 376,335 832,276 727,-93 774,-548 774,-548 0,0 -52,218 -537,301 -486,83 -793,-279 -793,-279 -16,-17 -32,-27 -48,-45 -2,-2 -3,1 -4,2 -171,-212 -275,-478 -275,-773 0,-634 483,-1152 1079,-1152 597,0 1080,513 1080,1147 0,313 -118,595 -309,802 0,0 -10,5 -10,5 0,0 0,2 -1,6 -5,6 -11,12 -16,18 -35,39 -80,93 -126,153 -220,215 -667,546 -1378,594 0,0 -1,0 -1,0 -50,299 55,489 55,489 181,236 829,296 1016,309 -28,13 -55,26 -82,38 -243,31 -656,-97 -656,-97 0,0 -29,195 124,288 -417,114 -694,114 -545,114 -324,0 -2506,0 -2506,0 0,0 0,-2505 0,-2505 0,0 -2,-2505 2505,-2505 152,0 294,0 428,0 -240,212 -560,485 -880,763 -80,69 -160,137 -239,205 -81,70 -158,136 -234,196 -153,122 -304,228 -435,315 -264,173 -454,268 -454,268 0,0 199,-72 485,-215 142,-71 306,-159 477,-265 86,-53 172,-111 256,-167 86,-59 174,-118 262,-177 367,-249 733,-498 1000,-678 4,-3 9,-6 14,-8 43,-27 93,-42 146,-42 65,0 124,22 171,59 265,180 625,424 986,669 87,59 175,118 262,177 83,56 170,114 256,167z"/>
   <path class="fil0" d="M3803 95c240,212 560,485 880,763 80,69 160,137 239,205 57,49 95,95 166,140 0,-1107 0,-1108 0,-1108 0,0 1,0 -1285,0z"/>
   <path class="fil2" d="M2674 3965c-1,0 -1,-1 -1,-1 0,0 0,1 1,2 0,-1 0,-1 0,-1z"/>
   <path class="fil3" d="M2674 3965c-1,0 -1,-1 -1,-1 0,0 0,1 1,2 0,-1 0,-1 0,-1z"/>
  </g>
  <path class="fil3" d="M2674 3965c-1,0 -1,-1 -1,-1 0,0 0,1 1,2 0,-1 0,-1 0,-1z"/>
  <path class="fil2" d="M2674 3965c-1,0 -1,-1 -1,-1 0,0 0,1 1,2 0,-1 0,-1 0,-1z"/>
  <path class="fil3" d="M2674 3965c-1,0 -1,-1 -1,-1 0,0 0,1 1,2 0,-1 0,-1 0,-1z"/>
  <path class="fil4" d="M5740 4337l49 -100 312 0 50 100 216 0 -422 -813 -422 813 217 0zm205 -436l87 176 -173 0 86 -176z"/>
  <polygon id="1" class="fil4" points="6925,4337 6925,4149 6636,4149 6636,3575 6428,3575 6428,4337 "/>
  <path id="2" class="fil4" d="M6968 4009c0,110 33,195 97,253 65,57 147,86 245,86 98,0 180,-29 245,-86 64,-58 97,-143 97,-253l0 -434 -208 0 0 412c0,126 -48,173 -134,173 -86,0 -134,-47 -134,-173l0 -412 -208 0 0 434z"/>
  <polygon id="3" class="fil4" points="7961,4337 7961,3993 8185,4220 8409,3993 8409,4337 8602,4337 8602,3546 8185,3962 7768,3546 7768,4337 "/>
  <path id="4" class="fil4" d="M9109 4337c67,0 122,-21 165,-63 45,-43 67,-98 67,-162 0,-97 -53,-168 -153,-189 61,-25 97,-80 97,-153 0,-56 -19,-103 -59,-139 -39,-37 -87,-56 -145,-56l-354 0 0 762 382 0zm-174 -593l100 0c36,0 65,28 65,66 0,41 -27,69 -65,69l-100 0 0 -135zm0 277l127 0c47,0 79,31 79,71 0,43 -33,74 -77,74l-129 0 0 -145z"/>
  <path id="5" class="fil4" d="M9639 4337l0 -237 77 0 2 0 155 237 238 0 -190 -282c79,-36 130,-120 130,-217 0,-74 -26,-135 -79,-186 -54,-52 -118,-77 -194,-77l-346 0 0 762 207 0zm0 -574l134 0c40,0 72,33 72,81 0,57 -34,90 -90,90l-116 0 0 -171z"/>
  <path id="6" class="fil4" d="M10295 4337l49 -100 313 0 49 100 216 0 -422 -813 -421 813 216 0zm205 -436l87 176 -173 0 86 -176z"/>
  <path id="7" class="fil4" d="M11294 4337c132,0 233,-34 302,-103 70,-69 105,-160 105,-276 0,-114 -35,-206 -106,-277 -70,-71 -170,-106 -302,-106l-310 0 0 762 311 0zm-103 -565l88 0c89,0 147,20 176,56 30,36 37,74 37,130 0,57 -7,95 -37,133 -27,38 -87,58 -175,58l-89 0 0 -377z"/>
  <path id="8" class="fil4" d="M12607 3959c0,-109 -42,-202 -124,-279 -81,-77 -180,-116 -297,-116 -117,0 -215,39 -297,116 -82,78 -122,171 -122,279 0,108 40,201 122,278 82,77 180,115 297,115 117,0 216,-38 297,-115 82,-77 124,-170 124,-278zm-628 0c0,-57 20,-106 61,-147 40,-41 89,-62 146,-62 57,0 106,21 147,62 41,42 62,91 62,147 0,56 -21,105 -62,146 -41,41 -90,61 -147,61 -58,0 -107,-19 -147,-60 -41,-40 -60,-89 -60,-147z"/>
  <path id="9" class="fil4" d="M13303 4337l0 -221 150 0c66,0 127,-25 183,-76 56,-52 84,-116 84,-194 0,-87 -39,-161 -93,-204 -53,-44 -116,-67 -174,-67l-358 0 0 762 208 0zm0 -574l140 0c10,0 18,1 39,10 21,9 34,35 34,73 0,36 -13,63 -34,71 -18,9 -28,11 -38,11l-141 0 0 -165z"/>
  <path id="10" class="fil4" d="M13798 4009c0,110 33,195 97,253 65,57 147,86 245,86 98,0 180,-29 245,-86 64,-58 97,-143 97,-253l0 -434 -208 0 0 412c0,126 -48,173 -134,173 -86,0 -134,-47 -134,-173l0 -412 -208 0 0 434zm412 -486l112 -159 -207 0 -54 159 149 0z"/>
  <path id="11" class="fil4" d="M14980 4337c67,0 121,-21 165,-63 45,-43 67,-98 67,-162 0,-97 -54,-168 -153,-189 61,-25 97,-80 97,-153 0,-56 -20,-103 -59,-139 -39,-37 -87,-56 -145,-56l-354 0 0 762 382 0zm-175 -593l101 0c36,0 64,28 64,66 0,41 -26,69 -64,69l-101 0 0 -135zm0 277l128 0c47,0 79,31 79,71 0,43 -33,74 -78,74l-129 0 0 -145z"/>
  <polygon id="12" class="fil4" points="15800,4337 15800,4149 15510,4149 15510,3575 15302,3575 15302,4337 "/>
  <polygon id="13" class="fil4" points="16096,4337 16096,3575 15888,3575 15888,4337 "/>
  <path id="14" class="fil4" d="M16610 3564c-116,0 -214,38 -295,113 -79,74 -120,167 -120,280 0,112 41,205 120,279 81,75 179,112 295,112 89,0 166,-26 234,-78l0 -213c-69,70 -146,105 -234,105 -58,0 -107,-20 -147,-58 -41,-39 -60,-88 -60,-147 0,-59 19,-108 60,-148 40,-39 89,-59 147,-59 88,0 165,35 234,105l0 -213c-68,-51 -145,-78 -234,-78z"/>
  <path id="15" class="fil4" d="M17772 3959c0,-109 -42,-202 -124,-279 -82,-77 -180,-116 -297,-116 -117,0 -215,39 -297,116 -82,78 -122,171 -122,279 0,108 40,201 122,278 82,77 180,115 297,115 117,0 215,-38 297,-115 82,-77 124,-170 124,-278zm-628 0c0,-57 20,-106 61,-147 40,-41 89,-62 146,-62 57,0 106,21 147,62 41,42 62,91 62,147 0,56 -21,105 -62,146 -41,41 -90,61 -147,61 -58,0 -107,-19 -147,-60 -41,-40 -60,-89 -60,-147z"/>
  <path id="16" class="fil5 str0" d="M5740 4337l49 -100 312 0 50 100 216 0 -422 -813 -422 813 217 0zm205 -436l87 176 -173 0 86 -176z"/>
  <polygon id="17" class="fil5 str0" points="6925,4337 6925,4149 6636,4149 6636,3575 6428,3575 6428,4337 "/>
  <path id="18" class="fil5 str0" d="M6968 4009c0,110 33,195 97,253 65,57 147,86 245,86 98,0 180,-29 245,-86 64,-58 97,-143 97,-253l0 -434 -208 0 0 412c0,126 -48,173 -134,173 -86,0 -134,-47 -134,-173l0 -412 -208 0 0 434z"/>
  <polygon id="19" class="fil5 str0" points="7961,4337 7961,3993 8185,4220 8409,3993 8409,4337 8602,4337 8602,3546 8185,3962 7768,3546 7768,4337 "/>
  <path id="20" class="fil5 str0" d="M9109 4337c67,0 122,-21 165,-63 45,-43 67,-98 67,-162 0,-97 -53,-168 -153,-189 61,-25 97,-80 97,-153 0,-56 -19,-103 -59,-139 -39,-37 -87,-56 -145,-56l-354 0 0 762 382 0zm-174 -593l100 0c36,0 65,28 65,66 0,41 -27,69 -65,69l-100 0 0 -135zm0 277l127 0c47,0 79,31 79,71 0,43 -33,74 -77,74l-129 0 0 -145z"/>
  <path id="21" class="fil5 str0" d="M9639 4337l0 -237 77 0 2 0 155 237 238 0 -190 -282c79,-36 130,-120 130,-217 0,-74 -26,-135 -79,-186 -54,-52 -118,-77 -194,-77l-346 0 0 762 207 0zm0 -574l134 0c40,0 72,33 72,81 0,57 -34,90 -90,90l-116 0 0 -171z"/>
  <path id="22" class="fil5 str0" d="M10295 4337l49 -100 313 0 49 100 216 0 -422 -813 -421 813 216 0zm205 -436l87 176 -173 0 86 -176z"/>
  <path id="23" class="fil5 str0" d="M11294 4337c132,0 233,-34 302,-103 70,-69 105,-160 105,-276 0,-114 -35,-206 -106,-277 -70,-71 -170,-106 -302,-106l-310 0 0 762 311 0zm-103 -565l88 0c89,0 147,20 176,56 30,36 37,74 37,130 0,57 -7,95 -37,133 -27,38 -87,58 -175,58l-89 0 0 -377z"/>
  <path id="24" class="fil5 str0" d="M12607 3959c0,-109 -42,-202 -124,-279 -81,-77 -180,-116 -297,-116 -117,0 -215,39 -297,116 -82,78 -122,171 -122,279 0,108 40,201 122,278 82,77 180,115 297,115 117,0 216,-38 297,-115 82,-77 124,-170 124,-278zm-628 0c0,-57 20,-106 61,-147 40,-41 89,-62 146,-62 57,0 106,21 147,62 41,42 62,91 62,147 0,56 -21,105 -62,146 -41,41 -90,61 -147,61 -58,0 -107,-19 -147,-60 -41,-40 -60,-89 -60,-147z"/>
  <path id="25" class="fil5 str0" d="M13303 4337l0 -221 150 0c66,0 127,-25 183,-76 56,-52 84,-116 84,-194 0,-87 -39,-161 -93,-204 -53,-44 -116,-67 -174,-67l-358 0 0 762 208 0zm0 -574l140 0c10,0 18,1 39,10 21,9 34,35 34,73 0,36 -13,63 -34,71 -18,9 -28,11 -38,11l-141 0 0 -165z"/>
  <path id="26" class="fil5 str0" d="M13798 4009c0,110 33,195 97,253 65,57 147,86 245,86 98,0 180,-29 245,-86 64,-58 97,-143 97,-253l0 -434 -208 0 0 412c0,126 -48,173 -134,173 -86,0 -134,-47 -134,-173l0 -412 -208 0 0 434zm412 -486l112 -159 -207 0 -54 159 149 0z"/>
  <path id="27" class="fil5 str0" d="M14980 4337c67,0 121,-21 165,-63 45,-43 67,-98 67,-162 0,-97 -54,-168 -153,-189 61,-25 97,-80 97,-153 0,-56 -20,-103 -59,-139 -39,-37 -87,-56 -145,-56l-354 0 0 762 382 0zm-175 -593l101 0c36,0 64,28 64,66 0,41 -26,69 -64,69l-101 0 0 -135zm0 277l128 0c47,0 79,31 79,71 0,43 -33,74 -78,74l-129 0 0 -145z"/>
  <polygon id="28" class="fil5 str0" points="15800,4337 15800,4149 15510,4149 15510,3575 15302,3575 15302,4337 "/>
  <polygon id="29" class="fil5 str0" points="16096,4337 16096,3575 15888,3575 15888,4337 "/>
  <path id="30" class="fil5 str0" d="M16610 3564c-116,0 -214,38 -295,113 -79,74 -120,167 -120,280 0,112 41,205 120,279 81,75 179,112 295,112 89,0 166,-26 234,-78l0 -213c-69,70 -146,105 -234,105 -58,0 -107,-20 -147,-58 -41,-39 -60,-88 -60,-147 0,-59 19,-108 60,-148 40,-39 89,-59 147,-59 88,0 165,35 234,105l0 -213c-68,-51 -145,-78 -234,-78z"/>
  <path id="31" class="fil5 str0" d="M17772 3959c0,-109 -42,-202 -124,-279 -82,-77 -180,-116 -297,-116 -117,0 -215,39 -297,116 -82,78 -122,171 -122,279 0,108 40,201 122,278 82,77 180,115 297,115 117,0 215,-38 297,-115 82,-77 124,-170 124,-278zm-628 0c0,-57 20,-106 61,-147 40,-41 89,-62 146,-62 57,0 106,21 147,62 41,42 62,91 62,147 0,56 -21,105 -62,146 -41,41 -90,61 -147,61 -58,0 -107,-19 -147,-60 -41,-40 -60,-89 -60,-147z"/>
  <polygon class="fil4" points="6501,3154 6501,2915 5811,2915 5811,2508 6444,2508 6444,2269 5811,2269 5811,1918 6486,1918 6486,1679 5546,1679 5546,3154 "/>
  <polygon id="1" class="fil4" points="7034,3154 7034,2227 8040,3209 8040,1679 7775,1679 7775,2610 6770,1624 6770,3154 "/>
  <polygon id="2" class="fil4" points="9320,3154 9320,2915 8630,2915 8630,2508 9263,2508 9263,2269 8630,2269 8630,1918 9305,1918 9305,1679 8366,1679 8366,3154 "/>
  <path id="3" class="fil4" d="M9854 3154l0 -525 258 0 4 0 315 525 299 0 -358 -588c161,-68 269,-227 269,-419 0,-134 -47,-244 -140,-333 -93,-91 -205,-135 -338,-135l-574 0 0 1475 265 0zm0 -1236l302 0c127,0 223,97 223,233 0,142 -100,241 -244,241l-281 0 0 -474z"/>
  <path id="4" class="fil4" d="M11623 1653c-218,0 -404,72 -557,218 -150,146 -226,328 -226,546 0,218 76,401 226,547 153,144 339,215 557,215 244,0 466,-105 603,-277l0 -595 -660 0 0 240 411 0 0 260c-96,89 -214,133 -354,133 -148,0 -273,-48 -372,-148 -100,-99 -149,-224 -149,-375 0,-150 49,-275 149,-374 99,-100 224,-150 372,-150 174,0 322,52 447,158l0 -266c-127,-87 -275,-132 -447,-132z"/>
  <polygon id="5" class="fil4" points="13065,3154 13065,2583 13596,1679 13312,1679 12935,2329 12557,1679 12271,1679 12802,2583 12802,3154 "/>
  <polygon id="6" class="fil5 str1" points="6501,3154 6501,2915 5811,2915 5811,2508 6444,2508 6444,2269 5811,2269 5811,1918 6486,1918 6486,1679 5546,1679 5546,3154 "/>
  <polygon id="7" class="fil5 str1" points="7034,3154 7034,2227 8040,3209 8040,1679 7775,1679 7775,2610 6770,1624 6770,3154 "/>
  <polygon id="8" class="fil5 str1" points="9320,3154 9320,2915 8630,2915 8630,2508 9263,2508 9263,2269 8630,2269 8630,1918 9305,1918 9305,1679 8366,1679 8366,3154 "/>
  <path id="9" class="fil5 str1" d="M9854 3154l0 -525 258 0 4 0 315 525 299 0 -358 -588c161,-68 269,-227 269,-419 0,-134 -47,-244 -140,-333 -93,-91 -205,-135 -338,-135l-574 0 0 1475 265 0zm0 -1236l302 0c127,0 223,97 223,233 0,142 -100,241 -244,241l-281 0 0 -474z"/>
  <path id="10" class="fil5 str1" d="M11623 1653c-218,0 -404,72 -557,218 -150,146 -226,328 -226,546 0,218 76,401 226,547 153,144 339,215 557,215 244,0 466,-105 603,-277l0 -595 -660 0 0 240 411 0 0 260c-96,89 -214,133 -354,133 -148,0 -273,-48 -372,-148 -100,-99 -149,-224 -149,-375 0,-150 49,-275 149,-374 99,-100 224,-150 372,-150 174,0 322,52 447,158l0 -266c-127,-87 -275,-132 -447,-132z"/>
  <polygon id="11" class="fil5 str1" points="13065,3154 13065,2583 13596,1679 13312,1679 12935,2329 12557,1679 12271,1679 12802,2583 12802,3154 "/>
 </g>
</svg>
