<?xml version="1.0" encoding="UTF-8"?>
<!DOCTYPE svg PUBLIC "-//W3C//DTD SVG 1.1//EN" "http://www.w3.org/Graphics/SVG/1.1/DTD/svg11.dtd">
<!-- Creator: CorelDRAW X8 -->
<svg xmlns="http://www.w3.org/2000/svg" xml:space="preserve" width="209mm" height="52mm" version="1.1" style="shape-rendering:geometricPrecision; text-rendering:geometricPrecision; image-rendering:optimizeQuality; fill-rule:evenodd; clip-rule:evenodd"
viewBox="0 0 20900 5200"
 xmlns:xlink="http://www.w3.org/1999/xlink">
 <defs>
  <style type="text/css">
   <![CDATA[
    .str0 {stroke:#848688;stroke-width:20}
    .str1 {stroke:#848688;stroke-width:7.62}
    .fil3 {fill:none;fill-rule:nonzero}
    .fil0 {fill:#D4D3D3}
    .fil2 {fill:#848688;fill-rule:nonzero}
    .fil1 {fill:url(#id0)}
   ]]>
  </style>
  <linearGradient id="id0" gradientUnits="userSpaceOnUse" x1="96.21" y1="2600" x2="4969.76" y2="2600">
   <stop offset="0" style="stop-opacity:1; stop-color:#545454"/>
   <stop offset="1" style="stop-opacity:1; stop-color:#D4D3D3"/>
  </linearGradient>
 </defs>
 <g id="Capa_x0020_1">
  <metadata id="CorelCorpID_0Corel-Layer"/>
  <path class="fil0" d="M5004 1906c107,398 102,704 102,704 0,0 0,2495 0,2495 0,0 -771,0 -1468,0 -2,-529 91,-1704 835,-2618 0,0 -657,1135 -648,2210 0,0 843,-198 981,-919 113,-591 -83,-1343 198,-1872z"/>
  <path class="fil1" d="M2907 5105c-210,-141 -366,-313 -366,-313 -3288,-391 -2003,-4302 -2003,-4302 189,991 1286,1457 2069,2136 783,679 222,1884 222,1884 -1229,-889 -1970,-2586 -1970,-2586 431,1665 1734,2757 2334,3181 91,0 189,0 291,0 13,-247 60,-453 60,-453 -973,-1714 825,-2638 1426,-2889 -231,-727 -825,-1668 -2359,-1668 -2506,0 -2515,0 -2515,0 0,0 0,10 0,2515 0,2505 2930,2495 2515,2495 53,0 158,0 296,0z"/>
  <polygon class="fil2" points="6083,4358 6083,4212 5816,4212 6096,3768 5608,3768 5608,3913 5838,3913 5551,4358 "/>
  <path id="1" class="fil2" d="M6761 4065c0,-85 -32,-157 -96,-216 -63,-60 -140,-90 -230,-90 -91,0 -167,30 -231,90 -63,60 -94,132 -94,216 0,84 31,156 94,216 64,59 140,89 231,89 90,0 167,-30 230,-89 64,-60 96,-132 96,-216zm-487 0c0,-44 16,-82 47,-114 32,-32 70,-48 114,-48 44,0 82,16 113,48 32,33 48,71 48,114 0,43 -16,81 -48,113 -31,32 -69,48 -113,48 -45,0 -83,-16 -115,-47 -31,-31 -46,-69 -46,-114z"/>
  <polygon id="2" class="fil2" points="6988,4358 6988,4060 7380,4382 7380,3768 7226,3768 7226,4063 6834,3744 6834,4358 "/>
  <path id="3" class="fil2" d="M7595 4358l38 -77 242 0 38 77 168 0 -327 -630 -327 630 168 0zm159 -338l67 136 -134 0 67 -136z"/>
  <path id="4" class="fil2" d="M8104 4319c59,31 131,47 215,47 166,0 246,-72 246,-187 0,-44 -11,-79 -32,-105 -21,-26 -61,-47 -118,-65 -7,-3 -19,-6 -39,-11l-43 -12c-9,-3 -21,-8 -34,-13 -26,-11 -37,-24 -37,-39 0,-21 27,-32 82,-32 68,0 124,16 168,47l0 -150c-49,-26 -108,-40 -176,-40 -63,0 -116,15 -161,47 -44,31 -66,74 -66,129 0,79 42,135 127,166 17,6 43,15 78,25 34,10 59,18 73,26 15,8 21,16 21,27 0,29 -32,43 -95,43 -82,0 -152,-21 -209,-64l0 161z"/>
  <polygon id="5" class="fil2" points="9512,3768 9339,3768 9185,4068 9032,3768 8859,3768 9185,4390 "/>
  <polygon id="6" class="fil2" points="10003,4358 10003,4216 9722,4216 9722,4126 9978,4126 9978,3994 9722,3994 9722,3912 9997,3912 9997,3768 9561,3768 9561,4358 "/>
  <path id="7" class="fil2" d="M10246 4358l0 -184 60 0 1 0 121 184 184 0 -147 -219c61,-28 101,-93 101,-168 0,-57 -21,-104 -62,-144 -42,-40 -92,-59 -150,-59l-268 0 0 590 160 0zm0 -445l104 0c31,0 56,26 56,63 0,44 -27,69 -70,69l-90 0 0 -132z"/>
  <path id="8" class="fil2" d="M10902 4358c102,0 181,-26 234,-80 54,-53 82,-124 82,-214 0,-88 -28,-159 -83,-214 -54,-55 -132,-82 -234,-82l-240 0 0 590 241 0zm-80 -438l69 0c68,0 113,15 136,43 23,28 29,58 29,101 0,44 -6,74 -29,103 -21,30 -68,45 -135,45l-70 0 0 -292z"/>
  <polygon id="9" class="fil2" points="11733,4358 11733,4216 11452,4216 11452,4126 11708,4126 11708,3994 11452,3994 11452,3912 11726,3912 11726,3768 11291,3768 11291,4358 "/>
  <path id="10" class="fil2" d="M11809 4319c58,31 130,47 215,47 165,0 245,-72 245,-187 0,-44 -11,-79 -32,-105 -21,-26 -61,-47 -118,-65 -6,-3 -19,-6 -39,-11l-43 -12c-9,-3 -21,-8 -34,-13 -26,-11 -37,-24 -37,-39 0,-21 27,-32 82,-32 68,0 124,16 169,47l0 -150c-50,-26 -109,-40 -177,-40 -63,0 -116,15 -161,47 -44,31 -66,74 -66,129 0,79 42,135 128,166 17,6 42,15 77,25 34,10 59,18 73,26 15,8 22,16 22,27 0,29 -33,43 -96,43 -82,0 -152,-21 -208,-64l0 161z"/>
  <polygon id="11" class="fil2" points="12945,4358 12945,4149 13167,3768 12995,3768 12865,3997 12736,3768 12563,3768 12786,4149 12786,4358 "/>
  <polygon id="12" class="fil2" points="13881,4358 13881,4212 13657,4212 13657,3768 13496,3768 13496,4358 "/>
  <polygon id="13" class="fil2" points="14111,4358 14111,3768 13950,3768 13950,4358 "/>
  <polygon id="14" class="fil2" points="14360,4358 14360,4091 14534,4267 14708,4091 14708,4358 14857,4358 14857,3745 14534,4067 14211,3745 14211,4358 "/>
  <path id="15" class="fil2" d="M15115 4358l0 -171 116 0c51,0 99,-20 142,-59 43,-40 65,-90 65,-150 0,-68 -30,-126 -72,-159 -41,-34 -90,-51 -135,-51l-277 0 0 590 161 0zm0 -445l108 0c8,0 15,1 31,8 16,7 26,27 26,57 0,28 -10,48 -26,55 -15,6 -22,8 -30,8l-109 0 0 -128z"/>
  <polygon id="16" class="fil2" points="15669,4358 15669,3768 15509,3768 15509,4358 "/>
  <polygon id="17" class="fil2" points="16211,4358 16211,4216 15930,4216 15930,4126 16186,4126 16186,3994 15930,3994 15930,3912 16204,3912 16204,3768 15769,3768 15769,4358 "/>
  <polygon id="18" class="fil2" points="16770,4358 16770,4212 16502,4212 16783,3768 16294,3768 16294,3913 16525,3913 16237,4358 "/>
  <path id="19" class="fil2" d="M16942 4358l38 -77 242 0 38 77 168 0 -327 -630 -327 630 168 0zm159 -338l67 136 -134 0 67 -136z"/>
  <polygon id="20" class="fil2" points="18302,3768 18128,3768 17974,4068 17822,3768 17648,3768 17974,4390 "/>
  <polygon id="21" class="fil2" points="18515,4358 18515,3768 18354,3768 18354,4358 "/>
  <path id="22" class="fil2" d="M18733 4358l39 -77 242 0 38 77 167 0 -326 -630 -327 630 167 0zm160 -338l67 136 -134 0 67 -136z"/>
  <path id="23" class="fil2" d="M19428 4358l0 -184 59 0 2 0 120 184 185 0 -148 -219c61,-28 101,-93 101,-168 0,-57 -20,-104 -62,-144 -41,-40 -91,-59 -150,-59l-268 0 0 590 161 0zm0 -445l103 0c31,0 56,26 56,63 0,44 -26,69 -70,69l-89 0 0 -132z"/>
  <polygon id="24" class="fil2" points="20007,4358 20007,3768 19846,3768 19846,4358 "/>
  <path id="25" class="fil2" d="M20225 4358l38 -77 243 0 38 77 167 0 -327 -630 -326 630 167 0zm159 -338l67 136 -133 0 66 -136z"/>
  <polygon id="26" class="fil3 str0" points="6083,4358 6083,4212 5816,4212 6096,3768 5608,3768 5608,3913 5838,3913 5551,4358 "/>
  <path id="27" class="fil3 str0" d="M6761 4065c0,-85 -32,-157 -96,-216 -63,-60 -140,-90 -230,-90 -91,0 -167,30 -231,90 -63,60 -94,132 -94,216 0,84 31,156 94,216 64,59 140,89 231,89 90,0 167,-30 230,-89 64,-60 96,-132 96,-216zm-487 0c0,-44 16,-82 47,-114 32,-32 70,-48 114,-48 44,0 82,16 113,48 32,33 48,71 48,114 0,43 -16,81 -48,113 -31,32 -69,48 -113,48 -45,0 -83,-16 -115,-47 -31,-31 -46,-69 -46,-114z"/>
  <polygon id="28" class="fil3 str0" points="6988,4358 6988,4060 7380,4382 7380,3768 7226,3768 7226,4063 6834,3744 6834,4358 "/>
  <path id="29" class="fil3 str0" d="M7595 4358l38 -77 242 0 38 77 168 0 -327 -630 -327 630 168 0zm159 -338l67 136 -134 0 67 -136z"/>
  <path id="30" class="fil3 str0" d="M8104 4319c59,31 131,47 215,47 166,0 246,-72 246,-187 0,-44 -11,-79 -32,-105 -21,-26 -61,-47 -118,-65 -7,-3 -19,-6 -39,-11l-43 -12c-9,-3 -21,-8 -34,-13 -26,-11 -37,-24 -37,-39 0,-21 27,-32 82,-32 68,0 124,16 168,47l0 -150c-49,-26 -108,-40 -176,-40 -63,0 -116,15 -161,47 -44,31 -66,74 -66,129 0,79 42,135 127,166 17,6 43,15 78,25 34,10 59,18 73,26 15,8 21,16 21,27 0,29 -32,43 -95,43 -82,0 -152,-21 -209,-64l0 161z"/>
  <polygon id="31" class="fil3 str0" points="9512,3768 9339,3768 9185,4068 9032,3768 8859,3768 9185,4390 "/>
  <polygon id="32" class="fil3 str0" points="10003,4358 10003,4216 9722,4216 9722,4126 9978,4126 9978,3994 9722,3994 9722,3912 9997,3912 9997,3768 9561,3768 9561,4358 "/>
  <path id="33" class="fil3 str0" d="M10246 4358l0 -184 60 0 1 0 121 184 184 0 -147 -219c61,-28 101,-93 101,-168 0,-57 -21,-104 -62,-144 -42,-40 -92,-59 -150,-59l-268 0 0 590 160 0zm0 -445l104 0c31,0 56,26 56,63 0,44 -27,69 -70,69l-90 0 0 -132z"/>
  <path id="34" class="fil3 str0" d="M10902 4358c102,0 181,-26 234,-80 54,-53 82,-124 82,-214 0,-88 -28,-159 -83,-214 -54,-55 -132,-82 -234,-82l-240 0 0 590 241 0zm-80 -438l69 0c68,0 113,15 136,43 23,28 29,58 29,101 0,44 -6,74 -29,103 -21,30 -68,45 -135,45l-70 0 0 -292z"/>
  <polygon id="35" class="fil3 str0" points="11733,4358 11733,4216 11452,4216 11452,4126 11708,4126 11708,3994 11452,3994 11452,3912 11726,3912 11726,3768 11291,3768 11291,4358 "/>
  <path id="36" class="fil3 str0" d="M11809 4319c58,31 130,47 215,47 165,0 245,-72 245,-187 0,-44 -11,-79 -32,-105 -21,-26 -61,-47 -118,-65 -6,-3 -19,-6 -39,-11l-43 -12c-9,-3 -21,-8 -34,-13 -26,-11 -37,-24 -37,-39 0,-21 27,-32 82,-32 68,0 124,16 169,47l0 -150c-50,-26 -109,-40 -177,-40 -63,0 -116,15 -161,47 -44,31 -66,74 -66,129 0,79 42,135 128,166 17,6 42,15 77,25 34,10 59,18 73,26 15,8 22,16 22,27 0,29 -33,43 -96,43 -82,0 -152,-21 -208,-64l0 161z"/>
  <polygon id="37" class="fil3 str0" points="12945,4358 12945,4149 13167,3768 12995,3768 12865,3997 12736,3768 12563,3768 12786,4149 12786,4358 "/>
  <polygon id="38" class="fil3 str0" points="13881,4358 13881,4212 13657,4212 13657,3768 13496,3768 13496,4358 "/>
  <polygon id="39" class="fil3 str0" points="14111,4358 14111,3768 13950,3768 13950,4358 "/>
  <polygon id="40" class="fil3 str0" points="14360,4358 14360,4091 14534,4267 14708,4091 14708,4358 14857,4358 14857,3745 14534,4067 14211,3745 14211,4358 "/>
  <path id="41" class="fil3 str0" d="M15115 4358l0 -171 116 0c51,0 99,-20 142,-59 43,-40 65,-90 65,-150 0,-68 -30,-126 -72,-159 -41,-34 -90,-51 -135,-51l-277 0 0 590 161 0zm0 -445l108 0c8,0 15,1 31,8 16,7 26,27 26,57 0,28 -10,48 -26,55 -15,6 -22,8 -30,8l-109 0 0 -128z"/>
  <polygon id="42" class="fil3 str0" points="15669,4358 15669,3768 15509,3768 15509,4358 "/>
  <polygon id="43" class="fil3 str0" points="16211,4358 16211,4216 15930,4216 15930,4126 16186,4126 16186,3994 15930,3994 15930,3912 16204,3912 16204,3768 15769,3768 15769,4358 "/>
  <polygon id="44" class="fil3 str0" points="16770,4358 16770,4212 16502,4212 16783,3768 16294,3768 16294,3913 16525,3913 16237,4358 "/>
  <path id="45" class="fil3 str0" d="M16942 4358l38 -77 242 0 38 77 168 0 -327 -630 -327 630 168 0zm159 -338l67 136 -134 0 67 -136z"/>
  <polygon id="46" class="fil3 str0" points="18302,3768 18128,3768 17974,4068 17822,3768 17648,3768 17974,4390 "/>
  <polygon id="47" class="fil3 str0" points="18515,4358 18515,3768 18354,3768 18354,4358 "/>
  <path id="48" class="fil3 str0" d="M18733 4358l39 -77 242 0 38 77 167 0 -326 -630 -327 630 167 0zm160 -338l67 136 -134 0 67 -136z"/>
  <path id="49" class="fil3 str0" d="M19428 4358l0 -184 59 0 2 0 120 184 185 0 -148 -219c61,-28 101,-93 101,-168 0,-57 -20,-104 -62,-144 -41,-40 -91,-59 -150,-59l-268 0 0 590 161 0zm0 -445l103 0c31,0 56,26 56,63 0,44 -26,69 -70,69l-89 0 0 -132z"/>
  <polygon id="50" class="fil3 str0" points="20007,4358 20007,3768 19846,3768 19846,4358 "/>
  <path id="51" class="fil3 str0" d="M20225 4358l38 -77 243 0 38 77 167 0 -327 -630 -326 630 167 0zm159 -338l67 136 -133 0 66 -136z"/>
  <polygon class="fil2" points="6569,3175 6569,2936 5879,2936 5879,2529 6512,2529 6512,2290 5879,2290 5879,1939 6554,1939 6554,1700 5615,1700 5615,3175 "/>
  <polygon id="1" class="fil2" points="7103,3175 7103,2248 8108,3230 8108,1700 7843,1700 7843,2631 6838,1645 6838,3175 "/>
  <polygon id="2" class="fil2" points="9736,1700 9454,1700 9025,2661 8597,1700 8315,1700 9025,3238 "/>
  <polygon id="3" class="fil2" points="10216,3175 10216,1700 9952,1700 9952,3175 "/>
  <path id="4" class="fil2" d="M10817 3175l0 -525 259 0 4 0 315 525 299 0 -358 -588c161,-68 269,-227 269,-420 0,-133 -47,-243 -140,-332 -93,-91 -205,-135 -339,-135l-573 0 0 1475 264 0zm0 -1236l303 0c127,0 222,97 222,233 0,141 -99,241 -243,241l-282 0 0 -474z"/>
  <path id="5" class="fil2" d="M12583 3205c218,0 404,-74 554,-221 150,-146 227,-328 227,-544 0,-215 -77,-397 -229,-544 -150,-148 -334,-222 -552,-222 -218,0 -403,74 -553,222 -150,147 -226,329 -226,544 0,216 76,398 226,544 150,147 335,221 553,221zm-519 -765c0,-148 49,-273 148,-374 100,-102 225,-153 371,-153 146,0 268,51 368,153 99,101 150,226 150,374 0,149 -51,274 -150,375 -100,100 -222,150 -368,150 -146,0 -271,-50 -371,-150 -99,-99 -148,-224 -148,-375z"/>
  <polygon id="6" class="fil2" points="13874,3175 13874,2248 14879,3230 14879,1700 14615,1700 14615,2631 13609,1645 13609,3175 "/>
  <polygon id="7" class="fil2" points="15466,3175 15466,2339 15959,2940 16452,2339 16452,3175 16712,3175 16712,1651 15959,2563 15205,1651 15205,3175 "/>
  <polygon id="8" class="fil2" points="17995,3175 17995,2936 17305,2936 17305,2529 17938,2529 17938,2290 17305,2290 17305,1939 17980,1939 17980,1700 17040,1700 17040,3175 "/>
  <polygon id="9" class="fil2" points="18528,3175 18528,2248 19534,3230 19534,1700 19269,1700 19269,2631 18264,1645 18264,3175 "/>
  <polygon id="10" class="fil2" points="20404,3175 20404,1939 20804,1939 20804,1700 19739,1700 19739,1939 20139,1939 20139,3175 "/>
  <polygon id="11" class="fil3 str1" points="6569,3175 6569,2936 5879,2936 5879,2529 6512,2529 6512,2290 5879,2290 5879,1939 6554,1939 6554,1700 5615,1700 5615,3175 "/>
  <polygon id="12" class="fil3 str1" points="7103,3175 7103,2248 8108,3230 8108,1700 7843,1700 7843,2631 6838,1645 6838,3175 "/>
  <polygon id="13" class="fil3 str1" points="9736,1700 9454,1700 9025,2661 8597,1700 8315,1700 9025,3238 "/>
  <polygon id="14" class="fil3 str1" points="10216,3175 10216,1700 9952,1700 9952,3175 "/>
  <path id="15" class="fil3 str1" d="M10817 3175l0 -525 259 0 4 0 315 525 299 0 -358 -588c161,-68 269,-227 269,-420 0,-133 -47,-243 -140,-332 -93,-91 -205,-135 -339,-135l-573 0 0 1475 264 0zm0 -1236l303 0c127,0 222,97 222,233 0,141 -99,241 -243,241l-282 0 0 -474z"/>
  <path id="16" class="fil3 str1" d="M12583 3205c218,0 404,-74 554,-221 150,-146 227,-328 227,-544 0,-215 -77,-397 -229,-544 -150,-148 -334,-222 -552,-222 -218,0 -403,74 -553,222 -150,147 -226,329 -226,544 0,216 76,398 226,544 150,147 335,221 553,221zm-519 -765c0,-148 49,-273 148,-374 100,-102 225,-153 371,-153 146,0 268,51 368,153 99,101 150,226 150,374 0,149 -51,274 -150,375 -100,100 -222,150 -368,150 -146,0 -271,-50 -371,-150 -99,-99 -148,-224 -148,-375z"/>
  <polygon id="17" class="fil3 str1" points="13874,3175 13874,2248 14879,3230 14879,1700 14615,1700 14615,2631 13609,1645 13609,3175 "/>
  <polygon id="18" class="fil3 str1" points="15466,3175 15466,2339 15959,2940 16452,2339 16452,3175 16712,3175 16712,1651 15959,2563 15205,1651 15205,3175 "/>
  <polygon id="19" class="fil3 str1" points="17995,3175 17995,2936 17305,2936 17305,2529 17938,2529 17938,2290 17305,2290 17305,1939 17980,1939 17980,1700 17040,1700 17040,3175 "/>
  <polygon id="20" class="fil3 str1" points="18528,3175 18528,2248 19534,3230 19534,1700 19269,1700 19269,2631 18264,1645 18264,3175 "/>
  <polygon id="21" class="fil3 str1" points="20404,3175 20404,1939 20804,1939 20804,1700 19739,1700 19739,1939 20139,1939 20139,3175 "/>
 </g>
</svg>
