<?xml version="1.0" encoding="UTF-8"?>
<!DOCTYPE svg PUBLIC "-//W3C//DTD SVG 1.1//EN" "http://www.w3.org/Graphics/SVG/1.1/DTD/svg11.dtd">
<!-- Creator: CorelDRAW X8 -->
<svg xmlns="http://www.w3.org/2000/svg" xml:space="preserve" width="192mm" height="52mm" version="1.1" style="shape-rendering:geometricPrecision; text-rendering:geometricPrecision; image-rendering:optimizeQuality; fill-rule:evenodd; clip-rule:evenodd"
viewBox="0 0 19200 5200"
 xmlns:xlink="http://www.w3.org/1999/xlink">
 <defs>
  <style type="text/css">
   <![CDATA[
    .str0 {stroke:#303030;stroke-width:20}
    .str1 {stroke:#303030;stroke-width:7.62}
    .fil2 {fill:none;fill-rule:nonzero}
    .fil1 {fill:#303030;fill-rule:nonzero}
    .fil3 {fill:#303030;fill-rule:nonzero}
    .fil0 {fill:url(#id0)}
   ]]>
  </style>
  <linearGradient id="id0" gradientUnits="userSpaceOnUse" x1="72" y1="2599.99" x2="5088.8" y2="2599.99">
   <stop offset="0" style="stop-opacity:1; stop-color:#7A2627"/>
   <stop offset="1" style="stop-opacity:1; stop-color:#D93135"/>
  </linearGradient>
 </defs>
 <g id="Capa_x0020_1">
  <metadata id="CorelCorpID_0Corel-Layer"/>
  <path class="fil0" d="M5089 87l-2585 0c-1338,0 -2432,1094 -2432,2432l0 2594 2435 0c1395,0 2541,-1121 2581,-2507 -1026,1974 -2705,323 -4960,2399l0 -2380 53 0 0 -367 122 0 0 -99 164 0 0 -452 120 -206 0 -171 19 0 0 -101 40 0 0 105 22 0 0 170 59 139 88 -152 274 0 38 71 227 0 165 -95 83 -383 162 0 0 -98 75 0 0 -276 38 0 0 276 43 0 0 -274 42 0 0 1523 301 0 0 -379 186 0 0 -178 351 0 0 181 213 0 0 1118 65 0 0 -190 253 0 0 -185 36 0 0 -129 123 0 0 -127 28 0 0 -86 163 0 0 79 29 0 0 134 239 0 0 127 88 0 0 247 46 0 0 -372 34 -9 0 -284 51 0 0 -63 36 -78 38 141 70 0 0 187 580 0 0 54 197 0 0 -2336z"/>
  <path class="fil1" d="M5555 4295c76,40 169,61 278,61 213,0 317,-93 317,-241 0,-57 -14,-102 -42,-136 -27,-34 -78,-61 -152,-84 -8,-3 -25,-8 -50,-14l-56 -15c-12,-5 -27,-10 -43,-18 -34,-14 -48,-30 -48,-49 0,-27 35,-42 106,-42 87,0 159,20 217,61l0 -194c-64,-34 -140,-51 -228,-51 -81,0 -150,19 -208,60 -57,40 -85,96 -85,167 0,102 55,174 165,214 22,8 55,19 99,32 45,13 77,24 95,34 19,10 28,21 28,35 0,37 -42,55 -124,55 -106,0 -195,-27 -269,-83l0 208z"/>
  <polygon id="1" class="fil1" points="6800,4345 6800,4162 6437,4162 6437,4046 6767,4046 6767,3875 6437,3875 6437,3771 6791,3771 6791,3584 6230,3584 6230,4345 "/>
  <path id="2" class="fil1" d="M7114 4345l0 -237 76 0 2 0 155 237 239 0 -191 -282c79,-36 130,-120 130,-217 0,-73 -26,-134 -79,-186 -54,-51 -118,-76 -194,-76l-346 0 0 761 208 0zm0 -573l133 0c40,0 72,32 72,81 0,56 -34,89 -90,89l-115 0 0 -170z"/>
  <polygon id="3" class="fil1" points="8366,3584 8142,3584 7943,3972 7746,3584 7522,3584 7943,4387 "/>
  <polygon id="4" class="fil1" points="8641,4345 8641,3584 8433,3584 8433,4345 "/>
  <path id="5" class="fil1" d="M9156 3573c-116,0 -215,37 -295,112 -80,75 -121,168 -121,280 0,113 41,205 121,280 80,74 179,111 295,111 88,0 166,-26 233,-77l0 -213c-68,70 -146,104 -233,104 -58,0 -107,-19 -148,-57 -40,-40 -60,-89 -60,-148 0,-59 20,-108 60,-147 41,-40 90,-59 148,-59 87,0 165,35 233,104l0 -213c-67,-51 -145,-77 -233,-77z"/>
  <polygon id="6" class="fil1" points="9718,4345 9718,3584 9511,3584 9511,4345 "/>
  <path id="7" class="fil1" d="M10658 3967c0,-109 -42,-202 -123,-278 -82,-78 -181,-116 -298,-116 -117,0 -215,38 -297,116 -82,77 -122,170 -122,278 0,108 40,201 122,279 82,76 180,115 297,115 117,0 216,-39 298,-115 81,-78 123,-171 123,-279zm-628 0c0,-57 21,-106 61,-146 40,-42 90,-62 146,-62 57,0 106,20 147,62 41,41 62,91 62,146 0,56 -21,105 -62,147 -41,40 -90,61 -147,61 -58,0 -107,-20 -147,-60 -41,-41 -60,-90 -60,-148z"/>
  <path id="8" class="fil1" d="M10722 4295c76,40 169,61 278,61 213,0 317,-93 317,-241 0,-57 -14,-102 -42,-136 -27,-34 -78,-61 -152,-84 -8,-3 -25,-8 -50,-14l-56 -15c-12,-5 -27,-10 -43,-18 -34,-14 -48,-30 -48,-49 0,-27 35,-42 106,-42 87,0 159,20 217,61l0 -194c-64,-34 -140,-51 -228,-51 -81,0 -150,19 -208,60 -57,40 -85,96 -85,167 0,102 55,174 165,214 22,8 55,19 99,32 45,13 77,24 95,34 19,10 28,21 28,35 0,37 -42,55 -124,55 -106,0 -195,-27 -269,-83l0 208z"/>
  <polygon id="9" class="fil1" points="12027,4345 12027,4001 12251,4228 12475,4001 12475,4345 12668,4345 12668,3554 12251,3971 11834,3554 11834,4345 "/>
  <path id="10" class="fil1" d="M12784 4017c0,111 33,195 97,253 65,58 147,86 245,86 99,0 181,-28 245,-86 64,-58 97,-142 97,-253l0 -433 -207 0 0 412c0,125 -48,172 -135,172 -86,0 -134,-47 -134,-172l0 -412 -208 0 0 433z"/>
  <polygon id="11" class="fil1" points="13783,4345 13783,3961 14288,4376 14288,3584 14089,3584 14089,3965 13584,3553 13584,4345 "/>
  <polygon id="12" class="fil1" points="14624,4345 14624,3584 14417,3584 14417,4345 "/>
  <path id="13" class="fil1" d="M15139 3573c-116,0 -214,37 -295,112 -80,75 -120,168 -120,280 0,113 40,205 120,280 81,74 179,111 295,111 88,0 166,-26 234,-77l0 -213c-69,70 -147,104 -234,104 -58,0 -107,-19 -148,-57 -40,-40 -60,-89 -60,-148 0,-59 20,-108 60,-147 41,-40 90,-59 148,-59 87,0 165,35 234,104l0 -213c-68,-51 -146,-77 -234,-77z"/>
  <polygon id="14" class="fil1" points="15702,4345 15702,3584 15494,3584 15494,4345 "/>
  <path id="15" class="fil1" d="M16038 4345l0 -220 150 0c66,0 128,-26 183,-77 56,-51 84,-116 84,-193 0,-88 -39,-162 -92,-205 -54,-43 -117,-66 -175,-66l-358 0 0 761 208 0zm0 -573l140 0c10,0 19,1 39,9 21,9 34,35 34,74 0,36 -13,62 -34,71 -18,8 -28,11 -38,11l-141 0 0 -165z"/>
  <path id="16" class="fil1" d="M16596 4345l50 -99 312 0 49 99 217 0 -422 -813 -422 813 216 0zm206 -436l86 176 -172 0 86 -176z"/>
  <polygon id="17" class="fil1" points="17782,4345 17782,4157 17492,4157 17492,3584 17285,3584 17285,4345 "/>
  <polygon id="18" class="fil1" points="18436,4345 18436,4162 18074,4162 18074,4046 18404,4046 18404,3875 18074,3875 18074,3771 18428,3771 18428,3584 17866,3584 17866,4345 "/>
  <path id="19" class="fil1" d="M18534 4295c75,40 168,61 277,61 213,0 317,-93 317,-241 0,-57 -14,-102 -42,-136 -27,-34 -78,-61 -151,-84 -9,-3 -26,-8 -51,-14l-55 -15c-12,-5 -28,-10 -44,-18 -34,-14 -48,-30 -48,-49 0,-27 35,-42 106,-42 87,0 159,20 217,61l0 -194c-64,-34 -140,-51 -228,-51 -81,0 -150,19 -208,60 -57,40 -85,96 -85,167 0,102 55,174 165,214 22,8 55,19 100,32 44,13 76,24 95,34 18,10 27,21 27,35 0,37 -42,55 -124,55 -106,0 -195,-27 -268,-83l0 208z"/>
  <path id="20" class="fil2 str0" d="M5555 4295c76,40 169,61 278,61 213,0 317,-93 317,-241 0,-57 -14,-102 -42,-136 -27,-34 -78,-61 -152,-84 -8,-3 -25,-8 -50,-14l-56 -15c-12,-5 -27,-10 -43,-18 -34,-14 -48,-30 -48,-49 0,-27 35,-42 106,-42 87,0 159,20 217,61l0 -194c-64,-34 -140,-51 -228,-51 -81,0 -150,19 -208,60 -57,40 -85,96 -85,167 0,102 55,174 165,214 22,8 55,19 99,32 45,13 77,24 95,34 19,10 28,21 28,35 0,37 -42,55 -124,55 -106,0 -195,-27 -269,-83l0 208z"/>
  <polygon id="21" class="fil2 str0" points="6800,4345 6800,4162 6437,4162 6437,4046 6767,4046 6767,3875 6437,3875 6437,3771 6791,3771 6791,3584 6230,3584 6230,4345 "/>
  <path id="22" class="fil2 str0" d="M7114 4345l0 -237 76 0 2 0 155 237 239 0 -191 -282c79,-36 130,-120 130,-217 0,-73 -26,-134 -79,-186 -54,-51 -118,-76 -194,-76l-346 0 0 761 208 0zm0 -573l133 0c40,0 72,32 72,81 0,56 -34,89 -90,89l-115 0 0 -170z"/>
  <polygon id="23" class="fil2 str0" points="8366,3584 8142,3584 7943,3972 7746,3584 7522,3584 7943,4387 "/>
  <polygon id="24" class="fil2 str0" points="8641,4345 8641,3584 8433,3584 8433,4345 "/>
  <path id="25" class="fil2 str0" d="M9156 3573c-116,0 -215,37 -295,112 -80,75 -121,168 -121,280 0,113 41,205 121,280 80,74 179,111 295,111 88,0 166,-26 233,-77l0 -213c-68,70 -146,104 -233,104 -58,0 -107,-19 -148,-57 -40,-40 -60,-89 -60,-148 0,-59 20,-108 60,-147 41,-40 90,-59 148,-59 87,0 165,35 233,104l0 -213c-67,-51 -145,-77 -233,-77z"/>
  <polygon id="26" class="fil2 str0" points="9718,4345 9718,3584 9511,3584 9511,4345 "/>
  <path id="27" class="fil2 str0" d="M10658 3967c0,-109 -42,-202 -123,-278 -82,-78 -181,-116 -298,-116 -117,0 -215,38 -297,116 -82,77 -122,170 -122,278 0,108 40,201 122,279 82,76 180,115 297,115 117,0 216,-39 298,-115 81,-78 123,-171 123,-279zm-628 0c0,-57 21,-106 61,-146 40,-42 90,-62 146,-62 57,0 106,20 147,62 41,41 62,91 62,146 0,56 -21,105 -62,147 -41,40 -90,61 -147,61 -58,0 -107,-20 -147,-60 -41,-41 -60,-90 -60,-148z"/>
  <path id="28" class="fil2 str0" d="M10722 4295c76,40 169,61 278,61 213,0 317,-93 317,-241 0,-57 -14,-102 -42,-136 -27,-34 -78,-61 -152,-84 -8,-3 -25,-8 -50,-14l-56 -15c-12,-5 -27,-10 -43,-18 -34,-14 -48,-30 -48,-49 0,-27 35,-42 106,-42 87,0 159,20 217,61l0 -194c-64,-34 -140,-51 -228,-51 -81,0 -150,19 -208,60 -57,40 -85,96 -85,167 0,102 55,174 165,214 22,8 55,19 99,32 45,13 77,24 95,34 19,10 28,21 28,35 0,37 -42,55 -124,55 -106,0 -195,-27 -269,-83l0 208z"/>
  <polygon id="29" class="fil2 str0" points="12027,4345 12027,4001 12251,4228 12475,4001 12475,4345 12668,4345 12668,3554 12251,3971 11834,3554 11834,4345 "/>
  <path id="30" class="fil2 str0" d="M12784 4017c0,111 33,195 97,253 65,58 147,86 245,86 99,0 181,-28 245,-86 64,-58 97,-142 97,-253l0 -433 -207 0 0 412c0,125 -48,172 -135,172 -86,0 -134,-47 -134,-172l0 -412 -208 0 0 433z"/>
  <polygon id="31" class="fil2 str0" points="13783,4345 13783,3961 14288,4376 14288,3584 14089,3584 14089,3965 13584,3553 13584,4345 "/>
  <polygon id="32" class="fil2 str0" points="14624,4345 14624,3584 14417,3584 14417,4345 "/>
  <path id="33" class="fil2 str0" d="M15139 3573c-116,0 -214,37 -295,112 -80,75 -120,168 -120,280 0,113 40,205 120,280 81,74 179,111 295,111 88,0 166,-26 234,-77l0 -213c-69,70 -147,104 -234,104 -58,0 -107,-19 -148,-57 -40,-40 -60,-89 -60,-148 0,-59 20,-108 60,-147 41,-40 90,-59 148,-59 87,0 165,35 234,104l0 -213c-68,-51 -146,-77 -234,-77z"/>
  <polygon id="34" class="fil2 str0" points="15702,4345 15702,3584 15494,3584 15494,4345 "/>
  <path id="35" class="fil2 str0" d="M16038 4345l0 -220 150 0c66,0 128,-26 183,-77 56,-51 84,-116 84,-193 0,-88 -39,-162 -92,-205 -54,-43 -117,-66 -175,-66l-358 0 0 761 208 0zm0 -573l140 0c10,0 19,1 39,9 21,9 34,35 34,74 0,36 -13,62 -34,71 -18,8 -28,11 -38,11l-141 0 0 -165z"/>
  <path id="36" class="fil2 str0" d="M16596 4345l50 -99 312 0 49 99 217 0 -422 -813 -422 813 216 0zm206 -436l86 176 -172 0 86 -176z"/>
  <polygon id="37" class="fil2 str0" points="17782,4345 17782,4157 17492,4157 17492,3584 17285,3584 17285,4345 "/>
  <polygon id="38" class="fil2 str0" points="18436,4345 18436,4162 18074,4162 18074,4046 18404,4046 18404,3875 18074,3875 18074,3771 18428,3771 18428,3584 17866,3584 17866,4345 "/>
  <path id="39" class="fil2 str0" d="M18534 4295c75,40 168,61 277,61 213,0 317,-93 317,-241 0,-57 -14,-102 -42,-136 -27,-34 -78,-61 -151,-84 -9,-3 -26,-8 -51,-14l-55 -15c-12,-5 -28,-10 -44,-18 -34,-14 -48,-30 -48,-49 0,-27 35,-42 106,-42 87,0 159,20 217,61l0 -194c-64,-34 -140,-51 -228,-51 -81,0 -150,19 -208,60 -57,40 -85,96 -85,167 0,102 55,174 165,214 22,8 55,19 100,32 44,13 76,24 95,34 18,10 27,21 27,35 0,37 -42,55 -124,55 -106,0 -195,-27 -268,-83l0 208z"/>
  <path class="fil3" d="M5529 2597c0,189 55,335 167,436 112,102 256,153 432,153 175,0 317,-51 429,-153 112,-101 167,-247 167,-436l0 -910 -264 0 0 883c0,254 -127,377 -332,377 -210,0 -335,-123 -335,-377l0 -883 -264 0 0 910z"/>
  <path id="1" class="fil3" d="M7304 3162l0 -524 259 0 4 0 315 524 299 0 -358 -588c161,-68 269,-226 269,-419 0,-133 -47,-244 -140,-332 -93,-91 -205,-136 -339,-136l-573 0 0 1475 264 0zm0 -1236l303 0c127,0 222,98 222,233 0,142 -99,241 -243,241l-282 0 0 -474z"/>
  <path id="2" class="fil3" d="M8991 3162c130,0 235,-40 320,-122 87,-83 129,-189 129,-314 0,-188 -108,-332 -296,-366 118,-44 188,-154 188,-296 0,-108 -40,-199 -120,-269 -79,-72 -176,-108 -293,-108l-533 0 0 1475 605 0zm-340 -1236l235 0c110,0 188,74 188,174 0,108 -78,182 -191,182l-232 0 0 -356zm0 578l294 0c135,0 233,89 233,208 0,120 -98,211 -231,211l-296 0 0 -419z"/>
  <path id="3" class="fil3" d="M9813 3162l131 -285 635 0 131 285 282 0 -728 -1547 -731 1547 280 0zm448 -994l218 480 -436 0 218 -480z"/>
  <polygon id="4" class="fil3" points="11462,3162 11462,2235 12467,3217 12467,1687 12202,1687 12202,2618 11197,1632 11197,3162 "/>
  <path id="5" class="fil2 str1" d="M5529 2597c0,189 55,335 167,436 112,102 256,153 432,153 175,0 317,-51 429,-153 112,-101 167,-247 167,-436l0 -910 -264 0 0 883c0,254 -127,377 -332,377 -210,0 -335,-123 -335,-377l0 -883 -264 0 0 910z"/>
  <path id="6" class="fil2 str1" d="M7304 3162l0 -524 259 0 4 0 315 524 299 0 -358 -588c161,-68 269,-226 269,-419 0,-133 -47,-244 -140,-332 -93,-91 -205,-136 -339,-136l-573 0 0 1475 264 0zm0 -1236l303 0c127,0 222,98 222,233 0,142 -99,241 -243,241l-282 0 0 -474z"/>
  <path id="7" class="fil2 str1" d="M8991 3162c130,0 235,-40 320,-122 87,-83 129,-189 129,-314 0,-188 -108,-332 -296,-366 118,-44 188,-154 188,-296 0,-108 -40,-199 -120,-269 -79,-72 -176,-108 -293,-108l-533 0 0 1475 605 0zm-340 -1236l235 0c110,0 188,74 188,174 0,108 -78,182 -191,182l-232 0 0 -356zm0 578l294 0c135,0 233,89 233,208 0,120 -98,211 -231,211l-296 0 0 -419z"/>
  <path id="8" class="fil2 str1" d="M9813 3162l131 -285 635 0 131 285 282 0 -728 -1547 -731 1547 280 0zm448 -994l218 480 -436 0 218 -480z"/>
  <polygon id="9" class="fil2 str1" points="11462,3162 11462,2235 12467,3217 12467,1687 12202,1687 12202,2618 11197,1632 11197,3162 "/>
 </g>
</svg>
