<?xml version="1.0" encoding="UTF-8"?>
<!DOCTYPE svg PUBLIC "-//W3C//DTD SVG 1.1//EN" "http://www.w3.org/Graphics/SVG/1.1/DTD/svg11.dtd">
<!-- Creator: CorelDRAW X8 -->
<svg xmlns="http://www.w3.org/2000/svg" xml:space="preserve" width="209mm" height="52mm" version="1.1" style="shape-rendering:geometricPrecision; text-rendering:geometricPrecision; image-rendering:optimizeQuality; fill-rule:evenodd; clip-rule:evenodd"
viewBox="0 0 20900 5200"
 xmlns:xlink="http://www.w3.org/1999/xlink">
 <defs>
  <style type="text/css">
   <![CDATA[
    .str0 {stroke:#303030;stroke-width:20}
    .str1 {stroke:#303030;stroke-width:7.62}
    .fil2 {fill:none;fill-rule:nonzero}
    .fil1 {fill:#303030;fill-rule:nonzero}
    .fil3 {fill:#303030;fill-rule:nonzero}
    .fil0 {fill:url(#id0)}
   ]]>
  </style>
  <linearGradient id="id0" gradientUnits="userSpaceOnUse" x1="145.58" y1="2600" x2="5155.02" y2="2600">
   <stop offset="0" style="stop-opacity:1; stop-color:#5EC1CF"/>
   <stop offset="1" style="stop-opacity:1; stop-color:#2AAAE1"/>
  </linearGradient>
 </defs>
 <g id="Capa_x0020_1">
  <metadata id="CorelCorpID_0Corel-Layer"/>
  <g id="_1613898361328">
   <path class="fil0" d="M2656 95c-2507,0 -2510,2491 -2510,2491 0,0 0,2519 0,2519 0,0 2186,0 2510,0 -127,0 58,-7 376,-79 -178,10 -361,-20 -537,-91 -644,-258 -956,-990 -698,-1634 41,-102 95,-197 158,-282 74,-116 170,-226 291,-324 940,-759 2235,-1258 2495,-2405 0,0 859,2954 -771,4299 -98,81 -163,137 -349,246 -2,1 -7,2 -9,3 713,-290 1543,-914 1543,-2252 0,-2504 0,-2491 0,-2491 0,0 7,0 -2499,0zm83 1466c-10,61 -27,120 -51,174 -26,73 -64,145 -118,214 -416,536 -1061,975 -1056,1635 0,0 -849,-1506 -129,-2450 43,-57 72,-96 160,-179 10,-11 21,-21 33,-31 3,-3 6,-6 9,-9 4,-3 8,-7 13,-10 149,-119 345,-178 548,-147 385,58 649,418 591,803z"/>
   <path class="fil1" d="M5773 4337l41 -84 262 0 41 84 182 0 -354 -682 -354 682 182 0zm172 -366l72 148 -144 0 72 -148z"/>
   <path id="1" class="fil1" d="M6619 3688c-97,0 -180,32 -247,95 -67,62 -101,140 -101,235 0,94 34,172 101,235 67,62 150,93 247,93 118,0 224,-57 284,-142l0 -257 -316 0 0 145 165 0 0 43c-32,37 -76,55 -133,55 -48,0 -90,-16 -124,-48 -34,-33 -50,-75 -50,-124 0,-50 16,-91 50,-124 34,-33 76,-50 124,-50 75,0 141,21 196,61l0 -165c-55,-34 -120,-52 -196,-52z"/>
   <path id="2" class="fil1" d="M6980 4062c0,92 27,163 81,212 54,48 123,72 206,72 82,0 151,-24 205,-72 54,-49 82,-120 82,-212l0 -364 -174 0 0 345c0,106 -41,145 -113,145 -73,0 -113,-39 -113,-145l0 -345 -174 0 0 364z"/>
   <path id="3" class="fil1" d="M7724 4337l42 -84 262 0 41 84 182 0 -354 -682 -354 682 181 0zm173 -366l72 148 -145 0 73 -148z"/>
   <path id="4" class="fil1" d="M8779 4337l0 -185 126 0c56,0 107,-21 154,-65 47,-43 71,-97 71,-162 0,-73 -33,-136 -78,-171 -45,-37 -99,-56 -147,-56l-300 0 0 639 174 0zm0 -482l118 0c8,0 15,1 33,9 17,7 28,29 28,61 0,30 -11,52 -28,60 -16,7 -24,9 -32,9l-119 0 0 -139z"/>
   <path id="5" class="fil1" d="M9883 4020c0,-92 -35,-170 -104,-234 -69,-65 -151,-98 -249,-98 -99,0 -181,33 -250,98 -69,65 -103,143 -103,234 0,90 34,168 103,233 69,65 151,97 250,97 98,0 180,-32 249,-97 69,-65 104,-143 104,-233zm-528 0c0,-48 18,-89 52,-123 34,-35 75,-53 123,-53 47,0 88,18 122,53 35,35 53,76 53,123 0,46 -18,88 -53,122 -34,34 -75,52 -122,52 -49,0 -90,-17 -124,-51 -34,-34 -51,-75 -51,-123z"/>
   <polygon id="6" class="fil1" points="10248,4337 10248,3855 10416,3855 10416,3698 9901,3698 9901,3855 10073,3855 10073,4337 "/>
   <path id="7" class="fil1" d="M10519 4337l41 -84 263 0 41 84 182 0 -354 -682 -354 682 181 0zm173 -366l72 148 -145 0 73 -148z"/>
   <path id="8" class="fil1" d="M11418 4337c56,0 102,-18 139,-53 37,-36 56,-82 56,-136 0,-82 -45,-141 -129,-159 51,-21 82,-67 82,-128 0,-47 -17,-86 -50,-117 -33,-31 -73,-46 -122,-46l-297 0 0 639 321 0zm-147 -498l85 0c30,0 54,24 54,56 0,34 -22,58 -54,58l-85 0 0 -114zm0 233l108 0c39,0 66,26 66,59 0,36 -28,63 -65,63l-109 0 0 -122z"/>
   <polygon id="9" class="fil1" points="12106,4337 12106,4179 11863,4179 11863,3698 11689,3698 11689,4337 "/>
   <polygon id="10" class="fil1" points="12655,4337 12655,4183 12351,4183 12351,4086 12628,4086 12628,3943 12351,3943 12351,3854 12648,3854 12648,3698 12177,3698 12177,4337 "/>
   <polygon id="11" class="fil1" points="13409,4337 13409,4110 13651,3698 13463,3698 13323,3946 13183,3698 12996,3698 13237,4110 13237,4337 "/>
   <path id="12" class="fil1" d="M13985 4295c64,34 142,51 233,51 179,0 266,-78 266,-203 0,-47 -12,-85 -35,-113 -22,-29 -66,-52 -127,-71 -7,-3 -21,-6 -42,-12l-47 -13c-10,-3 -23,-8 -37,-14 -28,-12 -40,-26 -40,-42 0,-23 29,-35 89,-35 73,0 134,17 182,51l0 -162c-54,-29 -117,-44 -191,-44 -68,0 -126,17 -175,51 -47,34 -71,81 -71,140 0,86 46,146 138,180 19,6 46,16 84,27 38,11 64,20 80,28 15,8 23,17 23,29 0,32 -35,47 -104,47 -89,0 -164,-23 -226,-70l0 175z"/>
   <path id="13" class="fil1" d="M14666 4337l41 -84 263 0 41 84 181 0 -354 -682 -354 682 182 0zm172 -366l73 148 -145 0 72 -148z"/>
   <polygon id="14" class="fil1" points="15411,4337 15411,4014 15834,4363 15834,3698 15668,3698 15668,4018 15244,3672 15244,4337 "/>
   <polygon id="15" class="fil1" points="16418,4337 16418,4183 16113,4183 16113,4086 16390,4086 16390,3943 16113,3943 16113,3854 16410,3854 16410,3698 15939,3698 15939,4337 "/>
   <path id="16" class="fil1" d="M16631 4337l41 -84 262 0 41 84 182 0 -354 -682 -354 682 182 0zm172 -366l73 148 -145 0 72 -148z"/>
   <polygon id="17" class="fil1" points="17371,4337 17371,4048 17559,4239 17747,4048 17747,4337 17909,4337 17909,3673 17559,4022 17208,3673 17208,4337 "/>
   <polygon id="18" class="fil1" points="18192,4337 18192,3698 18017,3698 18017,4337 "/>
   <polygon id="19" class="fil1" points="18779,4337 18779,4183 18474,4183 18474,4086 18751,4086 18751,3943 18474,3943 18474,3854 18771,3854 18771,3698 18300,3698 18300,4337 "/>
   <polygon id="20" class="fil1" points="19035,4337 19035,4014 19458,4363 19458,3698 19291,3698 19291,4018 18868,3672 18868,4337 "/>
   <polygon id="21" class="fil1" points="19862,4337 19862,3855 20031,3855 20031,3698 19515,3698 19515,3855 19688,3855 19688,4337 "/>
   <path id="22" class="fil1" d="M20754 4020c0,-92 -34,-170 -103,-234 -69,-65 -152,-98 -250,-98 -98,0 -180,33 -249,98 -69,65 -103,143 -103,234 0,90 34,168 103,233 69,65 151,97 249,97 98,0 181,-32 250,-97 69,-65 103,-143 103,-233zm-527 0c0,-48 17,-89 51,-123 34,-35 76,-53 123,-53 48,0 89,18 123,53 35,35 52,76 52,123 0,46 -17,88 -52,122 -34,34 -75,52 -123,52 -48,0 -90,-17 -124,-51 -33,-34 -50,-75 -50,-123z"/>
   <path id="23" class="fil2 str0" d="M5773 4337l41 -84 262 0 41 84 182 0 -354 -682 -354 682 182 0zm172 -366l72 148 -144 0 72 -148z"/>
   <path id="24" class="fil2 str0" d="M6619 3688c-97,0 -180,32 -247,95 -67,62 -101,140 -101,235 0,94 34,172 101,235 67,62 150,93 247,93 118,0 224,-57 284,-142l0 -257 -316 0 0 145 165 0 0 43c-32,37 -76,55 -133,55 -48,0 -90,-16 -124,-48 -34,-33 -50,-75 -50,-124 0,-50 16,-91 50,-124 34,-33 76,-50 124,-50 75,0 141,21 196,61l0 -165c-55,-34 -120,-52 -196,-52z"/>
   <path id="25" class="fil2 str0" d="M6980 4062c0,92 27,163 81,212 54,48 123,72 206,72 82,0 151,-24 205,-72 54,-49 82,-120 82,-212l0 -364 -174 0 0 345c0,106 -41,145 -113,145 -73,0 -113,-39 -113,-145l0 -345 -174 0 0 364z"/>
   <path id="26" class="fil2 str0" d="M7724 4337l42 -84 262 0 41 84 182 0 -354 -682 -354 682 181 0zm173 -366l72 148 -145 0 73 -148z"/>
   <path id="27" class="fil2 str0" d="M8779 4337l0 -185 126 0c56,0 107,-21 154,-65 47,-43 71,-97 71,-162 0,-73 -33,-136 -78,-171 -45,-37 -99,-56 -147,-56l-300 0 0 639 174 0zm0 -482l118 0c8,0 15,1 33,9 17,7 28,29 28,61 0,30 -11,52 -28,60 -16,7 -24,9 -32,9l-119 0 0 -139z"/>
   <path id="28" class="fil2 str0" d="M9883 4020c0,-92 -35,-170 -104,-234 -69,-65 -151,-98 -249,-98 -99,0 -181,33 -250,98 -69,65 -103,143 -103,234 0,90 34,168 103,233 69,65 151,97 250,97 98,0 180,-32 249,-97 69,-65 104,-143 104,-233zm-528 0c0,-48 18,-89 52,-123 34,-35 75,-53 123,-53 47,0 88,18 122,53 35,35 53,76 53,123 0,46 -18,88 -53,122 -34,34 -75,52 -122,52 -49,0 -90,-17 -124,-51 -34,-34 -51,-75 -51,-123z"/>
   <polygon id="29" class="fil2 str0" points="10248,4337 10248,3855 10416,3855 10416,3698 9901,3698 9901,3855 10073,3855 10073,4337 "/>
   <path id="30" class="fil2 str0" d="M10519 4337l41 -84 263 0 41 84 182 0 -354 -682 -354 682 181 0zm173 -366l72 148 -145 0 73 -148z"/>
   <path id="31" class="fil2 str0" d="M11418 4337c56,0 102,-18 139,-53 37,-36 56,-82 56,-136 0,-82 -45,-141 -129,-159 51,-21 82,-67 82,-128 0,-47 -17,-86 -50,-117 -33,-31 -73,-46 -122,-46l-297 0 0 639 321 0zm-147 -498l85 0c30,0 54,24 54,56 0,34 -22,58 -54,58l-85 0 0 -114zm0 233l108 0c39,0 66,26 66,59 0,36 -28,63 -65,63l-109 0 0 -122z"/>
   <polygon id="32" class="fil2 str0" points="12106,4337 12106,4179 11863,4179 11863,3698 11689,3698 11689,4337 "/>
   <polygon id="33" class="fil2 str0" points="12655,4337 12655,4183 12351,4183 12351,4086 12628,4086 12628,3943 12351,3943 12351,3854 12648,3854 12648,3698 12177,3698 12177,4337 "/>
   <polygon id="34" class="fil2 str0" points="13409,4337 13409,4110 13651,3698 13463,3698 13323,3946 13183,3698 12996,3698 13237,4110 13237,4337 "/>
   <path id="35" class="fil2 str0" d="M13985 4295c64,34 142,51 233,51 179,0 266,-78 266,-203 0,-47 -12,-85 -35,-113 -22,-29 -66,-52 -127,-71 -7,-3 -21,-6 -42,-12l-47 -13c-10,-3 -23,-8 -37,-14 -28,-12 -40,-26 -40,-42 0,-23 29,-35 89,-35 73,0 134,17 182,51l0 -162c-54,-29 -117,-44 -191,-44 -68,0 -126,17 -175,51 -47,34 -71,81 -71,140 0,86 46,146 138,180 19,6 46,16 84,27 38,11 64,20 80,28 15,8 23,17 23,29 0,32 -35,47 -104,47 -89,0 -164,-23 -226,-70l0 175z"/>
   <path id="36" class="fil2 str0" d="M14666 4337l41 -84 263 0 41 84 181 0 -354 -682 -354 682 182 0zm172 -366l73 148 -145 0 72 -148z"/>
   <polygon id="37" class="fil2 str0" points="15411,4337 15411,4014 15834,4363 15834,3698 15668,3698 15668,4018 15244,3672 15244,4337 "/>
   <polygon id="38" class="fil2 str0" points="16418,4337 16418,4183 16113,4183 16113,4086 16390,4086 16390,3943 16113,3943 16113,3854 16410,3854 16410,3698 15939,3698 15939,4337 "/>
   <path id="39" class="fil2 str0" d="M16631 4337l41 -84 262 0 41 84 182 0 -354 -682 -354 682 182 0zm172 -366l73 148 -145 0 72 -148z"/>
   <polygon id="40" class="fil2 str0" points="17371,4337 17371,4048 17559,4239 17747,4048 17747,4337 17909,4337 17909,3673 17559,4022 17208,3673 17208,4337 "/>
   <polygon id="41" class="fil2 str0" points="18192,4337 18192,3698 18017,3698 18017,4337 "/>
   <polygon id="42" class="fil2 str0" points="18779,4337 18779,4183 18474,4183 18474,4086 18751,4086 18751,3943 18474,3943 18474,3854 18771,3854 18771,3698 18300,3698 18300,4337 "/>
   <polygon id="43" class="fil2 str0" points="19035,4337 19035,4014 19458,4363 19458,3698 19291,3698 19291,4018 18868,3672 18868,4337 "/>
   <polygon id="44" class="fil2 str0" points="19862,4337 19862,3855 20031,3855 20031,3698 19515,3698 19515,3855 19688,3855 19688,4337 "/>
   <path id="45" class="fil2 str0" d="M20754 4020c0,-92 -34,-170 -103,-234 -69,-65 -152,-98 -250,-98 -98,0 -180,33 -249,98 -69,65 -103,143 -103,234 0,90 34,168 103,233 69,65 151,97 249,97 98,0 181,-32 250,-97 69,-65 103,-143 103,-233zm-527 0c0,-48 17,-89 51,-123 34,-35 76,-53 123,-53 48,0 89,18 123,53 35,35 52,76 52,123 0,46 -17,88 -52,122 -34,34 -75,52 -123,52 -48,0 -90,-17 -124,-51 -33,-34 -50,-75 -50,-123z"/>
   <polygon class="fil3" points="6574,2216 7031,3213 7552,1679 7283,1679 6984,2559 6574,1653 6157,2561 5862,1679 5594,1679 6110,3211 "/>
   <path id="1" class="fil3" d="M7698 3154l131 -286 635 0 131 286 282 0 -729 -1547 -730 1547 280 0zm448 -995l218 481 -436 0 218 -481z"/>
   <polygon id="2" class="fil3" points="9442,3154 9442,1918 9842,1918 9842,1679 8777,1679 8777,1918 9177,1918 9177,3154 "/>
   <polygon id="3" class="fil3" points="11002,3154 11002,2915 10312,2915 10312,2508 10945,2508 10945,2269 10312,2269 10312,1918 10987,1918 10987,1679 10047,1679 10047,3154 "/>
   <path id="4" class="fil3" d="M11535 3154l0 -525 258 0 5 0 315 525 298 0 -357 -588c161,-68 269,-227 269,-419 0,-134 -47,-244 -140,-333 -93,-91 -206,-135 -339,-135l-573 0 0 1475 264 0zm0 -1236l303 0c127,0 222,97 222,233 0,142 -99,241 -243,241l-282 0 0 -474z"/>
   <polygon id="5" class="fil2 str1" points="6574,2216 7031,3213 7552,1679 7283,1679 6984,2559 6574,1653 6157,2561 5862,1679 5594,1679 6110,3211 "/>
   <path id="6" class="fil2 str1" d="M7698 3154l131 -286 635 0 131 286 282 0 -729 -1547 -730 1547 280 0zm448 -995l218 481 -436 0 218 -481z"/>
   <polygon id="7" class="fil2 str1" points="9442,3154 9442,1918 9842,1918 9842,1679 8777,1679 8777,1918 9177,1918 9177,3154 "/>
   <polygon id="8" class="fil2 str1" points="11002,3154 11002,2915 10312,2915 10312,2508 10945,2508 10945,2269 10312,2269 10312,1918 10987,1918 10987,1679 10047,1679 10047,3154 "/>
   <path id="9" class="fil2 str1" d="M11535 3154l0 -525 258 0 5 0 315 525 298 0 -357 -588c161,-68 269,-227 269,-419 0,-134 -47,-244 -140,-333 -93,-91 -206,-135 -339,-135l-573 0 0 1475 264 0zm0 -1236l303 0c127,0 222,97 222,233 0,142 -99,241 -243,241l-282 0 0 -474z"/>
  </g>
 </g>
</svg>
