<?xml version="1.0" encoding="UTF-8"?>
<!DOCTYPE svg PUBLIC "-//W3C//DTD SVG 1.1//EN" "http://www.w3.org/Graphics/SVG/1.1/DTD/svg11.dtd">
<!-- Creator: CorelDRAW X8 -->
<svg xmlns="http://www.w3.org/2000/svg" xml:space="preserve" width="50mm" height="50mm" version="1.1" style="shape-rendering:geometricPrecision; text-rendering:geometricPrecision; image-rendering:optimizeQuality; fill-rule:evenodd; clip-rule:evenodd"
viewBox="0 0 5000 5000"
 xmlns:xlink="http://www.w3.org/1999/xlink">
 <defs>
  <style type="text/css">
   <![CDATA[
    .fil1 {fill:#FEFEFE}
    .fil2 {fill:#00204A}
    .fil0 {fill:#00204A;fill-rule:nonzero}
   ]]>
  </style>
 </defs>
 <g id="Capa_x0020_1">
  <metadata id="CorelCorpID_0Corel-Layer"/>
  <g id="_2791171816688">
   <g>
    <path class="fil0" d="M3059 3089c63,0 113,51 113,113 0,62 -50,112 -113,112l0 -225zm-2012 0l2012 0 0 225 -2012 0 0 0 0 -225zm-322 -96l226 0 0 0 0 5 0 5 1 4 0 5 2 5 1 4 1 5 2 4 2 4 2 4 2 4 3 4 3 4 3 4 3 3 3 4 3 3 4 3 4 3 3 3 4 2 4 3 5 2 4 2 4 1 5 2 4 1 5 1 4 1 5 1 5 0 5 0 0 225 -16 0 -17 -1 -16 -2 -16 -3 -15 -4 -16 -4 -15 -5 -14 -6 -14 -7 -14 -7 -14 -7 -13 -9 -12 -9 -13 -9 -11 -10 -11 -11 -11 -11 -10 -12 -10 -12 -8 -12 -9 -13 -8 -14 -7 -14 -6 -14 -6 -15 -5 -15 -4 -15 -4 -16 -3 -15 -2 -16 -1 -17 -1 -16 0 0zm226 -1898l0 1898 -226 0 0 -1898 0 0 226 0zm96 -321l0 225 0 0 -5 0 -5 0 -5 1 -4 1 -5 1 -4 1 -5 2 -4 1 -4 2 -5 2 -4 3 -4 2 -3 3 -4 3 -4 3 -3 3 -3 4 -3 3 -3 4 -3 4 -3 4 -2 4 -2 4 -2 4 -2 4 -1 5 -1 4 -2 5 0 5 -1 4 0 5 0 5 -226 0 1 -16 1 -17 2 -16 3 -15 4 -16 4 -15 5 -15 6 -15 6 -14 7 -14 8 -14 9 -13 8 -12 10 -12 10 -12 11 -11 11 -11 11 -10 13 -9 12 -9 13 -9 14 -7 14 -7 14 -7 14 -6 15 -5 16 -4 15 -4 16 -3 16 -2 17 -1 16 0 0 0zm2906 225l-2906 0 0 -225 2906 0 0 0 0 225zm322 96l-226 0 0 0 0 -5 0 -5 -1 -4 0 -5 -2 -5 -1 -4 -1 -5 -2 -4 -2 -4 -2 -4 -2 -4 -3 -4 -3 -4 -3 -4 -3 -3 -3 -4 -3 -3 -4 -3 -4 -3 -3 -3 -4 -2 -4 -3 -5 -2 -4 -2 -4 -1 -5 -2 -4 -1 -5 -1 -4 -1 -5 -1 -5 0 -5 0 0 -225 16 0 17 1 16 2 16 3 15 4 16 4 15 5 14 6 14 6 14 8 14 7 13 9 12 9 13 9 11 10 11 11 11 11 10 12 10 12 9 12 8 13 8 14 7 14 6 14 6 15 5 15 4 15 4 16 3 15 2 16 1 17 1 16 0 0zm-226 522l0 -522 226 0 0 522 -226 0zm226 0c0,62 -51,113 -113,113 -62,0 -113,-51 -113,-113l226 0z"/>
   </g>
   <g>
    <path class="fil0" d="M3060 3349c62,0 112,50 112,112 0,63 -50,113 -112,113l0 -225zm-2616 0l2616 0 0 225 -2616 0 0 0 0 -225zm54 171l-225 0 0 0 0 -9 1 -8 1 -9 1 -8 2 -9 3 -8 2 -8 3 -8 4 -7 4 -8 4 -7 4 -7 5 -6 5 -7 5 -6 6 -6 6 -6 6 -5 7 -5 6 -5 7 -4 7 -4 8 -4 7 -4 8 -3 8 -2 8 -3 9 -2 8 -1 9 -1 8 -1 9 0 0 225 3 0 3 0 2 -1 3 0 3 -1 2 0 3 -1 2 -1 3 -1 2 -2 2 -1 3 -1 2 -2 1 -1 2 -2 2 -2 2 -1 2 -2 1 -2 2 -2 1 -3 1 -2 2 -2 1 -3 1 -2 0 -2 1 -3 1 -3 0 -3 1 -2 0 -3 0 -3 0 0zm-225 116l0 -116 225 0 0 116 0 0 -225 0zm590 365l0 225 0 0 -30 0 -30 -3 -30 -3 -29 -6 -28 -6 -28 -8 -28 -10 -27 -10 -26 -12 -25 -13 -25 -14 -24 -16 -23 -16 -22 -18 -22 -18 -20 -20 -20 -20 -18 -22 -18 -22 -16 -23 -15 -24 -15 -25 -13 -25 -12 -26 -10 -27 -10 -27 -8 -29 -6 -28 -5 -29 -4 -30 -3 -29 0 -31 225 0 0 19 2 18 2 19 3 18 4 17 5 17 6 17 7 17 7 16 8 16 9 15 9 15 11 14 11 14 11 13 12 13 13 12 13 12 14 11 14 10 15 9 16 9 15 8 16 8 17 6 17 6 17 5 18 4 18 3 18 2 18 2 19 0 0 0zm2193 225l-2193 0 0 -225 2193 0 0 225zm0 -225c62,0 113,51 113,113 0,62 -51,112 -113,112l0 -225z"/>
   </g>
   <g>
    <path class="fil0" d="M2742 3349l0 225 -484 0 0 -225 484 0zm136 89l0 0 0 7 0 7 -1 7 -2 6 -1 7 -2 7 -2 6 -2 6 -3 6 -3 6 -3 5 -4 6 -4 6 -4 4 -4 5 -5 5 -4 5 -5 4 -5 3 -5 4 -6 4 -6 3 -6 3 -6 3 -6 3 -6 2 -7 2 -7 1 -6 1 -7 1 -7 1 -7 0 0 -225 -5 0 -4 0 -5 1 -4 1 -5 1 -4 1 -4 1 -4 2 -4 2 -4 2 -4 2 -4 2 -3 3 -3 2 -3 3 -4 3 -3 3 -2 3 -3 3 -2 4 -3 4 -2 4 -2 3 -2 4 -1 4 -2 4 -1 5 -1 4 -1 4 0 5 -1 5 0 4 0 0 226 0zm-226 -213l226 0 0 213 -226 0 0 -213zm90 -136l0 0 7 0 7 1 7 1 6 1 7 2 7 1 6 3 6 2 6 3 6 3 6 3 6 4 5 4 5 4 5 4 4 4 5 5 4 5 4 5 4 5 4 6 3 6 3 5 3 6 2 7 2 6 2 6 1 7 2 6 1 8 0 6 0 7 -226 0 0 5 1 4 0 5 1 4 1 5 1 4 2 4 1 4 2 4 2 4 2 3 3 4 2 4 3 3 2 3 3 3 4 3 3 3 3 2 3 3 4 2 4 3 4 1 4 2 4 2 4 1 4 2 5 1 4 0 5 1 4 0 5 0 0 0 0 -225zm-484 225l0 -225 484 0 0 225 -484 0zm-136 -89l0 0 0 -7 0 -6 1 -8 2 -6 1 -7 2 -6 2 -6 2 -7 3 -6 3 -5 3 -6 4 -6 4 -5 4 -5 4 -5 5 -5 4 -4 5 -4 5 -4 5 -4 6 -4 6 -3 6 -3 6 -3 6 -2 6 -3 7 -1 7 -2 6 -1 7 -1 7 -1 7 0 0 225 5 0 4 0 5 -1 4 0 5 -1 4 -2 4 -1 4 -2 4 -2 4 -1 4 -3 4 -2 3 -3 3 -2 3 -3 4 -3 3 -3 2 -3 3 -3 2 -4 3 -4 2 -3 2 -4 2 -4 1 -4 2 -4 1 -4 1 -5 1 -4 0 -5 1 -4 0 -5 0 0 -226 0zm226 213l-226 0 0 -213 226 0 0 213zm-90 136l0 0 -7 0 -7 -1 -7 -1 -6 -1 -7 -1 -7 -2 -6 -2 -6 -3 -6 -3 -6 -3 -6 -3 -6 -4 -5 -4 -5 -3 -5 -4 -4 -5 -5 -5 -4 -5 -4 -4 -4 -6 -4 -6 -3 -5 -3 -6 -3 -6 -2 -6 -2 -6 -2 -7 -1 -7 -2 -6 -1 -7 0 -7 0 -7 226 0 0 -4 -1 -5 0 -5 -1 -4 -1 -4 -1 -5 -2 -4 -1 -4 -2 -4 -2 -3 -2 -4 -3 -4 -2 -4 -3 -3 -2 -3 -3 -3 -4 -3 -3 -3 -3 -2 -3 -3 -4 -2 -4 -2 -4 -2 -4 -2 -4 -2 -4 -1 -4 -1 -5 -1 -4 -1 -5 -1 -4 0 -5 0 0 0 0 225z"/>
   </g>
   <g>
    <path class="fil0" d="M4497 1966l-1065 0 0 -188 1065 0 0 0 0 188zm211 23l-186 0 0 0 0 -1 0 -1 0 -1 -1 -1 0 -1 0 -1 -1 -1 0 -1 0 -1 -1 -1 0 -1 -1 -1 -1 -1 0 -1 -1 -1 -1 -1 -1 -1 -1 -1 -1 0 -1 -1 -1 -1 -1 0 -1 -1 -1 0 -1 -1 -1 0 -1 -1 -2 0 -1 0 -1 0 -1 0 -2 0 0 -188 11 0 11 1 10 1 10 2 11 2 10 3 9 3 10 4 9 5 9 4 9 5 8 6 9 6 8 6 7 6 8 7 6 8 7 7 6 8 6 8 6 9 5 9 5 9 4 9 4 10 3 10 3 10 2 10 2 11 1 10 1 11 1 11 0 0zm-186 2007l0 -2007 186 0 0 2007 0 0 -186 0zm-25 212l0 -188 0 0 2 0 1 0 1 0 1 -1 2 0 1 0 1 -1 1 0 1 -1 1 0 1 -1 1 0 1 -1 1 -1 1 -1 1 0 1 -1 1 -1 0 -1 1 -1 1 -1 0 -1 1 -1 0 -1 0 -1 1 -1 0 -1 0 -1 1 -1 0 -1 0 -1 0 -2 186 0 -1 11 -1 11 -1 11 -2 10 -2 10 -3 11 -3 10 -4 9 -4 10 -5 9 -5 9 -6 8 -6 8 -6 8 -7 8 -7 7 -7 7 -7 7 -8 6 -9 6 -8 5 -9 5 -9 5 -9 4 -10 4 -9 3 -10 3 -11 3 -10 1 -10 2 -11 1 -11 0 0 0zm-1065 -188l1065 0 0 188 -1065 0 0 0 0 -188zm-210 -24l185 0 0 0 0 2 0 1 1 1 0 1 0 1 0 1 1 1 0 1 0 1 1 1 1 1 0 1 1 1 1 1 0 1 1 1 1 0 1 1 1 1 1 1 1 0 1 1 1 0 1 1 1 0 1 1 2 0 1 0 1 1 1 0 1 0 2 0 0 188 -11 0 -11 -1 -10 -2 -10 -1 -10 -3 -10 -3 -10 -3 -10 -4 -9 -4 -9 -5 -9 -5 -8 -5 -9 -6 -8 -6 -7 -7 -7 -7 -7 -7 -7 -8 -6 -8 -6 -8 -6 -8 -5 -9 -4 -9 -5 -10 -3 -9 -4 -10 -3 -11 -2 -10 -2 -10 -1 -11 -1 -11 0 -11 0 0zm185 -2007l0 2007 -185 0 0 -2007 0 0 185 0zm25 -211l0 188 0 0 -2 0 -1 0 -1 0 -1 0 -1 0 -2 1 -1 0 -1 1 -1 0 -1 1 -1 0 -1 1 -1 1 -1 0 -1 1 -1 1 -1 1 0 1 -1 1 -1 1 0 1 -1 1 -1 1 0 1 0 1 -1 1 0 1 0 1 0 1 -1 1 0 1 0 1 -185 0 0 -11 1 -11 1 -10 2 -11 2 -10 3 -10 4 -10 3 -10 5 -9 4 -9 5 -9 6 -9 6 -8 6 -8 7 -7 7 -8 7 -7 7 -6 8 -6 9 -6 8 -6 9 -5 9 -4 9 -5 10 -4 10 -3 10 -3 10 -2 10 -2 10 -1 11 -1 11 0 0 0z"/>
   </g>
   <g>
    <path class="fil1" d="M3592 3382l73 73 77 -50c24,14 50,25 77,32l20 90 103 0 20 -90c27,-7 53,-18 77,-32l77 50 73 -73 -50 -77c15,-24 25,-50 32,-77l90 -20 0 -103 -90 -20c-7,-27 -17,-53 -32,-77l50 -77 -73 -73 -77 50c-24,-15 -50,-25 -77,-32l-20 -90 -103 0 -20 90c-27,7 -53,17 -77,32l-77 -50 -73 73 50 77c-14,24 -25,50 -32,77l-90 20 0 103 90 20c7,27 18,53 32,77l-50 77zm119 -226c0,100 80,180 180,180 99,0 179,-80 179,-180 0,-99 -80,-179 -179,-179 -100,0 -180,80 -180,179z"/>
    <path id="1" class="fil0" d="M3678 3442l-3 29 -23 -3 -73 -73 26 -26 73 73zm-26 26l26 -26c7,7 7,19 0,26 -7,8 -19,8 -26,0zm80 -78l20 -1 0 32 -77 50 -20 -32 77 -49zm20 31l-20 -31c9,-6 20,-4 26,5 6,9 3,20 -6,26zm49 20l14 15 -3 -1 -3 -1 -2 -1 -3 0 -3 -1 -2 -1 -3 -1 -3 -1 -2 -1 -3 -1 -3 -1 -2 -1 -3 -1 -3 -1 -2 -1 -3 -1 -2 -1 -3 -1 -2 -1 -3 -1 -2 -1 -3 -1 -3 -2 -2 -1 -2 -1 -3 -1 -2 -2 -3 -1 -2 -1 -3 -2 -2 -1 -2 -2 19 -32 2 1 2 2 2 1 2 1 2 1 3 1 2 1 2 2 2 1 2 1 2 1 3 1 2 1 2 1 2 1 3 1 2 1 2 1 2 0 3 1 2 1 2 1 3 1 2 1 2 0 3 1 2 1 2 0 3 1 2 1 3 0 2 1 14 14 -37 8zm14 15l9 -37c10,3 16,13 14,23 -3,10 -13,16 -23,14zm42 67l-18 23 -18 -15 -20 -90 37 -8 19 90zm-36 8l36 -8c2,10 -4,20 -14,23 -10,2 -20,-5 -22,-15zm121 -23l19 23 -19 15 -103 0 0 -38 103 0zm0 38l0 -38c11,0 19,9 19,19 0,11 -8,19 -19,19zm1 -113l14 -14 23 22 -19 90 -37 -8 19 -90zm37 8l-37 -8c2,-10 12,-16 23,-14 10,2 16,12 14,22zm49 -20l19 0 -2 2 -2 1 -3 2 -2 1 -3 1 -2 2 -2 1 -3 1 -2 1 -3 2 -2 1 -3 1 -2 1 -3 1 -3 1 -2 1 -3 1 -2 1 -3 1 -3 1 -2 1 -3 1 -2 1 -3 1 -3 1 -3 1 -2 1 -3 1 -3 0 -2 1 -3 1 -3 1 -9 -37 2 -1 3 0 2 -1 3 -1 2 0 2 -1 3 -1 2 0 2 -1 3 -1 2 -1 2 -1 3 -1 2 0 2 -1 2 -1 3 -1 2 -1 2 -1 2 -1 3 -1 2 -1 2 -1 2 -1 2 -2 3 -1 2 -1 2 -1 2 -1 2 -1 2 -2 2 -1 20 1 -20 31zm19 0l-19 -32c9,-5 21,-2 26,7 5,9 2,20 -7,25zm78 18l3 29 -23 3 -77 -50 20 -31 77 49zm-20 32l20 -32c9,6 12,18 6,26 -6,9 -17,12 -26,6zm70 -102l29 3 -3 23 -73 73 -26 -26 73 -73zm26 26l-26 -26c7,-7 19,-7 26,0 8,7 8,19 0,26zm-78 -80l-1 -20 32 0 50 77 -32 20 -49 -77zm31 -20l-31 20c-6,-9 -3,-20 5,-26 9,-6 21,-3 26,6zm20 -49l15 -14 -1 3 -1 3 -1 2 0 3 -1 3 -1 2 -1 3 -1 3 -1 2 -1 3 0 3 -1 2 -1 3 -1 3 -2 2 -1 3 -1 2 -1 3 -1 2 -1 3 -1 2 -1 3 -2 3 -1 2 -1 2 -1 3 -2 2 -1 3 -1 2 -2 3 -1 2 -2 2 -32 -19 1 -2 2 -2 1 -2 1 -2 1 -2 1 -3 2 -2 1 -2 1 -2 1 -2 1 -2 1 -3 1 -2 1 -2 1 -2 1 -3 1 -2 1 -2 1 -2 0 -3 1 -2 1 -2 1 -3 1 -2 0 -2 1 -3 1 -2 1 -2 0 -3 1 -2 1 -3 0 -2 14 -14 8 37zm15 -14l-37 -9c3,-10 13,-16 23,-14 10,3 16,13 14,23zm67 -42l23 18 -15 18 -90 20 -8 -37 90 -19zm8 36l-8 -36c10,-2 20,4 23,14 2,10 -5,20 -15,22zm-22 -121l22 -19 15 19 0 103 -37 0 0 -103zm37 0l-37 0c0,-11 8,-19 18,-19 11,0 19,8 19,19zm-113 -1l-14 -14 22 -23 90 19 -8 37 -90 -19zm8 -37l-8 37c-10,-2 -16,-12 -14,-23 2,-10 12,-16 22,-14zm-20 -49l0 -19 2 2 1 2 2 3 1 2 1 3 2 2 1 2 1 3 1 2 2 3 1 2 1 3 1 2 1 3 1 3 1 2 1 3 2 2 1 3 1 3 1 2 0 3 1 2 1 3 1 3 1 2 1 3 1 3 0 3 1 2 1 3 1 3 -37 9 0 -2 -1 -3 -1 -2 0 -3 -1 -2 -1 -2 -1 -3 0 -2 -1 -2 -1 -3 -1 -2 -1 -2 0 -3 -1 -2 -1 -2 -1 -2 -1 -3 -1 -2 -1 -2 -1 -2 -1 -3 -1 -2 -1 -2 -1 -2 -1 -2 -2 -3 -1 -2 -1 -2 -1 -2 -1 -2 -2 -2 -1 -2 1 -20 31 20zm0 -19l-32 19c-5,-9 -2,-21 7,-26 9,-5 20,-2 25,7zm18 -78l29 -3 3 23 -50 77 -31 -20 49 -77zm32 20l-32 -20c6,-9 18,-12 26,-6 9,6 12,17 6,26zm-102 -70l3 -29 23 3 73 73 -26 26 -73 -73zm26 -26l-26 26c-7,-7 -7,-19 0,-26 7,-8 19,-8 26,0zm-80 78l-20 1 0 -32 77 -50 20 32 -77 49zm-20 -31l20 31c-9,6 -20,4 -26,-5 -6,-9 -3,-21 6,-26zm-49 -20l-14 -15 3 1 3 1 2 1 3 0 3 1 2 1 3 1 3 1 3 1 2 1 3 1 2 0 3 1 3 1 2 2 3 1 2 1 3 1 3 1 2 1 3 1 2 1 3 2 2 1 3 1 2 1 2 2 3 1 2 1 3 2 2 1 2 2 -19 32 -2 -1 -2 -2 -2 -1 -2 -1 -2 -1 -2 -1 -3 -2 -2 -1 -2 -1 -2 -1 -2 -1 -3 -1 -2 -1 -2 -1 -2 -1 -3 -1 -2 -1 -2 -1 -2 0 -3 -1 -2 -1 -2 -1 -3 -1 -2 -1 -2 0 -3 -1 -2 -1 -2 -1 -3 0 -2 -1 -3 -1 -2 0 -14 -14 37 -8zm-14 -15l-9 37c-10,-3 -16,-13 -14,-23 3,-10 13,-16 23,-14zm-42 -67l18 -23 19 15 19 90 -37 8 -19 -90zm37 -8l-37 8c-2,-10 4,-20 14,-23 10,-2 20,5 23,15zm-122 22l-18 -22 18 -15 103 0 0 37 -103 0zm0 -37l0 37c-10,0 -19,-8 -19,-18 0,-11 9,-19 19,-19zm-1 113l-14 14 -23 -22 20 -90 36 8 -19 90zm-37 -8l37 8c-2,10 -12,16 -22,14 -11,-2 -17,-12 -15,-22zm-49 20l-19 0 2 -2 2 -1 3 -2 2 -1 3 -1 2 -2 3 -1 2 -1 2 -1 3 -2 3 -1 2 -1 3 -1 2 -1 3 -1 2 -1 3 -1 2 -2 3 -1 3 -1 2 0 3 -1 3 -1 2 -1 3 -1 3 -1 2 -1 3 -1 3 0 2 -1 3 -1 3 -1 9 37 -2 0 -3 1 -2 1 -3 0 -2 1 -2 1 -3 1 -2 0 -2 1 -3 1 -2 1 -2 1 -3 1 -2 0 -2 1 -2 1 -3 1 -2 1 -2 1 -2 1 -3 1 -2 1 -2 1 -2 1 -2 1 -2 2 -3 1 -2 1 -2 1 -2 1 -2 2 -2 1 -20 -1 20 -31zm-19 0l19 32c-9,5 -21,2 -26,-7 -5,-9 -2,-20 7,-25zm-78 -18l-3 -29 23 -3 77 50 -20 31 -77 -49zm20 -32l-20 32c-9,-6 -11,-18 -6,-26 6,-9 17,-12 26,-6zm-70 102l-29 -3 3 -23 73 -73 26 26 -73 73zm-26 -26l26 26c-7,7 -19,7 -26,0 -8,-7 -8,-19 0,-26zm78 80l1 20 -32 0 -50 -77 32 -20 49 77zm-31 20l31 -20c6,9 4,20 -5,26 -9,6 -20,3 -26,-6zm-20 49l-14 14 0 -3 1 -3 1 -2 0 -3 1 -3 1 -3 1 -2 1 -3 1 -3 1 -2 1 -3 1 -2 1 -3 1 -3 1 -2 1 -3 1 -2 1 -3 1 -3 1 -2 1 -3 1 -2 2 -3 1 -2 1 -3 1 -2 2 -2 1 -3 1 -2 2 -3 1 -2 2 -2 32 19 -1 2 -2 2 -1 2 -1 2 -1 2 -1 2 -1 3 -2 2 -1 2 -1 2 -1 2 -1 3 -1 2 -1 2 -1 2 -1 3 -1 2 -1 2 0 2 -1 3 -1 2 -1 2 -1 3 -1 2 0 2 -1 3 -1 2 0 2 -1 3 -1 2 0 3 -1 2 -14 14 -8 -37zm-14 14l36 9c-3,10 -13,16 -23,14 -10,-3 -16,-13 -13,-23zm-68 42l-23 -18 15 -19 90 -19 8 37 -90 19zm-8 -37l8 37c-10,2 -20,-4 -23,-14 -2,-10 5,-20 15,-23zm23 122l-23 18 -15 -18 0 -103 38 0 0 103zm-38 0l38 0c0,10 -9,19 -19,19 -11,0 -19,-9 -19,-19zm113 1l14 14 -22 23 -90 -20 8 -36 90 19zm-8 37l8 -37c10,2 16,12 14,22 -2,11 -12,17 -22,15zm20 49l0 19 -2 -2 -1 -2 -2 -3 -1 -2 -1 -3 -2 -2 -1 -3 -1 -2 -1 -2 -2 -3 -1 -3 -1 -2 -1 -3 -1 -2 -1 -3 -1 -2 -1 -3 -1 -2 -1 -3 -1 -3 -1 -2 -1 -3 -1 -3 -1 -2 -1 -3 -1 -3 -1 -2 -1 -3 0 -3 -1 -2 -1 -3 0 -3 36 -9 1 2 0 3 1 2 1 3 0 2 1 2 1 3 0 2 1 2 1 3 1 2 1 2 1 3 0 2 1 2 1 2 1 3 1 2 1 2 1 2 1 3 1 2 1 2 1 2 2 2 1 2 1 3 1 2 1 2 1 2 2 2 1 2 -1 20 -31 -20zm0 19l32 -19c5,9 2,21 -7,26 -9,5 -20,2 -25,-7zm-18 78l-29 3 -3 -23 50 -77 31 20 -49 77zm-32 -20l32 20c-6,9 -18,12 -26,6 -9,-6 -12,-17 -6,-26zm315 -17l0 0 -11 0 -10 -1 -10 -1 -9 -2 -10 -2 -9 -3 -10 -3 -9 -4 -8 -4 -9 -4 -8 -5 -8 -5 -8 -6 -8 -5 -7 -7 -7 -6 -6 -7 -7 -7 -5 -8 -6 -8 -5 -8 -5 -8 -4 -9 -4 -8 -4 -9 -3 -10 -3 -9 -2 -10 -2 -9 -1 -10 -1 -10 0 -11 38 0 0 9 1 8 1 8 1 8 2 8 2 7 2 8 3 7 4 7 3 7 4 7 4 6 5 7 4 6 5 6 6 5 5 6 6 5 6 4 7 5 6 4 7 4 7 3 7 4 7 3 8 2 7 2 8 2 8 1 8 1 8 1 9 0 0 0 0 38zm198 -199l0 0 0 11 -1 10 -1 10 -2 9 -2 10 -3 9 -3 10 -4 9 -4 8 -4 9 -5 8 -5 8 -6 8 -5 8 -7 7 -6 7 -7 6 -7 7 -8 5 -8 6 -8 5 -8 5 -8 4 -9 4 -9 4 -9 3 -10 3 -10 2 -9 2 -10 1 -10 1 -10 0 0 -38 8 0 8 -1 8 -1 8 -1 8 -2 7 -2 8 -2 7 -3 7 -4 7 -3 7 -4 6 -4 7 -5 6 -4 6 -5 5 -6 6 -5 5 -6 4 -6 5 -7 4 -6 4 -7 4 -7 3 -7 3 -7 2 -8 2 -7 2 -8 2 -8 1 -8 0 -8 0 -9 0 0 38 0zm-198 -198l0 0 10 0 10 1 10 1 9 2 10 2 10 3 9 3 9 4 9 4 8 4 8 5 8 5 8 6 8 5 7 7 7 6 6 7 7 7 5 8 6 8 5 8 5 8 4 8 4 9 4 9 3 9 3 10 2 10 2 9 1 10 1 10 0 10 -38 0 0 -8 0 -8 -1 -8 -2 -8 -2 -8 -2 -7 -2 -8 -3 -7 -3 -7 -4 -7 -4 -7 -4 -6 -5 -7 -4 -6 -5 -6 -6 -5 -5 -6 -6 -5 -6 -4 -7 -5 -6 -4 -7 -4 -7 -4 -7 -3 -7 -3 -8 -2 -7 -2 -8 -2 -8 -2 -8 -1 -8 0 -8 0 0 0 0 -38zm-199 198l0 0 0 -10 1 -10 1 -10 2 -9 2 -10 3 -10 3 -9 4 -9 4 -9 4 -8 5 -8 5 -8 6 -8 5 -8 7 -7 6 -7 7 -6 7 -7 8 -5 8 -6 8 -5 8 -5 9 -4 8 -4 9 -4 10 -3 9 -3 10 -2 9 -2 10 -1 10 -1 11 0 0 38 -9 0 -8 0 -8 1 -8 2 -8 2 -7 2 -8 2 -7 3 -7 3 -7 4 -7 4 -6 4 -7 5 -6 4 -6 5 -5 6 -6 5 -5 6 -4 6 -5 7 -4 6 -4 7 -3 7 -4 7 -3 7 -2 8 -2 7 -2 8 -1 8 -1 8 -1 8 0 8 0 0 -38 0z"/>
   </g>
   <g>
    <path class="fil1" d="M4024 2787l45 45 48 -31c14,9 30,16 47,20l12 55 64 0 12 -55c17,-4 33,-11 48,-20l48 31 45 -45 -31 -48c9,-14 15,-31 20,-48l55 -12 0 -63 -55 -12c-5,-17 -11,-33 -20,-48l31 -48 -45 -45 -48 31c-15,-9 -31,-15 -48,-20l-12 -55 -64 0 -12 55c-17,5 -33,11 -47,20l-48 -31 -45 45 31 48c-9,15 -16,31 -20,48l-56 12 0 63 56 12c4,17 11,34 20,48l-31 48zm73 -139c0,61 50,110 111,110 62,0 111,-49 111,-110 0,-62 -49,-111 -111,-111 -61,0 -111,49 -111,111z"/>
    <path id="1" class="fil0" d="M4082 2819l-3 29 -23 -3 -45 -45 26 -26 45 45zm-26 26l26 -26c8,7 8,19 0,26 -7,8 -19,8 -26,0zm51 -60l19 0 1 32 -48 31 -20 -32 48 -31zm20 32l-20 -32c8,-5 20,-3 26,6 5,9 3,20 -6,26zm19 8l14 14 -2 0 -2 -1 -1 0 -2 -1 -2 0 -2 -1 -1 0 -2 -1 -2 0 -1 -1 -2 -1 -2 0 -1 -1 -2 -1 -2 0 -1 -1 -2 -1 -2 0 -1 -1 -2 -1 -2 0 -1 -1 -2 -1 -1 -1 -2 -1 -2 0 -1 -1 -2 -1 -1 -1 -2 -1 -1 -1 -2 -1 19 -32 2 1 1 1 1 0 1 1 2 1 1 0 1 1 1 1 2 0 1 1 1 1 2 0 1 1 1 0 2 1 1 0 1 1 2 1 1 0 1 1 2 0 1 1 1 0 2 1 1 0 2 0 1 1 1 0 2 1 1 0 2 0 1 1 14 14 -37 8zm14 14l9 -36c10,2 16,13 14,23 -3,10 -13,16 -23,13zm35 34l-19 22 -18 -15 -12 -55 37 -8 12 56zm-37 7l37 -7c2,10 -4,20 -15,22 -10,2 -20,-4 -22,-15zm82 -22l19 22 -19 15 -64 0 0 -37 64 0zm0 37l0 -37c11,0 19,8 19,18 0,11 -8,19 -19,19zm-6 -78l14 -14 23 22 -12 55 -37 -7 12 -56zm37 8l-37 -8c2,-10 12,-17 22,-14 10,2 17,12 15,22zm19 -8l20 0 -2 1 -2 1 -1 1 -2 1 -1 1 -2 1 -1 0 -2 1 -1 1 -2 1 -2 0 -1 1 -2 1 -2 1 -1 0 -2 1 -1 1 -2 0 -2 1 -2 1 -1 0 -2 1 -2 1 -1 0 -2 1 -2 0 -1 1 -2 0 -2 1 -2 0 -1 1 -2 0 -9 -36 1 -1 1 0 2 0 1 -1 2 0 1 -1 2 0 1 0 1 -1 2 0 1 -1 1 0 2 -1 1 0 1 -1 2 -1 1 0 1 -1 2 0 1 -1 1 0 2 -1 1 -1 1 0 2 -1 1 -1 1 0 1 -1 2 -1 1 0 1 -1 1 -1 20 0 -20 32zm20 0l-20 -32c9,-5 21,-2 26,7 5,8 2,20 -6,25zm48 -1l3 29 -24 3 -47 -31 20 -32 48 31zm-21 32l21 -32c9,6 11,17 5,26 -5,9 -17,11 -26,6zm42 -74l30 3 -3 23 -45 45 -27 -26 45 -45zm27 26l-27 -26c8,-8 20,-8 27,0 7,7 7,19 0,26zm-60 -51l0 -19 32 -1 31 48 -32 20 -31 -48zm32 -20l-32 20c-5,-8 -3,-20 6,-26 9,-5 20,-3 26,6zm8 -19l14 -14 -1 2 0 2 0 1 -1 2 0 2 -1 2 -1 1 0 2 -1 2 0 1 -1 2 -1 2 0 1 -1 2 0 2 -1 1 -1 2 -1 2 0 1 -1 2 -1 2 -1 1 0 2 -1 1 -1 2 -1 2 -1 1 0 2 -1 1 -1 2 -1 1 -1 2 -32 -19 1 -2 0 -1 1 -1 1 -1 0 -2 1 -1 1 -1 0 -1 1 -2 1 -1 0 -1 1 -2 0 -1 1 -1 1 -2 0 -1 1 -1 0 -2 1 -1 0 -1 1 -2 0 -1 1 -1 0 -2 1 -1 0 -2 1 -1 0 -1 0 -2 1 -1 0 -2 1 -1 14 -14 8 37zm14 -14l-36 -9c2,-10 12,-16 22,-14 10,3 16,13 14,23zm33 -35l23 18 -15 19 -55 12 -8 -37 55 -12zm8 37l-8 -37c10,-2 20,4 23,15 2,10 -5,20 -15,22zm-23 -82l23 -19 15 19 0 63 -38 0 0 -63zm38 0l-38 0c0,-11 9,-19 19,-19 11,0 19,8 19,19zm-78 6l-14 -14 22 -23 55 12 -8 37 -55 -12zm8 -37l-8 37c-10,-2 -17,-12 -15,-22 3,-10 13,-17 23,-15zm-8 -19l0 -20 1 2 1 1 1 2 1 2 0 1 1 2 1 1 1 2 1 1 0 2 1 2 1 1 1 2 0 2 1 1 1 2 1 1 0 2 1 2 1 2 0 1 1 2 0 2 1 1 0 2 1 2 0 1 1 2 1 2 0 2 0 1 1 2 -36 9 -1 -1 0 -1 -1 -2 0 -1 0 -2 -1 -1 0 -2 -1 -1 0 -1 -1 -2 0 -1 -1 -1 0 -2 -1 -1 0 -1 -1 -2 0 -1 -1 -1 -1 -2 0 -1 -1 -1 0 -2 -1 -1 -1 -1 0 -2 -1 -1 -1 -1 0 -1 -1 -2 -1 -1 0 -1 -1 -1 0 -20 32 20zm0 -20l-32 20c-5,-9 -3,-21 6,-26 9,-5 21,-2 26,6zm-1 -48l29 -3 3 23 -31 48 -32 -20 31 -48zm32 20l-32 -20c6,-9 17,-11 26,-5 9,5 11,17 6,25zm-75 -41l3 -30 24 3 45 45 -27 27 -45 -45zm27 -27l-27 27c-7,-8 -7,-20 0,-27 8,-7 20,-7 27,0zm-51 60l-20 0 0 -32 47 -31 21 32 -48 31zm-20 -32l20 32c-9,5 -20,3 -26,-6 -5,-9 -3,-20 6,-26zm-19 -8l-14 -14 2 1 1 0 2 0 2 1 2 0 1 1 2 1 2 0 1 1 2 0 2 1 1 0 2 1 2 1 2 0 1 1 2 1 1 1 2 0 2 1 1 1 2 1 2 0 1 1 2 1 1 1 2 1 1 0 2 1 2 1 1 1 2 1 -20 32 -1 -1 -1 0 -1 -1 -2 -1 -1 0 -1 -1 -1 -1 -2 0 -1 -1 -1 -1 -2 0 -1 -1 -1 0 -2 -1 -1 -1 -1 0 -2 -1 -1 0 -1 -1 -2 0 -1 -1 -1 0 -2 -1 -1 0 -1 -1 -2 0 -1 -1 -2 0 -1 0 -2 -1 -1 0 -1 -1 -14 -14 37 -8zm-14 -14l-9 36c-10,-2 -16,-12 -14,-22 3,-10 13,-16 23,-14zm-35 -33l18 -23 19 15 12 55 -37 8 -12 -55zm37 -8l-37 8c-2,-10 4,-20 14,-23 10,-2 20,5 23,15zm-83 23l-18 -23 18 -15 64 0 0 38 -64 0zm0 -38l0 38c-10,0 -18,-9 -18,-19 0,-11 8,-19 18,-19zm7 78l-14 14 -23 -22 12 -55 37 8 -12 55zm-37 -8l37 8c-2,10 -12,17 -22,15 -11,-3 -17,-13 -15,-23zm-19 8l-20 0 2 -1 1 -1 2 -1 1 -1 2 0 1 -1 2 -1 2 -1 1 -1 2 0 1 -1 2 -1 2 -1 1 0 2 -1 2 -1 1 -1 2 0 2 -1 1 -1 2 0 2 -1 1 0 2 -1 2 0 1 -1 2 -1 2 0 2 -1 1 0 2 -1 2 0 9 36 -1 1 -2 0 -1 1 -2 0 -1 0 -1 1 -2 0 -1 1 -2 0 -1 1 -1 0 -2 1 -1 0 -1 1 -2 0 -1 1 -1 0 -2 1 -1 0 -1 1 -2 1 -1 0 -1 1 -2 1 -1 0 -1 1 -1 1 -2 0 -1 1 -1 1 -1 0 -2 1 -19 0 20 -32zm-20 0l19 32c-8,5 -20,3 -25,-6 -6,-9 -3,-21 6,-26zm-48 1l-3 -29 23 -3 48 31 -20 32 -48 -31zm20 -32l-20 32c-9,-6 -11,-17 -6,-26 6,-9 18,-11 26,-6zm-42 75l-29 -4 3 -23 45 -45 26 27 -45 45zm-26 -27l26 27c-7,7 -19,7 -26,0 -8,-8 -8,-20 0,-27zm60 51l0 20 -32 0 -31 -48 32 -20 31 48zm-32 20l32 -20c5,9 3,20 -6,26 -9,5 -20,3 -26,-6zm-8 19l-14 14 0 -2 1 -1 0 -2 1 -2 0 -2 1 -1 0 -2 1 -2 0 -1 1 -2 1 -2 0 -2 1 -1 1 -2 0 -1 1 -2 1 -2 0 -1 1 -2 1 -2 0 -1 1 -2 1 -2 1 -1 1 -2 0 -1 1 -2 1 -1 1 -2 1 -2 1 -1 1 -2 32 20 -1 1 -1 1 0 1 -1 2 -1 1 0 1 -1 1 -1 2 0 1 -1 1 -1 2 0 1 -1 1 0 2 -1 1 0 1 -1 2 -1 1 0 1 -1 2 0 1 -1 1 0 2 -1 1 0 1 0 2 -1 1 0 2 -1 1 0 2 0 1 -1 1 -14 14 -8 -37zm-14 14l36 9c-2,10 -13,16 -23,14 -10,-3 -16,-13 -13,-23zm-34 35l-22 -18 15 -19 55 -12 8 37 -56 12zm-7 -37l7 37c-10,2 -20,-4 -22,-14 -2,-10 4,-20 15,-23zm22 82l-22 19 -15 -19 0 -63 37 0 0 63zm-37 0l37 0c0,11 -8,19 -19,19 -10,0 -18,-8 -18,-19zm78 -6l14 14 -22 23 -55 -12 7 -37 56 12zm-8 37l8 -37c10,2 17,12 14,22 -2,11 -12,17 -22,15zm8 19l0 20 -1 -2 -1 -1 -1 -2 -1 -1 -1 -2 -1 -2 0 -1 -1 -2 -1 -1 -1 -2 -1 -1 0 -2 -1 -2 -1 -1 0 -2 -1 -2 -1 -1 -1 -2 0 -2 -1 -1 0 -2 -1 -2 -1 -1 0 -2 -1 -2 0 -1 -1 -2 0 -2 -1 -2 0 -1 -1 -2 0 -2 36 -9 1 1 0 2 0 1 1 2 0 1 1 1 0 2 0 1 1 2 0 1 1 1 0 2 1 1 0 1 1 2 0 1 1 1 1 2 0 1 1 1 0 2 1 1 1 1 0 1 1 2 1 1 0 1 1 2 1 1 0 1 1 1 1 2 0 19 -32 -20zm0 20l32 -19c5,8 2,20 -7,25 -9,6 -20,3 -25,-6zm1 48l-29 3 -3 -23 31 -48 32 20 -31 48zm-32 -20l32 20c-6,9 -17,11 -26,6 -9,-6 -11,-18 -6,-26zm200 0l0 0 -6 0 -7 0 -6 -1 -7 -1 -6 -2 -6 -2 -6 -2 -6 -2 -6 -3 -5 -2 -6 -4 -5 -3 -5 -4 -5 -3 -5 -4 -4 -5 -5 -4 -4 -5 -4 -5 -3 -5 -3 -5 -4 -6 -2 -5 -3 -6 -2 -6 -2 -6 -2 -6 -2 -6 -1 -7 -1 -6 0 -7 0 -6 37 0 0 4 1 5 0 5 1 4 1 5 1 4 2 4 1 4 2 5 2 4 3 3 2 4 3 4 2 3 3 4 3 3 3 3 4 3 3 2 4 3 4 2 3 3 4 2 5 1 4 2 4 2 4 1 5 1 4 1 5 0 5 1 4 0 0 0 0 37zm130 -129l0 0 0 6 -1 7 0 6 -2 7 -1 6 -2 6 -2 6 -2 6 -3 6 -3 5 -3 6 -3 5 -4 5 -4 5 -4 5 -4 4 -4 5 -5 4 -5 3 -5 4 -5 3 -6 4 -5 2 -6 3 -6 2 -6 2 -6 2 -7 2 -6 1 -6 1 -7 0 -7 0 0 -37 5 0 5 -1 4 0 5 -1 4 -1 5 -1 4 -2 4 -2 4 -1 4 -2 4 -3 4 -2 3 -3 4 -2 3 -3 3 -3 4 -3 2 -4 3 -3 3 -4 2 -4 2 -3 2 -4 2 -5 2 -4 1 -4 2 -4 1 -5 0 -4 1 -5 0 -5 0 -4 0 0 38 0zm-130 -130l0 0 7 0 7 1 6 0 6 2 7 1 6 2 6 2 6 2 6 3 5 3 6 3 5 3 5 4 5 4 5 4 4 4 4 4 4 5 4 5 4 5 3 5 3 6 3 5 3 6 2 6 2 6 2 6 1 7 2 6 0 6 1 7 0 7 -38 0 0 -5 0 -5 -1 -4 0 -5 -1 -4 -2 -5 -1 -4 -2 -4 -2 -4 -2 -4 -2 -4 -2 -4 -3 -3 -3 -4 -2 -3 -4 -4 -3 -3 -3 -2 -4 -3 -3 -3 -4 -2 -4 -2 -4 -2 -4 -2 -4 -2 -4 -1 -5 -2 -4 -1 -5 0 -4 -1 -5 0 -5 0 0 0 0 -38zm-129 130l0 0 0 -7 0 -7 1 -6 1 -6 2 -7 2 -6 2 -6 2 -6 3 -6 2 -5 4 -6 3 -5 3 -5 4 -5 4 -5 5 -4 4 -4 5 -4 5 -4 5 -4 5 -3 6 -3 5 -3 6 -3 6 -2 6 -2 6 -2 6 -1 7 -2 6 0 7 -1 6 0 0 38 -4 0 -5 0 -5 1 -4 0 -5 1 -4 2 -4 1 -4 2 -5 2 -4 2 -3 2 -4 2 -4 3 -3 3 -4 2 -3 3 -3 4 -3 3 -2 4 -3 3 -2 4 -3 4 -2 4 -2 4 -1 4 -2 4 -1 5 -1 4 -1 5 0 4 -1 5 0 5 0 0 -37 0z"/>
   </g>
   <g>
    <path class="fil0" d="M3643 3158l18 0c0,5 -4,9 -9,9 -5,0 -9,-4 -9,-9zm247 -228l-12 0 -12 1 -11 1 -11 2 -12 3 -10 3 -11 3 -10 4 -10 5 -10 5 -10 6 -9 6 -9 6 -9 7 -8 7 -8 7 -8 8 -7 9 -7 8 -6 9 -6 9 -5 10 -5 10 -5 10 -4 10 -4 11 -3 11 -2 11 -2 11 -2 11 -1 12 0 12 -18 0 0 -13 1 -12 2 -13 2 -12 3 -12 3 -11 4 -12 4 -11 5 -11 6 -11 6 -10 6 -10 7 -10 7 -9 8 -9 8 -8 9 -8 9 -8 9 -7 10 -7 10 -7 10 -6 11 -5 11 -5 11 -4 11 -4 12 -4 12 -2 12 -3 12 -1 13 -1 13 0 0 18zm0 -9l0 0 0 0 0 0 0 0 0 0 0 0 0 0 0 0 0 0 0 0 0 0 0 0 0 0 0 0 0 0 0 0 0 0 0 0 0 0 0 0 0 0zm0 9l0 -18c5,0 9,4 9,9 0,5 -4,9 -9,9z"/>
   </g>
   <g>
    <path class="fil0" d="M3631 3135l-9 9c-3,-2 -3,-6 0,-9 3,-3 7,-3 9,0zm26 25l0 10 -10 0 -25 -26 9 -9 26 25zm-10 10l10 -10c2,3 2,7 0,10 -3,2 -7,2 -10,0zm26 -35l9 9 -25 26 -10 -10 26 -25zm9 9l-9 -9c2,-3 7,-3 9,0 3,3 3,7 0,9z"/>
   </g>
   <g>
    <path class="fil0" d="M4145 3154l-18 0c0,-5 4,-9 9,-9 5,0 9,4 9,9zm-247 229l12 -1 12 -1 11 -1 11 -2 11 -3 11 -3 11 -3 10 -4 10 -5 10 -5 10 -5 9 -6 9 -7 9 -7 8 -7 8 -7 7 -8 8 -8 6 -9 7 -9 6 -9 5 -10 5 -10 5 -10 4 -10 3 -11 4 -11 2 -11 2 -11 2 -11 0 -12 1 -12 18 0 -1 13 -1 13 -1 12 -2 12 -3 12 -3 12 -4 11 -5 11 -5 11 -5 11 -6 10 -6 10 -7 10 -8 9 -7 9 -9 8 -8 9 -9 7 -9 8 -10 6 -10 7 -10 6 -11 5 -11 5 -11 5 -12 3 -11 4 -12 2 -12 3 -13 1 -12 1 -13 0 0 -17zm0 9l0 0 0 0 0 0 0 0 0 0 0 0 0 0 0 0 0 0 0 0 0 0 0 0 0 0 0 0 0 0 0 0 0 0 0 0 0 0 0 0 0 0zm0 -9l0 17c-5,0 -9,-4 -9,-8 0,-5 4,-9 9,-9z"/>
   </g>
   <g>
    <path class="fil0" d="M4156 3177l10 -9c2,2 2,7 0,9 -3,3 -7,3 -10,0zm-25 -25l0 -10 9 0 26 26 -10 9 -25 -25zm9 -10l-9 10c-3,-3 -3,-7 0,-10 3,-2 7,-2 9,0zm-25 35l-9 -9 25 -26 9 10 -25 25zm-9 -9l9 9c-3,3 -7,3 -9,0 -3,-2 -3,-7 0,-9z"/>
   </g>
   <g>
    <path class="fil0" d="M2092 2124l-571 0 0 -67 571 0 34 33 -34 34zm0 -67l34 0 0 33 -34 -33zm-34 604l0 -571 68 0 0 571 -34 34 -34 -34zm68 0l0 34 -34 0 34 -34zm-605 -34l571 0 0 68 -571 0 -34 -34 34 -34zm0 68l-34 0 0 -34 34 34zm34 -605l0 571 -68 0 0 -571 34 -33 34 33zm-68 0l0 -33 34 0 -34 33z"/>
   </g>
   <g>
    <path class="fil0" d="M2771 2124l-571 0 0 -67 571 0 33 33 -33 34zm0 -67l33 0 0 33 -33 -33zm-34 604l0 -571 67 0 0 571 -33 34 -34 -34zm67 0l0 34 -33 0 33 -34zm-604 -34l571 0 0 68 -571 0 -34 -34 34 -34zm0 68l-34 0 0 -34 34 34zm34 -605l0 571 -68 0 0 -571 34 -33 34 33zm-68 0l0 -33 34 0 -34 33z"/>
   </g>
   <g>
    <polygon class="fil2" points="1415,2733 2877,2733 2877,2803 1415,2803 "/>
    <path id="1" class="fil0" d="M2877 2737l-1462 0 0 -9 1462 0 5 5 -5 4zm0 -9l5 0 0 5 -5 -5zm-5 75l0 -70 10 0 0 70 -5 5 -5 -5zm10 0l0 5 -5 0 5 -5zm-1467 -5l1462 0 0 10 -1462 0 -5 -5 5 -5zm0 10l-5 0 0 -5 5 5zm5 -75l0 70 -10 0 0 -70 5 -5 5 5zm-10 0l0 -5 5 0 -5 5z"/>
   </g>
   <g>
    <polygon class="fil2" points="1415,2878 2877,2878 2877,2949 1415,2949 "/>
    <path id="1" class="fil0" d="M2877 2883l-1462 0 0 -10 1462 0 5 5 -5 5zm0 -10l5 0 0 5 -5 -5zm-5 76l0 -71 10 0 0 71 -5 5 -5 -5zm10 0l0 5 -5 0 5 -5zm-1467 -5l1462 0 0 10 -1462 0 -5 -5 5 -5zm0 10l-5 0 0 -5 5 5zm5 -76l0 71 -10 0 0 -71 5 -5 5 5zm-10 0l0 -5 5 0 -5 5z"/>
   </g>
   <g>
    <polygon class="fil2" points="2110,2914 2110,2753 2181,2753 2181,2914 "/>
    <path id="1" class="fil0" d="M2115 2753l0 161 -9 0 0 -161 4 -5 5 5zm-9 0l0 -5 4 0 -4 5zm75 5l-71 0 0 -10 71 0 5 5 -5 5zm0 -10l5 0 0 5 -5 -5zm-5 166l0 -161 10 0 0 161 -5 4 -5 -4zm10 0l0 4 -5 0 5 -4zm-76 -5l71 0 0 9 -71 0 -4 -4 4 -5zm0 9l-4 0 0 -4 4 4z"/>
   </g>
   <g>
    <polygon class="fil2" points="1528,2914 1528,2753 1599,2753 1599,2914 "/>
    <path id="1" class="fil0" d="M1533 2753l0 161 -10 0 0 -161 5 -5 5 5zm-10 0l0 -5 5 0 -5 5zm76 5l-71 0 0 -10 71 0 5 5 -5 5zm0 -10l5 0 0 5 -5 -5zm-5 166l0 -161 10 0 0 161 -5 4 -5 -4zm10 0l0 4 -5 0 5 -4zm-76 -5l71 0 0 9 -71 0 -5 -4 5 -5zm0 9l-5 0 0 -4 5 4z"/>
   </g>
   <g>
    <polygon class="fil2" points="2693,2914 2693,2753 2764,2753 2764,2914 "/>
    <path id="1" class="fil0" d="M2698 2753l0 161 -10 0 0 -161 5 -5 5 5zm-10 0l0 -5 5 0 -5 5zm76 5l-71 0 0 -10 71 0 4 5 -4 5zm0 -10l4 0 0 5 -4 -5zm-5 166l0 -161 9 0 0 161 -4 4 -5 -4zm9 0l0 4 -4 0 4 -4zm-75 -5l71 0 0 9 -71 0 -5 -4 5 -5zm0 9l-5 0 0 -4 5 4z"/>
   </g>
   <g>
    <path class="fil0" d="M2427 1444l-571 0 0 -67 571 0 34 33 -34 34zm0 -67l34 0 0 33 -34 -33zm-34 604l0 -571 68 0 0 571 -34 34 -34 -34zm68 0l0 34 -34 0 34 -34zm-605 -34l571 0 0 68 -571 0 -33 -34 33 -34zm0 68l-33 0 0 -34 33 34zm34 -605l0 571 -67 0 0 -571 33 -33 34 33zm-67 0l0 -33 33 0 -33 33z"/>
   </g>
   <g>
    <polygon class="fil0" points="1772,2661 1772,2090 1840,2090 1840,2661 "/>
   </g>
   <g>
    <polygon class="fil0" points="2451,2661 2451,2090 2519,2090 2519,2661 "/>
   </g>
   <g>
    <polygon class="fil0" points="2108,1981 2108,1410 2176,1410 2176,1981 "/>
   </g>
   <g>
    <path class="fil0" d="M2092 2128l-571 0 0 -75 571 0 37 37 -37 38zm0 -75l37 0 0 37 -37 -37zm-38 608l0 -571 75 0 0 571 -37 38 -38 -38zm75 0l0 38 -37 0 37 -38zm-608 -37l571 0 0 75 -571 0 -38 -38 38 -37zm0 75l-38 0 0 -38 38 38zm38 -609l0 571 -76 0 0 -571 38 -37 38 37zm-76 0l0 -37 38 0 -38 37z"/>
   </g>
   <g>
    <path class="fil0" d="M2771 2128l-571 0 0 -75 571 0 37 37 -37 38zm0 -75l37 0 0 37 -37 -37zm-38 608l0 -571 75 0 0 571 -37 38 -38 -38zm75 0l0 38 -37 0 37 -38zm-608 -37l571 0 0 75 -571 0 -38 -38 38 -37zm0 75l-38 0 0 -38 38 38zm37 -609l0 571 -75 0 0 -571 38 -37 37 37zm-75 0l0 -37 38 0 -38 37z"/>
   </g>
   <g>
    <polygon class="fil2" points="1415,2733 2877,2733 2877,2803 1415,2803 "/>
    <path id="1" class="fil0" d="M2877 2737l-1462 0 0 -9 1462 0 5 5 -5 4zm0 -9l5 0 0 5 -5 -5zm-5 75l0 -70 10 0 0 70 -5 5 -5 -5zm10 0l0 5 -5 0 5 -5zm-1467 -5l1462 0 0 10 -1462 0 -5 -5 5 -5zm0 10l-5 0 0 -5 5 5zm5 -75l0 70 -10 0 0 -70 5 -5 5 5zm-10 0l0 -5 5 0 -5 5z"/>
   </g>
   <g>
    <polygon class="fil2" points="1415,2878 2877,2878 2877,2949 1415,2949 "/>
    <path id="1" class="fil0" d="M2877 2883l-1462 0 0 -10 1462 0 5 5 -5 5zm0 -10l5 0 0 5 -5 -5zm-5 76l0 -71 10 0 0 71 -5 5 -5 -5zm10 0l0 5 -5 0 5 -5zm-1467 -5l1462 0 0 10 -1462 0 -5 -5 5 -5zm0 10l-5 0 0 -5 5 5zm5 -76l0 71 -10 0 0 -71 5 -5 5 5zm-10 0l0 -5 5 0 -5 5z"/>
   </g>
   <g>
    <polygon class="fil2" points="2110,2914 2110,2753 2181,2753 2181,2914 "/>
    <path id="1" class="fil0" d="M2115 2753l0 161 -9 0 0 -161 4 -5 5 5zm-9 0l0 -5 4 0 -4 5zm75 5l-71 0 0 -10 71 0 5 5 -5 5zm0 -10l5 0 0 5 -5 -5zm-5 166l0 -161 10 0 0 161 -5 4 -5 -4zm10 0l0 4 -5 0 5 -4zm-76 -5l71 0 0 9 -71 0 -4 -4 4 -5zm0 9l-4 0 0 -4 4 4z"/>
   </g>
   <g>
    <polygon class="fil2" points="1528,2914 1528,2753 1599,2753 1599,2914 "/>
    <path id="1" class="fil0" d="M1533 2753l0 161 -10 0 0 -161 5 -5 5 5zm-10 0l0 -5 5 0 -5 5zm76 5l-71 0 0 -10 71 0 5 5 -5 5zm0 -10l5 0 0 5 -5 -5zm-5 166l0 -161 10 0 0 161 -5 4 -5 -4zm10 0l0 4 -5 0 5 -4zm-76 -5l71 0 0 9 -71 0 -5 -4 5 -5zm0 9l-5 0 0 -4 5 4z"/>
   </g>
   <g>
    <polygon class="fil2" points="2693,2914 2693,2753 2764,2753 2764,2914 "/>
    <path id="1" class="fil0" d="M2698 2753l0 161 -10 0 0 -161 5 -5 5 5zm-10 0l0 -5 5 0 -5 5zm76 5l-71 0 0 -10 71 0 4 5 -4 5zm0 -10l4 0 0 5 -4 -5zm-5 166l0 -161 9 0 0 161 -4 4 -5 -4zm9 0l0 4 -4 0 4 -4zm-75 -5l71 0 0 9 -71 0 -5 -4 5 -5zm0 9l-5 0 0 -4 5 4z"/>
   </g>
   <g>
    <path class="fil0" d="M2427 1448l-571 0 0 -75 571 0 38 37 -38 38zm0 -75l38 0 0 37 -38 -37zm-37 608l0 -571 75 0 0 571 -38 38 -37 -38zm75 0l0 38 -38 0 38 -38zm-609 -37l571 0 0 75 -571 0 -37 -38 37 -37zm0 75l-37 0 0 -38 37 38zm38 -609l0 571 -75 0 0 -571 37 -37 38 37zm-75 0l0 -37 37 0 -37 37z"/>
   </g>
   <g>
    <polygon class="fil0" points="1750,2661 1750,2090 1863,2090 1863,2661 "/>
   </g>
   <g>
    <polygon class="fil0" points="2429,2661 2429,2090 2541,2090 2541,2661 "/>
   </g>
   <g>
    <polygon class="fil0" points="2086,1981 2086,1410 2198,1410 2198,1981 "/>
   </g>
  </g>
 </g>
</svg>
