<?xml version="1.0" encoding="UTF-8"?>
<!DOCTYPE svg PUBLIC "-//W3C//DTD SVG 1.1//EN" "http://www.w3.org/Graphics/SVG/1.1/DTD/svg11.dtd">
<!-- Creator: CorelDRAW X8 -->
<svg xmlns="http://www.w3.org/2000/svg" xml:space="preserve" width="50mm" height="50mm" version="1.1" style="shape-rendering:geometricPrecision; text-rendering:geometricPrecision; image-rendering:optimizeQuality; fill-rule:evenodd; clip-rule:evenodd"
viewBox="0 0 5000 5000"
 xmlns:xlink="http://www.w3.org/1999/xlink">
 <defs>
  <style type="text/css">
   <![CDATA[
    .str0 {stroke:#243D64;stroke-width:203.7;stroke-linecap:round;stroke-linejoin:round}
    .fil0 {fill:none}
    .fil1 {fill:#243D64;fill-rule:nonzero}
   ]]>
  </style>
 </defs>
 <g id="Capa_x0020_1">
  <metadata id="CorelCorpID_0Corel-Layer"/>
  <path class="fil0 str0" d="M1128 893l2220 0 715 715 0 2385c0,94 -77,170 -170,170l-2765 0c-93,0 -170,-76 -170,-170l0 -2930c0,-93 77,-170 170,-170z"/>
  <g>
   <path class="fil1" d="M3464 2780l-1907 0 0 -204 1907 0 0 0 0 204zm183 -21l-203 0 0 0 0 1 0 1 0 2 1 1 0 1 0 1 1 1 0 1 0 1 1 1 0 1 1 0 0 1 1 1 1 1 0 0 1 1 1 0 0 1 1 1 1 0 1 1 1 0 1 0 0 1 1 0 1 0 1 1 1 0 1 0 1 0 1 0 0 -204 10 1 9 0 9 1 9 2 9 2 8 3 9 2 8 4 8 3 8 4 8 5 7 5 7 5 7 5 7 6 6 6 6 6 6 7 5 7 5 7 5 7 4 8 4 8 4 8 3 8 3 9 3 9 2 8 1 9 2 10 0 9 1 9 0 0zm-203 1323l0 -1323 203 0 0 1323 0 0 -203 0zm20 183l0 -204 0 0 -1 0 -1 0 -1 0 -1 1 -1 0 -1 0 -1 0 -1 1 0 0 -1 1 -1 0 -1 1 -1 0 0 1 -1 0 -1 1 0 1 -1 0 -1 1 0 1 -1 1 0 0 -1 1 0 1 0 1 -1 1 0 1 0 1 -1 2 0 1 0 1 0 1 203 0 -1 9 0 9 -2 10 -1 9 -2 9 -3 8 -3 9 -3 8 -4 9 -4 7 -4 8 -5 8 -5 7 -5 6 -6 7 -6 6 -6 6 -7 6 -7 6 -7 5 -7 4 -8 5 -8 4 -8 3 -8 4 -9 3 -8 2 -9 2 -9 2 -9 1 -9 1 -10 0 0 0zm-1907 -204l1907 0 0 204 -1907 0 0 0 0 -204zm-182 21l202 0 0 0 0 -1 0 -1 0 -1 0 -2 -1 -1 0 -1 0 -1 -1 -1 0 -1 -1 -1 0 0 -1 -1 0 -1 -1 -1 0 0 -1 -1 -1 -1 0 0 -1 -1 -1 0 -1 -1 0 0 -1 -1 -1 0 -1 -1 -1 0 -1 0 -1 0 -1 -1 -1 0 -1 0 -1 0 0 204 -9 0 -9 -1 -10 -1 -9 -2 -8 -2 -9 -2 -9 -3 -8 -4 -8 -3 -8 -4 -7 -5 -8 -4 -7 -5 -7 -6 -6 -6 -7 -6 -6 -6 -5 -7 -6 -6 -5 -7 -5 -8 -4 -8 -4 -7 -4 -9 -3 -8 -3 -9 -3 -8 -2 -9 -1 -9 -1 -10 -1 -9 0 -9 0 0zm202 -1323l0 1323 -202 0 0 -1323 0 0 202 0zm-20 -183l0 204 0 0 1 0 1 0 1 0 1 0 1 -1 1 0 1 0 1 -1 1 0 1 0 0 -1 1 0 1 -1 1 -1 0 0 1 -1 1 0 0 -1 1 -1 0 -1 1 0 0 -1 1 -1 0 -1 1 -1 0 -1 0 -1 1 -1 0 -1 0 -2 0 -1 0 -1 -202 0 0 -9 1 -9 1 -10 1 -9 2 -8 3 -9 3 -9 3 -8 4 -8 4 -8 4 -8 5 -7 5 -7 6 -7 5 -7 6 -6 7 -6 6 -6 7 -5 7 -5 8 -5 7 -5 8 -4 8 -3 8 -4 9 -2 9 -3 8 -2 9 -2 10 -1 9 0 9 -1 0 0z"/>
  </g>
  <g>
   <path class="fil1" d="M3172 995l-1322 0 0 -204 1322 0 0 0 0 204zm159 -44l-204 0 0 0 0 2 1 2 0 3 0 2 1 2 1 2 0 2 1 2 1 2 1 2 1 2 1 2 1 2 1 1 2 2 1 1 2 2 1 1 2 1 2 2 1 1 2 1 2 1 2 1 2 0 2 1 3 1 2 0 2 1 2 0 2 0 3 0 0 -204 8 1 8 0 8 1 8 2 7 1 8 3 7 2 8 3 7 3 7 4 6 4 7 4 6 4 6 5 6 5 5 5 5 6 6 5 4 6 5 7 4 6 4 7 3 7 3 7 3 7 3 7 2 8 2 8 1 8 1 8 1 8 0 8 0 0zm-204 940l0 -940 204 0 0 940 0 0 -204 0zm45 160l0 -204 0 0 -3 0 -2 0 -2 0 -2 1 -2 0 -3 1 -2 1 -2 0 -2 1 -2 1 -2 1 -1 1 -2 2 -2 1 -1 1 -2 2 -1 1 -2 2 -1 1 -1 2 -1 2 -1 2 -1 2 -1 2 -1 2 0 2 -1 2 -1 2 0 2 0 3 -1 2 0 2 204 0 0 8 -1 8 -1 8 -1 8 -2 8 -2 8 -3 7 -3 7 -3 7 -3 7 -4 7 -4 6 -5 7 -4 6 -6 5 -5 6 -5 5 -6 5 -6 5 -6 4 -7 4 -6 4 -7 4 -7 3 -8 3 -7 2 -8 3 -7 1 -8 2 -8 1 -8 0 -8 1 0 0zm-1322 -204l1322 0 0 204 -1322 0 0 0 0 -204zm-160 44l204 0 0 0 0 -2 0 -2 -1 -3 0 -2 -1 -2 0 -2 -1 -2 -1 -2 -1 -2 -1 -2 -1 -2 -1 -2 -1 -2 -1 -1 -2 -2 -1 -1 -2 -2 -1 -1 -2 -1 -1 -2 -2 -1 -2 -1 -2 -1 -2 -1 -2 0 -2 -1 -2 -1 -3 0 -2 -1 -2 0 -2 0 -2 0 0 204 -8 -1 -8 0 -9 -1 -7 -2 -8 -1 -8 -3 -7 -2 -7 -3 -8 -3 -6 -4 -7 -4 -7 -4 -6 -4 -6 -5 -6 -5 -5 -5 -5 -6 -5 -5 -5 -6 -4 -7 -5 -6 -3 -7 -4 -7 -3 -7 -3 -7 -3 -7 -2 -8 -2 -8 -1 -8 -1 -8 -1 -8 0 -8 0 0zm204 -940l0 940 -204 0 0 -940 0 0 204 0zm-44 -160l0 204 0 0 2 0 2 0 2 0 2 -1 3 0 2 -1 2 -1 2 0 2 -1 2 -1 2 -1 2 -1 1 -2 2 -1 1 -1 2 -2 1 -1 2 -2 1 -1 1 -2 1 -2 1 -2 1 -2 1 -2 1 -2 1 -2 0 -2 1 -2 0 -2 1 -3 0 -2 0 -2 -204 0 0 -8 1 -8 1 -8 1 -8 2 -8 2 -8 3 -7 3 -7 3 -7 4 -7 3 -7 5 -6 4 -7 5 -6 5 -5 5 -6 5 -5 6 -5 6 -5 6 -4 7 -4 7 -4 6 -4 8 -3 7 -3 7 -2 8 -3 8 -1 7 -2 9 -1 8 0 8 -1 0 0z"/>
  </g>
 </g>
</svg>
