<?xml version="1.0" encoding="UTF-8"?>
<!DOCTYPE svg PUBLIC "-//W3C//DTD SVG 1.1//EN" "http://www.w3.org/Graphics/SVG/1.1/DTD/svg11.dtd">
<!-- Creator: CorelDRAW X8 -->
<svg xmlns="http://www.w3.org/2000/svg" xml:space="preserve" width="55mm" height="55mm" version="1.1" style="shape-rendering:geometricPrecision; text-rendering:geometricPrecision; image-rendering:optimizeQuality; fill-rule:evenodd; clip-rule:evenodd"
viewBox="0 0 5500 5500"
 xmlns:xlink="http://www.w3.org/1999/xlink">
 <defs>
  <style type="text/css">
   <![CDATA[
    .str2 {stroke:#373435;stroke-width:308.13;stroke-linejoin:round}
    .str3 {stroke:#373435;stroke-width:308.13;stroke-linecap:round;stroke-linejoin:round}
    .str4 {stroke:#373435;stroke-width:308.13;stroke-linecap:round;stroke-linejoin:round}
    .str5 {stroke:#373435;stroke-width:308.13;stroke-linecap:round;stroke-linejoin:round}
    .str1 {stroke:#373435;stroke-width:308.13;stroke-linecap:round;stroke-linejoin:round}
    .str0 {stroke:#373435;stroke-width:308.13;stroke-linecap:round;stroke-linejoin:round}
    .fil0 {fill:none}
    .fil1 {fill:#373435;fill-rule:nonzero}
   ]]>
  </style>
 </defs>
 <g id="Capa_x0020_1">
  <metadata id="CorelCorpID_0Corel-Layer"/>
  <g id="_1888709411168">
   <g>
    <path class="fil0 str0" d="M1168 284l2805 0 1174 1630 0 2487c0,448 -367,815 -815,815l-3164 0c-448,0 -815,-367 -815,-815l0 -3302c0,-448 367,-815 815,-815z"/>
   </g>
   <g>
    <path class="fil0 str1" d="M1119 5215l3278 0 0 -2175c0,-220 -180,-400 -401,-400l-2476 0c-221,0 -401,180 -401,400l0 2175z"/>
   </g>
   <g>
    <path class="fil1" d="M3492 136l155 154 -155 154 -2373 0 0 -308 2373 0zm0 308l0 -308c85,0 155,69 155,154 0,85 -70,154 -155,154zm155 478l-310 0 0 -632 310 0 0 632zm-617 308l0 0 15 0 16 -1 15 -2 15 -3 15 -3 14 -4 14 -5 14 -6 14 -6 13 -7 13 -7 13 -8 12 -9 11 -9 12 -10 10 -10 11 -11 9 -11 10 -12 8 -12 8 -12 8 -13 7 -14 6 -13 5 -14 5 -14 4 -15 4 -15 2 -15 2 -15 2 -16 0 -16 310 0 -1 32 -2 31 -4 31 -6 30 -7 30 -8 29 -10 29 -11 28 -12 27 -14 26 -15 26 -16 25 -17 24 -18 24 -20 22 -20 21 -21 21 -23 19 -23 18 -24 18 -25 16 -26 15 -27 13 -27 13 -28 11 -29 10 -29 8 -30 7 -31 5 -30 4 -32 3 -31 0 0 0 0 -308zm-1449 308l0 -308 1449 0 0 308 -1449 0zm-307 -616l0 0 0 16 2 16 2 15 2 15 4 15 4 15 5 14 5 14 6 13 7 14 8 13 8 12 8 12 10 12 9 11 11 11 10 10 12 10 11 9 12 9 13 8 13 7 13 7 14 6 13 6 15 5 14 4 15 3 15 3 15 2 16 1 15 0 0 308 -31 0 -32 -3 -30 -4 -31 -5 -30 -7 -29 -8 -29 -10 -28 -11 -27 -13 -27 -13 -26 -15 -25 -16 -24 -18 -23 -18 -23 -19 -21 -21 -20 -21 -20 -22 -18 -24 -17 -24 -16 -25 -15 -26 -14 -26 -12 -27 -11 -28 -10 -29 -8 -29 -7 -30 -6 -30 -4 -31 -2 -31 -1 -32 0 0 310 0zm-310 -632l155 -154 155 154 0 632 -310 0 0 -632zm310 0l-310 0c0,-85 70,-154 155,-154 86,0 155,69 155,154z"/>
   </g>
   <g>
    <line class="fil0 str2" x1="2864" y1="284" x2="2864" y2= "895" />
   </g>
   <g>
    <line class="fil0 str3" x1="1759" y1="3349" x2="3757" y2= "3349" />
   </g>
   <g>
    <line class="fil0 str4" x1="1759" y1="3934" x2="3757" y2= "3934" />
   </g>
   <g>
    <line class="fil0 str5" x1="1759" y1="4520" x2="3757" y2= "4520" />
   </g>
  </g>
 </g>
</svg>
