<?xml version="1.0" encoding="utf-8"?>
<!-- Generator: Adobe Illustrator 25.2.1, SVG Export Plug-In . SVG Version: 6.00 Build 0)  -->
<svg version="1.1" id="Capa_1" xmlns="http://www.w3.org/2000/svg" xmlns:xlink="http://www.w3.org/1999/xlink" x="0px" y="0px"
	 viewBox="0 0 100 100" style="enable-background:new 0 0 100 100;" xml:space="preserve">
<style type="text/css">
	.st0{fill:none;stroke:#FFF;stroke-width:5;stroke-linecap:round;stroke-linejoin:round;stroke-miterlimit:10;}
</style>
<g>
	<path class="st0" d="M94.35,39.15v43.1c0,7.33-5.79,13.27-12.93,13.27H18.58c-7.14,0-12.93-5.94-12.93-13.27V17.75
		c0-7.33,5.79-13.27,12.93-13.27h49.74c3.5,0,6.79,1.75,8.82,4.68l14.38,20.86C93.36,32.69,94.35,35.88,94.35,39.15z"/>
	<path class="st0" d="M80.14,95.52H21.16c-0.72,0-1.31-0.59-1.31-1.31V55.98c0-4.97,4.03-9,9-9h42.29c4.97,0,9,4.03,9,9V95.52z"/>
	<path class="st0" d="M63.41,4.48H21.16c-0.72,0-1.31,0.59-1.31,1.31v9.69c0,4.97,4.03,9,9,9h25.56c4.97,0,9-4.03,9-9V4.48z"/>
	<line class="st0" x1="51.79" y1="4.48" x2="51.79" y2="15.52"/>
	<line class="st0" x1="31.23" y1="60.29" x2="68.77" y2="60.54"/>
	<line class="st0" x1="31.23" y1="71.13" x2="68.77" y2="71.37"/>
	<line class="st0" x1="31.23" y1="81.96" x2="68.77" y2="82.2"/>
</g>
</svg>
