<?xml version="1.0" encoding="utf-8"?>
<!-- Generator: Adobe Illustrator 25.2.1, SVG Export Plug-In . SVG Version: 6.00 Build 0)  -->
<svg version="1.1" id="Capa_2" xmlns="http://www.w3.org/2000/svg" xmlns:xlink="http://www.w3.org/1999/xlink" x="0px" y="0px"
	 viewBox="0 0 100 100" style="enable-background:new 0 0 100 100;" xml:space="preserve">
<style type="text/css">
	.st0{fill:none;stroke:#000000;stroke-width:5;stroke-linecap:round;stroke-linejoin:round;stroke-miterlimit:10;}
</style>
<path class="st0" d="M50.05,57.75L28.44,79.37c0.31,1.03,0.47,2.12,0.47,3.25c0,6.37-5.16,11.53-11.53,11.53S5.84,88.99,5.84,82.62
	s5.17-11.54,11.54-11.54c1.13,0,2.22,0.16,3.25,0.47l21.61-21.61L50.05,57.75z"/>
<path class="st0" d="M94.16,25.85c0,11.03-8.96,20-20,20c-3.52,0-6.82-0.92-9.69-2.52l-6.72,6.73l-7.81-7.81l6.72-6.73
	c-1.59-2.87-2.5-6.17-2.5-9.67c0-11.06,8.95-20,20-20c3.54,0,6.87,0.91,9.75,2.53L70.49,21.8c-1.42,1.09-2.33,2.81-2.33,4.74
	c0,3.32,2.68,6,6,6c1.9,0,3.59-0.88,4.69-2.25l13.26-13.27C93.43,19.68,94.16,22.67,94.16,25.85z"/>
<path class="st0" d="M91.89,87.26l-4.63,4.63c-2.93,2.92-7.54,3.05-10.3,0.29L59.91,75.13c-2.26-2.26-2.6-5.76-1.04-8.56
	L42.24,49.94L31.78,39.48l-12.34-0.6L5.83,17.84L17.84,5.83l21.04,13.62l0.6,12.34l27.08,27.08c2.81-1.56,6.31-1.23,8.57,1.03
	l17.05,17.05C94.95,79.72,94.81,84.33,91.89,87.26z"/>
</svg>
