<?xml version="1.0" encoding="UTF-8"?>
<!DOCTYPE svg PUBLIC "-//W3C//DTD SVG 1.1//EN" "http://www.w3.org/Graphics/SVG/1.1/DTD/svg11.dtd">
<!-- Creator: CorelDRAW X8 -->
<svg xmlns="http://www.w3.org/2000/svg" xml:space="preserve" width="44mm" height="42mm" version="1.1" style="shape-rendering:geometricPrecision; text-rendering:geometricPrecision; image-rendering:optimizeQuality; fill-rule:evenodd; clip-rule:evenodd"
viewBox="0 0 4400 4200"
 xmlns:xlink="http://www.w3.org/1999/xlink">
 <defs>
  <style type="text/css">
   <![CDATA[
    .str0 {stroke:#00A859;stroke-width:206.97;stroke-linecap:round;stroke-linejoin:round}
    .fil3 {fill:none}
    .fil2 {fill:#FEFEFE}
    .fil1 {fill:#373435;fill-rule:nonzero}
    .fil4 {fill:#FFF212;fill-rule:nonzero}
    .fil0 {fill:#3E4095;fill-rule:nonzero}
   ]]>
  </style>
 </defs>
 <g id="Capa_x0020_1">
  <metadata id="CorelCorpID_0Corel-Layer"/>
  <g id="_1050592720">
   <g>
    <path class="fil0" d="M2663 725l-1908 445 -55 -235 1908 -445 55 235zm762 273l-235 55 0 0 -5 -22 -7 -21 -8 -20 -8 -20 -10 -20 -10 -19 -12 -18 -12 -18 -13 -16 -14 -17 -14 -15 -15 -15 -16 -14 -17 -13 -17 -13 -18 -11 -18 -11 -19 -10 -19 -9 -20 -8 -19 -7 -21 -6 -20 -5 -21 -5 -22 -3 -21 -2 -21 -1 -22 0 -22 1 -22 2 -22 4 -22 4 -55 -235 34 -7 35 -5 34 -4 34 -1 33 0 34 1 33 4 33 5 33 6 32 8 31 10 31 11 30 12 30 14 29 15 28 17 27 18 26 19 26 20 25 22 23 23 23 24 21 25 20 26 19 27 18 29 16 29 15 30 13 32 12 32 11 33 8 33 0 0zm184 1851l-419 -1796 235 -55 419 1796 0 0 -235 55zm-273 762l-55 -235 0 0 22 -6 21 -6 21 -8 20 -9 19 -9 19 -11 18 -11 18 -12 17 -13 16 -14 16 -15 14 -15 14 -16 14 -16 12 -17 12 -18 10 -18 10 -19 9 -19 8 -20 7 -20 7 -20 5 -21 4 -21 3 -21 2 -21 1 -22 0 -21 -1 -22 -2 -22 -4 -22 -4 -22 235 -55 7 34 5 34 4 34 2 34 0 34 -2 34 -3 33 -5 33 -7 32 -8 32 -9 32 -11 31 -13 30 -14 29 -15 29 -16 28 -18 28 -19 26 -21 26 -21 24 -23 24 -24 22 -26 22 -26 20 -27 19 -28 17 -30 17 -30 15 -31 13 -32 12 -33 10 -34 9 0 0zm-1963 210l1908 -445 55 235 -1908 445 -55 -235zm-762 -273l235 -55 0 0 5 22 7 21 8 21 8 20 10 19 10 19 12 18 12 18 13 17 14 16 14 15 16 15 15 14 17 13 17 13 18 11 18 11 19 10 19 9 20 8 20 7 20 6 21 6 20 4 22 3 21 2 21 1 22 0 22 -1 22 -2 22 -4 22 -4 55 235 -34 7 -34 5 -35 4 -34 1 -33 1 -34 -2 -33 -3 -33 -5 -32 -7 -32 -8 -32 -9 -31 -11 -30 -13 -30 -14 -29 -15 -28 -16 -27 -18 -26 -19 -26 -21 -24 -22 -24 -22 -22 -24 -22 -26 -20 -26 -19 -27 -18 -28 -16 -30 -15 -30 -13 -31 -12 -33 -11 -33 -8 -33 0 0zm-184 -1850l419 1795 -235 55 -419 -1796 235 -54zm273 -763l55 235 0 0 -22 6 -21 7 -21 7 -20 9 -19 10 -19 10 -18 11 -18 13 -17 13 -16 13 -15 15 -15 15 -14 16 -14 16 -12 18 -12 17 -10 19 -10 18 -9 20 -8 19 -7 20 -6 20 -6 21 -4 21 -3 21 -2 21 -1 22 0 22 1 21 2 22 4 22 4 23 -235 54 -7 -34 -5 -34 -4 -34 -2 -34 0 -34 2 -33 3 -34 5 -33 7 -32 8 -32 9 -31 11 -31 13 -31 14 -29 15 -29 16 -28 18 -27 19 -27 21 -25 22 -25 22 -23 24 -23 26 -21 26 -20 27 -19 28 -18 30 -16 30 -15 31 -14 33 -12 32 -10 34 -9 0 0z"/>
   </g>
   <g>
    <path class="fil1" d="M3545 368l-1959 0 0 -242 1959 0 0 0 0 242zm681 439l-242 0 0 0 0 -23 -2 -22 -3 -22 -4 -21 -5 -21 -5 -21 -7 -21 -8 -19 -9 -20 -10 -19 -10 -18 -12 -18 -12 -17 -13 -17 -14 -16 -15 -15 -15 -15 -16 -14 -17 -13 -17 -12 -18 -12 -18 -10 -19 -10 -20 -9 -19 -8 -21 -6 -21 -6 -21 -5 -21 -4 -22 -3 -22 -2 -23 0 0 -242 35 1 35 3 34 4 33 6 33 8 32 9 32 11 31 12 30 14 29 15 29 16 27 18 27 19 26 20 24 22 24 22 22 24 22 24 20 26 19 27 18 27 16 29 15 29 14 30 12 31 11 32 9 32 8 33 6 33 4 34 3 35 1 35 0 0zm-242 1843l0 -1843 242 0 0 1843 0 0 -242 0zm-439 681l0 -242 0 0 23 0 22 -2 22 -3 21 -4 21 -4 21 -6 21 -7 19 -8 20 -9 19 -10 18 -10 18 -12 17 -12 17 -13 16 -14 15 -15 15 -15 14 -16 13 -17 12 -17 12 -18 10 -18 10 -19 9 -20 8 -19 7 -21 5 -20 5 -22 4 -21 3 -22 2 -22 0 -23 242 0 -1 35 -3 35 -4 34 -6 33 -8 33 -9 32 -11 32 -12 31 -14 30 -15 29 -16 29 -18 27 -19 27 -20 26 -22 24 -22 24 -24 23 -24 21 -26 20 -27 19 -27 18 -29 16 -29 15 -30 14 -31 12 -32 11 -32 9 -33 8 -33 6 -34 4 -35 3 -35 1 0 0zm-1959 -242l1959 0 0 242 -1959 0 0 0 0 -242zm-680 -439l241 0 0 0 1 23 1 22 3 22 4 21 5 22 6 20 7 21 8 19 8 20 10 19 11 18 11 18 12 17 14 17 13 16 15 15 15 15 16 14 17 13 17 12 18 12 19 10 18 10 20 9 20 8 20 7 21 6 21 4 21 4 22 3 23 2 22 0 0 242 -35 -1 -34 -3 -34 -4 -34 -6 -33 -8 -32 -9 -32 -11 -30 -12 -31 -14 -29 -15 -28 -16 -28 -18 -27 -19 -25 -20 -25 -21 -24 -23 -22 -24 -22 -24 -20 -26 -19 -27 -17 -27 -17 -29 -15 -29 -14 -30 -12 -31 -11 -32 -9 -32 -8 -33 -6 -33 -4 -34 -3 -35 0 -35 0 0zm241 -1843l0 1843 -241 0 0 -1843 0 0 241 0zm439 -681l0 242 0 0 -22 0 -23 2 -22 3 -21 4 -21 5 -21 6 -20 6 -20 8 -20 9 -18 10 -19 10 -18 12 -17 12 -17 13 -16 14 -15 15 -15 15 -13 16 -14 17 -12 17 -11 18 -11 18 -10 19 -8 20 -8 19 -7 21 -6 21 -5 21 -4 21 -3 22 -1 22 -1 23 -241 0 0 -35 3 -35 4 -34 6 -33 8 -33 9 -32 11 -32 12 -31 14 -30 15 -29 17 -29 17 -27 19 -27 20 -26 22 -24 22 -24 24 -22 25 -22 25 -20 27 -19 28 -18 28 -16 29 -15 31 -14 30 -12 32 -11 32 -9 33 -8 34 -6 34 -4 34 -3 35 -1 0 0z"/>
    <path id="1" class="fil2" d="M1586 247l1959 0c308,0 560,252 560,560l0 1843c0,308 -252,560 -560,560l-1959 0c-308,0 -560,-252 -560,-560l0 -1843c0,-308 252,-560 560,-560z"/>
   </g>
   <g>
    <polyline class="fil3 str0" points="1026,2310 1787,1506 2821,2626 3517,1924 4105,2419 "/>
   </g>
   <g>
    <path class="fil4" d="M3456 983l-209 0 0 0 0 -12 -1 -13 -1 -12 -3 -12 -2 -11 -3 -12 -4 -11 -5 -11 -4 -11 -6 -10 -6 -10 -6 -10 -7 -10 -7 -9 -7 -8 -8 -9 -9 -8 -9 -7 -9 -8 -9 -6 -10 -7 -10 -5 -10 -6 -11 -4 -11 -5 -11 -3 -11 -4 -12 -2 -12 -2 -12 -2 -12 -1 -12 0 0 -207 23 0 23 2 22 3 22 4 22 5 22 6 20 7 21 8 20 9 19 10 19 11 18 12 18 12 17 13 16 15 16 14 15 16 14 16 13 17 12 18 12 18 11 19 10 19 9 20 8 20 7 21 6 21 5 22 4 22 3 23 1 22 1 23 0 0zm-449 449l0 -207 0 0 12 -1 12 -1 12 -1 12 -2 12 -3 11 -3 11 -4 11 -4 11 -5 10 -5 10 -6 10 -6 9 -7 9 -7 9 -8 9 -8 8 -8 7 -9 7 -9 7 -10 6 -9 6 -10 6 -11 4 -11 5 -11 4 -11 3 -11 2 -12 3 -12 1 -12 1 -12 0 -13 209 0 -1 23 -1 23 -3 22 -4 22 -5 22 -6 21 -7 21 -8 20 -9 20 -10 20 -11 18 -12 19 -12 17 -13 17 -14 16 -15 16 -16 15 -16 14 -17 13 -18 13 -18 11 -19 11 -19 10 -20 9 -21 8 -20 7 -22 6 -22 5 -22 4 -22 3 -23 2 -23 1 0 0zm-450 -449l209 0 0 0 0 13 1 12 2 12 2 12 3 12 3 11 4 11 4 11 5 11 5 11 6 10 6 9 7 10 7 9 8 9 8 8 8 8 9 8 9 7 10 7 9 6 10 6 11 5 10 5 11 4 11 4 12 3 11 3 12 2 12 1 12 1 13 1 0 207 -23 -1 -23 -2 -23 -3 -22 -4 -22 -5 -21 -6 -21 -7 -20 -8 -20 -9 -20 -10 -19 -11 -18 -11 -17 -13 -17 -13 -17 -14 -15 -15 -15 -16 -14 -16 -13 -17 -13 -17 -12 -19 -10 -18 -10 -20 -9 -20 -8 -20 -7 -21 -6 -21 -5 -22 -4 -22 -3 -22 -2 -23 -1 -23 0 0zm450 -448l0 207 0 0 -13 0 -12 1 -12 2 -12 2 -11 2 -12 4 -11 3 -11 5 -10 4 -11 6 -10 5 -9 7 -10 6 -9 8 -9 7 -8 8 -8 9 -8 8 -7 9 -7 10 -6 10 -6 10 -5 10 -5 11 -4 11 -4 11 -3 12 -3 11 -2 12 -2 12 -1 13 0 12 -209 0 1 -23 2 -22 3 -23 4 -22 5 -22 6 -21 7 -21 8 -20 9 -20 10 -19 10 -19 12 -18 13 -18 13 -17 14 -16 15 -16 15 -14 17 -15 17 -13 17 -12 18 -12 19 -11 20 -10 20 -9 20 -8 21 -7 21 -6 22 -5 22 -4 23 -3 23 -2 23 0 0 0z"/>
   </g>
   <g>
    <path class="fil0" d="M3545 368l-1959 0 0 -242 1959 0 0 0 0 242zm681 439l-242 0 0 0 0 -23 -2 -22 -3 -22 -4 -21 -5 -21 -5 -21 -7 -21 -8 -19 -9 -20 -10 -19 -10 -18 -12 -18 -12 -17 -13 -17 -14 -16 -15 -15 -15 -15 -16 -14 -17 -13 -17 -12 -18 -12 -18 -10 -19 -10 -20 -9 -19 -8 -21 -6 -21 -6 -21 -5 -21 -4 -22 -3 -22 -2 -23 0 0 -242 35 1 35 3 34 4 33 6 33 8 32 9 32 11 31 12 30 14 29 15 29 16 27 18 27 19 26 20 24 22 24 22 22 24 22 24 20 26 19 27 18 27 16 29 15 29 14 30 12 31 11 32 9 32 8 33 6 33 4 34 3 35 1 35 0 0zm-242 1843l0 -1843 242 0 0 1843 0 0 -242 0zm-439 681l0 -242 0 0 23 0 22 -2 22 -3 21 -4 21 -4 21 -6 21 -7 19 -8 20 -9 19 -10 18 -10 18 -12 17 -12 17 -13 16 -14 15 -15 15 -15 14 -16 13 -17 12 -17 12 -18 10 -18 10 -19 9 -20 8 -19 7 -21 5 -20 5 -22 4 -21 3 -22 2 -22 0 -23 242 0 -1 35 -3 35 -4 34 -6 33 -8 33 -9 32 -11 32 -12 31 -14 30 -15 29 -16 29 -18 27 -19 27 -20 26 -22 24 -22 24 -24 23 -24 21 -26 20 -27 19 -27 18 -29 16 -29 15 -30 14 -31 12 -32 11 -32 9 -33 8 -33 6 -34 4 -35 3 -35 1 0 0zm-1959 -242l1959 0 0 242 -1959 0 0 0 0 -242zm-680 -439l241 0 0 0 1 23 1 22 3 22 4 21 5 22 6 20 7 21 8 19 8 20 10 19 11 18 11 18 12 17 14 17 13 16 15 15 15 15 16 14 17 13 17 12 18 12 19 10 18 10 20 9 20 8 20 7 21 6 21 4 21 4 22 3 23 2 22 0 0 242 -35 -1 -34 -3 -34 -4 -34 -6 -33 -8 -32 -9 -32 -11 -30 -12 -31 -14 -29 -15 -28 -16 -28 -18 -27 -19 -25 -20 -25 -21 -24 -23 -22 -24 -22 -24 -20 -26 -19 -27 -17 -27 -17 -29 -15 -29 -14 -30 -12 -31 -11 -32 -9 -32 -8 -33 -6 -33 -4 -34 -3 -35 0 -35 0 0zm241 -1843l0 1843 -241 0 0 -1843 0 0 241 0zm439 -681l0 242 0 0 -22 0 -23 2 -22 3 -21 4 -21 5 -21 6 -20 6 -20 8 -20 9 -18 10 -19 10 -18 12 -17 12 -17 13 -16 14 -15 15 -15 15 -13 16 -14 17 -12 17 -11 18 -11 18 -10 19 -8 20 -8 19 -7 21 -6 21 -5 21 -4 21 -3 22 -1 22 -1 23 -241 0 0 -35 3 -35 4 -34 6 -33 8 -33 9 -32 11 -32 12 -31 14 -30 15 -29 17 -29 17 -27 19 -27 20 -26 22 -24 22 -24 24 -22 25 -22 25 -20 27 -19 28 -18 28 -16 29 -15 31 -14 30 -12 32 -11 32 -9 33 -8 34 -6 34 -4 34 -3 35 -1 0 0z"/>
   </g>
  </g>
 </g>
</svg>
