<?xml version="1.0" encoding="utf-8"?>
<!-- Generator: Adobe Illustrator 25.2.1, SVG Export Plug-In . SVG Version: 6.00 Build 0)  -->
<svg version="1.1" id="Capa_1" xmlns="http://www.w3.org/2000/svg" xmlns:xlink="http://www.w3.org/1999/xlink" x="0px" y="0px"
	 viewBox="0 0 100 100" style="enable-background:new 0 0 100 100;" xml:space="preserve">
<style type="text/css">
	.st0{fill:#FFFFFF;stroke:#000000;stroke-width:5;stroke-miterlimit:10;}
	.st1{fill:#FFFFFF;stroke:#000000;stroke-width:5;stroke-linecap:round;stroke-miterlimit:10;}
</style>
<g>
	<path class="st0" d="M85.46,28.91l-0.63,59.02c0,3.78-3.27,6.85-7.3,6.85H21.84c-4.03,0-7.3-3.07-7.3-6.85V12.07
		c0-3.78,3.27-6.85,7.3-6.85h38.67L85.46,28.91z"/>
	<path class="st0" d="M58.77,16.8"/>
	<path class="st0" d="M84.83,24.53"/>
	<path class="st0" d="M56.72,23.74l0.01-16.66c0-1.78,2.12-2.7,3.42-1.48l23.96,22.48c1.34,1.26,0.45,3.51-1.39,3.51l-18.15,0.01
		C60.23,31.6,56.71,28.08,56.72,23.74z"/>
</g>
<g>
	<line class="st1" x1="50" y1="79.91" x2="50" y2="43.48"/>
	<line class="st1" x1="33.58" y1="56.7" x2="50" y2="43.48"/>
	<line class="st1" x1="66.42" y1="56.7" x2="50" y2="43.48"/>
</g>
</svg>
