<?xml version="1.0" encoding="utf-8"?>
<!-- Generator: Adobe Illustrator 25.2.1, SVG Export Plug-In . SVG Version: 6.00 Build 0)  -->
<svg version="1.1" id="Capa_2" xmlns="http://www.w3.org/2000/svg" xmlns:xlink="http://www.w3.org/1999/xlink" x="0px" y="0px"
	 viewBox="0 0 100 100" style="enable-background:new 0 0 100 100;" xml:space="preserve">
<style type="text/css">
	.st0{fill:none;stroke:#000000;stroke-width:3;stroke-linecap:round;stroke-miterlimit:10;}
	.st1{fill:none;stroke:#000000;stroke-width:5;stroke-miterlimit:10;}
	.st2{fill:none;stroke:#000000;stroke-width:3;stroke-miterlimit:10;}
</style>
<line class="st0" x1="25.16" y1="83.97" x2="53.79" y2="83.97"/>
<path class="st1" d="M18.27,76.69c-3.79,0-7.59,0-11.38,0c-2.16,0-3.91-1.75-3.91-3.91V42.47c0-2.16,1.75-3.91,3.91-3.91h74.37
	c2.16,0,3.91,1.75,3.91,3.91v30.31c0,2.16-1.75,3.91-3.91,3.91H69.87"/>
<path class="st1" d="M68.87,38.55h-47.6c-1.1,0-2-0.9-2-2V18.48c0-1.1,0.9-2,2-2h47.6c1.1,0,2,0.9,2,2v18.08
	C70.87,37.66,69.98,38.55,68.87,38.55z"/>
<path class="st1" d="M67.9,91.46H22.25c-1.64,0-2.97-1.33-2.97-2.97V67.14c0-1.64,1.33-2.97,2.97-2.97H67.9
	c1.64,0,2.97,1.33,2.97,2.97v21.35C70.87,90.13,69.54,91.46,67.9,91.46z"/>
<line class="st0" x1="25.08" y1="70.92" x2="53.87" y2="70.92"/>
<line class="st0" x1="25.08" y1="77.81" x2="49.47" y2="77.81"/>
<line class="st2" x1="54.97" y1="46.53" x2="65.56" y2="46.53"/>
<line class="st2" x1="69.56" y1="46.53" x2="72.96" y2="46.53"/>
<g>
	<g>
		<path d="M87.74,8.21h2.84l8.93,23.77h-4.2l-6.15-17.71l-6.15,17.71h-4.2L87.74,8.21z M83.01,23.72h12.51v3.74H83.01V23.72z"/>
	</g>
</g>
</svg>
