<?xml version="1.0" encoding="utf-8"?>
<!-- Generator: Adobe Illustrator 25.2.1, SVG Export Plug-In . SVG Version: 6.00 Build 0)  -->
<svg version="1.1" id="Capa_2" xmlns="http://www.w3.org/2000/svg" xmlns:xlink="http://www.w3.org/1999/xlink" x="0px" y="0px"
	 viewBox="0 0 100 100" style="enable-background:new 0 0 100 100;" xml:space="preserve">
<style type="text/css">
	.st0{fill:none;stroke:#000000;stroke-width:5;stroke-miterlimit:10;}
	.st1{fill:none;stroke:#000000;stroke-width:3;stroke-linecap:round;stroke-miterlimit:10;}
	.st2{fill:none;stroke:#000000;stroke-width:3;stroke-miterlimit:10;}
</style>
<path class="st0" d="M23.62,73.33c-3.88,0-7.76,0-11.64,0c-2.21,0-4-1.79-4-4V38.34c0-2.21,1.79-4,4-4h76.04c2.21,0,4,1.79,4,4
	v30.99c0,2.21-1.79,4-4,4H76.38"/>
<path class="st0" d="M75.4,34.34H26.64c-1.1,0-2-0.9-2-2V13.76c0-1.1,0.9-2,2-2H75.4c1.1,0,2,0.9,2,2v18.57
	C77.4,33.44,76.5,34.34,75.4,34.34z"/>
<path class="st0" d="M74.43,88.43H27.62c-1.64,0-2.97-1.33-2.97-2.97V63.49c0-1.64,1.33-2.97,2.97-2.97h46.81
	c1.64,0,2.97,1.33,2.97,2.97v21.97C77.4,87.1,76.07,88.43,74.43,88.43z"/>
<line class="st1" x1="30.58" y1="67.42" x2="60.02" y2="67.42"/>
<line class="st1" x1="30.58" y1="74.48" x2="55.52" y2="74.48"/>
<line class="st1" x1="30.58" y1="81.53" x2="61.85" y2="81.53"/>
<line class="st2" x1="61.14" y1="42.49" x2="71.97" y2="42.49"/>
<line class="st2" x1="76.06" y1="42.49" x2="79.53" y2="42.49"/>
</svg>
