<svg id="Capa_2" data-name="Capa 2" xmlns="http://www.w3.org/2000/svg" viewBox="0 0 94.79 127.21"><defs><style>.cls-1,.cls-2{fill:none;stroke-miterlimit:10;stroke-width:5px;}.cls-1{stroke:#000;}.cls-2{stroke:#fff;}.cls-3{font-size:80px;font-family:Palatino-Roman, Palatino;}</style></defs><path d="M27.09,77.63" transform="translate(-5.76 -2.92)"/><path d="M47.27,76" transform="translate(-5.76 -2.92)"/><path d="M48.71,77.63l.72-2.7h0a19.21,19.21,0,0,1,2.76-5.86c2.79-4.25,6.31-7.89,9.62-11.68A32.14,32.14,0,0,0,70.14,36.5,31.29,31.29,0,0,0,59.37,11.36C50.23,3.23,39.5.88,28,4.72,15.71,8.84,8.36,17.77,6.2,30.83c-1.43,8.65.69,16.48,5.63,23.57,2.83,4.06,6.42,7.47,9.5,11.34,2.8,3.52,5.24,7.23,5.77,11.89" transform="translate(-5.76 -2.92)"/><rect class="cls-1" x="17.67" y="74.71" width="29.05" height="6.52" rx="2.67"/><rect class="cls-1" x="17.67" y="81.27" width="29.05" height="6.53" rx="2.67"/><path class="cls-1" d="M27.78,90.72h0c5.72,8.12,14.63,8.12,20.35,0h0" transform="translate(-5.76 -2.92)"/><line class="cls-2" x1="23.87" y1="34.3" x2="27.97" y2="73.11"/><line class="cls-2" x1="42.37" y1="34.67" x2="37.28" y2="73.11"/><text class="cls-3" transform="translate(71.51 88.61)">i</text></svg>