<svg id="Capa_2" data-name="Capa 2" xmlns="http://www.w3.org/2000/svg" viewBox="0 0 98.17 129.68"><defs><style>.cls-1{fill:none;stroke:#000;stroke-miterlimit:10;stroke-width:5px;}.cls-2{font-size:80px;font-family:Palatino-Roman, Palatino;}</style></defs><path class="cls-1" d="M47.71,77.63l.72-2.7h0a19.21,19.21,0,0,1,2.76-5.86c2.79-4.25,6.31-7.89,9.62-11.68A32.14,32.14,0,0,0,69.14,36.5,31.29,31.29,0,0,0,58.37,11.36C49.23,3.23,38.5.88,27,4.72,14.71,8.84,7.36,17.77,5.2,30.83c-1.43,8.65.69,16.48,5.63,23.57,2.83,4.06,6.42,7.47,9.5,11.34,2.8,3.52,5.24,7.23,5.77,11.89" transform="translate(-2.26 -0.42)"/><path class="cls-1" d="M26.09,77.63" transform="translate(-2.26 -0.42)"/><path class="cls-1" d="M46.27,76" transform="translate(-2.26 -0.42)"/><rect class="cls-1" x="20.17" y="77.21" width="29.05" height="6.52" rx="2.67"/><rect class="cls-1" x="20.17" y="83.77" width="29.05" height="6.53" rx="2.67"/><path class="cls-1" d="M26.78,90.72h0c5.72,8.12,14.63,8.12,20.35,0h0" transform="translate(-2.26 -0.42)"/><line class="cls-1" x1="26.37" y1="36.8" x2="30.47" y2="75.61"/><line class="cls-1" x1="44.87" y1="37.17" x2="39.78" y2="75.61"/><text class="cls-2" transform="translate(74.88 91.08)">i</text></svg>