<svg id="Capa_2" data-name="Capa 2" xmlns="http://www.w3.org/2000/svg" viewBox="0 0 93.47 99.16"><defs><style>.cls-1{fill:none;}.cls-1,.cls-2{stroke:#000;stroke-miterlimit:10;stroke-width:5px;}.cls-2{fill:#fff;}.cls-3{font-size:46px;font-family:MyriadPro-Regular, Myriad Pro;}</style></defs><path class="cls-1" d="M48.71,77.63l.72-2.7h0a19.21,19.21,0,0,1,2.76-5.86c2.79-4.25,6.31-7.89,9.62-11.68A32.14,32.14,0,0,0,70.14,36.5,31.29,31.29,0,0,0,59.37,11.36C50.23,3.23,39.5.88,28,4.72,15.71,8.84,8.36,17.77,6.2,30.83c-1.43,8.65.69,16.48,5.63,23.57,2.83,4.06,6.42,7.47,9.5,11.34,2.8,3.52,5.24,7.23,5.77,11.89" transform="translate(-3.26 -0.42)"/><path class="cls-1" d="M27.09,77.63" transform="translate(-3.26 -0.42)"/><path class="cls-1" d="M47.27,76" transform="translate(-3.26 -0.42)"/><rect class="cls-1" x="20.17" y="77.21" width="29.05" height="6.52" rx="2.67"/><rect class="cls-1" x="20.17" y="83.77" width="29.05" height="6.53" rx="2.67"/><path class="cls-1" d="M27.78,90.72h0c5.72,8.12,14.63,8.12,20.35,0h0" transform="translate(-3.26 -0.42)"/><line class="cls-1" x1="26.37" y1="36.8" x2="30.47" y2="75.61"/><line class="cls-1" x1="44.87" y1="37.17" x2="39.78" y2="75.61"/><circle class="cls-2" cx="65.16" cy="70.84" r="25.82"/><text class="cls-3" transform="translate(59.94 86.16)">i</text></svg>