<?xml version="1.0" encoding="UTF-8"?>
<!DOCTYPE svg PUBLIC "-//W3C//DTD SVG 1.1//EN" "http://www.w3.org/Graphics/SVG/1.1/DTD/svg11.dtd">
<!-- Creator: CorelDRAW X8 -->
<svg xmlns="http://www.w3.org/2000/svg" xml:space="preserve" width="39mm" height="39mm" version="1.1" style="shape-rendering:geometricPrecision; text-rendering:geometricPrecision; image-rendering:optimizeQuality; fill-rule:evenodd; clip-rule:evenodd"
viewBox="0 0 3900 3900"
 xmlns:xlink="http://www.w3.org/1999/xlink">
 <defs>
  <style type="text/css">
   <![CDATA[
    .str0 {stroke:black;stroke-width:20}
    .fil0 {fill:black}
    .fil1 {fill:black;fill-rule:nonzero}
   ]]>
  </style>
 </defs>
 <g id="Capa_x0020_1">
  <metadata id="CorelCorpID_0Corel-Layer"/>
  <path class="fil0 str0" d="M2637 2472l-922 0c-257,0 -467,-210 -467,-467l0 0 1856 0 0 0c0,257 -210,467 -467,467z"/>
  <path class="fil0 str0" d="M147 1862l0 -330 65 -49 622 0 0 16c2,-84 72,-153 157,-153l2055 0c87,0 158,71 158,158l0 309 -2370 0 -622 0 -65 49z"/>
  <g>
   <path class="fil1" d="M3856 1950l-206 0 0 0 -2 -87 -7 -87 -11 -85 -15 -83 -19 -82 -23 -81 -26 -79 -31 -77 -34 -75 -37 -73 -41 -71 -44 -69 -47 -66 -51 -65 -53 -61 -56 -59 -59 -56 -62 -54 -64 -50 -67 -48 -69 -44 -71 -41 -73 -37 -75 -34 -77 -31 -79 -26 -81 -23 -82 -19 -83 -15 -85 -11 -87 -6 -87 -3 0 -207 98 3 96 7 96 12 93 17 93 21 90 26 88 30 87 34 84 38 82 42 80 46 77 49 75 53 72 57 69 60 66 63 63 66 60 69 57 72 53 75 49 77 46 80 42 82 38 84 35 87 30 88 25 91 22 92 16 94 12 95 8 97 2 98 0 0zm-1904 1905l0 -207 0 0 87 -3 87 -6 85 -11 83 -15 82 -19 81 -23 79 -26 77 -31 75 -34 73 -37 71 -41 69 -44 67 -48 64 -50 62 -54 59 -56 56 -59 53 -61 51 -65 47 -66 44 -69 41 -71 37 -73 34 -75 31 -77 26 -79 23 -81 19 -82 15 -83 11 -85 7 -87 2 -87 206 0 -2 98 -8 97 -12 95 -16 94 -22 92 -25 91 -30 88 -35 87 -38 84 -42 82 -46 80 -49 77 -53 75 -57 72 -60 69 -63 66 -66 63 -69 60 -72 57 -75 53 -77 49 -80 46 -82 42 -84 38 -87 34 -88 30 -90 26 -93 21 -93 17 -96 12 -96 7 -98 3 0 0zm-1905 -1905l207 0 0 0 2 87 7 87 10 85 15 83 19 82 23 81 27 79 30 77 34 75 38 73 40 71 45 69 47 66 50 65 54 61 56 59 59 56 62 54 64 50 66 48 69 44 71 41 74 37 75 34 77 31 79 26 80 23 82 19 84 15 85 11 86 6 88 3 0 207 -98 -3 -97 -7 -95 -12 -94 -17 -92 -21 -90 -26 -89 -30 -86 -34 -85 -38 -82 -42 -80 -46 -77 -49 -75 -53 -72 -57 -69 -60 -66 -63 -63 -66 -60 -69 -56 -72 -53 -75 -50 -77 -46 -80 -42 -82 -38 -84 -34 -87 -30 -88 -26 -91 -21 -92 -17 -94 -12 -95 -7 -97 -3 -98 0 0zm1905 -1905l0 207 0 0 -88 3 -86 6 -85 11 -84 15 -82 19 -80 23 -79 26 -77 31 -75 34 -74 37 -71 41 -69 44 -66 48 -64 50 -62 54 -59 56 -56 59 -54 61 -50 65 -47 66 -45 69 -40 71 -38 73 -34 75 -30 77 -27 79 -23 81 -19 82 -15 83 -10 85 -7 87 -2 87 -207 0 3 -98 7 -97 12 -95 17 -94 21 -92 26 -91 30 -88 34 -87 38 -84 42 -82 46 -80 50 -77 53 -75 56 -72 60 -69 63 -66 66 -63 69 -60 72 -57 75 -53 77 -49 80 -46 82 -42 85 -38 86 -34 89 -30 90 -26 92 -21 94 -17 95 -12 97 -7 98 -3 0 0z"/>
  </g>
 </g>
</svg>
