<?xml version="1.0" encoding="UTF-8"?>
<!DOCTYPE svg PUBLIC "-//W3C//DTD SVG 1.1//EN" "http://www.w3.org/Graphics/SVG/1.1/DTD/svg11.dtd">
<!-- Creator: CorelDRAW X8 -->
<svg xmlns="http://www.w3.org/2000/svg" xml:space="preserve" width="44mm" height="50.5mm" version="1.1" style="shape-rendering:geometricPrecision; text-rendering:geometricPrecision; image-rendering:optimizeQuality; fill-rule:evenodd; clip-rule:evenodd"
viewBox="0 0 4400 5050"
 xmlns:xlink="http://www.w3.org/1999/xlink">
 <defs>
  <style type="text/css">
   <![CDATA[
    .str0 {stroke:#96989A;stroke-width:20}
    .fil1 {fill:#96989A}
    .fil0 {fill:#96989A;fill-rule:nonzero}
   ]]>
  </style>
 </defs>
 <g id="Capa_x0020_1">
  <metadata id="CorelCorpID_0Corel-Layer"/>
  <g id="_2315391285248">
   <g>
    <path class="fil0" d="M1650 3579c67,17 107,85 91,152 -17,67 -85,108 -152,91l61 -243zm-31 121l0 0 0 0 0 0 -30 122 30 -122zm-298 -46l-135 -210 131 -3 10 6 10 6 10 5 9 6 10 5 10 5 10 5 10 6 10 5 10 4 10 5 10 5 11 5 10 4 10 5 11 4 10 4 11 5 10 4 11 4 10 4 11 3 11 4 10 4 11 3 11 4 11 3 11 3 11 3 11 3 11 3 11 3 -61 243 -13 -4 -14 -3 -13 -4 -13 -4 -13 -4 -13 -4 -13 -4 -13 -4 -13 -4 -13 -5 -13 -4 -13 -5 -12 -5 -13 -5 -13 -5 -12 -5 -13 -5 -12 -6 -12 -5 -13 -6 -12 -5 -12 -6 -12 -6 -12 -6 -12 -6 -12 -6 -12 -7 -12 -6 -12 -7 -11 -6 -12 -7 -12 -7 132 -2zm-132 2c-59,-35 -78,-112 -43,-171 35,-59 112,-79 171,-44l-128 215zm-369 24l366 -236 135 210 -366 236 -156 -17 21 -193zm135 210c-58,37 -135,21 -173,-37 -37,-58 -20,-136 38,-173l135 210zm-325 -539l346 345 -177 177 -346 -346 -17 -156 194 -20zm-177 176c-49,-48 -49,-127 0,-176 49,-49 128,-49 177,0l-177 176zm430 -386l-236 366 -211 -136 236 -366 213 4 -2 132zm-211 -136c38,-58 115,-75 173,-37 58,37 75,115 38,173l-211 -136zm-73 -176l53 -244 95 91 3 11 3 11 3 11 3 11 3 11 4 11 3 11 4 11 3 11 4 10 4 11 4 11 4 10 4 11 4 10 4 11 5 10 4 10 5 11 4 10 5 10 5 10 5 10 5 10 5 10 5 10 5 10 6 10 5 10 6 10 5 9 6 10 -215 128 -7 -12 -6 -11 -7 -12 -7 -12 -6 -12 -6 -11 -6 -12 -7 -12 -6 -12 -5 -12 -6 -13 -6 -12 -6 -12 -5 -13 -5 -12 -6 -12 -5 -13 -5 -13 -5 -12 -5 -13 -4 -13 -5 -13 -4 -12 -5 -13 -4 -13 -4 -13 -4 -13 -4 -14 -4 -13 -3 -13 -4 -13 -3 -14 94 92zm-94 -92c-17,-67 23,-134 90,-151 67,-17 135,23 152,90l-242 61zm-279 -244l426 92 -53 244 -425 -92 -99 -122 151 -122zm-52 244c-68,-15 -111,-81 -96,-149 14,-67 81,-110 148,-95l-52 244zm151 -611l0 489 -250 0 0 -489 99 -122 151 122zm-250 0c0,-69 56,-125 125,-125 69,0 125,56 125,125l-250 0zm577 30l-426 92 -52 -244 425 -92 148 152 -95 92zm-53 -244c68,-15 134,28 149,95 15,68 -28,134 -96,149l-53 -244zm73 -177l211 -135 2 132 -6 9 -5 10 -6 10 -5 10 -6 9 -5 10 -5 10 -5 10 -5 10 -5 10 -5 11 -5 10 -4 10 -5 10 -4 11 -5 10 -4 10 -4 11 -4 10 -4 11 -4 11 -4 10 -4 11 -3 11 -4 11 -3 10 -4 11 -3 11 -3 11 -3 11 -3 11 -3 11 -242 -61 3 -13 4 -13 3 -14 4 -13 4 -13 4 -13 4 -13 4 -13 5 -13 4 -13 5 -13 4 -12 5 -13 5 -13 5 -12 5 -13 6 -12 5 -13 5 -12 6 -12 6 -13 5 -12 6 -12 6 -12 6 -12 7 -12 6 -12 6 -12 7 -11 7 -12 6 -12 7 -11 2 131zm-2 -131c35,-60 112,-79 171,-44 60,36 79,112 44,172l-215 -128zm-23 -370l236 366 -211 135 -236 -366 17 -156 194 21zm-211 135c-37,-58 -20,-135 38,-173 58,-37 135,-20 173,38l-211 135zm540 -325l-346 346 -177 -177 346 -346 156 -16 21 193zm-177 -177c49,-48 128,-48 177,0 48,49 48,128 0,177l-177 -177zm387 430l-366 -236 135 -210 366 236 -4 212 -131 -2zm135 -210c58,37 75,114 38,172 -38,58 -115,75 -173,38l135 -210zm176 -73l245 53 -92 94 -11 3 -11 3 -11 3 -11 3 -11 4 -11 3 -11 3 -11 4 -10 3 -11 4 -11 4 -10 4 -11 4 -10 4 -11 4 -10 5 -11 4 -10 4 -10 5 -11 5 -10 4 -10 5 -10 5 -10 5 -10 5 -10 5 -10 6 -10 5 -10 5 -9 6 -10 5 -10 6 -128 -215 12 -6 12 -7 11 -7 12 -6 12 -7 12 -6 12 -6 12 -6 12 -6 12 -6 12 -6 12 -6 13 -5 12 -6 12 -5 13 -5 12 -6 13 -5 13 -4 12 -5 13 -5 13 -5 13 -4 13 -4 13 -5 13 -4 13 -4 13 -4 13 -3 13 -4 13 -4 14 -3 -92 95zm92 -95c67,-17 135,24 152,91 17,66 -24,134 -91,151l-61 -242zm245 -278l-92 426 -245 -53 92 -426 122 -99 123 152zm-245 -53c15,-68 81,-110 149,-96 67,15 110,81 96,149l-245 -53zm612 151l-490 0 0 -250 490 0 122 99 -122 151zm0 -250c69,0 125,56 125,125 0,69 -56,125 -125,125l0 -250zm-31 578l-92 -426 245 -53 92 426 -153 147 -92 -94zm245 -53c14,67 -28,134 -96,148 -67,15 -134,-28 -149,-95l245 -53zm176 73l135 210 -131 2 -10 -6 -10 -5 -9 -6 -10 -5 -10 -5 -10 -6 -10 -5 -10 -5 -10 -5 -10 -5 -10 -5 -10 -4 -11 -5 -10 -5 -10 -4 -11 -5 -10 -4 -11 -4 -10 -4 -11 -4 -10 -4 -11 -4 -11 -4 -10 -3 -11 -4 -11 -3 -11 -3 -11 -4 -11 -3 -11 -3 -11 -3 -11 -3 61 -242 13 3 14 4 13 4 13 3 13 4 13 4 13 4 13 5 13 4 13 4 13 5 13 5 12 5 13 4 13 5 12 6 13 5 12 5 13 6 12 5 12 6 12 6 12 6 12 6 12 6 12 6 12 6 12 7 12 6 11 7 12 7 12 6 -132 3zm132 -3c59,36 78,112 43,172 -35,59 -112,78 -171,43l128 -215zm370 -23l-367 236 -135 -210 366 -236 156 16 -20 194zm-136 -210c58,-38 135,-21 173,37 37,58 21,135 -37,173l-136 -210zm325 539l-346 -346 177 -177 346 346 17 156 -194 21zm177 -177c49,49 49,128 0,177 -49,49 -128,49 -177,0l177 -177zm-429 387l236 -366 210 135 -236 366 -213 -3 3 -132zm210 135c-38,58 -115,75 -173,38 -58,-38 -75,-115 -37,-173l210 135zm73 177l-53 244 -95 -92 -3 -11 -3 -11 -3 -11 -3 -11 -3 -11 -4 -11 -3 -10 -4 -11 -3 -11 -4 -11 -4 -10 -4 -11 -4 -11 -4 -10 -4 -11 -4 -10 -5 -10 -4 -11 -5 -10 -4 -10 -5 -11 -5 -10 -5 -10 -5 -10 -5 -10 -5 -10 -5 -10 -6 -9 -5 -10 -5 -10 -6 -10 -6 -9 215 -128 7 11 6 12 7 12 7 11 6 12 6 12 7 12 6 12 6 12 6 12 5 12 6 12 6 13 5 12 5 13 6 12 5 13 5 12 5 13 5 13 4 12 5 13 4 13 5 13 4 13 4 13 4 13 4 13 4 13 3 13 4 14 3 13 -94 -91zm94 91c17,67 -23,135 -90,152 -67,17 -135,-24 -152,-91l242 -61zm279 245l-426 -92 53 -244 425 92 99 122 -151 122zm52 -244c68,14 111,81 96,148 -14,68 -81,111 -148,96l52 -244zm-151 354l0 -232 250 0 0 232 -250 0zm250 0c0,69 -56,125 -125,125 -69,0 -125,-56 -125,-125l250 0zm-2182 673c63,29 91,103 62,166 -28,62 -103,90 -165,61l103 -227zm-675 -661l250 0 0 0 1 28 1 27 3 27 3 26 5 27 5 26 6 25 7 25 9 25 8 25 10 24 11 23 11 23 12 23 13 22 14 22 14 21 15 20 16 21 17 19 17 19 18 18 18 18 19 17 20 16 20 16 21 15 21 14 22 13 22 13 23 12 23 11 -103 227 -32 -15 -30 -16 -30 -17 -30 -18 -28 -19 -28 -20 -27 -21 -27 -22 -25 -22 -25 -24 -24 -25 -23 -25 -22 -26 -22 -27 -20 -28 -19 -28 -19 -29 -17 -30 -16 -31 -16 -31 -14 -31 -13 -33 -12 -33 -11 -33 -9 -34 -9 -34 -7 -35 -6 -36 -5 -35 -3 -37 -2 -36 -1 -37 0 0zm976 -975l0 250 0 0 -37 1 -37 2 -37 5 -35 6 -35 8 -35 10 -33 12 -33 13 -33 14 -31 16 -30 18 -30 18 -28 21 -27 21 -27 23 -25 24 -24 25 -23 27 -22 27 -20 29 -19 29 -17 30 -16 32 -15 32 -13 33 -11 33 -10 35 -8 35 -6 36 -5 36 -3 37 -1 37 -250 0 2 -50 3 -49 7 -49 8 -48 11 -47 13 -47 16 -45 17 -45 20 -43 21 -42 24 -41 25 -39 27 -39 29 -36 31 -36 32 -34 34 -32 35 -31 37 -29 38 -27 40 -25 41 -24 42 -21 43 -20 45 -17 45 -16 46 -13 48 -11 48 -8 48 -6 50 -4 50 -1 0 0zm976 975l-250 0 -1 -37 -3 -37 -5 -36 -6 -36 -8 -35 -10 -35 -11 -33 -13 -33 -15 -32 -16 -32 -17 -30 -19 -29 -20 -29 -22 -27 -23 -27 -24 -25 -25 -24 -26 -23 -28 -21 -28 -21 -30 -18 -30 -18 -31 -16 -33 -14 -32 -13 -34 -12 -35 -10 -35 -8 -35 -6 -37 -5 -36 -2 -38 -1 0 -250 50 1 50 4 48 6 49 8 47 11 46 13 45 16 45 17 43 20 42 21 41 24 40 25 38 27 37 29 35 31 34 32 32 34 31 36 29 36 27 39 25 39 24 41 21 42 20 43 17 45 16 45 13 47 11 47 8 48 7 49 3 49 2 50zm0 0c0,69 -56,125 -125,125 -69,0 -125,-56 -125,-125l250 0z"/>
   </g>
   <path class="fil1 str0" d="M2242 2637l1626 0c183,0 332,150 332,332l0 1467 -2337 0 0 -1420c0,-208 171,-379 379,-379zm637 879l-478 0 0 380 635 0 649 -649 -269 -268 -537 537z"/>
  </g>
 </g>
</svg>
