<?xml version="1.0" encoding="UTF-8"?>
<!DOCTYPE svg PUBLIC "-//W3C//DTD SVG 1.1//EN" "http://www.w3.org/Graphics/SVG/1.1/DTD/svg11.dtd">
<!-- Creator: CorelDRAW X8 -->
<svg xmlns="http://www.w3.org/2000/svg" xml:space="preserve" width="40.5mm" height="36mm" version="1.1" style="shape-rendering:geometricPrecision; text-rendering:geometricPrecision; image-rendering:optimizeQuality; fill-rule:evenodd; clip-rule:evenodd"
viewBox="0 0 4050 3600"
 xmlns:xlink="http://www.w3.org/1999/xlink">
 <defs>
  <style type="text/css">
   <![CDATA[
    .str4 {stroke:#373435;stroke-width:160}
    .str2 {stroke:#373435;stroke-width:20}
    .str0 {stroke:#373435;stroke-width:7.62}
    .str5 {stroke:#373435;stroke-width:100;stroke-linecap:round;stroke-linejoin:round}
    .str3 {stroke:#373435;stroke-width:160;stroke-linecap:round;stroke-linejoin:round}
    .str1 {stroke:#373435;stroke-width:20;stroke-linecap:round;stroke-linejoin:round}
    .fil1 {fill:none}
    .fil0 {fill:#373435}
   ]]>
  </style>
 </defs>
 <g id="Capa_x0020_1">
  <metadata id="CorelCorpID_0Corel-Layer"/>
  <path class="fil0 str0" d="M2020 1449l-130 125c3,42 53,100 54,131 1,27 -19,43 -31,63 -32,57 2,53 -123,60 -38,2 -50,-3 -59,35 -42,176 -67,135 38,204 46,30 42,23 41,89 0,64 14,63 -35,94 -101,65 -89,37 -59,148 28,107 1,90 112,98 78,6 46,-9 107,89 23,37 1,58 -36,130 -17,34 2,43 20,60 22,20 81,86 101,97 36,-2 103,-54 130,-55 14,0 48,24 62,32 60,35 51,12 58,124 3,42 -5,50 35,59 35,9 125,37 154,35 87,-131 65,-115 141,-115 69,0 61,-13 93,36 70,107 30,89 182,51 79,-20 53,-15 61,-97 3,-34 -1,-41 -19,-58 -15,-14 -26,-25 -41,-39 -27,-28 -52,-53 -80,-81 -48,-50 -36,-33 -114,-22 -494,72 -872,-505 -546,-938 75,-100 217,-208 402,-228 268,-28 493,121 597,336 36,74 58,167 55,262 -6,180 -57,107 59,222 68,67 82,104 136,99 97,-8 76,14 104,-94 28,-109 46,-82 -56,-149 -49,-33 -38,-20 -38,-91 0,-64 -9,-62 38,-92 22,-14 62,-36 78,-56 0,-22 -38,-165 -49,-179 -46,-20 -124,9 -154,-33 -11,-14 -23,-40 -35,-58 -33,-49 -1,-69 28,-128 17,-34 12,-42 -10,-64 -17,-17 -31,-30 -47,-47 -14,-14 -29,-38 -46,-49 -44,-26 -86,40 -134,45 -30,3 -49,-13 -68,-26 -15,-10 -47,-21 -53,-40 -4,-10 -7,-70 -8,-86 -2,-42 5,-50 -34,-59 -182,-43 -133,-71 -217,58 -15,21 -20,23 -52,22 -22,0 -63,3 -80,0 -50,-7 -62,-127 -120,-114l-124 32c-44,11 -36,17 -42,119 -3,57 -5,35 -77,80 -19,11 -30,24 -57,13 -31,-14 -81,-48 -112,-50z"/>
  <path class="fil0 str1" d="M2510 1791c133,-37 280,-4 385,99 158,155 161,409 5,567 -155,159 -409,162 -567,8 -104,-103 -140,-248 -108,-381 5,-21 2,-21 17,-7l82 81 85 82 127 -8 128 -7 5 -128 5 -128 -85 -82 -82 -81c-13,-13 -15,-11 3,-15z"/>
  <rect class="fil0 str2" transform="matrix(0.102995 -0.105212 0.0709342 0.069439 2747.3 2476.54)" width="1640" height="1517"/>
  <rect class="fil0 str2" transform="matrix(0.102995 -0.105212 -0.587902 -0.57551 3775.44 3483.01)" width="1640" height="1517"/>
  <path class="fil1 str3" d="M2859 3021l0 190c0,91 -75,166 -166,166l-2404 0c-92,0 -166,-75 -166,-166l0 -2519c0,-91 74,-166 166,-166l890 0 0 -97c0,-172 139,-312 312,-312 172,0 312,140 312,312l0 97 890 0c91,0 166,75 166,166l0 675"/>
  <path class="fil1 str4" d="M788 526l0 517c0,19 17,40 40,40l1326 0c20,0 40,-20 40,-40l0 -517"/>
  <line class="fil1 str5" x1="681" y1="1487" x2="1655" y2= "1487" />
  <line class="fil1 str5" x1="681" y1="1687" x2="1655" y2= "1687" />
  <line class="fil1 str5" x1="681" y1="2087" x2="1318" y2= "2087" />
  <line class="fil1 str5" x1="681" y1="2287" x2="1318" y2= "2287" />
  <line class="fil1 str5" x1="681" y1="2787" x2="1655" y2= "2787" />
  <line class="fil1 str5" x1="681" y1="2987" x2="1655" y2= "2987" />
 </g>
</svg>
