<?xml version="1.0" encoding="UTF-8"?>
<!DOCTYPE svg PUBLIC "-//W3C//DTD SVG 1.1//EN" "http://www.w3.org/Graphics/SVG/1.1/DTD/svg11.dtd">
<!-- Creator: CorelDRAW X8 -->
<svg xmlns="http://www.w3.org/2000/svg" xml:space="preserve" width="50mm" height="50mm" version="1.1" style="shape-rendering:geometricPrecision; text-rendering:geometricPrecision; image-rendering:optimizeQuality; fill-rule:evenodd; clip-rule:evenodd"
viewBox="0 0 5000 5000"
 xmlns:xlink="http://www.w3.org/1999/xlink">
 <defs>
  <style type="text/css">
   <![CDATA[
    .fil2 {fill:#FF0009}
    .fil0 {fill:#00204A;fill-rule:nonzero}
    .fil1 {fill:#FF0009;fill-rule:nonzero}
   ]]>
  </style>
 </defs>
 <g id="Capa_x0020_1">
  <metadata id="CorelCorpID_0Corel-Layer"/>
  <g id="_2791164853696">
   <g>
    <path class="fil0" d="M1774 2084l-1238 306 -72 -292 1238 -305 72 0 0 291zm-72 -291c81,-20 162,29 182,110 20,80 -29,161 -110,181l-72 -291zm1238 597l-1238 -306 72 -291 1238 305 0 292 -72 0zm72 -292c81,20 130,102 110,182 -20,80 -101,130 -182,110l72 -292zm1238 -14l-1238 306 -72 -292 1239 -305 186 146 -115 145zm-71 -291c80,-20 161,29 181,110 20,80 -29,161 -110,181l-71 -291zm-114 2572l0 -2426 300 0 0 2426 -115 146 -185 -146zm300 0c0,83 -68,150 -150,150 -83,0 -150,-67 -150,-150l300 0zm-1425 160l1239 -305 71 291 -1238 306 -77 -2 5 -290zm72 292c-80,19 -161,-30 -181,-110 -20,-81 29,-162 109,-182l72 292zm-1232 -645l1238 355 -83 288 -1238 -355 0 -288 83 0zm-83 288c-80,-23 -126,-106 -103,-185 23,-80 106,-126 186,-103l-83 288zm-1238 67l1238 -355 83 288 -1239 355 -191 -144 109 -144zm82 288c-79,23 -162,-23 -185,-103 -23,-79 23,-162 103,-185l82 288zm109 -2571l0 2427 -300 0 0 -2427 114 -146 186 146zm-300 0c0,-83 67,-150 150,-150 83,0 150,67 150,150l-300 0z"/>
   </g>
   <g>
    <path class="fil0" d="M2886 2244c0,-50 41,-90 90,-90 50,0 90,40 90,90l-180 0zm0 2427l0 -2427 180 0 0 2427 -180 0zm180 0c0,50 -40,90 -90,90 -49,0 -90,-40 -90,-90l180 0z"/>
   </g>
   <g>
    <path class="fil0" d="M1648 1939c0,-49 40,-89 90,-89 50,0 90,40 90,89l-180 0zm0 2382l0 -2382 180 0 0 2382 -180 0zm180 0c0,48 -40,88 -90,88 -50,0 -90,-40 -90,-88l180 0z"/>
   </g>
   <g>
    <path class="fil1" d="M4565 1216l-130 0 0 0 -1 -42 -3 -42 -5 -41 -8 -40 -9 -40 -11 -39 -13 -38 -15 -38 -16 -36 -18 -35 -20 -35 -21 -33 -23 -33 -25 -31 -26 -29 -27 -29 -28 -27 -30 -26 -31 -25 -33 -22 -33 -22 -34 -20 -36 -18 -36 -16 -38 -15 -38 -13 -39 -11 -40 -9 -40 -7 -41 -6 -42 -3 -42 -1 0 -130 49 1 48 4 48 6 47 8 46 11 45 13 44 15 43 17 43 19 41 21 40 23 38 25 38 26 35 29 35 30 33 31 32 33 30 35 28 36 26 37 25 39 23 39 21 42 19 42 17 43 15 44 13 46 11 46 8 47 6 47 4 49 1 48 0 0zm-151 515l-111 -68 1 -1 8 -12 7 -12 7 -13 7 -12 7 -13 7 -13 6 -13 6 -13 6 -13 6 -13 6 -14 5 -13 5 -14 5 -13 4 -14 5 -14 4 -14 3 -15 4 -14 3 -14 3 -15 3 -14 3 -15 2 -15 2 -14 2 -15 2 -15 1 -15 1 -16 0 -15 1 -15 0 -16 130 0 0 18 -1 18 0 18 -2 17 -1 17 -2 18 -2 17 -2 17 -3 17 -3 17 -3 17 -4 17 -4 17 -4 16 -4 17 -5 16 -5 16 -5 16 -6 16 -6 16 -6 16 -6 15 -7 16 -7 15 -7 15 -7 15 -8 15 -8 14 -8 15 -8 14 -9 14 -9 14 1 -1zm-1 1c-19,31 -60,39 -90,20 -30,-20 -39,-60 -19,-90l109 70zm-821 1086l711 -1155 111 68 -712 1155 -113 -64 3 -4zm110 68c-19,31 -59,40 -89,21 -31,-18 -40,-58 -21,-89l110 68zm-12 16l-92 -92 -7 9 1 -1 -2 3 1 -2 0 0 -1 1 2 -2 -1 1 -1 2 1 -1 0 0 0 0 1 -2 -1 1 -1 2 0 -1 0 1 0 0 0 -1 1 0 -1 1 -1 1 1 -2 1 -1 -2 3 1 0 0 -2 0 1 0 0 -1 2 1 -2 0 0 -1 1 115 61 0 1 0 0 0 -2 -1 2 0 0 0 1 0 0 0 0 -1 2 0 0 1 -2 -1 1 -1 2 0 0 1 -1 0 0 -1 1 0 1 -1 1 -1 1 1 -1 0 1 -1 0 1 -2 -1 3 -1 2 1 -3 -1 1 0 1 1 -1 -2 2 0 0 -7 8zm7 -8c-20,29 -61,36 -90,15 -30,-20 -36,-61 -16,-90l106 75zm-99 -84l0 0 92 92 0 0 -99 -83 7 -9zm92 92c-25,26 -66,26 -92,0 -25,-25 -25,-66 0,-92l92 92zm-46 -46l0 0 0 0 0 0 53 38 -53 -38zm46 46c-25,26 -66,26 -92,0 -25,-25 -25,-66 0,-92l92 92zm-77 36l0 -130 0 0 -1 0 -1 0 -1 0 0 0 -1 0 -1 0 -1 0 -1 1 -1 0 0 0 -1 0 -1 0 -1 1 0 0 -1 0 -1 1 0 0 -1 1 -1 0 0 0 -1 1 0 0 -1 1 -1 0 0 1 -1 0 0 1 -1 0 0 1 -1 1 0 0 -1 1 106 75 -1 2 -2 3 -2 2 -2 2 -2 3 -2 2 -3 2 -2 2 -2 2 -3 2 -2 2 -2 1 -3 2 -3 2 -2 1 -3 2 -3 1 -2 1 -3 2 -3 1 -3 1 -3 1 -3 1 -3 1 -3 0 -3 1 -3 1 -4 0 -2 0 -4 1 -3 0 -3 0 0 0zm-78 -36l92 -91 7 8 0 -1 -1 -1 0 0 -1 -1 0 0 -1 -1 0 0 -1 -1 -1 0 0 -1 -1 0 0 -1 -1 0 -1 0 0 -1 -1 0 -1 -1 -1 0 0 0 -1 0 -1 -1 -1 0 0 0 -1 0 -1 -1 -1 0 0 0 -1 0 -1 0 -1 0 -1 0 0 0 0 130 -3 0 -4 0 -3 -1 -3 0 -3 -1 -3 0 -3 -1 -4 0 -3 -1 -2 -1 -3 -1 -4 -1 -2 -1 -3 -1 -3 -2 -3 -1 -2 -2 -3 -1 -2 -2 -3 -2 -3 -1 -2 -2 -2 -2 -2 -2 -3 -2 -2 -2 -2 -2 -2 -2 -2 -3 -2 -2 -2 -2 -2 -3 7 8zm-7 -8c-21,-29 -14,-70 15,-90 30,-21 70,-15 91,15l-106 75zm53 -38l0 0 0 0 0 0 -46 46 46 -46zm-53 38c-21,-29 -14,-70 15,-90 30,-21 70,-15 91,15l-106 75zm99 -84l0 1 -92 91 0 0 -7 -8 99 -84zm-92 92c-25,-25 -25,-66 0,-92 26,-25 67,-25 92,0l-92 92zm-12 -16l111 -68 2 4 0 0 0 0 0 -1 -1 -1 0 1 1 1 0 0 -1 -1 0 -1 0 0 0 0 0 1 1 1 -1 -2 0 0 0 0 0 0 0 0 0 0 0 0 -1 -1 0 0 1 2 0 0 0 -2 0 1 -1 -1 0 0 0 0 0 0 0 0 0 0 -106 75 0 -1 0 1 0 -1 -1 0 0 0 -1 -1 0 0 -1 -2 0 0 1 1 0 0 -1 -2 0 0 0 0 0 0 0 0 -1 -1 0 0 -1 -2 0 1 0 0 1 0 0 0 -1 -2 -1 -1 0 0 0 1 0 0 0 -1 -1 -2 0 1 0 0 2 3zm-2 -3c-17,-32 -5,-71 27,-88 32,-17 71,-5 88,27l-115 61zm-609 -1236l722 1171 -111 68 -722 -1171 111 -68 0 0zm-111 68c-18,-30 -9,-70 22,-89 30,-19 70,-9 89,21l-111 68zm-3 -5l110 -69 1 1 0 0 0 0 0 0 0 0 0 0 0 0 0 1 0 -1 1 1 0 0 0 1 0 -1 -1 -1 1 2 0 0 0 0 1 1 -1 -2 0 1 1 1 -1 -1 1 2 0 -1 -1 -1 1 2 1 0 0 1 -1 -1 0 -1 1 2 0 0 0 0 -111 68 0 0 0 -1 1 2 -1 -1 -1 -1 0 0 0 -1 1 2 -1 -1 0 -1 0 1 0 -1 0 0 1 1 -2 -2 0 0 0 0 0 -1 1 2 -1 -1 0 -1 0 0 -1 -1 1 1 -1 -1 0 1 0 -1 0 0 0 -1 0 0 -1 0 0 0 1 1zm-1 -1c-18,-31 -8,-71 22,-90 31,-18 71,-8 90,23l-112 67zm110 -70l1 2 -110 69 -1 -2 55 -100 55 31zm-110 69c-19,-31 -10,-71 21,-90 30,-19 70,-9 89,21l-110 69zm55 30l0 0 0 -130 0 0 56 32 -56 98zm0 -130c36,0 65,30 65,65 0,36 -29,65 -65,65l0 -130zm-192 -392l130 0 0 0 0 15 1 14 0 15 1 14 1 14 2 15 1 14 2 14 2 14 3 13 2 14 3 14 3 14 3 13 3 14 4 13 4 13 4 13 4 13 5 13 5 13 4 13 6 13 5 12 5 13 6 12 6 12 6 13 7 12 6 11 7 12 7 12 -112 67 -8 -14 -7 -13 -8 -14 -7 -14 -7 -14 -7 -14 -7 -14 -6 -15 -7 -14 -5 -15 -6 -15 -6 -15 -5 -15 -5 -15 -5 -15 -4 -16 -4 -15 -4 -16 -4 -16 -3 -15 -4 -16 -3 -16 -2 -16 -3 -16 -2 -17 -2 -16 -1 -16 -1 -17 -1 -16 -1 -17 -1 -17 0 -17 0 0zm953 -952l0 130 0 0 -43 1 -41 3 -42 6 -40 7 -40 9 -39 11 -38 13 -37 15 -37 16 -35 18 -35 20 -33 22 -32 22 -31 25 -30 26 -29 27 -27 29 -26 29 -24 31 -23 33 -22 33 -19 35 -19 35 -16 36 -15 38 -13 38 -11 39 -9 40 -7 40 -5 41 -4 42 -1 42 -130 0 2 -48 3 -49 6 -47 9 -47 10 -46 13 -46 15 -44 17 -43 19 -42 21 -42 23 -39 25 -39 27 -37 28 -36 30 -35 31 -33 33 -31 35 -30 36 -29 37 -26 39 -25 40 -23 41 -21 42 -19 43 -17 45 -15 45 -13 46 -11 47 -8 47 -6 49 -4 49 -1 0 0zm757 952l-130 0 0 0 -1 -32 -2 -32 -4 -31 -6 -31 -7 -30 -8 -30 -10 -29 -11 -29 -13 -27 -14 -27 -15 -27 -16 -25 -18 -25 -18 -23 -20 -23 -21 -22 -22 -21 -22 -20 -24 -18 -25 -18 -25 -16 -26 -15 -27 -14 -28 -12 -29 -12 -29 -10 -30 -8 -30 -7 -31 -6 -31 -4 -32 -2 -32 -1 0 -130 39 1 38 3 38 5 37 7 37 8 36 10 35 12 34 14 34 15 33 17 31 18 31 20 30 21 28 22 28 24 26 25 25 26 24 28 22 28 21 30 20 31 18 31 17 33 15 34 14 34 12 35 10 36 8 37 7 37 5 38 3 39 1 38 0 0zm-757 758l0 -130 0 0 32 -1 32 -3 31 -4 31 -5 30 -7 30 -9 29 -9 29 -12 28 -12 27 -14 26 -15 25 -16 25 -18 24 -19 22 -19 22 -21 21 -22 20 -23 18 -23 18 -25 16 -25 15 -27 14 -27 13 -27 11 -29 10 -29 8 -30 7 -30 6 -31 4 -31 2 -32 1 -33 130 0 -1 39 -3 39 -5 38 -7 37 -8 37 -10 36 -12 35 -14 34 -15 34 -17 32 -18 32 -20 31 -21 29 -22 29 -24 28 -25 26 -26 25 -28 24 -28 22 -30 21 -31 20 -31 18 -33 17 -34 15 -34 14 -35 12 -36 10 -37 8 -37 7 -38 5 -38 3 -39 1 0 0zm-758 -758l130 0 0 0 1 33 3 32 4 31 5 31 7 30 9 30 10 29 11 29 12 27 14 27 15 27 17 25 17 25 19 23 19 23 21 22 22 21 23 19 23 19 25 18 26 16 26 15 27 14 28 12 28 12 29 9 30 9 30 7 31 5 31 4 32 3 33 1 0 130 -39 -1 -39 -3 -38 -5 -37 -7 -37 -8 -35 -10 -36 -12 -34 -14 -34 -15 -32 -17 -32 -18 -31 -20 -29 -21 -29 -22 -27 -24 -27 -25 -25 -26 -24 -28 -22 -29 -21 -29 -20 -31 -18 -32 -17 -32 -15 -34 -14 -34 -11 -35 -11 -36 -8 -37 -7 -37 -5 -38 -3 -39 -1 -39 0 0zm758 -757l0 130 0 0 -33 1 -32 2 -31 4 -31 6 -30 7 -30 8 -29 10 -28 12 -28 12 -27 14 -26 15 -26 16 -25 18 -23 18 -23 20 -22 21 -21 22 -19 23 -19 23 -17 25 -17 25 -15 27 -14 27 -12 27 -11 29 -10 29 -9 30 -7 30 -5 31 -4 31 -3 32 -1 32 -130 0 1 -38 3 -39 5 -38 7 -37 8 -37 11 -36 11 -35 14 -34 15 -34 17 -33 18 -31 20 -31 21 -30 22 -28 24 -28 25 -26 27 -25 27 -24 29 -22 29 -21 31 -20 32 -18 32 -17 34 -15 34 -14 36 -12 35 -10 37 -8 37 -7 38 -5 39 -3 39 -1 0 0z"/>
    <path id="1" class="fil2" d="M3613 329c490,0 887,397 887,887 0,178 -52,343 -141,481l-712 1155c-1,2 -2,3 -3,4l0 0 0 0c-7,10 -18,17 -31,17 -13,0 -25,-7 -32,-17l0 0 0 0c-1,-1 -2,-2 -3,-4l-721 -1171c-2,-2 -3,-4 -4,-6l-1 -2 0 0c-80,-133 -127,-289 -127,-457 0,-490 398,-887 888,-887zm0 195c382,0 692,310 692,692 0,383 -310,693 -692,693 -383,0 -693,-310 -693,-693 0,-382 310,-692 693,-692z"/>
   </g>
  </g>
 </g>
</svg>
