<?xml version="1.0" encoding="utf-8"?>
<!-- Generator: Adobe Illustrator 25.2.1, SVG Export Plug-In . SVG Version: 6.00 Build 0)  -->
<svg version="1.1" id="Capa_1" xmlns="http://www.w3.org/2000/svg" xmlns:xlink="http://www.w3.org/1999/xlink" x="0px" y="0px"
	 viewBox="0 0 100 100" style="enable-background:new 0 0 100 100;" xml:space="preserve">
<style type="text/css">
	.st0{fill:none;stroke:#000000;stroke-width:5;stroke-miterlimit:10;}
	.st1{fill:none;stroke:#000000;stroke-width:5;stroke-linecap:round;stroke-linejoin:round;stroke-miterlimit:10;}
</style>
<g>
	<g>
		<ellipse class="st0" cx="80.09" cy="19.07" rx="7.1" ry="7.09"/>
		<ellipse class="st0" cx="80.09" cy="19.07" rx="7.1" ry="7.09"/>
	</g>
	<g>
		<path class="st1" d="M81.25,3.02c-9.79-0.65-17.9,7.1-17.95,16.75v0.04c0,3.33,1.24,6.22,2.89,9.38c1.27,2.24,2.63,4.44,4.05,6.58
			c2.1,3.16,4.36,6.2,6.78,9.13l1.04,1.26c0.92,1.26,3.16,1.31,4.07,0l0.19-0.24c3.43-4.35,6.64-8.84,9.64-13.49
			c0.7-1.07,1.38-2.15,2.05-3.24c1.41-2.5,2.89-6.28,2.88-10.02C96.87,10.65,89.76,3.59,81.25,3.02z M80.09,11.98
			c3.92,0,7.1,3.17,7.1,7.09s-3.18,7.09-7.1,7.09s-7.1-3.17-7.1-7.09S76.17,11.98,80.09,11.98z"/>
		<path class="st1" d="M92.1,33.22v53.64c0,1.45-1.39,2.64-3.09,2.64l-27.24,7.51c-0.13,0-0.25,0-0.38-0.02
			c-0.12,0.02-0.24,0.02-0.37,0.02L33.78,89.5c-0.06,0-0.11,0-0.17-0.02c-0.05,0.02-0.11,0.02-0.16,0.02L6.21,97.01
			c-1.72,0-3.1-1.19-3.1-2.64V40.75c0-1.47,1.36-2.19,3.1-2.64L32.3,30.9c0.76-0.21,1.57-0.23,2.34-0.04
			c5.46,1.3,26.38,7.25,26.38,7.25c0.13,0,0.25,0,0.37,0.03c0.13-0.03,0.25-0.03,0.38-0.03l8.47-2.34c2.1,3.16,4.36,6.2,6.78,9.13
			l1.04,1.26c0.92,1.26,3.16,1.31,4.07,0l0.19-0.24c3.43-4.35,6.64-8.84,9.64-13.49C92.05,32.68,92.1,32.95,92.1,33.22z"/>
		<line class="st1" x1="33.36" y1="31.82" x2="33.45" y2="89.5"/>
		<line class="st1" x1="61.39" y1="38.14" x2="61.39" y2="96.99"/>
	</g>
</g>
</svg>
