<?xml version="1.0" encoding="utf-8"?>
<!-- Generator: Adobe Illustrator 25.2.1, SVG Export Plug-In . SVG Version: 6.00 Build 0)  -->
<svg version="1.1" id="Capa_1" xmlns="http://www.w3.org/2000/svg" xmlns:xlink="http://www.w3.org/1999/xlink" x="0px" y="0px"
	 viewBox="0 0 100 100" style="enable-background:new 0 0 100 100;" xml:space="preserve">
<style type="text/css">
	.st0{fill:none;stroke:#000000;stroke-width:5;stroke-miterlimit:10;}
</style>
<g>
	<path class="st0" d="M84.53,25.57H51.99V49h4.74c1.11,0,2,0.9,2,2v45.31c0,1.1-0.89,2-2,2h-21.5c-1.11,0-2-0.9-2-2V51
		c0-1.1,0.89-2,2-2h4.46V25.57H15.46c-0.98,0-1.78-0.84-1.78-1.87V3.56c0-1.03,0.8-1.87,1.78-1.87h49.01c1.1,0,2.15,0.47,2.95,1.31
		l18.3,19.31C86.94,23.45,86.17,25.57,84.53,25.57z"/>
</g>
</svg>
