<?xml version="1.0" encoding="utf-8"?>
<!-- Generator: Adobe Illustrator 25.2.1, SVG Export Plug-In . SVG Version: 6.00 Build 0)  -->
<svg version="1.1" id="Capa_1" xmlns="http://www.w3.org/2000/svg" xmlns:xlink="http://www.w3.org/1999/xlink" x="0px" y="0px"
	 viewBox="0 0 100 100" style="enable-background:new 0 0 100 100;" xml:space="preserve">
<style type="text/css">
	.st0{stroke:#000000;stroke-miterlimit:10;}
</style>
<g>
	<path class="st0" d="M56.73,98.31h-21.5c-1.1,0-2-0.9-2-2V47.77c0-1.1,0.9-2,2-2h21.5c1.1,0,2,0.9,2,2v48.54
		C58.73,97.41,57.84,98.31,56.73,98.31z"/>
	<rect x="42.72" y="25.57" class="st0" width="6.53" height="20.21"/>
	<path class="st0" d="M84.53,25.57H15.46c-0.98,0-1.78-0.84-1.78-1.87V3.56c0-1.03,0.8-1.87,1.78-1.87h49.01
		c1.1,0,2.15,0.47,2.95,1.31l18.3,19.31C86.94,23.45,86.17,25.57,84.53,25.57z"/>
</g>
</svg>
