<?xml version="1.0" encoding="utf-8"?>
<!-- Generator: Adobe Illustrator 25.2.1, SVG Export Plug-In . SVG Version: 6.00 Build 0)  -->
<svg version="1.1" id="Capa_2" xmlns="http://www.w3.org/2000/svg" xmlns:xlink="http://www.w3.org/1999/xlink" x="0px" y="0px"
	 viewBox="0 0 100 100" style="enable-background:new 0 0 100 100;" xml:space="preserve">
<style type="text/css">
	.st0{fill:none;stroke:#FFF;stroke-width:5;stroke-linecap:round;stroke-linejoin:round;stroke-miterlimit:10;}
	.st1{fill:none;stroke:#FFF;stroke-width:4;stroke-linecap:round;stroke-linejoin:round;stroke-miterlimit:10;}
	.st2{stroke:#FFF;color:#FFF;font-family:'ArialNarrow';}
	.st3{stroke:#FFF;color:#FFF;font-size:52px;}
</style>
<g>
	<path class="st0" d="M89.75,47.16v41.99c0,2.76-2.24,5-5,5H13.04c-2.76,0-5-2.24-5-5V17.44c0-2.76,2.24-5,5-5h42.27
		c2.46,0,4.51,1.79,4.93,4.21c0.36,2.03,0.92,4.06,1.7,6.03c1.49,3.81,3.77,7.43,6.86,10.54c2.88,2.9,6.46,5.36,10.79,7.12
		c1.92,0.79,3.99,1.44,6.21,1.93C88.1,42.78,89.75,44.8,89.75,47.16z"/>
	<line class="st1" x1="68.81" y1="33.22" x2="9.21" y2="92.36"/>
	<line class="st1" x1="79.6" y1="40.35" x2="25.39" y2="94.15"/>
	<line class="st1" x1="89.75" y1="48.02" x2="43.26" y2="94.14"/>
	<line class="st1" x1="89.75" y1="66.55" x2="61.94" y2="94.14"/>
	<line class="st1" x1="89.75" y1="84.72" x2="80.26" y2="94.14"/>
	<line class="st1" x1="18.4" y1="12.43" x2="8.04" y2="22.72"/>
	<line class="st1" x1="36.31" y1="12.43" x2="8.04" y2="40.48"/>
	<line class="st1" x1="53.67" y1="12.43" x2="8.04" y2="57.72"/>
	<line class="st1" x1="61.95" y1="22.68" x2="8.04" y2="76.18"/>
</g>
<text transform="matrix(1 0 0 1 73.7149 29.4595)" class="st2 st3">s</text>
</svg>
