<?xml version="1.0" encoding="UTF-8"?>
<!DOCTYPE svg PUBLIC "-//W3C//DTD SVG 1.1//EN" "http://www.w3.org/Graphics/SVG/1.1/DTD/svg11.dtd">
<!-- Creator: CorelDRAW X8 -->
<svg xmlns="http://www.w3.org/2000/svg" xml:space="preserve" width="55mm" height="55mm" version="1.1" style="shape-rendering:geometricPrecision; text-rendering:geometricPrecision; image-rendering:optimizeQuality; fill-rule:evenodd; clip-rule:evenodd"
viewBox="0 0 5500 5500"
 xmlns:xlink="http://www.w3.org/1999/xlink">
 <defs>
  <style type="text/css">
   <![CDATA[
    .str0 {stroke:#626262;stroke-width:7.62;stroke-linejoin:bevel}
    .fil0 {fill:#626262}
   ]]>
  </style>
 </defs>
 <g id="Capa_x0020_1">
  <metadata id="CorelCorpID_0Corel-Layer"/>
  <g id="_1888726023776">
   <path class="fil0 str0" d="M1590 5015c631,-142 1049,-779 949,-1437 -17,-112 -48,-218 -91,-317 -48,-133 -117,-258 -216,-384 -683,-879 -1795,-1637 -1986,-2625 -1,0 -1,0 -1,0 0,0 0,2492 0,2492 0,0 -2,1671 1345,2271 0,0 0,0 0,0z"/>
   <path class="fil0 str0" d="M3927 5248c0,0 0,0 0,0 0,0 8,0 0,0z"/>
   <path class="fil0 str0" d="M2692 2420c323,276 1704,1571 727,2827 401,0 491,1 508,1 4,-9 606,-1298 -1235,-2828z"/>
   <path class="fil0 str0" d="M2692 2420c-41,-34 -65,-53 -65,-53 22,18 44,36 65,53z"/>
   <path class="fil0 str0" d="M2749 252c-184,0 -968,0 -1611,0 13,35 26,70 41,108 57,142 131,268 218,385 102,160 234,309 401,444 1294,1047 3081,1733 3439,3313 0,0 -17,-23 18,-64 0,-370 0,-909 0,-1694 0,-2505 -2921,-2492 -2506,-2492z"/>
  </g>
 </g>
</svg>
