<?xml version="1.0" encoding="utf-8"?>
<!-- Generator: Adobe Illustrator 24.1.0, SVG Export Plug-In . SVG Version: 6.00 Build 0)  -->
<svg version="1.1" id="Capa_1" xmlns="http://www.w3.org/2000/svg" xmlns:xlink="http://www.w3.org/1999/xlink" x="0px" y="0px"
	 viewBox="0 0 142.01 141.62" style="enable-background:new 0 0 142.01 141.62;" xml:space="preserve">
<style type="text/css">
	.st0{fill:url(#SVGID_1_);}
</style>
<linearGradient id="SVGID_1_" gradientUnits="userSpaceOnUse" x1="0" y1="70.8092" x2="142.0118" y2="70.8092">
	<stop  offset="0" style="stop-color:#994F8B"/>
	<stop  offset="0.4594" style="stop-color:#964082"/>
	<stop  offset="1" style="stop-color:#912A76"/>
</linearGradient>
<path class="st0" d="M65.04,141.45c-0.28-0.02-0.56-0.03-0.84-0.05C64.48,141.42,64.76,141.43,65.04,141.45z M38.11,135
	c17.91-4,29.76-22.06,26.91-40.73c-0.49-3.18-1.37-6.17-2.59-8.99c-1.34-3.77-3.31-7.3-6.1-10.88C36.95,49.48,5.43,28,0.01,0
	c-0.03,0,0,0,0,0v70.63C0.01,70.63-0.07,118,38.11,135L38.11,135z M61.3,141.16c0.05,0.01,0.1,0.01,0.15,0.02
	C61.4,141.17,61.35,141.16,61.3,141.16z M58.78,140.87c-0.28-0.04-0.55-0.08-0.83-0.11C58.23,140.79,58.5,140.83,58.78,140.87z
	 M104.38,141.61L104.38,141.61C104.37,141.62,104.6,141.62,104.38,141.61z M69.36,61.47c9.15,7.8,48.3,44.52,20.6,80.13
	c11.39,0,13.94,0.01,14.41,0.02C104.49,141.37,121.54,104.83,69.36,61.47z M69.36,61.47c-1.16-0.99-1.84-1.52-1.84-1.52
	C68.15,60.46,68.75,60.96,69.36,61.47z M68.01,141.58c-0.29-0.01-0.57-0.02-0.86-0.03C67.44,141.56,67.72,141.57,68.01,141.58z
	 M40.77,136.25c-0.25-0.1-0.51-0.2-0.76-0.31C40.26,136.05,40.52,136.15,40.77,136.25z M42.92,137.08c-0.27-0.1-0.53-0.2-0.8-0.3
	C42.39,136.88,42.65,136.98,42.92,137.08z M70.98,0c-5.22,0-27.44,0-45.66,0c0.35,1,0.73,1.99,1.16,3.07
	c1.61,4.01,3.7,7.6,6.16,10.92c2.91,4.53,6.63,8.76,11.38,12.59c36.69,29.65,87.34,49.1,97.48,93.89c0,0-0.49-0.65,0.51-1.81
	c0-10.49,0-25.77,0-48.03C142.01-0.37,59.21,0,70.98,0z M45.08,137.83c-0.15-0.05-0.3-0.1-0.45-0.16
	C44.78,137.73,44.93,137.78,45.08,137.83z M52.84,139.88c-0.11-0.02-0.21-0.05-0.32-0.07C52.63,139.83,52.73,139.86,52.84,139.88z
	 M56.09,140.47c-0.27-0.04-0.54-0.09-0.8-0.13C55.56,140.39,55.82,140.43,56.09,140.47z M47.24,138.49
	c0.26,0.08,0.52,0.15,0.79,0.22C47.76,138.64,47.5,138.57,47.24,138.49z M49.62,139.13c0.27,0.07,0.54,0.14,0.82,0.2
	C50.16,139.27,49.89,139.2,49.62,139.13z"/>
</svg>
