<?xml version="1.0" encoding="utf-8"?>
<!-- Generator: Adobe Illustrator 25.2.1, SVG Export Plug-In . SVG Version: 6.00 Build 0)  -->
<svg version="1.1" id="Capa_1" xmlns="http://www.w3.org/2000/svg" xmlns:xlink="http://www.w3.org/1999/xlink" x="0px" y="0px"
	 viewBox="0 0 100 100" style="enable-background:new 0 0 100 100;" xml:space="preserve">
<path d="M96.82,50.83L79.24,68.19c-1.06,1.05-2.86,0.3-2.86-1.19v-9.52l-18.77-0.01h-0.15v18.93h9.52c1.49,0,2.25,1.8,1.2,2.86
	L50.83,96.82c-0.45,0.46-1.2,0.46-1.66,0L31.82,79.25c-1.05-1.06-0.3-2.86,1.2-2.86h9.51l0.01-18.92H23.61v9.57
	c0,1.47-1.77,2.21-2.82,1.18L3.18,50.83c-0.46-0.46-0.46-1.21,0-1.66l17.62-17.39c1.05-1.03,2.82-0.29,2.82,1.18v9.58h18.93V23.61
	h-9.58c-1.47,0-2.21-1.77-1.18-2.82L49.17,3.18c0.45-0.46,1.2-0.46,1.66,0l17.39,17.61c1.03,1.05,0.29,2.82-1.18,2.82h-9.56
	l-0.01,18.93h18.93v-9.53c0-1.49,1.8-2.24,2.86-1.19l17.58,17.36C97.29,49.62,97.29,50.37,96.82,50.83z"/>
</svg>
