<svg xmlns="http://www.w3.org/2000/svg" viewBox="0 0 94.73 98.04"><defs><style>.cls-1,.cls-2,.cls-3,.cls-4,.cls-5{stroke:#000;stroke-width:5px;}.cls-1,.cls-5{stroke-linecap:round;}.cls-1,.cls-3,.cls-5{stroke-linejoin:round;}.cls-2,.cls-4{stroke-miterlimit:10;}.cls-4,.cls-5{fill:#fff;}</style></defs><g id="Capa_2" data-name="Capa 2"><path class="cls-1" d="M5.14,66.79c7.4,12.78,28.43,12.78,35.59,12.78,2.46,0,15.28.11,17.44,0" transform="translate(-2.64 -0.98)"/><path class="cls-2" d="M59.81,23.26a19.34,19.34,0,0,1-38.68,0A19.58,19.58,0,0,1,40.47,3.48,19.56,19.56,0,0,1,59.81,23.26Z" transform="translate(-2.64 -0.98)"/><path class="cls-3" d="M5.14,66.79C10.6,55.52,16.52,52,20.91,50.85c6.41-1.66,8.89,1.92,20.08,1.83S51.66,50.91,58.17,52c5.16.89,9.31,8.62,11.11,9.73l-63,5L58.17,79.57,69.28,61.76" transform="translate(-2.64 -0.98)"/><circle class="cls-4" cx="73.85" cy="77.17" r="18.38"/><line class="cls-5" x1="73.85" y1="69.96" x2="73.85" y2="84.37"/><line class="cls-5" x1="66.65" y1="77.17" x2="81.05" y2="77.17"/></g></svg>