<?xml version="1.0" encoding="utf-8"?>
<!-- Generator: Adobe Illustrator 25.2.1, SVG Export Plug-In . SVG Version: 6.00 Build 0)  -->
<svg version="1.1" id="Capa_2" xmlns="http://www.w3.org/2000/svg" xmlns:xlink="http://www.w3.org/1999/xlink" x="0px" y="0px"
	 viewBox="0 0 100 100" style="enable-background:new 0 0 100 100;" xml:space="preserve">
<style type="text/css">
	.st0{fill:none;stroke:#000000;stroke-width:5;stroke-linecap:round;stroke-miterlimit:10;}
</style>
<g>
	<g>
		<line class="st0" x1="28.47" y1="93.39" x2="28.74" y2="35.99"/>
	</g>
	<g>
		<path d="M29.46,7.91L29.46,7.91L29.46,7.91 M28.67,8.95l18.48,24.17l-36.96,0L28.67,8.95 M28.67,3.31c-1.19,0-2.38,0.52-3.18,1.57
			L4.99,31.7c-2.01,2.63-0.14,6.43,3.18,6.43l41,0c3.31,0,5.19-3.8,3.18-6.43L31.85,4.88C31.05,3.83,29.86,3.31,28.67,3.31
			L28.67,3.31z"/>
	</g>
	<g>
		<g>
			<line class="st0" x1="71.13" y1="6.61" x2="71.41" y2="63.35"/>
		</g>
		<g>
			<path d="M52.85,66.87l36.96,0L71.33,91.05L52.85,66.87 M50.83,61.87c-3.31,0-5.19,3.8-3.18,6.43l20.5,26.82
				c0.8,1.05,1.99,1.57,3.18,1.57c1.19,0,2.38-0.52,3.18-1.57l20.5-26.82c2.01-2.63,0.14-6.43-3.18-6.43L50.83,61.87L50.83,61.87z"
				/>
		</g>
	</g>
</g>
</svg>
