<?xml version="1.0" encoding="UTF-8"?>
<!DOCTYPE svg PUBLIC "-//W3C//DTD SVG 1.1//EN" "http://www.w3.org/Graphics/SVG/1.1/DTD/svg11.dtd">
<!-- Creator: CorelDRAW X8 -->
<svg xmlns="http://www.w3.org/2000/svg" xml:space="preserve" width="44mm" height="42mm" version="1.1" style="shape-rendering:geometricPrecision; text-rendering:geometricPrecision; image-rendering:optimizeQuality; fill-rule:evenodd; clip-rule:evenodd"
viewBox="0 0 4400 4200"
 xmlns:xlink="http://www.w3.org/1999/xlink">
 <defs>
  <style type="text/css">
   <![CDATA[
    .fil1 {fill:#96989A}
    .fil0 {fill:#96989A;fill-rule:nonzero}
    .fil2 {fill:#96989A;fill-rule:nonzero}
   ]]>
  </style>
 </defs>
 <g id="Capa_x0020_1">
  <metadata id="CorelCorpID_0Corel-Layer"/>
  <g>
   <path class="fil0" d="M2906 2182l-624 624 -9 -9 624 -624 9 0 0 9zm-9 -9l4 -5 5 5 -9 0zm1091 1100l-1091 -1091 9 -9 1091 1091 0 0 -9 9zm9 375l-9 -10 0 0 9 -9 8 -10 8 -11 8 -10 7 -11 6 -11 5 -11 5 -12 5 -12 4 -12 3 -12 2 -12 2 -12 2 -12 1 -13 0 -12 0 -13 -1 -12 -2 -12 -2 -13 -2 -12 -3 -12 -4 -12 -5 -11 -5 -12 -5 -11 -6 -11 -7 -11 -8 -11 -8 -10 -8 -10 -9 -10 9 -9 10 10 9 11 8 10 8 11 7 12 6 12 6 11 5 13 5 12 4 12 4 13 2 13 2 13 2 13 1 13 0 13 0 13 -1 13 -2 13 -2 13 -2 12 -4 13 -4 13 -5 12 -5 12 -6 12 -6 12 -7 11 -8 11 -8 11 -9 11 -10 10 0 0zm-259 240l250 -250 9 10 -249 249 0 0 -10 -9zm-374 9l9 -9 0 0 10 9 10 8 10 8 11 8 11 7 11 6 11 5 12 5 11 5 12 4 12 3 12 2 13 2 12 2 12 1 13 0 12 0 13 -1 12 -2 12 -2 12 -2 12 -3 12 -4 12 -5 12 -5 11 -5 11 -6 11 -7 10 -8 11 -8 10 -8 9 -9 10 9 -10 10 -11 9 -11 8 -11 8 -11 7 -12 6 -12 6 -12 5 -12 5 -13 4 -13 4 -12 2 -13 2 -13 2 -13 1 -13 0 -13 0 -13 -1 -13 -2 -13 -2 -13 -2 -13 -4 -12 -4 -12 -5 -13 -5 -11 -6 -12 -6 -12 -7 -11 -8 -10 -8 -11 -9 -10 -10 0 0zm-1082 -1100l1091 1091 -9 9 -1091 -1091 0 -9 9 0zm-9 9l-5 -5 5 -4 0 9z"/>
   <path id="1" class="fil1" d="M2278 2801l623 -623 1091 1091c103,103 103,271 0,374l-249 249c-103,103 -271,103 -374,0l-1091 -1091z"/>
  </g>
  <g>
   <path class="fil0" d="M2712 495l-246 246 0 0 -43 -41 -44 -38 -46 -36 -47 -33 -49 -30 -49 -28 -51 -24 -51 -23 -52 -20 -53 -17 -54 -14 -54 -12 -55 -9 -54 -7 -56 -4 -55 -1 -55 1 -55 4 -55 7 -55 9 -54 12 -53 14 -53 17 -52 20 -52 22 -50 25 -50 28 -48 30 -47 33 -46 36 -44 38 -43 41 -246 -246 56 -53 58 -49 60 -47 61 -42 63 -40 65 -36 66 -33 67 -29 68 -25 69 -23 70 -19 70 -15 71 -12 72 -8 71 -6 72 -1 72 1 72 6 71 8 71 12 70 15 70 19 69 23 68 25 67 29 66 33 65 36 63 39 61 43 60 46 58 50 55 53 0 0zm0 2117l-245 -245 0 0 41 -43 38 -45 35 -45 33 -48 30 -48 28 -49 25 -51 22 -51 20 -52 17 -53 15 -54 11 -54 10 -55 6 -55 4 -55 1 -55 -1 -55 -4 -55 -6 -55 -10 -55 -12 -54 -14 -53 -17 -53 -20 -53 -22 -51 -25 -51 -28 -49 -30 -49 -33 -47 -35 -46 -39 -44 -41 -43 246 -246 53 56 50 57 46 60 43 62 39 63 36 64 33 66 29 67 26 68 22 69 19 70 15 70 12 71 9 72 5 71 2 72 -2 72 -5 72 -9 71 -12 71 -15 70 -19 70 -22 69 -26 69 -29 67 -33 66 -36 64 -39 63 -43 62 -46 59 -50 58 -53 56 0 0zm-2117 0l246 -246 0 0 43 41 44 39 46 35 48 33 48 30 49 28 51 25 51 22 53 20 53 17 53 14 54 12 55 10 55 6 55 4 55 1 55 -1 55 -4 55 -6 55 -10 54 -11 54 -15 53 -17 52 -20 51 -22 51 -25 49 -28 48 -30 48 -33 45 -35 45 -38 43 -41 245 245 -56 53 -58 50 -59 46 -62 43 -63 39 -64 36 -66 33 -67 29 -69 26 -69 22 -69 19 -71 15 -71 12 -71 9 -72 5 -72 2 -72 -2 -71 -5 -72 -9 -71 -12 -70 -15 -70 -19 -69 -22 -68 -26 -67 -29 -66 -33 -64 -36 -63 -39 -62 -43 -60 -46 -57 -50 -56 -53 0 0zm0 -2117l246 246 0 0 -41 43 -38 44 -36 46 -33 47 -30 48 -28 50 -25 50 -22 52 -20 52 -17 53 -14 53 -12 54 -9 55 -7 55 -4 55 -1 55 1 55 4 56 7 54 9 55 12 54 14 54 17 53 20 52 23 51 24 51 28 49 30 49 33 47 36 46 38 44 41 43 -246 246 -53 -55 -50 -58 -46 -60 -43 -61 -39 -63 -36 -65 -33 -66 -29 -67 -25 -68 -23 -69 -19 -70 -15 -70 -12 -71 -8 -71 -6 -72 -1 -72 1 -72 6 -71 8 -72 12 -71 16 -70 18 -70 23 -69 25 -68 30 -67 32 -66 36 -65 40 -63 42 -61 47 -60 49 -58 53 -56 0 0z"/>
  </g>
  <g>
   <path class="fil2" d="M1747 1460l-22 22 0 0 -3 -4 -4 -3 -4 -3 -4 -3 -5 -3 -4 -2 -5 -2 -4 -2 -5 -2 -4 -2 -5 -1 -5 -1 -5 -1 -5 0 -4 -1 -5 0 -5 0 -5 1 -5 0 -5 1 -5 1 -4 1 -5 2 -5 2 -4 2 -5 2 -4 2 -4 3 -4 3 -4 3 -4 3 -4 4 -22 -22 5 -4 5 -5 6 -4 5 -4 6 -3 5 -3 6 -3 6 -3 6 -2 6 -2 6 -2 6 -1 7 -1 6 -1 6 0 7 0 6 0 6 0 7 1 6 1 6 1 6 2 6 2 6 2 6 3 6 3 6 3 5 3 6 4 5 4 5 5 5 4 0 0zm0 187l-22 -22 0 0 4 -3 3 -4 4 -4 2 -4 3 -5 3 -4 2 -5 2 -4 2 -5 1 -4 1 -5 1 -5 1 -5 1 -5 0 -4 0 -5 0 -5 0 -5 -1 -5 -1 -5 -1 -4 -1 -5 -1 -5 -2 -4 -2 -5 -2 -5 -3 -4 -3 -4 -2 -4 -4 -4 -3 -4 -4 -4 22 -22 5 5 4 5 4 5 4 6 4 5 3 6 3 6 2 6 2 6 2 6 2 6 1 6 2 7 0 6 1 6 0 7 0 6 -1 6 0 7 -2 6 -1 6 -2 6 -2 6 -2 6 -2 6 -3 6 -3 6 -4 5 -4 6 -4 5 -4 5 -5 5 0 0zm-187 0l22 -22 0 0 4 4 4 3 4 4 4 2 4 3 5 3 4 2 5 2 4 2 5 1 5 1 4 1 5 1 5 1 5 0 5 0 5 0 4 0 5 -1 5 -1 5 -1 5 -1 4 -1 5 -2 4 -2 5 -2 4 -3 5 -2 4 -3 4 -4 4 -3 3 -4 22 22 -5 5 -5 4 -5 4 -6 4 -5 4 -6 3 -6 3 -6 2 -6 2 -6 2 -6 2 -6 1 -6 2 -7 0 -6 1 -6 0 -7 0 -6 -1 -6 0 -7 -2 -6 -1 -6 -2 -6 -2 -6 -2 -6 -2 -6 -3 -6 -3 -5 -4 -6 -4 -5 -4 -5 -4 -5 -5 0 0zm0 -187l22 22 0 0 -4 4 -3 4 -3 4 -3 4 -3 4 -2 4 -2 5 -2 4 -2 5 -2 5 -1 4 -1 5 -1 5 0 5 -1 5 0 5 0 5 1 4 0 5 1 5 1 5 1 5 2 4 2 5 2 4 2 5 2 4 3 5 3 4 3 4 3 4 4 3 -22 22 -4 -5 -5 -5 -4 -5 -4 -6 -3 -5 -3 -6 -3 -6 -3 -6 -2 -6 -2 -6 -2 -6 -1 -6 -1 -6 -1 -7 0 -6 0 -6 0 -7 0 -6 1 -6 1 -7 1 -6 2 -6 2 -6 2 -6 3 -6 3 -6 3 -5 3 -6 4 -5 4 -6 5 -5 4 -5 0 0z"/>
   <path id="1" class="fil1" d="M1571 1471c46,-46 120,-46 165,0 46,46 46,120 0,165 -45,46 -119,46 -165,0 -46,-45 -46,-119 0,-165z"/>
  </g>
  <g>
   <path class="fil2" d="M1747 1460l-22 22 0 0 -3 -4 -4 -3 -4 -3 -4 -3 -5 -3 -4 -2 -5 -2 -4 -2 -5 -2 -4 -2 -5 -1 -5 -1 -5 -1 -5 0 -4 -1 -5 0 -5 0 -5 1 -5 0 -5 1 -5 1 -4 1 -5 2 -5 2 -4 2 -5 2 -4 2 -4 3 -4 3 -4 3 -4 3 -4 4 -22 -22 5 -4 5 -5 6 -4 5 -4 6 -3 5 -3 6 -3 6 -3 6 -2 6 -2 6 -2 6 -1 7 -1 6 -1 6 0 7 -1 6 1 6 0 7 1 6 1 6 1 6 2 6 2 6 2 6 3 6 3 6 3 5 3 6 4 5 4 5 5 5 4 0 0zm0 187l-22 -22 0 0 4 -3 3 -4 4 -4 2 -4 3 -5 3 -4 2 -5 2 -4 2 -5 1 -4 1 -5 1 -5 1 -5 1 -5 0 -4 0 -5 0 -5 0 -5 -1 -5 -1 -5 -1 -4 -1 -5 -1 -5 -2 -4 -2 -5 -2 -5 -3 -4 -3 -4 -2 -4 -4 -4 -3 -4 -4 -4 22 -22 5 5 4 5 4 5 4 6 4 5 3 6 3 6 2 6 2 6 2 6 2 6 1 6 2 7 0 6 1 6 0 7 0 6 -1 6 0 7 -2 6 -1 6 -2 6 -2 6 -2 6 -2 6 -3 6 -3 6 -4 5 -4 6 -4 5 -4 5 -5 5 0 0zm-187 0l22 -22 0 0 4 4 4 3 4 4 4 2 4 3 5 3 4 2 5 2 4 2 5 1 5 1 4 1 5 1 5 1 5 0 5 0 5 0 4 0 5 -1 5 -1 5 -1 5 -1 4 -1 5 -2 4 -2 5 -2 4 -3 5 -3 4 -2 4 -4 4 -3 3 -4 22 22 -5 5 -5 4 -5 4 -6 4 -5 4 -6 3 -6 3 -6 2 -6 2 -6 2 -6 2 -6 1 -6 1 -7 1 -6 1 -6 0 -7 0 -6 -1 -6 -1 -7 -1 -6 -1 -6 -2 -6 -2 -6 -2 -6 -2 -6 -3 -6 -3 -5 -4 -6 -4 -5 -4 -5 -4 -5 -5 0 0zm0 -187l22 22 0 0 -4 4 -3 4 -3 4 -3 4 -3 4 -2 4 -2 5 -2 4 -2 5 -2 5 -1 4 -1 5 -1 5 0 5 -1 5 0 5 0 5 1 4 0 5 1 5 1 5 1 5 2 4 2 5 2 4 2 5 2 4 3 4 3 5 3 4 3 4 4 3 -22 22 -4 -5 -5 -5 -4 -5 -4 -6 -3 -5 -3 -6 -3 -6 -3 -6 -2 -6 -2 -6 -2 -6 -1 -6 -1 -6 -1 -7 0 -6 0 -6 0 -7 0 -6 1 -6 1 -7 1 -6 2 -6 2 -6 2 -6 3 -6 3 -6 3 -5 3 -6 4 -5 4 -6 5 -5 4 -5 0 0z"/>
   <path id="1" class="fil1" d="M1571 1471c46,-46 120,-46 165,0 46,46 46,120 0,165 -45,46 -119,46 -165,0 -46,-45 -46,-119 0,-165z"/>
  </g>
  <g>
   <path class="fil2" d="M1287 1460l-22 22 0 0 -3 -4 -4 -3 -4 -3 -4 -3 -5 -3 -4 -2 -5 -2 -4 -2 -5 -2 -4 -2 -5 -1 -5 -1 -5 -1 -5 0 -4 -1 -5 0 -5 0 -5 1 -5 0 -5 1 -5 1 -4 1 -5 2 -5 2 -4 2 -5 2 -4 2 -4 3 -4 3 -4 3 -4 3 -4 4 -22 -22 5 -4 5 -5 6 -4 5 -4 6 -3 5 -3 6 -3 6 -3 6 -2 6 -2 6 -2 6 -1 7 -1 6 -1 6 0 7 -1 6 1 6 0 7 1 6 1 6 1 6 2 6 2 6 2 6 3 6 3 6 3 5 3 6 4 5 4 5 5 5 4 0 0zm0 187l-22 -22 0 0 4 -3 3 -4 4 -4 2 -4 3 -5 3 -4 2 -5 2 -4 2 -5 1 -4 1 -5 1 -5 1 -5 1 -5 0 -4 0 -5 0 -5 0 -5 -1 -5 -1 -5 -1 -4 -1 -5 -1 -5 -2 -4 -2 -5 -2 -5 -3 -4 -3 -4 -2 -4 -4 -4 -3 -4 -4 -4 22 -22 5 5 4 5 4 5 4 6 4 5 3 6 3 6 2 6 2 6 2 6 2 6 1 6 2 7 0 6 1 6 0 7 0 6 -1 6 0 7 -2 6 -1 6 -2 6 -2 6 -2 6 -2 6 -3 6 -3 6 -4 5 -4 6 -4 5 -4 5 -5 5 0 0zm-187 0l22 -22 0 0 4 4 4 3 4 4 4 2 4 3 5 3 4 2 5 2 4 2 5 1 5 1 4 1 5 1 5 1 5 0 5 0 5 0 4 0 5 -1 5 -1 5 -1 5 -1 4 -1 5 -2 4 -2 5 -2 4 -3 5 -3 4 -2 4 -4 4 -3 3 -4 22 22 -5 5 -5 4 -5 4 -6 4 -5 4 -6 3 -6 3 -6 2 -6 2 -6 2 -6 2 -6 1 -6 1 -7 1 -6 1 -6 0 -7 0 -6 -1 -6 -1 -7 -1 -6 -1 -6 -2 -6 -2 -6 -2 -6 -2 -6 -3 -6 -3 -5 -4 -6 -4 -5 -4 -5 -4 -5 -5 0 0zm0 -187l22 22 0 0 -4 4 -3 4 -3 4 -3 4 -3 4 -2 4 -2 5 -2 4 -2 5 -2 5 -1 4 -1 5 -1 5 0 5 -1 5 0 5 0 5 1 4 0 5 1 5 1 5 1 5 2 4 2 5 2 4 2 5 2 4 3 4 3 5 3 4 3 4 4 3 -22 22 -4 -5 -5 -5 -4 -5 -4 -6 -3 -5 -3 -6 -3 -6 -3 -6 -2 -6 -2 -6 -2 -6 -1 -6 -1 -6 -1 -7 0 -6 0 -6 0 -7 0 -6 1 -6 1 -7 1 -6 2 -6 2 -6 2 -6 3 -6 3 -6 3 -5 3 -6 4 -5 4 -6 5 -5 4 -5 0 0z"/>
   <path id="1" class="fil1" d="M1111 1471c46,-46 120,-46 165,0 46,46 46,120 0,165 -45,46 -119,46 -165,0 -46,-45 -46,-119 0,-165z"/>
  </g>
  <g>
   <path class="fil2" d="M2207 1460l-22 22 0 0 -3 -4 -4 -3 -4 -3 -4 -3 -5 -3 -4 -2 -5 -2 -4 -2 -5 -2 -4 -2 -5 -1 -5 -1 -5 -1 -5 0 -4 -1 -5 0 -5 0 -5 1 -5 0 -5 1 -5 1 -4 1 -5 2 -5 2 -4 2 -5 2 -4 2 -4 3 -4 3 -4 3 -4 3 -4 4 -22 -22 5 -4 5 -5 6 -4 5 -4 6 -3 5 -3 6 -3 6 -3 6 -2 6 -2 6 -2 6 -1 7 -1 6 -1 6 0 7 -1 6 1 6 0 7 1 6 1 6 1 6 2 6 2 6 2 6 3 6 3 6 3 5 3 6 4 5 4 5 5 5 4 0 0zm0 187l-22 -22 0 0 4 -3 3 -4 4 -4 2 -4 3 -5 3 -4 2 -5 2 -4 2 -5 1 -4 1 -5 1 -5 1 -5 1 -5 0 -4 0 -5 0 -5 0 -5 -1 -5 -1 -5 -1 -4 -1 -5 -1 -5 -2 -4 -2 -5 -2 -5 -3 -4 -3 -4 -2 -4 -4 -4 -3 -4 -4 -4 22 -22 5 5 4 5 4 5 4 6 4 5 3 6 3 6 2 6 2 6 2 6 2 6 1 6 2 7 0 6 1 6 0 7 0 6 -1 6 0 7 -2 6 -1 6 -2 6 -2 6 -2 6 -2 6 -3 6 -3 6 -4 5 -4 6 -4 5 -4 5 -5 5 0 0zm-187 0l22 -22 0 0 4 4 4 3 4 4 4 2 4 3 5 3 4 2 5 2 4 2 5 1 5 1 4 1 5 1 5 1 5 0 5 0 5 0 4 0 5 -1 5 -1 5 -1 5 -1 4 -1 5 -2 4 -2 5 -2 4 -3 5 -3 4 -2 4 -4 4 -3 3 -4 22 22 -5 5 -5 4 -5 4 -6 4 -5 4 -6 3 -6 3 -6 2 -6 2 -6 2 -6 2 -6 1 -6 1 -7 1 -6 1 -6 0 -7 0 -6 -1 -6 -1 -7 -1 -6 -1 -6 -2 -6 -2 -6 -2 -6 -2 -6 -3 -6 -3 -5 -4 -6 -4 -5 -4 -5 -4 -5 -5 0 0zm0 -187l22 22 0 0 -4 4 -3 4 -3 4 -3 4 -3 4 -2 4 -2 5 -2 4 -2 5 -2 5 -1 4 -1 5 -1 5 0 5 -1 5 0 5 0 5 1 4 0 5 1 5 1 5 1 5 2 4 2 5 2 4 2 5 2 4 3 4 3 5 3 4 3 4 4 3 -22 22 -4 -5 -5 -5 -4 -5 -4 -6 -3 -5 -3 -6 -3 -6 -3 -6 -2 -6 -2 -6 -2 -6 -1 -6 -1 -6 -1 -7 0 -6 0 -6 0 -7 0 -6 1 -6 1 -7 1 -6 2 -6 2 -6 2 -6 3 -6 3 -6 3 -5 3 -6 4 -5 4 -6 5 -5 4 -5 0 0z"/>
   <path id="1" class="fil1" d="M2031 1471c46,-46 120,-46 165,0 46,46 46,120 0,165 -45,46 -119,46 -165,0 -46,-45 -46,-119 0,-165z"/>
  </g>
 </g>
</svg>
