<?xml version="1.0" encoding="utf-8"?>
<!-- Generator: Adobe Illustrator 25.2.1, SVG Export Plug-In . SVG Version: 6.00 Build 0)  -->
<svg version="1.1" id="Capa_1" xmlns="http://www.w3.org/2000/svg" xmlns:xlink="http://www.w3.org/1999/xlink" x="0px" y="0px"
	 viewBox="0 0 100 100" style="enable-background:new 0 0 100 100;" xml:space="preserve">
<style type="text/css">
	.st0{fill:none;stroke:#FFF;stroke-width:5;stroke-miterlimit:10;}
	.st1{fill:none;stroke:#FFF;stroke-width:5;stroke-linecap:round;stroke-linejoin:round;stroke-miterlimit:10;}
</style>
<path class="st0" d="M76.63,24.19"/>
<path class="st0" d="M24.79,24.19"/>
<path class="st0" d="M76.83,24.35c-0.92,20.56-1.83,41.12-2.75,61.68c0,3.07-2.31,5.56-5.17,5.56H31.06c-2.85,0-5.17-2.49-5.17-5.56
	c-0.91-20.64-1.82-41.28-2.73-61.92"/>
<path class="st1" d="M86.56,21.7"/>
<path class="st1" d="M14.88,21.7"/>
<line class="st1" x1="43.15" y1="10.86" x2="56.85" y2="10.86"/>
<line class="st1" x1="12.23" y1="24.19" x2="89.22" y2="24.19"/>
<path class="st0" d="M24.79,24.19"/>
<path class="st0" d="M41.37,10.06"/>
<path class="st1" d="M76.63,22.26"/>
<path class="st1" d="M60.05,10.06"/>
<line class="st1" x1="36.72" y1="37.1" x2="37.28" y2="78.65"/>
<line class="st1" x1="49.72" y1="37.13" x2="50.28" y2="78.68"/>
<line class="st1" x1="62.72" y1="36.96" x2="63.28" y2="78.51"/>
</svg>
