<?xml version="1.0" encoding="UTF-8"?>
<!DOCTYPE svg PUBLIC "-//W3C//DTD SVG 1.1//EN" "http://www.w3.org/Graphics/SVG/1.1/DTD/svg11.dtd">
<!-- Creator: CorelDRAW X8 -->
<svg xmlns="http://www.w3.org/2000/svg" xml:space="preserve" width="52mm" height="52mm" version="1.1" style="shape-rendering:geometricPrecision; text-rendering:geometricPrecision; image-rendering:optimizeQuality; fill-rule:evenodd; clip-rule:evenodd"
viewBox="0 0 5200 5200"
 xmlns:xlink="http://www.w3.org/1999/xlink">
 <defs>
  <style type="text/css">
   <![CDATA[
    .str0 {stroke:#495C80;stroke-width:96.29;stroke-linecap:round;stroke-linejoin:round}
    .str1 {stroke:#495C80;stroke-width:129.99;stroke-linecap:round;stroke-linejoin:round}
    .fil1 {fill:none}
    .fil2 {fill:#FEFEFE}
    .fil0 {fill:#495C80;fill-rule:nonzero}
   ]]>
  </style>
 </defs>
 <g id="Capa_x0020_1">
  <metadata id="CorelCorpID_0Corel-Layer"/>
  <g id="_2093145293168">
   <g>
    <path class="fil0" d="M4429 2615l-193 0 0 0 -2 -98 -8 -97 -12 -95 -16 -94 -22 -92 -25 -90 -30 -88 -34 -87 -38 -84 -42 -82 -46 -80 -50 -77 -53 -74 -56 -72 -60 -69 -63 -66 -66 -63 -69 -60 -72 -56 -74 -54 -77 -49 -80 -46 -82 -42 -84 -38 -87 -34 -88 -30 -90 -25 -92 -22 -94 -16 -95 -12 -96 -8 -98 -2 0 -192 107 3 107 8 104 13 104 19 101 23 99 28 98 33 95 38 93 42 90 46 88 50 85 55 82 58 79 62 76 66 73 69 69 73 66 76 62 79 58 82 55 85 50 88 46 90 42 93 38 95 33 97 28 100 23 101 19 103 13 105 8 106 3 108 0 0zm-2094 2094l0 -192 0 0 98 -3 96 -7 95 -12 94 -17 92 -21 90 -26 88 -29 87 -34 84 -39 82 -42 80 -45 77 -50 74 -53 72 -56 69 -60 66 -63 63 -66 60 -69 56 -72 53 -75 50 -77 46 -79 42 -82 38 -85 34 -86 30 -88 25 -91 22 -92 16 -93 12 -96 8 -96 2 -98 193 0 -3 107 -8 107 -13 105 -19 103 -23 101 -28 99 -33 98 -38 95 -42 93 -46 90 -50 88 -55 84 -58 83 -62 79 -66 76 -69 72 -73 70 -76 65 -79 63 -82 58 -85 54 -88 51 -90 46 -93 42 -95 38 -98 33 -99 28 -101 23 -104 19 -104 13 -107 8 -107 3 0 0zm-2095 -2094l193 0 0 0 2 98 8 96 12 96 17 93 21 92 25 91 30 88 34 86 39 85 42 82 45 79 50 77 53 75 56 72 60 69 63 66 66 63 69 60 72 56 75 53 77 50 79 45 82 42 85 39 86 34 88 29 90 26 92 21 94 17 95 12 97 7 98 3 0 192 -108 -3 -106 -8 -105 -13 -103 -19 -102 -23 -99 -28 -98 -33 -95 -38 -92 -42 -91 -46 -88 -51 -84 -54 -83 -58 -79 -63 -76 -65 -72 -70 -70 -72 -65 -76 -63 -79 -58 -83 -54 -84 -51 -88 -46 -90 -42 -93 -38 -95 -32 -98 -29 -99 -23 -101 -18 -103 -14 -105 -8 -107 -3 -107 0 0zm2095 -2094l0 192 0 0 -98 2 -97 8 -95 12 -94 16 -92 22 -90 25 -88 30 -86 34 -85 38 -82 42 -79 46 -77 49 -75 54 -72 56 -69 60 -66 63 -63 66 -60 69 -56 72 -53 74 -50 77 -45 80 -42 82 -39 84 -34 87 -30 88 -25 90 -21 92 -17 94 -12 95 -8 97 -2 98 -193 0 3 -108 8 -106 14 -105 18 -103 23 -101 29 -100 32 -97 38 -95 42 -93 46 -90 51 -88 54 -85 58 -82 63 -79 65 -76 70 -73 72 -69 76 -66 79 -62 83 -58 84 -55 88 -50 91 -46 92 -42 95 -38 98 -33 99 -28 102 -23 103 -19 105 -13 106 -8 108 -3 0 0z"/>
   </g>
   <g>
    <path class="fil0" d="M3186 2334l-193 0 0 0 0 -34 -3 -33 -4 -33 -6 -33 -7 -32 -9 -31 -11 -31 -11 -29 -14 -30 -14 -28 -16 -28 -17 -26 -18 -26 -20 -25 -21 -24 -22 -23 -23 -22 -23 -21 -25 -19 -26 -19 -27 -17 -28 -16 -28 -14 -29 -13 -30 -12 -31 -10 -31 -9 -32 -8 -32 -5 -33 -5 -33 -2 -34 -1 0 -192 43 1 44 4 42 5 42 8 41 9 41 12 39 13 39 15 38 17 37 19 35 21 35 22 33 23 32 26 31 26 30 29 28 29 27 31 25 32 24 33 22 35 20 36 19 36 17 38 15 39 14 39 11 41 10 41 7 42 6 42 3 44 1 43 0 0zm-851 851l0 -192 0 0 34 0 33 -3 33 -4 32 -6 32 -7 31 -9 31 -11 30 -11 29 -13 28 -15 28 -16 27 -17 26 -18 25 -20 23 -21 23 -22 22 -22 21 -24 20 -25 18 -26 17 -27 16 -28 14 -28 14 -29 11 -30 11 -31 9 -31 7 -32 6 -32 4 -33 3 -34 0 -34 193 0 -1 44 -3 43 -6 43 -7 42 -10 41 -11 40 -14 40 -15 38 -17 38 -19 37 -20 35 -22 35 -24 33 -25 32 -27 31 -28 30 -30 28 -31 27 -32 25 -33 24 -35 22 -35 20 -37 19 -38 17 -39 16 -39 13 -41 11 -41 10 -42 7 -42 6 -44 3 -43 1 0 0zm-852 -851l193 0 0 0 1 34 2 34 4 33 6 32 8 32 8 31 11 31 12 30 13 29 14 28 16 28 17 27 19 26 19 25 21 24 22 22 23 22 24 21 25 20 26 18 26 17 28 16 28 15 29 13 30 11 31 11 31 9 32 7 32 6 33 4 34 3 34 0 0 192 -44 -1 -43 -3 -43 -6 -42 -7 -41 -10 -41 -11 -39 -13 -39 -16 -38 -17 -36 -19 -36 -20 -35 -22 -33 -24 -32 -25 -31 -27 -30 -28 -28 -30 -26 -31 -26 -32 -23 -33 -23 -35 -20 -35 -19 -37 -17 -38 -15 -38 -13 -40 -12 -40 -9 -41 -8 -42 -5 -43 -4 -43 -1 -44 0 0zm852 -851l0 192 0 0 -34 1 -34 2 -33 5 -32 5 -32 8 -31 9 -31 10 -30 12 -29 13 -28 14 -28 16 -26 17 -26 19 -25 19 -24 21 -23 22 -22 23 -21 24 -19 25 -19 26 -17 26 -16 28 -14 28 -13 30 -12 29 -11 31 -8 31 -8 32 -6 33 -4 33 -2 33 -1 34 -193 0 1 -43 4 -44 5 -42 8 -42 9 -41 12 -41 13 -39 15 -39 17 -38 19 -36 20 -36 23 -35 23 -33 26 -32 26 -31 28 -29 30 -29 31 -26 32 -26 33 -23 35 -22 36 -21 36 -19 38 -17 39 -15 39 -13 41 -12 41 -9 42 -8 43 -5 43 -4 44 -1 0 0z"/>
   </g>
   <g>
    <path class="fil0" d="M869 3883c-28,45 -88,59 -133,31 -45,-28 -59,-88 -31,-133l164 102zm1466 -891l0 193 0 0 -59 0 -59 3 -58 4 -58 5 -57 7 -57 9 -56 10 -55 12 -55 13 -54 14 -53 16 -52 17 -52 18 -50 20 -49 21 -48 22 -48 24 -46 25 -45 26 -43 27 -43 28 -41 29 -39 31 -38 31 -37 33 -36 33 -33 35 -33 35 -30 36 -29 37 -27 38 -26 39 -164 -102 30 -45 32 -45 33 -43 36 -42 37 -40 38 -40 41 -38 42 -37 43 -36 45 -34 46 -33 48 -32 49 -30 50 -29 51 -28 52 -26 54 -25 54 -23 56 -22 57 -20 57 -19 58 -17 59 -16 60 -14 61 -13 61 -11 62 -9 63 -8 63 -6 63 -4 64 -3 65 -1 0 0zm1645 816l-166 98 -25 -40 -27 -39 -28 -38 -30 -38 -32 -36 -34 -36 -35 -34 -37 -34 -38 -32 -40 -31 -41 -31 -43 -29 -44 -28 -45 -27 -46 -25 -48 -25 -49 -23 -50 -22 -51 -20 -52 -19 -53 -18 -54 -16 -54 -15 -56 -14 -56 -12 -57 -10 -58 -9 -58 -7 -59 -6 -59 -4 -60 -3 -60 0 0 -193 65 1 65 3 65 4 64 6 64 8 63 10 62 12 62 13 61 14 60 17 59 18 59 19 57 21 56 23 56 24 54 26 53 27 52 28 50 30 49 32 48 33 47 34 45 35 43 37 42 38 40 40 39 41 37 42 35 43 33 44 31 46 29 47zm0 0c28,46 13,105 -33,132 -46,27 -106,12 -133,-34l166 -98z"/>
   </g>
   <g>
    <path class="fil1 str0" d="M3749 3063c15,-40 47,-66 105,-70l284 0c52,3 84,31 102,80l53 162 318 0c59,0 106,48 106,106l0 745c0,58 -47,106 -106,106l-1236 0c-59,0 -106,-48 -106,-106l0 -745c0,-58 47,-106 106,-106l318 0 56 -172z"/>
    <path id="1" class="fil2" d="M3749 3063c15,-40 47,-66 105,-70l284 0c52,3 84,31 102,80l53 162 318 0c59,0 106,48 106,106l0 745c0,58 -47,106 -106,106l-1236 0c-59,0 -106,-48 -106,-106l0 -745c0,-58 47,-106 106,-106l318 0 56 -172z"/>
   </g>
   <g>
    <path class="fil0" d="M4294 3713l-97 0 0 0 0 -10 -1 -10 -1 -9 -2 -10 -2 -9 -2 -9 -3 -9 -4 -9 -4 -9 -4 -8 -5 -8 -5 -8 -5 -8 -6 -7 -6 -7 -6 -7 -7 -6 -7 -6 -7 -6 -8 -5 -8 -5 -8 -5 -8 -4 -9 -4 -9 -4 -9 -3 -9 -2 -9 -3 -10 -1 -9 -1 -10 -1 -10 0 0 -96 15 0 14 1 15 2 14 3 14 3 14 4 14 4 13 5 13 6 12 7 12 7 12 7 11 8 11 9 11 9 10 10 9 10 10 10 8 11 8 11 8 12 7 12 6 13 6 13 5 13 5 13 4 14 3 14 2 14 2 15 1 14 1 15 0 0zm-290 290l0 -96 0 0 10 0 10 -1 9 -1 10 -2 9 -2 9 -3 9 -3 9 -3 9 -4 8 -4 8 -5 8 -5 8 -6 7 -5 7 -6 7 -7 6 -7 6 -7 6 -7 5 -7 5 -8 5 -8 4 -9 4 -8 4 -9 3 -9 2 -9 2 -10 2 -9 1 -10 1 -10 0 -10 97 0 -1 15 -1 15 -2 14 -2 14 -3 14 -4 14 -5 14 -5 13 -6 13 -6 12 -7 12 -8 12 -8 11 -8 11 -10 11 -9 10 -10 9 -11 10 -11 8 -11 8 -12 8 -12 7 -12 6 -13 6 -13 5 -14 5 -14 4 -14 3 -14 2 -15 2 -14 1 -15 1 0 0zm-290 -290l96 0 0 0 1 10 0 10 2 10 1 9 3 10 2 9 3 9 4 9 4 8 4 9 4 8 5 8 6 7 6 7 6 7 6 7 7 7 7 6 7 5 8 6 8 5 8 5 8 4 9 4 8 3 9 3 10 3 9 2 9 2 10 1 10 1 10 0 0 96 -15 -1 -15 -1 -14 -2 -14 -2 -15 -3 -13 -4 -14 -5 -13 -5 -13 -6 -12 -6 -12 -7 -12 -8 -12 -8 -10 -8 -11 -10 -10 -9 -10 -10 -9 -11 -8 -11 -8 -11 -8 -12 -7 -12 -6 -12 -6 -13 -5 -13 -5 -14 -4 -14 -3 -14 -3 -14 -1 -14 -1 -15 -1 -15 0 0zm290 -289l0 96 0 0 -10 0 -10 1 -10 1 -9 1 -9 3 -10 2 -9 3 -8 4 -9 4 -8 4 -8 5 -8 5 -8 5 -7 6 -7 6 -7 6 -6 7 -6 7 -6 7 -6 8 -5 8 -4 8 -4 8 -4 9 -4 9 -3 9 -2 9 -3 9 -1 10 -2 9 0 10 -1 10 -96 0 1 -15 1 -14 1 -15 3 -14 3 -14 4 -14 5 -13 5 -13 6 -13 6 -13 7 -12 8 -12 8 -11 8 -11 9 -10 10 -10 10 -10 10 -9 11 -9 12 -8 12 -7 12 -7 12 -7 13 -6 13 -5 14 -4 13 -4 15 -3 14 -3 14 -2 15 -1 15 0 0 0z"/>
   </g>
   <g>
    <path class="fil0" d="M4553 3469l-96 0 0 0 0 3 1 3 0 3 1 2 1 3 1 2 1 1 1 2 1 1 1 1 0 0 1 0 0 1 0 0 0 0 0 0 0 0 0 -1 -1 0 -1 0 0 0 -1 -1 -1 0 -1 0 -1 0 -2 -1 -1 0 -1 0 -2 0 -1 0 -2 0 -1 0 0 -96 4 0 4 0 4 0 4 0 4 1 4 0 4 1 4 1 3 1 4 1 4 1 4 1 3 2 4 1 4 2 3 2 4 2 3 2 4 2 3 3 3 2 4 3 3 4 3 4 3 3 3 5 2 5 2 5 2 5 2 6 1 6 0 6 0 0zm-103 77l0 -96 0 0 1 0 2 0 1 0 2 0 1 0 1 -1 2 0 1 0 1 0 1 -1 1 0 0 0 1 0 1 -1 0 0 0 0 0 0 0 0 0 0 0 0 -1 1 0 0 -1 1 -1 1 -1 2 -1 1 -1 2 -1 2 -1 3 0 3 -1 3 0 3 96 0 0 6 -1 6 -2 6 -2 5 -2 5 -2 5 -3 4 -3 4 -3 4 -3 3 -4 3 -3 3 -3 3 -4 2 -3 2 -4 2 -3 2 -4 2 -4 1 -3 2 -4 1 -4 1 -3 1 -4 1 -4 1 -4 0 -4 1 -4 1 -4 0 -4 0 -4 0 -4 0 0 0zm-103 -77l95 0 0 0 0 -3 0 -3 -1 -3 -1 -3 -1 -2 -1 -2 -1 -1 -1 -2 -1 -1 0 -1 -1 0 -1 -1 0 0 0 0 0 0 0 0 0 0 1 0 0 1 1 0 1 0 1 0 1 1 1 0 1 0 1 0 1 1 2 0 1 0 2 0 1 0 2 0 0 96 -4 0 -4 0 -5 0 -4 0 -4 -1 -4 -1 -3 0 -4 -1 -4 -1 -4 -1 -3 -1 -4 -1 -4 -2 -4 -1 -3 -2 -4 -2 -3 -2 -4 -2 -3 -2 -4 -3 -3 -3 -3 -3 -3 -3 -4 -4 -2 -4 -3 -4 -3 -5 -2 -5 -2 -5 -1 -6 -1 -6 0 -6 0 0zm103 -77l0 96 0 0 -2 0 -1 0 -2 0 -1 0 -2 0 -1 0 -1 1 -1 0 -1 0 -1 0 -1 1 -1 0 -1 0 0 0 -1 1 0 0 0 0 0 0 0 0 1 -1 0 0 1 0 0 -1 1 -1 1 -2 1 -1 1 -2 1 -3 1 -2 1 -3 0 -3 0 -3 -95 0 0 -6 1 -6 1 -6 2 -5 2 -5 3 -5 3 -5 2 -3 4 -4 3 -4 3 -3 3 -2 4 -3 3 -2 4 -2 3 -2 4 -2 3 -2 4 -1 4 -2 3 -1 4 -1 4 -1 4 -1 4 -1 3 -1 4 0 4 -1 4 0 5 0 4 0 4 0 0 0z"/>
   </g>
   <g>
    <path class="fil1 str0" d="M3749 3063c15,-40 47,-66 105,-70l284 0c52,3 84,31 102,80l53 162 318 0c59,0 106,48 106,106l0 745c0,58 -47,106 -106,106l-1236 0c-59,0 -106,-48 -106,-106l0 -745c0,-58 47,-106 106,-106l318 0 56 -172z"/>
   </g>
  </g>
  <g>
   <path class="fil0" d="M4433 2615l-200 0 0 0 -3 -98 -7 -96 -12 -95 -17 -94 -21 -92 -26 -90 -30 -88 -34 -86 -38 -84 -41 -82 -46 -80 -50 -77 -53 -74 -56 -72 -60 -69 -62 -66 -66 -63 -69 -59 -72 -57 -74 -52 -77 -50 -80 -46 -82 -41 -84 -38 -86 -34 -88 -30 -90 -26 -92 -21 -93 -17 -95 -12 -97 -7 -97 -3 0 -199 108 3 106 8 105 13 103 19 102 23 100 29 97 33 95 37 93 42 91 47 88 50 85 55 82 58 79 62 76 66 73 70 70 73 66 76 62 79 58 82 55 85 50 88 47 91 42 92 37 96 33 97 29 100 23 101 18 104 14 105 8 106 3 108 0 0zm-2098 2097l0 -199 0 0 97 -2 97 -8 95 -12 93 -16 92 -22 90 -25 88 -30 86 -34 84 -38 82 -42 80 -45 77 -50 74 -53 72 -56 69 -60 66 -63 62 -66 60 -69 56 -71 53 -75 50 -77 46 -79 41 -82 38 -84 34 -86 30 -88 26 -91 21 -91 17 -94 12 -95 7 -96 3 -98 200 0 -3 108 -8 106 -14 105 -18 103 -23 102 -29 99 -33 98 -37 95 -42 93 -47 91 -50 87 -55 86 -58 82 -62 79 -66 76 -70 73 -73 69 -76 66 -79 63 -82 58 -85 55 -88 50 -91 46 -93 42 -95 38 -97 33 -100 28 -102 24 -103 18 -105 14 -106 8 -108 2 0 0zm-2098 -2097l200 0 0 0 2 98 8 96 12 95 16 94 21 91 26 91 30 88 34 86 38 84 42 82 45 79 50 77 53 75 56 71 60 69 63 66 66 63 69 60 71 56 75 53 77 50 79 45 82 42 84 38 86 34 88 30 90 25 92 22 94 16 94 12 97 8 98 2 0 199 -108 -2 -107 -8 -105 -14 -103 -18 -102 -24 -99 -28 -98 -33 -95 -38 -93 -42 -91 -46 -87 -50 -86 -55 -82 -58 -79 -63 -76 -66 -73 -69 -69 -73 -66 -76 -63 -79 -58 -82 -55 -86 -50 -87 -46 -91 -42 -93 -38 -95 -33 -98 -28 -99 -24 -102 -18 -103 -13 -105 -9 -106 -2 -108 0 0zm2098 -2098l0 199 0 0 -98 3 -97 7 -94 12 -94 17 -92 21 -90 26 -88 30 -86 34 -84 38 -82 41 -79 46 -77 50 -75 52 -71 57 -69 59 -66 63 -63 66 -60 69 -56 72 -53 74 -50 77 -45 80 -42 82 -38 84 -34 86 -30 88 -26 90 -21 92 -16 94 -12 95 -8 96 -2 98 -200 0 2 -108 9 -106 13 -105 18 -104 24 -101 28 -100 33 -97 38 -96 42 -92 46 -91 50 -88 55 -85 58 -82 63 -79 66 -76 69 -73 73 -70 76 -66 79 -62 82 -58 86 -55 87 -50 91 -47 93 -42 95 -37 98 -33 99 -29 102 -23 103 -19 105 -13 107 -8 108 -3 0 0z"/>
  </g>
  <g>
   <path class="fil0" d="M3190 2334l-200 0 0 0 -1 -34 -3 -33 -4 -33 -6 -32 -7 -32 -9 -31 -10 -30 -12 -30 -13 -29 -14 -28 -16 -28 -17 -26 -18 -26 -20 -25 -21 -24 -21 -22 -23 -22 -24 -21 -25 -19 -25 -18 -27 -18 -27 -15 -29 -15 -29 -13 -29 -12 -31 -10 -31 -9 -31 -7 -33 -6 -32 -4 -34 -2 -33 -1 0 -199 44 1 43 3 43 5 42 8 41 9 41 12 40 13 39 16 38 17 36 19 36 20 35 23 33 23 33 26 31 27 29 28 29 30 27 31 25 32 24 33 22 35 21 36 18 37 18 38 15 38 13 40 12 41 9 41 8 42 5 43 4 43 1 44 0 0zm-855 855l0 -199 0 0 33 -1 34 -3 32 -4 33 -6 31 -7 31 -9 31 -10 29 -12 29 -13 29 -14 27 -16 27 -17 25 -18 25 -20 24 -20 23 -22 21 -23 21 -24 20 -24 18 -26 17 -27 16 -27 14 -29 13 -29 12 -29 10 -31 9 -31 7 -31 6 -33 4 -33 3 -33 1 -34 200 0 -1 44 -4 43 -5 43 -8 42 -9 42 -12 40 -13 40 -15 39 -18 38 -18 37 -21 35 -22 35 -24 33 -25 33 -27 31 -29 29 -29 29 -31 27 -33 25 -33 24 -35 22 -36 21 -36 19 -38 17 -39 15 -40 13 -41 12 -41 10 -42 7 -43 5 -43 4 -44 1 0 0zm-855 -855l200 0 0 0 0 34 3 33 4 33 6 33 7 31 9 31 10 31 12 29 13 29 15 29 15 27 17 27 19 26 19 24 21 24 22 23 22 22 24 20 25 20 26 18 26 17 28 16 28 14 29 13 30 12 30 10 31 9 32 7 32 6 33 4 33 3 34 1 0 199 -44 -1 -44 -4 -42 -5 -43 -7 -41 -10 -41 -12 -39 -13 -39 -15 -38 -17 -37 -19 -36 -21 -35 -22 -33 -24 -32 -25 -31 -27 -30 -29 -28 -29 -27 -31 -26 -33 -23 -33 -23 -35 -20 -35 -19 -37 -17 -38 -16 -39 -13 -40 -12 -40 -9 -42 -8 -42 -5 -43 -3 -43 -1 -44 0 0zm855 -854l0 199 0 0 -34 1 -33 2 -33 4 -32 6 -32 7 -31 9 -30 10 -30 12 -29 13 -28 15 -28 15 -26 18 -26 18 -25 19 -24 21 -22 22 -22 22 -21 24 -19 25 -19 26 -17 26 -15 28 -15 28 -13 29 -12 30 -10 30 -9 31 -7 32 -6 32 -4 33 -3 33 0 34 -200 0 1 -44 3 -43 5 -43 8 -42 9 -41 12 -41 13 -40 16 -38 17 -38 19 -37 20 -36 23 -35 23 -33 26 -32 27 -31 28 -30 30 -28 31 -27 32 -26 33 -23 35 -23 36 -20 37 -19 38 -17 39 -16 39 -13 41 -12 41 -9 43 -8 42 -5 44 -3 44 -1 0 0z"/>
  </g>
  <g>
   <path class="fil0" d="M872 3885c-29,47 -91,61 -138,32 -47,-29 -61,-91 -32,-138l170 106zm1463 -897l0 200 0 0 -59 1 -59 3 -58 3 -58 6 -57 7 -56 9 -56 10 -56 11 -54 13 -54 14 -53 16 -52 17 -51 19 -50 19 -50 22 -48 22 -47 23 -46 25 -45 26 -43 27 -42 28 -41 29 -40 31 -38 31 -37 32 -35 34 -34 34 -32 35 -30 37 -29 37 -27 37 -26 39 -170 -106 30 -45 32 -45 33 -43 36 -42 37 -41 39 -39 40 -39 42 -37 44 -36 45 -34 46 -33 48 -32 49 -30 50 -29 51 -28 53 -26 53 -25 55 -23 56 -22 56 -21 58 -19 58 -17 60 -16 60 -14 60 -13 62 -11 62 -9 62 -8 63 -6 64 -4 64 -3 65 -1 0 0zm1649 818l-173 102 -25 -40 -27 -39 -28 -38 -30 -37 -32 -37 -34 -35 -35 -34 -36 -34 -38 -32 -40 -31 -41 -31 -43 -29 -44 -28 -45 -26 -46 -26 -48 -24 -48 -23 -50 -22 -51 -21 -52 -19 -53 -17 -54 -17 -54 -15 -56 -13 -56 -12 -57 -10 -57 -9 -59 -7 -58 -6 -60 -4 -59 -3 -60 -1 0 -200 65 1 66 3 65 4 64 7 64 8 63 10 62 11 62 13 61 15 60 16 59 18 59 20 57 21 57 23 55 24 54 25 54 28 51 28 51 30 49 32 48 33 47 34 45 35 44 37 42 39 40 39 39 41 37 42 35 44 33 44 31 46 30 47zm0 0c28,47 12,109 -36,137 -47,28 -109,12 -137,-35l173 -102z"/>
  </g>
  <g>
   <path class="fil1 str0" d="M3749 3063c15,-40 47,-66 105,-70l284 0c52,3 84,31 102,80l53 162 318 0c59,0 106,48 106,106l0 745c0,58 -47,106 -106,106l-1236 0c-59,0 -106,-48 -106,-106l0 -745c0,-58 47,-106 106,-106l318 0 56 -172z"/>
   <path id="1" class="fil2" d="M3749 3063c15,-40 47,-66 105,-70l284 0c52,3 84,31 102,80l53 162 318 0c59,0 106,48 106,106l0 745c0,58 -47,106 -106,106l-1236 0c-59,0 -106,-48 -106,-106l0 -745c0,-58 47,-106 106,-106l318 0 56 -172z"/>
  </g>
  <g>
   <path class="fil0" d="M4294 3713l-97 0 0 0 0 -10 -1 -10 -1 -9 -2 -10 -2 -9 -2 -9 -3 -9 -4 -9 -4 -9 -4 -8 -5 -8 -5 -8 -5 -8 -6 -7 -6 -7 -6 -7 -7 -6 -7 -6 -7 -6 -8 -5 -8 -5 -8 -5 -8 -4 -9 -4 -9 -4 -9 -3 -9 -2 -9 -3 -10 -1 -9 -1 -10 -1 -10 0 0 -96 15 0 14 1 15 2 14 3 14 3 14 4 14 4 13 5 13 6 12 7 12 7 12 7 11 8 11 9 11 9 10 10 9 10 10 10 8 11 8 11 8 12 7 12 6 13 6 13 5 13 5 13 4 14 3 14 2 14 2 15 1 14 1 15 0 0zm-290 290l0 -96 0 0 10 0 10 -1 9 -1 10 -2 9 -2 9 -3 9 -3 9 -3 9 -4 8 -4 8 -5 8 -5 8 -6 7 -5 7 -6 7 -7 6 -7 6 -7 6 -7 5 -7 5 -8 5 -8 4 -9 4 -8 4 -9 3 -9 2 -9 2 -10 2 -9 1 -10 1 -10 0 -10 97 0 -1 15 -1 15 -2 14 -2 14 -3 14 -4 14 -5 14 -5 13 -6 13 -6 12 -7 12 -8 12 -8 11 -8 11 -10 11 -9 10 -10 9 -11 10 -11 8 -11 8 -12 8 -12 7 -12 6 -13 6 -13 5 -14 5 -14 4 -14 3 -14 2 -15 2 -14 1 -15 1 0 0zm-290 -290l96 0 0 0 1 10 0 10 2 10 1 9 3 10 2 9 3 9 4 9 4 8 4 9 4 8 5 8 6 7 6 7 6 7 6 7 7 7 7 6 7 5 8 6 8 5 8 5 8 4 9 4 8 3 9 3 10 3 9 2 9 2 10 1 10 1 10 0 0 96 -15 -1 -15 -1 -14 -2 -14 -2 -15 -3 -13 -4 -14 -5 -13 -5 -13 -6 -12 -6 -12 -7 -12 -8 -12 -8 -10 -8 -11 -10 -10 -9 -10 -10 -9 -11 -8 -11 -8 -11 -8 -12 -7 -12 -6 -12 -6 -13 -5 -13 -5 -14 -4 -14 -3 -14 -3 -14 -1 -14 -1 -15 -1 -15 0 0zm290 -289l0 96 0 0 -10 0 -10 1 -10 1 -9 1 -9 3 -10 2 -9 3 -8 4 -9 4 -8 4 -8 5 -8 5 -8 5 -7 6 -7 6 -7 6 -6 7 -6 7 -6 7 -6 8 -5 8 -4 8 -4 8 -4 9 -4 9 -3 9 -2 9 -3 9 -1 10 -2 9 0 10 -1 10 -96 0 1 -15 1 -14 1 -15 3 -14 3 -14 4 -14 5 -13 5 -13 6 -13 6 -13 7 -12 8 -12 8 -11 8 -11 9 -10 10 -10 10 -10 10 -9 11 -9 12 -8 12 -7 12 -7 12 -7 13 -6 13 -5 14 -4 13 -4 15 -3 14 -3 14 -2 15 -1 15 0 0 0z"/>
  </g>
  <g>
   <path class="fil0" d="M4553 3469l-96 0 0 0 0 3 1 3 0 3 1 2 1 3 1 2 1 1 1 2 1 1 1 1 0 0 1 0 0 1 0 0 0 0 0 0 0 0 0 -1 -1 0 -1 0 0 0 -1 -1 -1 0 -1 0 -1 0 -2 -1 -1 0 -1 0 -2 0 -1 0 -2 0 -1 0 0 -96 4 0 4 0 4 0 4 0 4 1 4 0 4 1 4 1 3 1 4 1 4 1 4 1 3 2 4 1 4 2 3 2 4 2 3 2 4 2 3 3 3 2 4 3 3 4 3 4 3 3 3 5 2 5 2 5 2 5 2 6 1 6 0 6 0 0zm-103 77l0 -96 0 0 1 0 2 0 1 0 2 0 1 0 1 -1 2 0 1 0 1 0 1 -1 1 0 0 0 1 0 1 -1 0 0 0 0 0 0 0 0 0 0 0 0 -1 1 0 0 -1 1 -1 1 -1 2 -1 1 -1 2 -1 2 -1 3 0 3 -1 3 0 3 96 0 0 6 -1 6 -2 6 -2 5 -2 5 -2 5 -3 4 -3 4 -3 4 -3 3 -4 3 -3 3 -3 3 -4 2 -3 2 -4 2 -3 2 -4 2 -4 1 -3 2 -4 1 -4 1 -3 1 -4 1 -4 1 -4 0 -4 1 -4 1 -4 0 -4 0 -4 0 -4 0 0 0zm-103 -77l95 0 0 0 0 -3 0 -3 -1 -3 -1 -3 -1 -2 -1 -2 -1 -1 -1 -2 -1 -1 0 -1 -1 0 -1 -1 0 0 0 0 0 0 0 0 0 0 1 0 0 1 1 0 1 0 1 0 1 1 1 0 1 0 1 0 1 1 2 0 1 0 2 0 1 0 2 0 0 96 -4 0 -4 0 -5 0 -4 0 -4 -1 -4 -1 -3 0 -4 -1 -4 -1 -4 -1 -3 -1 -4 -1 -4 -2 -4 -1 -3 -2 -4 -2 -3 -2 -4 -2 -3 -2 -4 -3 -3 -3 -3 -3 -3 -3 -4 -4 -2 -4 -3 -4 -3 -5 -2 -5 -2 -5 -1 -6 -1 -6 0 -6 0 0zm103 -77l0 96 0 0 -2 0 -1 0 -2 0 -1 0 -2 0 -1 0 -1 1 -1 0 -1 0 -1 0 -1 1 -1 0 -1 0 0 0 -1 1 0 0 0 0 0 0 0 0 1 -1 0 0 1 0 0 -1 1 -1 1 -2 1 -1 1 -2 1 -3 1 -2 1 -3 0 -3 0 -3 -95 0 0 -6 1 -6 1 -6 2 -5 2 -5 3 -5 3 -5 2 -3 4 -4 3 -4 3 -3 3 -2 4 -3 3 -2 4 -2 3 -2 4 -2 3 -2 4 -1 4 -2 3 -1 4 -1 4 -1 4 -1 4 -1 3 -1 4 0 4 -1 4 0 5 0 4 0 4 0 0 0z"/>
  </g>
  <g>
   <path class="fil1 str1" d="M3749 3063c15,-40 47,-66 105,-70l284 0c52,3 84,31 102,80l53 162 318 0c59,0 106,48 106,106l0 745c0,58 -47,106 -106,106l-1236 0c-59,0 -106,-48 -106,-106l0 -745c0,-58 47,-106 106,-106l318 0 56 -172z"/>
  </g>
 </g>
</svg>
