<?xml version="1.0" encoding="UTF-8"?>
<!DOCTYPE svg PUBLIC "-//W3C//DTD SVG 1.1//EN" "http://www.w3.org/Graphics/SVG/1.1/DTD/svg11.dtd">
<!-- Creator: CorelDRAW X8 -->
<svg xmlns="http://www.w3.org/2000/svg" xml:space="preserve" width="41mm" height="39mm" version="1.1" style="shape-rendering:geometricPrecision; text-rendering:geometricPrecision; image-rendering:optimizeQuality; fill-rule:evenodd; clip-rule:evenodd"
viewBox="0 0 4100 3900"
 xmlns:xlink="http://www.w3.org/1999/xlink">
 <defs>
  <style type="text/css">
   <![CDATA[
    .fil1 {fill:black}
    .fil0 {fill:black;fill-rule:nonzero}
   ]]>
  </style>
 </defs>
 <g id="Capa_x0020_1">
  <metadata id="CorelCorpID_0Corel-Layer"/>
  <g>
   <path class="fil0" d="M3673 3346l-1549 -2860 99 -53 1549 2859 -98 55 -1 -1zm1 1l0 -1 -1 0 1 1zm123 39l-113 0 0 0 0 -1 0 -2 0 -1 0 -1 0 -2 0 -1 0 -1 0 -2 -1 -1 0 -1 0 -1 0 -2 -1 -1 0 -1 0 -1 0 -2 -1 -1 0 -1 -1 -1 0 -2 0 -1 -1 -1 0 -1 -1 -1 0 -1 -1 -2 0 -1 -1 -1 0 -1 -1 -1 0 -1 -1 -1 97 -56 2 2 1 3 2 3 1 3 1 2 2 3 1 3 1 3 1 3 1 2 2 3 1 3 0 3 1 3 1 3 1 3 1 3 1 3 0 3 1 3 1 3 0 3 1 3 0 4 0 3 1 3 0 3 0 3 0 3 1 4 0 3 0 3 0 0zm-191 191l0 -112 0 0 4 0 4 -1 4 0 3 -1 4 -1 4 -1 4 -1 3 -1 4 -2 3 -2 3 -2 4 -2 3 -2 3 -2 2 -3 3 -2 3 -3 2 -3 3 -3 2 -3 2 -3 2 -4 2 -3 1 -3 1 -4 2 -4 1 -3 1 -4 0 -4 1 -4 0 -4 0 -4 113 0 -1 10 0 9 -1 10 -2 9 -2 10 -3 9 -3 9 -3 8 -4 9 -4 8 -5 8 -5 8 -5 7 -6 8 -6 6 -6 7 -7 6 -7 6 -7 6 -7 5 -8 5 -8 5 -8 4 -9 4 -9 4 -9 2 -9 3 -9 2 -9 2 -10 1 -10 1 -9 0 0 0zm-1556 -112l1556 0 0 112 -1556 0 0 0 0 -112zm-1556 0l1556 0 0 112 -1556 0 0 0 0 -112zm-191 -79l113 0 0 0 0 4 0 4 1 4 0 4 1 4 1 3 2 4 1 4 1 3 2 3 2 4 2 3 2 3 3 3 2 3 3 3 3 2 2 3 3 2 4 2 3 2 3 2 3 2 4 2 3 1 4 1 4 1 4 1 3 1 4 0 4 1 4 0 0 112 -9 0 -10 -1 -10 -1 -9 -2 -9 -2 -9 -3 -9 -2 -9 -4 -8 -4 -9 -4 -8 -5 -7 -5 -8 -5 -7 -6 -7 -6 -7 -6 -6 -7 -6 -6 -6 -8 -5 -7 -5 -8 -5 -8 -4 -8 -4 -9 -3 -8 -3 -9 -3 -9 -2 -10 -2 -9 -1 -10 0 -9 -1 -10 0 0zm25 -94l99 54 -1 1 -1 1 0 1 -1 1 0 1 -1 1 0 1 -1 2 0 1 -1 1 0 1 -1 1 0 1 0 2 -1 1 0 1 -1 1 0 2 0 1 0 1 -1 1 0 2 0 1 0 1 -1 1 0 2 0 1 0 1 0 2 0 1 0 1 0 2 0 1 -113 0 0 -3 0 -3 1 -4 0 -3 0 -3 0 -3 1 -3 0 -3 0 -4 1 -3 0 -3 1 -3 1 -3 0 -3 1 -3 1 -3 1 -3 1 -3 1 -3 1 -3 1 -3 1 -3 1 -2 1 -3 1 -3 1 -3 2 -3 1 -2 1 -3 2 -3 1 -3 2 -2 -1 1zm99 54l-1 0 0 1 1 -1zm1549 -2860l-1549 2860 -99 -54 1549 -2859 99 53 0 0zm0 0l0 0 0 0 0 0zm76 -163l-4 113 4 0 -3 0 -3 0 -3 0 -4 1 -3 0 -2 1 -3 0 -3 1 -2 1 -3 1 -2 0 -3 1 -2 1 -2 2 -2 1 -2 1 -2 1 -3 2 -2 1 -2 2 -2 2 -2 2 -2 2 -2 2 -2 2 -2 3 -2 3 -2 3 -2 3 -2 3 -2 4 -3 4 -99 -53 3 -6 4 -6 4 -7 4 -6 4 -6 4 -5 5 -6 4 -5 5 -5 5 -5 5 -5 5 -4 5 -4 6 -4 5 -4 6 -4 5 -3 6 -3 6 -3 6 -3 6 -2 6 -3 6 -2 6 -1 6 -2 7 -1 6 -2 6 -1 6 0 6 -1 7 -1 6 0 4 0zm-4 0l2 0 2 0 -4 0zm175 110l-99 53 0 0 -3 -4 -2 -4 -2 -3 -2 -3 -2 -3 -2 -3 -2 -3 -2 -2 -2 -2 -2 -2 -2 -2 -2 -2 -2 -2 -2 -1 -2 -2 -3 -1 -2 -1 -2 -1 -2 -2 -2 -1 -3 -1 -2 0 -3 -1 -2 -1 -3 -1 -3 0 -2 -1 -3 0 -4 -1 -3 0 -3 0 -3 0 4 -113 6 0 7 1 6 1 6 0 6 1 6 2 7 1 6 2 6 1 6 2 6 3 6 2 6 3 6 3 6 3 5 3 6 4 5 4 6 4 5 4 5 4 5 5 5 5 5 5 4 5 5 6 4 5 4 6 4 6 4 7 4 6 3 6 0 0zm-99 53l0 0 0 0 0 0z"/>
  </g>
  <g>
   <path class="fil0" d="M1925 2227l52 0 0 3 -52 0 -2 -2 2 -1zm0 3l-2 0 0 -2 2 2zm-2 -346l3 0 0 0 0 11 0 11 0 10 0 11 0 11 0 10 0 11 0 11 0 11 0 10 0 11 0 11 0 11 0 10 0 11 0 11 0 11 0 10 0 11 0 11 0 11 0 10 0 11 0 11 0 11 0 11 0 10 0 11 0 11 0 11 0 10 1 11 -4 0 0 -10 0 -11 0 -11 0 -11 0 -11 0 -10 0 -11 0 -11 0 -11 0 -11 0 -10 0 -11 0 -11 0 -11 0 -10 0 -11 0 -11 0 -11 0 -10 0 -11 0 -11 0 -11 0 -10 0 -11 0 -11 0 -11 0 -10 0 -11 0 -11 0 -10 0 -11 0 -11 0 0zm0 -171l3 0 0 0 1 5 0 6 0 5 0 5 0 5 0 6 0 5 0 5 0 6 1 5 0 5 0 6 -1 5 0 6 0 5 0 5 0 6 0 5 0 6 0 5 0 6 0 5 0 5 0 6 0 5 0 6 0 5 0 5 0 5 -1 6 0 5 0 5 -3 0 0 -5 0 -5 0 -6 0 -5 0 -5 0 -6 0 -5 0 -5 0 -6 1 -5 0 -5 0 -6 0 -5 0 -6 0 -5 0 -6 0 -5 0 -5 0 -6 0 -5 0 -6 0 -5 0 -5 0 -6 0 -5 0 -5 0 -6 0 -5 0 -5 -1 -5 0 -6 0 -5 0 0zm-171 -6l-4 0 0 0 2 -10 2 -10 3 -8 3 -9 5 -7 4 -7 6 -6 6 -6 6 -4 7 -5 8 -3 7 -3 8 -2 8 -2 7 -1 8 0 8 0 8 1 8 2 8 2 7 4 7 3 7 5 6 5 6 6 6 7 4 7 5 8 3 9 3 9 1 10 1 11 -3 0 -1 -10 -2 -10 -2 -9 -4 -9 -4 -7 -4 -7 -5 -7 -6 -5 -6 -5 -6 -5 -7 -3 -7 -3 -8 -3 -7 -1 -8 -1 -8 -1 -7 0 -8 1 -8 2 -7 2 -7 3 -7 3 -7 4 -6 5 -6 5 -5 6 -5 7 -4 7 -3 8 -3 8 -2 9 -1 10 0 0zm-3 523l0 -3 -2 1 1 -9 1 -10 0 -12 1 -12 0 -14 0 -15 0 -15 0 -16 0 -17 0 -18 0 -18 0 -19 -1 -19 0 -19 0 -20 -1 -20 0 -20 -1 -19 0 -20 0 -19 0 -20 -1 -19 0 -18 0 -18 0 -17 0 -17 0 -16 0 -15 1 -14 0 -13 1 -12 0 -11 4 0 -1 11 0 12 -1 13 0 14 0 15 -1 16 0 17 0 17 1 18 0 18 0 19 0 19 1 20 0 20 0 19 1 20 0 20 0 20 1 19 0 19 0 19 0 18 1 18 0 17 0 16 -1 16 0 14 0 14 0 13 -1 11 -1 10 -1 10 -1 1zm1 -1l0 1 -1 0 1 -1zm-53 -2l52 0 0 3 -52 0 -2 -2 2 -1zm0 3l-2 0 0 -2 2 2zm-2 -189l4 0 0 0 0 5 0 6 0 6 0 6 0 6 -1 6 0 5 0 6 0 6 0 6 0 6 0 6 0 6 0 5 0 6 0 6 0 6 0 6 0 6 0 6 0 6 0 6 0 5 0 6 0 6 0 6 0 6 0 6 0 6 1 6 0 5 0 6 -4 0 0 -5 0 -6 0 -6 0 -6 0 -6 0 -6 0 -6 0 -6 0 -5 0 -6 0 -6 0 -6 0 -6 0 -6 0 -6 0 -6 0 -6 0 -6 0 -5 0 -6 0 -6 0 -6 0 -6 0 -6 0 -6 0 -5 0 -6 0 -6 0 -6 0 -6 0 -6 0 -5 0 0zm-14 -175l3 -2 0 0 2 4 2 4 2 4 2 4 1 5 1 5 2 5 0 5 1 6 1 5 1 6 0 6 1 6 0 6 0 6 0 6 0 6 0 7 0 6 0 6 0 6 0 7 0 6 0 6 -1 6 0 6 0 5 0 6 0 5 0 6 0 5 0 5 -4 0 0 -5 0 -5 0 -6 1 -5 0 -6 0 -5 0 -6 0 -6 0 -6 1 -6 0 -7 0 -6 0 -6 0 -6 0 -7 0 -6 0 -6 -1 -6 0 -6 0 -6 -1 -6 0 -5 -1 -6 -1 -5 -1 -6 -1 -4 -1 -5 -2 -5 -1 -4 -2 -4 -2 -4 -2 -3 0 0zm-128 -18l-3 -2 0 0 5 -4 4 -3 5 -3 4 -2 5 -3 4 -2 5 -1 5 -2 4 -1 5 -1 5 0 5 0 4 -1 5 1 5 0 4 1 5 1 4 1 5 1 4 2 4 1 4 2 5 3 3 2 4 3 4 2 3 3 4 4 3 3 3 3 3 4 2 4 -3 2 -2 -4 -3 -3 -3 -4 -3 -3 -3 -3 -3 -3 -4 -3 -3 -2 -4 -2 -4 -3 -4 -1 -4 -2 -4 -2 -5 -1 -4 -1 -4 -1 -5 -1 -4 0 -5 0 -4 0 -5 0 -4 1 -5 1 -4 1 -5 1 -4 2 -5 2 -4 2 -5 2 -4 3 -4 3 -4 3 0 0zm-29 157l-3 0 0 0 0 -6 0 -6 -1 -5 0 -6 0 -6 0 -6 0 -6 0 -5 0 -6 0 -6 0 -5 0 -6 0 -5 0 -6 0 -5 1 -6 0 -5 1 -5 1 -5 1 -5 1 -5 1 -4 2 -5 1 -4 2 -5 2 -4 2 -4 3 -4 3 -3 3 -4 3 -3 3 -3 3 2 -4 3 -3 3 -3 4 -2 3 -3 4 -2 4 -2 4 -2 4 -1 4 -2 5 -1 4 -1 5 -1 5 -1 5 0 5 -1 5 0 5 0 5 -1 6 0 5 0 6 0 5 0 6 0 6 0 5 0 6 1 6 0 6 0 5 0 6 0 6 0 6 0 0zm0 377l-3 0 0 0 0 -12 0 -11 0 -12 0 -12 0 -12 0 -12 0 -11 0 -12 0 -12 0 -12 0 -11 0 -12 0 -12 0 -12 0 -12 0 -11 0 -12 0 -12 0 -12 0 -12 0 -11 0 -12 0 -12 0 -12 0 -11 0 -12 0 -12 0 -12 0 -12 0 -11 0 -12 0 -12 3 0 0 12 0 12 0 11 0 12 0 12 0 12 0 12 0 11 0 12 0 12 0 12 0 11 0 12 0 12 0 12 0 12 0 11 0 12 0 12 0 12 0 12 0 11 0 12 0 12 0 12 0 11 0 12 0 12 0 12 0 12 0 11 0 12 0 0zm13 366l-3 1 0 0 -2 -10 -2 -11 -1 -10 -2 -11 -1 -11 -1 -11 -1 -11 -1 -12 -1 -11 -1 -12 0 -11 -1 -12 0 -12 -1 -12 0 -12 0 -12 0 -12 0 -12 0 -12 0 -12 0 -12 0 -12 0 -12 1 -11 0 -12 0 -12 0 -11 0 -12 0 -11 1 -11 0 -11 0 -11 3 0 0 11 0 11 0 11 0 11 0 12 -1 11 0 12 0 12 0 11 0 12 0 12 0 12 -1 12 0 12 0 12 1 12 0 12 0 12 0 12 1 12 0 12 1 11 0 12 1 11 1 12 1 11 1 11 1 11 2 10 2 11 1 10 2 10 0 0zm693 293l2 3 0 0 -27 14 -28 12 -27 11 -28 10 -27 8 -28 6 -27 5 -28 4 -27 2 -27 0 -27 -1 -27 -3 -26 -4 -26 -5 -25 -8 -25 -8 -24 -10 -23 -12 -22 -13 -22 -14 -21 -16 -20 -18 -19 -19 -18 -20 -17 -22 -16 -24 -14 -24 -13 -27 -12 -27 -11 -30 -9 -30 -7 -32 3 -1 8 32 9 30 10 29 12 28 13 26 14 25 16 23 17 21 17 21 19 19 20 17 21 16 21 14 23 13 23 12 24 10 24 8 25 7 26 6 26 4 26 2 27 2 27 -1 27 -2 27 -3 27 -5 28 -6 27 -8 28 -10 27 -11 27 -12 27 -14 0 0zm207 -173l3 2 0 0 -3 5 -4 5 -4 6 -4 5 -5 6 -5 5 -6 6 -6 6 -6 6 -7 6 -7 7 -6 6 -8 6 -7 6 -7 6 -8 7 -8 6 -7 6 -8 6 -8 5 -8 6 -8 6 -7 5 -8 5 -7 6 -7 4 -7 5 -7 5 -7 4 -6 4 -7 3 -5 4 -2 -3 6 -4 6 -3 6 -4 7 -4 7 -5 7 -4 7 -5 7 -5 8 -6 7 -5 8 -6 8 -5 8 -6 7 -6 8 -6 8 -6 7 -6 8 -6 7 -7 7 -6 7 -6 7 -6 6 -6 7 -6 6 -6 5 -6 5 -6 5 -5 5 -6 4 -5 3 -5 3 -5 0 0zm207 -358l3 2 0 0 -6 11 -7 10 -6 11 -6 12 -7 11 -6 11 -7 11 -6 11 -7 12 -6 11 -6 11 -7 12 -6 11 -7 11 -6 12 -7 11 -6 11 -7 12 -6 11 -7 12 -6 11 -7 11 -6 12 -7 11 -6 11 -7 11 -6 11 -7 11 -6 11 -7 11 -6 11 -7 11 -3 -2 7 -10 6 -11 7 -11 6 -11 7 -11 6 -12 7 -11 6 -11 7 -11 6 -11 7 -12 6 -11 7 -11 6 -12 7 -11 6 -12 7 -11 6 -11 7 -12 6 -11 7 -12 6 -11 6 -11 7 -11 6 -12 7 -11 6 -11 7 -11 6 -11 6 -11 7 -11 6 -11 0 0zm47 -139l3 -1 0 0 1 5 1 5 1 4 1 5 0 5 0 4 0 5 -1 4 0 5 -1 4 -1 5 -1 4 -2 4 -1 5 -2 4 -2 4 -2 5 -2 4 -2 4 -3 5 -2 4 -2 4 -3 4 -2 5 -3 4 -3 4 -2 5 -3 4 -3 4 -2 5 -3 4 -3 5 -3 -2 3 -5 3 -4 2 -4 3 -5 3 -4 2 -4 3 -5 3 -4 2 -4 3 -5 2 -4 2 -4 3 -4 2 -5 2 -4 2 -4 2 -4 1 -5 2 -4 1 -4 1 -4 1 -5 1 -4 1 -4 0 -5 1 -4 -1 -4 0 -5 0 -4 -1 -5 -1 -4 -1 -5 0 0zm-123 -47l-1 -3 0 0 5 -2 5 -2 5 -2 5 -2 5 -1 5 0 5 -1 5 0 5 0 5 0 5 1 5 1 4 1 5 1 4 2 5 1 4 2 4 3 4 2 4 3 4 2 4 3 3 3 3 4 4 3 2 4 3 3 3 4 2 4 2 4 1 4 2 4 -3 1 -2 -4 -1 -4 -2 -3 -2 -4 -3 -4 -2 -3 -3 -4 -3 -3 -3 -3 -3 -3 -4 -3 -4 -3 -3 -2 -4 -2 -4 -2 -4 -2 -5 -2 -4 -2 -5 -1 -4 -1 -5 -1 -4 0 -5 -1 -5 0 -5 1 -5 0 -4 1 -5 1 -5 1 -5 2 -5 2 -5 2 0 0zm-151 226l-1 -3 0 0 2 -2 2 -2 3 -3 4 -4 3 -5 4 -6 4 -6 4 -7 5 -8 4 -8 5 -9 5 -9 5 -9 5 -9 5 -10 6 -10 5 -9 5 -10 6 -10 5 -9 6 -10 5 -9 6 -9 5 -8 6 -8 5 -7 6 -7 5 -6 5 -6 5 -4 5 -4 5 -3 1 3 -4 3 -5 3 -5 5 -5 5 -5 6 -5 7 -5 7 -6 8 -5 8 -6 9 -5 9 -6 9 -5 10 -6 9 -5 10 -5 10 -6 10 -5 9 -5 10 -5 9 -5 9 -5 9 -4 8 -5 7 -4 8 -4 6 -4 6 -4 5 -3 4 -3 4 -3 2 -3 2 0 0zm-39 -58l3 0 0 0 0 3 0 3 0 3 0 3 0 2 0 3 0 3 0 3 1 3 0 3 0 2 1 3 0 2 1 3 0 2 1 2 1 3 1 1 1 2 1 2 1 1 2 2 1 1 2 1 2 0 2 1 2 0 2 0 3 0 3 -1 3 0 4 -1 1 3 -4 1 -3 1 -3 0 -3 1 -3 -1 -3 0 -2 0 -2 -1 -3 -1 -1 -2 -2 -1 -2 -2 -1 -2 -1 -2 -1 -2 -1 -2 -1 -3 -1 -2 0 -3 -1 -3 0 -2 -1 -3 0 -3 0 -3 0 -3 0 -3 0 -3 0 -2 0 -3 0 -3 0 -3 0 -3 0 0zm3 0l0 0 0 0 0 0zm0 -661l0 661 -3 0 0 -661 3 0zm-30 -165l2 -2 0 0 4 4 3 3 3 4 3 4 2 5 3 4 2 5 1 4 2 5 1 5 1 5 1 5 1 5 1 5 1 5 0 6 0 5 1 6 0 5 0 6 0 6 0 5 -1 6 0 6 0 6 0 6 0 6 0 6 -1 6 0 6 0 6 0 6 -3 0 0 -6 0 -6 0 -6 0 -6 0 -6 1 -6 0 -6 0 -6 0 -6 0 -6 0 -5 0 -6 0 -6 0 -5 0 -6 0 -5 -1 -5 0 -6 -1 -5 -1 -5 -1 -5 -1 -4 -1 -5 -2 -5 -2 -4 -2 -4 -2 -5 -2 -4 -3 -4 -3 -3 -3 -4 -3 -4 0 0zm-129 12l-2 -2 0 0 2 -4 3 -3 3 -3 4 -4 3 -2 4 -3 3 -3 4 -2 4 -2 4 -2 5 -2 4 -2 4 -1 5 -1 5 -1 4 -1 5 -1 4 0 5 0 5 0 5 1 4 1 5 1 5 1 4 2 5 1 4 3 5 2 4 3 4 3 4 3 4 4 -2 2 -4 -3 -4 -3 -4 -3 -4 -3 -4 -2 -5 -2 -4 -2 -4 -2 -5 -1 -4 -1 -5 -1 -4 0 -5 0 -4 0 -5 0 -4 0 -5 1 -4 1 -5 1 -4 1 -4 2 -4 2 -4 2 -4 2 -4 2 -3 3 -4 2 -3 3 -3 3 -3 3 -3 4 -3 3 0 0zm-15 171l-4 0 0 0 0 -5 0 -5 0 -6 0 -5 0 -6 -1 -5 0 -6 0 -6 0 -6 0 -6 0 -6 -1 -6 0 -6 0 -6 0 -6 1 -6 0 -6 0 -6 0 -5 1 -6 0 -6 1 -5 1 -6 1 -5 1 -5 1 -5 2 -5 1 -5 2 -4 2 -4 2 -4 3 -4 2 2 -2 4 -2 3 -2 4 -1 5 -2 4 -1 5 -2 4 -1 6 -1 5 0 5 -1 5 -1 6 0 6 -1 6 0 5 0 6 0 6 0 6 0 6 0 6 0 6 0 6 0 6 0 6 1 6 0 6 0 5 0 6 0 5 0 5 1 6 0 5 0 0zm-3 381l0 -3 -2 1 1 -5 0 -6 0 -7 1 -9 0 -9 0 -10 0 -11 0 -12 0 -13 0 -13 1 -13 0 -14 0 -14 0 -15 -1 -15 0 -15 0 -15 0 -15 0 -15 0 -15 0 -14 0 -15 0 -14 0 -13 0 -13 -1 -12 0 -12 0 -11 0 -10 0 -9 0 -8 0 -7 4 0 0 7 0 8 0 9 0 10 0 11 0 12 0 12 0 13 0 13 0 14 0 15 0 14 1 15 0 15 0 15 0 15 0 15 0 15 0 15 0 14 0 14 0 13 0 14 0 12 0 12 -1 11 0 10 0 9 0 9 -1 7 0 6 0 6 -2 1zm2 -1l0 1 -2 0 2 -1zm-54 -2l52 0 0 3 -52 0 -1 -2 1 -1zm0 3l-1 0 0 -2 1 2zm-2 -598l4 0 0 0 0 18 0 18 0 18 0 19 -1 18 0 19 0 19 0 18 0 19 0 19 0 19 0 19 -1 20 0 19 0 19 0 19 0 19 0 19 0 19 0 19 0 19 0 19 0 19 0 18 0 19 0 18 1 19 0 18 0 18 0 18 1 18 0 17 -3 0 -1 -17 0 -18 0 -18 -1 -18 0 -18 0 -19 0 -18 0 -19 0 -18 0 -19 0 -19 0 -19 0 -19 0 -19 0 -19 0 -19 0 -19 0 -19 0 -19 0 -20 0 -19 0 -19 1 -19 0 -19 0 -18 0 -19 0 -19 0 -18 0 -19 0 -18 0 -18 0 -18 0 0zm-17 -82l2 -2 0 0 2 2 2 3 1 2 2 2 1 3 1 2 2 2 1 3 1 2 0 2 1 3 1 2 1 2 0 3 1 2 0 3 0 2 1 3 0 2 0 3 0 2 1 3 0 3 0 3 0 2 0 3 0 3 0 3 0 4 0 3 0 3 0 4 -4 0 0 -4 0 -3 0 -3 0 -4 0 -3 0 -3 0 -3 0 -2 0 -3 0 -3 0 -2 0 -3 0 -3 -1 -2 0 -2 0 -3 -1 -2 0 -3 -1 -2 0 -2 -1 -2 -1 -3 -1 -2 -1 -2 -1 -2 -1 -2 -1 -3 -1 -2 -1 -2 -2 -3 -2 -2 -1 -2 0 0zm-134 -3l-2 -2 0 0 3 -4 4 -4 5 -4 4 -3 4 -3 5 -3 4 -2 5 -2 5 -2 4 -2 5 -1 5 -1 5 -1 5 0 4 0 5 0 5 0 5 1 5 1 4 1 5 1 4 2 5 2 4 2 4 2 4 3 4 3 4 3 4 3 3 3 3 4 3 4 -2 2 -3 -4 -3 -3 -4 -4 -3 -3 -4 -3 -4 -2 -4 -3 -4 -2 -4 -2 -4 -2 -4 -2 -5 -1 -4 -1 -5 -1 -4 0 -5 -1 -5 0 -4 0 -5 1 -4 0 -5 1 -5 2 -4 1 -5 2 -4 2 -5 2 -4 3 -4 3 -4 3 -4 3 -4 4 -4 4 0 0zm-20 77l-3 0 0 0 0 -3 0 -3 0 -3 0 -3 0 -3 0 -3 0 -3 0 -2 0 -3 1 -3 0 -2 0 -3 1 -2 0 -3 0 -2 1 -3 0 -2 1 -2 1 -3 0 -2 1 -2 1 -3 1 -2 1 -2 1 -2 1 -2 2 -2 1 -3 2 -2 1 -2 2 -2 2 -2 2 2 -2 2 -1 2 -2 2 -1 2 -1 2 -2 2 -1 3 -1 2 -1 2 -1 2 -1 2 0 2 -1 2 -1 2 0 3 -1 2 0 2 -1 3 0 2 0 3 -1 2 0 3 0 2 0 3 0 3 -1 2 0 3 0 3 0 3 0 3 0 3 0 3 0 0zm-2 606l0 -3 -2 1 0 -5 1 -7 0 -10 0 -12 0 -14 1 -16 0 -17 0 -19 0 -20 0 -21 0 -23 0 -23 0 -24 0 -25 0 -25 0 -25 0 -25 0 -26 0 -25 0 -25 0 -24 0 -24 -1 -23 0 -22 0 -21 0 -19 0 -19 0 -16 0 -15 0 -13 0 -12 0 -9 3 0 0 9 0 11 0 14 0 15 1 16 0 19 0 19 0 21 0 22 0 23 0 24 0 24 0 25 0 25 0 26 0 25 0 25 1 25 0 25 0 24 -1 23 0 23 0 21 0 20 0 19 0 17 0 16 0 14 -1 12 0 10 0 7 -1 6 -1 1zm1 -1l0 1 -1 0 1 -1z"/>
   <path id="1" class="fil1" d="M1977 2229l-52 -1c-1,-115 0,-230 0,-344 0,-55 2,-116 0,-171 -6,-117 -167,-114 -175,-6 -8,109 8,432 -1,521l-52 0c-2,-62 0,-126 0,-187 0,-51 9,-140 -14,-176 -26,-41 -87,-56 -131,-18 -39,32 -30,96 -30,158 0,126 0,251 0,377 0,114 -8,260 14,366 71,349 410,452 695,294 60,-33 177,-122 208,-173 69,-115 139,-243 207,-358 28,-48 62,-90 46,-140 -14,-45 -72,-75 -124,-49 -49,25 -126,217 -152,226 -38,14 -37,-27 -37,-56l0 -661c0,-65 12,-128 -27,-166 -41,-40 -104,-27 -131,12 -26,37 -16,120 -16,172 0,70 3,332 -1,379l-52 0c-4,-186 0,-405 0,-596 0,-38 1,-58 -18,-83 -31,-42 -96,-49 -136,-3 -19,22 -21,44 -20,78 0,84 3,563 -1,605z"/>
  </g>
  <g>
   <path class="fil0" d="M3922 3204l-1547 -2855 59 -33 1547 2856 -59 33 0 -1zm0 1l0 -1 0 0 0 1zm-324 620l0 -68 0 0 31 -1 30 -3 28 -4 26 -7 26 -8 24 -9 22 -11 21 -12 20 -14 19 -15 17 -15 16 -17 15 -18 13 -19 13 -20 11 -20 9 -21 9 -22 6 -22 6 -23 4 -23 3 -23 2 -23 0 -24 -1 -23 -2 -23 -4 -23 -5 -23 -7 -22 -8 -22 -9 -22 -11 -20 59 -33 13 25 11 25 9 26 8 26 6 27 5 27 2 27 2 27 -1 28 -1 27 -4 27 -5 27 -7 26 -8 26 -10 26 -11 25 -13 24 -14 23 -17 23 -17 21 -20 21 -20 19 -23 18 -24 16 -25 15 -27 13 -29 11 -30 9 -31 8 -32 5 -34 4 -36 1 0 0zm-1555 -68l1555 0 0 68 -1555 0 0 0 0 -68zm-1556 0l1556 0 0 68 -1556 0 0 0 0 -68zm-382 -585l59 32 2 -3 -11 30 -9 29 -7 29 -4 28 -3 28 -1 26 0 26 3 26 3 25 6 24 6 23 9 22 9 22 10 21 12 19 13 20 13 18 15 17 16 16 16 15 17 14 17 14 18 12 19 10 19 10 19 8 19 8 20 6 19 4 20 4 19 2 19 0 0 68 -24 -1 -23 -3 -24 -4 -24 -5 -23 -7 -23 -9 -23 -10 -22 -11 -22 -13 -22 -14 -20 -16 -20 -16 -19 -18 -18 -19 -17 -20 -16 -21 -15 -23 -14 -23 -12 -25 -11 -25 -10 -26 -8 -28 -6 -28 -4 -29 -3 -30 -1 -30 1 -31 4 -32 5 -32 8 -33 10 -33 12 -34 2 -4zm-2 4l1 -2 1 -2 -2 4zm1608 -2827l-1547 2855 -59 -32 1547 -2856 0 0 59 33zm-59 -33l0 0 0 0 0 0zm388 -240l5 68 1 -1 -7 1 -7 1 -8 1 -8 1 -9 1 -9 1 -9 1 -10 2 -10 2 -10 3 -10 2 -11 3 -11 4 -11 4 -12 4 -11 5 -11 5 -12 6 -12 7 -11 7 -12 8 -12 8 -12 9 -11 10 -12 11 -11 11 -12 12 -11 14 -11 14 -11 15 -11 16 -10 17 -59 -33 12 -20 12 -18 13 -18 13 -16 13 -15 13 -15 13 -13 14 -13 14 -11 14 -11 14 -10 13 -9 14 -9 14 -7 14 -7 14 -7 13 -5 13 -6 14 -4 12 -4 13 -4 12 -3 12 -3 11 -2 11 -2 11 -2 10 -1 10 -1 9 -1 8 -1 8 -1 7 -1 0 0zm0 0l0 0 0 0 0 0zm394 240l-59 33 0 0 -7 -12 -7 -12 -8 -11 -7 -11 -9 -11 -8 -10 -9 -11 -9 -10 -9 -9 -9 -10 -10 -9 -10 -8 -10 -8 -10 -8 -11 -8 -10 -7 -11 -6 -11 -7 -11 -5 -12 -6 -11 -5 -11 -4 -12 -4 -12 -4 -12 -3 -11 -2 -12 -2 -12 -2 -12 -1 -12 0 -12 0 -13 1 -5 -68 16 -1 15 0 15 1 15 1 15 2 14 3 15 3 14 3 15 5 14 4 14 6 13 6 14 6 13 7 13 7 13 8 13 9 12 8 12 10 12 9 11 10 11 11 11 10 11 11 10 12 10 12 10 12 9 12 9 13 9 13 8 14 8 13 0 0zm0 0l0 0 0 1 0 -1z"/>
  </g>
 </g>
</svg>
