<?xml version="1.0" encoding="utf-8"?>
<!-- Generator: Adobe Illustrator 25.2.1, SVG Export Plug-In . SVG Version: 6.00 Build 0)  -->
<svg version="1.1" id="Capa_1" xmlns="http://www.w3.org/2000/svg" xmlns:xlink="http://www.w3.org/1999/xlink" x="0px" y="0px"
	 viewBox="0 0 100 100" style="enable-background:new 0 0 100 100;" xml:space="preserve">
<style type="text/css">
	.st0{stroke:#000000;stroke-width:5;stroke-linecap:round;stroke-linejoin:round;stroke-miterlimit:10;}
	.st1{fill:none;stroke:#000000;stroke-width:5;stroke-linecap:round;stroke-linejoin:round;stroke-miterlimit:10;}
</style>
<path class="st0" d="M38.08,43.39H14.14c-2.76,0-5-2.24-5-5V14.45c0-2.76,2.24-5,5-5h23.93c2.76,0,5,2.24,5,5v23.93
	C43.08,41.15,40.84,43.39,38.08,43.39z"/>
<path class="st0" d="M85.86,43.39H61.92c-2.76,0-5-2.24-5-5V14.45c0-2.76,2.24-5,5-5h23.93c2.76,0,5,2.24,5,5v23.93
	C90.86,41.15,88.62,43.39,85.86,43.39z"/>
<path class="st0" d="M38.08,90.55H14.14c-2.76,0-5-2.24-5-5V61.61c0-2.76,2.24-5,5-5h23.93c2.76,0,5,2.24,5,5v23.93
	C43.08,88.31,40.84,90.55,38.08,90.55z"/>
<line class="st1" x1="56.92" y1="73.58" x2="90.86" y2="73.58"/>
<line class="st1" x1="73.89" y1="56.61" x2="73.89" y2="90.55"/>
</svg>
