<?xml version="1.0" encoding="utf-8"?>
<!-- Generator: Adobe Illustrator 25.2.1, SVG Export Plug-In . SVG Version: 6.00 Build 0)  -->
<svg version="1.1" id="Capa_1" xmlns="http://www.w3.org/2000/svg" xmlns:xlink="http://www.w3.org/1999/xlink" x="0px" y="0px"
	 viewBox="0 0 100 100" style="enable-background:new 0 0 100 100;" xml:space="preserve">
<style type="text/css">
	.st0{fill:none;stroke:#000000;stroke-width:5;stroke-linecap:round;stroke-linejoin:round;stroke-miterlimit:10;}
</style>
<g>
	<circle class="st0" cx="84.74" cy="85.54" r="10.65"/>
	<path class="st0" d="M54.88,20.79h19.21v-4.32c0-5.94,4.86-10.74,10.83-10.65c5.87,0.1,10.47,5.13,10.47,11v68.93
		c0,5.76-4.67,10.43-10.45,10.43l-71.04,0c-5.13,0-9.28-4.16-9.28-9.28V31.23c0-5.77,4.67-10.45,10.43-10.45h3.71"/>
	<path class="st0" d="M51.14,20.79"/>
	<line class="st0" x1="74.09" y1="85.53" x2="74.09" y2="20.79"/>
	<path class="st0" d="M53.34,29.62"/>
	<circle class="st0" cx="36.88" cy="18.22" r="8.19"/>
	<line class="st0" x1="36.9" y1="3.81" x2="36.9" y2="9.62"/>
	<line class="st0" x1="34.51" y1="26.06" x2="24.53" y2="71.54"/>
	<line class="st0" x1="39.58" y1="26.82" x2="49.24" y2="70.85"/>
	<line class="st0" x1="25.52" y1="45.17" x2="48.87" y2="44.99"/>
</g>
</svg>
