<svg id="Capa_2" data-name="Capa 2" xmlns="http://www.w3.org/2000/svg" viewBox="0 0 61.45 92.11"><defs><style>.cls-1,.cls-2{fill:none;stroke-miterlimit:10;stroke-width:5px;}.cls-1{stroke:#000;}.cls-2{stroke:#fff;}</style></defs><path d="M60.27,76.5,61,73.93h0a18.22,18.22,0,0,1,2.64-5.6c2.66-4,6-7.53,9.18-11.15a30.63,30.63,0,0,0,7.94-19.93,29.82,29.82,0,0,0-10.27-24c-8.73-7.76-19-10-29.92-6.34C28.77,10.84,21.75,19.37,19.69,31.83a29.7,29.7,0,0,0,5.37,22.5c2.7,3.87,6.13,7.13,9.07,10.82,2.68,3.36,5,6.9,5.5,11.35" transform="translate(-19.27 -5.2)"/><path d="M39.63,76.5" transform="translate(-19.27 -5.2)"/><path d="M58.89,75" transform="translate(-19.27 -5.2)"/><rect class="cls-1" x="16.86" y="77.57" width="27.73" height="6.23" rx="2.67"/><path class="cls-1" d="M40.29,89h0c5.46,7.74,14,7.74,19.42,0h0" transform="translate(-19.27 -5.2)"/><line class="cls-2" x1="22.78" y1="32.73" x2="26.7" y2="69.77"/><line class="cls-2" x1="40.44" y1="33.09" x2="35.59" y2="69.77"/><rect class="cls-1" x="16.86" y="71.3" width="27.73" height="6.23" rx="2.67"/></svg>