<svg id="Capa_2" data-name="Capa 2" xmlns="http://www.w3.org/2000/svg" viewBox="0 0 66.45 94.61"><defs><style>.cls-1{fill:none;stroke:#000;stroke-miterlimit:10;stroke-width:5px;}</style></defs><path class="cls-1" d="M60.27,76.5,61,73.93h0a18.22,18.22,0,0,1,2.64-5.6c2.66-4,6-7.53,9.18-11.15a30.63,30.63,0,0,0,7.94-19.93,29.82,29.82,0,0,0-10.27-24c-8.73-7.76-19-10-29.92-6.34C28.77,10.84,21.75,19.37,19.69,31.83a29.7,29.7,0,0,0,5.37,22.5c2.7,3.87,6.13,7.13,9.07,10.82,2.68,3.36,5,6.9,5.5,11.35" transform="translate(-16.77 -2.7)"/><path class="cls-1" d="M39.63,76.5" transform="translate(-16.77 -2.7)"/><path class="cls-1" d="M58.89,75" transform="translate(-16.77 -2.7)"/><rect class="cls-1" x="19.36" y="73.8" width="27.73" height="6.23" rx="2.67"/><rect class="cls-1" x="19.36" y="80.07" width="27.73" height="6.23" rx="2.67"/><path class="cls-1" d="M40.29,89h0c5.46,7.74,14,7.74,19.42,0h0" transform="translate(-16.77 -2.7)"/><line class="cls-1" x1="25.28" y1="35.23" x2="29.2" y2="72.27"/><line class="cls-1" x1="42.94" y1="35.59" x2="38.09" y2="72.27"/></svg>