<?xml version="1.0" encoding="utf-8"?>
<!-- Generator: Adobe Illustrator 25.2.1, SVG Export Plug-In . SVG Version: 6.00 Build 0)  -->
<svg version="1.1" id="Capa_2" xmlns="http://www.w3.org/2000/svg" xmlns:xlink="http://www.w3.org/1999/xlink" x="0px" y="0px"
	 viewBox="0 0 100 100" style="enable-background:new 0 0 100 100;" xml:space="preserve">
<style type="text/css">
	.st0{fill:none;stroke:#000000;stroke-width:5;stroke-linecap:round;stroke-miterlimit:10;}
	.st1{fill:none;stroke:#000000;stroke-width:5;stroke-linecap:round;stroke-linejoin:round;stroke-miterlimit:10;}
</style>
<path class="st0" d="M91.32,51.4L59.59,82.72c-1.27,1.24-3.41,0.35-3.41-1.43V66.41c0-1.99-1.61-3.6-3.6-3.6H33.74
	c-1.65,0-3-1.35-3-3V40.14c0-1.66,1.35-3,3-3h18.84c1.99,0,3.6-1.61,3.6-3.6V18.65c0-1.77,2.14-2.67,3.41-1.42l31.73,31.32
	C92.11,49.33,92.11,50.61,91.32,51.4z"/>
<path class="st1" d="M38.84,83.3H19.95c-5.7,0-7.32-4.01-7.32-8.94V25.59c-0.05-6.82,3.51-8.94,7.55-8.94h18.65"/>
</svg>
