<?xml version="1.0" encoding="UTF-8"?>
<!DOCTYPE svg PUBLIC "-//W3C//DTD SVG 1.1//EN" "http://www.w3.org/Graphics/SVG/1.1/DTD/svg11.dtd">
<!-- Creator: CorelDRAW X8 -->
<svg xmlns="http://www.w3.org/2000/svg" xml:space="preserve" width="52mm" height="52mm" version="1.1" style="shape-rendering:geometricPrecision; text-rendering:geometricPrecision; image-rendering:optimizeQuality; fill-rule:evenodd; clip-rule:evenodd"
viewBox="0 0 5200 5200"
 xmlns:xlink="http://www.w3.org/1999/xlink">
 <defs>
  <style type="text/css">
   <![CDATA[
    .fil1 {fill:#495C80}
    .fil0 {fill:#495C80;fill-rule:nonzero}
   ]]>
  </style>
 </defs>
 <g id="Capa_x0020_1">
  <metadata id="CorelCorpID_0Corel-Layer"/>
  <g>
   <path class="fil0" d="M2236 4650l0 -2104 202 0 0 2104 -101 101 -101 -101zm202 0c0,56 -45,101 -101,101 -56,0 -101,-45 -101,-101l202 0zm-1732 -101l1631 0 0 202 -1631 0 -102 -101 102 -101zm0 202c-56,0 -102,-45 -102,-101 0,-56 46,-101 102,-101l0 202zm101 -1550l0 1449 -203 0 0 -1449 64 -94 139 94zm-203 0c0,-56 46,-101 102,-101 56,0 101,45 101,101l-203 0zm1771 -561l-1632 655 -75 -188 1631 -655 139 94 -63 94zm-76 -188c52,-21 111,5 132,57 21,52 -4,111 -56,131l-76 -188z"/>
  </g>
  <g>
   <path class="fil0" d="M4393 4650l0 -4100 203 0 0 4100 -102 101 -101 -101zm203 0c0,56 -46,101 -102,101 -56,0 -101,-45 -101,-101l203 0zm-831 -101l729 0 0 202 -729 0 -102 -101 102 -101zm0 202c-56,0 -102,-45 -102,-101 0,-56 46,-101 102,-101l0 202zm101 -788l0 687 -203 0 0 -687 102 -101 101 101zm-203 0c0,-56 46,-101 102,-101 56,0 101,45 101,101l-203 0zm-596 -101l698 0 0 203 -698 0 -102 -102 102 -101zm0 203c-56,0 -102,-46 -102,-102 0,-56 46,-101 102,-101l0 203zm-102 585l0 -687 203 0 0 687 -101 101 -102 -101zm203 0c0,56 -45,101 -101,101 -56,0 -102,-45 -102,-101l203 0zm-831 -101l730 0 0 202 -730 0 -101 -101 101 -101zm0 202c-56,0 -101,-45 -101,-101 0,-56 45,-101 101,-101l0 202zm101 -3117l0 3016 -202 0 0 -3016 56 -91 146 91zm-202 0c0,-56 45,-101 101,-101 56,0 101,45 101,101l-202 0zm2304 -993l-2157 1084 -91 -182 2157 -1084 147 91 -56 91zm-91 -182c50,-25 111,-5 136,45 25,51 5,111 -45,137l-91 -182z"/>
  </g>
  <g>
   <path class="fil0" d="M4193 1687l-403 0 0 -41 403 0 20 20 -20 21zm0 -41c11,0 20,9 20,20 0,11 -9,21 -20,21l0 -41zm20 -323l0 343 -41 0 0 -343 21 -20 20 20zm-41 0c0,-11 9,-20 21,-20 11,0 20,9 20,20l-41 0zm-382 -20l403 0 0 40 -403 0 -20 -20 20 -20zm0 40c-11,0 -20,-9 -20,-20 0,-11 9,-20 20,-20l0 40zm-20 323l0 -343 40 0 0 343 -20 21 -20 -21zm40 0c0,11 -9,21 -20,21 -11,0 -20,-10 -20,-21l40 0z"/>
   <polygon id="1" class="fil1" points="3790,1666 4193,1666 4193,1323 3790,1323 "/>
  </g>
  <g>
   <path class="fil0" d="M4193 2172l-403 0 0 -41 403 0 20 21 -20 20zm0 -41c11,0 20,10 20,21 0,11 -9,20 -20,20l0 -41zm20 -323l0 344 -41 0 0 -344 21 -20 20 20zm-41 0c0,-11 9,-20 21,-20 11,0 20,9 20,20l-41 0zm-382 -20l403 0 0 41 -403 0 -20 -21 20 -20zm0 41c-11,0 -20,-10 -20,-21 0,-11 9,-20 20,-20l0 41zm-20 323l0 -344 40 0 0 344 -20 20 -20 -20zm40 0c0,11 -9,20 -20,20 -11,0 -20,-9 -20,-20l40 0z"/>
   <polygon id="1" class="fil1" points="3790,2152 4193,2152 4193,1808 3790,1808 "/>
  </g>
  <g>
   <path class="fil0" d="M3608 2172l-403 0 0 -41 403 0 20 21 -20 20zm0 -41c11,0 20,10 20,21 0,11 -9,20 -20,20l0 -41zm20 -323l0 344 -41 0 0 -344 21 -20 20 20zm-41 0c0,-11 9,-20 21,-20 11,0 20,9 20,20l-41 0zm-382 -20l403 0 0 41 -403 0 -20 -21 20 -20zm0 41c-11,0 -20,-10 -20,-21 0,-11 9,-20 20,-20l0 41zm-20 323l0 -344 40 0 0 344 -20 20 -20 -20zm40 0c0,11 -9,20 -20,20 -11,0 -20,-9 -20,-20l40 0z"/>
   <polygon id="1" class="fil1" points="3205,2152 3608,2152 3608,1808 3205,1808 "/>
  </g>
  <g>
   <path class="fil0" d="M3023 2172l-403 0 0 -41 403 0 20 21 -20 20zm0 -41c11,0 20,10 20,21 0,11 -9,20 -20,20l0 -41zm20 -323l0 344 -41 0 0 -344 21 -20 20 20zm-41 0c0,-11 9,-20 21,-20 11,0 20,9 20,20l-41 0zm-382 -20l403 0 0 41 -403 0 -20 -21 20 -20zm0 41c-11,0 -20,-10 -20,-21 0,-11 9,-20 20,-20l0 41zm-20 323l0 -344 40 0 0 344 -20 20 -20 -20zm40 0c0,11 -9,20 -20,20 -11,0 -20,-9 -20,-20l40 0z"/>
   <polygon id="1" class="fil1" points="2620,2152 3023,2152 3023,1808 2620,1808 "/>
  </g>
  <g>
   <path class="fil0" d="M4193 2678l-403 0 0 -41 403 0 20 20 -20 21zm0 -41c11,0 20,9 20,20 0,12 -9,21 -20,21l0 -41zm20 -323l0 343 -41 0 0 -343 21 -20 20 20zm-41 0c0,-11 9,-20 21,-20 11,0 20,9 20,20l-41 0zm-382 -20l403 0 0 40 -403 0 -20 -20 20 -20zm0 40c-11,0 -20,-9 -20,-20 0,-11 9,-20 20,-20l0 40zm-20 323l0 -343 40 0 0 343 -20 21 -20 -21zm40 0c0,12 -9,21 -20,21 -11,0 -20,-9 -20,-21l40 0z"/>
   <polygon id="1" class="fil1" points="3790,2657 4193,2657 4193,2314 3790,2314 "/>
  </g>
  <g>
   <path class="fil0" d="M3608 2678l-403 0 0 -41 403 0 20 20 -20 21zm0 -41c11,0 20,9 20,20 0,12 -9,21 -20,21l0 -41zm20 -323l0 343 -41 0 0 -343 21 -20 20 20zm-41 0c0,-11 9,-20 21,-20 11,0 20,9 20,20l-41 0zm-382 -20l403 0 0 40 -403 0 -20 -20 20 -20zm0 40c-11,0 -20,-9 -20,-20 0,-11 9,-20 20,-20l0 40zm-20 323l0 -343 40 0 0 343 -20 21 -20 -21zm40 0c0,12 -9,21 -20,21 -11,0 -20,-9 -20,-21l40 0z"/>
   <polygon id="1" class="fil1" points="3205,2657 3608,2657 3608,2314 3205,2314 "/>
  </g>
  <g>
   <path class="fil0" d="M3023 2678l-403 0 0 -41 403 0 20 20 -20 21zm0 -41c11,0 20,9 20,20 0,12 -9,21 -20,21l0 -41zm20 -323l0 343 -41 0 0 -343 21 -20 20 20zm-41 0c0,-11 9,-20 21,-20 11,0 20,9 20,20l-41 0zm-382 -20l403 0 0 40 -403 0 -20 -20 20 -20zm0 40c-11,0 -20,-9 -20,-20 0,-11 9,-20 20,-20l0 40zm-20 323l0 -343 40 0 0 343 -20 21 -20 -21zm40 0c0,12 -9,21 -20,21 -11,0 -20,-9 -20,-21l40 0z"/>
   <polygon id="1" class="fil1" points="2620,2657 3023,2657 3023,2314 2620,2314 "/>
  </g>
  <g>
   <path class="fil0" d="M4193 3183l-403 0 0 -40 403 0 20 20 -20 20zm0 -40c11,0 20,9 20,20 0,11 -9,20 -20,20l0 -40zm20 -323l0 343 -41 0 0 -343 21 -21 20 21zm-41 0c0,-11 9,-21 21,-21 11,0 20,10 20,21l-41 0zm-382 -21l403 0 0 41 -403 0 -20 -20 20 -21zm0 41c-11,0 -20,-9 -20,-20 0,-11 9,-21 20,-21l0 41zm-20 323l0 -343 40 0 0 343 -20 20 -20 -20zm40 0c0,11 -9,20 -20,20 -11,0 -20,-9 -20,-20l40 0z"/>
   <polygon id="1" class="fil1" points="3790,3163 4193,3163 4193,2820 3790,2820 "/>
  </g>
  <g>
   <path class="fil0" d="M3608 3183l-403 0 0 -40 403 0 20 20 -20 20zm0 -40c11,0 20,9 20,20 0,11 -9,20 -20,20l0 -40zm20 -323l0 343 -41 0 0 -343 21 -21 20 21zm-41 0c0,-11 9,-21 21,-21 11,0 20,10 20,21l-41 0zm-382 -21l403 0 0 41 -403 0 -20 -20 20 -21zm0 41c-11,0 -20,-9 -20,-20 0,-11 9,-21 20,-21l0 41zm-20 323l0 -343 40 0 0 343 -20 20 -20 -20zm40 0c0,11 -9,20 -20,20 -11,0 -20,-9 -20,-20l40 0z"/>
   <polygon id="1" class="fil1" points="3205,3163 3608,3163 3608,2820 3205,2820 "/>
  </g>
  <g>
   <path class="fil0" d="M3023 3183l-403 0 0 -40 403 0 20 20 -20 20zm0 -40c11,0 20,9 20,20 0,11 -9,20 -20,20l0 -40zm20 -323l0 343 -41 0 0 -343 21 -21 20 21zm-41 0c0,-11 9,-21 21,-21 11,0 20,10 20,21l-41 0zm-382 -21l403 0 0 41 -403 0 -20 -20 20 -21zm0 41c-11,0 -20,-9 -20,-20 0,-11 9,-21 20,-21l0 41zm-20 323l0 -343 40 0 0 343 -20 20 -20 -20zm40 0c0,11 -9,20 -20,20 -11,0 -20,-9 -20,-20l40 0z"/>
   <polygon id="1" class="fil1" points="2620,3163 3023,3163 3023,2820 2620,2820 "/>
  </g>
  <g>
   <path class="fil0" d="M4193 3689l-403 0 0 -40 403 0 20 20 -20 20zm0 -40c11,0 20,9 20,20 0,11 -9,20 -20,20l0 -40zm20 -324l0 344 -41 0 0 -344 21 -20 20 20zm-41 0c0,-11 9,-20 21,-20 11,0 20,9 20,20l-41 0zm-382 -20l403 0 0 41 -403 0 -20 -21 20 -20zm0 41c-11,0 -20,-9 -20,-21 0,-11 9,-20 20,-20l0 41zm-20 323l0 -344 40 0 0 344 -20 20 -20 -20zm40 0c0,11 -9,20 -20,20 -11,0 -20,-9 -20,-20l40 0z"/>
   <polygon id="1" class="fil1" points="3790,3669 4193,3669 4193,3325 3790,3325 "/>
  </g>
  <g>
   <path class="fil0" d="M3608 3689l-403 0 0 -40 403 0 20 20 -20 20zm0 -40c11,0 20,9 20,20 0,11 -9,20 -20,20l0 -40zm20 -324l0 344 -41 0 0 -344 21 -20 20 20zm-41 0c0,-11 9,-20 21,-20 11,0 20,9 20,20l-41 0zm-382 -20l403 0 0 41 -403 0 -20 -21 20 -20zm0 41c-11,0 -20,-9 -20,-21 0,-11 9,-20 20,-20l0 41zm-20 323l0 -344 40 0 0 344 -20 20 -20 -20zm40 0c0,11 -9,20 -20,20 -11,0 -20,-9 -20,-20l40 0z"/>
   <polygon id="1" class="fil1" points="3205,3669 3608,3669 3608,3325 3205,3325 "/>
  </g>
  <g>
   <path class="fil0" d="M3023 3689l-403 0 0 -40 403 0 20 20 -20 20zm0 -40c11,0 20,9 20,20 0,11 -9,20 -20,20l0 -40zm20 -324l0 344 -41 0 0 -344 21 -20 20 20zm-41 0c0,-11 9,-20 21,-20 11,0 20,9 20,20l-41 0zm-382 -20l403 0 0 41 -403 0 -20 -21 20 -20zm0 41c-11,0 -20,-9 -20,-21 0,-11 9,-20 20,-20l0 41zm-20 323l0 -344 40 0 0 344 -20 20 -20 -20zm40 0c0,11 -9,20 -20,20 -11,0 -20,-9 -20,-20l40 0z"/>
   <polygon id="1" class="fil1" points="2620,3669 3023,3669 3023,3325 2620,3325 "/>
  </g>
  <g>
   <path class="fil0" d="M2126 3689l-402 0 0 -40 402 0 21 20 -21 20zm0 -40c12,0 21,9 21,20 0,11 -9,20 -21,20l0 -40zm21 -324l0 344 -41 0 0 -344 20 -20 21 20zm-41 0c0,-11 9,-20 20,-20 12,0 21,9 21,20l-41 0zm-382 -20l402 0 0 41 -402 0 -20 -21 20 -20zm0 41c-11,0 -20,-9 -20,-21 0,-11 9,-20 20,-20l0 41zm-20 323l0 -344 40 0 0 344 -20 20 -20 -20zm40 0c0,11 -9,20 -20,20 -11,0 -20,-9 -20,-20l40 0z"/>
   <polygon id="1" class="fil1" points="1724,3669 2126,3669 2126,3325 1724,3325 "/>
  </g>
  <g>
   <path class="fil0" d="M1541 3689l-402 0 0 -40 402 0 21 20 -21 20zm0 -40c12,0 21,9 21,20 0,11 -9,20 -21,20l0 -40zm21 -324l0 344 -41 0 0 -344 20 -20 21 20zm-41 0c0,-11 9,-20 20,-20 12,0 21,9 21,20l-41 0zm-382 -20l402 0 0 41 -402 0 -20 -21 20 -20zm0 41c-11,0 -20,-9 -20,-21 0,-11 9,-20 20,-20l0 41zm-20 323l0 -344 40 0 0 344 -20 20 -20 -20zm40 0c0,11 -9,20 -20,20 -11,0 -20,-9 -20,-20l40 0z"/>
   <polygon id="1" class="fil1" points="1139,3669 1541,3669 1541,3325 1139,3325 "/>
  </g>
  <g>
   <path class="fil0" d="M2126 4195l-402 0 0 -41 402 0 21 21 -21 20zm0 -41c12,0 21,9 21,21 0,11 -9,20 -21,20l0 -41zm21 -323l0 344 -41 0 0 -344 20 -20 21 20zm-41 0c0,-11 9,-20 20,-20 12,0 21,9 21,20l-41 0zm-382 -20l402 0 0 40 -402 0 -20 -20 20 -20zm0 40c-11,0 -20,-9 -20,-20 0,-11 9,-20 20,-20l0 40zm-20 324l0 -344 40 0 0 344 -20 20 -20 -20zm40 0c0,11 -9,20 -20,20 -11,0 -20,-9 -20,-20l40 0z"/>
   <polygon id="1" class="fil1" points="1724,4175 2126,4175 2126,3831 1724,3831 "/>
  </g>
  <g>
   <path class="fil0" d="M1541 4195l-402 0 0 -41 402 0 21 21 -21 20zm0 -41c12,0 21,9 21,21 0,11 -9,20 -21,20l0 -41zm21 -323l0 344 -41 0 0 -344 20 -20 21 20zm-41 0c0,-11 9,-20 20,-20 12,0 21,9 21,20l-41 0zm-382 -20l402 0 0 40 -402 0 -20 -20 20 -20zm0 40c-11,0 -20,-9 -20,-20 0,-11 9,-20 20,-20l0 40zm-20 324l0 -344 40 0 0 344 -20 20 -20 -20zm40 0c0,11 -9,20 -20,20 -11,0 -20,-9 -20,-20l40 0z"/>
   <polygon id="1" class="fil1" points="1139,4175 1541,4175 1541,3831 1139,3831 "/>
  </g>
 </g>
</svg>
