<?xml version="1.0" encoding="UTF-8"?>
<!DOCTYPE svg PUBLIC "-//W3C//DTD SVG 1.1//EN" "http://www.w3.org/Graphics/SVG/1.1/DTD/svg11.dtd">
<!-- Creator: CorelDRAW X8 -->
<svg xmlns="http://www.w3.org/2000/svg" xml:space="preserve" width="52mm" height="52mm" version="1.1" style="shape-rendering:geometricPrecision; text-rendering:geometricPrecision; image-rendering:optimizeQuality; fill-rule:evenodd; clip-rule:evenodd"
viewBox="0 0 5200 5200"
 xmlns:xlink="http://www.w3.org/1999/xlink">
 <defs>
  <style type="text/css">
   <![CDATA[
    .fil1 {fill:#495C80}
    .fil0 {fill:#495C80;fill-rule:nonzero}
   ]]>
  </style>
 </defs>
 <g id="Capa_x0020_1">
  <metadata id="CorelCorpID_0Corel-Layer"/>
  <g id="_2093145337808">
   <g>
    <path class="fil0" d="M4600 4423l-4000 0 0 -107 4000 0 54 53 -54 54zm0 -107c30,0 54,24 54,53 0,30 -24,54 -54,54l0 -107zm-54 331l0 -278 108 0 0 278 -54 53 -54 -53zm108 0c0,29 -24,53 -54,53 -30,0 -54,-24 -54,-53l108 0zm-4054 -54l4000 0 0 107 -4000 0 -54 -53 54 -54zm0 107c-30,0 -54,-24 -54,-53 0,-30 24,-54 54,-54l0 107zm54 -331l0 278 -108 0 0 -278 54 -53 54 53zm-108 0c0,-29 24,-53 54,-53 30,0 54,24 54,53l-108 0z"/>
    <polygon id="1" class="fil1" points="600,4369 4600,4369 4600,4647 600,4647 "/>
   </g>
   <g>
    <path class="fil0" d="M4379 3887l-3558 0 0 -107 3558 0 54 54 -54 53zm0 -107c30,0 54,24 54,54 0,29 -24,53 -54,53l0 -107zm-53 331l0 -277 107 0 0 277 -54 54 -53 -54zm107 0c0,30 -24,54 -54,54 -29,0 -53,-24 -53,-54l107 0zm-3612 -53l3558 0 0 107 -3558 0 -54 -54 54 -53zm0 107c-30,0 -54,-24 -54,-54 0,-29 24,-53 54,-53l0 107zm53 -331l0 277 -107 0 0 -277 54 -54 53 54zm-107 0c0,-30 24,-54 54,-54 30,0 53,24 53,54l-107 0z"/>
    <polygon id="1" class="fil1" points="821,3834 4379,3834 4379,4111 821,4111 "/>
   </g>
   <g>
    <path class="fil0" d="M2549 1987l0 1847 -107 0 0 -1847 53 -54 54 54zm-107 0c0,-30 24,-54 53,-54 30,0 54,24 54,54l-107 0zm263 53l-210 0 0 -107 210 0 53 54 -53 53zm0 -107c29,0 53,24 53,54 0,29 -24,53 -53,53l0 -107zm-54 1901l0 -1847 107 0 0 1847 -53 53 -54 -53zm107 0c0,29 -24,53 -53,53 -30,0 -54,-24 -54,-53l107 0zm-263 -54l210 0 0 107 -210 0 -53 -53 53 -54zm0 107c-29,0 -53,-24 -53,-53 0,-30 24,-54 53,-54l0 107z"/>
    <polygon id="1" class="fil1" points="2495,3834 2495,1987 2705,1987 2705,3834 "/>
   </g>
   <g>
    <path class="fil0" d="M1863 1987l0 1847 -107 0 0 -1847 54 -54 53 54zm-107 0c0,-30 24,-54 54,-54 29,0 53,24 53,54l-107 0zm264 53l-210 0 0 -107 210 0 53 54 -53 53zm0 -107c29,0 53,24 53,54 0,29 -24,53 -53,53l0 -107zm-54 1901l0 -1847 107 0 0 1847 -53 53 -54 -53zm107 0c0,29 -24,53 -53,53 -30,0 -54,-24 -54,-53l107 0zm-263 -54l210 0 0 107 -210 0 -54 -53 54 -54zm0 107c-30,0 -54,-24 -54,-53 0,-30 24,-54 54,-54l0 107z"/>
    <polygon id="1" class="fil1" points="1810,3834 1810,1987 2020,1987 2020,3834 "/>
   </g>
   <g>
    <path class="fil0" d="M1863 1987l0 1847 -107 0 0 -1847 54 -54 53 54zm-107 0c0,-30 24,-54 54,-54 29,0 53,24 53,54l-107 0zm264 53l-210 0 0 -107 210 0 53 54 -53 53zm0 -107c29,0 53,24 53,54 0,29 -24,53 -53,53l0 -107zm-54 1901l0 -1847 107 0 0 1847 -53 53 -54 -53zm107 0c0,29 -24,53 -53,53 -30,0 -54,-24 -54,-53l107 0zm-263 -54l210 0 0 107 -210 0 -54 -53 54 -54zm0 107c-30,0 -54,-24 -54,-53 0,-30 24,-54 54,-54l0 107z"/>
    <polygon id="1" class="fil1" points="1810,3834 1810,1987 2020,1987 2020,3834 "/>
   </g>
   <g>
    <path class="fil0" d="M1178 1987l0 1847 -107 0 0 -1847 54 -54 53 54zm-107 0c0,-30 24,-54 54,-54 29,0 53,24 53,54l-107 0zm263 53l-209 0 0 -107 209 0 54 54 -54 53zm0 -107c30,0 54,24 54,54 0,29 -24,53 -54,53l0 -107zm-53 1901l0 -1847 107 0 0 1847 -54 53 -53 -53zm107 0c0,29 -24,53 -54,53 -29,0 -53,-24 -53,-53l107 0zm-263 -54l209 0 0 107 -209 0 -54 -53 54 -54zm0 107c-30,0 -54,-24 -54,-53 0,-30 24,-54 54,-54l0 107z"/>
    <polygon id="1" class="fil1" points="1125,3834 1125,1987 1334,1987 1334,3834 "/>
   </g>
   <g>
    <path class="fil0" d="M3919 1987l0 1847 -107 0 0 -1847 54 -54 53 54zm-107 0c0,-30 24,-54 54,-54 29,0 53,24 53,54l-107 0zm263 53l-209 0 0 -107 209 0 54 54 -54 53zm0 -107c30,0 54,24 54,54 0,29 -24,53 -54,53l0 -107zm-53 1901l0 -1847 107 0 0 1847 -54 53 -53 -53zm107 0c0,29 -24,53 -54,53 -29,0 -53,-24 -53,-53l107 0zm-263 -54l209 0 0 107 -209 0 -54 -53 54 -54zm0 107c-30,0 -54,-24 -54,-53 0,-30 24,-54 54,-54l0 107z"/>
    <polygon id="1" class="fil1" points="3866,3834 3866,1987 4075,1987 4075,3834 "/>
   </g>
   <g>
    <path class="fil0" d="M3234 1987l0 1847 -107 0 0 -1847 53 -54 54 54zm-107 0c0,-30 24,-54 53,-54 30,0 54,24 54,54l-107 0zm263 53l-210 0 0 -107 210 0 54 54 -54 53zm0 -107c30,0 54,24 54,54 0,29 -24,53 -54,53l0 -107zm-53 1901l0 -1847 107 0 0 1847 -54 53 -53 -53zm107 0c0,29 -24,53 -54,53 -29,0 -53,-24 -53,-53l107 0zm-264 -54l210 0 0 107 -210 0 -53 -53 53 -54zm0 107c-29,0 -53,-24 -53,-53 0,-30 24,-54 53,-54l0 107z"/>
    <polygon id="1" class="fil1" points="3180,3834 3180,1987 3390,1987 3390,3834 "/>
   </g>
   <g>
    <path class="fil0" d="M4379 3887l-3558 0 0 -107 3558 0 54 54 -54 53zm0 -107c30,0 54,24 54,54 0,29 -24,53 -54,53l0 -107zm-53 331l0 -277 107 0 0 277 -54 54 -53 -54zm107 0c0,30 -24,54 -54,54 -29,0 -53,-24 -53,-54l107 0zm-3612 -53l3558 0 0 107 -3558 0 -54 -54 54 -53zm0 107c-30,0 -54,-24 -54,-54 0,-29 24,-53 54,-53l0 107zm53 -331l0 277 -107 0 0 -277 54 -54 53 54zm-107 0c0,-30 24,-54 54,-54 30,0 53,24 53,54l-107 0z"/>
    <polygon id="1" class="fil1" points="821,3834 4379,3834 4379,4111 821,4111 "/>
   </g>
   <g>
    <path class="fil0" d="M4561 2262l-3922 0 0 -160 3922 0 51 18 -51 142zm0 -160c44,0 80,36 80,80 0,45 -36,80 -80,80l0 -160zm-1910 -1610l1961 1628 -103 124 -1960 -1629 0 -123 102 0zm-102 123c-34,-28 -39,-79 -11,-113 29,-34 79,-39 113,-10l-102 123zm-1961 1505l1961 -1628 102 123 -1960 1629 -52 18 -51 -142zm103 124c-34,28 -85,24 -113,-11 -29,-34 -24,-84 10,-113l103 124zm2292 -856l-161 0 0 0 0 -11 -1 -11 -1 -12 -2 -10 -3 -11 -3 -11 -3 -10 -4 -10 -5 -10 -5 -10 -5 -9 -6 -9 -6 -9 -6 -8 -7 -8 -8 -8 -8 -7 -8 -7 -8 -7 -9 -6 -9 -6 -9 -5 -10 -5 -9 -4 -11 -4 -10 -4 -10 -3 -11 -2 -11 -2 -11 -2 -11 -1 -12 0 0 -160 20 0 19 2 19 2 19 3 19 5 18 5 18 6 17 7 17 7 17 9 16 9 15 10 15 11 15 11 13 12 14 13 12 13 12 14 12 14 10 15 10 16 10 16 8 16 8 17 7 18 6 18 5 18 4 18 3 19 3 19 1 20 1 19 0 0zm-383 383l0 -160 0 0 12 -1 11 0 11 -2 11 -2 11 -2 10 -3 10 -4 11 -4 9 -4 10 -5 9 -5 9 -6 9 -6 8 -7 8 -7 8 -7 8 -8 7 -8 6 -9 6 -8 6 -9 5 -10 5 -9 5 -10 4 -10 3 -10 3 -11 3 -11 2 -11 1 -11 1 -11 0 -12 161 0 -1 20 -1 19 -3 20 -3 18 -4 19 -5 18 -6 18 -7 17 -8 17 -8 17 -10 16 -10 16 -10 15 -12 14 -12 14 -12 13 -14 13 -13 12 -15 11 -15 11 -15 10 -16 9 -17 8 -17 8 -17 7 -18 6 -18 5 -19 5 -19 3 -19 2 -19 2 -20 0 0 0zm-383 -383l161 0 0 0 0 12 1 11 1 11 2 11 3 11 3 11 3 10 4 10 5 10 5 9 5 10 6 9 6 8 6 9 7 8 8 8 8 7 8 7 8 7 9 6 9 6 9 5 10 5 10 4 10 4 10 4 10 3 11 2 11 2 11 2 11 0 12 1 0 160 -20 0 -19 -2 -19 -2 -19 -3 -19 -5 -18 -5 -18 -6 -17 -7 -17 -8 -17 -8 -16 -9 -15 -10 -15 -11 -15 -11 -13 -12 -14 -13 -12 -13 -12 -14 -12 -14 -10 -15 -10 -16 -10 -16 -8 -17 -8 -17 -7 -17 -6 -18 -5 -18 -4 -19 -3 -18 -3 -20 -1 -19 -1 -20 0 0zm383 -382l0 160 0 0 -12 0 -11 1 -11 2 -11 2 -11 2 -10 3 -10 4 -10 4 -10 4 -10 5 -9 5 -9 6 -9 6 -8 7 -8 7 -8 7 -8 8 -7 8 -6 8 -6 9 -6 9 -5 9 -5 10 -5 10 -4 10 -3 10 -3 11 -3 11 -2 10 -1 12 -1 11 0 11 -161 0 1 -19 1 -20 3 -19 3 -19 4 -18 5 -18 6 -18 7 -18 8 -17 8 -16 10 -16 10 -16 10 -15 12 -14 12 -14 12 -13 14 -13 13 -12 15 -11 15 -11 15 -10 16 -9 17 -9 17 -7 17 -7 18 -6 18 -5 19 -5 19 -3 19 -2 19 -2 20 0 0 0z"/>
    <path id="1" class="fil1" d="M639 2182l3922 0 -1961 -1629 -1961 1629zm1961 -1096c167,0 303,135 303,302 0,168 -136,303 -303,303 -167,0 -303,-135 -303,-303 0,-167 136,-302 303,-302z"/>
   </g>
  </g>
 </g>
</svg>
