<?xml version="1.0" encoding="UTF-8"?>
<!DOCTYPE svg PUBLIC "-//W3C//DTD SVG 1.1//EN" "http://www.w3.org/Graphics/SVG/1.1/DTD/svg11.dtd">
<!-- Creator: CorelDRAW X8 -->
<svg xmlns="http://www.w3.org/2000/svg" xml:space="preserve" width="50mm" height="36mm" version="1.1" style="shape-rendering:geometricPrecision; text-rendering:geometricPrecision; image-rendering:optimizeQuality; fill-rule:evenodd; clip-rule:evenodd"
viewBox="0 0 5000 3600"
 xmlns:xlink="http://www.w3.org/1999/xlink">
 <defs>
  <style type="text/css">
   <![CDATA[
    .str0 {stroke:#FEFEFE;stroke-width:160}
    .str2 {stroke:#FEFEFE;stroke-width:20}
    .str3 {stroke:#FEFEFE;stroke-width:100;stroke-linecap:round;stroke-linejoin:round}
    .str1 {stroke:#FEFEFE;stroke-width:160;stroke-linecap:round;stroke-linejoin:round}
    .fil0 {fill:none}
    .fil1 {fill:#FEFEFE}
   ]]>
  </style>
 </defs>
 <g id="Capa_x0020_1">
  <metadata id="CorelCorpID_0Corel-Layer"/>
  <path class="fil0 str0" d="M2581 2137l1665 -1665c86,-86 226,-86 312,0l162 162c86,85 86,226 0,312l-1665 1665 -678 204 204 -678z"/>
  <line class="fil0 str0" x1="4053" y1="665" x2="4527" y2= "1139" />
  <line class="fil0 str0" x1="3880" y1="838" x2="4354" y2= "1312" />
  <line class="fil0 str0" x1="2581" y1="2137" x2="3055" y2= "2611" />
  <line class="fil0 str0" x1="2462" y1="2533" x2="2659" y2= "2730" />
  <path class="fil0 str1" d="M2952 3074l0 190c0,91 -75,166 -166,166l-2404 0c-92,0 -166,-75 -166,-166l0 -2519c0,-91 74,-166 166,-166l890 0 0 -97c0,-172 139,-312 312,-312 172,0 312,140 312,312l0 97 890 0c91,0 166,75 166,166l0 675"/>
  <path class="fil0 str0" d="M881 579l0 517c0,19 17,40 40,40l1326 0c20,0 40,-20 40,-40l0 -517"/>
  <polygon class="fil1 str2" points="666,1373 711,1519 857,1519 738,1609 784,1755 666,1665 547,1755 593,1609 474,1519 621,1519 "/>
  <polygon class="fil1 str2" points="666,1973 711,2119 857,2119 738,2209 784,2355 666,2265 547,2355 593,2209 474,2119 621,2119 "/>
  <polygon class="fil1 str2" points="666,2673 711,2819 857,2819 738,2909 784,3055 666,2965 547,3055 593,2909 474,2819 621,2819 "/>
  <line class="fil0 str3" x1="1074" y1="1540" x2="2048" y2= "1540" />
  <line class="fil0 str3" x1="1074" y1="1740" x2="2048" y2= "1740" />
  <line class="fil0 str3" x1="1074" y1="2140" x2="2048" y2= "2140" />
  <line class="fil0 str3" x1="1074" y1="2340" x2="2048" y2= "2340" />
  <line class="fil0 str3" x1="1074" y1="2840" x2="2048" y2= "2840" />
  <line class="fil0 str3" x1="1074" y1="3040" x2="1499" y2= "3040" />
 </g>
</svg>
