<?xml version="1.0" encoding="utf-8"?>
<!-- Generator: Adobe Illustrator 25.2.1, SVG Export Plug-In . SVG Version: 6.00 Build 0)  -->
<svg version="1.1" id="Capa_1" xmlns="http://www.w3.org/2000/svg" xmlns:xlink="http://www.w3.org/1999/xlink" x="0px" y="0px"
	 viewBox="0 0 100 100" style="enable-background:new 0 0 100 100;" xml:space="preserve">
<style type="text/css">
	.st0{fill:none;stroke:#000000;stroke-width:5;stroke-linecap:round;stroke-linejoin:round;stroke-miterlimit:10;}
</style>
<path class="st0" d="M72.98,64.02c12.37,2.69,20.6,7.49,20.6,12.96c0,8.42-19.51,15.25-43.58,15.25S6.42,85.41,6.42,76.98
	c0-5.26,7.6-9.9,19.18-12.64"/>
<path class="st0" d="M72.98,60.74"/>
<path class="st0" d="M25.6,61.1"/>
<circle class="st0" cx="50" cy="18.49" r="10.97"/>
<g>
	<path class="st0" d="M31.25,49.87"/>
	<path class="st0" d="M50.06,64.18"/>
	<path class="st0" d="M34.09,45.42c0-8.82,7.15-15.96,15.96-15.96s15.96,7.15,15.96,15.96"/>
	<line class="st0" x1="34.09" y1="45.04" x2="34.09" y2="57.64"/>
	<line class="st0" x1="66.02" y1="44.87" x2="66.02" y2="57.64"/>
	<line class="st0" x1="34.09" y1="57.64" x2="41.85" y2="63.31"/>
	<line class="st0" x1="41.85" y1="63.31" x2="41.83" y2="80.75"/>
	<line class="st0" x1="65.83" y1="57.64" x2="58.07" y2="63.31"/>
	<line class="st0" x1="58.07" y1="63.31" x2="58.1" y2="80.75"/>
	<line class="st0" x1="41.83" y1="80.75" x2="58.1" y2="80.75"/>
</g>
</svg>
