<?xml version="1.0" encoding="UTF-8"?>
<!DOCTYPE svg PUBLIC "-//W3C//DTD SVG 1.1//EN" "http://www.w3.org/Graphics/SVG/1.1/DTD/svg11.dtd">
<!-- Creator: CorelDRAW X8 -->
<svg xmlns="http://www.w3.org/2000/svg" xml:space="preserve" width="35.5mm" height="28.5mm" version="1.1" style="shape-rendering:geometricPrecision; text-rendering:geometricPrecision; image-rendering:optimizeQuality; fill-rule:evenodd; clip-rule:evenodd"
viewBox="0 0 3550 2850"
 xmlns:xlink="http://www.w3.org/1999/xlink">
 <defs>
  <style type="text/css">
   <![CDATA[
    .str1 {stroke:white;stroke-width:160}
    .str0 {stroke:white;stroke-width:160;stroke-linecap:round;stroke-linejoin:round}
    .fil1 {fill:none}
    .fil0 {fill:white;fill-rule:nonzero}
   ]]>
  </style>
 </defs>
 <g id="Capa_x0020_1">
  <metadata id="CorelCorpID_0Corel-Layer"/>
  <g>
   <path class="fil0" d="M1477 1589l0 0 -1 8 0 9 -1 8 -2 9 -2 8 -2 8 -3 8 -3 7 -3 8 -4 7 -4 7 -4 7 -5 7 -5 6 -5 6 -6 6 -6 6 -6 5 -6 5 -7 5 -7 4 -7 4 -7 4 -7 3 -8 3 -8 3 -8 2 -8 2 -9 2 -8 1 -9 0 -8 0 0 -50 6 0 6 0 6 -1 6 -1 6 -1 5 -2 6 -2 5 -2 5 -2 5 -3 5 -3 5 -3 5 -3 4 -4 5 -3 4 -4 4 -4 3 -5 4 -4 3 -5 3 -5 3 -5 3 -5 2 -5 2 -5 2 -6 2 -6 1 -5 1 -6 1 -6 0 -6 1 -6 0 0 50 0zm-169 -169l0 0 8 0 9 1 8 1 9 1 8 2 8 3 8 2 7 3 8 4 7 3 7 4 7 5 7 5 6 5 6 5 6 5 6 6 5 6 5 7 5 6 4 7 4 7 4 8 3 7 3 8 3 8 2 8 2 8 2 8 1 9 0 8 1 9 -50 0 -1 -6 0 -6 -1 -6 -1 -6 -1 -6 -2 -6 -2 -5 -2 -5 -2 -6 -3 -5 -3 -5 -3 -5 -3 -4 -4 -5 -3 -4 -4 -4 -4 -4 -5 -4 -4 -3 -5 -4 -5 -3 -5 -3 -5 -2 -5 -3 -5 -2 -6 -2 -5 -1 -6 -2 -6 -1 -6 0 -6 -1 -6 0 0 0 0 -50zm-169 169l0 0 0 -9 1 -8 1 -9 2 -8 1 -8 3 -8 2 -8 3 -8 4 -7 3 -8 5 -7 4 -7 5 -6 5 -7 5 -6 6 -6 5 -5 6 -5 7 -5 6 -5 7 -5 7 -4 8 -3 7 -4 8 -3 8 -2 8 -3 8 -2 8 -1 9 -1 8 -1 9 0 0 50 -6 0 -6 1 -6 0 -6 1 -6 2 -6 1 -5 2 -5 2 -6 3 -5 2 -5 3 -5 3 -4 4 -5 3 -4 4 -4 4 -4 4 -4 4 -3 5 -4 4 -3 5 -3 5 -2 5 -3 6 -2 5 -2 5 -1 6 -2 6 -1 6 0 6 -1 6 0 6 0 0 -50 0zm169 168l0 0 -9 0 -8 0 -9 -1 -8 -2 -8 -2 -8 -2 -8 -3 -8 -3 -7 -3 -8 -4 -7 -4 -7 -4 -6 -5 -7 -5 -6 -5 -5 -6 -6 -6 -5 -6 -5 -6 -5 -7 -4 -7 -5 -7 -3 -7 -4 -8 -3 -7 -2 -8 -3 -8 -1 -8 -2 -9 -1 -8 -1 -9 0 -8 50 0 0 6 1 6 0 6 1 6 2 5 1 6 2 6 2 5 3 5 2 5 3 5 3 5 4 5 3 4 4 5 4 4 4 4 4 3 5 4 4 3 5 3 5 3 5 3 6 2 5 2 5 2 6 2 6 1 6 1 6 1 6 0 6 0 0 0 0 50z"/>
  </g>
  <g>
   <path class="fil0" d="M1273 1261l0 0 0 9 -1 8 -1 9 -2 8 -2 8 -2 8 -2 8 -3 8 -4 7 -4 8 -4 7 -4 7 -5 6 -5 7 -5 6 -6 6 -5 5 -7 5 -6 5 -7 5 -6 5 -7 4 -8 3 -7 4 -8 3 -8 2 -8 3 -8 2 -8 1 -9 1 -8 1 -9 0 0 -50 6 0 6 -1 6 0 6 -1 6 -2 5 -1 6 -2 5 -2 6 -3 5 -2 5 -3 4 -3 5 -4 5 -3 4 -4 4 -4 4 -4 4 -4 3 -5 4 -4 3 -5 3 -5 2 -5 3 -6 2 -5 1 -5 2 -6 1 -6 1 -6 1 -6 1 -6 0 -6 0 0 50 0zm-169 -168l0 0 9 0 8 0 9 1 8 2 8 2 8 2 8 3 8 3 7 3 7 4 8 4 6 4 7 5 6 5 7 5 5 6 6 6 5 6 5 6 5 7 4 7 4 7 4 7 4 8 3 7 2 8 2 8 2 8 2 9 1 8 1 9 0 8 -50 0 0 -6 -1 -6 -1 -6 -1 -6 -1 -5 -2 -6 -1 -6 -2 -5 -3 -5 -2 -5 -3 -5 -3 -5 -4 -5 -3 -4 -4 -5 -4 -4 -4 -4 -4 -3 -5 -4 -5 -3 -4 -3 -5 -3 -5 -3 -6 -2 -5 -2 -6 -2 -5 -2 -6 -1 -6 -1 -6 -1 -6 0 -6 0 0 0 0 -50zm-169 168l0 0 1 -8 0 -9 1 -8 2 -9 2 -8 2 -8 3 -8 3 -7 3 -8 4 -7 4 -7 4 -7 5 -7 5 -6 5 -6 6 -6 6 -6 6 -5 6 -5 7 -5 7 -4 7 -4 7 -4 7 -3 8 -3 8 -3 8 -2 8 -2 8 -2 9 -1 8 0 9 0 0 50 -6 0 -6 0 -6 1 -6 1 -6 1 -5 2 -6 2 -5 2 -5 2 -6 3 -4 3 -5 3 -5 3 -4 4 -5 3 -4 4 -4 4 -4 5 -3 4 -3 5 -4 5 -2 5 -3 5 -2 5 -2 5 -2 6 -2 6 -1 5 -1 6 -1 6 -1 6 0 6 0 0 -50 0zm169 169l0 0 -9 0 -8 -1 -9 -1 -8 -1 -8 -2 -8 -3 -8 -2 -8 -3 -7 -4 -7 -3 -7 -4 -7 -5 -7 -5 -6 -5 -6 -5 -6 -5 -6 -6 -5 -6 -5 -7 -5 -6 -4 -7 -4 -7 -4 -8 -3 -7 -3 -8 -3 -8 -2 -8 -2 -8 -2 -8 -1 -9 0 -8 -1 -9 50 0 0 6 1 6 1 6 1 6 1 6 2 6 2 5 2 5 2 6 3 5 2 5 4 5 3 4 3 5 4 4 4 4 4 4 5 4 4 3 5 4 5 3 4 3 6 2 5 3 5 2 6 2 5 1 6 2 6 1 6 0 6 1 6 0 0 0 0 50z"/>
  </g>
  <g>
   <path class="fil0" d="M1680 1261l0 0 0 9 -1 8 -1 9 -1 8 -2 8 -2 8 -3 8 -3 8 -3 7 -4 8 -4 7 -5 7 -4 6 -5 7 -6 6 -5 6 -6 5 -6 5 -6 5 -7 5 -7 5 -7 4 -7 3 -8 4 -7 3 -8 2 -8 3 -8 2 -9 1 -8 1 -9 1 -8 0 0 -50 6 0 6 -1 6 0 6 -1 5 -2 6 -1 5 -2 6 -2 5 -3 5 -2 5 -3 5 -3 5 -4 4 -3 4 -4 5 -4 3 -4 4 -4 4 -5 3 -4 3 -5 3 -5 3 -5 2 -6 2 -5 2 -5 2 -6 1 -6 1 -6 1 -6 0 -6 0 -6 0 0 50 0zm-168 -168l0 0 8 0 9 0 8 1 9 2 8 2 8 2 8 3 7 3 8 3 7 4 7 4 7 4 7 5 6 5 6 5 6 6 5 6 6 6 5 6 4 7 5 7 4 7 4 7 3 8 3 7 3 8 2 8 2 8 1 9 1 8 1 9 0 8 -50 0 0 -6 0 -6 -1 -6 -1 -6 -1 -5 -2 -6 -2 -6 -2 -5 -2 -5 -3 -5 -3 -5 -3 -5 -3 -5 -4 -4 -4 -5 -3 -4 -5 -4 -4 -3 -4 -4 -5 -3 -5 -3 -5 -3 -5 -3 -5 -2 -6 -2 -5 -2 -6 -2 -5 -1 -6 -1 -6 -1 -6 0 -6 0 0 0 0 -50zm-169 168l0 0 0 -8 1 -9 1 -8 1 -9 2 -8 2 -8 3 -8 3 -7 3 -8 4 -7 4 -7 5 -7 4 -7 5 -6 6 -6 5 -6 6 -6 6 -5 7 -5 6 -5 7 -4 7 -4 7 -4 8 -3 8 -3 7 -3 8 -2 9 -2 8 -2 8 -1 9 0 9 0 0 50 -7 0 -6 0 -6 1 -5 1 -6 1 -6 2 -5 2 -6 2 -5 2 -5 3 -5 3 -5 3 -4 3 -5 4 -4 3 -4 4 -4 4 -4 5 -4 4 -3 5 -3 5 -3 5 -2 5 -3 5 -2 5 -2 6 -1 6 -2 5 -1 6 -1 6 0 6 0 6 0 0 -50 0zm169 169l0 0 -9 0 -9 -1 -8 -1 -8 -1 -9 -2 -8 -3 -7 -2 -8 -3 -8 -4 -7 -3 -7 -4 -7 -5 -6 -5 -7 -5 -6 -5 -6 -5 -5 -6 -6 -6 -5 -7 -4 -6 -5 -7 -4 -7 -4 -8 -3 -7 -3 -8 -3 -8 -2 -8 -2 -8 -1 -8 -1 -9 -1 -8 0 -9 50 0 0 6 0 6 1 6 1 6 2 6 1 6 2 5 2 5 3 6 2 5 3 5 3 5 3 4 4 5 4 4 4 4 4 4 4 4 5 3 4 4 5 3 5 3 5 2 5 3 6 2 5 2 6 1 6 2 5 1 6 0 6 1 7 0 0 0 0 50z"/>
  </g>
  <g>
   <path class="fil0" d="M2411 1589l0 0 0 8 -1 9 -1 8 -2 9 -1 8 -3 8 -2 8 -3 7 -4 8 -3 7 -5 7 -4 7 -5 7 -5 6 -5 6 -6 6 -5 6 -6 5 -7 5 -6 5 -7 4 -7 4 -8 4 -7 3 -8 3 -8 3 -8 2 -8 2 -8 2 -9 1 -8 0 -9 0 0 -50 6 0 6 0 6 -1 6 -1 6 -1 6 -2 5 -2 5 -2 6 -2 5 -3 5 -3 5 -3 4 -3 5 -4 4 -3 4 -4 4 -4 4 -5 3 -4 4 -5 3 -5 3 -5 2 -5 3 -5 2 -5 2 -6 1 -6 2 -5 1 -6 0 -6 1 -6 0 -6 0 0 50 0zm-169 -169l0 0 9 0 8 1 9 1 8 1 8 2 8 3 8 2 8 3 7 4 8 3 7 4 7 5 6 5 7 5 6 5 5 5 6 6 5 6 5 7 5 6 4 7 5 7 3 8 4 7 3 8 2 8 3 8 1 8 2 8 1 9 1 8 0 9 -50 0 0 -6 -1 -6 0 -6 -1 -6 -2 -6 -1 -6 -2 -5 -2 -5 -3 -6 -2 -5 -3 -5 -3 -5 -4 -4 -3 -5 -4 -4 -4 -4 -4 -4 -4 -4 -5 -3 -4 -4 -5 -3 -5 -3 -5 -2 -6 -3 -5 -2 -5 -2 -6 -1 -6 -2 -6 -1 -6 0 -6 -1 -6 0 0 0 0 -50zm-169 169l0 0 1 -9 0 -8 1 -9 2 -8 2 -8 2 -8 3 -8 3 -8 3 -7 4 -8 4 -7 4 -7 5 -6 5 -7 5 -6 6 -6 6 -5 6 -5 6 -5 7 -5 7 -5 7 -4 7 -3 8 -4 7 -3 8 -2 8 -3 8 -2 9 -1 8 -1 9 -1 8 0 0 50 -6 0 -6 1 -6 0 -6 1 -6 2 -5 1 -6 2 -5 2 -5 3 -5 2 -5 3 -5 3 -5 4 -4 3 -5 4 -4 4 -4 4 -3 4 -4 5 -3 4 -3 5 -3 5 -3 5 -2 6 -2 5 -2 5 -2 6 -1 6 -1 6 -1 6 0 6 -1 6 0 0 -50 0zm169 168l0 0 -8 0 -9 0 -8 -1 -9 -2 -8 -2 -8 -2 -8 -3 -7 -3 -8 -3 -7 -4 -7 -4 -7 -4 -7 -5 -6 -5 -6 -5 -6 -6 -6 -6 -5 -6 -5 -6 -5 -7 -4 -7 -4 -7 -4 -7 -3 -8 -3 -7 -3 -8 -2 -8 -2 -8 -2 -9 -1 -8 0 -9 -1 -8 50 0 1 6 0 6 1 6 1 6 1 5 2 6 2 6 2 5 2 5 3 5 3 5 3 5 3 5 4 4 3 5 4 4 4 4 5 3 4 4 5 3 5 3 5 3 5 3 5 2 5 2 6 2 5 2 6 1 6 1 6 1 6 0 6 0 0 0 0 50z"/>
  </g>
  <g>
   <path class="fil0" d="M2207 1261l0 0 0 9 -1 8 -1 9 -1 8 -2 8 -2 8 -3 8 -3 8 -3 7 -4 8 -4 7 -5 7 -4 6 -5 7 -6 6 -5 6 -6 5 -6 5 -7 5 -6 5 -7 5 -7 4 -7 3 -8 4 -8 3 -7 2 -8 3 -9 2 -8 1 -8 1 -9 1 -9 0 0 -50 7 0 6 -1 6 0 5 -1 6 -2 6 -1 5 -2 6 -2 5 -3 5 -2 5 -3 5 -3 5 -4 4 -3 4 -4 4 -4 4 -4 4 -4 4 -5 3 -4 3 -5 3 -5 3 -5 2 -6 2 -5 2 -5 1 -6 2 -6 1 -6 1 -6 0 -6 0 -6 0 0 50 0zm-169 -168l0 0 9 0 9 0 8 1 8 2 9 2 8 2 7 3 8 3 8 3 7 4 7 4 7 4 6 5 7 5 6 5 6 6 5 6 6 6 5 6 4 7 5 7 4 7 4 7 3 8 3 7 3 8 2 8 2 8 1 9 1 8 1 9 0 8 -50 0 0 -6 0 -6 -1 -6 -1 -6 -2 -5 -1 -6 -2 -6 -2 -5 -2 -5 -3 -5 -3 -5 -3 -5 -3 -5 -4 -4 -4 -5 -4 -4 -4 -4 -4 -3 -4 -4 -5 -3 -5 -3 -5 -3 -5 -3 -5 -2 -6 -2 -5 -2 -6 -2 -6 -1 -5 -1 -6 -1 -6 0 -7 0 0 0 0 -50zm-168 168l0 0 0 -8 1 -9 1 -8 1 -9 2 -8 2 -8 3 -8 3 -7 3 -8 4 -7 4 -7 5 -7 4 -7 5 -6 6 -6 5 -6 6 -6 6 -5 7 -5 6 -5 7 -4 7 -4 7 -4 8 -3 7 -3 8 -3 8 -2 8 -2 9 -2 8 -1 9 0 8 0 0 50 -6 0 -6 0 -6 1 -6 1 -5 1 -6 2 -5 2 -6 2 -5 2 -5 3 -5 3 -5 3 -5 3 -4 4 -4 3 -5 4 -3 4 -4 5 -4 4 -3 5 -3 5 -3 5 -3 5 -2 5 -2 5 -2 6 -2 6 -1 5 -1 6 -1 6 0 6 0 6 0 0 -50 0zm168 169l0 0 -8 0 -9 -1 -8 -1 -9 -1 -8 -2 -8 -3 -8 -2 -7 -3 -8 -4 -7 -3 -7 -4 -7 -5 -6 -5 -7 -5 -6 -5 -6 -5 -5 -6 -6 -6 -5 -7 -4 -6 -5 -7 -4 -7 -4 -8 -3 -7 -3 -8 -3 -8 -2 -8 -2 -8 -1 -8 -1 -9 -1 -8 0 -9 50 0 0 6 0 6 1 6 1 6 1 6 2 6 2 5 2 5 2 6 3 5 3 5 3 5 3 4 4 5 4 4 3 4 5 4 4 4 4 3 5 4 5 3 5 3 5 2 5 3 6 2 5 2 6 1 5 2 6 1 6 0 6 1 6 0 0 0 0 50z"/>
  </g>
  <g>
   <path class="fil0" d="M2615 1261l0 0 -1 9 0 8 -1 9 -2 8 -2 8 -2 8 -3 8 -3 8 -3 7 -4 8 -4 7 -4 7 -5 6 -5 7 -5 6 -6 6 -6 5 -6 5 -6 5 -7 5 -7 5 -7 4 -7 3 -7 4 -8 3 -8 2 -8 3 -8 2 -8 1 -9 1 -8 1 -9 0 0 -50 6 0 6 -1 6 0 6 -1 6 -2 5 -1 6 -2 5 -2 5 -3 6 -2 4 -3 5 -3 5 -4 4 -3 5 -4 4 -4 4 -4 4 -4 3 -5 3 -4 4 -5 2 -5 3 -5 2 -6 2 -5 2 -5 2 -6 1 -6 1 -6 1 -6 1 -6 0 -6 0 0 50 0zm-169 -168l0 0 9 0 8 0 9 1 8 2 8 2 8 2 8 3 8 3 7 3 7 4 7 4 7 4 7 5 6 5 6 5 6 6 6 6 5 6 5 6 5 7 4 7 4 7 4 7 3 8 3 7 3 8 2 8 2 8 2 9 1 8 0 9 1 8 -50 0 0 -6 -1 -6 -1 -6 -1 -6 -1 -5 -2 -6 -2 -6 -2 -5 -2 -5 -3 -5 -2 -5 -4 -5 -3 -5 -3 -4 -4 -5 -4 -4 -4 -4 -5 -3 -4 -4 -5 -3 -5 -3 -4 -3 -6 -3 -5 -2 -5 -2 -6 -2 -5 -2 -6 -1 -6 -1 -6 -1 -6 0 -6 0 0 0 0 -50zm-169 168l0 0 0 -8 1 -9 1 -8 2 -9 2 -8 2 -8 2 -8 3 -7 4 -8 4 -7 4 -7 4 -7 5 -7 5 -6 5 -6 6 -6 5 -6 7 -5 6 -5 7 -5 6 -4 8 -4 7 -4 7 -3 8 -3 8 -3 8 -2 8 -2 8 -2 9 -1 8 0 9 0 0 50 -6 0 -6 0 -6 1 -6 1 -6 1 -5 2 -6 2 -5 2 -6 2 -5 3 -5 3 -4 3 -5 3 -5 4 -4 3 -4 4 -4 4 -4 5 -3 4 -4 5 -3 5 -2 5 -3 5 -2 5 -3 5 -1 6 -2 6 -1 5 -1 6 -1 6 -1 6 0 6 0 0 -50 0zm169 169l0 0 -9 0 -8 -1 -9 -1 -8 -1 -8 -2 -8 -3 -8 -2 -8 -3 -7 -4 -8 -3 -7 -4 -6 -5 -7 -5 -6 -5 -7 -5 -5 -5 -6 -6 -5 -6 -5 -7 -5 -6 -4 -7 -4 -7 -4 -8 -4 -7 -3 -8 -2 -8 -2 -8 -2 -8 -2 -8 -1 -9 -1 -8 0 -9 50 0 0 6 1 6 1 6 1 6 1 6 2 6 1 5 3 5 2 6 3 5 2 5 3 5 4 4 3 5 4 4 4 4 4 4 4 4 5 3 5 4 4 3 5 3 5 2 6 3 5 2 6 2 5 1 6 2 6 1 6 0 6 1 6 0 0 0 0 50z"/>
  </g>
  <g>
   <path class="fil1 str0" d="M116 1254l1441 -1066c146,-91 294,-87 446,8l1431 1058"/>
   <path class="fil1 str1" d="M725 811l0 1298c0,348 307,619 619,619l862 0c365,0 619,-298 619,-619l0 -1298"/>
  </g>
  <g>
   <g>
    <path class="fil0" d="M1944 2051l-50 0 0 0 0 -6 -1 -6 -1 -6 -1 -6 -1 -5 -2 -6 -1 -6 -3 -5 -2 -5 -3 -5 -2 -5 -4 -5 -3 -5 -3 -4 -4 -5 -4 -4 -4 -4 -4 -3 -5 -4 -5 -3 -4 -3 -5 -3 -6 -3 -5 -2 -5 -2 -6 -2 -5 -2 -6 -1 -6 -1 -6 -1 -6 0 -6 0 0 -50 9 0 8 0 9 1 8 2 8 2 8 2 8 3 8 3 7 3 7 4 8 4 6 4 7 5 6 5 6 5 6 6 6 6 5 6 5 6 5 7 4 7 4 7 4 7 3 8 3 7 3 8 2 8 2 8 2 9 1 8 1 9 0 8 0 0zm-169 169l0 -50 0 0 6 0 6 -1 6 0 6 -1 6 -2 5 -1 6 -2 5 -2 5 -3 6 -2 5 -3 4 -3 5 -4 5 -3 4 -4 4 -4 4 -4 4 -4 3 -5 4 -4 3 -5 2 -5 3 -5 2 -6 3 -5 1 -5 2 -6 1 -6 1 -6 1 -6 1 -6 0 -6 50 0 0 9 -1 8 -1 9 -2 8 -2 8 -2 8 -3 8 -3 8 -3 7 -4 8 -4 7 -4 7 -5 6 -5 7 -5 6 -6 6 -6 5 -6 5 -6 5 -7 5 -6 5 -8 4 -7 3 -7 4 -8 3 -8 2 -8 3 -8 2 -8 1 -9 1 -8 1 -9 0 0 0zm-169 -169l50 0 0 0 0 6 1 6 1 6 1 6 1 6 2 6 1 5 3 5 2 6 3 5 2 5 4 5 3 4 3 5 4 4 4 4 4 4 4 4 5 3 5 4 4 3 5 3 6 2 5 3 5 2 6 2 5 1 6 2 6 1 6 0 6 1 6 0 0 50 -9 0 -8 -1 -9 -1 -8 -1 -8 -2 -8 -3 -8 -2 -8 -3 -7 -4 -7 -3 -7 -4 -7 -5 -7 -5 -6 -5 -6 -5 -6 -5 -6 -6 -5 -6 -5 -7 -5 -6 -4 -7 -4 -7 -4 -8 -3 -7 -3 -8 -3 -8 -2 -8 -2 -8 -2 -8 -1 -9 -1 -8 0 -9 0 0zm169 -168l0 50 0 0 -6 0 -6 0 -6 1 -6 1 -6 1 -5 2 -6 2 -5 2 -5 2 -6 3 -5 3 -4 3 -5 3 -5 4 -4 3 -4 4 -4 4 -4 5 -3 4 -3 5 -4 5 -2 5 -3 5 -2 5 -3 5 -1 6 -2 6 -1 5 -1 6 -1 6 -1 6 0 6 -50 0 0 -8 1 -9 1 -8 2 -9 2 -8 2 -8 3 -8 3 -7 3 -8 4 -7 4 -7 4 -7 5 -7 5 -6 5 -6 6 -6 6 -6 6 -5 6 -5 7 -5 7 -4 7 -4 7 -4 7 -3 8 -3 8 -3 8 -2 8 -2 8 -2 9 -1 8 0 9 0 0 0z"/>
   </g>
   <g>
    <path class="fil0" d="M1740 2379l-50 0 0 0 0 -6 -1 -6 0 -6 -1 -6 -2 -6 -1 -6 -2 -5 -2 -5 -3 -6 -2 -5 -3 -5 -3 -5 -4 -4 -3 -5 -4 -4 -4 -4 -4 -4 -4 -4 -5 -3 -4 -4 -5 -3 -5 -3 -5 -2 -6 -3 -5 -2 -5 -2 -6 -1 -6 -2 -6 -1 -6 0 -6 -1 -6 0 0 -50 9 0 8 1 9 1 8 1 8 2 8 3 8 2 8 3 7 4 8 3 7 4 7 5 6 5 7 5 6 5 6 5 5 6 5 6 5 7 5 6 5 7 4 7 3 8 4 7 3 8 2 8 3 8 2 8 1 8 1 9 1 8 0 9 0 0zm-169 168l0 -50 0 0 6 0 6 0 6 -1 6 -1 6 -1 6 -2 5 -2 5 -2 6 -2 5 -3 5 -3 5 -3 4 -3 5 -4 4 -3 4 -4 4 -4 4 -5 3 -4 4 -5 3 -5 3 -5 2 -5 3 -5 2 -5 2 -6 1 -6 2 -5 1 -6 0 -6 1 -6 0 -6 50 0 0 8 -1 9 -1 8 -1 9 -2 8 -3 8 -2 8 -3 7 -4 8 -3 7 -4 7 -5 7 -5 7 -5 6 -5 6 -5 6 -6 6 -6 5 -7 5 -6 5 -7 4 -7 4 -8 4 -7 3 -8 3 -8 3 -8 2 -8 2 -8 2 -9 1 -8 0 -9 0 0 0zm-168 -168l50 0 0 0 0 6 0 6 1 6 1 6 1 5 2 6 2 6 2 5 2 5 3 5 3 5 3 5 3 5 4 4 3 5 4 4 4 4 5 3 4 4 5 3 5 3 5 3 5 3 5 2 5 2 6 2 6 2 5 1 6 1 6 1 6 0 6 0 0 50 -8 0 -9 0 -8 -1 -9 -2 -8 -2 -8 -2 -8 -3 -7 -3 -8 -3 -7 -4 -7 -4 -7 -4 -7 -5 -6 -5 -6 -5 -6 -6 -6 -6 -5 -6 -5 -6 -5 -7 -4 -7 -4 -7 -4 -7 -3 -8 -3 -7 -3 -8 -2 -8 -2 -8 -2 -9 -1 -8 0 -9 0 -8 0 0zm168 -169l0 50 0 0 -6 0 -6 1 -6 0 -6 1 -5 2 -6 1 -6 2 -5 2 -5 3 -5 2 -5 3 -5 3 -5 4 -4 3 -5 4 -4 4 -4 4 -3 4 -4 5 -3 4 -3 5 -3 5 -3 5 -2 6 -2 5 -2 5 -2 6 -1 6 -1 6 -1 6 0 6 0 6 -50 0 0 -9 0 -8 1 -9 2 -8 2 -8 2 -8 3 -8 3 -8 3 -7 4 -8 4 -7 4 -7 5 -6 5 -7 5 -6 6 -6 6 -5 6 -5 6 -5 7 -5 7 -5 7 -4 7 -3 8 -4 7 -3 8 -2 8 -3 8 -2 9 -1 8 -1 9 -1 8 0 0 0z"/>
   </g>
   <g>
    <path class="fil0" d="M2147 2379l-50 0 0 0 0 -6 0 -6 -1 -6 -1 -6 -1 -6 -2 -6 -2 -5 -2 -5 -2 -6 -3 -5 -3 -5 -3 -5 -3 -4 -4 -5 -3 -4 -4 -4 -4 -4 -5 -4 -4 -3 -5 -4 -5 -3 -5 -3 -5 -2 -5 -3 -5 -2 -6 -2 -6 -1 -5 -2 -6 -1 -6 0 -6 -1 -6 0 0 -50 8 0 9 1 8 1 9 1 8 2 8 3 8 2 7 3 8 4 7 3 7 4 7 5 7 5 6 5 6 5 6 5 6 6 5 6 5 7 5 6 4 7 4 7 4 8 3 7 3 8 3 8 2 8 2 8 2 8 1 9 0 8 0 9 0 0zm-168 168l0 -50 0 0 6 0 6 0 6 -1 6 -1 5 -1 6 -2 6 -2 5 -2 5 -2 5 -3 5 -3 5 -3 5 -3 4 -4 5 -3 4 -4 4 -4 3 -5 4 -4 3 -5 3 -5 3 -5 3 -5 2 -5 2 -5 2 -6 2 -6 1 -5 1 -6 1 -6 0 -6 0 -6 50 0 0 8 0 9 -1 8 -2 9 -2 8 -2 8 -3 8 -3 7 -3 8 -4 7 -4 7 -4 7 -5 7 -5 6 -5 6 -6 6 -6 6 -6 5 -6 5 -7 5 -7 4 -7 4 -7 4 -8 3 -7 3 -8 3 -8 2 -8 2 -9 2 -8 1 -9 0 -8 0 0 0zm-169 -168l50 0 0 0 0 6 1 6 0 6 1 6 2 5 1 6 2 6 2 5 3 5 2 5 3 5 3 5 4 5 3 4 4 5 4 4 4 4 4 3 5 4 4 3 5 3 5 3 5 3 6 2 5 2 5 2 6 2 6 1 6 1 6 1 6 0 6 0 0 50 -9 0 -8 0 -9 -1 -8 -2 -8 -2 -8 -2 -8 -3 -8 -3 -7 -3 -8 -4 -7 -4 -7 -4 -6 -5 -7 -5 -6 -5 -6 -6 -5 -6 -5 -6 -5 -6 -5 -7 -5 -7 -4 -7 -3 -7 -4 -8 -3 -7 -2 -8 -3 -8 -2 -8 -1 -9 -1 -8 -1 -9 0 -8 0 0zm169 -169l0 50 0 0 -6 0 -6 1 -6 0 -6 1 -6 2 -6 1 -5 2 -5 2 -6 3 -5 2 -5 3 -5 3 -4 4 -5 3 -4 4 -4 4 -4 4 -4 4 -3 5 -4 4 -3 5 -3 5 -2 5 -3 6 -2 5 -2 5 -1 6 -2 6 -1 6 0 6 -1 6 0 6 -50 0 0 -9 1 -8 1 -9 1 -8 2 -8 3 -8 2 -8 3 -8 4 -7 3 -8 4 -7 5 -7 5 -6 5 -7 5 -6 5 -6 6 -5 6 -5 7 -5 6 -5 7 -5 7 -4 8 -3 7 -4 8 -3 8 -2 8 -3 8 -2 8 -1 9 -1 8 -1 9 0 0 0z"/>
   </g>
  </g>
 </g>
</svg>
