<?xml version="1.0" encoding="UTF-8"?>
<!DOCTYPE svg PUBLIC "-//W3C//DTD SVG 1.1//EN" "http://www.w3.org/Graphics/SVG/1.1/DTD/svg11.dtd">
<!-- Creator: CorelDRAW X8 -->
<svg xmlns="http://www.w3.org/2000/svg" xml:space="preserve" width="37.5mm" height="35mm" version="1.1" style="shape-rendering:geometricPrecision; text-rendering:geometricPrecision; image-rendering:optimizeQuality; fill-rule:evenodd; clip-rule:evenodd"
viewBox="0 0 3750 3500"
 xmlns:xlink="http://www.w3.org/1999/xlink">
 <defs>
  <style type="text/css">
   <![CDATA[
    .str1 {stroke:#FEFEFE;stroke-width:160}
    .str2 {stroke:#FEFEFE;stroke-width:100;stroke-linecap:round;stroke-linejoin:round}
    .str0 {stroke:#FEFEFE;stroke-width:160;stroke-linecap:round;stroke-linejoin:round}
    .fil0 {fill:none}
   ]]>
  </style>
 </defs>
 <g id="Capa_x0020_1">
  <metadata id="CorelCorpID_0Corel-Layer"/>
  <g id="_1154552464">
   <path class="fil0 str0" d="M2895 3024l0 190c0,91 -75,166 -166,166l-2404 0c-91,0 -166,-75 -166,-166l0 -2519c0,-91 75,-166 166,-166l890 0 0 -97c0,-172 140,-312 312,-312 172,0 312,140 312,312l0 97 890 0c91,0 166,75 166,166l0 775"/>
   <path class="fil0 str1" d="M824 529l0 517c0,19 17,40 40,40l1326 0c20,0 40,-20 40,-40l0 -517"/>
   <line class="fil0 str2" x1="717" y1="1490" x2="1691" y2= "1490" />
   <line class="fil0 str2" x1="717" y1="1690" x2="1691" y2= "1690" />
   <line class="fil0 str2" x1="717" y1="2090" x2="1354" y2= "2090" />
   <line class="fil0 str2" x1="717" y1="2290" x2="1354" y2= "2290" />
   <line class="fil0 str2" x1="717" y1="2790" x2="1691" y2= "2790" />
   <line class="fil0 str2" x1="717" y1="2990" x2="1691" y2= "2990" />
   <g>
    <circle class="fil0 str0" cx="2837" cy="2272" r="754"/>
    <polyline class="fil0 str0" points="2837,1671 2837,2272 3250,2517 "/>
   </g>
  </g>
 </g>
</svg>
