<?xml version="1.0" encoding="UTF-8"?>
<!DOCTYPE svg PUBLIC "-//W3C//DTD SVG 1.1//EN" "http://www.w3.org/Graphics/SVG/1.1/DTD/svg11.dtd">
<!-- Creator: CorelDRAW X8 -->
<svg xmlns="http://www.w3.org/2000/svg" xml:space="preserve" width="37.8306mm" height="37.5mm" version="1.1" style="shape-rendering:geometricPrecision; text-rendering:geometricPrecision; image-rendering:optimizeQuality; fill-rule:evenodd; clip-rule:evenodd"
viewBox="0 0 3783 3750"
 xmlns:xlink="http://www.w3.org/1999/xlink">
 <defs>
  <style type="text/css">
   <![CDATA[
    .str1 {stroke:white;stroke-width:115.09}
    .str3 {stroke:white;stroke-width:32.51;stroke-linecap:round;stroke-linejoin:round}
    .str2 {stroke:white;stroke-width:32.51;stroke-linecap:round;stroke-linejoin:round}
    .str4 {stroke:white;stroke-width:32.51;stroke-linecap:round;stroke-linejoin:round}
    .str5 {stroke:white;stroke-width:32.51;stroke-linecap:round;stroke-linejoin:round}
    .str0 {stroke:white;stroke-width:115.09;stroke-linecap:round;stroke-linejoin:round}
    .str6 {stroke:white;stroke-width:115.09;stroke-linecap:round;stroke-linejoin:round}
    .fil0 {fill:none}
    .fil1 {fill:white;fill-rule:nonzero}
   ]]>
  </style>
 </defs>
 <g id="Capa_x0020_1">
  <metadata id="CorelCorpID_0Corel-Layer"/>
  <g id="_1228263504">
   <g>
    <g>
     <path class="fil0 str0" d="M2876 2691l0 137c0,66 -54,119 -120,119l-1108 0m-741 -1113l0 -818c0,-65 54,-119 120,-119l640 0 0 -70c0,-124 101,-224 225,-224 123,0 224,100 224,224l0 70 640 0c66,0 120,54 120,119l0 1665"/>
    </g>
    <g>
     <path class="fil0 str1" d="M1386 897l0 371c0,14 12,29 29,29l953 0c15,0 29,-14 29,-29l0 -371"/>
    </g>
    <g>
     <path class="fil1" d="M1625 1624c-20,0 -37,-16 -37,-36 0,-20 17,-36 37,-36l0 72zm919 0l-919 0 0 -72 919 0 0 72zm0 -72c20,0 36,16 36,36 0,20 -16,36 -36,36l0 -72z"/>
    </g>
    <g>
     <path class="fil1" d="M1625 1768c-20,0 -37,-16 -37,-36 0,-20 17,-36 37,-36l0 72zm919 0l-919 0 0 -72 919 0 0 72zm0 -72c20,0 36,16 36,36 0,20 -16,36 -36,36l0 -72z"/>
    </g>
    <g>
     <path class="fil1" d="M1625 2056c-20,0 -37,-16 -37,-36 0,-20 17,-36 37,-36l0 72zm919 0l-919 0 0 -72 919 0 0 72zm0 -72c20,0 36,16 36,36 0,20 -16,36 -36,36l0 -72z"/>
    </g>
    <g>
     <path class="fil1" d="M1625 2200c-20,0 -37,-17 -37,-36 0,-20 17,-36 37,-36l0 72zm919 0l-919 0 0 -72 919 0 0 72zm0 -72c20,0 36,16 36,36 0,19 -16,36 -36,36l0 -72z"/>
    </g>
    <g>
     <path class="fil1" d="M1625 2559c-20,0 -37,-16 -37,-36 0,-20 17,-36 37,-36l0 72zm919 0l-919 0 0 -72 919 0 0 72zm0 -72c20,0 36,16 36,36 0,20 -16,36 -36,36l0 -72z"/>
    </g>
    <g>
     <path class="fil1" d="M1625 2703c-20,0 -37,-16 -37,-36 0,-20 17,-36 37,-36l0 72zm919 0l-919 0 0 -72 919 0 0 72zm0 -72c20,0 36,16 36,36 0,20 -16,36 -36,36l0 -72z"/>
    </g>
    <g>
     <polyline class="fil0 str2" points="1220,1659 1307,1778 1474,1547 "/>
    </g>
    <g>
     <polyline class="fil0 str3" points="1220,2108 1307,2226 1474,1996 "/>
    </g>
    <g>
     <line class="fil0 str4" x1="1264" y1="2715" x2="1430" y2= "2485" />
    </g>
    <g>
     <line class="fil0 str5" x1="1430" y1="2715" x2="1264" y2= "2485" />
    </g>
    <g>
     <path class="fil0 str6" d="M907 2691l0 137c0,66 54,119 120,119l1108 0m741 -1113l0 -818c0,-65 -54,-119 -120,-119l-640 0 0 -70c0,-124 -101,-224 -224,-224 -124,0 -225,100 -225,224l0 70 -640 0c-66,0 -120,54 -120,119l0 1665"/>
    </g>
   </g>
   <g>
    <path class="fil1" d="M3732 1875l-190 0 0 0 -2 -85 -7 -84 -10 -82 -15 -82 -18 -79 -22 -79 -26 -76 -30 -75 -33 -73 -36 -71 -40 -69 -43 -67 -46 -65 -49 -62 -52 -60 -55 -57 -57 -55 -60 -52 -62 -49 -65 -46 -67 -43 -69 -40 -71 -36 -73 -33 -75 -30 -77 -26 -78 -22 -80 -18 -81 -15 -83 -10 -83 -7 -85 -2 0 -190 94 2 94 7 92 12 90 16 89 20 88 25 85 29 84 33 81 37 80 41 77 44 74 48 72 51 70 55 67 58 64 60 60 64 58 67 55 70 51 72 48 74 44 78 41 79 37 81 33 84 29 86 25 87 20 89 16 91 12 92 7 93 3 95 0 0zm-1840 1840l0 -190 0 0 85 -2 83 -7 83 -10 81 -15 80 -18 78 -22 77 -26 75 -30 73 -33 71 -36 69 -40 67 -43 65 -46 62 -49 60 -52 57 -55 55 -57 52 -60 49 -62 46 -65 43 -67 40 -69 36 -71 33 -73 30 -75 26 -76 22 -79 18 -79 15 -82 10 -82 7 -84 2 -85 190 0 -3 95 -7 93 -12 92 -16 91 -20 89 -25 87 -29 86 -33 84 -37 81 -41 79 -44 78 -48 74 -51 72 -55 70 -58 67 -60 64 -64 60 -67 58 -70 55 -72 51 -74 48 -77 44 -80 41 -81 37 -84 33 -85 29 -88 25 -89 20 -90 16 -92 12 -94 7 -94 2 0 0zm-1841 -1840l190 0 0 0 3 85 6 84 10 82 15 82 18 79 23 79 25 76 30 75 33 73 36 71 40 69 43 67 46 65 49 62 52 60 55 57 57 55 60 52 62 49 65 46 67 43 69 40 71 36 73 33 75 30 77 26 78 22 80 18 81 15 83 10 84 7 85 2 0 190 -95 -2 -93 -7 -93 -12 -90 -16 -89 -20 -88 -25 -85 -29 -84 -33 -81 -37 -79 -41 -78 -44 -74 -48 -72 -51 -70 -55 -67 -58 -63 -60 -61 -64 -58 -67 -55 -70 -51 -72 -48 -74 -44 -78 -41 -79 -37 -81 -33 -84 -29 -86 -25 -87 -20 -89 -16 -91 -12 -92 -7 -93 -3 -95 0 0zm1841 -1840l0 190 0 0 -85 2 -84 7 -83 10 -81 15 -80 18 -78 22 -77 26 -75 30 -73 33 -71 36 -69 40 -67 43 -65 46 -62 49 -60 52 -57 55 -55 57 -52 60 -49 62 -46 65 -43 67 -40 69 -36 71 -33 73 -30 75 -25 76 -23 79 -18 79 -15 82 -10 82 -6 84 -3 85 -190 0 3 -95 7 -93 12 -92 16 -91 20 -89 25 -87 29 -86 33 -84 37 -81 41 -79 44 -78 48 -74 51 -72 55 -70 58 -67 61 -64 63 -60 67 -58 70 -55 72 -51 74 -48 78 -44 79 -41 81 -37 84 -33 85 -29 88 -25 89 -20 90 -16 93 -12 93 -7 95 -2 0 0z"/>
   </g>
  </g>
 </g>
</svg>
