<?xml version="1.0" encoding="UTF-8"?>
<!DOCTYPE svg PUBLIC "-//W3C//DTD SVG 1.1//EN" "http://www.w3.org/Graphics/SVG/1.1/DTD/svg11.dtd">
<!-- Creator: CorelDRAW X8 -->
<svg xmlns="http://www.w3.org/2000/svg" xml:space="preserve" width="37.3306mm" height="37mm" version="1.1" style="shape-rendering:geometricPrecision; text-rendering:geometricPrecision; image-rendering:optimizeQuality; fill-rule:evenodd; clip-rule:evenodd"
viewBox="0 0 3733 3700"
 xmlns:xlink="http://www.w3.org/1999/xlink">
 <defs>
  <style type="text/css">
   <![CDATA[
    .str4 {stroke:black;stroke-width:7.62}
    .str0 {stroke:black;stroke-width:5.13}
    .str3 {stroke:black;stroke-width:107.77}
    .str2 {stroke:black;stroke-width:107.77;stroke-linecap:round;stroke-linejoin:round}
    .str1 {stroke:black;stroke-width:13.47;stroke-linecap:round;stroke-linejoin:round}
    .fil1 {fill:none}
    .fil2 {fill:black}
    .fil0 {fill:black;fill-rule:nonzero}
   ]]>
  </style>
 </defs>
 <g id="Capa_x0020_1">
  <metadata id="CorelCorpID_0Corel-Layer"/>
  <g>
   <path class="fil0" d="M3707 1850l-190 0 0 0 -2 -85 -7 -84 -10 -82 -15 -82 -18 -79 -22 -79 -26 -76 -30 -75 -33 -73 -36 -71 -40 -69 -43 -67 -46 -65 -49 -62 -52 -60 -55 -57 -57 -55 -60 -52 -62 -49 -65 -46 -67 -43 -69 -40 -71 -36 -73 -33 -75 -30 -77 -26 -78 -22 -80 -18 -81 -15 -83 -10 -83 -7 -85 -2 0 -190 94 2 93 7 93 12 90 16 89 20 88 25 85 29 84 33 81 37 80 41 77 44 74 48 72 51 70 55 67 58 64 60 60 64 58 67 55 70 51 72 48 74 44 78 41 79 37 81 33 84 29 86 25 87 20 89 16 91 12 92 7 93 3 95 0 0zm-1840 1840l0 -190 0 0 85 -2 83 -7 83 -10 81 -15 80 -18 78 -22 77 -26 75 -30 73 -33 71 -36 69 -40 67 -43 65 -46 62 -49 60 -52 57 -55 55 -57 52 -60 49 -62 46 -65 43 -67 40 -69 36 -71 33 -73 30 -75 26 -76 22 -79 18 -79 15 -82 10 -82 7 -84 2 -85 190 0 -3 95 -7 93 -12 92 -16 91 -20 89 -25 87 -29 86 -33 84 -37 81 -41 79 -44 78 -48 74 -51 72 -55 70 -58 67 -60 64 -64 60 -67 58 -70 55 -72 51 -74 48 -77 44 -80 41 -81 37 -84 33 -85 29 -88 25 -89 20 -90 16 -93 12 -93 7 -94 2 0 0zm-1841 -1840l190 0 0 0 3 85 6 84 10 82 15 82 18 79 23 79 25 76 30 75 33 73 36 71 40 69 43 67 46 65 49 62 52 60 55 57 57 55 60 52 62 49 65 46 67 43 69 40 71 36 73 33 75 30 77 26 78 22 80 18 81 15 83 10 83 7 86 2 0 190 -95 -2 -93 -7 -93 -12 -90 -16 -89 -20 -88 -25 -85 -29 -84 -33 -81 -37 -80 -41 -77 -44 -74 -48 -72 -51 -70 -55 -67 -58 -63 -60 -61 -64 -58 -67 -55 -70 -51 -72 -48 -74 -44 -78 -41 -79 -37 -81 -33 -84 -29 -86 -25 -87 -20 -89 -16 -91 -12 -92 -7 -93 -3 -95 0 0zm1841 -1840l0 190 0 0 -86 2 -83 7 -83 10 -81 15 -80 18 -78 22 -77 26 -75 30 -73 33 -71 36 -69 40 -67 43 -65 46 -62 49 -60 52 -57 55 -55 57 -52 60 -49 62 -46 65 -43 67 -40 69 -36 71 -33 73 -30 75 -25 76 -23 79 -18 79 -15 82 -10 82 -6 84 -3 85 -190 0 3 -95 7 -93 12 -92 16 -91 20 -89 25 -87 29 -86 33 -84 37 -81 41 -79 44 -78 48 -74 51 -72 55 -70 58 -67 61 -64 63 -60 67 -58 70 -55 72 -51 74 -48 77 -44 80 -41 81 -37 84 -33 85 -29 88 -25 89 -20 90 -16 93 -12 93 -7 95 -2 0 0z"/>
  </g>
  <g>
   <path class="fil1 str0" d="M1996 1613l-87 85c2,28 36,67 36,88 1,18 -13,29 -21,43 -22,38 1,35 -83,40 -25,1 -34,-2 -40,23 -28,119 -44,91 26,138 31,20 28,15 28,60 -1,43 9,42 -24,63 -68,44 -60,25 -40,100 19,72 1,60 76,66 52,4 31,-6 72,60 15,24 0,39 -24,87 -12,23 1,29 13,40 15,14 55,59 68,66 25,-2 70,-36 88,-37 9,0 32,16 41,21 41,24 35,9 40,84 1,28 -4,34 23,40 24,6 84,25 104,24 58,-89 44,-78 95,-78 46,0 41,-9 62,24 48,72 21,60 123,34 53,-13 36,-10 41,-65 2,-23 -1,-27 -13,-39 -10,-9 -17,-17 -27,-26 -19,-19 -36,-36 -54,-55 -32,-33 -24,-22 -77,-14 -333,48 -588,-341 -367,-633 50,-66 146,-139 270,-153 181,-19 332,82 402,226 24,51 39,113 37,177 -4,121 -38,72 40,149 46,46 55,70 92,67 65,-5 51,10 69,-63 19,-74 32,-55 -37,-101 -33,-22 -26,-13 -26,-61 0,-43 -6,-42 26,-62 15,-9 41,-24 52,-37 0,-15 -25,-112 -32,-121 -32,-13 -84,6 -105,-22 -7,-10 -15,-27 -23,-39 -22,-33 -1,-47 19,-86 11,-24 8,-29 -7,-44 -11,-11 -21,-20 -32,-31 -9,-10 -19,-26 -30,-33 -30,-18 -59,26 -90,30 -21,2 -33,-9 -46,-17 -11,-7 -32,-15 -36,-27 -3,-7 -5,-48 -5,-58 -2,-29 3,-34 -24,-40 -122,-29 -89,-48 -146,39 -9,14 -13,15 -35,15 -14,-1 -42,2 -54,0 -33,-5 -41,-86 -80,-77l-84 22c-30,7 -24,11 -28,80 -2,38 -3,23 -52,53 -13,8 -20,17 -38,9 -21,-9 -55,-32 -76,-34z"/>
   <path id="1" class="fil2" d="M1996 1613l-87 85c2,28 36,67 36,88 1,18 -13,29 -21,43 -22,38 1,35 -83,40 -25,1 -34,-2 -40,23 -28,119 -44,91 26,138 31,20 28,15 28,60 -1,43 9,42 -24,63 -68,44 -60,25 -40,100 19,72 1,60 76,66 52,4 31,-6 72,60 15,24 0,39 -24,87 -12,23 1,29 13,40 15,14 55,59 68,66 25,-2 70,-36 88,-37 9,0 32,16 41,21 41,24 35,9 40,84 1,28 -4,34 23,40 24,6 84,25 104,24 58,-89 44,-78 95,-78 46,0 41,-9 62,24 48,72 21,60 123,34 53,-13 36,-10 41,-65 2,-23 -1,-27 -13,-39 -10,-9 -17,-17 -27,-26 -19,-19 -36,-36 -54,-55 -32,-33 -24,-22 -77,-14 -333,48 -588,-341 -367,-633 50,-66 146,-139 270,-153 181,-19 332,82 402,226 24,51 39,113 37,177 -4,121 -38,72 40,149 46,46 55,70 92,67 65,-5 51,10 69,-63 19,-74 32,-55 -37,-101 -33,-22 -26,-13 -26,-61 0,-43 -6,-42 26,-62 15,-9 41,-24 52,-37 0,-15 -25,-112 -32,-121 -32,-13 -84,6 -105,-22 -7,-10 -15,-27 -23,-39 -22,-33 -1,-47 19,-86 11,-24 8,-29 -7,-44 -11,-11 -21,-20 -32,-31 -9,-10 -19,-26 -30,-33 -30,-18 -59,26 -90,30 -21,2 -33,-9 -46,-17 -11,-7 -32,-15 -36,-27 -3,-7 -5,-48 -5,-58 -2,-29 3,-34 -24,-40 -122,-29 -89,-48 -146,39 -9,14 -13,15 -35,15 -14,-1 -42,2 -54,0 -33,-5 -41,-86 -80,-77l-84 22c-30,7 -24,11 -28,80 -2,38 -3,23 -52,53 -13,8 -20,17 -38,9 -21,-9 -55,-32 -76,-34z"/>
  </g>
  <g>
   <path class="fil1 str1" d="M2326 1844c90,-25 189,-2 260,67 106,104 108,275 3,382 -104,107 -275,109 -382,5 -70,-69 -95,-167 -73,-256 3,-15 2,-15 11,-5l56 54 57 55 86 -5 86 -5 3 -86 4 -86 -57 -56 -56 -54c-9,-9 -10,-7 2,-10z"/>
   <path id="1" class="fil2" d="M2326 1844c90,-25 189,-2 260,67 106,104 108,275 3,382 -104,107 -275,109 -382,5 -70,-69 -95,-167 -73,-256 3,-15 2,-15 11,-5l56 54 57 55 86 -5 86 -5 3 -86 4 -86 -57 -56 -56 -54c-9,-9 -10,-7 2,-10z"/>
  </g>
  <g>
   <path class="fil0" d="M2605 2194l-114 116 -10 -9 114 -116 10 0 0 9zm-10 -9l5 -5 5 5 -10 0zm73 80l-73 -71 10 -9 72 71 0 9 -9 0zm9 -9l5 4 -5 5 0 -9zm-123 116l113 -116 10 9 -114 116 -9 0 0 -9zm9 9l-4 5 -5 -5 9 0zm-72 -80l72 71 -9 9 -73 -71 0 -9 10 0zm-10 9l-4 -4 4 -5 0 9z"/>
   <polygon id="1" class="fil2" points="2486,2306 2600,2189 2672,2260 2559,2377 "/>
  </g>
  <g>
   <path class="fil1 str2" d="M2561 2672l0 128c0,62 -50,112 -112,112l-1619 0c-61,0 -112,-50 -112,-112l0 -1696c0,-62 51,-112 112,-112l600 0 0 -65c0,-116 94,-211 210,-211 116,0 210,95 210,211l0 65 599 0c62,0 112,50 112,112l0 454"/>
  </g>
  <g>
   <path class="fil1 str3" d="M1166 992l0 348c0,13 12,27 27,27l893 0c14,0 27,-14 27,-27l0 -348"/>
  </g>
  <g>
   <path class="fil0" d="M1094 1673c-19,0 -34,-15 -34,-34 0,-18 15,-33 34,-33l0 67zm656 0l-656 0 0 -67 656 0 0 67zm0 -67c19,0 34,15 34,33 0,19 -15,34 -34,34l0 -67z"/>
  </g>
  <g>
   <path class="fil0" d="M1094 1808c-19,0 -34,-15 -34,-34 0,-19 15,-34 34,-34l0 68zm656 0l-656 0 0 -68 656 0 0 68zm0 -68c19,0 34,15 34,34 0,19 -15,34 -34,34l0 -68z"/>
  </g>
  <g>
   <path class="fil0" d="M1094 2077c-19,0 -34,-15 -34,-34 0,-18 15,-34 34,-34l0 68zm429 0l-429 0 0 -68 429 0 0 68zm0 -68c19,0 34,16 34,34 0,19 -15,34 -34,34l0 -68z"/>
  </g>
  <g>
   <path class="fil0" d="M1094 2212c-19,0 -34,-15 -34,-34 0,-19 15,-34 34,-34l0 68zm429 0l-429 0 0 -68 429 0 0 68zm0 -68c19,0 34,15 34,34 0,19 -15,34 -34,34l0 -68z"/>
  </g>
  <g>
   <path class="fil0" d="M1094 2548c-19,0 -34,-15 -34,-33 0,-19 15,-34 34,-34l0 67zm656 0l-656 0 0 -67 656 0 0 67zm0 -67c19,0 34,15 34,34 0,18 -15,33 -34,33l0 -67z"/>
  </g>
  <g>
   <path class="fil0" d="M1094 2683c-19,0 -34,-15 -34,-33 0,-19 15,-34 34,-34l0 67zm656 0l-656 0 0 -67 656 0 0 67zm0 -67c19,0 34,15 34,34 0,18 -15,33 -34,33l0 -67z"/>
  </g>
  <path class="fil2 str4" d="M2580 2398l114 -117 449 440c-33,37 -72,76 -114,116l-449 -439z"/>
 </g>
</svg>
