<?xml version="1.0" encoding="UTF-8"?>
<!DOCTYPE svg PUBLIC "-//W3C//DTD SVG 1.1//EN" "http://www.w3.org/Graphics/SVG/1.1/DTD/svg11.dtd">
<!-- Creator: CorelDRAW X8 -->
<svg xmlns="http://www.w3.org/2000/svg" xml:space="preserve" width="55mm" height="55mm" version="1.1" style="shape-rendering:geometricPrecision; text-rendering:geometricPrecision; image-rendering:optimizeQuality; fill-rule:evenodd; clip-rule:evenodd"
viewBox="0 0 5500 5500"
 xmlns:xlink="http://www.w3.org/1999/xlink">
 <defs>
  <style type="text/css">
   <![CDATA[
    .fil0 {fill:#626262}
   ]]>
  </style>
 </defs>
 <g id="Capa_x0020_1">
  <metadata id="CorelCorpID_0Corel-Layer"/>
  <g id="_1888732688320">
   <path class="fil0" d="M2651 245c0,0 2599,0 2599,0 0,0 0,2409 0,2409 0,523 -157,1012 -426,1421 -325,-19 -643,-34 -937,-45 0,0 837,-1164 837,-1164 76,-156 132,-338 -8,-617 0,0 -207,-321 -207,-321 0,0 -531,42 -531,42 23,260 -154,460 -391,460 -242,0 -390,-202 -390,-390 0,-219 165,-391 390,-391 0,0 332,0 332,0 0,0 427,-810 427,-810 -218,-136 -468,-216 -759,-219 -718,0 -1347,599 -1414,1285 -106,599 400,1163 1103,2108 -1417,79 -2682,290 -2682,537 0,276 1249,506 2910,559 -268,94 -556,146 -855,146 0,0 -2399,0 -2399,0 0,0 0,-2609 0,-2609 0,-1320 1080,-2401 2401,-2401 0,0 0,0 0,0z"/>
   <path class="fil0" d="M3883 4036c0,0 -132,184 -132,184 -42,71 -98,101 -164,104 -80,-9 -142,-42 -169,-117 -45,-62 -89,-122 -132,-180 -844,67 -1661,201 -1661,356 0,217 1113,394 2509,403 268,-188 500,-424 681,-697 -334,-22 -660,-39 -932,-53 0,0 0,0 0,0z"/>
   <path class="fil0" d="M4437 2089c0,0 -311,27 -311,27 -26,252 -262,468 -539,468 -294,0 -545,-225 -545,-544 0,-382 346,-545 545,-545 0,0 243,-3 243,-3 0,0 310,-588 310,-588 -193,-124 -307,-119 -565,-122 -636,0 -1251,568 -1251,1174 -101,583 545,1214 1231,2186 18,19 16,23 32,25 15,0 15,-6 28,-20 0,0 965,-1313 965,-1313 68,-142 117,-259 -6,-514 0,0 -137,-231 -137,-231z"/>
  </g>
 </g>
</svg>
