<?xml version="1.0" encoding="utf-8"?>
<!-- Generator: Adobe Illustrator 24.1.0, SVG Export Plug-In . SVG Version: 6.00 Build 0)  -->
<svg version="1.1" id="Capa_1" xmlns="http://www.w3.org/2000/svg" xmlns:xlink="http://www.w3.org/1999/xlink" x="0px" y="0px"
	 viewBox="0 0 142.27 142.53" style="enable-background:new 0 0 142.27 142.53;" xml:space="preserve">
<style type="text/css">
	.st0{fill-rule:evenodd;clip-rule:evenodd;fill:url(#SVGID_1_);}
</style>
<linearGradient id="SVGID_1_" gradientUnits="userSpaceOnUse" x1="3.4325" y1="71.5763" x2="148.6118" y2="70.8749">
	<stop  offset="0" style="stop-color:#06A7E0"/>
	<stop  offset="1" style="stop-color:#18154E"/>
</linearGradient>
<path class="st0" d="M68.32,0.03h73.92v68.5c0,14.89-4.46,28.79-12.12,40.43c-9.24-0.54-18.3-0.97-26.65-1.28l23.79-33.13
	c2.16-4.42,3.76-9.6-0.2-17.52l-5.89-9.14l-15.11,1.2c0.66,7.39-4.38,13.08-11.12,13.08c-6.87,0-11.1-5.76-11.1-11.1
	c0-6.21,4.7-11.1,11.1-11.1l9.44,0l12.15-23.04c-6.21-3.88-13.3-6.15-21.59-6.25c-20.43,0-38.3,17.05-40.21,36.56
	c-3.03,17.03,11.36,33.09,31.36,59.97c-40.3,2.25-76.28,8.24-76.28,15.27c0,7.83,35.53,14.37,82.78,15.89
	c-7.63,2.68-15.81,4.14-24.32,4.14H0.03V68.31C0.03,30.75,30.76,0.03,68.32,0.03L68.32,0.03z M103.36,107.85l-3.75,5.23
	c-1.19,2.02-2.79,2.87-4.65,2.97c-2.29-0.26-4.05-1.2-4.81-3.35c-1.28-1.75-2.54-3.46-3.77-5.12c-23.99,1.92-47.24,5.74-47.24,10.14
	c0,6.17,31.67,11.21,71.36,11.46c7.63-5.34,14.22-12.07,19.38-19.83C120.36,108.73,111.1,108.23,103.36,107.85L103.36,107.85z
	 M119.12,52.47l-8.84,0.77c-0.75,7.16-7.46,13.31-15.34,13.31c-8.36,0-15.49-6.42-15.49-15.49c0-10.87,9.83-15.49,15.49-15.49
	l6.9-0.1l8.82-16.71c-5.49-3.55-8.74-3.39-16.07-3.49c-18.08,0-35.58,16.16-35.58,33.4c-2.86,16.59,15.51,34.54,35.03,62.17
	c0.49,0.53,0.44,0.65,0.91,0.7c0.43,0,0.42-0.16,0.79-0.55l27.45-37.36c1.91-4.04,3.33-7.36-0.18-14.6L119.12,52.47z"/>
</svg>
