<?xml version="1.0" encoding="utf-8"?>
<!-- Generator: Adobe Illustrator 25.2.1, SVG Export Plug-In . SVG Version: 6.00 Build 0)  -->
<svg version="1.1" xmlns="http://www.w3.org/2000/svg" xmlns:xlink="http://www.w3.org/1999/xlink" x="0px" y="0px"
	 viewBox="0 0 100 100" style="enable-background:new 0 0 100 100;" xml:space="preserve">
<style type="text/css">
	.st0{fill:none;stroke:#000000;stroke-width:5;stroke-linecap:round;stroke-linejoin:round;stroke-miterlimit:10;}
	.st1{fill:none;stroke:#000000;stroke-width:5;stroke-miterlimit:10;}
</style>
<g id="Capa_1">
</g>
<g id="Capa_2">
	<path class="st0" d="M88.75,77.63c-12.1,11.22-21.84,13.19-39.31,13.19c-7.68,0-30.25,0-38.19-13.72"/>
	<path class="st1" d="M70.19,30.41c-0.25,11.4-9.96,20.34-20.87,20.28c-10.83-0.06-20.39-8.98-20.63-20.28
		C28.44,18.75,38.18,9.18,49.44,9.18C60.69,9.18,70.45,18.73,70.19,30.41z"/>
	<path class="st0" d="M11.25,77.11C17.11,65.01,23.46,61.22,28.18,60c6.87-1.78,9.53,2.06,21.54,1.97
		c11.95-0.08,14.34-3.19,21.37-2.3c5.2,0.66,11.39,4.83,17.67,17.17"/>
</g>
</svg>
