<?xml version="1.0" encoding="UTF-8"?>
<!DOCTYPE svg PUBLIC "-//W3C//DTD SVG 1.1//EN" "http://www.w3.org/Graphics/SVG/1.1/DTD/svg11.dtd">
<!-- Creator: CorelDRAW X8 -->
<svg xmlns="http://www.w3.org/2000/svg" xml:space="preserve" width="52mm" height="52mm" version="1.1" style="shape-rendering:geometricPrecision; text-rendering:geometricPrecision; image-rendering:optimizeQuality; fill-rule:evenodd; clip-rule:evenodd"
viewBox="0 0 5200 5200"
 xmlns:xlink="http://www.w3.org/1999/xlink">
 <defs>
  <style type="text/css">
   <![CDATA[
    .str0 {stroke:#495C80;stroke-width:150;stroke-linecap:round;stroke-linejoin:round}
    .fil1 {fill:#FEFEFE}
    .fil0 {fill:#495C80;fill-rule:nonzero}
   ]]>
  </style>
 </defs>
 <g id="Capa_x0020_1">
  <metadata id="CorelCorpID_0Corel-Layer"/>
  <g>
   <path class="fil0" d="M3739 3781c34,-43 97,-50 141,-16 43,34 50,97 16,140l-157 -124zm-1485 917l0 -200 0 0 54 0 54 -3 53 -4 54 -5 53 -7 53 -8 52 -10 52 -11 52 -13 51 -14 51 -15 50 -17 50 -18 49 -20 48 -21 48 -22 48 -24 46 -25 46 -26 45 -28 45 -28 44 -31 42 -31 42 -32 42 -34 40 -35 39 -36 39 -38 37 -38 37 -40 35 -41 34 -42 157 124 -38 46 -39 45 -40 44 -42 43 -42 41 -44 40 -44 39 -46 37 -46 36 -47 35 -49 33 -49 32 -50 30 -51 29 -51 28 -53 26 -53 25 -53 23 -55 22 -55 20 -55 18 -56 18 -57 15 -57 14 -57 13 -58 10 -59 10 -59 7 -59 6 -59 4 -60 3 -59 1 0 0zm-2098 -2098l200 0 0 0 2 98 7 96 12 95 17 94 21 92 26 90 30 88 34 86 38 84 42 82 45 79 50 77 53 75 56 72 60 69 63 65 66 63 68 60 72 56 75 53 77 50 79 45 82 42 84 38 86 34 88 30 90 26 92 21 93 16 95 13 97 7 98 2 0 200 -108 -3 -107 -8 -105 -14 -103 -18 -102 -23 -99 -29 -98 -33 -95 -37 -93 -42 -91 -47 -88 -50 -85 -55 -82 -58 -79 -63 -76 -65 -73 -70 -70 -73 -65 -76 -63 -79 -58 -82 -55 -85 -50 -88 -47 -91 -42 -93 -37 -95 -33 -97 -28 -100 -24 -101 -18 -104 -14 -105 -8 -106 -2 -108 0 0zm2098 -2098l0 200 0 0 -98 2 -97 7 -95 13 -93 16 -92 21 -90 26 -88 30 -86 34 -84 38 -82 42 -79 45 -77 50 -75 53 -72 56 -68 60 -66 63 -63 65 -60 69 -56 72 -53 75 -50 77 -45 79 -42 82 -38 84 -34 86 -30 88 -26 90 -21 92 -17 94 -12 95 -7 96 -2 98 -200 0 2 -108 8 -106 14 -105 18 -104 24 -101 28 -100 33 -97 37 -95 42 -93 47 -91 50 -88 55 -85 58 -82 63 -79 65 -76 70 -73 73 -69 76 -66 79 -63 82 -58 85 -55 88 -50 91 -47 93 -42 95 -37 98 -33 99 -28 102 -24 103 -18 105 -14 107 -8 108 -3 0 0zm2097 2098l-200 0 0 0 -2 -98 -7 -96 -12 -95 -17 -94 -21 -92 -26 -90 -30 -88 -34 -86 -38 -84 -42 -82 -45 -79 -50 -77 -53 -75 -56 -72 -60 -69 -63 -65 -66 -63 -68 -60 -72 -56 -75 -53 -77 -50 -79 -45 -82 -42 -84 -38 -86 -34 -88 -30 -90 -26 -92 -21 -93 -16 -95 -13 -97 -7 -97 -2 0 -200 107 3 107 8 105 14 103 18 102 24 99 28 98 33 95 37 93 42 91 47 88 50 85 55 82 58 79 63 76 66 73 69 70 73 66 76 62 79 58 82 55 85 50 88 47 91 42 93 37 95 33 97 28 100 24 101 18 104 14 105 8 106 2 108 0 0zm-3 118l-200 -11 1 -3 0 -4 0 -3 0 -3 0 -4 0 -3 1 -3 0 -4 0 -3 0 -3 0 -4 0 -3 0 -4 1 -3 0 -3 0 -3 0 -4 0 -3 0 -3 0 -4 0 -3 0 -4 0 -3 0 -3 0 -4 0 -3 0 -3 0 -4 0 -3 0 -3 0 -4 0 -3 200 0 0 4 0 3 0 4 0 4 0 3 0 4 0 4 0 4 0 3 0 4 0 4 0 3 0 4 0 4 0 3 0 4 0 4 -1 3 0 4 0 4 0 4 0 3 0 4 0 4 -1 3 0 4 0 4 0 3 0 4 0 4 -1 3 0 4zm0 0c-3,55 -50,97 -105,94 -55,-3 -98,-50 -95,-105l200 11z"/>
  </g>
  <g>
   <path class="fil0" d="M3109 2319l-200 0 0 0 -1 -33 -3 -34 -4 -33 -6 -32 -7 -32 -9 -31 -10 -30 -12 -30 -13 -29 -14 -28 -16 -28 -17 -26 -19 -26 -19 -25 -21 -23 -21 -23 -23 -22 -24 -21 -25 -19 -25 -18 -27 -17 -27 -16 -29 -15 -29 -13 -29 -11 -31 -11 -31 -9 -31 -7 -33 -6 -32 -4 -34 -2 -33 -1 0 -199 43 1 44 3 43 6 42 7 41 10 41 11 40 14 39 15 37 17 37 19 36 21 35 22 33 24 33 25 31 27 29 28 29 30 26 31 26 32 24 34 22 34 20 36 19 37 17 38 16 39 13 39 12 41 9 41 8 42 5 43 4 43 1 44 0 0zm-855 855l0 -199 0 0 33 -1 34 -3 32 -4 33 -5 31 -8 31 -9 31 -10 29 -12 29 -13 29 -14 27 -16 27 -17 25 -18 25 -20 24 -20 23 -22 21 -23 21 -24 19 -24 19 -26 17 -27 16 -27 14 -28 13 -29 12 -30 10 -31 9 -31 7 -31 6 -33 4 -32 3 -34 1 -34 200 0 -1 44 -4 44 -5 42 -8 42 -9 42 -12 40 -13 40 -16 39 -17 38 -19 37 -20 35 -22 35 -24 34 -26 32 -26 31 -29 30 -29 28 -31 27 -33 25 -33 24 -35 22 -36 21 -37 19 -37 17 -39 15 -40 14 -41 11 -41 10 -42 7 -43 6 -44 3 -43 1 0 0zm-856 -855l200 0 0 0 1 34 3 34 4 32 6 33 7 31 9 31 10 31 12 30 13 29 15 28 15 27 17 27 19 26 19 24 21 24 21 23 23 22 24 20 25 20 25 18 27 17 27 16 29 14 29 13 29 12 31 10 31 9 31 8 33 5 32 4 34 3 34 1 0 199 -44 -1 -44 -3 -43 -6 -42 -7 -41 -10 -41 -11 -40 -14 -38 -15 -38 -17 -37 -19 -36 -21 -35 -22 -33 -24 -33 -25 -31 -27 -29 -28 -29 -30 -26 -31 -26 -32 -24 -34 -22 -35 -20 -35 -19 -37 -17 -38 -16 -39 -13 -40 -12 -40 -9 -42 -8 -42 -5 -42 -3 -44 -2 -44 0 0zm856 -854l0 199 0 0 -34 1 -34 2 -32 4 -33 6 -31 7 -31 9 -31 11 -29 11 -29 13 -29 15 -27 16 -27 17 -25 18 -25 19 -24 21 -23 22 -21 23 -21 23 -19 25 -19 26 -17 26 -15 28 -15 28 -13 29 -12 30 -10 30 -9 31 -7 32 -6 32 -4 33 -3 34 -1 33 -200 0 2 -44 3 -43 5 -43 8 -42 9 -41 12 -41 13 -39 16 -39 17 -38 19 -37 20 -36 22 -34 24 -34 26 -32 26 -31 29 -30 29 -28 31 -27 33 -25 33 -24 35 -22 36 -21 37 -19 38 -17 38 -15 40 -14 41 -11 41 -10 42 -7 43 -6 44 -3 44 -1 0 0z"/>
  </g>
  <g>
   <path class="fil0" d="M791 3870c-29,47 -91,61 -138,32 -47,-29 -62,-91 -32,-138l170 106zm1463 -897l0 200 0 0 -59 1 -59 3 -58 4 -58 5 -57 7 -57 9 -55 10 -56 11 -54 13 -54 15 -53 15 -52 17 -51 19 -51 20 -49 21 -48 22 -47 23 -46 25 -45 26 -43 27 -43 28 -41 30 -39 30 -38 31 -37 33 -35 33 -34 34 -32 36 -30 36 -29 37 -27 38 -26 38 -170 -106 30 -45 32 -45 33 -43 36 -42 37 -41 39 -39 40 -39 42 -37 44 -35 45 -35 46 -33 48 -32 48 -30 51 -29 51 -28 53 -26 53 -25 55 -23 56 -22 56 -21 58 -18 58 -18 59 -16 60 -14 61 -12 62 -12 62 -9 62 -8 63 -6 64 -4 64 -3 65 -1 0 0zm1649 818l-173 102 -25 -40 -27 -39 -28 -38 -30 -37 -32 -36 -34 -36 -35 -34 -36 -34 -39 -32 -39 -31 -41 -30 -43 -30 -44 -27 -45 -27 -46 -26 -48 -24 -48 -23 -50 -22 -51 -20 -52 -19 -53 -18 -54 -16 -54 -15 -56 -14 -56 -12 -57 -10 -58 -9 -58 -7 -58 -6 -60 -4 -59 -3 -60 -1 0 -200 65 1 66 3 64 5 65 6 63 8 64 10 62 11 62 13 61 15 60 16 59 18 59 20 57 21 57 23 55 24 54 26 53 27 52 28 51 30 49 32 48 33 47 34 45 36 44 36 42 39 40 39 39 41 37 42 35 44 33 44 31 46 30 47zm0 0c28,48 12,109 -36,137 -47,28 -109,12 -137,-35l173 -102z"/>
  </g>
  <path class="fil1 str0" d="M4617 2673l165 165 -113 175c32,54 57,113 72,175l203 44 0 233 -203 44c-15,62 -40,121 -72,175l113 174 -165 165 -175 -112c-54,32 -113,56 -175,72l-44 203 -233 0 -44 -203c-62,-16 -121,-40 -175,-72l-174 112 -165 -165 112 -174c-32,-54 -56,-113 -72,-175l-203 -44 0 -233 203 -44c16,-62 40,-121 72,-175l-112 -175 165 -165 174 113c54,-32 113,-57 175,-72l44 -204 233 0 44 204c62,15 121,40 175,72l175 -113zm-510 269c224,0 405,182 405,406 0,225 -181,406 -405,406 -225,0 -406,-181 -406,-406 0,-224 181,-406 406,-406z"/>
 </g>
</svg>
