<?xml version="1.0" encoding="UTF-8"?>
<!DOCTYPE svg PUBLIC "-//W3C//DTD SVG 1.1//EN" "http://www.w3.org/Graphics/SVG/1.1/DTD/svg11.dtd">
<!-- Creator: CorelDRAW X8 -->
<svg xmlns="http://www.w3.org/2000/svg" xml:space="preserve" width="44mm" height="42mm" version="1.1" style="shape-rendering:geometricPrecision; text-rendering:geometricPrecision; image-rendering:optimizeQuality; fill-rule:evenodd; clip-rule:evenodd"
viewBox="0 0 4400 4200"
 xmlns:xlink="http://www.w3.org/1999/xlink">
 <defs>
  <style type="text/css">
   <![CDATA[
    .str0 {stroke:#373435;stroke-width:12.23}
    .fil0 {fill:none}
    .fil1 {fill:#373435}
    .fil3 {fill:#F58634}
    .fil2 {fill:#F58634;fill-rule:nonzero}
   ]]>
  </style>
 </defs>
 <g id="Capa_x0020_1">
  <metadata id="CorelCorpID_0Corel-Layer"/>
  <g id="_1045589056">
   <g>
    <path class="fil0 str0" d="M538 190l3324 0c247,0 448,202 448,448l0 450 -352 0c-68,0 -123,56 -123,123l0 1770c0,67 55,122 123,122l352 0 0 459c0,246 -201,448 -448,448l-3324 0c-247,0 -448,-202 -448,-448l0 -459 352 0c68,0 123,-55 123,-122l0 -1770c0,-67 -55,-123 -123,-123l-352 0 0 -450c0,-246 201,-448 448,-448zm2213 3159l367 0 0 367 -367 0 0 -367zm734 0l367 0 0 367 -367 0 0 -367zm-2936 0l367 0 0 367 -367 0 0 -367zm734 0l367 0 0 367 -367 0 0 -367zm734 0l367 0 0 367 -367 0 0 -367zm734 -2498l367 0 0 -367 -367 0 0 367zm734 0l367 0 0 -367 -367 0 0 367zm-2936 0l367 0 0 -367 -367 0 0 367zm734 0l367 0 0 -367 -367 0 0 367zm734 0l367 0 0 -367 -367 0 0 367zm-961 237l2288 0c67,0 122,56 122,123l0 1770c0,67 -55,122 -122,122l-2288 0c-67,0 -122,-55 -122,-122l0 -1770c0,-67 55,-123 122,-123z"/>
    <path id="1" class="fil1" d="M538 190l3324 0c247,0 448,202 448,448l0 450 -352 0c-68,0 -123,56 -123,123l0 1770c0,67 55,122 123,122l352 0 0 459c0,246 -201,448 -448,448l-3324 0c-247,0 -448,-202 -448,-448l0 -459 352 0c68,0 123,-55 123,-122l0 -1770c0,-67 -55,-123 -123,-123l-352 0 0 -450c0,-246 201,-448 448,-448zm2213 3159l367 0 0 367 -367 0 0 -367zm734 0l367 0 0 367 -367 0 0 -367zm-2936 0l367 0 0 367 -367 0 0 -367zm734 0l367 0 0 367 -367 0 0 -367zm734 0l367 0 0 367 -367 0 0 -367zm734 -2498l367 0 0 -367 -367 0 0 367zm734 0l367 0 0 -367 -367 0 0 367zm-2936 0l367 0 0 -367 -367 0 0 367zm734 0l367 0 0 -367 -367 0 0 367zm734 0l367 0 0 -367 -367 0 0 367zm-961 237l2288 0c67,0 122,56 122,123l0 1770c0,67 -55,122 -122,122l-2288 0c-67,0 -122,-55 -122,-122l0 -1770c0,-67 55,-123 122,-123z"/>
   </g>
   <g>
    <path class="fil2" d="M2209 2305l575 -322 119 215 -575 322 -119 -215zm119 215c-59,33 -133,12 -166,-47 -33,-60 -12,-135 47,-168l119 215zm-693 108l574 -323 119 215 -574 323 -182 -108 63 -107zm119 215c-59,33 -134,11 -167,-48 -33,-59 -11,-134 48,-167l119 215zm63 -753l0 645 -245 0 0 -645 0 0 245 0zm-245 0c0,-68 55,-123 122,-123 68,0 123,55 123,123l-245 0zm245 -645l0 645 -245 0 0 -645 182 -107 63 107zm-245 0c0,-68 55,-123 122,-123 68,0 123,55 123,123l-245 0zm637 430l-574 -322 119 -215 574 322 0 0 -119 215zm119 -215c60,33 81,108 48,168 -33,59 -108,80 -167,47l119 -215zm456 538l-575 -323 119 -215 575 323 0 215 -119 0zm119 -215c59,33 80,108 48,167 -33,60 -108,81 -167,48l119 -215z"/>
    <polygon id="1" class="fil3" points="2844,2090 2269,2413 1694,2735 1694,2090 1694,1445 2269,1768 "/>
   </g>
  </g>
 </g>
</svg>
