<?xml version="1.0" encoding="UTF-8"?>
<!DOCTYPE svg PUBLIC "-//W3C//DTD SVG 1.1//EN" "http://www.w3.org/Graphics/SVG/1.1/DTD/svg11.dtd">
<!-- Creator: CorelDRAW X8 -->
<svg xmlns="http://www.w3.org/2000/svg" xml:space="preserve" width="66.4mm" height="56mm" version="1.1" style="shape-rendering:geometricPrecision; text-rendering:geometricPrecision; image-rendering:optimizeQuality; fill-rule:evenodd; clip-rule:evenodd"
viewBox="0 0 6640 5600"
 xmlns:xlink="http://www.w3.org/1999/xlink">
 <defs>
  <style type="text/css">
   <![CDATA[
    .str1 {stroke:black;stroke-width:50}
    .str0 {stroke:#6B6A6A;stroke-width:50}
    .fil0 {fill:#6B6A6A}
    .fil2 {fill:#FFE500}
    .fil1 {fill:#FFE500}
   ]]>
  </style>
    <clipPath id="id0">
     <path d="M5619 1336l584 0 0 151 -584 0 0 -151z"/>
    </clipPath>
    <clipPath id="id1">
     <path d="M3532 1336l583 0 0 151 -583 0 0 -151z"/>
    </clipPath>
    <clipPath id="id2">
     <path d="M5619 1336l584 0 0 151 -584 0 0 -151z"/>
    </clipPath>
    <clipPath id="id3">
     <path d="M3532 1336l583 0 0 151 -583 0 0 -151z"/>
    </clipPath>
      <clipPath id="id4">
       <path d="M4025 206l536 0 0 208 -536 0 0 -208z"/>
      </clipPath>
      <clipPath id="id5">
       <path d="M1938 206l535 0 0 208 -535 0 0 -208z"/>
      </clipPath>
      <clipPath id="id6">
       <path d="M4025 206l536 0 0 208 -536 0 0 -208z"/>
      </clipPath>
 </defs>
 <g id="Capa_x0020_1">
  <metadata id="CorelCorpID_0Corel-Layer"/>
  <g id="_1491672606480">
   <g style="clip-path:url(#id0)">
    <image x="5619" y="1336" width="584" height="150" xlink:href="0852-luminaria-4ab31d2a-248d-46cd-b4d1-58f3bc6ace49_Images\0852-luminaria-4ab31d2a-248d-46cd-b4d1-58f3bc6ace49_ImgID1.png"/>
   </g>
  </g>
  <path class="fil0 str0" d="M5996 1444l-307 0c-36,0 -36,-29 -1,-65l0 0 438 0 0 0c-36,36 -94,65 -130,65z"/>
  <g id="_1491672607664">
   <g style="clip-path:url(#id1)">
    <image x="3532" y="1336" width="584" height="150" xlink:href="0852-luminaria-4ab31d2a-248d-46cd-b4d1-58f3bc6ace49_Images\0852-luminaria-4ab31d2a-248d-46cd-b4d1-58f3bc6ace49_ImgID2.png"/>
   </g>
  </g>
  <path class="fil0 str0" d="M3601 1444l307 0c36,0 95,-29 130,-65l0 0 -437 0 0 0c-36,36 -36,65 0,65z"/>
  <path class="fil0 str0" d="M4726 1517c0,0 1,0 1,0l73 0 734 -229 146 0 -2 2c12,-12 38,-21 58,-21l485 0c20,0 27,10 15,22l-43 43 -558 0 -147 0 -734 229 -962 973c38,14 43,45 8,80l-359 364c-24,24 -77,44 -118,44l-13 0 -147 0 -13 0c-41,0 -54,-20 -30,-44l359 -364c35,-35 101,-66 167,-80l961 -973 -280 -229 -147 0 -559 0 43 -43c12,-12 39,-22 59,-22l485 0c20,0 27,9 16,21l2 -2 147 0 280 229 73 0z"/>
  <g id="_1491285652976">
   <g style="clip-path:url(#id2)">
    <image x="5619" y="1336" width="584" height="150" xlink:href="0852-luminaria-4ab31d2a-248d-46cd-b4d1-58f3bc6ace49_Images\0852-luminaria-4ab31d2a-248d-46cd-b4d1-58f3bc6ace49_ImgID3.png"/>
   </g>
  </g>
  <path class="fil0 str0" d="M5996 1444l-307 0c-36,0 -36,-29 -1,-65l0 0 438 0 0 0c-36,36 -94,65 -130,65z"/>
  <g id="_1491285651600">
   <g style="clip-path:url(#id3)">
    <image x="3532" y="1336" width="584" height="150" xlink:href="0852-luminaria-4ab31d2a-248d-46cd-b4d1-58f3bc6ace49_Images\0852-luminaria-4ab31d2a-248d-46cd-b4d1-58f3bc6ace49_ImgID4.png"/>
   </g>
  </g>
  <path class="fil0 str0" d="M3601 1444l307 0c36,0 95,-29 130,-65l0 0 -437 0 0 0c-36,36 -36,65 0,65z"/>
  <path class="fil0 str0" d="M4726 1517c0,0 1,0 1,0l73 0 734 -229 146 0 -2 2c12,-12 38,-21 58,-21l485 0c20,0 27,10 15,22l-43 43 -558 0 -147 0 -734 229 -962 973c38,14 43,45 8,80l-359 364c-24,24 -77,44 -118,44l-13 0 -147 0 -13 0c-41,0 -54,-20 -30,-44l359 -364c35,-35 101,-66 167,-80l961 -973 -280 -229 -147 0 -559 0 43 -43c12,-12 39,-22 59,-22l485 0c20,0 27,9 16,21l2 -2 147 0 280 229 73 0z"/>
  <g id="_1491285658832">
   <g>
    <g>
     <g style="clip-path:url(#id4)">
      <image x="4025" y="206" width="536" height="208" xlink:href="0852-luminaria-4ab31d2a-248d-46cd-b4d1-58f3bc6ace49_Images\0852-luminaria-4ab31d2a-248d-46cd-b4d1-58f3bc6ace49_ImgID5.png"/>
     </g>
    </g>
    <path class="fil1 str1" d="M4402 365l-217 0c-61,0 -111,-50 -111,-110l0 0 438 0 0 0c0,60 -49,110 -110,110z"/>
    <g>
     <g style="clip-path:url(#id5)">
      <image x="1938" y="206" width="536" height="208" xlink:href="0852-luminaria-4ab31d2a-248d-46cd-b4d1-58f3bc6ace49_Images\0852-luminaria-4ab31d2a-248d-46cd-b4d1-58f3bc6ace49_ImgID6.png"/>
     </g>
    </g>
    <path class="fil2 str1" d="M2097 365l217 0c61,0 110,-50 110,-110l0 0 -437 0 0 0c0,60 49,110 110,110z"/>
    <g>
     <g style="clip-path:url(#id6)">
      <image x="4025" y="206" width="536" height="208" xlink:href="0852-luminaria-4ab31d2a-248d-46cd-b4d1-58f3bc6ace49_Images\0852-luminaria-4ab31d2a-248d-46cd-b4d1-58f3bc6ace49_ImgID7.png"/>
     </g>
    </g>
    <path class="fil1 str1" d="M4402 365l-217 0c-61,0 -111,-50 -111,-110l0 0 438 0 0 0c0,60 -49,110 -110,110z"/>
   </g>
   <path class="fil1 str1" d="M3248 487c1,0 2,0 2,0l73 0 507 -385 147 0 0 3c0,-19 17,-36 37,-36l484 0c21,0 38,17 38,38l0 73 -559 0 -147 0 -507 385 0 1638c51,23 87,75 87,135l0 611c0,41 -34,75 -74,75l-13 0 -147 0 -13 0c-41,0 -74,-34 -74,-75l0 -611c0,-60 36,-112 87,-135l0 -1638 -507 -385 -147 0 -559 0 0 -73c0,-21 17,-38 37,-38l485 0c20,0 37,17 37,36l0 -3 147 0 507 385 72 0z"/>
  </g>
 </g>
</svg>
