<?xml version="1.0" encoding="UTF-8"?>
<!DOCTYPE svg PUBLIC "-//W3C//DTD SVG 1.1//EN" "http://www.w3.org/Graphics/SVG/1.1/DTD/svg11.dtd">
<!-- Creator: CorelDRAW X8 -->
<svg xmlns="http://www.w3.org/2000/svg" xml:space="preserve" width="45mm" height="45mm" version="1.1" style="shape-rendering:geometricPrecision; text-rendering:geometricPrecision; image-rendering:optimizeQuality; fill-rule:evenodd; clip-rule:evenodd"
viewBox="0 0 4500 4500"
 xmlns:xlink="http://www.w3.org/1999/xlink">
 <defs>
  <style type="text/css">
   <![CDATA[
    .fil1 {fill:#0B1D2C}
    .fil0 {fill:#0B1D2C;fill-rule:nonzero}
   ]]>
  </style>
 </defs>
 <g id="Capa_x0020_1">
  <metadata id="CorelCorpID_0Corel-Layer"/>
  <g id="_2609940042976">
   <g>
    <path class="fil0" d="M1886 4300l0 -2104 202 0 0 2104 -101 101 -101 -101zm202 0c0,56 -45,101 -101,101 -56,0 -101,-45 -101,-101l202 0zm-1732 -101l1631 0 0 202 -1631 0 -102 -101 102 -101zm0 202c-56,0 -102,-45 -102,-101 0,-56 46,-101 102,-101l0 202zm101 -1550l0 1449 -203 0 0 -1449 64 -94 139 94zm-203 0c0,-56 46,-101 102,-101 56,0 101,45 101,101l-203 0zm1771 -561l-1632 655 -75 -188 1631 -655 139 94 -63 94zm-76 -188c52,-21 111,5 132,57 21,52 -4,111 -56,131l-76 -188z"/>
   </g>
   <g>
    <path class="fil0" d="M4043 4300l0 -4100 203 0 0 4100 -102 101 -101 -101zm203 0c0,56 -46,101 -102,101 -56,0 -101,-45 -101,-101l203 0zm-831 -101l729 0 0 202 -729 0 -102 -101 102 -101zm0 202c-56,0 -102,-45 -102,-101 0,-56 46,-101 102,-101l0 202zm101 -788l0 687 -203 0 0 -687 102 -101 101 101zm-203 0c0,-56 46,-101 102,-101 56,0 101,45 101,101l-203 0zm-596 -101l698 0 0 203 -698 0 -102 -102 102 -101zm0 203c-56,0 -102,-46 -102,-102 0,-56 46,-101 102,-101l0 203zm-102 585l0 -687 203 0 0 687 -101 101 -102 -101zm203 0c0,56 -45,101 -101,101 -56,0 -102,-45 -102,-101l203 0zm-831 -101l730 0 0 202 -730 0 -101 -101 101 -101zm0 202c-56,0 -101,-45 -101,-101 0,-56 45,-101 101,-101l0 202zm101 -3117l0 3016 -202 0 0 -3016 56 -91 146 91zm-202 0c0,-56 45,-101 101,-101 56,0 101,45 101,101l-202 0zm2304 -993l-2157 1084 -91 -182 2157 -1084 147 91 -56 91zm-91 -182c50,-25 111,-5 136,45 25,51 5,111 -45,137l-91 -182z"/>
   </g>
   <g>
    <path class="fil0" d="M3843 1337l-403 0 0 -41 403 0 20 20 -20 21zm0 -41c11,0 20,9 20,20 0,11 -9,21 -20,21l0 -41zm20 -323l0 343 -41 0 0 -343 21 -20 20 20zm-41 0c0,-11 9,-20 21,-20 11,0 20,9 20,20l-41 0zm-382 -20l403 0 0 40 -403 0 -20 -20 20 -20zm0 40c-11,0 -20,-9 -20,-20 0,-11 9,-20 20,-20l0 40zm-20 323l0 -343 40 0 0 343 -20 21 -20 -21zm40 0c0,11 -9,21 -20,21 -11,0 -20,-10 -20,-21l40 0z"/>
    <polygon id="1" class="fil1" points="3440,1316 3843,1316 3843,973 3440,973 "/>
   </g>
   <g>
    <path class="fil0" d="M3843 1822l-403 0 0 -41 403 0 20 21 -20 20zm0 -41c11,0 20,10 20,21 0,11 -9,20 -20,20l0 -41zm20 -323l0 344 -41 0 0 -344 21 -20 20 20zm-41 0c0,-11 9,-20 21,-20 11,0 20,9 20,20l-41 0zm-382 -20l403 0 0 41 -403 0 -20 -21 20 -20zm0 41c-11,0 -20,-10 -20,-21 0,-11 9,-20 20,-20l0 41zm-20 323l0 -344 40 0 0 344 -20 20 -20 -20zm40 0c0,11 -9,20 -20,20 -11,0 -20,-9 -20,-20l40 0z"/>
    <polygon id="1" class="fil1" points="3440,1802 3843,1802 3843,1458 3440,1458 "/>
   </g>
   <g>
    <path class="fil0" d="M3258 1822l-403 0 0 -41 403 0 20 21 -20 20zm0 -41c11,0 20,10 20,21 0,11 -9,20 -20,20l0 -41zm20 -323l0 344 -41 0 0 -344 21 -20 20 20zm-41 0c0,-11 9,-20 21,-20 11,0 20,9 20,20l-41 0zm-382 -20l403 0 0 41 -403 0 -20 -21 20 -20zm0 41c-11,0 -20,-10 -20,-21 0,-11 9,-20 20,-20l0 41zm-20 323l0 -344 40 0 0 344 -20 20 -20 -20zm40 0c0,11 -9,20 -20,20 -11,0 -20,-9 -20,-20l40 0z"/>
    <polygon id="1" class="fil1" points="2855,1802 3258,1802 3258,1458 2855,1458 "/>
   </g>
   <g>
    <path class="fil0" d="M2673 1822l-403 0 0 -41 403 0 20 21 -20 20zm0 -41c11,0 20,10 20,21 0,11 -9,20 -20,20l0 -41zm20 -323l0 344 -41 0 0 -344 21 -20 20 20zm-41 0c0,-11 9,-20 21,-20 11,0 20,9 20,20l-41 0zm-382 -20l403 0 0 41 -403 0 -20 -21 20 -20zm0 41c-11,0 -20,-10 -20,-21 0,-11 9,-20 20,-20l0 41zm-20 323l0 -344 40 0 0 344 -20 20 -20 -20zm40 0c0,11 -9,20 -20,20 -11,0 -20,-9 -20,-20l40 0z"/>
    <polygon id="1" class="fil1" points="2270,1802 2673,1802 2673,1458 2270,1458 "/>
   </g>
   <g>
    <path class="fil0" d="M3843 2328l-403 0 0 -41 403 0 20 20 -20 21zm0 -41c11,0 20,9 20,20 0,12 -9,21 -20,21l0 -41zm20 -323l0 343 -41 0 0 -343 21 -20 20 20zm-41 0c0,-11 9,-20 21,-20 11,0 20,9 20,20l-41 0zm-382 -20l403 0 0 40 -403 0 -20 -20 20 -20zm0 40c-11,0 -20,-9 -20,-20 0,-11 9,-20 20,-20l0 40zm-20 323l0 -343 40 0 0 343 -20 21 -20 -21zm40 0c0,12 -9,21 -20,21 -11,0 -20,-9 -20,-21l40 0z"/>
    <polygon id="1" class="fil1" points="3440,2307 3843,2307 3843,1964 3440,1964 "/>
   </g>
   <g>
    <path class="fil0" d="M3258 2328l-403 0 0 -41 403 0 20 20 -20 21zm0 -41c11,0 20,9 20,20 0,12 -9,21 -20,21l0 -41zm20 -323l0 343 -41 0 0 -343 21 -20 20 20zm-41 0c0,-11 9,-20 21,-20 11,0 20,9 20,20l-41 0zm-382 -20l403 0 0 40 -403 0 -20 -20 20 -20zm0 40c-11,0 -20,-9 -20,-20 0,-11 9,-20 20,-20l0 40zm-20 323l0 -343 40 0 0 343 -20 21 -20 -21zm40 0c0,12 -9,21 -20,21 -11,0 -20,-9 -20,-21l40 0z"/>
    <polygon id="1" class="fil1" points="2855,2307 3258,2307 3258,1964 2855,1964 "/>
   </g>
   <g>
    <path class="fil0" d="M2673 2328l-403 0 0 -41 403 0 20 20 -20 21zm0 -41c11,0 20,9 20,20 0,12 -9,21 -20,21l0 -41zm20 -323l0 343 -41 0 0 -343 21 -20 20 20zm-41 0c0,-11 9,-20 21,-20 11,0 20,9 20,20l-41 0zm-382 -20l403 0 0 40 -403 0 -20 -20 20 -20zm0 40c-11,0 -20,-9 -20,-20 0,-11 9,-20 20,-20l0 40zm-20 323l0 -343 40 0 0 343 -20 21 -20 -21zm40 0c0,12 -9,21 -20,21 -11,0 -20,-9 -20,-21l40 0z"/>
    <polygon id="1" class="fil1" points="2270,2307 2673,2307 2673,1964 2270,1964 "/>
   </g>
   <g>
    <path class="fil0" d="M3843 2833l-403 0 0 -40 403 0 20 20 -20 20zm0 -40c11,0 20,9 20,20 0,11 -9,20 -20,20l0 -40zm20 -323l0 343 -41 0 0 -343 21 -21 20 21zm-41 0c0,-11 9,-21 21,-21 11,0 20,10 20,21l-41 0zm-382 -21l403 0 0 41 -403 0 -20 -20 20 -21zm0 41c-11,0 -20,-9 -20,-20 0,-11 9,-21 20,-21l0 41zm-20 323l0 -343 40 0 0 343 -20 20 -20 -20zm40 0c0,11 -9,20 -20,20 -11,0 -20,-9 -20,-20l40 0z"/>
    <polygon id="1" class="fil1" points="3440,2813 3843,2813 3843,2470 3440,2470 "/>
   </g>
   <g>
    <path class="fil0" d="M3258 2833l-403 0 0 -40 403 0 20 20 -20 20zm0 -40c11,0 20,9 20,20 0,11 -9,20 -20,20l0 -40zm20 -323l0 343 -41 0 0 -343 21 -21 20 21zm-41 0c0,-11 9,-21 21,-21 11,0 20,10 20,21l-41 0zm-382 -21l403 0 0 41 -403 0 -20 -20 20 -21zm0 41c-11,0 -20,-9 -20,-20 0,-11 9,-21 20,-21l0 41zm-20 323l0 -343 40 0 0 343 -20 20 -20 -20zm40 0c0,11 -9,20 -20,20 -11,0 -20,-9 -20,-20l40 0z"/>
    <polygon id="1" class="fil1" points="2855,2813 3258,2813 3258,2470 2855,2470 "/>
   </g>
   <g>
    <path class="fil0" d="M2673 2833l-403 0 0 -40 403 0 20 20 -20 20zm0 -40c11,0 20,9 20,20 0,11 -9,20 -20,20l0 -40zm20 -323l0 343 -41 0 0 -343 21 -21 20 21zm-41 0c0,-11 9,-21 21,-21 11,0 20,10 20,21l-41 0zm-382 -21l403 0 0 41 -403 0 -20 -20 20 -21zm0 41c-11,0 -20,-9 -20,-20 0,-11 9,-21 20,-21l0 41zm-20 323l0 -343 40 0 0 343 -20 20 -20 -20zm40 0c0,11 -9,20 -20,20 -11,0 -20,-9 -20,-20l40 0z"/>
    <polygon id="1" class="fil1" points="2270,2813 2673,2813 2673,2470 2270,2470 "/>
   </g>
   <g>
    <path class="fil0" d="M3843 3339l-403 0 0 -40 403 0 20 20 -20 20zm0 -40c11,0 20,9 20,20 0,11 -9,20 -20,20l0 -40zm20 -324l0 344 -41 0 0 -344 21 -20 20 20zm-41 0c0,-11 9,-20 21,-20 11,0 20,9 20,20l-41 0zm-382 -20l403 0 0 41 -403 0 -20 -21 20 -20zm0 41c-11,0 -20,-9 -20,-21 0,-11 9,-20 20,-20l0 41zm-20 323l0 -344 40 0 0 344 -20 20 -20 -20zm40 0c0,11 -9,20 -20,20 -11,0 -20,-9 -20,-20l40 0z"/>
    <polygon id="1" class="fil1" points="3440,3319 3843,3319 3843,2975 3440,2975 "/>
   </g>
   <g>
    <path class="fil0" d="M3258 3339l-403 0 0 -40 403 0 20 20 -20 20zm0 -40c11,0 20,9 20,20 0,11 -9,20 -20,20l0 -40zm20 -324l0 344 -41 0 0 -344 21 -20 20 20zm-41 0c0,-11 9,-20 21,-20 11,0 20,9 20,20l-41 0zm-382 -20l403 0 0 41 -403 0 -20 -21 20 -20zm0 41c-11,0 -20,-9 -20,-21 0,-11 9,-20 20,-20l0 41zm-20 323l0 -344 40 0 0 344 -20 20 -20 -20zm40 0c0,11 -9,20 -20,20 -11,0 -20,-9 -20,-20l40 0z"/>
    <polygon id="1" class="fil1" points="2855,3319 3258,3319 3258,2975 2855,2975 "/>
   </g>
   <g>
    <path class="fil0" d="M2673 3339l-403 0 0 -40 403 0 20 20 -20 20zm0 -40c11,0 20,9 20,20 0,11 -9,20 -20,20l0 -40zm20 -324l0 344 -41 0 0 -344 21 -20 20 20zm-41 0c0,-11 9,-20 21,-20 11,0 20,9 20,20l-41 0zm-382 -20l403 0 0 41 -403 0 -20 -21 20 -20zm0 41c-11,0 -20,-9 -20,-21 0,-11 9,-20 20,-20l0 41zm-20 323l0 -344 40 0 0 344 -20 20 -20 -20zm40 0c0,11 -9,20 -20,20 -11,0 -20,-9 -20,-20l40 0z"/>
    <polygon id="1" class="fil1" points="2270,3319 2673,3319 2673,2975 2270,2975 "/>
   </g>
   <g>
    <path class="fil0" d="M1776 3339l-402 0 0 -40 402 0 21 20 -21 20zm0 -40c12,0 21,9 21,20 0,11 -9,20 -21,20l0 -40zm21 -324l0 344 -41 0 0 -344 20 -20 21 20zm-41 0c0,-11 9,-20 20,-20 12,0 21,9 21,20l-41 0zm-382 -20l402 0 0 41 -402 0 -20 -21 20 -20zm0 41c-11,0 -20,-9 -20,-21 0,-11 9,-20 20,-20l0 41zm-20 323l0 -344 40 0 0 344 -20 20 -20 -20zm40 0c0,11 -9,20 -20,20 -11,0 -20,-9 -20,-20l40 0z"/>
    <polygon id="1" class="fil1" points="1374,3319 1776,3319 1776,2975 1374,2975 "/>
   </g>
   <g>
    <path class="fil0" d="M1191 3339l-402 0 0 -40 402 0 21 20 -21 20zm0 -40c12,0 21,9 21,20 0,11 -9,20 -21,20l0 -40zm21 -324l0 344 -41 0 0 -344 20 -20 21 20zm-41 0c0,-11 9,-20 20,-20 12,0 21,9 21,20l-41 0zm-382 -20l402 0 0 41 -402 0 -20 -21 20 -20zm0 41c-11,0 -20,-9 -20,-21 0,-11 9,-20 20,-20l0 41zm-20 323l0 -344 40 0 0 344 -20 20 -20 -20zm40 0c0,11 -9,20 -20,20 -11,0 -20,-9 -20,-20l40 0z"/>
    <polygon id="1" class="fil1" points="789,3319 1191,3319 1191,2975 789,2975 "/>
   </g>
   <g>
    <path class="fil0" d="M1776 3845l-402 0 0 -41 402 0 21 21 -21 20zm0 -41c12,0 21,9 21,21 0,11 -9,20 -21,20l0 -41zm21 -323l0 344 -41 0 0 -344 20 -20 21 20zm-41 0c0,-11 9,-20 20,-20 12,0 21,9 21,20l-41 0zm-382 -20l402 0 0 40 -402 0 -20 -20 20 -20zm0 40c-11,0 -20,-9 -20,-20 0,-11 9,-20 20,-20l0 40zm-20 324l0 -344 40 0 0 344 -20 20 -20 -20zm40 0c0,11 -9,20 -20,20 -11,0 -20,-9 -20,-20l40 0z"/>
    <polygon id="1" class="fil1" points="1374,3825 1776,3825 1776,3481 1374,3481 "/>
   </g>
   <g>
    <path class="fil0" d="M1191 3845l-402 0 0 -41 402 0 21 21 -21 20zm0 -41c12,0 21,9 21,21 0,11 -9,20 -21,20l0 -41zm21 -323l0 344 -41 0 0 -344 20 -20 21 20zm-41 0c0,-11 9,-20 20,-20 12,0 21,9 21,20l-41 0zm-382 -20l402 0 0 40 -402 0 -20 -20 20 -20zm0 40c-11,0 -20,-9 -20,-20 0,-11 9,-20 20,-20l0 40zm-20 324l0 -344 40 0 0 344 -20 20 -20 -20zm40 0c0,11 -9,20 -20,20 -11,0 -20,-9 -20,-20l40 0z"/>
    <polygon id="1" class="fil1" points="789,3825 1191,3825 1191,3481 789,3481 "/>
   </g>
  </g>
 </g>
</svg>
