<?xml version="1.0" encoding="UTF-8"?>
<!DOCTYPE svg PUBLIC "-//W3C//DTD SVG 1.1//EN" "http://www.w3.org/Graphics/SVG/1.1/DTD/svg11.dtd">
<!-- Creator: CorelDRAW X8 -->
<svg xmlns="http://www.w3.org/2000/svg" xml:space="preserve" width="45mm" height="45mm" version="1.1" style="shape-rendering:geometricPrecision; text-rendering:geometricPrecision; image-rendering:optimizeQuality; fill-rule:evenodd; clip-rule:evenodd"
viewBox="0 0 4500 4500"
 xmlns:xlink="http://www.w3.org/1999/xlink">
 <defs>
  <style type="text/css">
   <![CDATA[
    .str0 {stroke:#0B1D2C;stroke-width:17.13;stroke-linecap:round;stroke-linejoin:round}
    .fil1 {fill:none;fill-rule:nonzero}
    .fil0 {fill:#0B1D2C;fill-rule:nonzero}
   ]]>
  </style>
 </defs>
 <g id="Capa_x0020_1">
  <metadata id="CorelCorpID_0Corel-Layer"/>
  <g>
   <path class="fil0" d="M4418 2250l-336 0 0 0 -2 -94 -7 -93 -12 -92 -16 -90 -20 -89 -25 -86 -29 -85 -33 -83 -36 -82 -41 -78 -44 -77 -47 -74 -51 -72 -55 -69 -57 -67 -61 -64 -64 -60 -66 -58 -70 -54 -71 -51 -75 -48 -76 -44 -79 -41 -82 -36 -83 -33 -85 -29 -87 -25 -88 -20 -91 -16 -91 -12 -93 -7 -95 -2 0 -338 111 3 110 8 109 14 107 19 104 25 103 29 101 34 99 39 96 43 93 48 91 52 88 57 85 60 82 64 78 68 76 72 71 75 68 79 65 82 60 85 57 88 52 91 48 93 43 97 39 98 34 101 30 103 24 105 19 107 14 108 8 111 3 111 0 0zm-2168 2169l0 -338 0 0 95 -2 93 -7 91 -12 91 -16 88 -20 87 -25 85 -29 83 -33 82 -36 79 -41 76 -44 75 -48 71 -51 70 -54 66 -58 64 -60 61 -64 57 -67 55 -69 51 -72 47 -74 44 -77 41 -78 36 -82 33 -83 29 -85 25 -86 20 -89 16 -90 12 -92 7 -93 2 -94 336 0 -3 111 -8 111 -14 108 -19 107 -24 105 -30 103 -34 101 -39 99 -43 96 -48 93 -52 91 -57 88 -60 85 -65 82 -68 79 -71 75 -76 72 -78 68 -82 64 -85 60 -88 57 -91 52 -93 48 -96 43 -99 39 -101 34 -103 30 -104 24 -107 19 -109 14 -110 8 -111 3 0 0zm-2168 -2169l336 0 0 0 2 94 7 93 12 92 16 90 20 89 25 86 29 85 33 83 36 82 41 78 44 77 47 74 51 72 55 69 57 67 61 64 64 60 66 58 70 54 71 51 75 48 76 44 79 41 82 36 83 33 85 29 87 25 88 20 91 16 91 12 94 7 94 2 0 338 -111 -3 -110 -8 -109 -14 -107 -19 -104 -24 -103 -30 -101 -34 -99 -39 -96 -43 -93 -48 -91 -52 -88 -57 -85 -60 -82 -64 -78 -68 -76 -72 -71 -75 -68 -79 -65 -82 -60 -85 -57 -88 -52 -91 -48 -93 -43 -96 -39 -99 -34 -101 -30 -103 -24 -105 -19 -107 -14 -108 -8 -111 -3 -111 0 0zm2168 -2169l0 338 0 0 -94 2 -94 7 -91 12 -91 16 -88 20 -87 25 -85 29 -83 33 -82 36 -79 41 -76 44 -75 48 -71 51 -70 54 -66 58 -64 60 -61 64 -57 67 -55 69 -51 72 -47 74 -44 77 -41 78 -36 82 -33 83 -29 85 -25 86 -20 89 -16 90 -12 92 -7 93 -2 94 -336 0 3 -111 8 -111 14 -108 19 -107 24 -105 30 -103 34 -101 39 -98 43 -97 48 -93 52 -91 57 -88 60 -85 65 -82 68 -79 71 -75 76 -72 78 -68 82 -64 85 -60 88 -57 91 -52 93 -48 96 -43 99 -39 101 -34 103 -29 104 -25 107 -19 109 -14 110 -8 111 -3 0 0z"/>
  </g>
  <g>
   <path class="fil1 str0" d="M2080 2967c-1,-44 -2,-78 -2,-100 0,-132 19,-245 56,-340 28,-73 71,-145 133,-218 44,-54 125,-131 241,-234 116,-102 191,-184 226,-245 35,-61 52,-127 52,-200 0,-131 -51,-246 -153,-345 -101,-99 -226,-149 -373,-149 -144,0 -262,45 -358,135 -96,90 -158,231 -188,422l-343 -42c31,-255 122,-451 276,-586 153,-136 355,-204 607,-204 266,0 479,73 638,218 158,146 237,322 237,529 0,119 -28,229 -84,330 -55,101 -165,223 -328,367 -109,97 -180,168 -214,214 -34,46 -58,99 -74,158 -16,59 -26,156 -28,290l-321 0zm-61 672l0 -382 382 0 0 382 -382 0z"/>
  </g>
  <path id="1" class="fil0" d="M2080 2967c-1,-44 -2,-78 -2,-100 0,-132 19,-245 56,-340 28,-73 71,-145 133,-218 44,-54 125,-131 241,-234 116,-102 191,-184 226,-245 35,-61 52,-127 52,-200 0,-131 -51,-246 -153,-345 -101,-99 -226,-149 -373,-149 -144,0 -262,45 -358,135 -96,90 -158,231 -188,422l-343 -42c31,-255 122,-451 276,-586 153,-136 355,-204 607,-204 266,0 479,73 638,218 158,146 237,322 237,529 0,119 -28,229 -84,330 -55,101 -165,223 -328,367 -109,97 -180,168 -214,214 -34,46 -58,99 -74,158 -16,59 -26,156 -28,290l-321 0zm-61 672l0 -382 382 0 0 382 -382 0z"/>
 </g>
</svg>
